<?xml version="1.0" encoding="UTF-8" standalone="no"?>
<!DOCTYPE svg PUBLIC "-//W3C//DTD SVG 1.1//EN"
 "http://www.w3.org/Graphics/SVG/1.1/DTD/svg11.dtd">
<!-- Generated by graphviz version 2.38.0 (20140413.2041)
 -->
<!-- Title: G Pages: 1 -->
<svg width="670pt" height="512pt"
 viewBox="0.00 0.00 670.38 512.00" xmlns="http://www.w3.org/2000/svg" xmlns:xlink="http://www.w3.org/1999/xlink">
<g id="graph0" class="graph" transform="scale(1 1) rotate(0) translate(4 508)">
<title>G</title>
<polygon fill="white" stroke="none" points="-4,4 -4,-508 666.378,-508 666.378,4 -4,4"/>
<g id="clust1" class="cluster"><title>cluster_Global</title>
<path fill="none" stroke="gray" d="M20,-100C20,-100 642.378,-100 642.378,-100 648.378,-100 654.378,-106 654.378,-112 654.378,-112 654.378,-484 654.378,-484 654.378,-490 648.378,-496 642.378,-496 642.378,-496 20,-496 20,-496 14,-496 8,-490 8,-484 8,-484 8,-112 8,-112 8,-106 14,-100 20,-100"/>
<text text-anchor="middle" x="331.189" y="-483.2" font-family="Times,serif" font-size="11.00" fill="gray">Global</text>
</g>
<!-- \\Horde_Rpc -->
<g id="node1" class="node"><title>\\Horde_Rpc</title>
<polygon fill="none" stroke="black" points="93,-306 16,-306 16,-270 93,-270 93,-306"/>
<text text-anchor="middle" x="54.5" y="-285.2" font-family="Courier,monospace" font-size="11.00">Horde_Rpc</text>
</g>
<!-- \\Horde_Rpc_Soap -->
<g id="node2" class="node"><title>\\Horde_Rpc_Soap</title>
<polygon fill="none" stroke="black" points="342.689,-468 231.689,-468 231.689,-432 342.689,-432 342.689,-468"/>
<text text-anchor="middle" x="287.189" y="-447.2" font-family="Courier,monospace" font-size="11.00">Horde_Rpc_Soap</text>
</g>
<!-- \\Horde_Rpc_Soap&#45;&gt;\\Horde_Rpc -->
<g id="edge1" class="edge"><title>\\Horde_Rpc_Soap&#45;&gt;\\Horde_Rpc</title>
<path fill="none" stroke="black" d="M231.66,-445.698C209.685,-442.035 184.886,-435.309 165,-423 121.747,-396.227 87.9795,-346.181 69.9587,-315.119"/>
<polygon fill="none" stroke="black" points="72.8474,-313.116 64.8785,-306.135 66.7541,-316.562 72.8474,-313.116"/>
</g>
<!-- \\Horde_Rpc_Soap_Caller -->
<g id="node3" class="node"><title>\\Horde_Rpc_Soap_Caller</title>
<polygon fill="none" stroke="black" points="642.878,-387 484.878,-387 484.878,-351 642.878,-351 642.878,-387"/>
<text text-anchor="middle" x="563.878" y="-366.2" font-family="Courier,monospace" font-size="11.00">Horde_Rpc_Soap_Caller</text>
</g>
<!-- \\Horde_Rpc_Webdav -->
<g id="node4" class="node"><title>\\Horde_Rpc_Webdav</title>
<polygon fill="none" stroke="black" points="349.689,-414 224.689,-414 224.689,-378 349.689,-378 349.689,-414"/>
<text text-anchor="middle" x="287.189" y="-393.2" font-family="Courier,monospace" font-size="11.00">Horde_Rpc_Webdav</text>
</g>
<!-- \\Horde_Rpc_Webdav&#45;&gt;\\Horde_Rpc -->
<g id="edge2" class="edge"><title>\\Horde_Rpc_Webdav&#45;&gt;\\Horde_Rpc</title>
<path fill="none" stroke="black" d="M224.476,-387.417C204.896,-383.348 183.532,-377.456 165,-369 134.097,-354.9 103.398,-331.12 82.4033,-312.963"/>
<polygon fill="none" stroke="black" points="84.6695,-310.295 74.8521,-306.311 80.0425,-315.547 84.6695,-310.295"/>
</g>
<!-- \\Horde_Rpc_Exception -->
<g id="node5" class="node"><title>\\Horde_Rpc_Exception</title>
<polygon fill="none" stroke="black" points="636.378,-198 491.378,-198 491.378,-162 636.378,-162 636.378,-198"/>
<text text-anchor="middle" x="563.878" y="-177.2" font-family="Courier,monospace" font-size="11.00">Horde_Rpc_Exception</text>
</g>
<!-- \\Horde_Exception_Wrapped -->
<g id="node13" class="node"><title>\\Horde_Exception_Wrapped</title>
<ellipse fill="none" stroke="black" cx="287.189" cy="-72" rx="112.38" ry="18"/>
<text text-anchor="middle" x="287.189" y="-68.3" font-family="Times,serif" font-size="14.00" fill="gray">\Horde_Exception_Wrapped</text>
</g>
<!-- \\Horde_Rpc_Exception&#45;&gt;\\Horde_Exception_Wrapped -->
<g id="edge3" class="edge"><title>\\Horde_Rpc_Exception&#45;&gt;\\Horde_Exception_Wrapped</title>
<path fill="none" stroke="black" d="M500.509,-161.874C493.91,-159.213 487.413,-156.256 481.378,-153 445.459,-133.62 446.433,-113.11 409.378,-96 401.156,-92.2033 392.348,-89.0061 383.373,-86.3139"/>
<polygon fill="none" stroke="black" points="384.16,-82.8999 373.587,-83.5864 382.28,-89.6429 384.16,-82.8999"/>
</g>
<!-- \\Horde_Rpc_Jsonrpc -->
<g id="node6" class="node"><title>\\Horde_Rpc_Jsonrpc</title>
<polygon fill="none" stroke="black" points="352.689,-360 221.689,-360 221.689,-324 352.689,-324 352.689,-360"/>
<text text-anchor="middle" x="287.189" y="-339.2" font-family="Courier,monospace" font-size="11.00">Horde_Rpc_Jsonrpc</text>
</g>
<!-- \\Horde_Rpc_Jsonrpc&#45;&gt;\\Horde_Rpc -->
<g id="edge4" class="edge"><title>\\Horde_Rpc_Jsonrpc&#45;&gt;\\Horde_Rpc</title>
<path fill="none" stroke="black" d="M221.661,-327.907C203.33,-323.826 183.362,-319.309 165,-315 144.628,-310.22 122.182,-304.725 102.944,-299.946"/>
<polygon fill="none" stroke="black" points="103.753,-296.541 93.2039,-297.519 102.061,-303.333 103.753,-296.541"/>
</g>
<!-- \\Horde_Rpc_Syncml -->
<g id="node7" class="node"><title>\\Horde_Rpc_Syncml</title>
<polygon fill="none" stroke="black" points="349.689,-144 224.689,-144 224.689,-108 349.689,-108 349.689,-144"/>
<text text-anchor="middle" x="287.189" y="-123.2" font-family="Courier,monospace" font-size="11.00">Horde_Rpc_Syncml</text>
</g>
<!-- \\Horde_Rpc_Syncml&#45;&gt;\\Horde_Rpc -->
<g id="edge5" class="edge"><title>\\Horde_Rpc_Syncml&#45;&gt;\\Horde_Rpc</title>
<path fill="none" stroke="black" d="M224.587,-131.573C204.484,-135.454 182.779,-141.995 165,-153 121.747,-179.773 87.9795,-229.819 69.9587,-260.881"/>
<polygon fill="none" stroke="black" points="66.7541,-259.438 64.8785,-269.865 72.8474,-262.884 66.7541,-259.438"/>
</g>
<!-- \\Horde_Rpc_Phpgw -->
<g id="node8" class="node"><title>\\Horde_Rpc_Phpgw</title>
<polygon fill="none" stroke="black" points="346.189,-306 228.189,-306 228.189,-270 346.189,-270 346.189,-306"/>
<text text-anchor="middle" x="287.189" y="-285.2" font-family="Courier,monospace" font-size="11.00">Horde_Rpc_Phpgw</text>
</g>
<!-- \\Horde_Rpc_Phpgw&#45;&gt;\\Horde_Rpc -->
<g id="edge6" class="edge"><title>\\Horde_Rpc_Phpgw&#45;&gt;\\Horde_Rpc</title>
<path fill="none" stroke="black" d="M227.977,-288C189.466,-288 139.588,-288 103.383,-288"/>
<polygon fill="none" stroke="black" points="103.086,-284.5 93.0857,-288 103.086,-291.5 103.086,-284.5"/>
</g>
<!-- \\Horde_Rpc_ActiveSync -->
<g id="node9" class="node"><title>\\Horde_Rpc_ActiveSync</title>
<polygon fill="none" stroke="black" points="363.189,-252 211.189,-252 211.189,-216 363.189,-216 363.189,-252"/>
<text text-anchor="middle" x="287.189" y="-231.2" font-family="Courier,monospace" font-size="11.00">Horde_Rpc_ActiveSync</text>
</g>
<!-- \\Horde_Rpc_ActiveSync&#45;&gt;\\Horde_Rpc -->
<g id="edge7" class="edge"><title>\\Horde_Rpc_ActiveSync&#45;&gt;\\Horde_Rpc</title>
<path fill="none" stroke="black" d="M211.138,-250.444C195.857,-253.87 179.9,-257.504 165,-261 144.628,-265.78 122.182,-271.275 102.944,-276.054"/>
<polygon fill="none" stroke="black" points="102.061,-272.667 93.2039,-278.481 103.753,-279.459 102.061,-272.667"/>
</g>
<!-- \\Horde_Rpc_Translation -->
<g id="node10" class="node"><title>\\Horde_Rpc_Translation</title>
<polygon fill="none" stroke="black" points="642.878,-144 484.878,-144 484.878,-108 642.878,-108 642.878,-144"/>
<text text-anchor="middle" x="563.878" y="-123.2" font-family="Courier,monospace" font-size="11.00">Horde_Rpc_Translation</text>
</g>
<!-- \\Horde_Translation_Autodetect -->
<g id="node14" class="node"><title>\\Horde_Translation_Autodetect</title>
<ellipse fill="none" stroke="black" cx="287.189" cy="-18" rx="122.379" ry="18"/>
<text text-anchor="middle" x="287.189" y="-14.3" font-family="Times,serif" font-size="14.00" fill="gray">\Horde_Translation_Autodetect</text>
</g>
<!-- \\Horde_Rpc_Translation&#45;&gt;\\Horde_Translation_Autodetect -->
<g id="edge8" class="edge"><title>\\Horde_Rpc_Translation&#45;&gt;\\Horde_Translation_Autodetect</title>
<path fill="none" stroke="black" d="M534.242,-107.902C504.188,-89.6364 455.051,-61.7953 409.378,-45 398.393,-40.9605 386.617,-37.42 374.878,-34.3484"/>
<polygon fill="none" stroke="black" points="375.596,-30.9201 365.044,-31.878 373.89,-37.7092 375.596,-30.9201"/>
</g>
<!-- \\Horde_Rpc_Xmlrpc -->
<g id="node11" class="node"><title>\\Horde_Rpc_Xmlrpc</title>
<polygon fill="none" stroke="black" points="349.689,-198 224.689,-198 224.689,-162 349.689,-162 349.689,-198"/>
<text text-anchor="middle" x="287.189" y="-177.2" font-family="Courier,monospace" font-size="11.00">Horde_Rpc_Xmlrpc</text>
</g>
<!-- \\Horde_Rpc_Xmlrpc&#45;&gt;\\Horde_Rpc -->
<g id="edge9" class="edge"><title>\\Horde_Rpc_Xmlrpc&#45;&gt;\\Horde_Rpc</title>
<path fill="none" stroke="black" d="M224.476,-188.583C204.896,-192.652 183.532,-198.544 165,-207 134.097,-221.1 103.398,-244.88 82.4033,-263.037"/>
<polygon fill="none" stroke="black" points="80.0425,-260.453 74.8521,-269.689 84.6695,-265.705 80.0425,-260.453"/>
</g>
<!-- \\Horde_Rpc_Syncml_Wbxml -->
<g id="node12" class="node"><title>\\Horde_Rpc_Syncml_Wbxml</title>
<polygon fill="none" stroke="black" points="646.378,-252 481.378,-252 481.378,-216 646.378,-216 646.378,-252"/>
<text text-anchor="middle" x="563.878" y="-231.2" font-family="Courier,monospace" font-size="11.00">Horde_Rpc_Syncml_Wbxml</text>
</g>
<!-- \\Horde_Rpc_Syncml_Wbxml&#45;&gt;\\Horde_Rpc_Syncml -->
<g id="edge10" class="edge"><title>\\Horde_Rpc_Syncml_Wbxml&#45;&gt;\\Horde_Rpc_Syncml</title>
<path fill="none" stroke="black" d="M501.025,-215.886C494.263,-213.21 487.587,-210.246 481.378,-207 445.93,-188.468 445.714,-169.724 409.378,-153 394.055,-145.947 376.775,-140.683 360.166,-136.773"/>
<polygon fill="none" stroke="black" points="360.456,-133.253 349.936,-134.51 358.944,-140.088 360.456,-133.253"/>
</g>
</g>
</svg>
