<?xml version="1.0" encoding="UTF-8" standalone="no"?>
<!DOCTYPE svg PUBLIC "-//W3C//DTD SVG 1.1//EN"
 "http://www.w3.org/Graphics/SVG/1.1/DTD/svg11.dtd">
<!-- Generated by graphviz version 2.38.0 (20140413.2041)
 -->
<!-- Title: G Pages: 1 -->
<svg width="506pt" height="150pt"
 viewBox="0.00 0.00 505.88 150.00" xmlns="http://www.w3.org/2000/svg" xmlns:xlink="http://www.w3.org/1999/xlink">
<g id="graph0" class="graph" transform="scale(1 1) rotate(0) translate(4 146)">
<title>G</title>
<polygon fill="white" stroke="none" points="-4,4 -4,-146 501.88,-146 501.88,4 -4,4"/>
<g id="clust1" class="cluster"><title>cluster_Global</title>
<path fill="none" stroke="gray" d="M300.88,-8C300.88,-8 477.88,-8 477.88,-8 483.88,-8 489.88,-14 489.88,-20 489.88,-20 489.88,-122 489.88,-122 489.88,-128 483.88,-134 477.88,-134 477.88,-134 300.88,-134 300.88,-134 294.88,-134 288.88,-128 288.88,-122 288.88,-122 288.88,-20 288.88,-20 288.88,-14 294.88,-8 300.88,-8"/>
<text text-anchor="middle" x="389.38" y="-121.2" font-family="Times,serif" font-size="11.00" fill="gray">Global</text>
</g>
<!-- \\Horde_Serialize -->
<g id="node1" class="node"><title>\\Horde_Serialize</title>
<polygon fill="none" stroke="black" points="448.38,-106 330.38,-106 330.38,-70 448.38,-70 448.38,-106"/>
<text text-anchor="middle" x="389.38" y="-85.2" font-family="Courier,monospace" font-size="11.00">Horde_Serialize</text>
</g>
<!-- \\Horde_Serialize_Exception -->
<g id="node2" class="node"><title>\\Horde_Serialize_Exception</title>
<polygon fill="none" stroke="black" points="481.88,-52 296.88,-52 296.88,-16 481.88,-16 481.88,-52"/>
<text text-anchor="middle" x="389.38" y="-31.2" font-family="Courier,monospace" font-size="11.00">Horde_Serialize_Exception</text>
</g>
<!-- \\Horde_Exception_Wrapped -->
<g id="node3" class="node"><title>\\Horde_Exception_Wrapped</title>
<ellipse fill="none" stroke="black" cx="112.44" cy="-34" rx="112.38" ry="18"/>
<text text-anchor="middle" x="112.44" y="-30.3" font-family="Times,serif" font-size="14.00" fill="gray">\Horde_Exception_Wrapped</text>
</g>
<!-- \\Horde_Serialize_Exception&#45;&gt;\\Horde_Exception_Wrapped -->
<g id="edge1" class="edge"><title>\\Horde_Serialize_Exception&#45;&gt;\\Horde_Exception_Wrapped</title>
<path fill="none" stroke="black" d="M296.829,-34C277.095,-34 255.935,-34 235.254,-34"/>
<polygon fill="none" stroke="black" points="235.148,-30.5001 225.148,-34 235.148,-37.5001 235.148,-30.5001"/>
</g>
</g>
</svg>
