<?xml version="1.0" encoding="UTF-8" standalone="no"?>
<!DOCTYPE svg PUBLIC "-//W3C//DTD SVG 1.1//EN"
 "http://www.w3.org/Graphics/SVG/1.1/DTD/svg11.dtd">
<!-- Generated by graphviz version 2.38.0 (20140413.2041)
 -->
<!-- Title: G Pages: 1 -->
<svg width="718pt" height="1104pt"
 viewBox="0.00 0.00 718.08 1104.00" xmlns="http://www.w3.org/2000/svg" xmlns:xlink="http://www.w3.org/1999/xlink">
<g id="graph0" class="graph" transform="scale(1 1) rotate(0) translate(4 1100)">
<title>G</title>
<polygon fill="white" stroke="none" points="-4,4 -4,-1100 714.08,-1100 714.08,4 -4,4"/>
<g id="clust1" class="cluster"><title>cluster_Global</title>
<path fill="none" stroke="gray" d="M20,-260C20,-260 690.08,-260 690.08,-260 696.08,-260 702.08,-266 702.08,-272 702.08,-272 702.08,-1076 702.08,-1076 702.08,-1082 696.08,-1088 690.08,-1088 690.08,-1088 20,-1088 20,-1088 14,-1088 8,-1082 8,-1076 8,-1076 8,-272 8,-272 8,-266 14,-260 20,-260"/>
<text text-anchor="middle" x="355.04" y="-1075.2" font-family="Times,serif" font-size="11.00" fill="gray">Global</text>
</g>
<!-- \\Vilma_Api -->
<g id="node1" class="node"><title>\\Vilma_Api</title>
<polygon fill="none" stroke="black" points="629.58,-790 552.58,-790 552.58,-754 629.58,-754 629.58,-790"/>
<text text-anchor="middle" x="591.08" y="-769.2" font-family="Courier,monospace" font-size="11.00">Vilma_Api</text>
</g>
<!-- \\Horde_Registry_Api -->
<g id="node19" class="node"><title>\\Horde_Registry_Api</title>
<ellipse fill="none" stroke="black" cx="301.04" cy="-234" rx="87.1846" ry="18"/>
<text text-anchor="middle" x="301.04" y="-230.3" font-family="Times,serif" font-size="14.00" fill="gray">\Horde_Registry_Api</text>
</g>
<!-- \\Vilma_Api&#45;&gt;\\Horde_Registry_Api -->
<g id="edge1" class="edge"><title>\\Vilma_Api&#45;&gt;\\Horde_Registry_Api</title>
<path fill="none" stroke="black" d="M552.558,-771.8C530.602,-769.597 504.127,-762.964 488.08,-745 341.73,-581.172 567.929,-414.744 416.08,-256 410.347,-250.007 403.512,-245.371 396.077,-241.812"/>
<polygon fill="none" stroke="black" points="396.958,-238.392 386.377,-237.859 394.316,-244.874 396.958,-238.392"/>
</g>
<!-- \\Vilma_Test -->
<g id="node2" class="node"><title>\\Vilma_Test</title>
<polygon fill="none" stroke="black" points="633.08,-736 549.08,-736 549.08,-700 633.08,-700 633.08,-736"/>
<text text-anchor="middle" x="591.08" y="-715.2" font-family="Courier,monospace" font-size="11.00">Vilma_Test</text>
</g>
<!-- \\Horde_Test -->
<g id="node20" class="node"><title>\\Horde_Test</title>
<ellipse fill="none" stroke="black" cx="301.04" cy="-180" rx="54.6905" ry="18"/>
<text text-anchor="middle" x="301.04" y="-176.3" font-family="Times,serif" font-size="14.00" fill="gray">\Horde_Test</text>
</g>
<!-- \\Vilma_Test&#45;&gt;\\Horde_Test -->
<g id="edge2" class="edge"><title>\\Vilma_Test&#45;&gt;\\Horde_Test</title>
<path fill="none" stroke="black" d="M549.025,-717.401C527.826,-714.848 503.286,-707.997 488.08,-691 343.074,-528.919 563.203,-367.161 416.08,-207 403.129,-192.902 384.293,-185.52 365.648,-181.821"/>
<polygon fill="none" stroke="black" points="366.085,-178.346 355.648,-180.166 364.942,-185.252 366.085,-178.346"/>
</g>
<!-- \\Vilma_Form_DeleteDomain -->
<g id="node3" class="node"><title>\\Vilma_Form_DeleteDomain</title>
<polygon fill="none" stroke="black" points="677.08,-682 505.08,-682 505.08,-646 677.08,-646 677.08,-682"/>
<text text-anchor="middle" x="591.08" y="-661.2" font-family="Courier,monospace" font-size="11.00">Vilma_Form_DeleteDomain</text>
</g>
<!-- \\Horde_Form -->
<g id="node21" class="node"><title>\\Horde_Form</title>
<ellipse fill="none" stroke="black" cx="301.04" cy="-126" rx="59.2899" ry="18"/>
<text text-anchor="middle" x="301.04" y="-122.3" font-family="Times,serif" font-size="14.00" fill="gray">\Horde_Form</text>
</g>
<!-- \\Vilma_Form_DeleteDomain&#45;&gt;\\Horde_Form -->
<g id="edge3" class="edge"><title>\\Vilma_Form_DeleteDomain&#45;&gt;\\Horde_Form</title>
<path fill="none" stroke="black" d="M504.728,-650.166C498.522,-646.653 492.843,-642.324 488.08,-637 343.074,-474.919 563.203,-313.161 416.08,-153 404.229,-140.099 387.449,-132.822 370.397,-128.845"/>
<polygon fill="none" stroke="black" points="370.849,-125.366 360.361,-126.867 369.495,-132.234 370.849,-125.366"/>
</g>
<!-- \\Vilma_Form_EditForward -->
<g id="node4" class="node"><title>\\Vilma_Form_EditForward</title>
<polygon fill="none" stroke="black" points="673.58,-628 508.58,-628 508.58,-592 673.58,-592 673.58,-628"/>
<text text-anchor="middle" x="591.08" y="-607.2" font-family="Courier,monospace" font-size="11.00">Vilma_Form_EditForward</text>
</g>
<!-- \\Vilma_Form_EditForward&#45;&gt;\\Horde_Form -->
<g id="edge4" class="edge"><title>\\Vilma_Form_EditForward&#45;&gt;\\Horde_Form</title>
<path fill="none" stroke="black" d="M508.233,-597.876C500.684,-594.09 493.755,-589.229 488.08,-583 357.57,-439.77 548.461,-294.502 416.08,-153 404.112,-140.207 387.294,-132.966 370.242,-128.988"/>
<polygon fill="none" stroke="black" points="370.699,-125.511 360.211,-127.006 369.343,-132.378 370.699,-125.511"/>
</g>
<!-- \\Vilma_Form_EditDomain -->
<g id="node5" class="node"><title>\\Vilma_Form_EditDomain</title>
<polygon fill="none" stroke="black" points="670.08,-574 512.08,-574 512.08,-538 670.08,-538 670.08,-574"/>
<text text-anchor="middle" x="591.08" y="-553.2" font-family="Courier,monospace" font-size="11.00">Vilma_Form_EditDomain</text>
</g>
<!-- \\Vilma_Form_EditDomain&#45;&gt;\\Horde_Form -->
<g id="edge5" class="edge"><title>\\Vilma_Form_EditDomain&#45;&gt;\\Horde_Form</title>
<path fill="none" stroke="black" d="M511.877,-545.385C502.954,-541.417 494.702,-536.1 488.08,-529 372.024,-404.576 533.76,-275.888 416.08,-153 404.022,-140.409 387.261,-133.222 370.295,-129.232"/>
<polygon fill="none" stroke="black" points="370.808,-125.765 360.316,-127.235 369.435,-132.629 370.808,-125.765"/>
</g>
<!-- \\Vilma_Form_EditAlias -->
<g id="node6" class="node"><title>\\Vilma_Form_EditAlias</title>
<polygon fill="none" stroke="black" points="667.08,-520 515.08,-520 515.08,-484 667.08,-484 667.08,-520"/>
<text text-anchor="middle" x="591.08" y="-499.2" font-family="Courier,monospace" font-size="11.00">Vilma_Form_EditAlias</text>
</g>
<!-- \\Vilma_Form_EditAlias&#45;&gt;\\Horde_Form -->
<g id="edge6" class="edge"><title>\\Vilma_Form_EditAlias&#45;&gt;\\Horde_Form</title>
<path fill="none" stroke="black" d="M514.89,-492.375C504.869,-488.326 495.509,-482.723 488.08,-475 386.416,-369.315 519.124,-257.34 416.08,-153 403.83,-140.596 387.005,-133.471 370.039,-129.48"/>
<polygon fill="none" stroke="black" points="370.561,-126.015 360.068,-127.476 369.182,-132.878 370.561,-126.015"/>
</g>
<!-- \\Vilma_Form_EditUser -->
<g id="node7" class="node"><title>\\Vilma_Form_EditUser</title>
<polygon fill="none" stroke="black" points="663.58,-466 518.58,-466 518.58,-430 663.58,-430 663.58,-466"/>
<text text-anchor="middle" x="591.08" y="-445.2" font-family="Courier,monospace" font-size="11.00">Vilma_Form_EditUser</text>
</g>
<!-- \\Vilma_Form_EditUser&#45;&gt;\\Horde_Form -->
<g id="edge7" class="edge"><title>\\Vilma_Form_EditUser&#45;&gt;\\Horde_Form</title>
<path fill="none" stroke="black" d="M518.554,-439.372C507.242,-435.281 496.515,-429.404 488.08,-421 400.708,-333.95 504.588,-238.894 416.08,-153 403.63,-140.918 386.823,-133.889 369.941,-129.888"/>
<polygon fill="none" stroke="black" points="370.524,-126.435 360.026,-127.866 369.125,-133.293 370.524,-126.435"/>
</g>
<!-- \\Vilma_Exception -->
<g id="node8" class="node"><title>\\Vilma_Exception</title>
<polygon fill="none" stroke="black" points="650.08,-412 532.08,-412 532.08,-376 650.08,-376 650.08,-412"/>
<text text-anchor="middle" x="591.08" y="-391.2" font-family="Courier,monospace" font-size="11.00">Vilma_Exception</text>
</g>
<!-- \\Horde_Exception_Wrapped -->
<g id="node22" class="node"><title>\\Horde_Exception_Wrapped</title>
<ellipse fill="none" stroke="black" cx="301.04" cy="-72" rx="112.38" ry="18"/>
<text text-anchor="middle" x="301.04" y="-68.3" font-family="Times,serif" font-size="14.00" fill="gray">\Horde_Exception_Wrapped</text>
</g>
<!-- \\Vilma_Exception&#45;&gt;\\Horde_Exception_Wrapped -->
<g id="edge8" class="edge"><title>\\Vilma_Exception&#45;&gt;\\Horde_Exception_Wrapped</title>
<path fill="none" stroke="black" d="M532.034,-389.408C516.012,-385.503 499.824,-378.701 488.08,-367 400.708,-279.95 504.588,-184.894 416.08,-99 411.385,-94.4436 406.07,-90.6059 400.365,-87.3782"/>
<polygon fill="none" stroke="black" points="401.626,-84.0971 391.112,-82.7926 398.518,-90.3691 401.626,-84.0971"/>
</g>
<!-- \\Vilma_Application -->
<g id="node9" class="node"><title>\\Vilma_Application</title>
<polygon fill="none" stroke="black" points="656.58,-358 525.58,-358 525.58,-322 656.58,-322 656.58,-358"/>
<text text-anchor="middle" x="591.08" y="-337.2" font-family="Courier,monospace" font-size="11.00">Vilma_Application</text>
</g>
<!-- \\Horde_Registry_Application -->
<g id="node23" class="node"><title>\\Horde_Registry_Application</title>
<ellipse fill="none" stroke="black" cx="301.04" cy="-18" rx="115.08" ry="18"/>
<text text-anchor="middle" x="301.04" y="-14.3" font-family="Times,serif" font-size="14.00" fill="gray">\Horde_Registry_Application</text>
</g>
<!-- \\Vilma_Application&#45;&gt;\\Horde_Registry_Application -->
<g id="edge9" class="edge"><title>\\Vilma_Application&#45;&gt;\\Horde_Registry_Application</title>
<path fill="none" stroke="black" d="M525.397,-333.619C511.624,-329.53 498.202,-323.085 488.08,-313 400.708,-225.95 504.588,-130.894 416.08,-45 411.528,-40.5831 406.394,-36.8415 400.888,-33.6763"/>
<polygon fill="none" stroke="black" points="402.46,-30.5497 391.957,-29.1626 399.303,-36.7971 402.46,-30.5497"/>
</g>
<!-- \\Vilma_MailboxDriver -->
<g id="node10" class="node"><title>\\Vilma_MailboxDriver</title>
<polygon fill="none" stroke="black" points="373.54,-925 228.54,-925 228.54,-889 373.54,-889 373.54,-925"/>
<text text-anchor="start" x="267.04" y="-910.2" font-family="Courier,monospace" font-size="11.00">«abstract»</text>
<text text-anchor="start" x="236.54" y="-898.2" font-family="Courier,monospace" font-size="11.00">Vilma_MailboxDriver</text>
</g>
<!-- \\Vilma_Driver_Qmailldap -->
<g id="node11" class="node"><title>\\Vilma_Driver_Qmailldap</title>
<polygon fill="none" stroke="black" points="673.58,-1060 508.58,-1060 508.58,-1024 673.58,-1024 673.58,-1060"/>
<text text-anchor="middle" x="591.08" y="-1039.2" font-family="Courier,monospace" font-size="11.00">Vilma_Driver_Qmailldap</text>
</g>
<!-- \\Vilma_Driver_Sql -->
<g id="node12" class="node"><title>\\Vilma_Driver_Sql</title>
<polygon fill="none" stroke="black" points="363.54,-1060 238.54,-1060 238.54,-1024 363.54,-1024 363.54,-1060"/>
<text text-anchor="middle" x="301.04" y="-1039.2" font-family="Courier,monospace" font-size="11.00">Vilma_Driver_Sql</text>
</g>
<!-- \\Vilma_Driver_Qmailldap&#45;&gt;\\Vilma_Driver_Sql -->
<g id="edge10" class="edge"><title>\\Vilma_Driver_Qmailldap&#45;&gt;\\Vilma_Driver_Sql</title>
<path fill="none" stroke="black" d="M508.309,-1042C465.991,-1042 414.793,-1042 373.991,-1042"/>
<polygon fill="none" stroke="black" points="373.854,-1038.5 363.854,-1042 373.854,-1045.5 373.854,-1038.5"/>
</g>
<!-- \\Vilma_Driver -->
<g id="node13" class="node"><title>\\Vilma_Driver</title>
<polygon fill="none" stroke="black" points="114,-1060 16,-1060 16,-1024 114,-1024 114,-1060"/>
<text text-anchor="start" x="31" y="-1045.2" font-family="Courier,monospace" font-size="11.00">«abstract»</text>
<text text-anchor="start" x="24" y="-1033.2" font-family="Courier,monospace" font-size="11.00">Vilma_Driver</text>
</g>
<!-- \\Vilma_Driver_Sql&#45;&gt;\\Vilma_Driver -->
<g id="edge11" class="edge"><title>\\Vilma_Driver_Sql&#45;&gt;\\Vilma_Driver</title>
<path fill="none" stroke="black" d="M238.242,-1042C203.018,-1042 159.133,-1042 124.476,-1042"/>
<polygon fill="none" stroke="black" points="124.036,-1038.5 114.036,-1042 124.036,-1045.5 124.036,-1038.5"/>
</g>
<!-- \\Vilma_MailboxDriver_Null -->
<g id="node14" class="node"><title>\\Vilma_MailboxDriver_Null</title>
<polygon fill="none" stroke="black" points="680.58,-1006 501.58,-1006 501.58,-970 680.58,-970 680.58,-1006"/>
<text text-anchor="middle" x="591.08" y="-985.2" font-family="Courier,monospace" font-size="11.00">Vilma_MailboxDriver_Null</text>
</g>
<!-- \\Vilma_MailboxDriver_Null&#45;&gt;\\Vilma_MailboxDriver -->
<g id="edge12" class="edge"><title>\\Vilma_MailboxDriver_Null&#45;&gt;\\Vilma_MailboxDriver</title>
<path fill="none" stroke="black" d="M521.161,-969.995C510.087,-967.033 498.759,-963.963 488.08,-961 450.03,-950.443 407.749,-938.211 373.123,-928.061"/>
<polygon fill="none" stroke="black" points="373.684,-924.579 363.103,-925.12 371.713,-931.295 373.684,-924.579"/>
</g>
<!-- \\Vilma_MailboxDriver_Maildrop -->
<g id="node15" class="node"><title>\\Vilma_MailboxDriver_Maildrop</title>
<polygon fill="none" stroke="black" points="694.08,-952 488.08,-952 488.08,-916 694.08,-916 694.08,-952"/>
<text text-anchor="middle" x="591.08" y="-931.2" font-family="Courier,monospace" font-size="11.00">Vilma_MailboxDriver_Maildrop</text>
</g>
<!-- \\Vilma_MailboxDriver_Maildrop&#45;&gt;\\Vilma_MailboxDriver -->
<g id="edge13" class="edge"><title>\\Vilma_MailboxDriver_Maildrop&#45;&gt;\\Vilma_MailboxDriver</title>
<path fill="none" stroke="black" d="M487.717,-924.405C453.719,-921.218 416.334,-917.714 384.076,-914.69"/>
<polygon fill="none" stroke="black" points="384.076,-911.175 373.793,-913.726 383.423,-918.144 384.076,-911.175"/>
</g>
<!-- \\Vilma_MailboxDriver_Hooks -->
<g id="node16" class="node"><title>\\Vilma_MailboxDriver_Hooks</title>
<polygon fill="none" stroke="black" points="683.58,-898 498.58,-898 498.58,-862 683.58,-862 683.58,-898"/>
<text text-anchor="middle" x="591.08" y="-877.2" font-family="Courier,monospace" font-size="11.00">Vilma_MailboxDriver_Hooks</text>
</g>
<!-- \\Vilma_MailboxDriver_Hooks&#45;&gt;\\Vilma_MailboxDriver -->
<g id="edge14" class="edge"><title>\\Vilma_MailboxDriver_Hooks&#45;&gt;\\Vilma_MailboxDriver</title>
<path fill="none" stroke="black" d="M498.546,-888.58C461.813,-892.023 419.803,-895.961 384.079,-899.31"/>
<polygon fill="none" stroke="black" points="383.325,-895.865 373.695,-900.283 383.978,-902.835 383.325,-895.865"/>
</g>
<!-- \\Vilma_MailboxDriver_Imap -->
<g id="node17" class="node"><title>\\Vilma_MailboxDriver_Imap</title>
<polygon fill="none" stroke="black" points="680.58,-844 501.58,-844 501.58,-808 680.58,-808 680.58,-844"/>
<text text-anchor="middle" x="591.08" y="-823.2" font-family="Courier,monospace" font-size="11.00">Vilma_MailboxDriver_Imap</text>
</g>
<!-- \\Vilma_MailboxDriver_Imap&#45;&gt;\\Vilma_MailboxDriver -->
<g id="edge15" class="edge"><title>\\Vilma_MailboxDriver_Imap&#45;&gt;\\Vilma_MailboxDriver</title>
<path fill="none" stroke="black" d="M521.161,-844.005C510.087,-846.967 498.759,-850.037 488.08,-853 450.03,-863.557 407.749,-875.789 373.123,-885.939"/>
<polygon fill="none" stroke="black" points="371.713,-882.705 363.103,-888.88 373.684,-889.421 371.713,-882.705"/>
</g>
<!-- \\Vilma -->
<g id="node18" class="node"><title>\\Vilma</title>
<polygon fill="none" stroke="black" points="618.08,-304 564.08,-304 564.08,-268 618.08,-268 618.08,-304"/>
<text text-anchor="middle" x="591.08" y="-283.2" font-family="Courier,monospace" font-size="11.00">Vilma</text>
</g>
</g>
</svg>
