<?xml version="1.0" encoding="UTF-8" standalone="no"?>
<!DOCTYPE svg PUBLIC "-//W3C//DTD SVG 1.1//EN"
 "http://www.w3.org/Graphics/SVG/1.1/DTD/svg11.dtd">
<!-- Generated by graphviz version 2.38.0 (20140413.2041)
 -->
<!-- Title: G Pages: 1 -->
<svg width="699pt" height="872pt"
 viewBox="0.00 0.00 699.32 872.00" xmlns="http://www.w3.org/2000/svg" xmlns:xlink="http://www.w3.org/1999/xlink">
<g id="graph0" class="graph" transform="scale(1 1) rotate(0) translate(4 868)">
<title>G</title>
<polygon fill="white" stroke="none" points="-4,4 -4,-868 695.324,-868 695.324,4 -4,4"/>
<g id="clust1" class="cluster"><title>cluster_Global</title>
<path fill="none" stroke="gray" d="M20,-244C20,-244 671.324,-244 671.324,-244 677.324,-244 683.324,-250 683.324,-256 683.324,-256 683.324,-844 683.324,-844 683.324,-850 677.324,-856 671.324,-856 671.324,-856 20,-856 20,-856 14,-856 8,-850 8,-844 8,-844 8,-256 8,-256 8,-250 14,-244 20,-244"/>
<text text-anchor="middle" x="345.662" y="-843.2" font-family="Times,serif" font-size="11.00" fill="gray">Global</text>
</g>
<!-- \\Sam_Api -->
<g id="node1" class="node"><title>\\Sam_Api</title>
<polygon fill="none" stroke="black" points="628.324,-558 564.324,-558 564.324,-522 628.324,-522 628.324,-558"/>
<text text-anchor="middle" x="596.324" y="-537.2" font-family="Courier,monospace" font-size="11.00">Sam_Api</text>
</g>
<!-- \\Horde_Registry_Api -->
<g id="node16" class="node"><title>\\Horde_Registry_Api</title>
<ellipse fill="none" stroke="black" cx="325.734" cy="-218" rx="87.1846" ry="18"/>
<text text-anchor="middle" x="325.734" y="-214.3" font-family="Times,serif" font-size="14.00" fill="gray">\Horde_Registry_Api</text>
</g>
<!-- \\Sam_Api&#45;&gt;\\Horde_Registry_Api -->
<g id="edge1" class="edge"><title>\\Sam_Api&#45;&gt;\\Horde_Registry_Api</title>
<path fill="none" stroke="black" d="M564.133,-536.26C548.084,-532.771 529.406,-526.029 517.324,-513 432.001,-420.99 537.293,-325.366 445.324,-240 438.261,-233.445 429.906,-228.535 420.952,-224.892"/>
<polygon fill="none" stroke="black" points="422.027,-221.56 411.432,-221.537 419.7,-228.162 422.027,-221.56"/>
</g>
<!-- \\Sam_Form_Whitelist -->
<g id="node2" class="node"><title>\\Sam_Form_Whitelist</title>
<polygon fill="none" stroke="black" points="665.324,-666 527.324,-666 527.324,-630 665.324,-630 665.324,-666"/>
<text text-anchor="middle" x="596.324" y="-645.2" font-family="Courier,monospace" font-size="11.00">Sam_Form_Whitelist</text>
</g>
<!-- \\Sam_Form_List -->
<g id="node5" class="node"><title>\\Sam_Form_List</title>
<polygon fill="none" stroke="black" points="377.734,-612 273.734,-612 273.734,-576 377.734,-576 377.734,-612"/>
<text text-anchor="middle" x="325.734" y="-591.2" font-family="Courier,monospace" font-size="11.00">Sam_Form_List</text>
</g>
<!-- \\Sam_Form_Whitelist&#45;&gt;\\Sam_Form_List -->
<g id="edge2" class="edge"><title>\\Sam_Form_Whitelist&#45;&gt;\\Sam_Form_List</title>
<path fill="none" stroke="black" d="M527.2,-634.304C484.27,-625.673 429.314,-614.624 387.803,-606.278"/>
<polygon fill="none" stroke="black" points="388.317,-602.811 377.823,-604.272 386.937,-609.674 388.317,-602.811"/>
</g>
<!-- \\Sam_Form_Blacklist -->
<g id="node3" class="node"><title>\\Sam_Form_Blacklist</title>
<polygon fill="none" stroke="black" points="665.324,-612 527.324,-612 527.324,-576 665.324,-576 665.324,-612"/>
<text text-anchor="middle" x="596.324" y="-591.2" font-family="Courier,monospace" font-size="11.00">Sam_Form_Blacklist</text>
</g>
<!-- \\Sam_Form_Blacklist&#45;&gt;\\Sam_Form_List -->
<g id="edge3" class="edge"><title>\\Sam_Form_Blacklist&#45;&gt;\\Sam_Form_List</title>
<path fill="none" stroke="black" d="M527.2,-594C484.361,-594 429.546,-594 388.067,-594"/>
<polygon fill="none" stroke="black" points="387.824,-590.5 377.823,-594 387.823,-597.5 387.824,-590.5"/>
</g>
<!-- \\Sam_Form_Options -->
<g id="node4" class="node"><title>\\Sam_Form_Options</title>
<polygon fill="none" stroke="black" points="658.824,-504 533.824,-504 533.824,-468 658.824,-468 658.824,-504"/>
<text text-anchor="middle" x="596.324" y="-483.2" font-family="Courier,monospace" font-size="11.00">Sam_Form_Options</text>
</g>
<!-- \\Horde_Form -->
<g id="node17" class="node"><title>\\Horde_Form</title>
<ellipse fill="none" stroke="black" cx="75" cy="-195" rx="59.2899" ry="18"/>
<text text-anchor="middle" x="75" y="-191.3" font-family="Times,serif" font-size="14.00" fill="gray">\Horde_Form</text>
</g>
<!-- \\Sam_Form_Options&#45;&gt;\\Horde_Form -->
<g id="edge4" class="edge"><title>\\Sam_Form_Options&#45;&gt;\\Horde_Form</title>
<path fill="none" stroke="black" d="M533.807,-471.459C527.685,-468.128 522.012,-464.033 517.324,-459 433.253,-368.758 543.196,-266.049 445.324,-191 398.852,-155.366 230.685,-172.617 138.136,-185.428"/>
<polygon fill="none" stroke="black" points="137.471,-181.987 128.056,-186.846 138.447,-188.918 137.471,-181.987"/>
</g>
<!-- \\Sam_Form_List&#45;&gt;\\Horde_Form -->
<g id="edge5" class="edge"><title>\\Sam_Form_List&#45;&gt;\\Horde_Form</title>
<path fill="none" stroke="black" d="M318.111,-575.838C297.415,-520.78 229.589,-352.623 134.145,-240 127.078,-231.661 118.233,-223.866 109.59,-217.183"/>
<polygon fill="none" stroke="black" points="111.548,-214.278 101.43,-211.136 107.38,-219.902 111.548,-214.278"/>
</g>
<!-- \\Sam_Exception -->
<g id="node6" class="node"><title>\\Sam_Exception</title>
<polygon fill="none" stroke="black" points="648.324,-450 544.324,-450 544.324,-414 648.324,-414 648.324,-450"/>
<text text-anchor="middle" x="596.324" y="-429.2" font-family="Courier,monospace" font-size="11.00">Sam_Exception</text>
</g>
<!-- \\Horde_Exception_Wrapped -->
<g id="node18" class="node"><title>\\Horde_Exception_Wrapped</title>
<ellipse fill="none" stroke="black" cx="325.734" cy="-126" rx="112.38" ry="18"/>
<text text-anchor="middle" x="325.734" y="-122.3" font-family="Times,serif" font-size="14.00" fill="gray">\Horde_Exception_Wrapped</text>
</g>
<!-- \\Sam_Exception&#45;&gt;\\Horde_Exception_Wrapped -->
<g id="edge6" class="edge"><title>\\Sam_Exception&#45;&gt;\\Horde_Exception_Wrapped</title>
<path fill="none" stroke="black" d="M544.192,-422.112C534.235,-418.179 524.634,-412.682 517.324,-405 438.498,-322.164 526.986,-238.04 445.324,-158 438.429,-151.242 430.263,-145.874 421.493,-141.615"/>
<polygon fill="none" stroke="black" points="422.729,-138.336 412.162,-137.566 419.943,-144.757 422.729,-138.336"/>
</g>
<!-- \\Sam_Application -->
<g id="node7" class="node"><title>\\Sam_Application</title>
<polygon fill="none" stroke="black" points="655.324,-396 537.324,-396 537.324,-360 655.324,-360 655.324,-396"/>
<text text-anchor="middle" x="596.324" y="-375.2" font-family="Courier,monospace" font-size="11.00">Sam_Application</text>
</g>
<!-- \\Horde_Registry_Application -->
<g id="node19" class="node"><title>\\Horde_Registry_Application</title>
<ellipse fill="none" stroke="black" cx="325.734" cy="-72" rx="115.08" ry="18"/>
<text text-anchor="middle" x="325.734" y="-68.3" font-family="Times,serif" font-size="14.00" fill="gray">\Horde_Registry_Application</text>
</g>
<!-- \\Sam_Application&#45;&gt;\\Horde_Registry_Application -->
<g id="edge7" class="edge"><title>\\Sam_Application&#45;&gt;\\Horde_Registry_Application</title>
<path fill="none" stroke="black" d="M536.989,-364.982C529.675,-361.398 522.84,-356.828 517.324,-351 437.252,-266.404 529.9,-179.093 445.324,-99 440.328,-94.2689 434.682,-90.3047 428.633,-86.989"/>
<polygon fill="none" stroke="black" points="430.038,-83.7806 419.511,-82.5811 426.992,-90.0833 430.038,-83.7806"/>
</g>
<!-- \\Sam_Driver_Amavisd_Sql -->
<g id="node8" class="node"><title>\\Sam_Driver_Amavisd_Sql</title>
<polygon fill="none" stroke="black" points="408.234,-720 243.234,-720 243.234,-684 408.234,-684 408.234,-720"/>
<text text-anchor="middle" x="325.734" y="-699.2" font-family="Courier,monospace" font-size="11.00">Sam_Driver_Amavisd_Sql</text>
</g>
<!-- \\Sam_Driver_Base -->
<g id="node13" class="node"><title>\\Sam_Driver_Base</title>
<polygon fill="none" stroke="black" points="134,-747 16,-747 16,-711 134,-711 134,-747"/>
<text text-anchor="start" x="41" y="-732.2" font-family="Courier,monospace" font-size="11.00">«abstract»</text>
<text text-anchor="start" x="24" y="-720.2" font-family="Courier,monospace" font-size="11.00">Sam_Driver_Base</text>
</g>
<!-- \\Sam_Driver_Amavisd_Sql&#45;&gt;\\Sam_Driver_Base -->
<g id="edge8" class="edge"><title>\\Sam_Driver_Amavisd_Sql&#45;&gt;\\Sam_Driver_Base</title>
<path fill="none" stroke="black" d="M242.945,-710.878C211.014,-714.344 174.825,-718.273 144.323,-721.584"/>
<polygon fill="none" stroke="black" points="143.775,-718.122 134.211,-722.681 144.53,-725.082 143.775,-718.122"/>
</g>
<!-- \\Sam_Driver_Spamd_Sql -->
<g id="node9" class="node"><title>\\Sam_Driver_Spamd_Sql</title>
<polygon fill="none" stroke="black" points="672.324,-720 520.324,-720 520.324,-684 672.324,-684 672.324,-720"/>
<text text-anchor="middle" x="596.324" y="-699.2" font-family="Courier,monospace" font-size="11.00">Sam_Driver_Spamd_Sql</text>
</g>
<!-- \\Sam_Driver_Spamd_Base -->
<g id="node11" class="node"><title>\\Sam_Driver_Spamd_Base</title>
<polygon fill="none" stroke="black" points="404.734,-774 246.734,-774 246.734,-738 404.734,-738 404.734,-774"/>
<text text-anchor="start" x="291.734" y="-759.2" font-family="Courier,monospace" font-size="11.00">«abstract»</text>
<text text-anchor="start" x="254.734" y="-747.2" font-family="Courier,monospace" font-size="11.00">Sam_Driver_Spamd_Base</text>
</g>
<!-- \\Sam_Driver_Spamd_Sql&#45;&gt;\\Sam_Driver_Spamd_Base -->
<g id="edge9" class="edge"><title>\\Sam_Driver_Spamd_Sql&#45;&gt;\\Sam_Driver_Spamd_Base</title>
<path fill="none" stroke="black" d="M520.149,-717.114C487.521,-723.674 449.075,-731.403 415.092,-738.236"/>
<polygon fill="none" stroke="black" points="414.282,-734.828 405.168,-740.231 415.662,-741.691 414.282,-734.828"/>
</g>
<!-- \\Sam_Driver_Spamd_Ftp -->
<g id="node10" class="node"><title>\\Sam_Driver_Spamd_Ftp</title>
<polygon fill="none" stroke="black" points="672.324,-828 520.324,-828 520.324,-792 672.324,-792 672.324,-828"/>
<text text-anchor="middle" x="596.324" y="-807.2" font-family="Courier,monospace" font-size="11.00">Sam_Driver_Spamd_Ftp</text>
</g>
<!-- \\Sam_Driver_Spamd_Ftp&#45;&gt;\\Sam_Driver_Spamd_Base -->
<g id="edge10" class="edge"><title>\\Sam_Driver_Spamd_Ftp&#45;&gt;\\Sam_Driver_Spamd_Base</title>
<path fill="none" stroke="black" d="M520.149,-794.886C487.521,-788.326 449.075,-780.597 415.092,-773.764"/>
<polygon fill="none" stroke="black" points="415.662,-770.309 405.168,-771.769 414.282,-777.172 415.662,-770.309"/>
</g>
<!-- \\Sam_Driver_Spamd_Base&#45;&gt;\\Sam_Driver_Base -->
<g id="edge11" class="edge"><title>\\Sam_Driver_Spamd_Base&#45;&gt;\\Sam_Driver_Base</title>
<path fill="none" stroke="black" d="M246.716,-747.531C213.805,-743.959 175.84,-739.838 144.082,-736.39"/>
<polygon fill="none" stroke="black" points="144.323,-732.896 134.003,-735.296 143.567,-739.855 144.323,-732.896"/>
</g>
<!-- \\Sam_Driver_Spamd_Ldap -->
<g id="node12" class="node"><title>\\Sam_Driver_Spamd_Ldap</title>
<polygon fill="none" stroke="black" points="675.324,-774 517.324,-774 517.324,-738 675.324,-738 675.324,-774"/>
<text text-anchor="middle" x="596.324" y="-753.2" font-family="Courier,monospace" font-size="11.00">Sam_Driver_Spamd_Ldap</text>
</g>
<!-- \\Sam_Driver_Spamd_Ldap&#45;&gt;\\Sam_Driver_Spamd_Base -->
<g id="edge12" class="edge"><title>\\Sam_Driver_Spamd_Ldap&#45;&gt;\\Sam_Driver_Spamd_Base</title>
<path fill="none" stroke="black" d="M517.276,-756C485.272,-756 448.067,-756 415.071,-756"/>
<polygon fill="none" stroke="black" points="414.977,-752.5 404.977,-756 414.977,-759.5 414.977,-752.5"/>
</g>
<!-- \\Sam -->
<g id="node14" class="node"><title>\\Sam</title>
<polygon fill="none" stroke="black" points="623.324,-342 569.324,-342 569.324,-306 623.324,-306 623.324,-342"/>
<text text-anchor="middle" x="596.324" y="-321.2" font-family="Courier,monospace" font-size="11.00">Sam</text>
</g>
<!-- \\Sam_Factory_Driver -->
<g id="node15" class="node"><title>\\Sam_Factory_Driver</title>
<polygon fill="none" stroke="black" points="665.324,-288 527.324,-288 527.324,-252 665.324,-252 665.324,-288"/>
<text text-anchor="middle" x="596.324" y="-267.2" font-family="Courier,monospace" font-size="11.00">Sam_Factory_Driver</text>
</g>
<!-- \\Horde_Core_Factory_Injector -->
<g id="node20" class="node"><title>\\Horde_Core_Factory_Injector</title>
<ellipse fill="none" stroke="black" cx="325.734" cy="-18" rx="119.679" ry="18"/>
<text text-anchor="middle" x="325.734" y="-14.3" font-family="Times,serif" font-size="14.00" fill="gray">\Horde_Core_Factory_Injector</text>
</g>
<!-- \\Sam_Factory_Driver&#45;&gt;\\Horde_Core_Factory_Injector -->
<g id="edge13" class="edge"><title>\\Sam_Factory_Driver&#45;&gt;\\Horde_Core_Factory_Injector</title>
<path fill="none" stroke="black" d="M588.665,-251.694C571.9,-208.329 523.608,-98.9403 445.324,-45 438.844,-40.5354 431.738,-36.7985 424.325,-33.6719"/>
<polygon fill="none" stroke="black" points="425.386,-30.3306 414.795,-30.0294 422.887,-36.8692 425.386,-30.3306"/>
</g>
</g>
</svg>
