<?xml version="1.0" encoding="UTF-8" standalone="no"?>
<!DOCTYPE svg PUBLIC "-//W3C//DTD SVG 1.1//EN"
 "http://www.w3.org/Graphics/SVG/1.1/DTD/svg11.dtd">
<!-- Generated by graphviz version 2.38.0 (20140413.2041)
 -->
<!-- Title: G Pages: 1 -->
<svg width="878pt" height="672pt"
 viewBox="0.00 0.00 877.89 672.00" xmlns="http://www.w3.org/2000/svg" xmlns:xlink="http://www.w3.org/1999/xlink">
<g id="graph0" class="graph" transform="scale(1 1) rotate(0) translate(4 668)">
<title>G</title>
<polygon fill="white" stroke="none" points="-4,4 -4,-668 873.893,-668 873.893,4 -4,4"/>
<g id="clust1" class="cluster"><title>cluster_Global</title>
<path fill="none" stroke="gray" d="M20,-44C20,-44 849.893,-44 849.893,-44 855.893,-44 861.893,-50 861.893,-56 861.893,-56 861.893,-644 861.893,-644 861.893,-650 855.893,-656 849.893,-656 849.893,-656 20,-656 20,-656 14,-656 8,-650 8,-644 8,-644 8,-56 8,-56 8,-50 14,-44 20,-44"/>
<text text-anchor="middle" x="434.947" y="-643.2" font-family="Times,serif" font-size="11.00" fill="gray">Global</text>
</g>
<!-- \\Horde_Kolab_Session_Abstract -->
<g id="node1" class="node"><title>\\Horde_Kolab_Session_Abstract</title>
<polygon fill="none" stroke="black" points="461.893,-574 255.893,-574 255.893,-538 461.893,-538 461.893,-574"/>
<text text-anchor="start" x="324.893" y="-559.2" font-family="Courier,monospace" font-size="11.00">«abstract»</text>
<text text-anchor="start" x="263.893" y="-547.2" font-family="Courier,monospace" font-size="11.00">Horde_Kolab_Session_Abstract</text>
</g>
<!-- \\Horde_Kolab_Session -->
<g id="node17" class="node"><title>\\Horde_Kolab_Session</title>
<polygon fill="none" stroke="black" points="161,-533 16,-533 16,-497 161,-497 161,-533"/>
<text text-anchor="middle" x="88.5" y="-512.2" font-family="Courier,monospace" font-size="11.00">Horde_Kolab_Session</text>
</g>
<!-- \\Horde_Kolab_Session_Abstract&#45;&gt;\\Horde_Kolab_Session -->
<g id="edge1" class="edge"><title>\\Horde_Kolab_Session_Abstract&#45;&gt;\\Horde_Kolab_Session</title>
<path fill="none" stroke="black" stroke-dasharray="1,5" d="M255.66,-540.383C227.68,-536.109 197.733,-531.534 171.076,-527.462"/>
<polygon fill="none" stroke="black" points="171.446,-523.978 161.032,-525.927 170.389,-530.897 171.446,-523.978"/>
</g>
<!-- \\Horde_Kolab_Session_Exception -->
<g id="node2" class="node"><title>\\Horde_Kolab_Session_Exception</title>
<polygon fill="none" stroke="black" points="464.893,-277 252.893,-277 252.893,-241 464.893,-241 464.893,-277"/>
<text text-anchor="middle" x="358.893" y="-256.2" font-family="Courier,monospace" font-size="11.00">Horde_Kolab_Session_Exception</text>
</g>
<!-- \\Horde_Exception -->
<g id="node18" class="node"><title>\\Horde_Exception</title>
<ellipse fill="none" stroke="black" cx="88.5" cy="-18" rx="75.2868" ry="18"/>
<text text-anchor="middle" x="88.5" y="-14.3" font-family="Times,serif" font-size="14.00" fill="gray">\Horde_Exception</text>
</g>
<!-- \\Horde_Kolab_Session_Exception&#45;&gt;\\Horde_Exception -->
<g id="edge2" class="edge"><title>\\Horde_Kolab_Session_Exception&#45;&gt;\\Horde_Exception</title>
<path fill="none" stroke="black" d="M272.525,-240.949C259.136,-235.267 246.305,-227.803 235.893,-218 173.762,-159.499 227.086,-97.3515 163.893,-40 161.574,-37.8955 159.063,-35.9919 156.414,-34.2699"/>
<polygon fill="none" stroke="black" points="157.992,-31.1429 147.547,-29.3652 154.603,-37.2683 157.992,-31.1429"/>
</g>
<!-- \\Horde_Kolab_Session_Decorator_Stored -->
<g id="node3" class="node"><title>\\Horde_Kolab_Session_Decorator_Stored</title>
<polygon fill="none" stroke="black" points="833.893,-520 573.893,-520 573.893,-484 833.893,-484 833.893,-520"/>
<text text-anchor="middle" x="703.893" y="-499.2" font-family="Courier,monospace" font-size="11.00">Horde_Kolab_Session_Decorator_Stored</text>
</g>
<!-- \\Horde_Kolab_Session_Decorator_Base -->
<g id="node6" class="node"><title>\\Horde_Kolab_Session_Decorator_Base</title>
<polygon fill="none" stroke="black" points="481.893,-493 235.893,-493 235.893,-457 481.893,-457 481.893,-493"/>
<text text-anchor="middle" x="358.893" y="-472.2" font-family="Courier,monospace" font-size="11.00">Horde_Kolab_Session_Decorator_Base</text>
</g>
<!-- \\Horde_Kolab_Session_Decorator_Stored&#45;&gt;\\Horde_Kolab_Session_Decorator_Base -->
<g id="edge3" class="edge"><title>\\Horde_Kolab_Session_Decorator_Stored&#45;&gt;\\Horde_Kolab_Session_Decorator_Base</title>
<path fill="none" stroke="black" d="M573.708,-491.831C547.103,-489.737 519.048,-487.528 492.329,-485.425"/>
<polygon fill="none" stroke="black" points="492.404,-481.92 482.16,-484.624 491.855,-488.899 492.404,-481.92"/>
</g>
<!-- \\Horde_Kolab_Session_Decorator_Anonymous -->
<g id="node4" class="node"><title>\\Horde_Kolab_Session_Decorator_Anonymous</title>
<polygon fill="none" stroke="black" points="843.893,-466 563.893,-466 563.893,-430 843.893,-430 843.893,-466"/>
<text text-anchor="middle" x="703.893" y="-445.2" font-family="Courier,monospace" font-size="11.00">Horde_Kolab_Session_Decorator_Anonymous</text>
</g>
<!-- \\Horde_Kolab_Session_Decorator_Anonymous&#45;&gt;\\Horde_Kolab_Session_Decorator_Base -->
<g id="edge4" class="edge"><title>\\Horde_Kolab_Session_Decorator_Anonymous&#45;&gt;\\Horde_Kolab_Session_Decorator_Base</title>
<path fill="none" stroke="black" d="M563.877,-458.943C540.153,-460.81 515.569,-462.746 492.031,-464.598"/>
<polygon fill="none" stroke="black" points="491.707,-461.113 482.013,-465.387 492.257,-468.091 491.707,-461.113"/>
</g>
<!-- \\Horde_Kolab_Session_Decorator_Logged -->
<g id="node5" class="node"><title>\\Horde_Kolab_Session_Decorator_Logged</title>
<polygon fill="none" stroke="black" points="833.893,-412 573.893,-412 573.893,-376 833.893,-376 833.893,-412"/>
<text text-anchor="middle" x="703.893" y="-391.2" font-family="Courier,monospace" font-size="11.00">Horde_Kolab_Session_Decorator_Logged</text>
</g>
<!-- \\Horde_Kolab_Session_Decorator_Logged&#45;&gt;\\Horde_Kolab_Session_Decorator_Base -->
<g id="edge5" class="edge"><title>\\Horde_Kolab_Session_Decorator_Logged&#45;&gt;\\Horde_Kolab_Session_Decorator_Base</title>
<path fill="none" stroke="black" d="M596.429,-412.055C582.089,-414.848 567.602,-417.857 553.893,-421 512.133,-430.574 465.897,-443.357 429.041,-454.082"/>
<polygon fill="none" stroke="black" points="428.01,-450.737 419.395,-456.904 429.975,-457.455 428.01,-450.737"/>
</g>
<!-- \\Horde_Kolab_Session_Decorator_Base&#45;&gt;\\Horde_Kolab_Session -->
<g id="edge6" class="edge"><title>\\Horde_Kolab_Session_Decorator_Base&#45;&gt;\\Horde_Kolab_Session</title>
<path fill="none" stroke="black" stroke-dasharray="1,5" d="M237.044,-493.011C214.804,-496.325 192.07,-499.714 171.318,-502.806"/>
<polygon fill="none" stroke="black" points="170.675,-499.363 161.3,-504.299 171.707,-506.287 170.675,-499.363"/>
</g>
<!-- \\Horde_Kolab_Session_Exception_Badlogin -->
<g id="node7" class="node"><title>\\Horde_Kolab_Session_Exception_Badlogin</title>
<polygon fill="none" stroke="black" points="840.393,-304 567.393,-304 567.393,-268 840.393,-268 840.393,-304"/>
<text text-anchor="middle" x="703.893" y="-283.2" font-family="Courier,monospace" font-size="11.00">Horde_Kolab_Session_Exception_Badlogin</text>
</g>
<!-- \\Horde_Kolab_Session_Exception_Badlogin&#45;&gt;\\Horde_Kolab_Session_Exception -->
<g id="edge7" class="edge"><title>\\Horde_Kolab_Session_Exception_Badlogin&#45;&gt;\\Horde_Kolab_Session_Exception</title>
<path fill="none" stroke="black" d="M567.331,-275.329C536.928,-272.936 504.949,-270.418 475.449,-268.096"/>
<polygon fill="none" stroke="black" points="475.369,-264.579 465.125,-267.284 474.819,-271.558 475.369,-264.579"/>
</g>
<!-- \\Horde_Kolab_Session_Imap -->
<g id="node8" class="node"><title>\\Horde_Kolab_Session_Imap</title>
<polygon fill="none" stroke="black" points="793.393,-574 614.393,-574 614.393,-538 793.393,-538 793.393,-574"/>
<text text-anchor="middle" x="703.893" y="-553.2" font-family="Courier,monospace" font-size="11.00">Horde_Kolab_Session_Imap</text>
</g>
<!-- \\Horde_Kolab_Session_Imap&#45;&gt;\\Horde_Kolab_Session_Abstract -->
<g id="edge8" class="edge"><title>\\Horde_Kolab_Session_Imap&#45;&gt;\\Horde_Kolab_Session_Abstract</title>
<path fill="none" stroke="black" d="M614.116,-556C570.751,-556 518.107,-556 471.998,-556"/>
<polygon fill="none" stroke="black" points="471.96,-552.5 461.96,-556 471.96,-559.5 471.96,-552.5"/>
</g>
<!-- \\Horde_Kolab_Session_Factory_Imap -->
<g id="node9" class="node"><title>\\Horde_Kolab_Session_Factory_Imap</title>
<polygon fill="none" stroke="black" points="820.393,-358 587.393,-358 587.393,-322 820.393,-322 820.393,-358"/>
<text text-anchor="middle" x="703.893" y="-337.2" font-family="Courier,monospace" font-size="11.00">Horde_Kolab_Session_Factory_Imap</text>
</g>
<!-- \\Horde_Kolab_Session_Storage_Mock -->
<g id="node10" class="node"><title>\\Horde_Kolab_Session_Storage_Mock</title>
<polygon fill="none" stroke="black" points="820.393,-196 587.393,-196 587.393,-160 820.393,-160 820.393,-196"/>
<text text-anchor="middle" x="703.893" y="-175.2" font-family="Courier,monospace" font-size="11.00">Horde_Kolab_Session_Storage_Mock</text>
</g>
<!-- \\Horde_Kolab_Session_Storage -->
<g id="node15" class="node"><title>\\Horde_Kolab_Session_Storage</title>
<polygon fill="none" stroke="black" points="458.393,-209 259.393,-209 259.393,-173 458.393,-173 458.393,-209"/>
<text text-anchor="middle" x="358.893" y="-188.2" font-family="Courier,monospace" font-size="11.00">Horde_Kolab_Session_Storage</text>
</g>
<!-- \\Horde_Kolab_Session_Storage_Mock&#45;&gt;\\Horde_Kolab_Session_Storage -->
<g id="edge9" class="edge"><title>\\Horde_Kolab_Session_Storage_Mock&#45;&gt;\\Horde_Kolab_Session_Storage</title>
<path fill="none" stroke="black" stroke-dasharray="1,5" d="M587.247,-182.383C548.863,-183.838 506.288,-185.451 468.457,-186.885"/>
<polygon fill="none" stroke="black" points="468.296,-183.389 458.436,-187.265 468.561,-190.384 468.296,-183.389"/>
</g>
<!-- \\Horde_Kolab_Session_Storage_Session -->
<g id="node11" class="node"><title>\\Horde_Kolab_Session_Storage_Session</title>
<polygon fill="none" stroke="black" points="830.393,-250 577.393,-250 577.393,-214 830.393,-214 830.393,-250"/>
<text text-anchor="middle" x="703.893" y="-229.2" font-family="Courier,monospace" font-size="11.00">Horde_Kolab_Session_Storage_Session</text>
</g>
<!-- \\Horde_Kolab_Session_Storage_Session&#45;&gt;\\Horde_Kolab_Session_Storage -->
<g id="edge10" class="edge"><title>\\Horde_Kolab_Session_Storage_Session&#45;&gt;\\Horde_Kolab_Session_Storage</title>
<path fill="none" stroke="black" stroke-dasharray="1,5" d="M577.12,-216.966C541.534,-212.712 503.113,-208.12 468.622,-203.997"/>
<polygon fill="none" stroke="black" points="468.875,-200.502 458.53,-202.79 468.044,-207.453 468.875,-200.502"/>
</g>
<!-- \\Horde_Kolab_Session_Base -->
<g id="node12" class="node"><title>\\Horde_Kolab_Session_Base</title>
<polygon fill="none" stroke="black" points="793.393,-628 614.393,-628 614.393,-592 793.393,-592 793.393,-628"/>
<text text-anchor="middle" x="703.893" y="-607.2" font-family="Courier,monospace" font-size="11.00">Horde_Kolab_Session_Base</text>
</g>
<!-- \\Horde_Kolab_Session_Base&#45;&gt;\\Horde_Kolab_Session_Abstract -->
<g id="edge11" class="edge"><title>\\Horde_Kolab_Session_Base&#45;&gt;\\Horde_Kolab_Session_Abstract</title>
<path fill="none" stroke="black" d="M614.116,-596.023C570.751,-589.196 518.107,-580.908 471.998,-573.649"/>
<polygon fill="none" stroke="black" points="472.382,-570.167 461.96,-572.069 471.294,-577.081 472.382,-570.167"/>
</g>
<!-- \\Horde_Kolab_Session_Valid_Decorator_Logged -->
<g id="node13" class="node"><title>\\Horde_Kolab_Session_Valid_Decorator_Logged</title>
<polygon fill="none" stroke="black" points="853.893,-88 553.893,-88 553.893,-52 853.893,-52 853.893,-88"/>
<text text-anchor="middle" x="703.893" y="-67.2" font-family="Courier,monospace" font-size="11.00">Horde_Kolab_Session_Valid_Decorator_Logged</text>
</g>
<!-- \\Horde_Kolab_Session_Valid -->
<g id="node16" class="node"><title>\\Horde_Kolab_Session_Valid</title>
<polygon fill="none" stroke="black" points="451.393,-115 266.393,-115 266.393,-79 451.393,-79 451.393,-115"/>
<text text-anchor="middle" x="358.893" y="-94.2" font-family="Courier,monospace" font-size="11.00">Horde_Kolab_Session_Valid</text>
</g>
<!-- \\Horde_Kolab_Session_Valid_Decorator_Logged&#45;&gt;\\Horde_Kolab_Session_Valid -->
<g id="edge12" class="edge"><title>\\Horde_Kolab_Session_Valid_Decorator_Logged&#45;&gt;\\Horde_Kolab_Session_Valid</title>
<path fill="none" stroke="black" stroke-dasharray="1,5" d="M553.446,-81.764C522.44,-84.2048 490.456,-86.7224 461.64,-88.9908"/>
<polygon fill="none" stroke="black" points="461.28,-85.5082 451.586,-89.7822 461.83,-92.4866 461.28,-85.5082"/>
</g>
<!-- \\Horde_Kolab_Session_Valid_Base -->
<g id="node14" class="node"><title>\\Horde_Kolab_Session_Valid_Base</title>
<polygon fill="none" stroke="black" points="813.393,-142 594.393,-142 594.393,-106 813.393,-106 813.393,-142"/>
<text text-anchor="middle" x="703.893" y="-121.2" font-family="Courier,monospace" font-size="11.00">Horde_Kolab_Session_Valid_Base</text>
</g>
<!-- \\Horde_Kolab_Session_Valid_Base&#45;&gt;\\Horde_Kolab_Session_Valid -->
<g id="edge13" class="edge"><title>\\Horde_Kolab_Session_Valid_Base&#45;&gt;\\Horde_Kolab_Session_Valid</title>
<path fill="none" stroke="black" stroke-dasharray="1,5" d="M594.366,-115.457C551.938,-112.117 503.539,-108.307 461.774,-105.02"/>
<polygon fill="none" stroke="black" points="461.83,-101.513 451.586,-104.218 461.28,-108.492 461.83,-101.513"/>
</g>
</g>
</svg>
