<?xml version="1.0" encoding="UTF-8" standalone="no"?>
<!DOCTYPE svg PUBLIC "-//W3C//DTD SVG 1.1//EN"
 "http://www.w3.org/Graphics/SVG/1.1/DTD/svg11.dtd">
<!-- Generated by graphviz version 2.38.0 (20140413.2041)
 -->
<!-- Title: G Pages: 1 -->
<svg width="773pt" height="780pt"
 viewBox="0.00 0.00 772.88 780.00" xmlns="http://www.w3.org/2000/svg" xmlns:xlink="http://www.w3.org/1999/xlink">
<g id="graph0" class="graph" transform="scale(1 1) rotate(0) translate(4 776)">
<title>G</title>
<polygon fill="white" stroke="none" points="-4,4 -4,-776 768.88,-776 768.88,4 -4,4"/>
<g id="clust1" class="cluster"><title>cluster_Global</title>
<path fill="none" stroke="gray" d="M20,-98C20,-98 744.88,-98 744.88,-98 750.88,-98 756.88,-104 756.88,-110 756.88,-110 756.88,-752 756.88,-752 756.88,-758 750.88,-764 744.88,-764 744.88,-764 20,-764 20,-764 14,-764 8,-758 8,-752 8,-752 8,-110 8,-110 8,-104 14,-98 20,-98"/>
<text text-anchor="middle" x="382.44" y="-751.2" font-family="Times,serif" font-size="11.00" fill="gray">Global</text>
</g>
<!-- \\Horde_Log_Logger -->
<g id="node1" class="node"><title>\\Horde_Log_Logger</title>
<polygon fill="none" stroke="black" points="711.88,-250 586.88,-250 586.88,-214 711.88,-214 711.88,-250"/>
<text text-anchor="middle" x="649.38" y="-229.2" font-family="Courier,monospace" font-size="11.00">Horde_Log_Logger</text>
</g>
<!-- \\Serializable -->
<g id="node22" class="node"><title>\\Serializable</title>
<ellipse fill="none" stroke="black" cx="365.44" cy="-72" rx="54.6905" ry="18"/>
<text text-anchor="middle" x="365.44" y="-68.3" font-family="Times,serif" font-size="14.00" fill="gray">\Serializable</text>
</g>
<!-- \\Horde_Log_Logger&#45;&gt;\\Serializable -->
<g id="edge1" class="edge"><title>\\Horde_Log_Logger&#45;&gt;\\Serializable</title>
<path fill="none" stroke="black" stroke-dasharray="1,5" d="M586.645,-222.446C573.685,-218.493 560.686,-212.903 549.88,-205 502.416,-170.287 526.573,-126.966 477.88,-94 463.883,-84.5239 446.767,-78.927 430.189,-75.674"/>
<polygon fill="none" stroke="black" points="430.414,-72.1622 419.969,-73.9377 429.242,-79.0633 430.414,-72.1622"/>
</g>
<!-- \\Horde_Log_Handler_Null -->
<g id="node2" class="node"><title>\\Horde_Log_Handler_Null</title>
<polygon fill="none" stroke="black" points="447.94,-736 282.94,-736 282.94,-700 447.94,-700 447.94,-736"/>
<text text-anchor="middle" x="365.44" y="-715.2" font-family="Courier,monospace" font-size="11.00">Horde_Log_Handler_Null</text>
</g>
<!-- \\Horde_Log_Handler_Base -->
<g id="node9" class="node"><title>\\Horde_Log_Handler_Base</title>
<polygon fill="none" stroke="black" points="181,-601 16,-601 16,-565 181,-565 181,-601"/>
<text text-anchor="start" x="64.5" y="-586.2" font-family="Courier,monospace" font-size="11.00">«abstract»</text>
<text text-anchor="start" x="24" y="-574.2" font-family="Courier,monospace" font-size="11.00">Horde_Log_Handler_Base</text>
</g>
<!-- \\Horde_Log_Handler_Null&#45;&gt;\\Horde_Log_Handler_Base -->
<g id="edge2" class="edge"><title>\\Horde_Log_Handler_Null&#45;&gt;\\Horde_Log_Handler_Base</title>
<path fill="none" stroke="black" d="M282.888,-702.028C272.625,-698.923 262.429,-695.272 253,-691 205.252,-669.366 156.897,-632.272 127.554,-607.693"/>
<polygon fill="none" stroke="black" points="129.688,-604.914 119.798,-601.115 125.161,-610.252 129.688,-604.914"/>
</g>
<!-- \\Horde_Log_Handler_Syslog -->
<g id="node3" class="node"><title>\\Horde_Log_Handler_Syslog</title>
<polygon fill="none" stroke="black" points="454.94,-682 275.94,-682 275.94,-646 454.94,-646 454.94,-682"/>
<text text-anchor="middle" x="365.44" y="-661.2" font-family="Courier,monospace" font-size="11.00">Horde_Log_Handler_Syslog</text>
</g>
<!-- \\Horde_Log_Handler_Syslog&#45;&gt;\\Horde_Log_Handler_Base -->
<g id="edge3" class="edge"><title>\\Horde_Log_Handler_Syslog&#45;&gt;\\Horde_Log_Handler_Base</title>
<path fill="none" stroke="black" d="M285.636,-645.954C274.629,-643.129 263.498,-640.11 253,-637 220.633,-627.412 185.039,-615.01 156.282,-604.51"/>
<polygon fill="none" stroke="black" points="157.399,-601.192 146.806,-601.028 154.985,-607.762 157.399,-601.192"/>
</g>
<!-- \\Horde_Log_Handler_Cli -->
<g id="node4" class="node"><title>\\Horde_Log_Handler_Cli</title>
<polygon fill="none" stroke="black" points="728.38,-736 570.38,-736 570.38,-700 728.38,-700 728.38,-736"/>
<text text-anchor="middle" x="649.38" y="-715.2" font-family="Courier,monospace" font-size="11.00">Horde_Log_Handler_Cli</text>
</g>
<!-- \\Horde_Log_Handler_Stream -->
<g id="node8" class="node"><title>\\Horde_Log_Handler_Stream</title>
<polygon fill="none" stroke="black" points="454.94,-628 275.94,-628 275.94,-592 454.94,-592 454.94,-628"/>
<text text-anchor="middle" x="365.44" y="-607.2" font-family="Courier,monospace" font-size="11.00">Horde_Log_Handler_Stream</text>
</g>
<!-- \\Horde_Log_Handler_Cli&#45;&gt;\\Horde_Log_Handler_Stream -->
<g id="edge4" class="edge"><title>\\Horde_Log_Handler_Cli&#45;&gt;\\Horde_Log_Handler_Stream</title>
<path fill="none" stroke="black" d="M571.504,-699.996C564.053,-697.343 556.727,-694.354 549.88,-691 513.959,-673.403 514.06,-654.059 477.88,-637 473.604,-634.984 469.162,-633.109 464.621,-631.367"/>
<polygon fill="none" stroke="black" points="465.78,-628.065 455.186,-627.975 463.412,-634.652 465.78,-628.065"/>
</g>
<!-- \\Horde_Log_Handler_Mock -->
<g id="node5" class="node"><title>\\Horde_Log_Handler_Mock</title>
<polygon fill="none" stroke="black" points="447.94,-574 282.94,-574 282.94,-538 447.94,-538 447.94,-574"/>
<text text-anchor="middle" x="365.44" y="-553.2" font-family="Courier,monospace" font-size="11.00">Horde_Log_Handler_Mock</text>
</g>
<!-- \\Horde_Log_Handler_Mock&#45;&gt;\\Horde_Log_Handler_Base -->
<g id="edge5" class="edge"><title>\\Horde_Log_Handler_Mock&#45;&gt;\\Horde_Log_Handler_Base</title>
<path fill="none" stroke="black" d="M282.787,-564.321C253.828,-567.272 221.05,-570.613 191.302,-573.645"/>
<polygon fill="none" stroke="black" points="190.933,-570.164 181.339,-574.66 191.642,-577.128 190.933,-570.164"/>
</g>
<!-- \\Horde_Log_Handler_Scribe -->
<g id="node6" class="node"><title>\\Horde_Log_Handler_Scribe</title>
<polygon fill="none" stroke="black" points="454.94,-520 275.94,-520 275.94,-484 454.94,-484 454.94,-520"/>
<text text-anchor="middle" x="365.44" y="-499.2" font-family="Courier,monospace" font-size="11.00">Horde_Log_Handler_Scribe</text>
</g>
<!-- \\Horde_Log_Handler_Scribe&#45;&gt;\\Horde_Log_Handler_Base -->
<g id="edge6" class="edge"><title>\\Horde_Log_Handler_Scribe&#45;&gt;\\Horde_Log_Handler_Base</title>
<path fill="none" stroke="black" d="M285.636,-520.046C274.629,-522.871 263.498,-525.89 253,-529 220.633,-538.588 185.039,-550.99 156.282,-561.49"/>
<polygon fill="none" stroke="black" points="154.985,-558.238 146.806,-564.972 157.399,-564.808 154.985,-558.238"/>
</g>
<!-- \\Horde_Log_Handler_Firebug -->
<g id="node7" class="node"><title>\\Horde_Log_Handler_Firebug</title>
<polygon fill="none" stroke="black" points="457.94,-466 272.94,-466 272.94,-430 457.94,-430 457.94,-466"/>
<text text-anchor="middle" x="365.44" y="-445.2" font-family="Courier,monospace" font-size="11.00">Horde_Log_Handler_Firebug</text>
</g>
<!-- \\Horde_Log_Handler_Firebug&#45;&gt;\\Horde_Log_Handler_Base -->
<g id="edge7" class="edge"><title>\\Horde_Log_Handler_Firebug&#45;&gt;\\Horde_Log_Handler_Base</title>
<path fill="none" stroke="black" d="M276.391,-466.017C268.346,-468.65 260.434,-471.632 253,-475 205.252,-496.634 156.897,-533.728 127.554,-558.307"/>
<polygon fill="none" stroke="black" points="125.161,-555.748 119.798,-564.885 129.688,-561.086 125.161,-555.748"/>
</g>
<!-- \\Horde_Log_Handler_Stream&#45;&gt;\\Horde_Log_Handler_Base -->
<g id="edge8" class="edge"><title>\\Horde_Log_Handler_Stream&#45;&gt;\\Horde_Log_Handler_Base</title>
<path fill="none" stroke="black" d="M275.85,-600.972C248.653,-598.2 218.674,-595.145 191.269,-592.352"/>
<polygon fill="none" stroke="black" points="191.602,-588.868 181.299,-591.336 190.892,-595.832 191.602,-588.868"/>
</g>
<!-- \\Horde_Log_Exception -->
<g id="node10" class="node"><title>\\Horde_Log_Exception</title>
<polygon fill="none" stroke="black" points="721.88,-196 576.88,-196 576.88,-160 721.88,-160 721.88,-196"/>
<text text-anchor="middle" x="649.38" y="-175.2" font-family="Courier,monospace" font-size="11.00">Horde_Log_Exception</text>
</g>
<!-- \\Horde_Exception_Wrapped -->
<g id="node23" class="node"><title>\\Horde_Exception_Wrapped</title>
<ellipse fill="none" stroke="black" cx="365.44" cy="-18" rx="112.38" ry="18"/>
<text text-anchor="middle" x="365.44" y="-14.3" font-family="Times,serif" font-size="14.00" fill="gray">\Horde_Exception_Wrapped</text>
</g>
<!-- \\Horde_Log_Exception&#45;&gt;\\Horde_Exception_Wrapped -->
<g id="edge9" class="edge"><title>\\Horde_Log_Exception&#45;&gt;\\Horde_Exception_Wrapped</title>
<path fill="none" stroke="black" d="M576.747,-164.887C567.213,-161.317 557.957,-156.776 549.88,-151 503.556,-117.87 524.693,-77.4348 477.88,-45 471.693,-40.7131 464.902,-37.1035 457.821,-34.0647"/>
<polygon fill="none" stroke="black" points="458.604,-30.6144 448.015,-30.2646 456.074,-37.1415 458.604,-30.6144"/>
</g>
<!-- \\Horde_Log_Formatter_Xml -->
<g id="node11" class="node"><title>\\Horde_Log_Formatter_Xml</title>
<polygon fill="none" stroke="black" points="735.38,-682 563.38,-682 563.38,-646 735.38,-646 735.38,-682"/>
<text text-anchor="middle" x="649.38" y="-661.2" font-family="Courier,monospace" font-size="11.00">Horde_Log_Formatter_Xml</text>
</g>
<!-- \\Horde_Log_Formatter -->
<g id="node20" class="node"><title>\\Horde_Log_Formatter</title>
<polygon fill="none" stroke="black" points="437.94,-412 292.94,-412 292.94,-376 437.94,-376 437.94,-412"/>
<text text-anchor="middle" x="365.44" y="-391.2" font-family="Courier,monospace" font-size="11.00">Horde_Log_Formatter</text>
</g>
<!-- \\Horde_Log_Formatter_Xml&#45;&gt;\\Horde_Log_Formatter -->
<g id="edge10" class="edge"><title>\\Horde_Log_Formatter_Xml&#45;&gt;\\Horde_Log_Formatter</title>
<path fill="none" stroke="black" stroke-dasharray="1,5" d="M563.112,-646.852C558.339,-644.041 553.871,-640.78 549.88,-637 476.413,-567.411 552.377,-489.485 477.88,-421 469.322,-413.133 458.87,-407.45 447.833,-403.364"/>
<polygon fill="none" stroke="black" points="448.609,-399.936 438.017,-400.17 446.443,-406.592 448.609,-399.936"/>
</g>
<!-- \\Horde_Log_Formatter_Cli -->
<g id="node12" class="node"><title>\\Horde_Log_Formatter_Cli</title>
<polygon fill="none" stroke="black" points="735.38,-628 563.38,-628 563.38,-592 735.38,-592 735.38,-628"/>
<text text-anchor="middle" x="649.38" y="-607.2" font-family="Courier,monospace" font-size="11.00">Horde_Log_Formatter_Cli</text>
</g>
<!-- \\Horde_Log_Formatter_Cli&#45;&gt;\\Horde_Log_Formatter -->
<g id="edge11" class="edge"><title>\\Horde_Log_Formatter_Cli&#45;&gt;\\Horde_Log_Formatter</title>
<path fill="none" stroke="black" stroke-dasharray="1,5" d="M563.053,-592.133C558.355,-589.493 553.914,-586.468 549.88,-583 490.131,-531.638 538.389,-471.465 477.88,-421 469.13,-413.702 458.722,-408.318 447.836,-404.357"/>
<polygon fill="none" stroke="black" points="448.766,-400.98 438.175,-401.23 446.611,-407.639 448.766,-400.98"/>
</g>
<!-- \\Horde_Log_Formatter_Simple -->
<g id="node13" class="node"><title>\\Horde_Log_Formatter_Simple</title>
<polygon fill="none" stroke="black" points="745.38,-574 553.38,-574 553.38,-538 745.38,-538 745.38,-574"/>
<text text-anchor="middle" x="649.38" y="-553.2" font-family="Courier,monospace" font-size="11.00">Horde_Log_Formatter_Simple</text>
</g>
<!-- \\Horde_Log_Formatter_Simple&#45;&gt;\\Horde_Log_Formatter -->
<g id="edge12" class="edge"><title>\\Horde_Log_Formatter_Simple&#45;&gt;\\Horde_Log_Formatter</title>
<path fill="none" stroke="black" stroke-dasharray="1,5" d="M564.68,-537.787C559.471,-535.233 554.481,-532.321 549.88,-529 503.102,-495.239 525.156,-454.06 477.88,-421 468.887,-414.711 458.6,-409.879 447.993,-406.167"/>
<polygon fill="none" stroke="black" points="448.779,-402.745 438.189,-403.064 446.667,-409.419 448.779,-402.745"/>
</g>
<!-- \\Horde_Log_Filter_Level -->
<g id="node14" class="node"><title>\\Horde_Log_Filter_Level</title>
<polygon fill="none" stroke="black" points="731.88,-520 566.88,-520 566.88,-484 731.88,-484 731.88,-520"/>
<text text-anchor="middle" x="649.38" y="-499.2" font-family="Courier,monospace" font-size="11.00">Horde_Log_Filter_Level</text>
</g>
<!-- \\Horde_Log_Filter -->
<g id="node21" class="node"><title>\\Horde_Log_Filter</title>
<polygon fill="none" stroke="black" points="427.94,-358 302.94,-358 302.94,-322 427.94,-322 427.94,-358"/>
<text text-anchor="middle" x="365.44" y="-337.2" font-family="Courier,monospace" font-size="11.00">Horde_Log_Filter</text>
</g>
<!-- \\Horde_Log_Filter_Level&#45;&gt;\\Horde_Log_Filter -->
<g id="edge13" class="edge"><title>\\Horde_Log_Filter_Level&#45;&gt;\\Horde_Log_Filter</title>
<path fill="none" stroke="black" stroke-dasharray="1,5" d="M566.644,-484.728C560.724,-481.955 555.056,-478.736 549.88,-475 503.102,-441.239 525.156,-400.06 477.88,-367 466.017,-358.704 451.901,-352.943 437.77,-348.945"/>
<polygon fill="none" stroke="black" points="438.568,-345.537 428.012,-346.45 436.833,-352.318 438.568,-345.537"/>
</g>
<!-- \\Horde_Log_Filter_Suppress -->
<g id="node15" class="node"><title>\\Horde_Log_Filter_Suppress</title>
<polygon fill="none" stroke="black" points="741.88,-466 556.88,-466 556.88,-430 741.88,-430 741.88,-466"/>
<text text-anchor="middle" x="649.38" y="-445.2" font-family="Courier,monospace" font-size="11.00">Horde_Log_Filter_Suppress</text>
</g>
<!-- \\Horde_Log_Filter_Suppress&#45;&gt;\\Horde_Log_Filter -->
<g id="edge14" class="edge"><title>\\Horde_Log_Filter_Suppress&#45;&gt;\\Horde_Log_Filter</title>
<path fill="none" stroke="black" stroke-dasharray="1,5" d="M571.504,-429.996C564.053,-427.343 556.727,-424.354 549.88,-421 513.959,-403.403 514.06,-384.059 477.88,-367 465.419,-361.125 451.552,-356.453 437.949,-352.763"/>
<polygon fill="none" stroke="black" points="438.67,-349.335 428.115,-350.247 436.935,-356.116 438.67,-349.335"/>
</g>
<!-- \\Horde_Log_Filter_ExactLevel -->
<g id="node16" class="node"><title>\\Horde_Log_Filter_ExactLevel</title>
<polygon fill="none" stroke="black" points="748.88,-412 549.88,-412 549.88,-376 748.88,-376 748.88,-412"/>
<text text-anchor="middle" x="649.38" y="-391.2" font-family="Courier,monospace" font-size="11.00">Horde_Log_Filter_ExactLevel</text>
</g>
<!-- \\Horde_Log_Filter_ExactLevel&#45;&gt;\\Horde_Log_Filter -->
<g id="edge15" class="edge"><title>\\Horde_Log_Filter_ExactLevel&#45;&gt;\\Horde_Log_Filter</title>
<path fill="none" stroke="black" stroke-dasharray="1,5" d="M554.106,-375.944C516.37,-368.716 473.601,-360.525 438.433,-353.789"/>
<polygon fill="none" stroke="black" points="438.732,-350.283 428.252,-351.839 437.415,-357.158 438.732,-350.283"/>
</g>
<!-- \\Horde_Log_Filter_Constraint -->
<g id="node17" class="node"><title>\\Horde_Log_Filter_Constraint</title>
<polygon fill="none" stroke="black" points="748.88,-358 549.88,-358 549.88,-322 748.88,-322 748.88,-358"/>
<text text-anchor="middle" x="649.38" y="-337.2" font-family="Courier,monospace" font-size="11.00">Horde_Log_Filter_Constraint</text>
</g>
<!-- \\Horde_Log_Filter_Constraint&#45;&gt;\\Horde_Log_Filter -->
<g id="edge16" class="edge"><title>\\Horde_Log_Filter_Constraint&#45;&gt;\\Horde_Log_Filter</title>
<path fill="none" stroke="black" stroke-dasharray="1,5" d="M549.771,-340C513.074,-340 472.156,-340 438.302,-340"/>
<polygon fill="none" stroke="black" points="438.035,-336.5 428.035,-340 438.035,-343.5 438.035,-336.5"/>
</g>
<!-- \\Horde_Log_Filter_Message -->
<g id="node18" class="node"><title>\\Horde_Log_Filter_Message</title>
<polygon fill="none" stroke="black" points="738.88,-304 559.88,-304 559.88,-268 738.88,-268 738.88,-304"/>
<text text-anchor="middle" x="649.38" y="-283.2" font-family="Courier,monospace" font-size="11.00">Horde_Log_Filter_Message</text>
</g>
<!-- \\Horde_Log_Filter_Message&#45;&gt;\\Horde_Log_Filter -->
<g id="edge17" class="edge"><title>\\Horde_Log_Filter_Message&#45;&gt;\\Horde_Log_Filter</title>
<path fill="none" stroke="black" stroke-dasharray="1,5" d="M559.559,-303.012C520.462,-310.5 475.134,-319.182 438.221,-326.252"/>
<polygon fill="none" stroke="black" points="437.209,-322.882 428.045,-328.201 438.525,-329.757 437.209,-322.882"/>
</g>
<!-- \\Horde_Log -->
<g id="node19" class="node"><title>\\Horde_Log</title>
<polygon fill="none" stroke="black" points="687.88,-142 610.88,-142 610.88,-106 687.88,-106 687.88,-142"/>
<text text-anchor="middle" x="649.38" y="-121.2" font-family="Courier,monospace" font-size="11.00">Horde_Log</text>
</g>
</g>
</svg>
