<?xml version="1.0" encoding="UTF-8" standalone="no"?>
<!DOCTYPE svg PUBLIC "-//W3C//DTD SVG 1.1//EN"
 "http://www.w3.org/Graphics/SVG/1.1/DTD/svg11.dtd">
<!-- Generated by graphviz version 2.38.0 (20140413.2041)
 -->
<!-- Title: G Pages: 1 -->
<svg width="473pt" height="204pt"
 viewBox="0.00 0.00 472.88 204.00" xmlns="http://www.w3.org/2000/svg" xmlns:xlink="http://www.w3.org/1999/xlink">
<g id="graph0" class="graph" transform="scale(1 1) rotate(0) translate(4 200)">
<title>G</title>
<polygon fill="white" stroke="none" points="-4,4 -4,-200 468.88,-200 468.88,4 -4,4"/>
<g id="clust1" class="cluster"><title>cluster_Global</title>
<path fill="none" stroke="gray" d="M300.88,-8C300.88,-8 444.88,-8 444.88,-8 450.88,-8 456.88,-14 456.88,-20 456.88,-20 456.88,-176 456.88,-176 456.88,-182 450.88,-188 444.88,-188 444.88,-188 300.88,-188 300.88,-188 294.88,-188 288.88,-182 288.88,-176 288.88,-176 288.88,-20 288.88,-20 288.88,-14 294.88,-8 300.88,-8"/>
<text text-anchor="middle" x="372.88" y="-175.2" font-family="Times,serif" font-size="11.00" fill="gray">Global</text>
</g>
<!-- \\Horde_Mapi -->
<g id="node1" class="node"><title>\\Horde_Mapi</title>
<polygon fill="none" stroke="black" points="414.88,-160 330.88,-160 330.88,-124 414.88,-124 414.88,-160"/>
<text text-anchor="middle" x="372.88" y="-139.2" font-family="Courier,monospace" font-size="11.00">Horde_Mapi</text>
</g>
<!-- \\Horde_Mapi_Exception -->
<g id="node2" class="node"><title>\\Horde_Mapi_Exception</title>
<polygon fill="none" stroke="black" points="448.88,-106 296.88,-106 296.88,-70 448.88,-70 448.88,-106"/>
<text text-anchor="middle" x="372.88" y="-85.2" font-family="Courier,monospace" font-size="11.00">Horde_Mapi_Exception</text>
</g>
<!-- \\Horde_Exception_Wrapped -->
<g id="node4" class="node"><title>\\Horde_Exception_Wrapped</title>
<ellipse fill="none" stroke="black" cx="112.44" cy="-88" rx="112.38" ry="18"/>
<text text-anchor="middle" x="112.44" y="-84.3" font-family="Times,serif" font-size="14.00" fill="gray">\Horde_Exception_Wrapped</text>
</g>
<!-- \\Horde_Mapi_Exception&#45;&gt;\\Horde_Exception_Wrapped -->
<g id="edge1" class="edge"><title>\\Horde_Mapi_Exception&#45;&gt;\\Horde_Exception_Wrapped</title>
<path fill="none" stroke="black" d="M296.781,-88C277.57,-88 256.411,-88 235.502,-88"/>
<polygon fill="none" stroke="black" points="235.268,-84.5001 225.268,-88 235.268,-91.5001 235.268,-84.5001"/>
</g>
<!-- \\Horde_Mapi_Timezone -->
<g id="node3" class="node"><title>\\Horde_Mapi_Timezone</title>
<polygon fill="none" stroke="black" points="445.38,-52 300.38,-52 300.38,-16 445.38,-16 445.38,-52"/>
<text text-anchor="middle" x="372.88" y="-31.2" font-family="Courier,monospace" font-size="11.00">Horde_Mapi_Timezone</text>
</g>
</g>
</svg>
