<?xml version="1.0" encoding="UTF-8" standalone="no"?>
<!DOCTYPE svg PUBLIC "-//W3C//DTD SVG 1.1//EN"
 "http://www.w3.org/Graphics/SVG/1.1/DTD/svg11.dtd">
<!-- Generated by graphviz version 2.38.0 (20140413.2041)
 -->
<!-- Title: G Pages: 1 -->
<svg width="500pt" height="258pt"
 viewBox="0.00 0.00 499.88 258.00" xmlns="http://www.w3.org/2000/svg" xmlns:xlink="http://www.w3.org/1999/xlink">
<g id="graph0" class="graph" transform="scale(1 1) rotate(0) translate(4 254)">
<title>G</title>
<polygon fill="white" stroke="none" points="-4,4 -4,-254 495.88,-254 495.88,4 -4,4"/>
<g id="clust1" class="cluster"><title>cluster_Global</title>
<path fill="none" stroke="gray" d="M300.88,-8C300.88,-8 471.88,-8 471.88,-8 477.88,-8 483.88,-14 483.88,-20 483.88,-20 483.88,-230 483.88,-230 483.88,-236 477.88,-242 471.88,-242 471.88,-242 300.88,-242 300.88,-242 294.88,-242 288.88,-236 288.88,-230 288.88,-230 288.88,-20 288.88,-20 288.88,-14 294.88,-8 300.88,-8"/>
<text text-anchor="middle" x="386.38" y="-229.2" font-family="Times,serif" font-size="11.00" fill="gray">Global</text>
</g>
<!-- \\Horde_Timezone -->
<g id="node1" class="node"><title>\\Horde_Timezone</title>
<polygon fill="none" stroke="black" points="441.88,-214 330.88,-214 330.88,-178 441.88,-178 441.88,-214"/>
<text text-anchor="middle" x="386.38" y="-193.2" font-family="Courier,monospace" font-size="11.00">Horde_Timezone</text>
</g>
<!-- \\Horde_Timezone_Exception -->
<g id="node2" class="node"><title>\\Horde_Timezone_Exception</title>
<polygon fill="none" stroke="black" points="475.88,-160 296.88,-160 296.88,-124 475.88,-124 475.88,-160"/>
<text text-anchor="middle" x="386.38" y="-139.2" font-family="Courier,monospace" font-size="11.00">Horde_Timezone_Exception</text>
</g>
<!-- \\Horde_Exception_Wrapped -->
<g id="node5" class="node"><title>\\Horde_Exception_Wrapped</title>
<ellipse fill="none" stroke="black" cx="112.44" cy="-142" rx="112.38" ry="18"/>
<text text-anchor="middle" x="112.44" y="-138.3" font-family="Times,serif" font-size="14.00" fill="gray">\Horde_Exception_Wrapped</text>
</g>
<!-- \\Horde_Timezone_Exception&#45;&gt;\\Horde_Exception_Wrapped -->
<g id="edge1" class="edge"><title>\\Horde_Timezone_Exception&#45;&gt;\\Horde_Exception_Wrapped</title>
<path fill="none" stroke="black" d="M296.713,-142C277.133,-142 256.058,-142 235.417,-142"/>
<polygon fill="none" stroke="black" points="235.328,-138.5 225.328,-142 235.328,-145.5 235.328,-138.5"/>
</g>
<!-- \\Horde_Timezone_Zone -->
<g id="node3" class="node"><title>\\Horde_Timezone_Zone</title>
<polygon fill="none" stroke="black" points="458.88,-106 313.88,-106 313.88,-70 458.88,-70 458.88,-106"/>
<text text-anchor="middle" x="386.38" y="-85.2" font-family="Courier,monospace" font-size="11.00">Horde_Timezone_Zone</text>
</g>
<!-- \\Horde_Timezone_Rule -->
<g id="node4" class="node"><title>\\Horde_Timezone_Rule</title>
<polygon fill="none" stroke="black" points="458.88,-52 313.88,-52 313.88,-16 458.88,-16 458.88,-52"/>
<text text-anchor="middle" x="386.38" y="-31.2" font-family="Courier,monospace" font-size="11.00">Horde_Timezone_Rule</text>
</g>
</g>
</svg>
