<?xml version="1.0" encoding="UTF-8" standalone="no"?>
<!DOCTYPE svg PUBLIC "-//W3C//DTD SVG 1.1//EN"
 "http://www.w3.org/Graphics/SVG/1.1/DTD/svg11.dtd">
<!-- Generated by graphviz version 2.38.0 (20140413.2041)
 -->
<!-- Title: G Pages: 1 -->
<svg width="536pt" height="240pt"
 viewBox="0.00 0.00 536.00 240.00" xmlns="http://www.w3.org/2000/svg" xmlns:xlink="http://www.w3.org/1999/xlink">
<g id="graph0" class="graph" transform="scale(1 1) rotate(0) translate(4 236)">
<title>G</title>
<polygon fill="white" stroke="none" points="-4,4 -4,-236 532,-236 532,4 -4,4"/>
<g id="clust1" class="cluster"><title>cluster_Global</title>
<path fill="none" stroke="gray" d="M20,-44C20,-44 508,-44 508,-44 514,-44 520,-50 520,-56 520,-56 520,-212 520,-212 520,-218 514,-224 508,-224 508,-224 20,-224 20,-224 14,-224 8,-218 8,-212 8,-212 8,-56 8,-56 8,-50 14,-44 20,-44"/>
<text text-anchor="middle" x="264" y="-211.2" font-family="Times,serif" font-size="11.00" fill="gray">Global</text>
</g>
<!-- \\Horde_Translation_Handler_Gettext -->
<g id="node1" class="node"><title>\\Horde_Translation_Handler_Gettext</title>
<polygon fill="none" stroke="black" points="512,-196 273,-196 273,-160 512,-160 512,-196"/>
<text text-anchor="middle" x="392.5" y="-175.2" font-family="Courier,monospace" font-size="11.00">Horde_Translation_Handler_Gettext</text>
</g>
<!-- \\Horde_Translation_Handler -->
<g id="node5" class="node"><title>\\Horde_Translation_Handler</title>
<polygon fill="none" stroke="black" points="201,-196 16,-196 16,-160 201,-160 201,-196"/>
<text text-anchor="middle" x="108.5" y="-175.2" font-family="Courier,monospace" font-size="11.00">Horde_Translation_Handler</text>
</g>
<!-- \\Horde_Translation_Handler_Gettext&#45;&gt;\\Horde_Translation_Handler -->
<g id="edge1" class="edge"><title>\\Horde_Translation_Handler_Gettext&#45;&gt;\\Horde_Translation_Handler</title>
<path fill="none" stroke="black" stroke-dasharray="1,5" d="M272.724,-178C252.25,-178 231.134,-178 211.163,-178"/>
<polygon fill="none" stroke="black" points="211.147,-174.5 201.147,-178 211.147,-181.5 211.147,-174.5"/>
</g>
<!-- \\Horde_Translation_Exception -->
<g id="node2" class="node"><title>\\Horde_Translation_Exception</title>
<polygon fill="none" stroke="black" points="492,-88 293,-88 293,-52 492,-52 492,-88"/>
<text text-anchor="middle" x="392.5" y="-67.2" font-family="Courier,monospace" font-size="11.00">Horde_Translation_Exception</text>
</g>
<!-- \\Exception -->
<g id="node6" class="node"><title>\\Exception</title>
<ellipse fill="none" stroke="black" cx="108.5" cy="-18" rx="48.9926" ry="18"/>
<text text-anchor="middle" x="108.5" y="-14.3" font-family="Times,serif" font-size="14.00" fill="gray">\Exception</text>
</g>
<!-- \\Horde_Translation_Exception&#45;&gt;\\Exception -->
<g id="edge2" class="edge"><title>\\Horde_Translation_Exception&#45;&gt;\\Exception</title>
<path fill="none" stroke="black" d="M293.662,-51.9589C249.603,-43.8346 199.322,-34.5629 162.443,-27.7625"/>
<polygon fill="none" stroke="black" points="162.881,-24.2844 152.412,-25.9129 161.612,-31.1684 162.881,-24.2844"/>
</g>
<!-- \\Horde_Translation_Autodetect -->
<g id="node3" class="node"><title>\\Horde_Translation_Autodetect</title>
<polygon fill="none" stroke="black" points="495.5,-142 289.5,-142 289.5,-106 495.5,-106 495.5,-142"/>
<text text-anchor="start" x="358.5" y="-127.2" font-family="Courier,monospace" font-size="11.00">«abstract»</text>
<text text-anchor="start" x="297.5" y="-115.2" font-family="Courier,monospace" font-size="11.00">Horde_Translation_Autodetect</text>
</g>
<!-- \\Horde_Translation -->
<g id="node4" class="node"><title>\\Horde_Translation</title>
<polygon fill="none" stroke="black" points="174,-142 43,-142 43,-106 174,-106 174,-142"/>
<text text-anchor="start" x="74.5" y="-127.2" font-family="Courier,monospace" font-size="11.00">«abstract»</text>
<text text-anchor="start" x="51" y="-115.2" font-family="Courier,monospace" font-size="11.00">Horde_Translation</text>
</g>
<!-- \\Horde_Translation_Autodetect&#45;&gt;\\Horde_Translation -->
<g id="edge3" class="edge"><title>\\Horde_Translation_Autodetect&#45;&gt;\\Horde_Translation</title>
<path fill="none" stroke="black" d="M289.293,-124C254.588,-124 216.484,-124 184.322,-124"/>
<polygon fill="none" stroke="black" points="184.1,-120.5 174.1,-124 184.1,-127.5 184.1,-120.5"/>
</g>
</g>
</svg>
