<?xml version="1.0" encoding="UTF-8" standalone="no"?>
<!DOCTYPE svg PUBLIC "-//W3C//DTD SVG 1.1//EN"
 "http://www.w3.org/Graphics/SVG/1.1/DTD/svg11.dtd">
<!-- Generated by graphviz version 2.38.0 (20140413.2041)
 -->
<!-- Title: G Pages: 1 -->
<svg width="198pt" height="204pt"
 viewBox="0.00 0.00 198.00 204.00" xmlns="http://www.w3.org/2000/svg" xmlns:xlink="http://www.w3.org/1999/xlink">
<g id="graph0" class="graph" transform="scale(1 1) rotate(0) translate(4 200)">
<title>G</title>
<polygon fill="white" stroke="none" points="-4,4 -4,-200 194,-200 194,4 -4,4"/>
<g id="clust1" class="cluster"><title>cluster_Global</title>
<path fill="none" stroke="gray" d="M20,-8C20,-8 170,-8 170,-8 176,-8 182,-14 182,-20 182,-20 182,-176 182,-176 182,-182 176,-188 170,-188 170,-188 20,-188 20,-188 14,-188 8,-182 8,-176 8,-176 8,-20 8,-20 8,-14 14,-8 20,-8"/>
<text text-anchor="middle" x="95" y="-175.2" font-family="Times,serif" font-size="11.00" fill="gray">Global</text>
</g>
<!-- \\Horde_PubSub -->
<g id="node1" class="node"><title>\\Horde_PubSub</title>
<polygon fill="none" stroke="black" points="144,-160 46,-160 46,-124 144,-124 144,-160"/>
<text text-anchor="middle" x="95" y="-139.2" font-family="Courier,monospace" font-size="11.00">Horde_PubSub</text>
</g>
<!-- \\Horde_PubSub_Provider -->
<g id="node2" class="node"><title>\\Horde_PubSub_Provider</title>
<polygon fill="none" stroke="black" points="174,-106 16,-106 16,-70 174,-70 174,-106"/>
<text text-anchor="middle" x="95" y="-85.2" font-family="Courier,monospace" font-size="11.00">Horde_PubSub_Provider</text>
</g>
<!-- \\Horde_PubSub_Handle -->
<g id="node3" class="node"><title>\\Horde_PubSub_Handle</title>
<polygon fill="none" stroke="black" points="167.5,-52 22.5,-52 22.5,-16 167.5,-16 167.5,-52"/>
<text text-anchor="middle" x="95" y="-31.2" font-family="Courier,monospace" font-size="11.00">Horde_PubSub_Handle</text>
</g>
</g>
</svg>
