<?xml version="1.0" encoding="UTF-8" standalone="no"?>
<!DOCTYPE svg PUBLIC "-//W3C//DTD SVG 1.1//EN"
 "http://www.w3.org/Graphics/SVG/1.1/DTD/svg11.dtd">
<!-- Generated by graphviz version 2.38.0 (20140413.2041)
 -->
<!-- Title: G Pages: 1 -->
<svg width="486pt" height="366pt"
 viewBox="0.00 0.00 485.88 366.00" xmlns="http://www.w3.org/2000/svg" xmlns:xlink="http://www.w3.org/1999/xlink">
<g id="graph0" class="graph" transform="scale(1 1) rotate(0) translate(4 362)">
<title>G</title>
<polygon fill="white" stroke="none" points="-4,4 -4,-362 481.88,-362 481.88,4 -4,4"/>
<g id="clust1" class="cluster"><title>cluster_Global</title>
<path fill="none" stroke="gray" d="M300.88,-8C300.88,-8 457.88,-8 457.88,-8 463.88,-8 469.88,-14 469.88,-20 469.88,-20 469.88,-338 469.88,-338 469.88,-344 463.88,-350 457.88,-350 457.88,-350 300.88,-350 300.88,-350 294.88,-350 288.88,-344 288.88,-338 288.88,-338 288.88,-20 288.88,-20 288.88,-14 294.88,-8 300.88,-8"/>
<text text-anchor="middle" x="379.38" y="-337.2" font-family="Times,serif" font-size="11.00" fill="gray">Global</text>
</g>
<!-- \\Horde_Routes_Route -->
<g id="node1" class="node"><title>\\Horde_Routes_Route</title>
<polygon fill="none" stroke="black" points="448.38,-322 310.38,-322 310.38,-286 448.38,-286 448.38,-322"/>
<text text-anchor="middle" x="379.38" y="-301.2" font-family="Courier,monospace" font-size="11.00">Horde_Routes_Route</text>
</g>
<!-- \\Horde_Routes_Exception -->
<g id="node2" class="node"><title>\\Horde_Routes_Exception</title>
<polygon fill="none" stroke="black" points="461.88,-268 296.88,-268 296.88,-232 461.88,-232 461.88,-268"/>
<text text-anchor="middle" x="379.38" y="-247.2" font-family="Courier,monospace" font-size="11.00">Horde_Routes_Exception</text>
</g>
<!-- \\Horde_Exception_Wrapped -->
<g id="node7" class="node"><title>\\Horde_Exception_Wrapped</title>
<ellipse fill="none" stroke="black" cx="112.44" cy="-250" rx="112.38" ry="18"/>
<text text-anchor="middle" x="112.44" y="-246.3" font-family="Times,serif" font-size="14.00" fill="gray">\Horde_Exception_Wrapped</text>
</g>
<!-- \\Horde_Routes_Exception&#45;&gt;\\Horde_Exception_Wrapped -->
<g id="edge1" class="edge"><title>\\Horde_Routes_Exception&#45;&gt;\\Horde_Exception_Wrapped</title>
<path fill="none" stroke="black" d="M296.727,-250C277.259,-250 256.064,-250 235.225,-250"/>
<polygon fill="none" stroke="black" points="235.032,-246.5 225.032,-250 235.032,-253.5 235.032,-246.5"/>
</g>
<!-- \\Horde_Routes_Mapper -->
<g id="node3" class="node"><title>\\Horde_Routes_Mapper</title>
<polygon fill="none" stroke="black" points="451.88,-214 306.88,-214 306.88,-178 451.88,-178 451.88,-214"/>
<text text-anchor="middle" x="379.38" y="-193.2" font-family="Courier,monospace" font-size="11.00">Horde_Routes_Mapper</text>
</g>
<!-- \\Horde_Routes_Matcher -->
<g id="node4" class="node"><title>\\Horde_Routes_Matcher</title>
<polygon fill="none" stroke="black" points="455.38,-160 303.38,-160 303.38,-124 455.38,-124 455.38,-160"/>
<text text-anchor="middle" x="379.38" y="-139.2" font-family="Courier,monospace" font-size="11.00">Horde_Routes_Matcher</text>
</g>
<!-- \\Horde_Routes_Utils -->
<g id="node5" class="node"><title>\\Horde_Routes_Utils</title>
<polygon fill="none" stroke="black" points="448.38,-106 310.38,-106 310.38,-70 448.38,-70 448.38,-106"/>
<text text-anchor="middle" x="379.38" y="-85.2" font-family="Courier,monospace" font-size="11.00">Horde_Routes_Utils</text>
</g>
<!-- \\Horde_Routes_Printer -->
<g id="node6" class="node"><title>\\Horde_Routes_Printer</title>
<polygon fill="none" stroke="black" points="455.38,-52 303.38,-52 303.38,-16 455.38,-16 455.38,-52"/>
<text text-anchor="middle" x="379.38" y="-31.2" font-family="Courier,monospace" font-size="11.00">Horde_Routes_Printer</text>
</g>
</g>
</svg>
