<?xml version="1.0" encoding="UTF-8" standalone="no"?>
<!DOCTYPE svg PUBLIC "-//W3C//DTD SVG 1.1//EN"
 "http://www.w3.org/Graphics/SVG/1.1/DTD/svg11.dtd">
<!-- Generated by graphviz version 2.38.0 (20140413.2041)
 -->
<!-- Title: G Pages: 1 -->
<svg width="695pt" height="402pt"
 viewBox="0.00 0.00 694.87 402.00" xmlns="http://www.w3.org/2000/svg" xmlns:xlink="http://www.w3.org/1999/xlink">
<g id="graph0" class="graph" transform="scale(1 1) rotate(0) translate(4 398)">
<title>G</title>
<polygon fill="white" stroke="none" points="-4,4 -4,-398 690.87,-398 690.87,4 -4,4"/>
<g id="clust1" class="cluster"><title>cluster_Global</title>
<path fill="none" stroke="gray" d="M229.43,-44C229.43,-44 666.87,-44 666.87,-44 672.87,-44 678.87,-50 678.87,-56 678.87,-56 678.87,-374 678.87,-374 678.87,-380 672.87,-386 666.87,-386 666.87,-386 229.43,-386 229.43,-386 223.43,-386 217.43,-380 217.43,-374 217.43,-374 217.43,-56 217.43,-56 217.43,-50 223.43,-44 229.43,-44"/>
<text text-anchor="middle" x="448.15" y="-373.2" font-family="Times,serif" font-size="11.00" fill="gray">Global</text>
</g>
<!-- \\Horde_HashTable_Null -->
<g id="node1" class="node"><title>\\Horde_HashTable_Null</title>
<polygon fill="none" stroke="black" points="654.37,-304 502.37,-304 502.37,-268 654.37,-268 654.37,-304"/>
<text text-anchor="middle" x="578.37" y="-283.2" font-family="Courier,monospace" font-size="11.00">Horde_HashTable_Null</text>
</g>
<!-- \\Horde_HashTable_Base -->
<g id="node6" class="node"><title>\\Horde_HashTable_Base</title>
<polygon fill="none" stroke="black" points="377.43,-250 225.43,-250 225.43,-214 377.43,-214 377.43,-250"/>
<text text-anchor="start" x="267.43" y="-235.2" font-family="Courier,monospace" font-size="11.00">«abstract»</text>
<text text-anchor="start" x="233.43" y="-223.2" font-family="Courier,monospace" font-size="11.00">Horde_HashTable_Base</text>
</g>
<!-- \\Horde_HashTable_Null&#45;&gt;\\Horde_HashTable_Base -->
<g id="edge1" class="edge"><title>\\Horde_HashTable_Null&#45;&gt;\\Horde_HashTable_Base</title>
<path fill="none" stroke="black" d="M502.241,-271.244C466.781,-264.28 424.299,-255.936 387.641,-248.736"/>
<polygon fill="none" stroke="black" points="387.954,-245.231 377.467,-246.738 386.605,-252.1 387.954,-245.231"/>
</g>
<!-- \\Horde_HashTable_Lock -->
<g id="node8" class="node"><title>\\Horde_HashTable_Lock</title>
<polygon fill="none" stroke="black" points="377.43,-196 225.43,-196 225.43,-160 377.43,-160 377.43,-196"/>
<text text-anchor="middle" x="301.43" y="-175.2" font-family="Courier,monospace" font-size="11.00">Horde_HashTable_Lock</text>
</g>
<!-- \\Horde_HashTable_Null&#45;&gt;\\Horde_HashTable_Lock -->
<g id="edge2" class="edge"><title>\\Horde_HashTable_Null&#45;&gt;\\Horde_HashTable_Lock</title>
<path fill="none" stroke="black" stroke-dasharray="1,5" d="M506.449,-267.845C499.36,-265.212 492.383,-262.269 485.87,-259 450.121,-241.055 450.049,-222.059 413.87,-205 405.451,-201.03 396.389,-197.61 387.201,-194.671"/>
<polygon fill="none" stroke="black" points="388.187,-191.312 377.602,-191.779 386.167,-198.015 388.187,-191.312"/>
</g>
<!-- \\Horde_HashTable_Vfs -->
<g id="node2" class="node"><title>\\Horde_HashTable_Vfs</title>
<polygon fill="none" stroke="black" points="650.87,-358 505.87,-358 505.87,-322 650.87,-322 650.87,-358"/>
<text text-anchor="middle" x="578.37" y="-337.2" font-family="Courier,monospace" font-size="11.00">Horde_HashTable_Vfs</text>
</g>
<!-- \\Horde_HashTable_Vfs&#45;&gt;\\Horde_HashTable_Base -->
<g id="edge3" class="edge"><title>\\Horde_HashTable_Vfs&#45;&gt;\\Horde_HashTable_Base</title>
<path fill="none" stroke="black" d="M512.051,-321.847C503.193,-319.059 494.267,-316.078 485.87,-313 438.311,-295.566 385.557,-271.784 348.876,-254.502"/>
<polygon fill="none" stroke="black" points="349.978,-251.151 339.442,-250.034 346.982,-257.477 349.978,-251.151"/>
</g>
<!-- \\Horde_HashTable_Exception -->
<g id="node3" class="node"><title>\\Horde_HashTable_Exception</title>
<polygon fill="none" stroke="black" points="670.87,-88 485.87,-88 485.87,-52 670.87,-52 670.87,-88"/>
<text text-anchor="middle" x="578.37" y="-67.2" font-family="Courier,monospace" font-size="11.00">Horde_HashTable_Exception</text>
</g>
<!-- \\Horde_Exception_Wrapped -->
<g id="node9" class="node"><title>\\Horde_Exception_Wrapped</title>
<ellipse fill="none" stroke="black" cx="301.43" cy="-18" rx="112.38" ry="18"/>
<text text-anchor="middle" x="301.43" y="-14.3" font-family="Times,serif" font-size="14.00" fill="gray">\Horde_Exception_Wrapped</text>
</g>
<!-- \\Horde_HashTable_Exception&#45;&gt;\\Horde_Exception_Wrapped -->
<g id="edge4" class="edge"><title>\\Horde_HashTable_Exception&#45;&gt;\\Horde_Exception_Wrapped</title>
<path fill="none" stroke="black" d="M485.819,-52.6848C453.258,-46.5264 416.814,-39.6337 385.045,-33.6252"/>
<polygon fill="none" stroke="black" points="385.382,-30.127 374.906,-31.7075 384.081,-37.005 385.382,-30.127"/>
</g>
<!-- \\Horde_HashTable_Predis -->
<g id="node4" class="node"><title>\\Horde_HashTable_Predis</title>
<polygon fill="none" stroke="black" points="660.87,-250 495.87,-250 495.87,-214 660.87,-214 660.87,-250"/>
<text text-anchor="middle" x="578.37" y="-229.2" font-family="Courier,monospace" font-size="11.00">Horde_HashTable_Predis</text>
</g>
<!-- \\Horde_HashTable_Predis&#45;&gt;\\Horde_HashTable_Base -->
<g id="edge5" class="edge"><title>\\Horde_HashTable_Predis&#45;&gt;\\Horde_HashTable_Base</title>
<path fill="none" stroke="black" d="M495.623,-232C461.623,-232 422.148,-232 387.776,-232"/>
<polygon fill="none" stroke="black" points="387.757,-228.5 377.757,-232 387.757,-235.5 387.757,-228.5"/>
</g>
<!-- \\Horde_HashTable_Predis&#45;&gt;\\Horde_HashTable_Lock -->
<g id="edge6" class="edge"><title>\\Horde_HashTable_Predis&#45;&gt;\\Horde_HashTable_Lock</title>
<path fill="none" stroke="black" stroke-dasharray="1,5" d="M495.623,-215.944C461.623,-209.267 422.148,-201.513 387.776,-194.763"/>
<polygon fill="none" stroke="black" points="388.244,-191.288 377.757,-192.795 386.895,-198.156 388.244,-191.288"/>
</g>
<!-- \\Horde_HashTable_Memory -->
<g id="node5" class="node"><title>\\Horde_HashTable_Memory</title>
<polygon fill="none" stroke="black" points="660.87,-196 495.87,-196 495.87,-160 660.87,-160 660.87,-196"/>
<text text-anchor="middle" x="578.37" y="-175.2" font-family="Courier,monospace" font-size="11.00">Horde_HashTable_Memory</text>
</g>
<!-- \\Horde_HashTable_Memory&#45;&gt;\\Horde_HashTable_Base -->
<g id="edge7" class="edge"><title>\\Horde_HashTable_Memory&#45;&gt;\\Horde_HashTable_Base</title>
<path fill="none" stroke="black" d="M495.623,-194.056C461.623,-200.733 422.148,-208.487 387.776,-215.237"/>
<polygon fill="none" stroke="black" points="386.895,-211.844 377.757,-217.205 388.244,-218.712 386.895,-211.844"/>
</g>
<!-- \\Horde_HashTable_Memory&#45;&gt;\\Horde_HashTable_Lock -->
<g id="edge8" class="edge"><title>\\Horde_HashTable_Memory&#45;&gt;\\Horde_HashTable_Lock</title>
<path fill="none" stroke="black" stroke-dasharray="1,5" d="M495.623,-178C461.623,-178 422.148,-178 387.776,-178"/>
<polygon fill="none" stroke="black" points="387.757,-174.5 377.757,-178 387.757,-181.5 387.757,-174.5"/>
</g>
<!-- \\ArrayAccess -->
<g id="node10" class="node"><title>\\ArrayAccess</title>
<ellipse fill="none" stroke="black" cx="58.4948" cy="-259" rx="58.4896" ry="18"/>
<text text-anchor="middle" x="58.4948" y="-255.3" font-family="Times,serif" font-size="14.00" fill="gray">\ArrayAccess</text>
</g>
<!-- \\Horde_HashTable_Base&#45;&gt;\\ArrayAccess -->
<g id="edge9" class="edge"><title>\\Horde_HashTable_Base&#45;&gt;\\ArrayAccess</title>
<path fill="none" stroke="black" stroke-dasharray="1,5" d="M225.187,-240.432C192.811,-244.06 155.335,-248.26 124.223,-251.746"/>
<polygon fill="none" stroke="black" points="123.48,-248.308 113.932,-252.9 124.26,-255.264 123.48,-248.308"/>
</g>
<!-- \\Serializable -->
<g id="node11" class="node"><title>\\Serializable</title>
<ellipse fill="none" stroke="black" cx="58.4948" cy="-205" rx="54.6905" ry="18"/>
<text text-anchor="middle" x="58.4948" y="-201.3" font-family="Times,serif" font-size="14.00" fill="gray">\Serializable</text>
</g>
<!-- \\Horde_HashTable_Base&#45;&gt;\\Serializable -->
<g id="edge10" class="edge"><title>\\Horde_HashTable_Base&#45;&gt;\\Serializable</title>
<path fill="none" stroke="black" stroke-dasharray="1,5" d="M225.187,-223.568C191.548,-219.798 152.406,-215.412 120.614,-211.849"/>
<polygon fill="none" stroke="black" points="120.894,-208.359 110.567,-210.723 120.115,-215.315 120.894,-208.359"/>
</g>
<!-- \\Horde_HashTable_Memcache -->
<g id="node7" class="node"><title>\\Horde_HashTable_Memcache</title>
<polygon fill="none" stroke="black" points="667.87,-142 488.87,-142 488.87,-106 667.87,-106 667.87,-142"/>
<text text-anchor="middle" x="578.37" y="-121.2" font-family="Courier,monospace" font-size="11.00">Horde_HashTable_Memcache</text>
</g>
<!-- \\Horde_HashTable_Memcache&#45;&gt;\\Horde_HashTable_Base -->
<g id="edge11" class="edge"><title>\\Horde_HashTable_Memcache&#45;&gt;\\Horde_HashTable_Base</title>
<path fill="none" stroke="black" d="M506.449,-142.155C499.36,-144.788 492.383,-147.731 485.87,-151 450.121,-168.945 450.049,-187.941 413.87,-205 405.451,-208.97 396.389,-212.39 387.201,-215.329"/>
<polygon fill="none" stroke="black" points="386.167,-211.985 377.602,-218.221 388.187,-218.688 386.167,-211.985"/>
</g>
<!-- \\Horde_HashTable_Memcache&#45;&gt;\\Horde_HashTable_Lock -->
<g id="edge12" class="edge"><title>\\Horde_HashTable_Memcache&#45;&gt;\\Horde_HashTable_Lock</title>
<path fill="none" stroke="black" stroke-dasharray="1,5" d="M488.864,-141.383C456.428,-147.754 419.808,-154.946 387.665,-161.259"/>
<polygon fill="none" stroke="black" points="386.98,-157.827 377.842,-163.188 388.329,-164.696 386.98,-157.827"/>
</g>
</g>
</svg>
