<?xml version="1.0" encoding="UTF-8" standalone="no"?>
<!DOCTYPE svg PUBLIC "-//W3C//DTD SVG 1.1//EN"
 "http://www.w3.org/Graphics/SVG/1.1/DTD/svg11.dtd">
<!-- Generated by graphviz version 2.38.0 (20140413.2041)
 -->
<!-- Title: G Pages: 1 -->
<svg width="843pt" height="564pt"
 viewBox="0.00 0.00 843.26 564.00" xmlns="http://www.w3.org/2000/svg" xmlns:xlink="http://www.w3.org/1999/xlink">
<g id="graph0" class="graph" transform="scale(1 1) rotate(0) translate(4 560)">
<title>G</title>
<polygon fill="white" stroke="none" points="-4,4 -4,-560 839.258,-560 839.258,4 -4,4"/>
<g id="clust1" class="cluster"><title>cluster_Global</title>
<path fill="none" stroke="gray" d="M57.44,-44C57.44,-44 815.258,-44 815.258,-44 821.258,-44 827.258,-50 827.258,-56 827.258,-56 827.258,-536 827.258,-536 827.258,-542 821.258,-548 815.258,-548 815.258,-548 57.44,-548 57.44,-548 51.44,-548 45.44,-542 45.44,-536 45.44,-536 45.44,-56 45.44,-56 45.44,-50 51.44,-44 57.44,-44"/>
<text text-anchor="middle" x="436.349" y="-535.2" font-family="Times,serif" font-size="11.00" fill="gray">Global</text>
</g>
<!-- \\Horde_Data -->
<g id="node1" class="node"><title>\\Horde_Data</title>
<polygon fill="none" stroke="black" points="758.258,-520 674.258,-520 674.258,-484 758.258,-484 758.258,-520"/>
<text text-anchor="middle" x="716.258" y="-499.2" font-family="Courier,monospace" font-size="11.00">Horde_Data</text>
</g>
<!-- \\Horde_Data_Exception -->
<g id="node2" class="node"><title>\\Horde_Data_Exception</title>
<polygon fill="none" stroke="black" points="495.069,-116 343.069,-116 343.069,-80 495.069,-80 495.069,-116"/>
<text text-anchor="middle" x="419.069" y="-95.2" font-family="Courier,monospace" font-size="11.00">Horde_Data_Exception</text>
</g>
<!-- \\Horde_Exception_Wrapped -->
<g id="node16" class="node"><title>\\Horde_Exception_Wrapped</title>
<ellipse fill="none" stroke="black" cx="112.44" cy="-18" rx="112.38" ry="18"/>
<text text-anchor="middle" x="112.44" y="-14.3" font-family="Times,serif" font-size="14.00" fill="gray">\Horde_Exception_Wrapped</text>
</g>
<!-- \\Horde_Data_Exception&#45;&gt;\\Horde_Exception_Wrapped -->
<g id="edge1" class="edge"><title>\\Horde_Data_Exception&#45;&gt;\\Horde_Exception_Wrapped</title>
<path fill="none" stroke="black" d="M363.084,-79.9443C324.637,-67.7016 271.953,-51.6835 224.88,-40 215.86,-37.7611 206.384,-35.601 196.925,-33.5664"/>
<polygon fill="none" stroke="black" points="197.602,-30.1322 187.095,-31.4936 196.158,-36.9816 197.602,-30.1322"/>
</g>
<!-- \\Horde_Data_Icalendar -->
<g id="node3" class="node"><title>\\Horde_Data_Icalendar</title>
<polygon fill="none" stroke="black" points="792.258,-412 640.258,-412 640.258,-376 792.258,-376 792.258,-412"/>
<text text-anchor="middle" x="716.258" y="-391.2" font-family="Courier,monospace" font-size="11.00">Horde_Data_Icalendar</text>
</g>
<!-- \\Horde_Data_Imc -->
<g id="node7" class="node"><title>\\Horde_Data_Imc</title>
<polygon fill="none" stroke="black" points="474.569,-358 363.569,-358 363.569,-322 474.569,-322 474.569,-358"/>
<text text-anchor="middle" x="419.069" y="-337.2" font-family="Courier,monospace" font-size="11.00">Horde_Data_Imc</text>
</g>
<!-- \\Horde_Data_Icalendar&#45;&gt;\\Horde_Data_Imc -->
<g id="edge2" class="edge"><title>\\Horde_Data_Icalendar&#45;&gt;\\Horde_Data_Imc</title>
<path fill="none" stroke="black" d="M640.006,-380.234C592.047,-371.461 530.549,-360.211 484.783,-351.838"/>
<polygon fill="none" stroke="black" points="485.149,-348.347 474.682,-349.991 483.889,-355.233 485.149,-348.347"/>
</g>
<!-- \\Horde_Data_Exception_Charset -->
<g id="node4" class="node"><title>\\Horde_Data_Exception_Charset</title>
<polygon fill="none" stroke="black" points="819.258,-142 613.258,-142 613.258,-106 819.258,-106 819.258,-142"/>
<text text-anchor="middle" x="716.258" y="-121.2" font-family="Courier,monospace" font-size="11.00">Horde_Data_Exception_Charset</text>
</g>
<!-- \\Horde_Data_Exception_Charset&#45;&gt;\\Horde_Data_Exception -->
<g id="edge3" class="edge"><title>\\Horde_Data_Exception_Charset&#45;&gt;\\Horde_Data_Exception</title>
<path fill="none" stroke="black" d="M613.258,-115.016C578.22,-111.93 539.381,-108.509 505.772,-105.549"/>
<polygon fill="none" stroke="black" points="505.788,-102.037 495.519,-104.646 505.173,-109.01 505.788,-102.037"/>
</g>
<!-- \\Horde_Data_Csv -->
<g id="node5" class="node"><title>\\Horde_Data_Csv</title>
<polygon fill="none" stroke="black" points="474.569,-304 363.569,-304 363.569,-268 474.569,-268 474.569,-304"/>
<text text-anchor="middle" x="419.069" y="-283.2" font-family="Courier,monospace" font-size="11.00">Horde_Data_Csv</text>
</g>
<!-- \\Horde_Data_Base -->
<g id="node12" class="node"><title>\\Horde_Data_Base</title>
<polygon fill="none" stroke="black" points="171.44,-304 53.44,-304 53.44,-268 171.44,-268 171.44,-304"/>
<text text-anchor="start" x="78.44" y="-289.2" font-family="Courier,monospace" font-size="11.00">«abstract»</text>
<text text-anchor="start" x="61.44" y="-277.2" font-family="Courier,monospace" font-size="11.00">Horde_Data_Base</text>
</g>
<!-- \\Horde_Data_Csv&#45;&gt;\\Horde_Data_Base -->
<g id="edge4" class="edge"><title>\\Horde_Data_Csv&#45;&gt;\\Horde_Data_Base</title>
<path fill="none" stroke="black" d="M363.256,-286C312.403,-286 236.535,-286 181.757,-286"/>
<polygon fill="none" stroke="black" points="181.441,-282.5 171.441,-286 181.441,-289.5 181.441,-282.5"/>
</g>
<!-- \\Horde_Data_Vtodo -->
<g id="node6" class="node"><title>\\Horde_Data_Vtodo</title>
<polygon fill="none" stroke="black" points="778.758,-358 653.758,-358 653.758,-322 778.758,-322 778.758,-358"/>
<text text-anchor="middle" x="716.258" y="-337.2" font-family="Courier,monospace" font-size="11.00">Horde_Data_Vtodo</text>
</g>
<!-- \\Horde_Data_Vtodo&#45;&gt;\\Horde_Data_Imc -->
<g id="edge5" class="edge"><title>\\Horde_Data_Vtodo&#45;&gt;\\Horde_Data_Imc</title>
<path fill="none" stroke="black" d="M653.736,-340C604.416,-340 535.386,-340 485.149,-340"/>
<polygon fill="none" stroke="black" points="485.046,-336.5 475.046,-340 485.046,-343.5 485.046,-336.5"/>
</g>
<!-- \\Horde_Data_Imc&#45;&gt;\\Horde_Data_Base -->
<g id="edge6" class="edge"><title>\\Horde_Data_Imc&#45;&gt;\\Horde_Data_Base</title>
<path fill="none" stroke="black" d="M363.256,-330.284C312.297,-321.25 236.22,-307.765 181.416,-298.05"/>
<polygon fill="none" stroke="black" points="181.899,-294.581 171.441,-296.282 180.677,-301.473 181.899,-294.581"/>
</g>
<!-- \\Horde_Data_Vcard -->
<g id="node8" class="node"><title>\\Horde_Data_Vcard</title>
<polygon fill="none" stroke="black" points="778.758,-304 653.758,-304 653.758,-268 778.758,-268 778.758,-304"/>
<text text-anchor="middle" x="716.258" y="-283.2" font-family="Courier,monospace" font-size="11.00">Horde_Data_Vcard</text>
</g>
<!-- \\Horde_Data_Vcard&#45;&gt;\\Horde_Data_Imc -->
<g id="edge7" class="edge"><title>\\Horde_Data_Vcard&#45;&gt;\\Horde_Data_Imc</title>
<path fill="none" stroke="black" d="M653.736,-297.254C604.416,-306.277 535.386,-318.905 485.149,-328.095"/>
<polygon fill="none" stroke="black" points="484.253,-324.7 475.046,-329.943 485.513,-331.586 484.253,-324.7"/>
</g>
<!-- \\Horde_Data_Tsv -->
<g id="node9" class="node"><title>\\Horde_Data_Tsv</title>
<polygon fill="none" stroke="black" points="474.569,-250 363.569,-250 363.569,-214 474.569,-214 474.569,-250"/>
<text text-anchor="middle" x="419.069" y="-229.2" font-family="Courier,monospace" font-size="11.00">Horde_Data_Tsv</text>
</g>
<!-- \\Horde_Data_Tsv&#45;&gt;\\Horde_Data_Base -->
<g id="edge8" class="edge"><title>\\Horde_Data_Tsv&#45;&gt;\\Horde_Data_Base</title>
<path fill="none" stroke="black" d="M363.256,-241.716C312.297,-250.75 236.22,-264.235 181.416,-273.95"/>
<polygon fill="none" stroke="black" points="180.677,-270.527 171.441,-275.718 181.899,-277.419 180.677,-270.527"/>
</g>
<!-- \\Horde_Data_Vnote -->
<g id="node10" class="node"><title>\\Horde_Data_Vnote</title>
<polygon fill="none" stroke="black" points="778.758,-466 653.758,-466 653.758,-430 778.758,-430 778.758,-466"/>
<text text-anchor="middle" x="716.258" y="-445.2" font-family="Courier,monospace" font-size="11.00">Horde_Data_Vnote</text>
</g>
<!-- \\Horde_Data_Vnote&#45;&gt;\\Horde_Data_Imc -->
<g id="edge9" class="edge"><title>\\Horde_Data_Vnote&#45;&gt;\\Horde_Data_Imc</title>
<path fill="none" stroke="black" d="M653.629,-433.157C640.217,-429.519 626.178,-425.395 613.258,-421 562.79,-403.832 506.781,-379.769 468.121,-362.335"/>
<polygon fill="none" stroke="black" points="469.232,-358.996 458.68,-358.054 466.341,-365.371 469.232,-358.996"/>
</g>
<!-- \\Horde_Data_Storage_Mock -->
<g id="node11" class="node"><title>\\Horde_Data_Storage_Mock</title>
<polygon fill="none" stroke="black" points="802.258,-196 630.258,-196 630.258,-160 802.258,-160 802.258,-196"/>
<text text-anchor="middle" x="716.258" y="-175.2" font-family="Courier,monospace" font-size="11.00">Horde_Data_Storage_Mock</text>
</g>
<!-- \\Horde_Data_Storage -->
<g id="node15" class="node"><title>\\Horde_Data_Storage</title>
<polygon fill="none" stroke="black" points="488.069,-196 350.069,-196 350.069,-160 488.069,-160 488.069,-196"/>
<text text-anchor="middle" x="419.069" y="-175.2" font-family="Courier,monospace" font-size="11.00">Horde_Data_Storage</text>
</g>
<!-- \\Horde_Data_Storage_Mock&#45;&gt;\\Horde_Data_Storage -->
<g id="edge10" class="edge"><title>\\Horde_Data_Storage_Mock&#45;&gt;\\Horde_Data_Storage</title>
<path fill="none" stroke="black" stroke-dasharray="1,5" d="M629.877,-178C588.437,-178 538.987,-178 498.506,-178"/>
<polygon fill="none" stroke="black" points="498.417,-174.5 488.417,-178 498.417,-181.5 498.417,-174.5"/>
</g>
<!-- \\Horde_Data_Translation -->
<g id="node13" class="node"><title>\\Horde_Data_Translation</title>
<polygon fill="none" stroke="black" points="798.758,-88 633.758,-88 633.758,-52 798.758,-52 798.758,-88"/>
<text text-anchor="middle" x="716.258" y="-67.2" font-family="Courier,monospace" font-size="11.00">Horde_Data_Translation</text>
</g>
<!-- \\Horde_Translation_Autodetect -->
<g id="node17" class="node"><title>\\Horde_Translation_Autodetect</title>
<ellipse fill="none" stroke="black" cx="419.069" cy="-18" rx="122.379" ry="18"/>
<text text-anchor="middle" x="419.069" y="-14.3" font-family="Times,serif" font-size="14.00" fill="gray">\Horde_Translation_Autodetect</text>
</g>
<!-- \\Horde_Data_Translation&#45;&gt;\\Horde_Translation_Autodetect -->
<g id="edge11" class="edge"><title>\\Horde_Data_Translation&#45;&gt;\\Horde_Translation_Autodetect</title>
<path fill="none" stroke="black" d="M633.424,-55.5842C594.493,-48.7263 547.891,-40.5168 508.185,-33.5222"/>
<polygon fill="none" stroke="black" points="508.703,-30.0597 498.247,-31.7717 507.488,-36.9536 508.703,-30.0597"/>
</g>
<!-- \\Horde_Data_Outlookcsv -->
<g id="node14" class="node"><title>\\Horde_Data_Outlookcsv</title>
<polygon fill="none" stroke="black" points="795.258,-250 637.258,-250 637.258,-214 795.258,-214 795.258,-250"/>
<text text-anchor="middle" x="716.258" y="-229.2" font-family="Courier,monospace" font-size="11.00">Horde_Data_Outlookcsv</text>
</g>
<!-- \\Horde_Data_Outlookcsv&#45;&gt;\\Horde_Data_Csv -->
<g id="edge12" class="edge"><title>\\Horde_Data_Outlookcsv&#45;&gt;\\Horde_Data_Csv</title>
<path fill="none" stroke="black" d="M636.928,-246.329C589.449,-255.015 529.602,-265.963 484.813,-274.156"/>
<polygon fill="none" stroke="black" points="484.127,-270.723 474.92,-275.966 485.387,-277.609 484.127,-270.723"/>
</g>
</g>
</svg>
