<?xml version="1.0" encoding="UTF-8" standalone="no"?>
<!DOCTYPE svg PUBLIC "-//W3C//DTD SVG 1.1//EN"
 "http://www.w3.org/Graphics/SVG/1.1/DTD/svg11.dtd">
<!-- Generated by graphviz version 2.38.0 (20140413.2041)
 -->
<!-- Title: G Pages: 1 -->
<svg width="493pt" height="528pt"
 viewBox="0.00 0.00 492.88 528.00" xmlns="http://www.w3.org/2000/svg" xmlns:xlink="http://www.w3.org/1999/xlink">
<g id="graph0" class="graph" transform="scale(1 1) rotate(0) translate(4 524)">
<title>G</title>
<polygon fill="white" stroke="none" points="-4,4 -4,-524 488.88,-524 488.88,4 -4,4"/>
<g id="clust1" class="cluster"><title>cluster_Global</title>
<path fill="none" stroke="gray" d="M300.88,-8C300.88,-8 464.88,-8 464.88,-8 470.88,-8 476.88,-14 476.88,-20 476.88,-20 476.88,-500 476.88,-500 476.88,-506 470.88,-512 464.88,-512 464.88,-512 300.88,-512 300.88,-512 294.88,-512 288.88,-506 288.88,-500 288.88,-500 288.88,-20 288.88,-20 288.88,-14 294.88,-8 300.88,-8"/>
<text text-anchor="middle" x="382.88" y="-499.2" font-family="Times,serif" font-size="11.00" fill="gray">Global</text>
</g>
<!-- \\Horde_Rdo -->
<g id="node1" class="node"><title>\\Horde_Rdo</title>
<polygon fill="none" stroke="black" points="421.38,-484 344.38,-484 344.38,-448 421.38,-448 421.38,-484"/>
<text text-anchor="middle" x="382.88" y="-463.2" font-family="Courier,monospace" font-size="11.00">Horde_Rdo</text>
</g>
<!-- \\Horde_Rdo_Query -->
<g id="node2" class="node"><title>\\Horde_Rdo_Query</title>
<polygon fill="none" stroke="black" points="441.88,-430 323.88,-430 323.88,-394 441.88,-394 441.88,-430"/>
<text text-anchor="middle" x="382.88" y="-409.2" font-family="Courier,monospace" font-size="11.00">Horde_Rdo_Query</text>
</g>
<!-- \\Horde_Rdo_Exception -->
<g id="node3" class="node"><title>\\Horde_Rdo_Exception</title>
<polygon fill="none" stroke="black" points="455.38,-376 310.38,-376 310.38,-340 455.38,-340 455.38,-376"/>
<text text-anchor="middle" x="382.88" y="-355.2" font-family="Courier,monospace" font-size="11.00">Horde_Rdo_Exception</text>
</g>
<!-- \\Horde_Exception_Wrapped -->
<g id="node10" class="node"><title>\\Horde_Exception_Wrapped</title>
<ellipse fill="none" stroke="black" cx="112.44" cy="-358" rx="112.38" ry="18"/>
<text text-anchor="middle" x="112.44" y="-354.3" font-family="Times,serif" font-size="14.00" fill="gray">\Horde_Exception_Wrapped</text>
</g>
<!-- \\Horde_Rdo_Exception&#45;&gt;\\Horde_Exception_Wrapped -->
<g id="edge1" class="edge"><title>\\Horde_Rdo_Exception&#45;&gt;\\Horde_Exception_Wrapped</title>
<path fill="none" stroke="black" d="M310.296,-358C287.192,-358 260.896,-358 235.214,-358"/>
<polygon fill="none" stroke="black" points="235.028,-354.5 225.028,-358 235.028,-361.5 235.028,-354.5"/>
</g>
<!-- \\Horde_Rdo_Factory -->
<g id="node4" class="node"><title>\\Horde_Rdo_Factory</title>
<polygon fill="none" stroke="black" points="448.38,-322 317.38,-322 317.38,-286 448.38,-286 448.38,-322"/>
<text text-anchor="middle" x="382.88" y="-301.2" font-family="Courier,monospace" font-size="11.00">Horde_Rdo_Factory</text>
</g>
<!-- \\Horde_Rdo_Mapper -->
<g id="node5" class="node"><title>\\Horde_Rdo_Mapper</title>
<polygon fill="none" stroke="black" points="445.38,-268 320.38,-268 320.38,-232 445.38,-232 445.38,-268"/>
<text text-anchor="start" x="348.88" y="-253.2" font-family="Courier,monospace" font-size="11.00">«abstract»</text>
<text text-anchor="start" x="328.38" y="-241.2" font-family="Courier,monospace" font-size="11.00">Horde_Rdo_Mapper</text>
</g>
<!-- \\Countable -->
<g id="node11" class="node"><title>\\Countable</title>
<ellipse fill="none" stroke="black" cx="112.44" cy="-223" rx="49.2915" ry="18"/>
<text text-anchor="middle" x="112.44" y="-219.3" font-family="Times,serif" font-size="14.00" fill="gray">\Countable</text>
</g>
<!-- \\Horde_Rdo_Mapper&#45;&gt;\\Countable -->
<g id="edge2" class="edge"><title>\\Horde_Rdo_Mapper&#45;&gt;\\Countable</title>
<path fill="none" stroke="black" stroke-dasharray="1,5" d="M320.294,-243.806C275.203,-239.27 214.459,-233.161 170.472,-228.736"/>
<polygon fill="none" stroke="black" points="170.813,-225.253 160.513,-227.735 170.113,-232.218 170.813,-225.253"/>
</g>
<!-- \\Horde_Rdo_Iterator -->
<g id="node6" class="node"><title>\\Horde_Rdo_Iterator</title>
<polygon fill="none" stroke="black" points="451.88,-214 313.88,-214 313.88,-178 451.88,-178 451.88,-214"/>
<text text-anchor="middle" x="382.88" y="-193.2" font-family="Courier,monospace" font-size="11.00">Horde_Rdo_Iterator</text>
</g>
<!-- \\Iterator -->
<g id="node12" class="node"><title>\\Iterator</title>
<ellipse fill="none" stroke="black" cx="112.44" cy="-155" rx="38.9931" ry="18"/>
<text text-anchor="middle" x="112.44" y="-151.3" font-family="Times,serif" font-size="14.00" fill="gray">\Iterator</text>
</g>
<!-- \\Horde_Rdo_Iterator&#45;&gt;\\Iterator -->
<g id="edge3" class="edge"><title>\\Horde_Rdo_Iterator&#45;&gt;\\Iterator</title>
<path fill="none" stroke="black" stroke-dasharray="1,5" d="M313.794,-185.601C265.579,-178.237 202.185,-168.554 159.739,-162.071"/>
<polygon fill="none" stroke="black" points="160.1,-158.586 149.687,-160.536 159.044,-165.506 160.1,-158.586"/>
</g>
<!-- \\Horde_Rdo_List -->
<g id="node7" class="node"><title>\\Horde_Rdo_List</title>
<polygon fill="none" stroke="black" points="438.38,-160 327.38,-160 327.38,-124 438.38,-124 438.38,-160"/>
<text text-anchor="middle" x="382.88" y="-139.2" font-family="Courier,monospace" font-size="11.00">Horde_Rdo_List</text>
</g>
<!-- \\Horde_Rdo_List&#45;&gt;\\Countable -->
<g id="edge6" class="edge"><title>\\Horde_Rdo_List&#45;&gt;\\Countable</title>
<path fill="none" stroke="black" stroke-dasharray="1,5" d="M327.251,-157.701C314.638,-161.371 301.283,-165.291 288.88,-169 245.063,-182.103 195.241,-197.485 159.915,-208.473"/>
<polygon fill="none" stroke="black" points="158.86,-205.136 150.352,-211.45 160.941,-211.819 158.86,-205.136"/>
</g>
<!-- \\Horde_Rdo_List&#45;&gt;\\Iterator -->
<g id="edge5" class="edge"><title>\\Horde_Rdo_List&#45;&gt;\\Iterator</title>
<path fill="none" stroke="black" stroke-dasharray="1,5" d="M327.234,-144.646C278.635,-147 208.253,-150.408 161.696,-152.663"/>
<polygon fill="none" stroke="black" points="161.38,-149.174 151.561,-153.154 161.718,-156.166 161.38,-149.174"/>
</g>
<!-- \\ArrayAccess -->
<g id="node13" class="node"><title>\\ArrayAccess</title>
<ellipse fill="none" stroke="black" cx="112.44" cy="-101" rx="58.4896" ry="18"/>
<text text-anchor="middle" x="112.44" y="-97.3" font-family="Times,serif" font-size="14.00" fill="gray">\ArrayAccess</text>
</g>
<!-- \\Horde_Rdo_List&#45;&gt;\\ArrayAccess -->
<g id="edge4" class="edge"><title>\\Horde_Rdo_List&#45;&gt;\\ArrayAccess</title>
<path fill="none" stroke="black" stroke-dasharray="1,5" d="M327.234,-133.654C283.196,-126.927 221.271,-117.469 175.394,-110.463"/>
<polygon fill="none" stroke="black" points="175.689,-106.967 165.276,-108.917 174.632,-113.887 175.689,-106.967"/>
</g>
<!-- \\Horde_Rdo_Query_Literal -->
<g id="node8" class="node"><title>\\Horde_Rdo_Query_Literal</title>
<polygon fill="none" stroke="black" points="468.88,-106 296.88,-106 296.88,-70 468.88,-70 468.88,-106"/>
<text text-anchor="middle" x="382.88" y="-85.2" font-family="Courier,monospace" font-size="11.00">Horde_Rdo_Query_Literal</text>
</g>
<!-- \\Horde_Rdo_Base -->
<g id="node9" class="node"><title>\\Horde_Rdo_Base</title>
<polygon fill="none" stroke="black" points="438.38,-52 327.38,-52 327.38,-16 438.38,-16 438.38,-52"/>
<text text-anchor="start" x="348.88" y="-37.2" font-family="Courier,monospace" font-size="11.00">«abstract»</text>
<text text-anchor="start" x="335.38" y="-25.2" font-family="Courier,monospace" font-size="11.00">Horde_Rdo_Base</text>
</g>
<!-- \\Horde_Rdo_Base&#45;&gt;\\ArrayAccess -->
<g id="edge8" class="edge"><title>\\Horde_Rdo_Base&#45;&gt;\\ArrayAccess</title>
<path fill="none" stroke="black" stroke-dasharray="1,5" d="M327.234,-47.6392C280.961,-59.1885 214.94,-75.6667 168.539,-87.2479"/>
<polygon fill="none" stroke="black" points="167.512,-83.8967 158.657,-89.7143 169.207,-90.6884 167.512,-83.8967"/>
</g>
<!-- \\IteratorAggregate -->
<g id="node14" class="node"><title>\\IteratorAggregate</title>
<ellipse fill="none" stroke="black" cx="112.44" cy="-34" rx="75.2868" ry="18"/>
<text text-anchor="middle" x="112.44" y="-30.3" font-family="Times,serif" font-size="14.00" fill="gray">\IteratorAggregate</text>
</g>
<!-- \\Horde_Rdo_Base&#45;&gt;\\IteratorAggregate -->
<g id="edge7" class="edge"><title>\\Horde_Rdo_Base&#45;&gt;\\IteratorAggregate</title>
<path fill="none" stroke="black" stroke-dasharray="1,5" d="M327.234,-34C290.051,-34 240.116,-34 197.857,-34"/>
<polygon fill="none" stroke="black" points="197.852,-30.5001 187.852,-34 197.852,-37.5001 197.852,-30.5001"/>
</g>
</g>
</svg>
