<?xml version="1.0" encoding="UTF-8" standalone="no"?>
<!DOCTYPE svg PUBLIC "-//W3C//DTD SVG 1.1//EN"
 "http://www.w3.org/Graphics/SVG/1.1/DTD/svg11.dtd">
<!-- Generated by graphviz version 2.38.0 (20140413.2041)
 -->
<!-- Title: G Pages: 1 -->
<svg width="506pt" height="186pt"
 viewBox="0.00 0.00 505.88 186.00" xmlns="http://www.w3.org/2000/svg" xmlns:xlink="http://www.w3.org/1999/xlink">
<g id="graph0" class="graph" transform="scale(1 1) rotate(0) translate(4 182)">
<title>G</title>
<polygon fill="white" stroke="none" points="-4,4 -4,-182 501.88,-182 501.88,4 -4,4"/>
<g id="clust1" class="cluster"><title>cluster_Global</title>
<path fill="none" stroke="gray" d="M57.44,-44C57.44,-44 477.88,-44 477.88,-44 483.88,-44 489.88,-50 489.88,-56 489.88,-56 489.88,-158 489.88,-158 489.88,-164 483.88,-170 477.88,-170 477.88,-170 57.44,-170 57.44,-170 51.44,-170 45.44,-164 45.44,-158 45.44,-158 45.44,-56 45.44,-56 45.44,-50 51.44,-44 57.44,-44"/>
<text text-anchor="middle" x="267.66" y="-157.2" font-family="Times,serif" font-size="11.00" fill="gray">Global</text>
</g>
<!-- \\Horde_CssMinify_Exception -->
<g id="node1" class="node"><title>\\Horde_CssMinify_Exception</title>
<polygon fill="none" stroke="black" points="481.88,-88 296.88,-88 296.88,-52 481.88,-52 481.88,-88"/>
<text text-anchor="middle" x="389.38" y="-67.2" font-family="Courier,monospace" font-size="11.00">Horde_CssMinify_Exception</text>
</g>
<!-- \\Horde_Exception_Wrapped -->
<g id="node4" class="node"><title>\\Horde_Exception_Wrapped</title>
<ellipse fill="none" stroke="black" cx="112.44" cy="-18" rx="112.38" ry="18"/>
<text text-anchor="middle" x="112.44" y="-14.3" font-family="Times,serif" font-size="14.00" fill="gray">\Horde_Exception_Wrapped</text>
</g>
<!-- \\Horde_CssMinify_Exception&#45;&gt;\\Horde_Exception_Wrapped -->
<g id="edge1" class="edge"><title>\\Horde_CssMinify_Exception&#45;&gt;\\Horde_Exception_Wrapped</title>
<path fill="none" stroke="black" d="M296.829,-52.6848C264.268,-46.5264 227.824,-39.6337 196.055,-33.6252"/>
<polygon fill="none" stroke="black" points="196.392,-30.127 185.916,-31.7075 195.091,-37.005 196.392,-30.127"/>
</g>
<!-- \\Horde_CssMinify_CssParser -->
<g id="node2" class="node"><title>\\Horde_CssMinify_CssParser</title>
<polygon fill="none" stroke="black" points="481.88,-142 296.88,-142 296.88,-106 481.88,-106 481.88,-142"/>
<text text-anchor="middle" x="389.38" y="-121.2" font-family="Courier,monospace" font-size="11.00">Horde_CssMinify_CssParser</text>
</g>
<!-- \\Horde_CssMinify -->
<g id="node3" class="node"><title>\\Horde_CssMinify</title>
<polygon fill="none" stroke="black" points="171.44,-142 53.44,-142 53.44,-106 171.44,-106 171.44,-142"/>
<text text-anchor="start" x="78.44" y="-127.2" font-family="Courier,monospace" font-size="11.00">«abstract»</text>
<text text-anchor="start" x="61.44" y="-115.2" font-family="Courier,monospace" font-size="11.00">Horde_CssMinify</text>
</g>
<!-- \\Horde_CssMinify_CssParser&#45;&gt;\\Horde_CssMinify -->
<g id="edge2" class="edge"><title>\\Horde_CssMinify_CssParser&#45;&gt;\\Horde_CssMinify</title>
<path fill="none" stroke="black" d="M296.829,-124C259.294,-124 216.6,-124 181.855,-124"/>
<polygon fill="none" stroke="black" points="181.811,-120.5 171.811,-124 181.811,-127.5 181.811,-120.5"/>
</g>
</g>
</svg>
