<?xml version="1.0" encoding="UTF-8" standalone="no"?>
<!DOCTYPE svg PUBLIC "-//W3C//DTD SVG 1.1//EN"
 "http://www.w3.org/Graphics/SVG/1.1/DTD/svg11.dtd">
<!-- Generated by graphviz version 2.38.0 (20140413.2041)
 -->
<!-- Title: G Pages: 1 -->
<svg width="569pt" height="1320pt"
 viewBox="0.00 0.00 569.28 1320.00" xmlns="http://www.w3.org/2000/svg" xmlns:xlink="http://www.w3.org/1999/xlink">
<g id="graph0" class="graph" transform="scale(1 1) rotate(0) translate(4 1316)">
<title>G</title>
<polygon fill="white" stroke="none" points="-4,4 -4,-1316 565.277,-1316 565.277,4 -4,4"/>
<g id="clust1" class="cluster"><title>cluster_Global</title>
<path fill="none" stroke="gray" d="M45.1384,-422C45.1384,-422 541.277,-422 541.277,-422 547.277,-422 553.277,-428 553.277,-434 553.277,-434 553.277,-1292 553.277,-1292 553.277,-1298 547.277,-1304 541.277,-1304 541.277,-1304 45.1384,-1304 45.1384,-1304 39.1384,-1304 33.1384,-1298 33.1384,-1292 33.1384,-1292 33.1384,-434 33.1384,-434 33.1384,-428 39.1384,-422 45.1384,-422"/>
<text text-anchor="middle" x="293.208" y="-1291.2" font-family="Times,serif" font-size="11.00" fill="gray">Global</text>
</g>
<!-- \\Horde_Prefs -->
<g id="node1" class="node"><title>\\Horde_Prefs</title>
<polygon fill="none" stroke="black" points="484.777,-628 393.777,-628 393.777,-592 484.777,-592 484.777,-628"/>
<text text-anchor="middle" x="439.277" y="-607.2" font-family="Courier,monospace" font-size="11.00">Horde_Prefs</text>
</g>
<!-- \\ArrayAccess -->
<g id="node19" class="node"><title>\\ArrayAccess</title>
<ellipse fill="none" stroke="black" cx="130.638" cy="-288" rx="58.4896" ry="18"/>
<text text-anchor="middle" x="130.638" y="-284.3" font-family="Times,serif" font-size="14.00" fill="gray">\ArrayAccess</text>
</g>
<!-- \\Horde_Prefs&#45;&gt;\\ArrayAccess -->
<g id="edge1" class="edge"><title>\\Horde_Prefs&#45;&gt;\\ArrayAccess</title>
<path fill="none" stroke="black" stroke-dasharray="1,5" d="M393.666,-608.576C372.808,-605.636 349.133,-598.686 333.277,-583 245.598,-496.26 350.943,-399.685 261.277,-315 244.681,-299.326 221.457,-291.749 199.242,-288.346"/>
<polygon fill="none" stroke="black" points="199.495,-284.85 189.134,-287.062 198.613,-291.794 199.495,-284.85"/>
</g>
<!-- \\Horde_Prefs_Exception -->
<g id="node2" class="node"><title>\\Horde_Prefs_Exception</title>
<polygon fill="none" stroke="black" points="518.277,-682 360.277,-682 360.277,-646 518.277,-646 518.277,-682"/>
<text text-anchor="middle" x="439.277" y="-661.2" font-family="Courier,monospace" font-size="11.00">Horde_Prefs_Exception</text>
</g>
<!-- \\Horde_Exception_Wrapped -->
<g id="node20" class="node"><title>\\Horde_Exception_Wrapped</title>
<ellipse fill="none" stroke="black" cx="130.638" cy="-342" rx="112.38" ry="18"/>
<text text-anchor="middle" x="130.638" y="-338.3" font-family="Times,serif" font-size="14.00" fill="gray">\Horde_Exception_Wrapped</text>
</g>
<!-- \\Horde_Prefs_Exception&#45;&gt;\\Horde_Exception_Wrapped -->
<g id="edge2" class="edge"><title>\\Horde_Prefs_Exception&#45;&gt;\\Horde_Exception_Wrapped</title>
<path fill="none" stroke="black" d="M360.137,-653.991C350.175,-649.972 340.837,-644.479 333.277,-637 245.598,-550.26 350.943,-453.685 261.277,-369 254.97,-363.044 247.706,-358.256 239.904,-354.423"/>
<polygon fill="none" stroke="black" points="241.089,-351.122 230.522,-350.349 238.3,-357.543 241.089,-351.122"/>
</g>
<!-- \\Horde_Prefs_Cache_Null -->
<g id="node3" class="node"><title>\\Horde_Prefs_Cache_Null</title>
<polygon fill="none" stroke="black" points="521.777,-1276 356.777,-1276 356.777,-1240 521.777,-1240 521.777,-1276"/>
<text text-anchor="middle" x="439.277" y="-1255.2" font-family="Courier,monospace" font-size="11.00">Horde_Prefs_Cache_Null</text>
</g>
<!-- \\Horde_Prefs_Cache_Base -->
<g id="node6" class="node"><title>\\Horde_Prefs_Cache_Base</title>
<polygon fill="none" stroke="black" points="213.138,-1222 48.1384,-1222 48.1384,-1186 213.138,-1186 213.138,-1222"/>
<text text-anchor="start" x="96.6384" y="-1207.2" font-family="Courier,monospace" font-size="11.00">«abstract»</text>
<text text-anchor="start" x="56.1384" y="-1195.2" font-family="Courier,monospace" font-size="11.00">Horde_Prefs_Cache_Base</text>
</g>
<!-- \\Horde_Prefs_Cache_Null&#45;&gt;\\Horde_Prefs_Cache_Base -->
<g id="edge3" class="edge"><title>\\Horde_Prefs_Cache_Null&#45;&gt;\\Horde_Prefs_Cache_Base</title>
<path fill="none" stroke="black" d="M356.506,-1243.6C315.444,-1236.37 265.556,-1227.58 223.211,-1220.13"/>
<polygon fill="none" stroke="black" points="223.637,-1216.65 213.181,-1218.36 222.423,-1223.54 223.637,-1216.65"/>
</g>
<!-- \\Horde_Prefs_Cache_HordeCache -->
<g id="node4" class="node"><title>\\Horde_Prefs_Cache_HordeCache</title>
<polygon fill="none" stroke="black" points="542.277,-1222 336.277,-1222 336.277,-1186 542.277,-1186 542.277,-1222"/>
<text text-anchor="middle" x="439.277" y="-1201.2" font-family="Courier,monospace" font-size="11.00">Horde_Prefs_Cache_HordeCache</text>
</g>
<!-- \\Horde_Prefs_Cache_HordeCache&#45;&gt;\\Horde_Prefs_Cache_Base -->
<g id="edge4" class="edge"><title>\\Horde_Prefs_Cache_HordeCache&#45;&gt;\\Horde_Prefs_Cache_Base</title>
<path fill="none" stroke="black" d="M336.171,-1204C299.858,-1204 259.216,-1204 223.787,-1204"/>
<polygon fill="none" stroke="black" points="223.456,-1200.5 213.456,-1204 223.456,-1207.5 223.456,-1200.5"/>
</g>
<!-- \\Horde_Prefs_Cache_Session -->
<g id="node5" class="node"><title>\\Horde_Prefs_Cache_Session</title>
<polygon fill="none" stroke="black" points="531.777,-1168 346.777,-1168 346.777,-1132 531.777,-1132 531.777,-1168"/>
<text text-anchor="middle" x="439.277" y="-1147.2" font-family="Courier,monospace" font-size="11.00">Horde_Prefs_Cache_Session</text>
</g>
<!-- \\Horde_Prefs_Cache_Session&#45;&gt;\\Horde_Prefs_Cache_Base -->
<g id="edge5" class="edge"><title>\\Horde_Prefs_Cache_Session&#45;&gt;\\Horde_Prefs_Cache_Base</title>
<path fill="none" stroke="black" d="M346.691,-1166.13C307.811,-1172.98 262.572,-1180.94 223.646,-1187.8"/>
<polygon fill="none" stroke="black" points="222.613,-1184.43 213.371,-1189.61 223.827,-1191.32 222.613,-1184.43"/>
</g>
<!-- \\Horde_Prefs_Identity -->
<g id="node7" class="node"><title>\\Horde_Prefs_Identity</title>
<polygon fill="none" stroke="black" points="515.277,-574 363.277,-574 363.277,-538 515.277,-538 515.277,-574"/>
<text text-anchor="middle" x="439.277" y="-553.2" font-family="Courier,monospace" font-size="11.00">Horde_Prefs_Identity</text>
</g>
<!-- \\Horde_Prefs_Identity&#45;&gt;\\ArrayAccess -->
<g id="edge6" class="edge"><title>\\Horde_Prefs_Identity&#45;&gt;\\ArrayAccess</title>
<path fill="none" stroke="black" stroke-dasharray="1,5" d="M363.226,-546.575C352.219,-542.535 341.755,-536.882 333.277,-529 259.781,-460.673 336.336,-381.605 261.277,-315 244.352,-299.981 221.278,-292.52 199.285,-289.025"/>
<polygon fill="none" stroke="black" points="199.659,-285.544 189.283,-287.686 198.73,-292.482 199.659,-285.544"/>
</g>
<!-- \\Countable -->
<g id="node21" class="node"><title>\\Countable</title>
<ellipse fill="none" stroke="black" cx="130.638" cy="-234" rx="49.2915" ry="18"/>
<text text-anchor="middle" x="130.638" y="-230.3" font-family="Times,serif" font-size="14.00" fill="gray">\Countable</text>
</g>
<!-- \\Horde_Prefs_Identity&#45;&gt;\\Countable -->
<g id="edge7" class="edge"><title>\\Horde_Prefs_Identity&#45;&gt;\\Countable</title>
<path fill="none" stroke="black" stroke-dasharray="1,5" d="M363.063,-547.124C352.009,-543.023 341.573,-537.207 333.277,-529 245.598,-442.26 350.943,-345.685 261.277,-261 242.4,-243.172 214.948,-235.82 190.16,-233.169"/>
<polygon fill="none" stroke="black" points="190.353,-229.673 180.096,-232.326 189.769,-236.649 190.353,-229.673"/>
</g>
<!-- \\IteratorAggregate -->
<g id="node22" class="node"><title>\\IteratorAggregate</title>
<ellipse fill="none" stroke="black" cx="130.638" cy="-180" rx="75.2868" ry="18"/>
<text text-anchor="middle" x="130.638" y="-176.3" font-family="Times,serif" font-size="14.00" fill="gray">\IteratorAggregate</text>
</g>
<!-- \\Horde_Prefs_Identity&#45;&gt;\\IteratorAggregate -->
<g id="edge8" class="edge"><title>\\Horde_Prefs_Identity&#45;&gt;\\IteratorAggregate</title>
<path fill="none" stroke="black" stroke-dasharray="1,5" d="M363.026,-547.524C351.909,-543.382 341.462,-537.449 333.277,-529 231.24,-423.675 365.727,-309.932 261.277,-207 249.026,-194.927 232.863,-187.605 216.121,-183.287"/>
<polygon fill="none" stroke="black" points="216.744,-179.841 206.222,-181.08 215.22,-186.673 216.744,-179.841"/>
</g>
<!-- \\Horde_Prefs_CategoryManager -->
<g id="node8" class="node"><title>\\Horde_Prefs_CategoryManager</title>
<polygon fill="none" stroke="black" points="538.777,-952 339.777,-952 339.777,-916 538.777,-916 538.777,-952"/>
<text text-anchor="middle" x="439.277" y="-931.2" font-family="Courier,monospace" font-size="11.00">Horde_Prefs_CategoryManager</text>
</g>
<!-- \\Horde_Prefs_Scope -->
<g id="node9" class="node"><title>\\Horde_Prefs_Scope</title>
<polygon fill="none" stroke="black" points="504.777,-520 373.777,-520 373.777,-484 504.777,-484 504.777,-520"/>
<text text-anchor="middle" x="439.277" y="-499.2" font-family="Courier,monospace" font-size="11.00">Horde_Prefs_Scope</text>
</g>
<!-- \\Iterator -->
<g id="node23" class="node"><title>\\Iterator</title>
<ellipse fill="none" stroke="black" cx="130.638" cy="-72" rx="38.9931" ry="18"/>
<text text-anchor="middle" x="130.638" y="-68.3" font-family="Times,serif" font-size="14.00" fill="gray">\Iterator</text>
</g>
<!-- \\Horde_Prefs_Scope&#45;&gt;\\Iterator -->
<g id="edge9" class="edge"><title>\\Horde_Prefs_Scope&#45;&gt;\\Iterator</title>
<path fill="none" stroke="black" stroke-dasharray="1,5" d="M373.613,-497.201C358.593,-493.145 343.909,-486.318 333.277,-475 216.782,-350.988 380.615,-220.279 261.277,-99 240.259,-77.6403 207.035,-71.0321 179.484,-69.6911"/>
<polygon fill="none" stroke="black" points="179.331,-66.1858 169.24,-69.4152 179.142,-73.1832 179.331,-66.1858"/>
</g>
<!-- \\Serializable -->
<g id="node24" class="node"><title>\\Serializable</title>
<ellipse fill="none" stroke="black" cx="130.638" cy="-126" rx="54.6905" ry="18"/>
<text text-anchor="middle" x="130.638" y="-122.3" font-family="Times,serif" font-size="14.00" fill="gray">\Serializable</text>
</g>
<!-- \\Horde_Prefs_Scope&#45;&gt;\\Serializable -->
<g id="edge10" class="edge"><title>\\Horde_Prefs_Scope&#45;&gt;\\Serializable</title>
<path fill="none" stroke="black" stroke-dasharray="1,5" d="M373.578,-496.899C358.648,-492.839 344.016,-486.085 333.277,-475 231.24,-369.675 365.727,-255.932 261.277,-153 243.94,-135.915 218.77,-128.344 195.21,-125.339"/>
<polygon fill="none" stroke="black" points="195.545,-121.855 185.24,-124.317 194.83,-128.819 195.545,-121.855"/>
</g>
<!-- \\Horde_Prefs_Storage_Null -->
<g id="node10" class="node"><title>\\Horde_Prefs_Storage_Null</title>
<polygon fill="none" stroke="black" points="528.777,-1114 349.777,-1114 349.777,-1078 528.777,-1078 528.777,-1114"/>
<text text-anchor="middle" x="439.277" y="-1093.2" font-family="Courier,monospace" font-size="11.00">Horde_Prefs_Storage_Null</text>
</g>
<!-- \\Horde_Prefs_Storage_Base -->
<g id="node16" class="node"><title>\\Horde_Prefs_Storage_Base</title>
<polygon fill="none" stroke="black" points="220.138,-898 41.1384,-898 41.1384,-862 220.138,-862 220.138,-898"/>
<text text-anchor="start" x="96.6384" y="-883.2" font-family="Courier,monospace" font-size="11.00">«abstract»</text>
<text text-anchor="start" x="49.1384" y="-871.2" font-family="Courier,monospace" font-size="11.00">Horde_Prefs_Storage_Base</text>
</g>
<!-- \\Horde_Prefs_Storage_Null&#45;&gt;\\Horde_Prefs_Storage_Base -->
<g id="edge11" class="edge"><title>\\Horde_Prefs_Storage_Null&#45;&gt;\\Horde_Prefs_Storage_Base</title>
<path fill="none" stroke="black" d="M352.896,-1078C346.09,-1075.38 339.463,-1072.4 333.277,-1069 255.774,-1026.42 185.355,-947.191 151.99,-906.151"/>
<polygon fill="none" stroke="black" points="154.623,-903.84 145.631,-898.237 149.166,-908.225 154.623,-903.84"/>
</g>
<!-- \\Horde_Prefs_Storage_KolabImap -->
<g id="node11" class="node"><title>\\Horde_Prefs_Storage_KolabImap</title>
<polygon fill="none" stroke="black" points="545.277,-1060 333.277,-1060 333.277,-1024 545.277,-1024 545.277,-1060"/>
<text text-anchor="middle" x="439.277" y="-1039.2" font-family="Courier,monospace" font-size="11.00">Horde_Prefs_Storage_KolabImap</text>
</g>
<!-- \\Horde_Prefs_Storage_KolabImap&#45;&gt;\\Horde_Prefs_Storage_Base -->
<g id="edge12" class="edge"><title>\\Horde_Prefs_Storage_KolabImap&#45;&gt;\\Horde_Prefs_Storage_Base</title>
<path fill="none" stroke="black" d="M356.79,-1023.99C348.715,-1021.33 340.75,-1018.34 333.277,-1015 267.142,-985.4 198.857,-934.637 161.163,-904.509"/>
<polygon fill="none" stroke="black" points="163.13,-901.599 153.15,-898.045 158.736,-907.048 163.13,-901.599"/>
</g>
<!-- \\Horde_Prefs_Storage_Imsp -->
<g id="node12" class="node"><title>\\Horde_Prefs_Storage_Imsp</title>
<polygon fill="none" stroke="black" points="528.777,-1006 349.777,-1006 349.777,-970 528.777,-970 528.777,-1006"/>
<text text-anchor="middle" x="439.277" y="-985.2" font-family="Courier,monospace" font-size="11.00">Horde_Prefs_Storage_Imsp</text>
</g>
<!-- \\Horde_Prefs_Storage_Imsp&#45;&gt;\\Horde_Prefs_Storage_Base -->
<g id="edge13" class="edge"><title>\\Horde_Prefs_Storage_Imsp&#45;&gt;\\Horde_Prefs_Storage_Base</title>
<path fill="none" stroke="black" d="M363.079,-969.934C353.001,-967.143 342.845,-964.137 333.277,-961 280.509,-943.699 221.758,-919.513 181.35,-902.081"/>
<polygon fill="none" stroke="black" points="182.565,-898.793 171.998,-898.025 179.78,-905.215 182.565,-898.793"/>
</g>
<!-- \\Horde_Prefs_Storage_Sql -->
<g id="node13" class="node"><title>\\Horde_Prefs_Storage_Sql</title>
<polygon fill="none" stroke="black" points="525.277,-844 353.277,-844 353.277,-808 525.277,-808 525.277,-844"/>
<text text-anchor="middle" x="439.277" y="-823.2" font-family="Courier,monospace" font-size="11.00">Horde_Prefs_Storage_Sql</text>
</g>
<!-- \\Horde_Prefs_Storage_Sql&#45;&gt;\\Horde_Prefs_Storage_Base -->
<g id="edge14" class="edge"><title>\\Horde_Prefs_Storage_Sql&#45;&gt;\\Horde_Prefs_Storage_Base</title>
<path fill="none" stroke="black" d="M353.268,-840.97C315.115,-847.689 269.869,-855.657 230.237,-862.637"/>
<polygon fill="none" stroke="black" points="229.531,-859.207 220.29,-864.388 230.745,-866.101 229.531,-859.207"/>
</g>
<!-- \\Horde_Prefs_Storage_Mongo -->
<g id="node14" class="node"><title>\\Horde_Prefs_Storage_Mongo</title>
<polygon fill="none" stroke="black" points="531.777,-736 346.777,-736 346.777,-700 531.777,-700 531.777,-736"/>
<text text-anchor="middle" x="439.277" y="-715.2" font-family="Courier,monospace" font-size="11.00">Horde_Prefs_Storage_Mongo</text>
</g>
<!-- \\Horde_Prefs_Storage_Mongo&#45;&gt;\\Horde_Prefs_Storage_Base -->
<g id="edge15" class="edge"><title>\\Horde_Prefs_Storage_Mongo&#45;&gt;\\Horde_Prefs_Storage_Base</title>
<path fill="none" stroke="black" d="M356.79,-736.012C348.715,-738.668 340.75,-741.655 333.277,-745 267.142,-774.6 198.857,-825.363 161.163,-855.491"/>
<polygon fill="none" stroke="black" points="158.736,-852.952 153.15,-861.955 163.13,-858.401 158.736,-852.952"/>
</g>
<!-- \\Horde_Mongo_Collection_Index -->
<g id="node25" class="node"><title>\\Horde_Mongo_Collection_Index</title>
<ellipse fill="none" stroke="black" cx="130.638" cy="-396" rx="130.777" ry="18"/>
<text text-anchor="middle" x="130.638" y="-392.3" font-family="Times,serif" font-size="14.00" fill="gray">\Horde_Mongo_Collection_Index</text>
</g>
<!-- \\Horde_Prefs_Storage_Mongo&#45;&gt;\\Horde_Mongo_Collection_Index -->
<g id="edge16" class="edge"><title>\\Horde_Prefs_Storage_Mongo&#45;&gt;\\Horde_Mongo_Collection_Index</title>
<path fill="none" stroke="black" stroke-dasharray="1,5" d="M346.629,-701.332C341.79,-698.399 337.282,-694.98 333.277,-691 244.274,-602.545 353.898,-502.659 261.277,-418 258.236,-415.22 254.979,-412.724 251.553,-410.483"/>
<polygon fill="none" stroke="black" points="253.13,-407.353 242.712,-405.428 249.655,-413.43 253.13,-407.353"/>
</g>
<!-- \\Horde_Prefs_Storage_File -->
<g id="node15" class="node"><title>\\Horde_Prefs_Storage_File</title>
<polygon fill="none" stroke="black" points="528.777,-790 349.777,-790 349.777,-754 528.777,-754 528.777,-790"/>
<text text-anchor="middle" x="439.277" y="-769.2" font-family="Courier,monospace" font-size="11.00">Horde_Prefs_Storage_File</text>
</g>
<!-- \\Horde_Prefs_Storage_File&#45;&gt;\\Horde_Prefs_Storage_Base -->
<g id="edge17" class="edge"><title>\\Horde_Prefs_Storage_File&#45;&gt;\\Horde_Prefs_Storage_Base</title>
<path fill="none" stroke="black" d="M363.079,-790.066C353.001,-792.857 342.845,-795.863 333.277,-799 280.509,-816.301 221.758,-840.487 181.35,-857.919"/>
<polygon fill="none" stroke="black" points="179.78,-854.785 171.998,-861.975 182.565,-861.207 179.78,-854.785"/>
</g>
<!-- \\Horde_Prefs_Storage_Ldap -->
<g id="node17" class="node"><title>\\Horde_Prefs_Storage_Ldap</title>
<polygon fill="none" stroke="black" points="528.777,-898 349.777,-898 349.777,-862 528.777,-862 528.777,-898"/>
<text text-anchor="middle" x="439.277" y="-877.2" font-family="Courier,monospace" font-size="11.00">Horde_Prefs_Storage_Ldap</text>
</g>
<!-- \\Horde_Prefs_Storage_Ldap&#45;&gt;\\Horde_Prefs_Storage_Base -->
<g id="edge18" class="edge"><title>\\Horde_Prefs_Storage_Ldap&#45;&gt;\\Horde_Prefs_Storage_Base</title>
<path fill="none" stroke="black" d="M349.584,-880C312.321,-880 268.822,-880 230.53,-880"/>
<polygon fill="none" stroke="black" points="230.397,-876.5 220.397,-880 230.397,-883.5 230.397,-876.5"/>
</g>
<!-- \\Horde_Prefs_Translation -->
<g id="node18" class="node"><title>\\Horde_Prefs_Translation</title>
<polygon fill="none" stroke="black" points="525.277,-466 353.277,-466 353.277,-430 525.277,-430 525.277,-466"/>
<text text-anchor="middle" x="439.277" y="-445.2" font-family="Courier,monospace" font-size="11.00">Horde_Prefs_Translation</text>
</g>
<!-- \\Horde_Translation_Autodetect -->
<g id="node26" class="node"><title>\\Horde_Translation_Autodetect</title>
<ellipse fill="none" stroke="black" cx="130.638" cy="-18" rx="122.379" ry="18"/>
<text text-anchor="middle" x="130.638" y="-14.3" font-family="Times,serif" font-size="14.00" fill="gray">\Horde_Translation_Autodetect</text>
</g>
<!-- \\Horde_Prefs_Translation&#45;&gt;\\Horde_Translation_Autodetect -->
<g id="edge19" class="edge"><title>\\Horde_Prefs_Translation&#45;&gt;\\Horde_Translation_Autodetect</title>
<path fill="none" stroke="black" d="M436.115,-429.618C427.531,-365.379 389.8,-149.175 261.277,-45 255.061,-39.9616 248.139,-35.7941 240.818,-32.3539"/>
<polygon fill="none" stroke="black" points="241.929,-29.0243 231.354,-28.3744 239.215,-35.4771 241.929,-29.0243"/>
</g>
</g>
</svg>
