<?xml version="1.0" encoding="UTF-8" standalone="no"?>
<!DOCTYPE svg PUBLIC "-//W3C//DTD SVG 1.1//EN"
 "http://www.w3.org/Graphics/SVG/1.1/DTD/svg11.dtd">
<!-- Generated by graphviz version 2.38.0 (20140413.2041)
 -->
<!-- Title: G Pages: 1 -->
<svg width="520pt" height="906pt"
 viewBox="0.00 0.00 519.88 906.00" xmlns="http://www.w3.org/2000/svg" xmlns:xlink="http://www.w3.org/1999/xlink">
<g id="graph0" class="graph" transform="scale(1 1) rotate(0) translate(4 902)">
<title>G</title>
<polygon fill="white" stroke="none" points="-4,4 -4,-902 515.88,-902 515.88,4 -4,4"/>
<g id="clust1" class="cluster"><title>cluster_Global</title>
<path fill="none" stroke="gray" d="M300.88,-8C300.88,-8 491.88,-8 491.88,-8 497.88,-8 503.88,-14 503.88,-20 503.88,-20 503.88,-878 503.88,-878 503.88,-884 497.88,-890 491.88,-890 491.88,-890 300.88,-890 300.88,-890 294.88,-890 288.88,-884 288.88,-878 288.88,-878 288.88,-20 288.88,-20 288.88,-14 294.88,-8 300.88,-8"/>
<text text-anchor="middle" x="396.38" y="-877.2" font-family="Times,serif" font-size="11.00" fill="gray">Global</text>
</g>
<!-- \\Horde_Pdf_Exception -->
<g id="node1" class="node"><title>\\Horde_Pdf_Exception</title>
<polygon fill="none" stroke="black" points="468.88,-862 323.88,-862 323.88,-826 468.88,-826 468.88,-862"/>
<text text-anchor="middle" x="396.38" y="-841.2" font-family="Courier,monospace" font-size="11.00">Horde_Pdf_Exception</text>
</g>
<!-- \\Horde_Exception_Wrapped -->
<g id="node17" class="node"><title>\\Horde_Exception_Wrapped</title>
<ellipse fill="none" stroke="black" cx="112.44" cy="-844" rx="112.38" ry="18"/>
<text text-anchor="middle" x="112.44" y="-840.3" font-family="Times,serif" font-size="14.00" fill="gray">\Horde_Exception_Wrapped</text>
</g>
<!-- \\Horde_Pdf_Exception&#45;&gt;\\Horde_Exception_Wrapped -->
<g id="edge1" class="edge"><title>\\Horde_Pdf_Exception&#45;&gt;\\Horde_Exception_Wrapped</title>
<path fill="none" stroke="black" d="M323.87,-844C296.901,-844 265.41,-844 235.129,-844"/>
<polygon fill="none" stroke="black" points="234.914,-840.5 224.914,-844 234.914,-847.5 234.914,-840.5"/>
</g>
<!-- \\Horde_Pdf_Writer -->
<g id="node2" class="node"><title>\\Horde_Pdf_Writer</title>
<polygon fill="none" stroke="black" points="458.88,-808 333.88,-808 333.88,-772 458.88,-772 458.88,-808"/>
<text text-anchor="middle" x="396.38" y="-787.2" font-family="Courier,monospace" font-size="11.00">Horde_Pdf_Writer</text>
</g>
<!-- \\Horde_Pdf_Font_Helveticai -->
<g id="node3" class="node"><title>\\Horde_Pdf_Font_Helveticai</title>
<polygon fill="none" stroke="black" points="488.88,-754 303.88,-754 303.88,-718 488.88,-718 488.88,-754"/>
<text text-anchor="middle" x="396.38" y="-733.2" font-family="Courier,monospace" font-size="11.00">Horde_Pdf_Font_Helveticai</text>
</g>
<!-- \\Horde_Pdf_Font_Timesi -->
<g id="node4" class="node"><title>\\Horde_Pdf_Font_Timesi</title>
<polygon fill="none" stroke="black" points="475.38,-700 317.38,-700 317.38,-664 475.38,-664 475.38,-700"/>
<text text-anchor="middle" x="396.38" y="-679.2" font-family="Courier,monospace" font-size="11.00">Horde_Pdf_Font_Timesi</text>
</g>
<!-- \\Horde_Pdf_Font_Times -->
<g id="node5" class="node"><title>\\Horde_Pdf_Font_Times</title>
<polygon fill="none" stroke="black" points="472.38,-646 320.38,-646 320.38,-610 472.38,-610 472.38,-646"/>
<text text-anchor="middle" x="396.38" y="-625.2" font-family="Courier,monospace" font-size="11.00">Horde_Pdf_Font_Times</text>
</g>
<!-- \\Horde_Pdf_Font_Courier -->
<g id="node6" class="node"><title>\\Horde_Pdf_Font_Courier</title>
<polygon fill="none" stroke="black" points="478.88,-592 313.88,-592 313.88,-556 478.88,-556 478.88,-592"/>
<text text-anchor="middle" x="396.38" y="-571.2" font-family="Courier,monospace" font-size="11.00">Horde_Pdf_Font_Courier</text>
</g>
<!-- \\Horde_Pdf_Font_Helveticab -->
<g id="node7" class="node"><title>\\Horde_Pdf_Font_Helveticab</title>
<polygon fill="none" stroke="black" points="488.88,-538 303.88,-538 303.88,-502 488.88,-502 488.88,-538"/>
<text text-anchor="middle" x="396.38" y="-517.2" font-family="Courier,monospace" font-size="11.00">Horde_Pdf_Font_Helveticab</text>
</g>
<!-- \\Horde_Pdf_Font_Timesbi -->
<g id="node8" class="node"><title>\\Horde_Pdf_Font_Timesbi</title>
<polygon fill="none" stroke="black" points="478.88,-484 313.88,-484 313.88,-448 478.88,-448 478.88,-484"/>
<text text-anchor="middle" x="396.38" y="-463.2" font-family="Courier,monospace" font-size="11.00">Horde_Pdf_Font_Timesbi</text>
</g>
<!-- \\Horde_Pdf_Font_Zapfdingbats -->
<g id="node9" class="node"><title>\\Horde_Pdf_Font_Zapfdingbats</title>
<polygon fill="none" stroke="black" points="495.88,-430 296.88,-430 296.88,-394 495.88,-394 495.88,-430"/>
<text text-anchor="middle" x="396.38" y="-409.2" font-family="Courier,monospace" font-size="11.00">Horde_Pdf_Font_Zapfdingbats</text>
</g>
<!-- \\Horde_Pdf_Font_Courieri -->
<g id="node10" class="node"><title>\\Horde_Pdf_Font_Courieri</title>
<polygon fill="none" stroke="black" points="482.38,-376 310.38,-376 310.38,-340 482.38,-340 482.38,-376"/>
<text text-anchor="middle" x="396.38" y="-355.2" font-family="Courier,monospace" font-size="11.00">Horde_Pdf_Font_Courieri</text>
</g>
<!-- \\Horde_Pdf_Font_Courierb -->
<g id="node11" class="node"><title>\\Horde_Pdf_Font_Courierb</title>
<polygon fill="none" stroke="black" points="482.38,-322 310.38,-322 310.38,-286 482.38,-286 482.38,-322"/>
<text text-anchor="middle" x="396.38" y="-301.2" font-family="Courier,monospace" font-size="11.00">Horde_Pdf_Font_Courierb</text>
</g>
<!-- \\Horde_Pdf_Font_Timesb -->
<g id="node12" class="node"><title>\\Horde_Pdf_Font_Timesb</title>
<polygon fill="none" stroke="black" points="475.38,-268 317.38,-268 317.38,-232 475.38,-232 475.38,-268"/>
<text text-anchor="middle" x="396.38" y="-247.2" font-family="Courier,monospace" font-size="11.00">Horde_Pdf_Font_Timesb</text>
</g>
<!-- \\Horde_Pdf_Font_Symbol -->
<g id="node13" class="node"><title>\\Horde_Pdf_Font_Symbol</title>
<polygon fill="none" stroke="black" points="475.38,-214 317.38,-214 317.38,-178 475.38,-178 475.38,-214"/>
<text text-anchor="middle" x="396.38" y="-193.2" font-family="Courier,monospace" font-size="11.00">Horde_Pdf_Font_Symbol</text>
</g>
<!-- \\Horde_Pdf_Font_Helvetica -->
<g id="node14" class="node"><title>\\Horde_Pdf_Font_Helvetica</title>
<polygon fill="none" stroke="black" points="485.88,-160 306.88,-160 306.88,-124 485.88,-124 485.88,-160"/>
<text text-anchor="middle" x="396.38" y="-139.2" font-family="Courier,monospace" font-size="11.00">Horde_Pdf_Font_Helvetica</text>
</g>
<!-- \\Horde_Pdf_Font_Courierbi -->
<g id="node15" class="node"><title>\\Horde_Pdf_Font_Courierbi</title>
<polygon fill="none" stroke="black" points="485.88,-106 306.88,-106 306.88,-70 485.88,-70 485.88,-106"/>
<text text-anchor="middle" x="396.38" y="-85.2" font-family="Courier,monospace" font-size="11.00">Horde_Pdf_Font_Courierbi</text>
</g>
<!-- \\Horde_Pdf_Font_Helveticabi -->
<g id="node16" class="node"><title>\\Horde_Pdf_Font_Helveticabi</title>
<polygon fill="none" stroke="black" points="492.38,-52 300.38,-52 300.38,-16 492.38,-16 492.38,-52"/>
<text text-anchor="middle" x="396.38" y="-31.2" font-family="Courier,monospace" font-size="11.00">Horde_Pdf_Font_Helveticabi</text>
</g>
</g>
</svg>
