<?xml version="1.0" encoding="UTF-8" standalone="no"?>
<!DOCTYPE svg PUBLIC "-//W3C//DTD SVG 1.1//EN"
 "http://www.w3.org/Graphics/SVG/1.1/DTD/svg11.dtd">
<!-- Generated by graphviz version 2.38.0 (20140413.2041)
 -->
<!-- Title: G Pages: 1 -->
<svg width="286pt" height="258pt"
 viewBox="0.00 0.00 286.00 258.00" xmlns="http://www.w3.org/2000/svg" xmlns:xlink="http://www.w3.org/1999/xlink">
<g id="graph0" class="graph" transform="scale(1 1) rotate(0) translate(4 254)">
<title>G</title>
<polygon fill="white" stroke="none" points="-4,4 -4,-254 282,-254 282,4 -4,4"/>
<g id="clust1" class="cluster"><title>cluster_Global</title>
<path fill="none" stroke="gray" d="M20,-8C20,-8 258,-8 258,-8 264,-8 270,-14 270,-20 270,-20 270,-230 270,-230 270,-236 264,-242 258,-242 258,-242 20,-242 20,-242 14,-242 8,-236 8,-230 8,-230 8,-20 8,-20 8,-14 14,-8 20,-8"/>
<text text-anchor="middle" x="139" y="-229.2" font-family="Times,serif" font-size="11.00" fill="gray">Global</text>
</g>
<!-- \\Horde_Stream_Wrapper_String -->
<g id="node1" class="node"><title>\\Horde_Stream_Wrapper_String</title>
<polygon fill="none" stroke="black" points="238.5,-214 39.5,-214 39.5,-178 238.5,-178 238.5,-214"/>
<text text-anchor="middle" x="139" y="-193.2" font-family="Courier,monospace" font-size="11.00">Horde_Stream_Wrapper_String</text>
</g>
<!-- \\Horde_Stream_Wrapper_Combine -->
<g id="node2" class="node"><title>\\Horde_Stream_Wrapper_Combine</title>
<polygon fill="none" stroke="black" points="242,-160 36,-160 36,-124 242,-124 242,-160"/>
<text text-anchor="middle" x="139" y="-139.2" font-family="Courier,monospace" font-size="11.00">Horde_Stream_Wrapper_Combine</text>
</g>
<!-- \\Horde_Stream_Wrapper_StringStream -->
<g id="node3" class="node"><title>\\Horde_Stream_Wrapper_StringStream</title>
<polygon fill="none" stroke="black" points="258.5,-106 19.5,-106 19.5,-70 258.5,-70 258.5,-106"/>
<text text-anchor="middle" x="139" y="-85.2" font-family="Courier,monospace" font-size="11.00">Horde_Stream_Wrapper_StringStream</text>
</g>
<!-- \\Horde_Stream_Wrapper_CombineStream -->
<g id="node4" class="node"><title>\\Horde_Stream_Wrapper_CombineStream</title>
<polygon fill="none" stroke="black" points="262,-52 16,-52 16,-16 262,-16 262,-52"/>
<text text-anchor="middle" x="139" y="-31.2" font-family="Courier,monospace" font-size="11.00">Horde_Stream_Wrapper_CombineStream</text>
</g>
</g>
</svg>
