<?xml version="1.0" encoding="UTF-8" standalone="no"?>
<!DOCTYPE svg PUBLIC "-//W3C//DTD SVG 1.1//EN"
 "http://www.w3.org/Graphics/SVG/1.1/DTD/svg11.dtd">
<!-- Generated by graphviz version 2.38.0 (20140413.2041)
 -->
<!-- Title: G Pages: 1 -->
<svg width="957pt" height="2346pt"
 viewBox="0.00 0.00 957.05 2346.00" xmlns="http://www.w3.org/2000/svg" xmlns:xlink="http://www.w3.org/1999/xlink">
<g id="graph0" class="graph" transform="scale(1 1) rotate(0) translate(4 2342)">
<title>G</title>
<polygon fill="white" stroke="none" points="-4,4 -4,-2342 953.054,-2342 953.054,4 -4,4"/>
<g id="clust1" class="cluster"><title>cluster_Global</title>
<path fill="none" stroke="gray" d="M344.971,-746C344.971,-746 929.054,-746 929.054,-746 935.054,-746 941.054,-752 941.054,-758 941.054,-758 941.054,-2318 941.054,-2318 941.054,-2324 935.054,-2330 929.054,-2330 929.054,-2330 344.971,-2330 344.971,-2330 338.971,-2330 332.971,-2324 332.971,-2318 332.971,-2318 332.971,-758 332.971,-758 332.971,-752 338.971,-746 344.971,-746"/>
<text text-anchor="middle" x="637.012" y="-2317.2" font-family="Times,serif" font-size="11.00" fill="gray">Global</text>
</g>
<!-- \\Hermes_LoginTasks_SystemTask_Upgrade -->
<g id="node1" class="node"><title>\\Hermes_LoginTasks_SystemTask_Upgrade</title>
<polygon fill="none" stroke="black" points="926.554,-2140 666.554,-2140 666.554,-2104 926.554,-2104 926.554,-2140"/>
<text text-anchor="middle" x="796.554" y="-2119.2" font-family="Courier,monospace" font-size="11.00">Hermes_LoginTasks_SystemTask_Upgrade</text>
</g>
<!-- \\Horde_Core_LoginTasks_SystemTask_Upgrade -->
<g id="node33" class="node"><title>\\Horde_Core_LoginTasks_SystemTask_Upgrade</title>
<ellipse fill="none" stroke="black" cx="403.471" cy="-720" rx="184.667" ry="18"/>
<text text-anchor="middle" x="403.471" y="-716.3" font-family="Times,serif" font-size="14.00" fill="gray">\Horde_Core_LoginTasks_SystemTask_Upgrade</text>
</g>
<!-- \\Hermes_LoginTasks_SystemTask_Upgrade&#45;&gt;\\Horde_Core_LoginTasks_SystemTask_Upgrade -->
<g id="edge1" class="edge"><title>\\Hermes_LoginTasks_SystemTask_Upgrade&#45;&gt;\\Horde_Core_LoginTasks_SystemTask_Upgrade</title>
<path fill="none" stroke="black" d="M669.298,-2103.85C665.979,-2101.2 662.88,-2098.26 660.054,-2095 462.963,-1867.38 793.807,-961.823 588.054,-742 585.235,-738.988 582.236,-736.223 579.083,-733.688"/>
<polygon fill="none" stroke="black" points="581.108,-730.833 570.941,-727.85 577.028,-736.521 581.108,-730.833"/>
</g>
<!-- \\Hermes_Api -->
<g id="node2" class="node"><title>\\Hermes_Api</title>
<polygon fill="none" stroke="black" points="838.554,-2086 754.554,-2086 754.554,-2050 838.554,-2050 838.554,-2086"/>
<text text-anchor="middle" x="796.554" y="-2065.2" font-family="Courier,monospace" font-size="11.00">Hermes_Api</text>
</g>
<!-- \\Horde_Registry_Api -->
<g id="node34" class="node"><title>\\Horde_Registry_Api</title>
<ellipse fill="none" stroke="black" cx="403.471" cy="-666" rx="87.1846" ry="18"/>
<text text-anchor="middle" x="403.471" y="-662.3" font-family="Times,serif" font-size="14.00" fill="gray">\Horde_Registry_Api</text>
</g>
<!-- \\Hermes_Api&#45;&gt;\\Horde_Registry_Api -->
<g id="edge2" class="edge"><title>\\Hermes_Api&#45;&gt;\\Horde_Registry_Api</title>
<path fill="none" stroke="black" d="M754.382,-2072C723.55,-2072.5 682.902,-2067.38 660.054,-2041 463.667,-1814.24 790.122,-914.716 588.054,-693 563.26,-665.795 524.028,-657.496 488.185,-656.646"/>
<polygon fill="none" stroke="black" points="488.198,-653.146 478.18,-656.594 488.162,-660.146 488.198,-653.146"/>
</g>
<!-- \\Hermes_Ajax_Application_Handler -->
<g id="node3" class="node"><title>\\Hermes_Ajax_Application_Handler</title>
<polygon fill="none" stroke="black" points="909.554,-2032 683.554,-2032 683.554,-1996 909.554,-1996 909.554,-2032"/>
<text text-anchor="middle" x="796.554" y="-2011.2" font-family="Courier,monospace" font-size="11.00">Hermes_Ajax_Application_Handler</text>
</g>
<!-- \\Horde_Core_Ajax_Application_Handler -->
<g id="node35" class="node"><title>\\Horde_Core_Ajax_Application_Handler</title>
<ellipse fill="none" stroke="black" cx="403.471" cy="-612" rx="156.772" ry="18"/>
<text text-anchor="middle" x="403.471" y="-608.3" font-family="Times,serif" font-size="14.00" fill="gray">\Horde_Core_Ajax_Application_Handler</text>
</g>
<!-- \\Hermes_Ajax_Application_Handler&#45;&gt;\\Horde_Core_Ajax_Application_Handler -->
<g id="edge3" class="edge"><title>\\Hermes_Ajax_Application_Handler&#45;&gt;\\Horde_Core_Ajax_Application_Handler</title>
<path fill="none" stroke="black" d="M683.308,-2004.75C674.536,-2000.32 666.571,-1994.52 660.054,-1987 463.667,-1760.24 790.122,-860.716 588.054,-639 581.37,-631.666 573.637,-625.707 565.205,-620.896"/>
<polygon fill="none" stroke="black" points="566.676,-617.718 556.178,-616.29 563.494,-623.953 566.676,-617.718"/>
</g>
<!-- \\Hermes_Ajax_Application -->
<g id="node4" class="node"><title>\\Hermes_Ajax_Application</title>
<polygon fill="none" stroke="black" points="882.554,-1978 710.554,-1978 710.554,-1942 882.554,-1942 882.554,-1978"/>
<text text-anchor="middle" x="796.554" y="-1957.2" font-family="Courier,monospace" font-size="11.00">Hermes_Ajax_Application</text>
</g>
<!-- \\Horde_Core_Ajax_Application -->
<g id="node36" class="node"><title>\\Horde_Core_Ajax_Application</title>
<ellipse fill="none" stroke="black" cx="403.471" cy="-558" rx="124.278" ry="18"/>
<text text-anchor="middle" x="403.471" y="-554.3" font-family="Times,serif" font-size="14.00" fill="gray">\Horde_Core_Ajax_Application</text>
</g>
<!-- \\Hermes_Ajax_Application&#45;&gt;\\Horde_Core_Ajax_Application -->
<g id="edge4" class="edge"><title>\\Hermes_Ajax_Application&#45;&gt;\\Horde_Core_Ajax_Application</title>
<path fill="none" stroke="black" d="M710.349,-1960.07C691.235,-1955.88 672.852,-1947.78 660.054,-1933 463.667,-1706.24 790.122,-806.716 588.054,-585 572.648,-568.096 551.669,-558.492 529.391,-553.438"/>
<polygon fill="none" stroke="black" points="529.916,-549.974 519.43,-551.484 528.569,-556.843 529.916,-549.974"/>
</g>
<!-- \\Hermes_Form_Export -->
<g id="node5" class="node"><title>\\Hermes_Form_Export</title>
<polygon fill="none" stroke="black" points="865.554,-1924 727.554,-1924 727.554,-1888 865.554,-1888 865.554,-1924"/>
<text text-anchor="middle" x="796.554" y="-1903.2" font-family="Courier,monospace" font-size="11.00">Hermes_Form_Export</text>
</g>
<!-- \\Horde_Form -->
<g id="node37" class="node"><title>\\Horde_Form</title>
<ellipse fill="none" stroke="black" cx="403.471" cy="-504" rx="59.2899" ry="18"/>
<text text-anchor="middle" x="403.471" y="-500.3" font-family="Times,serif" font-size="14.00" fill="gray">\Horde_Form</text>
</g>
<!-- \\Hermes_Form_Export&#45;&gt;\\Horde_Form -->
<g id="edge5" class="edge"><title>\\Hermes_Form_Export&#45;&gt;\\Horde_Form</title>
<path fill="none" stroke="black" d="M727.302,-1908.81C702.546,-1906.08 676.621,-1898.13 660.054,-1879 463.667,-1652.24 790.122,-752.716 588.054,-531 558.047,-498.075 506.893,-492.842 466.192,-494.991"/>
<polygon fill="none" stroke="black" points="465.825,-491.508 456.088,-495.684 466.305,-498.491 465.825,-491.508"/>
</g>
<!-- \\Hermes_Form_Time -->
<g id="node6" class="node"><title>\\Hermes_Form_Time</title>
<polygon fill="none" stroke="black" points="465.971,-2302 340.971,-2302 340.971,-2266 465.971,-2266 465.971,-2302"/>
<text text-anchor="middle" x="403.471" y="-2281.2" font-family="Courier,monospace" font-size="11.00">Hermes_Form_Time</text>
</g>
<!-- \\Hermes_Form_Time&#45;&gt;\\Horde_Form -->
<g id="edge6" class="edge"><title>\\Hermes_Form_Time&#45;&gt;\\Horde_Form</title>
<path fill="none" stroke="black" d="M466.157,-2294.11C517.731,-2298.41 587.996,-2294.18 624.054,-2248 653.252,-2210.6 653.252,-577.396 624.054,-540 587.675,-493.407 516.478,-489.519 464.785,-494.01"/>
<polygon fill="none" stroke="black" points="464.328,-490.538 454.723,-495.01 465.02,-497.504 464.328,-490.538"/>
</g>
<!-- \\Hermes_Form_Admin_EditJobTypeStepTwo -->
<g id="node7" class="node"><title>\\Hermes_Form_Admin_EditJobTypeStepTwo</title>
<polygon fill="none" stroke="black" points="926.554,-1870 666.554,-1870 666.554,-1834 926.554,-1834 926.554,-1870"/>
<text text-anchor="middle" x="796.554" y="-1849.2" font-family="Courier,monospace" font-size="11.00">Hermes_Form_Admin_EditJobTypeStepTwo</text>
</g>
<!-- \\Hermes_Form_Admin_EditJobTypeStepTwo&#45;&gt;\\Horde_Form -->
<g id="edge7" class="edge"><title>\\Hermes_Form_Admin_EditJobTypeStepTwo&#45;&gt;\\Horde_Form</title>
<path fill="none" stroke="black" d="M669.308,-1833.84C665.987,-1831.2 662.884,-1828.26 660.054,-1825 471.269,-1607.5 782.287,-743.645 588.054,-531 558.011,-498.109 506.859,-492.873 466.168,-495.012"/>
<polygon fill="none" stroke="black" points="465.806,-491.529 456.068,-495.703 466.284,-498.512 465.806,-491.529"/>
</g>
<!-- \\Hermes_Form_Admin_EditClientStepTwo -->
<g id="node8" class="node"><title>\\Hermes_Form_Admin_EditClientStepTwo</title>
<polygon fill="none" stroke="black" points="923.054,-1816 670.054,-1816 670.054,-1780 923.054,-1780 923.054,-1816"/>
<text text-anchor="middle" x="796.554" y="-1795.2" font-family="Courier,monospace" font-size="11.00">Hermes_Form_Admin_EditClientStepTwo</text>
</g>
<!-- \\Hermes_Form_Admin_EditClientStepTwo&#45;&gt;\\Horde_Form -->
<g id="edge8" class="edge"><title>\\Hermes_Form_Admin_EditClientStepTwo&#45;&gt;\\Horde_Form</title>
<path fill="none" stroke="black" d="M669.875,-1780.26C666.34,-1777.51 663.046,-1774.44 660.054,-1771 478.871,-1562.77 774.453,-734.574 588.054,-531 557.971,-498.145 506.822,-492.906 466.143,-495.035"/>
<polygon fill="none" stroke="black" points="465.785,-491.551 456.046,-495.723 466.261,-498.535 465.785,-491.551"/>
</g>
<!-- \\Hermes_Form_Admin_EditClientStepOne -->
<g id="node9" class="node"><title>\\Hermes_Form_Admin_EditClientStepOne</title>
<polygon fill="none" stroke="black" points="923.054,-1762 670.054,-1762 670.054,-1726 923.054,-1726 923.054,-1762"/>
<text text-anchor="middle" x="796.554" y="-1741.2" font-family="Courier,monospace" font-size="11.00">Hermes_Form_Admin_EditClientStepOne</text>
</g>
<!-- \\Hermes_Form_Admin_EditClientStepOne&#45;&gt;\\Horde_Form -->
<g id="edge9" class="edge"><title>\\Hermes_Form_Admin_EditClientStepOne&#45;&gt;\\Horde_Form</title>
<path fill="none" stroke="black" d="M669.886,-1726.25C666.348,-1723.51 663.05,-1720.43 660.054,-1717 486.472,-1518.04 766.62,-725.504 588.054,-531 558.028,-498.294 507.123,-492.978 466.523,-495.039"/>
<polygon fill="none" stroke="black" points="466.187,-491.554 456.442,-495.71 466.652,-498.538 466.187,-491.554"/>
</g>
<!-- \\Hermes_Form_Admin_DeleteJobType -->
<g id="node10" class="node"><title>\\Hermes_Form_Admin_DeleteJobType</title>
<polygon fill="none" stroke="black" points="909.554,-1708 683.554,-1708 683.554,-1672 909.554,-1672 909.554,-1708"/>
<text text-anchor="middle" x="796.554" y="-1687.2" font-family="Courier,monospace" font-size="11.00">Hermes_Form_Admin_DeleteJobType</text>
</g>
<!-- \\Hermes_Form_Admin_DeleteJobType&#45;&gt;\\Horde_Form -->
<g id="edge10" class="edge"><title>\\Hermes_Form_Admin_DeleteJobType&#45;&gt;\\Horde_Form</title>
<path fill="none" stroke="black" d="M683.388,-1680.68C674.6,-1676.26 666.609,-1670.49 660.054,-1663 494.072,-1473.3 758.788,-716.435 588.054,-531 557.981,-498.337 507.08,-493.018 466.493,-495.067"/>
<polygon fill="none" stroke="black" points="466.162,-491.581 456.415,-495.735 466.625,-498.566 466.162,-491.581"/>
</g>
<!-- \\Hermes_Form_Admin_EditJobTypeStepOne -->
<g id="node11" class="node"><title>\\Hermes_Form_Admin_EditJobTypeStepOne</title>
<polygon fill="none" stroke="black" points="926.554,-1654 666.554,-1654 666.554,-1618 926.554,-1618 926.554,-1654"/>
<text text-anchor="middle" x="796.554" y="-1633.2" font-family="Courier,monospace" font-size="11.00">Hermes_Form_Admin_EditJobTypeStepOne</text>
</g>
<!-- \\Hermes_Form_Admin_EditJobTypeStepOne&#45;&gt;\\Horde_Form -->
<g id="edge11" class="edge"><title>\\Hermes_Form_Admin_EditJobTypeStepOne&#45;&gt;\\Horde_Form</title>
<path fill="none" stroke="black" d="M669.355,-1617.8C666.02,-1615.17 662.902,-1612.24 660.054,-1609 501.671,-1428.56 750.957,-707.368 588.054,-531 557.929,-498.385 507.032,-493.062 466.46,-495.098"/>
<polygon fill="none" stroke="black" points="466.134,-491.611 456.386,-495.762 466.595,-498.596 466.134,-491.611"/>
</g>
<!-- \\Hermes_Form_Admin_AddJobType -->
<g id="node12" class="node"><title>\\Hermes_Form_Admin_AddJobType</title>
<polygon fill="none" stroke="black" points="899.554,-1600 693.554,-1600 693.554,-1564 899.554,-1564 899.554,-1600"/>
<text text-anchor="middle" x="796.554" y="-1579.2" font-family="Courier,monospace" font-size="11.00">Hermes_Form_Admin_AddJobType</text>
</g>
<!-- \\Hermes_Form_Admin_AddJobType&#45;&gt;\\Horde_Form -->
<g id="edge12" class="edge"><title>\\Hermes_Form_Admin_AddJobType&#45;&gt;\\Horde_Form</title>
<path fill="none" stroke="black" d="M693.263,-1576.89C680.617,-1572.17 669.012,-1565.17 660.054,-1555 509.268,-1383.82 743.127,-698.302 588.054,-531 557.872,-498.438 506.979,-493.111 466.423,-495.131"/>
<polygon fill="none" stroke="black" points="466.104,-491.645 456.354,-495.791 466.561,-498.63 466.104,-491.645"/>
</g>
<!-- \\Hermes_Form_Search -->
<g id="node13" class="node"><title>\\Hermes_Form_Search</title>
<polygon fill="none" stroke="black" points="865.554,-1546 727.554,-1546 727.554,-1510 865.554,-1510 865.554,-1546"/>
<text text-anchor="middle" x="796.554" y="-1525.2" font-family="Courier,monospace" font-size="11.00">Hermes_Form_Search</text>
</g>
<!-- \\Hermes_Form_Search&#45;&gt;\\Horde_Form -->
<g id="edge13" class="edge"><title>\\Hermes_Form_Search&#45;&gt;\\Horde_Form</title>
<path fill="none" stroke="black" d="M727.506,-1530.63C702.778,-1527.87 676.819,-1519.96 660.054,-1501 516.864,-1339.08 735.299,-689.237 588.054,-531 557.809,-498.497 506.921,-493.165 466.383,-495.169"/>
<polygon fill="none" stroke="black" points="466.07,-491.682 456.318,-495.824 466.525,-498.667 466.07,-491.682"/>
</g>
<!-- \\Hermes_Form_JobType_Edit_Step1 -->
<g id="node14" class="node"><title>\\Hermes_Form_JobType_Edit_Step1</title>
<polygon fill="none" stroke="black" points="906.054,-1492 687.054,-1492 687.054,-1456 906.054,-1456 906.054,-1492"/>
<text text-anchor="middle" x="796.554" y="-1471.2" font-family="Courier,monospace" font-size="11.00">Hermes_Form_JobType_Edit_Step1</text>
</g>
<!-- \\Hermes_Form_JobType_Edit_Step1&#45;&gt;\\Horde_Form -->
<g id="edge14" class="edge"><title>\\Hermes_Form_JobType_Edit_Step1&#45;&gt;\\Horde_Form</title>
<path fill="none" stroke="black" d="M687.049,-1466.25C676.846,-1461.67 667.541,-1455.43 660.054,-1447 524.458,-1294.34 727.473,-680.175 588.054,-531 557.738,-498.563 506.856,-493.226 466.337,-495.211"/>
<polygon fill="none" stroke="black" points="466.032,-491.723 456.278,-495.862 466.483,-498.709 466.032,-491.723"/>
</g>
<!-- \\Hermes_Form_JobType_Add -->
<g id="node15" class="node"><title>\\Hermes_Form_JobType_Add</title>
<polygon fill="none" stroke="black" points="882.554,-1438 710.554,-1438 710.554,-1402 882.554,-1402 882.554,-1438"/>
<text text-anchor="middle" x="796.554" y="-1417.2" font-family="Courier,monospace" font-size="11.00">Hermes_Form_JobType_Add</text>
</g>
<!-- \\Hermes_Form_JobType_Add&#45;&gt;\\Horde_Form -->
<g id="edge15" class="edge"><title>\\Hermes_Form_JobType_Add&#45;&gt;\\Horde_Form</title>
<path fill="none" stroke="black" d="M710.304,-1419.72C691.309,-1415.52 672.992,-1407.49 660.054,-1393 532.05,-1249.6 719.649,-671.115 588.054,-531 557.761,-498.745 507.122,-493.33 466.693,-495.239"/>
<polygon fill="none" stroke="black" points="466.414,-491.75 456.653,-495.87 466.853,-498.736 466.414,-491.75"/>
</g>
<!-- \\Hermes_Form_Deliverable -->
<g id="node16" class="node"><title>\\Hermes_Form_Deliverable</title>
<polygon fill="none" stroke="black" points="882.554,-1384 710.554,-1384 710.554,-1348 882.554,-1348 882.554,-1384"/>
<text text-anchor="middle" x="796.554" y="-1363.2" font-family="Courier,monospace" font-size="11.00">Hermes_Form_Deliverable</text>
</g>
<!-- \\Hermes_Form_Deliverable&#45;&gt;\\Horde_Form -->
<g id="edge16" class="edge"><title>\\Hermes_Form_Deliverable&#45;&gt;\\Horde_Form</title>
<path fill="none" stroke="black" d="M710.36,-1365.67C691.363,-1361.47 673.033,-1353.46 660.054,-1339 539.639,-1204.85 711.828,-662.058 588.054,-531 557.671,-498.829 507.04,-493.408 466.636,-495.293"/>
<polygon fill="none" stroke="black" points="466.366,-491.803 456.603,-495.918 466.801,-498.79 466.366,-491.803"/>
</g>
<!-- \\Hermes_Form_Deliverable_ClientSelector -->
<g id="node17" class="node"><title>\\Hermes_Form_Deliverable_ClientSelector</title>
<polygon fill="none" stroke="black" points="933.054,-1330 660.054,-1330 660.054,-1294 933.054,-1294 933.054,-1330"/>
<text text-anchor="middle" x="796.554" y="-1309.2" font-family="Courier,monospace" font-size="11.00">Hermes_Form_Deliverable_ClientSelector</text>
</g>
<!-- \\Hermes_Form_Deliverable_ClientSelector&#45;&gt;\\Horde_Form -->
<g id="edge17" class="edge"><title>\\Hermes_Form_Deliverable_ClientSelector&#45;&gt;\\Horde_Form</title>
<path fill="none" stroke="black" d="M669.756,-1293.91C666.281,-1291.25 663.029,-1288.29 660.054,-1285 547.225,-1160.1 704.01,-653.004 588.054,-531 557.57,-498.925 506.946,-493.497 466.57,-495.355"/>
<polygon fill="none" stroke="black" points="466.311,-491.865 456.545,-495.973 466.741,-498.851 466.311,-491.865"/>
</g>
<!-- \\Hermes_Form_Time_Entry -->
<g id="node18" class="node"><title>\\Hermes_Form_Time_Entry</title>
<polygon fill="none" stroke="black" points="879.054,-2302 714.054,-2302 714.054,-2266 879.054,-2266 879.054,-2302"/>
<text text-anchor="middle" x="796.554" y="-2281.2" font-family="Courier,monospace" font-size="11.00">Hermes_Form_Time_Entry</text>
</g>
<!-- \\Hermes_Form_Time_Entry&#45;&gt;\\Hermes_Form_Time -->
<g id="edge18" class="edge"><title>\\Hermes_Form_Time_Entry&#45;&gt;\\Hermes_Form_Time</title>
<path fill="none" stroke="black" d="M714.046,-2284C643.78,-2284 543.317,-2284 476.091,-2284"/>
<polygon fill="none" stroke="black" points="476.009,-2280.5 466.009,-2284 476.009,-2287.5 476.009,-2280.5"/>
</g>
<!-- \\Hermes_Exception -->
<g id="node19" class="node"><title>\\Hermes_Exception</title>
<polygon fill="none" stroke="black" points="859.054,-1276 734.054,-1276 734.054,-1240 859.054,-1240 859.054,-1276"/>
<text text-anchor="middle" x="796.554" y="-1255.2" font-family="Courier,monospace" font-size="11.00">Hermes_Exception</text>
</g>
<!-- \\Horde_Exception_Wrapped -->
<g id="node38" class="node"><title>\\Horde_Exception_Wrapped</title>
<ellipse fill="none" stroke="black" cx="403.471" cy="-450" rx="112.38" ry="18"/>
<text text-anchor="middle" x="403.471" y="-446.3" font-family="Times,serif" font-size="14.00" fill="gray">\Horde_Exception_Wrapped</text>
</g>
<!-- \\Hermes_Exception&#45;&gt;\\Horde_Exception_Wrapped -->
<g id="edge19" class="edge"><title>\\Hermes_Exception&#45;&gt;\\Horde_Exception_Wrapped</title>
<path fill="none" stroke="black" d="M734,-1261.05C707.513,-1258.93 678.465,-1251.38 660.054,-1231 547.225,-1106.1 704.01,-599.004 588.054,-477 569.079,-457.035 542.301,-447.394 515.048,-443.408"/>
<polygon fill="none" stroke="black" points="515.349,-439.919 505,-442.187 514.504,-446.868 515.349,-439.919"/>
</g>
<!-- \\Hermes_Application -->
<g id="node20" class="node"><title>\\Hermes_Application</title>
<polygon fill="none" stroke="black" points="865.554,-1222 727.554,-1222 727.554,-1186 865.554,-1186 865.554,-1222"/>
<text text-anchor="middle" x="796.554" y="-1201.2" font-family="Courier,monospace" font-size="11.00">Hermes_Application</text>
</g>
<!-- \\Horde_Registry_Application -->
<g id="node39" class="node"><title>\\Horde_Registry_Application</title>
<ellipse fill="none" stroke="black" cx="403.471" cy="-396" rx="115.08" ry="18"/>
<text text-anchor="middle" x="403.471" y="-392.3" font-family="Times,serif" font-size="14.00" fill="gray">\Horde_Registry_Application</text>
</g>
<!-- \\Hermes_Application&#45;&gt;\\Horde_Registry_Application -->
<g id="edge20" class="edge"><title>\\Hermes_Application&#45;&gt;\\Horde_Registry_Application</title>
<path fill="none" stroke="black" d="M727.362,-1206.41C702.766,-1203.59 676.937,-1195.69 660.054,-1177 547.225,-1052.1 704.01,-545.004 588.054,-423 569.851,-403.847 544.467,-394.196 518.371,-389.923"/>
<polygon fill="none" stroke="black" points="518.733,-386.44 508.349,-388.541 517.777,-393.375 518.733,-386.44"/>
</g>
<!-- \\Hermes_View_Sidebar -->
<g id="node21" class="node"><title>\\Hermes_View_Sidebar</title>
<polygon fill="none" stroke="black" points="869.054,-1168 724.054,-1168 724.054,-1132 869.054,-1132 869.054,-1168"/>
<text text-anchor="middle" x="796.554" y="-1147.2" font-family="Courier,monospace" font-size="11.00">Hermes_View_Sidebar</text>
</g>
<!-- \\Horde_View_Sidebar -->
<g id="node40" class="node"><title>\\Horde_View_Sidebar</title>
<ellipse fill="none" stroke="black" cx="403.471" cy="-342" rx="89.8845" ry="18"/>
<text text-anchor="middle" x="403.471" y="-338.3" font-family="Times,serif" font-size="14.00" fill="gray">\Horde_View_Sidebar</text>
</g>
<!-- \\Hermes_View_Sidebar&#45;&gt;\\Horde_View_Sidebar -->
<g id="edge21" class="edge"><title>\\Hermes_View_Sidebar&#45;&gt;\\Horde_View_Sidebar</title>
<path fill="none" stroke="black" d="M723.841,-1151.97C700.326,-1148.81 676.133,-1140.8 660.054,-1123 547.225,-998.098 704.01,-491.004 588.054,-369 563.613,-343.284 526.226,-334.697 491.554,-333.26"/>
<polygon fill="none" stroke="black" points="491.456,-329.757 481.381,-333.034 491.301,-336.756 491.456,-329.757"/>
</g>
<!-- \\Hermes_Driver_Sql -->
<g id="node22" class="node"><title>\\Hermes_Driver_Sql</title>
<polygon fill="none" stroke="black" points="862.054,-2248 731.054,-2248 731.054,-2212 862.054,-2212 862.054,-2248"/>
<text text-anchor="middle" x="796.554" y="-2227.2" font-family="Courier,monospace" font-size="11.00">Hermes_Driver_Sql</text>
</g>
<!-- \\Hermes_Driver -->
<g id="node23" class="node"><title>\\Hermes_Driver</title>
<polygon fill="none" stroke="black" points="455.471,-2248 351.471,-2248 351.471,-2212 455.471,-2212 455.471,-2248"/>
<text text-anchor="start" x="369.471" y="-2233.2" font-family="Courier,monospace" font-size="11.00">«abstract»</text>
<text text-anchor="start" x="359.471" y="-2221.2" font-family="Courier,monospace" font-size="11.00">Hermes_Driver</text>
</g>
<!-- \\Hermes_Driver_Sql&#45;&gt;\\Hermes_Driver -->
<g id="edge22" class="edge"><title>\\Hermes_Driver_Sql&#45;&gt;\\Hermes_Driver</title>
<path fill="none" stroke="black" d="M730.975,-2230C657.464,-2230 538.253,-2230 466.025,-2230"/>
<polygon fill="none" stroke="black" points="465.72,-2226.5 455.72,-2230 465.72,-2233.5 465.72,-2226.5"/>
</g>
<!-- \\Hermes_Slice -->
<g id="node24" class="node"><title>\\Hermes_Slice</title>
<polygon fill="none" stroke="black" points="845.554,-1114 747.554,-1114 747.554,-1078 845.554,-1078 845.554,-1114"/>
<text text-anchor="middle" x="796.554" y="-1093.2" font-family="Courier,monospace" font-size="11.00">Hermes_Slice</text>
</g>
<!-- \\ArrayAccess -->
<g id="node41" class="node"><title>\\ArrayAccess</title>
<ellipse fill="none" stroke="black" cx="403.471" cy="-288" rx="58.4896" ry="18"/>
<text text-anchor="middle" x="403.471" y="-284.3" font-family="Times,serif" font-size="14.00" fill="gray">\ArrayAccess</text>
</g>
<!-- \\Hermes_Slice&#45;&gt;\\ArrayAccess -->
<g id="edge23" class="edge"><title>\\Hermes_Slice&#45;&gt;\\ArrayAccess</title>
<path fill="none" stroke="black" stroke-dasharray="1,5" d="M747.244,-1099.7C717.715,-1099.13 681.6,-1092.85 660.054,-1069 547.225,-944.098 704.01,-437.004 588.054,-315 557.467,-282.818 506.606,-277.461 466.164,-279.374"/>
<polygon fill="none" stroke="black" points="465.887,-275.885 456.126,-280.005 466.326,-282.871 465.887,-275.885"/>
</g>
<!-- \\IteratorAggregate -->
<g id="node42" class="node"><title>\\IteratorAggregate</title>
<ellipse fill="none" stroke="black" cx="403.471" cy="-234" rx="75.2868" ry="18"/>
<text text-anchor="middle" x="403.471" y="-230.3" font-family="Times,serif" font-size="14.00" fill="gray">\IteratorAggregate</text>
</g>
<!-- \\Hermes_Slice&#45;&gt;\\IteratorAggregate -->
<g id="edge24" class="edge"><title>\\Hermes_Slice&#45;&gt;\\IteratorAggregate</title>
<path fill="none" stroke="black" stroke-dasharray="1,5" d="M747.523,-1099.75C717.913,-1099.24 681.605,-1093.01 660.054,-1069 539.639,-934.849 711.828,-392.058 588.054,-261 560.962,-232.313 517.768,-224.896 480.083,-224.963"/>
<polygon fill="none" stroke="black" points="479.548,-221.472 469.618,-225.168 479.685,-228.471 479.548,-221.472"/>
</g>
<!-- \\Hermes_Data_Iif -->
<g id="node25" class="node"><title>\\Hermes_Data_Iif</title>
<polygon fill="none" stroke="black" points="855.554,-1060 737.554,-1060 737.554,-1024 855.554,-1024 855.554,-1060"/>
<text text-anchor="middle" x="796.554" y="-1039.2" font-family="Courier,monospace" font-size="11.00">Hermes_Data_Iif</text>
</g>
<!-- \\Horde_Data_Base -->
<g id="node43" class="node"><title>\\Horde_Data_Base</title>
<ellipse fill="none" stroke="black" cx="403.471" cy="-180" rx="77.1866" ry="18"/>
<text text-anchor="middle" x="403.471" y="-176.3" font-family="Times,serif" font-size="14.00" fill="gray">\Horde_Data_Base</text>
</g>
<!-- \\Hermes_Data_Iif&#45;&gt;\\Horde_Data_Base -->
<g id="edge25" class="edge"><title>\\Hermes_Data_Iif&#45;&gt;\\Horde_Data_Base</title>
<path fill="none" stroke="black" d="M737.397,-1045.35C709.998,-1043.63 679.201,-1036.33 660.054,-1015 539.639,-880.849 711.828,-338.058 588.054,-207 561.265,-178.634 518.733,-171.065 481.351,-170.963"/>
<polygon fill="none" stroke="black" points="480.907,-167.469 470.961,-171.121 481.013,-174.469 480.907,-167.469"/>
</g>
<!-- \\Hermes_Data_Csv -->
<g id="node26" class="node"><title>\\Hermes_Data_Csv</title>
<polygon fill="none" stroke="black" points="855.554,-1006 737.554,-1006 737.554,-970 855.554,-970 855.554,-1006"/>
<text text-anchor="middle" x="796.554" y="-985.2" font-family="Courier,monospace" font-size="11.00">Hermes_Data_Csv</text>
</g>
<!-- \\Horde_Data_Csv -->
<g id="node44" class="node"><title>\\Horde_Data_Csv</title>
<ellipse fill="none" stroke="black" cx="403.471" cy="-126" rx="74.187" ry="18"/>
<text text-anchor="middle" x="403.471" y="-122.3" font-family="Times,serif" font-size="14.00" fill="gray">\Horde_Data_Csv</text>
</g>
<!-- \\Hermes_Data_Csv&#45;&gt;\\Horde_Data_Csv -->
<g id="edge26" class="edge"><title>\\Hermes_Data_Csv&#45;&gt;\\Horde_Data_Csv</title>
<path fill="none" stroke="black" d="M737.397,-991.351C709.998,-989.631 679.201,-982.331 660.054,-961 539.639,-826.849 711.828,-284.058 588.054,-153 560.541,-123.868 516.424,-116.671 478.333,-116.971"/>
<polygon fill="none" stroke="black" points="478.192,-113.473 468.282,-117.221 478.366,-120.471 478.192,-113.473"/>
</g>
<!-- \\Hermes_Data_Xls -->
<g id="node27" class="node"><title>\\Hermes_Data_Xls</title>
<polygon fill="none" stroke="black" points="855.554,-2194 737.554,-2194 737.554,-2158 855.554,-2158 855.554,-2194"/>
<text text-anchor="middle" x="796.554" y="-2173.2" font-family="Courier,monospace" font-size="11.00">Hermes_Data_Xls</text>
</g>
<!-- \\Hermes_Data_Tsv -->
<g id="node28" class="node"><title>\\Hermes_Data_Tsv</title>
<polygon fill="none" stroke="black" points="462.471,-2194 344.471,-2194 344.471,-2158 462.471,-2158 462.471,-2194"/>
<text text-anchor="middle" x="403.471" y="-2173.2" font-family="Courier,monospace" font-size="11.00">Hermes_Data_Tsv</text>
</g>
<!-- \\Hermes_Data_Xls&#45;&gt;\\Hermes_Data_Tsv -->
<g id="edge27" class="edge"><title>\\Hermes_Data_Xls&#45;&gt;\\Hermes_Data_Tsv</title>
<path fill="none" stroke="black" d="M737.427,-2176C666.808,-2176 547.837,-2176 472.873,-2176"/>
<polygon fill="none" stroke="black" points="472.597,-2172.5 462.597,-2176 472.597,-2179.5 472.597,-2172.5"/>
</g>
<!-- \\Horde_Data_Tsv -->
<g id="node45" class="node"><title>\\Horde_Data_Tsv</title>
<ellipse fill="none" stroke="black" cx="73.4435" cy="-2176" rx="73.387" ry="18"/>
<text text-anchor="middle" x="73.4435" y="-2172.3" font-family="Times,serif" font-size="14.00" fill="gray">\Horde_Data_Tsv</text>
</g>
<!-- \\Hermes_Data_Tsv&#45;&gt;\\Horde_Data_Tsv -->
<g id="edge28" class="edge"><title>\\Hermes_Data_Tsv&#45;&gt;\\Horde_Data_Tsv</title>
<path fill="none" stroke="black" d="M344.204,-2176C292.274,-2176 215.69,-2176 157.376,-2176"/>
<polygon fill="none" stroke="black" points="157.079,-2172.5 147.079,-2176 157.079,-2179.5 157.079,-2172.5"/>
</g>
<!-- \\Hermes_Table -->
<g id="node29" class="node"><title>\\Hermes_Table</title>
<polygon fill="none" stroke="black" points="845.554,-952 747.554,-952 747.554,-916 845.554,-916 845.554,-952"/>
<text text-anchor="middle" x="796.554" y="-931.2" font-family="Courier,monospace" font-size="11.00">Hermes_Table</text>
</g>
<!-- \\Horde_Core_Ui_Widget -->
<g id="node46" class="node"><title>\\Horde_Core_Ui_Widget</title>
<ellipse fill="none" stroke="black" cx="403.471" cy="-72" rx="100.983" ry="18"/>
<text text-anchor="middle" x="403.471" y="-68.3" font-family="Times,serif" font-size="14.00" fill="gray">\Horde_Core_Ui_Widget</text>
</g>
<!-- \\Hermes_Table&#45;&gt;\\Horde_Core_Ui_Widget -->
<g id="edge29" class="edge"><title>\\Hermes_Table&#45;&gt;\\Horde_Core_Ui_Widget</title>
<path fill="none" stroke="black" d="M747.523,-937.752C717.913,-937.243 681.605,-931.009 660.054,-907 539.639,-772.849 711.828,-230.058 588.054,-99 565.999,-75.6472 533.275,-66.3897 501.538,-63.7903"/>
<polygon fill="none" stroke="black" points="501.476,-60.2803 491.283,-63.1709 501.054,-67.2675 501.476,-60.2803"/>
</g>
<!-- \\Hermes -->
<g id="node30" class="node"><title>\\Hermes</title>
<polygon fill="none" stroke="black" points="825.054,-898 768.054,-898 768.054,-862 825.054,-862 825.054,-898"/>
<text text-anchor="middle" x="796.554" y="-877.2" font-family="Courier,monospace" font-size="11.00">Hermes</text>
</g>
<!-- \\Hermes_Factory_Driver -->
<g id="node31" class="node"><title>\\Hermes_Factory_Driver</title>
<polygon fill="none" stroke="black" points="875.554,-844 717.554,-844 717.554,-808 875.554,-808 875.554,-844"/>
<text text-anchor="middle" x="796.554" y="-823.2" font-family="Courier,monospace" font-size="11.00">Hermes_Factory_Driver</text>
</g>
<!-- \\Horde_Core_Factory_Injector -->
<g id="node47" class="node"><title>\\Horde_Core_Factory_Injector</title>
<ellipse fill="none" stroke="black" cx="403.471" cy="-18" rx="119.679" ry="18"/>
<text text-anchor="middle" x="403.471" y="-14.3" font-family="Times,serif" font-size="14.00" fill="gray">\Horde_Core_Factory_Injector</text>
</g>
<!-- \\Hermes_Factory_Driver&#45;&gt;\\Horde_Core_Factory_Injector -->
<g id="edge30" class="edge"><title>\\Hermes_Factory_Driver&#45;&gt;\\Horde_Core_Factory_Injector</title>
<path fill="none" stroke="black" d="M717.482,-826.996C696.037,-823.292 674.686,-815.198 660.054,-799 547.225,-674.098 704.01,-167.004 588.054,-45 571.377,-27.4526 548.672,-17.8805 524.915,-13.1135"/>
<polygon fill="none" stroke="black" points="525.498,-9.66254 515.048,-11.4085 524.306,-16.5603 525.498,-9.66254"/>
</g>
<!-- \\Hermes_Ajax -->
<g id="node32" class="node"><title>\\Hermes_Ajax</title>
<polygon fill="none" stroke="black" points="842.054,-790 751.054,-790 751.054,-754 842.054,-754 842.054,-790"/>
<text text-anchor="middle" x="796.554" y="-769.2" font-family="Courier,monospace" font-size="11.00">Hermes_Ajax</text>
</g>
</g>
</svg>
