<?xml version="1.0" encoding="UTF-8" standalone="no"?>
<!DOCTYPE svg PUBLIC "-//W3C//DTD SVG 1.1//EN"
 "http://www.w3.org/Graphics/SVG/1.1/DTD/svg11.dtd">
<!-- Generated by graphviz version 2.38.0 (20140413.2041)
 -->
<!-- Title: G Pages: 1 -->
<svg width="503pt" height="312pt"
 viewBox="0.00 0.00 503.00 312.00" xmlns="http://www.w3.org/2000/svg" xmlns:xlink="http://www.w3.org/1999/xlink">
<g id="graph0" class="graph" transform="scale(1 1) rotate(0) translate(4 308)">
<title>G</title>
<polygon fill="white" stroke="none" points="-4,4 -4,-308 499,-308 499,4 -4,4"/>
<g id="clust1" class="cluster"><title>cluster_Global</title>
<path fill="none" stroke="gray" d="M20,-8C20,-8 475,-8 475,-8 481,-8 487,-14 487,-20 487,-20 487,-284 487,-284 487,-290 481,-296 475,-296 475,-296 20,-296 20,-296 14,-296 8,-290 8,-284 8,-284 8,-20 8,-20 8,-14 14,-8 20,-8"/>
<text text-anchor="middle" x="247.5" y="-283.2" font-family="Times,serif" font-size="11.00" fill="gray">Global</text>
</g>
<!-- \\Horde_Queue_Storage -->
<g id="node1" class="node"><title>\\Horde_Queue_Storage</title>
<polygon fill="none" stroke="black" points="161,-160 16,-160 16,-124 161,-124 161,-160"/>
<text text-anchor="start" x="54.5" y="-145.2" font-family="Courier,monospace" font-size="11.00">«abstract»</text>
<text text-anchor="start" x="24" y="-133.2" font-family="Courier,monospace" font-size="11.00">Horde_Queue_Storage</text>
</g>
<!-- \\Horde_Queue_Runner -->
<g id="node2" class="node"><title>\\Horde_Queue_Runner</title>
<polygon fill="none" stroke="black" points="157.5,-268 19.5,-268 19.5,-232 157.5,-232 157.5,-268"/>
<text text-anchor="start" x="54.5" y="-253.2" font-family="Courier,monospace" font-size="11.00">«abstract»</text>
<text text-anchor="start" x="27.5" y="-241.2" font-family="Courier,monospace" font-size="11.00">Horde_Queue_Runner</text>
</g>
<!-- \\Horde_Queue_Runner_RequestShutdown -->
<g id="node3" class="node"><title>\\Horde_Queue_Runner_RequestShutdown</title>
<polygon fill="none" stroke="black" points="479,-268 233,-268 233,-232 479,-232 479,-268"/>
<text text-anchor="middle" x="356" y="-247.2" font-family="Courier,monospace" font-size="11.00">Horde_Queue_Runner_RequestShutdown</text>
</g>
<!-- \\Horde_Queue_Runner_RequestShutdown&#45;&gt;\\Horde_Queue_Runner -->
<g id="edge1" class="edge"><title>\\Horde_Queue_Runner_RequestShutdown&#45;&gt;\\Horde_Queue_Runner</title>
<path fill="none" stroke="black" d="M232.741,-250C210.62,-250 188.108,-250 167.683,-250"/>
<polygon fill="none" stroke="black" points="167.521,-246.5 157.521,-250 167.521,-253.5 167.521,-246.5"/>
</g>
<!-- \\Horde_Queue_Storage_Sqs -->
<g id="node4" class="node"><title>\\Horde_Queue_Storage_Sqs</title>
<polygon fill="none" stroke="black" points="442,-214 270,-214 270,-178 442,-178 442,-214"/>
<text text-anchor="middle" x="356" y="-193.2" font-family="Courier,monospace" font-size="11.00">Horde_Queue_Storage_Sqs</text>
</g>
<!-- \\Horde_Queue_Storage_Sqs&#45;&gt;\\Horde_Queue_Storage -->
<g id="edge2" class="edge"><title>\\Horde_Queue_Storage_Sqs&#45;&gt;\\Horde_Queue_Storage</title>
<path fill="none" stroke="black" d="M269.899,-178.691C238.283,-172.261 202.511,-164.985 171.205,-158.618"/>
<polygon fill="none" stroke="black" points="171.706,-155.148 161.209,-156.585 170.311,-162.008 171.706,-155.148"/>
</g>
<!-- \\Horde_Queue_Storage_Array -->
<g id="node5" class="node"><title>\\Horde_Queue_Storage_Array</title>
<polygon fill="none" stroke="black" points="448.5,-160 263.5,-160 263.5,-124 448.5,-124 448.5,-160"/>
<text text-anchor="middle" x="356" y="-139.2" font-family="Courier,monospace" font-size="11.00">Horde_Queue_Storage_Array</text>
</g>
<!-- \\Horde_Queue_Storage_Array&#45;&gt;\\Horde_Queue_Storage -->
<g id="edge3" class="edge"><title>\\Horde_Queue_Storage_Array&#45;&gt;\\Horde_Queue_Storage</title>
<path fill="none" stroke="black" d="M263.258,-142C233.359,-142 200.382,-142 171.264,-142"/>
<polygon fill="none" stroke="black" points="171.137,-138.5 161.137,-142 171.137,-145.5 171.137,-138.5"/>
</g>
<!-- \\Horde_Queue_Storage_Db -->
<g id="node6" class="node"><title>\\Horde_Queue_Storage_Db</title>
<polygon fill="none" stroke="black" points="438.5,-106 273.5,-106 273.5,-70 438.5,-70 438.5,-106"/>
<text text-anchor="middle" x="356" y="-85.2" font-family="Courier,monospace" font-size="11.00">Horde_Queue_Storage_Db</text>
</g>
<!-- \\Horde_Queue_Storage_Db&#45;&gt;\\Horde_Queue_Storage -->
<g id="edge4" class="edge"><title>\\Horde_Queue_Storage_Db&#45;&gt;\\Horde_Queue_Storage</title>
<path fill="none" stroke="black" d="M273.175,-104.642C240.726,-111.242 203.493,-118.815 171.069,-125.41"/>
<polygon fill="none" stroke="black" points="170.274,-122 161.172,-127.423 171.669,-128.859 170.274,-122"/>
</g>
<!-- \\Horde_Queue_Task -->
<g id="node7" class="node"><title>\\Horde_Queue_Task</title>
<polygon fill="none" stroke="black" points="418.5,-52 293.5,-52 293.5,-16 418.5,-16 418.5,-52"/>
<text text-anchor="middle" x="356" y="-31.2" font-family="Courier,monospace" font-size="11.00">Horde_Queue_Task</text>
</g>
</g>
</svg>
