<?xml version="1.0" encoding="UTF-8" standalone="no"?>
<!DOCTYPE svg PUBLIC "-//W3C//DTD SVG 1.1//EN"
 "http://www.w3.org/Graphics/SVG/1.1/DTD/svg11.dtd">
<!-- Generated by graphviz version 2.38.0 (20140413.2041)
 -->
<!-- Title: G Pages: 1 -->
<svg width="684pt" height="890pt"
 viewBox="0.00 0.00 683.87 890.00" xmlns="http://www.w3.org/2000/svg" xmlns:xlink="http://www.w3.org/1999/xlink">
<g id="graph0" class="graph" transform="scale(1 1) rotate(0) translate(4 886)">
<title>G</title>
<polygon fill="white" stroke="none" points="-4,4 -4,-886 679.867,-886 679.867,4 -4,4"/>
<g id="clust1" class="cluster"><title>cluster_Global</title>
<path fill="none" stroke="gray" d="M241.678,-190C241.678,-190 663.867,-190 663.867,-190 669.867,-190 675.867,-196 675.867,-202 675.867,-202 675.867,-862 675.867,-862 675.867,-868 669.867,-874 663.867,-874 663.867,-874 241.678,-874 241.678,-874 235.678,-874 229.678,-868 229.678,-862 229.678,-862 229.678,-202 229.678,-202 229.678,-196 235.678,-190 241.678,-190"/>
<text text-anchor="middle" x="452.772" y="-861.2" font-family="Times,serif" font-size="11.00" fill="gray">Global</text>
</g>
<g id="clust2" class="cluster"><title>cluster_\Horde</title>
<path fill="none" stroke="gray" d="M249.678,-198C249.678,-198 655.867,-198 655.867,-198 661.867,-198 667.867,-204 667.867,-210 667.867,-210 667.867,-834 667.867,-834 667.867,-840 661.867,-846 655.867,-846 655.867,-846 249.678,-846 249.678,-846 243.678,-846 237.678,-840 237.678,-834 237.678,-834 237.678,-210 237.678,-210 237.678,-204 243.678,-198 249.678,-198"/>
<text text-anchor="middle" x="452.772" y="-833.2" font-family="Times,serif" font-size="11.00" fill="gray">Horde</text>
</g>
<g id="clust3" class="cluster"><title>cluster_\Horde\Backup</title>
<path fill="none" stroke="gray" d="M257.678,-252C257.678,-252 647.867,-252 647.867,-252 653.867,-252 659.867,-258 659.867,-264 659.867,-264 659.867,-806 659.867,-806 659.867,-812 653.867,-818 647.867,-818 647.867,-818 257.678,-818 257.678,-818 251.678,-818 245.678,-812 245.678,-806 245.678,-806 245.678,-264 245.678,-264 245.678,-258 251.678,-252 257.678,-252"/>
<text text-anchor="middle" x="452.772" y="-805.2" font-family="Times,serif" font-size="11.00" fill="gray">Backup</text>
</g>
<g id="clust4" class="cluster"><title>cluster_\Horde\Backup\Reader</title>
<path fill="none" stroke="gray" d="M265.678,-628C265.678,-628 639.867,-628 639.867,-628 645.867,-628 651.867,-634 651.867,-640 651.867,-640 651.867,-778 651.867,-778 651.867,-784 645.867,-790 639.867,-790 639.867,-790 265.678,-790 265.678,-790 259.678,-790 253.678,-784 253.678,-778 253.678,-778 253.678,-640 253.678,-640 253.678,-634 259.678,-628 265.678,-628"/>
<text text-anchor="middle" x="452.772" y="-777.2" font-family="Times,serif" font-size="11.00" fill="gray">Reader</text>
</g>
<g id="clust5" class="cluster"><title>cluster_\Horde\Backup\Reader\CompressIterator</title>
<path fill="none" stroke="gray" d="M561.867,-636C561.867,-636 631.867,-636 631.867,-636 637.867,-636 643.867,-642 643.867,-648 643.867,-648 643.867,-750 643.867,-750 643.867,-756 637.867,-762 631.867,-762 631.867,-762 561.867,-762 561.867,-762 555.867,-762 549.867,-756 549.867,-750 549.867,-750 549.867,-648 549.867,-648 549.867,-642 555.867,-636 561.867,-636"/>
<text text-anchor="middle" x="596.867" y="-749.2" font-family="Times,serif" font-size="11.00" fill="gray">CompressIterator</text>
</g>
<!-- \\Horde\\Backup\\Reader\\CompressIterator\\Zip -->
<g id="node1" class="node"><title>\\Horde\\Backup\\Reader\\CompressIterator\\Zip</title>
<polygon fill="none" stroke="black" points="623.867,-734 569.867,-734 569.867,-698 623.867,-698 623.867,-734"/>
<text text-anchor="middle" x="596.867" y="-713.2" font-family="Courier,monospace" font-size="11.00">Zip</text>
</g>
<!-- \\Horde\\Backup\\Reader\\CompressIterator -->
<g id="node3" class="node"><title>\\Horde\\Backup\\Reader\\CompressIterator</title>
<polygon fill="none" stroke="black" points="386.678,-680 261.678,-680 261.678,-644 386.678,-644 386.678,-680"/>
<text text-anchor="start" x="290.178" y="-665.2" font-family="Courier,monospace" font-size="11.00">«abstract»</text>
<text text-anchor="start" x="269.678" y="-653.2" font-family="Courier,monospace" font-size="11.00">CompressIterator</text>
</g>
<!-- \\Horde\\Backup\\Reader\\CompressIterator\\Zip&#45;&gt;\\Horde\\Backup\\Reader\\CompressIterator -->
<g id="edge4" class="edge"><title>\\Horde\\Backup\\Reader\\CompressIterator\\Zip&#45;&gt;\\Horde\\Backup\\Reader\\CompressIterator</title>
<path fill="none" stroke="black" d="M569.419,-710.724C529.825,-702.825 453.73,-687.645 396.95,-676.318"/>
<polygon fill="none" stroke="black" points="397.435,-672.846 386.943,-674.322 396.065,-679.71 397.435,-672.846"/>
</g>
<!-- \\Horde\\Backup\\Reader\\CompressIterator\\Tar -->
<g id="node2" class="node"><title>\\Horde\\Backup\\Reader\\CompressIterator\\Tar</title>
<polygon fill="none" stroke="black" points="623.867,-680 569.867,-680 569.867,-644 623.867,-644 623.867,-680"/>
<text text-anchor="middle" x="596.867" y="-659.2" font-family="Courier,monospace" font-size="11.00">Tar</text>
</g>
<!-- \\Horde\\Backup\\Reader\\CompressIterator\\Tar&#45;&gt;\\Horde\\Backup\\Reader\\CompressIterator -->
<g id="edge5" class="edge"><title>\\Horde\\Backup\\Reader\\CompressIterator\\Tar&#45;&gt;\\Horde\\Backup\\Reader\\CompressIterator</title>
<path fill="none" stroke="black" d="M569.419,-662C529.825,-662 453.73,-662 396.95,-662"/>
<polygon fill="none" stroke="black" points="396.943,-658.5 386.943,-662 396.943,-665.5 396.943,-658.5"/>
</g>
<!-- \\IteratorIterator -->
<g id="node14" class="node"><title>\\IteratorIterator</title>
<ellipse fill="none" stroke="black" cx="64.9942" cy="-363" rx="64.9885" ry="18"/>
<text text-anchor="middle" x="64.9942" y="-359.3" font-family="Times,serif" font-size="14.00" fill="gray">\IteratorIterator</text>
</g>
<!-- \\Horde\\Backup\\Reader\\CompressIterator&#45;&gt;\\IteratorIterator -->
<g id="edge6" class="edge"><title>\\Horde\\Backup\\Reader\\CompressIterator&#45;&gt;\\IteratorIterator</title>
<path fill="none" stroke="black" d="M307.477,-643.746C263.417,-592.523 138.538,-447.34 87.8148,-388.368"/>
<polygon fill="none" stroke="black" points="90.3403,-385.937 81.1658,-380.638 85.0333,-390.502 90.3403,-385.937"/>
</g>
<!-- \\Horde\\Backup\\User -->
<g id="node4" class="node"><title>\\Horde\\Backup\\User</title>
<polygon fill="none" stroke="black" points="623.867,-620 569.867,-620 569.867,-584 623.867,-584 623.867,-620"/>
<text text-anchor="middle" x="596.867" y="-599.2" font-family="Courier,monospace" font-size="11.00">User</text>
</g>
<!-- \\Horde\\Backup\\Users -->
<g id="node5" class="node"><title>\\Horde\\Backup\\Users</title>
<polygon fill="none" stroke="black" points="623.867,-566 569.867,-566 569.867,-530 623.867,-530 623.867,-566"/>
<text text-anchor="middle" x="596.867" y="-545.2" font-family="Courier,monospace" font-size="11.00">Users</text>
</g>
<!-- \\Iterator -->
<g id="node12" class="node"><title>\\Iterator</title>
<ellipse fill="none" stroke="black" cx="324.178" cy="-164" rx="38.9931" ry="18"/>
<text text-anchor="middle" x="324.178" y="-160.3" font-family="Times,serif" font-size="14.00" fill="gray">\Iterator</text>
</g>
<!-- \\Horde\\Backup\\Users&#45;&gt;\\Iterator -->
<g id="edge1" class="edge"><title>\\Horde\\Backup\\Users&#45;&gt;\\Iterator</title>
<path fill="none" stroke="black" stroke-dasharray="1,5" d="M569.517,-535.427C562.652,-531.409 555.585,-526.543 549.867,-521 443.56,-417.936 365.021,-254.988 336.698,-191.033"/>
<polygon fill="none" stroke="black" points="339.803,-189.4 332.587,-181.643 333.391,-192.207 339.803,-189.4"/>
</g>
<!-- \\Horde\\Backup\\Exception -->
<g id="node6" class="node"><title>\\Horde\\Backup\\Exception</title>
<polygon fill="none" stroke="black" points="635.367,-512 558.367,-512 558.367,-476 635.367,-476 635.367,-512"/>
<text text-anchor="middle" x="596.867" y="-491.2" font-family="Courier,monospace" font-size="11.00">Exception</text>
</g>
<!-- \\Horde_Exception_Wrapped -->
<g id="node13" class="node"><title>\\Horde_Exception_Wrapped</title>
<ellipse fill="none" stroke="black" cx="324.178" cy="-110" rx="112.38" ry="18"/>
<text text-anchor="middle" x="324.178" y="-106.3" font-family="Times,serif" font-size="14.00" fill="gray">\Horde_Exception_Wrapped</text>
</g>
<!-- \\Horde\\Backup\\Exception&#45;&gt;\\Horde_Exception_Wrapped -->
<g id="edge2" class="edge"><title>\\Horde\\Backup\\Exception&#45;&gt;\\Horde_Exception_Wrapped</title>
<path fill="none" stroke="black" d="M558.695,-475.679C555.427,-473.079 552.403,-470.189 549.867,-467 454.177,-346.706 559.562,-240.991 446.367,-137 440.801,-131.887 434.486,-127.668 427.733,-124.194"/>
<polygon fill="none" stroke="black" points="428.832,-120.849 418.28,-119.905 425.94,-127.224 428.832,-120.849"/>
</g>
<!-- \\Horde\\Backup\\Writer -->
<g id="node7" class="node"><title>\\Horde\\Backup\\Writer</title>
<polygon fill="none" stroke="black" points="625.367,-458 568.367,-458 568.367,-422 625.367,-422 625.367,-458"/>
<text text-anchor="middle" x="596.867" y="-437.2" font-family="Courier,monospace" font-size="11.00">Writer</text>
</g>
<!-- \\Horde\\Backup\\Collection -->
<g id="node8" class="node"><title>\\Horde\\Backup\\Collection</title>
<polygon fill="none" stroke="black" points="638.867,-404 554.867,-404 554.867,-368 638.867,-368 638.867,-404"/>
<text text-anchor="middle" x="596.867" y="-383.2" font-family="Courier,monospace" font-size="11.00">Collection</text>
</g>
<!-- \\Horde\\Backup\\Collection&#45;&gt;\\IteratorIterator -->
<g id="edge3" class="edge"><title>\\Horde\\Backup\\Collection&#45;&gt;\\IteratorIterator</title>
<path fill="none" stroke="black" d="M559.324,-367.882C555.851,-365.22 552.609,-362.26 549.867,-359 465.53,-258.749 554.046,-157.622 446.367,-83 401.731,-52.0674 248.019,-54.1841 201.988,-83 111.432,-139.69 79.6371,-275.805 69.8517,-334.866"/>
<polygon fill="none" stroke="black" points="66.3603,-334.539 68.2715,-344.96 73.2761,-335.622 66.3603,-334.539"/>
</g>
<!-- \\Horde\\Backup\\Reader -->
<g id="node9" class="node"><title>\\Horde\\Backup\\Reader</title>
<polygon fill="none" stroke="black" points="625.367,-350 568.367,-350 568.367,-314 625.367,-314 625.367,-350"/>
<text text-anchor="middle" x="596.867" y="-329.2" font-family="Courier,monospace" font-size="11.00">Reader</text>
</g>
<!-- \\Horde\\Backup\\Translation -->
<g id="node10" class="node"><title>\\Horde\\Backup\\Translation</title>
<polygon fill="none" stroke="black" points="642.367,-296 551.367,-296 551.367,-260 642.367,-260 642.367,-296"/>
<text text-anchor="middle" x="596.867" y="-275.2" font-family="Courier,monospace" font-size="11.00">Translation</text>
</g>
<!-- \\Horde_Translation_Autodetect -->
<g id="node15" class="node"><title>\\Horde_Translation_Autodetect</title>
<ellipse fill="none" stroke="black" cx="324.178" cy="-18" rx="122.379" ry="18"/>
<text text-anchor="middle" x="324.178" y="-14.3" font-family="Times,serif" font-size="14.00" fill="gray">\Horde_Translation_Autodetect</text>
</g>
<!-- \\Horde\\Backup\\Translation&#45;&gt;\\Horde_Translation_Autodetect -->
<g id="edge7" class="edge"><title>\\Horde\\Backup\\Translation&#45;&gt;\\Horde_Translation_Autodetect</title>
<path fill="none" stroke="black" d="M554.313,-259.878C552.748,-258.655 551.257,-257.364 549.867,-256 476.713,-184.258 525.93,-114.561 446.367,-50 438.573,-43.6755 429.653,-38.5913 420.266,-34.5056"/>
<polygon fill="none" stroke="black" points="421.335,-31.1646 410.749,-30.7439 418.762,-37.6746 421.335,-31.1646"/>
</g>
<!-- \\Horde\\Backup -->
<g id="node11" class="node"><title>\\Horde\\Backup</title>
<polygon fill="none" stroke="black" points="625.367,-242 568.367,-242 568.367,-206 625.367,-206 625.367,-242"/>
<text text-anchor="middle" x="596.867" y="-221.2" font-family="Courier,monospace" font-size="11.00">Backup</text>
</g>
</g>
</svg>
