<?xml version="1.0" encoding="UTF-8" standalone="no"?>
<!DOCTYPE svg PUBLIC "-//W3C//DTD SVG 1.1//EN"
 "http://www.w3.org/Graphics/SVG/1.1/DTD/svg11.dtd">
<!-- Generated by graphviz version 2.38.0 (20140413.2041)
 -->
<!-- Title: G Pages: 1 -->
<svg width="543pt" height="510pt"
 viewBox="0.00 0.00 543.00 510.00" xmlns="http://www.w3.org/2000/svg" xmlns:xlink="http://www.w3.org/1999/xlink">
<g id="graph0" class="graph" transform="scale(1 1) rotate(0) translate(4 506)">
<title>G</title>
<polygon fill="white" stroke="none" points="-4,4 -4,-506 539,-506 539,4 -4,4"/>
<g id="clust1" class="cluster"><title>cluster_Global</title>
<path fill="none" stroke="gray" d="M20,-44C20,-44 515,-44 515,-44 521,-44 527,-50 527,-56 527,-56 527,-482 527,-482 527,-488 521,-494 515,-494 515,-494 20,-494 20,-494 14,-494 8,-488 8,-482 8,-482 8,-56 8,-56 8,-50 14,-44 20,-44"/>
<text text-anchor="middle" x="267.5" y="-481.2" font-family="Times,serif" font-size="11.00" fill="gray">Global</text>
</g>
<!-- \\Horde_Injector_TopLevel -->
<g id="node1" class="node"><title>\\Horde_Injector_TopLevel</title>
<polygon fill="none" stroke="black" points="468.5,-466 296.5,-466 296.5,-430 468.5,-430 468.5,-466"/>
<text text-anchor="middle" x="382.5" y="-445.2" font-family="Courier,monospace" font-size="11.00">Horde_Injector_TopLevel</text>
</g>
<!-- \\Horde_Injector_Scope -->
<g id="node10" class="node"><title>\\Horde_Injector_Scope</title>
<polygon fill="none" stroke="black" points="171,-412 19,-412 19,-376 171,-376 171,-412"/>
<text text-anchor="middle" x="95" y="-391.2" font-family="Courier,monospace" font-size="11.00">Horde_Injector_Scope</text>
</g>
<!-- \\Horde_Injector_TopLevel&#45;&gt;\\Horde_Injector_Scope -->
<g id="edge1" class="edge"><title>\\Horde_Injector_TopLevel&#45;&gt;\\Horde_Injector_Scope</title>
<path fill="none" stroke="black" stroke-dasharray="1,5" d="M296.227,-431.871C259.881,-424.997 217.567,-416.993 181.226,-410.12"/>
<polygon fill="none" stroke="black" points="181.621,-406.632 171.144,-408.213 180.32,-413.511 181.621,-406.632"/>
</g>
<!-- \\Horde_Injector_DependencyFinder -->
<g id="node2" class="node"><title>\\Horde_Injector_DependencyFinder</title>
<polygon fill="none" stroke="black" points="495.5,-412 269.5,-412 269.5,-376 495.5,-376 495.5,-412"/>
<text text-anchor="middle" x="382.5" y="-391.2" font-family="Courier,monospace" font-size="11.00">Horde_Injector_DependencyFinder</text>
</g>
<!-- \\Horde_Injector_Exception -->
<g id="node3" class="node"><title>\\Horde_Injector_Exception</title>
<polygon fill="none" stroke="black" points="472,-88 293,-88 293,-52 472,-52 472,-88"/>
<text text-anchor="middle" x="382.5" y="-67.2" font-family="Courier,monospace" font-size="11.00">Horde_Injector_Exception</text>
</g>
<!-- \\Horde_Exception -->
<g id="node11" class="node"><title>\\Horde_Exception</title>
<ellipse fill="none" stroke="black" cx="95" cy="-18" rx="75.2868" ry="18"/>
<text text-anchor="middle" x="95" y="-14.3" font-family="Times,serif" font-size="14.00" fill="gray">\Horde_Exception</text>
</g>
<!-- \\Horde_Injector_Exception&#45;&gt;\\Horde_Exception -->
<g id="edge2" class="edge"><title>\\Horde_Injector_Exception&#45;&gt;\\Horde_Exception</title>
<path fill="none" stroke="black" d="M292.731,-53.8319C251.709,-46.3604 203.713,-37.6185 165.398,-30.6399"/>
<polygon fill="none" stroke="black" points="165.835,-27.162 155.37,-28.8134 164.581,-34.0487 165.835,-27.162"/>
</g>
<!-- \\Horde_Injector_Binder_Closure -->
<g id="node4" class="node"><title>\\Horde_Injector_Binder_Closure</title>
<polygon fill="none" stroke="black" points="488.5,-304 276.5,-304 276.5,-268 488.5,-268 488.5,-304"/>
<text text-anchor="middle" x="382.5" y="-283.2" font-family="Courier,monospace" font-size="11.00">Horde_Injector_Binder_Closure</text>
</g>
<!-- \\Horde_Injector_Binder -->
<g id="node9" class="node"><title>\\Horde_Injector_Binder</title>
<polygon fill="none" stroke="black" points="174,-223 16,-223 16,-187 174,-187 174,-223"/>
<text text-anchor="middle" x="95" y="-202.2" font-family="Courier,monospace" font-size="11.00">Horde_Injector_Binder</text>
</g>
<!-- \\Horde_Injector_Binder_Closure&#45;&gt;\\Horde_Injector_Binder -->
<g id="edge3" class="edge"><title>\\Horde_Injector_Binder_Closure&#45;&gt;\\Horde_Injector_Binder</title>
<path fill="none" stroke="black" stroke-dasharray="1,5" d="M281.935,-267.927C269.766,-265.199 257.555,-262.212 246,-259 213.797,-250.049 178.597,-237.526 150.394,-226.794"/>
<polygon fill="none" stroke="black" points="151.316,-223.399 140.726,-223.081 148.807,-229.933 151.316,-223.399"/>
</g>
<!-- \\Horde_Injector_Binder_Factory -->
<g id="node5" class="node"><title>\\Horde_Injector_Binder_Factory</title>
<polygon fill="none" stroke="black" points="488.5,-250 276.5,-250 276.5,-214 488.5,-214 488.5,-250"/>
<text text-anchor="middle" x="382.5" y="-229.2" font-family="Courier,monospace" font-size="11.00">Horde_Injector_Binder_Factory</text>
</g>
<!-- \\Horde_Injector_Binder_Factory&#45;&gt;\\Horde_Injector_Binder -->
<g id="edge4" class="edge"><title>\\Horde_Injector_Binder_Factory&#45;&gt;\\Horde_Injector_Binder</title>
<path fill="none" stroke="black" stroke-dasharray="1,5" d="M276.407,-222.061C246.113,-219.196 213.382,-216.101 184.223,-213.343"/>
<polygon fill="none" stroke="black" points="184.353,-209.84 174.068,-212.383 183.694,-216.809 184.353,-209.84"/>
</g>
<!-- \\Horde_Injector_Binder_Implementation -->
<g id="node6" class="node"><title>\\Horde_Injector_Binder_Implementation</title>
<polygon fill="none" stroke="black" points="512.5,-196 252.5,-196 252.5,-160 512.5,-160 512.5,-196"/>
<text text-anchor="middle" x="382.5" y="-175.2" font-family="Courier,monospace" font-size="11.00">Horde_Injector_Binder_Implementation</text>
</g>
<!-- \\Horde_Injector_Binder_Implementation&#45;&gt;\\Horde_Injector_Binder -->
<g id="edge5" class="edge"><title>\\Horde_Injector_Binder_Implementation&#45;&gt;\\Horde_Injector_Binder</title>
<path fill="none" stroke="black" stroke-dasharray="1,5" d="M252.115,-190.236C229.189,-192.404 205.799,-194.616 184.339,-196.646"/>
<polygon fill="none" stroke="black" points="183.923,-193.169 174.297,-197.595 184.582,-200.138 183.923,-193.169"/>
</g>
<!-- \\Horde_Injector_Binder_AnnotatedSetters -->
<g id="node7" class="node"><title>\\Horde_Injector_Binder_AnnotatedSetters</title>
<polygon fill="none" stroke="black" points="519,-142 246,-142 246,-106 519,-106 519,-142"/>
<text text-anchor="middle" x="382.5" y="-121.2" font-family="Courier,monospace" font-size="11.00">Horde_Injector_Binder_AnnotatedSetters</text>
</g>
<!-- \\Horde_Injector_Binder_AnnotatedSetters&#45;&gt;\\Horde_Injector_Binder -->
<g id="edge6" class="edge"><title>\\Horde_Injector_Binder_AnnotatedSetters&#45;&gt;\\Horde_Injector_Binder</title>
<path fill="none" stroke="black" stroke-dasharray="1,5" d="M281.935,-142.073C269.766,-144.801 257.555,-147.788 246,-151 213.797,-159.951 178.597,-172.474 150.394,-183.206"/>
<polygon fill="none" stroke="black" points="148.807,-180.067 140.726,-186.919 151.316,-186.601 148.807,-180.067"/>
</g>
<!-- \\Horde_Injector -->
<g id="node8" class="node"><title>\\Horde_Injector</title>
<polygon fill="none" stroke="black" points="438,-358 327,-358 327,-322 438,-322 438,-358"/>
<text text-anchor="middle" x="382.5" y="-337.2" font-family="Courier,monospace" font-size="11.00">Horde_Injector</text>
</g>
<!-- \\Horde_Injector&#45;&gt;\\Horde_Injector_Scope -->
<g id="edge7" class="edge"><title>\\Horde_Injector&#45;&gt;\\Horde_Injector_Scope</title>
<path fill="none" stroke="black" stroke-dasharray="1,5" d="M326.791,-350.348C285.523,-358.153 228.152,-369.005 180.935,-377.935"/>
<polygon fill="none" stroke="black" points="180.198,-374.512 171.023,-379.81 181.499,-381.391 180.198,-374.512"/>
</g>
</g>
</svg>
