<?xml version="1.0" encoding="UTF-8" standalone="no"?>
<!DOCTYPE svg PUBLIC "-//W3C//DTD SVG 1.1//EN"
 "http://www.w3.org/Graphics/SVG/1.1/DTD/svg11.dtd">
<!-- Generated by graphviz version 2.38.0 (20140413.2041)
 -->
<!-- Title: G Pages: 1 -->
<svg width="827pt" height="348pt"
 viewBox="0.00 0.00 826.88 348.00" xmlns="http://www.w3.org/2000/svg" xmlns:xlink="http://www.w3.org/1999/xlink">
<g id="graph0" class="graph" transform="scale(1 1) rotate(0) translate(4 344)">
<title>G</title>
<polygon fill="white" stroke="none" points="-4,4 -4,-344 822.88,-344 822.88,4 -4,4"/>
<g id="clust1" class="cluster"><title>cluster_Global</title>
<path fill="none" stroke="gray" d="M20,-44C20,-44 798.88,-44 798.88,-44 804.88,-44 810.88,-50 810.88,-56 810.88,-56 810.88,-320 810.88,-320 810.88,-326 804.88,-332 798.88,-332 798.88,-332 20,-332 20,-332 14,-332 8,-326 8,-320 8,-320 8,-56 8,-56 8,-50 14,-44 20,-44"/>
<text text-anchor="middle" x="409.44" y="-319.2" font-family="Times,serif" font-size="11.00" fill="gray">Global</text>
</g>
<!-- \\Horde_JavascriptMinify -->
<g id="node1" class="node"><title>\\Horde_JavascriptMinify</title>
<polygon fill="none" stroke="black" points="181,-196 16,-196 16,-160 181,-160 181,-196"/>
<text text-anchor="start" x="64.5" y="-181.2" font-family="Courier,monospace" font-size="11.00">«abstract»</text>
<text text-anchor="start" x="24" y="-169.2" font-family="Courier,monospace" font-size="11.00">Horde_JavascriptMinify</text>
</g>
<!-- \\Horde_JavascriptMinify_Util_Cmdline -->
<g id="node2" class="node"><title>\\Horde_JavascriptMinify_Util_Cmdline</title>
<polygon fill="none" stroke="black" points="802.88,-304 549.88,-304 549.88,-268 802.88,-268 802.88,-304"/>
<text text-anchor="middle" x="676.38" y="-283.2" font-family="Courier,monospace" font-size="11.00">Horde_JavascriptMinify_Util_Cmdline</text>
</g>
<!-- \\Horde_JavascriptMinify_Null -->
<g id="node3" class="node"><title>\\Horde_JavascriptMinify_Null</title>
<polygon fill="none" stroke="black" points="464.94,-196 265.94,-196 265.94,-160 464.94,-160 464.94,-196"/>
<text text-anchor="middle" x="365.44" y="-175.2" font-family="Courier,monospace" font-size="11.00">Horde_JavascriptMinify_Null</text>
</g>
<!-- \\Horde_JavascriptMinify_Null&#45;&gt;\\Horde_JavascriptMinify -->
<g id="edge1" class="edge"><title>\\Horde_JavascriptMinify_Null&#45;&gt;\\Horde_JavascriptMinify</title>
<path fill="none" stroke="black" d="M265.786,-178C241.456,-178 215.495,-178 191.494,-178"/>
<polygon fill="none" stroke="black" points="191.339,-174.5 181.339,-178 191.339,-181.5 191.339,-174.5"/>
</g>
<!-- \\Horde_JavascriptMinify_Exception -->
<g id="node4" class="node"><title>\\Horde_JavascriptMinify_Exception</title>
<polygon fill="none" stroke="black" points="792.88,-88 559.88,-88 559.88,-52 792.88,-52 792.88,-88"/>
<text text-anchor="middle" x="676.38" y="-67.2" font-family="Courier,monospace" font-size="11.00">Horde_JavascriptMinify_Exception</text>
</g>
<!-- \\Horde_Exception_Wrapped -->
<g id="node8" class="node"><title>\\Horde_Exception_Wrapped</title>
<ellipse fill="none" stroke="black" cx="365.44" cy="-18" rx="112.38" ry="18"/>
<text text-anchor="middle" x="365.44" y="-14.3" font-family="Times,serif" font-size="14.00" fill="gray">\Horde_Exception_Wrapped</text>
</g>
<!-- \\Horde_JavascriptMinify_Exception&#45;&gt;\\Horde_Exception_Wrapped -->
<g id="edge2" class="edge"><title>\\Horde_JavascriptMinify_Exception&#45;&gt;\\Horde_Exception_Wrapped</title>
<path fill="none" stroke="black" d="M568.195,-51.9589C530.76,-45.6578 489.224,-38.6667 453.617,-32.6735"/>
<polygon fill="none" stroke="black" points="454.182,-29.2194 443.74,-31.0109 453.02,-36.1223 454.182,-29.2194"/>
</g>
<!-- \\Horde_JavascriptMinify_Closure -->
<g id="node5" class="node"><title>\\Horde_JavascriptMinify_Closure</title>
<polygon fill="none" stroke="black" points="785.88,-250 566.88,-250 566.88,-214 785.88,-214 785.88,-250"/>
<text text-anchor="middle" x="676.38" y="-229.2" font-family="Courier,monospace" font-size="11.00">Horde_JavascriptMinify_Closure</text>
</g>
<!-- \\Horde_JavascriptMinify_Closure&#45;&gt;\\Horde_JavascriptMinify_Null -->
<g id="edge3" class="edge"><title>\\Horde_JavascriptMinify_Closure&#45;&gt;\\Horde_JavascriptMinify_Null</title>
<path fill="none" stroke="black" d="M572.078,-213.944C540.976,-208.507 506.753,-202.525 475.302,-197.028"/>
<polygon fill="none" stroke="black" points="475.648,-193.536 465.195,-195.261 474.443,-200.431 475.648,-193.536"/>
</g>
<!-- \\Horde_JavascriptMinify_Yui -->
<g id="node6" class="node"><title>\\Horde_JavascriptMinify_Yui</title>
<polygon fill="none" stroke="black" points="772.38,-196 580.38,-196 580.38,-160 772.38,-160 772.38,-196"/>
<text text-anchor="middle" x="676.38" y="-175.2" font-family="Courier,monospace" font-size="11.00">Horde_JavascriptMinify_Yui</text>
</g>
<!-- \\Horde_JavascriptMinify_Yui&#45;&gt;\\Horde_JavascriptMinify_Null -->
<g id="edge4" class="edge"><title>\\Horde_JavascriptMinify_Yui&#45;&gt;\\Horde_JavascriptMinify_Null</title>
<path fill="none" stroke="black" d="M580.167,-178C546.926,-178 509.37,-178 475.116,-178"/>
<polygon fill="none" stroke="black" points="475.077,-174.5 465.077,-178 475.076,-181.5 475.077,-174.5"/>
</g>
<!-- \\Horde_JavascriptMinify_Uglifyjs -->
<g id="node7" class="node"><title>\\Horde_JavascriptMinify_Uglifyjs</title>
<polygon fill="none" stroke="black" points="789.38,-142 563.38,-142 563.38,-106 789.38,-106 789.38,-142"/>
<text text-anchor="middle" x="676.38" y="-121.2" font-family="Courier,monospace" font-size="11.00">Horde_JavascriptMinify_Uglifyjs</text>
</g>
<!-- \\Horde_JavascriptMinify_Uglifyjs&#45;&gt;\\Horde_JavascriptMinify_Null -->
<g id="edge5" class="edge"><title>\\Horde_JavascriptMinify_Uglifyjs&#45;&gt;\\Horde_JavascriptMinify_Null</title>
<path fill="none" stroke="black" d="M572.078,-142.056C540.976,-147.493 506.753,-153.475 475.302,-158.972"/>
<polygon fill="none" stroke="black" points="474.443,-155.569 465.195,-160.739 475.648,-162.464 474.443,-155.569"/>
</g>
</g>
</svg>
