<?xml version="1.0" encoding="UTF-8" standalone="no"?>
<!DOCTYPE svg PUBLIC "-//W3C//DTD SVG 1.1//EN"
 "http://www.w3.org/Graphics/SVG/1.1/DTD/svg11.dtd">
<!-- Generated by graphviz version 2.38.0 (20140413.2041)
 -->
<!-- Title: G Pages: 1 -->
<svg width="529pt" height="672pt"
 viewBox="0.00 0.00 529.28 672.00" xmlns="http://www.w3.org/2000/svg" xmlns:xlink="http://www.w3.org/1999/xlink">
<g id="graph0" class="graph" transform="scale(1 1) rotate(0) translate(4 668)">
<title>G</title>
<polygon fill="white" stroke="none" points="-4,4 -4,-668 525.277,-668 525.277,4 -4,4"/>
<g id="clust1" class="cluster"><title>cluster_Global</title>
<path fill="none" stroke="gray" d="M82.6384,-260C82.6384,-260 501.277,-260 501.277,-260 507.277,-260 513.277,-266 513.277,-272 513.277,-272 513.277,-644 513.277,-644 513.277,-650 507.277,-656 501.277,-656 501.277,-656 82.6384,-656 82.6384,-656 76.6384,-656 70.6384,-650 70.6384,-644 70.6384,-644 70.6384,-272 70.6384,-272 70.6384,-266 76.6384,-260 82.6384,-260"/>
<text text-anchor="middle" x="291.958" y="-643.2" font-family="Times,serif" font-size="11.00" fill="gray">Global</text>
</g>
<!-- \\Horde_History -->
<g id="node1" class="node"><title>\\Horde_History</title>
<polygon fill="none" stroke="black" points="182.638,-520 78.6384,-520 78.6384,-484 182.638,-484 182.638,-520"/>
<text text-anchor="start" x="96.6384" y="-505.2" font-family="Courier,monospace" font-size="11.00">«abstract»</text>
<text text-anchor="start" x="86.6384" y="-493.2" font-family="Courier,monospace" font-size="11.00">Horde_History</text>
</g>
<!-- \\Horde_History_Null -->
<g id="node2" class="node"><title>\\Horde_History_Null</title>
<polygon fill="none" stroke="black" points="488.277,-574 350.277,-574 350.277,-538 488.277,-538 488.277,-574"/>
<text text-anchor="middle" x="419.277" y="-553.2" font-family="Courier,monospace" font-size="11.00">Horde_History_Null</text>
</g>
<!-- \\Horde_History_Null&#45;&gt;\\Horde_History -->
<g id="edge1" class="edge"><title>\\Horde_History_Null&#45;&gt;\\Horde_History</title>
<path fill="none" stroke="black" d="M349.984,-543.134C302.16,-534.125 238.815,-522.191 192.676,-513.499"/>
<polygon fill="none" stroke="black" points="193.285,-510.052 182.81,-511.64 191.989,-516.931 193.285,-510.052"/>
</g>
<!-- \\Horde_History_Composite -->
<g id="node3" class="node"><title>\\Horde_History_Composite</title>
<polygon fill="none" stroke="black" points="505.277,-520 333.277,-520 333.277,-484 505.277,-484 505.277,-520"/>
<text text-anchor="middle" x="419.277" y="-499.2" font-family="Courier,monospace" font-size="11.00">Horde_History_Composite</text>
</g>
<!-- \\Horde_History_Composite&#45;&gt;\\Horde_History -->
<g id="edge2" class="edge"><title>\\Horde_History_Composite&#45;&gt;\\Horde_History</title>
<path fill="none" stroke="black" d="M333.052,-502C288.021,-502 233.778,-502 192.934,-502"/>
<polygon fill="none" stroke="black" points="192.853,-498.5 182.853,-502 192.853,-505.5 192.853,-498.5"/>
</g>
<!-- \\Horde_History_Exception -->
<g id="node4" class="node"><title>\\Horde_History_Exception</title>
<polygon fill="none" stroke="black" points="505.277,-358 333.277,-358 333.277,-322 505.277,-322 505.277,-358"/>
<text text-anchor="middle" x="419.277" y="-337.2" font-family="Courier,monospace" font-size="11.00">Horde_History_Exception</text>
</g>
<!-- \\Horde_Exception_Wrapped -->
<g id="node9" class="node"><title>\\Horde_Exception_Wrapped</title>
<ellipse fill="none" stroke="black" cx="130.638" cy="-180" rx="112.38" ry="18"/>
<text text-anchor="middle" x="130.638" y="-176.3" font-family="Times,serif" font-size="14.00" fill="gray">\Horde_Exception_Wrapped</text>
</g>
<!-- \\Horde_History_Exception&#45;&gt;\\Horde_Exception_Wrapped -->
<g id="edge3" class="edge"><title>\\Horde_History_Exception&#45;&gt;\\Horde_Exception_Wrapped</title>
<path fill="none" stroke="black" d="M347.746,-321.835C342.637,-319.262 337.745,-316.333 333.277,-313 287.625,-278.95 308.608,-238.673 261.277,-207 252.894,-201.39 243.576,-196.91 233.891,-193.338"/>
<polygon fill="none" stroke="black" points="234.698,-189.917 224.104,-190.059 232.475,-196.555 234.698,-189.917"/>
</g>
<!-- \\Horde_History_Log -->
<g id="node5" class="node"><title>\\Horde_History_Log</title>
<polygon fill="none" stroke="black" points="484.777,-304 353.777,-304 353.777,-268 484.777,-268 484.777,-304"/>
<text text-anchor="middle" x="419.277" y="-283.2" font-family="Courier,monospace" font-size="11.00">Horde_History_Log</text>
</g>
<!-- \\IteratorAggregate -->
<g id="node10" class="node"><title>\\IteratorAggregate</title>
<ellipse fill="none" stroke="black" cx="130.638" cy="-126" rx="75.2868" ry="18"/>
<text text-anchor="middle" x="130.638" y="-122.3" font-family="Times,serif" font-size="14.00" fill="gray">\IteratorAggregate</text>
</g>
<!-- \\Horde_History_Log&#45;&gt;\\IteratorAggregate -->
<g id="edge4" class="edge"><title>\\Horde_History_Log&#45;&gt;\\IteratorAggregate</title>
<path fill="none" stroke="black" stroke-dasharray="1,5" d="M402.451,-267.673C376.21,-238.536 320.667,-181.988 261.277,-153 245.302,-145.203 227.15,-139.652 209.594,-135.703"/>
<polygon fill="none" stroke="black" points="209.851,-132.181 199.346,-133.558 208.417,-139.033 209.851,-132.181"/>
</g>
<!-- \\ArrayAccess -->
<g id="node11" class="node"><title>\\ArrayAccess</title>
<ellipse fill="none" stroke="black" cx="130.638" cy="-72" rx="58.4896" ry="18"/>
<text text-anchor="middle" x="130.638" y="-68.3" font-family="Times,serif" font-size="14.00" fill="gray">\ArrayAccess</text>
</g>
<!-- \\Horde_History_Log&#45;&gt;\\ArrayAccess -->
<g id="edge5" class="edge"><title>\\Horde_History_Log&#45;&gt;\\ArrayAccess</title>
<path fill="none" stroke="black" stroke-dasharray="1,5" d="M408.685,-267.898C387.562,-229.935 333.134,-141.962 261.277,-99 242.369,-87.6953 219.452,-81.0706 198.177,-77.2063"/>
<polygon fill="none" stroke="black" points="198.65,-73.7371 188.215,-75.5703 197.516,-80.6446 198.65,-73.7371"/>
</g>
<!-- \\Countable -->
<g id="node12" class="node"><title>\\Countable</title>
<ellipse fill="none" stroke="black" cx="130.638" cy="-18" rx="49.2915" ry="18"/>
<text text-anchor="middle" x="130.638" y="-14.3" font-family="Times,serif" font-size="14.00" fill="gray">\Countable</text>
</g>
<!-- \\Horde_History_Log&#45;&gt;\\Countable -->
<g id="edge6" class="edge"><title>\\Horde_History_Log&#45;&gt;\\Countable</title>
<path fill="none" stroke="black" stroke-dasharray="1,5" d="M412.13,-267.992C395.631,-222.55 345.801,-102.748 261.277,-45 240.515,-30.8152 213.83,-23.8227 190.073,-20.4659"/>
<polygon fill="none" stroke="black" points="190.448,-16.9859 180.096,-19.2395 189.594,-23.9336 190.448,-16.9859"/>
</g>
<!-- \\Horde_History_Sql -->
<g id="node6" class="node"><title>\\Horde_History_Sql</title>
<polygon fill="none" stroke="black" points="484.777,-466 353.777,-466 353.777,-430 484.777,-430 484.777,-466"/>
<text text-anchor="middle" x="419.277" y="-445.2" font-family="Courier,monospace" font-size="11.00">Horde_History_Sql</text>
</g>
<!-- \\Horde_History_Sql&#45;&gt;\\Horde_History -->
<g id="edge7" class="edge"><title>\\Horde_History_Sql&#45;&gt;\\Horde_History</title>
<path fill="none" stroke="black" d="M353.592,-460.186C305.443,-469.257 240.143,-481.559 192.847,-490.469"/>
<polygon fill="none" stroke="black" points="191.92,-487.082 182.741,-492.373 193.216,-493.961 191.92,-487.082"/>
</g>
<!-- \\Horde_History_Mongo -->
<g id="node7" class="node"><title>\\Horde_History_Mongo</title>
<polygon fill="none" stroke="black" points="491.777,-412 346.777,-412 346.777,-376 491.777,-376 491.777,-412"/>
<text text-anchor="middle" x="419.277" y="-391.2" font-family="Courier,monospace" font-size="11.00">Horde_History_Mongo</text>
</g>
<!-- \\Horde_History_Mongo&#45;&gt;\\Horde_History -->
<g id="edge8" class="edge"><title>\\Horde_History_Mongo&#45;&gt;\\Horde_History</title>
<path fill="none" stroke="black" d="M359.557,-412.023C350.714,-414.919 341.729,-417.965 333.277,-421 281.835,-439.474 224.034,-462.982 183.55,-479.908"/>
<polygon fill="none" stroke="black" points="182.028,-476.751 174.16,-483.846 184.735,-483.207 182.028,-476.751"/>
</g>
<!-- \\Horde_Mongo_Collection_Index -->
<g id="node13" class="node"><title>\\Horde_Mongo_Collection_Index</title>
<ellipse fill="none" stroke="black" cx="130.638" cy="-234" rx="130.777" ry="18"/>
<text text-anchor="middle" x="130.638" y="-230.3" font-family="Times,serif" font-size="14.00" fill="gray">\Horde_Mongo_Collection_Index</text>
</g>
<!-- \\Horde_History_Mongo&#45;&gt;\\Horde_Mongo_Collection_Index -->
<g id="edge9" class="edge"><title>\\Horde_History_Mongo&#45;&gt;\\Horde_Mongo_Collection_Index</title>
<path fill="none" stroke="black" stroke-dasharray="1,5" d="M347.667,-375.94C342.576,-373.343 337.709,-370.38 333.277,-367 286.517,-331.345 310.407,-288.311 261.277,-256 256.86,-253.095 252.182,-250.536 247.325,-248.284"/>
<polygon fill="none" stroke="black" points="248.365,-244.926 237.788,-244.32 245.679,-251.39 248.365,-244.926"/>
</g>
<!-- \\Horde_History_Mock -->
<g id="node8" class="node"><title>\\Horde_History_Mock</title>
<polygon fill="none" stroke="black" points="488.277,-628 350.277,-628 350.277,-592 488.277,-592 488.277,-628"/>
<text text-anchor="middle" x="419.277" y="-607.2" font-family="Courier,monospace" font-size="11.00">Horde_History_Mock</text>
</g>
<!-- \\Horde_History_Mock&#45;&gt;\\Horde_History -->
<g id="edge10" class="edge"><title>\\Horde_History_Mock&#45;&gt;\\Horde_History</title>
<path fill="none" stroke="black" d="M359.557,-591.977C350.714,-589.081 341.729,-586.035 333.277,-583 281.835,-564.526 224.034,-541.018 183.55,-524.092"/>
<polygon fill="none" stroke="black" points="184.735,-520.793 174.16,-520.154 182.028,-527.249 184.735,-520.793"/>
</g>
</g>
</svg>
