<?xml version="1.0" encoding="UTF-8" standalone="no"?>
<!DOCTYPE svg PUBLIC "-//W3C//DTD SVG 1.1//EN"
 "http://www.w3.org/Graphics/SVG/1.1/DTD/svg11.dtd">
<!-- Generated by graphviz version 2.38.0 (20140413.2041)
 -->
<!-- Title: G Pages: 1 -->
<svg width="586pt" height="1266pt"
 viewBox="0.00 0.00 586.38 1266.00" xmlns="http://www.w3.org/2000/svg" xmlns:xlink="http://www.w3.org/1999/xlink">
<g id="graph0" class="graph" transform="scale(1 1) rotate(0) translate(4 1262)">
<title>G</title>
<polygon fill="white" stroke="none" points="-4,4 -4,-1262 582.378,-1262 582.378,4 -4,4"/>
<g id="clust1" class="cluster"><title>cluster_Global</title>
<path fill="none" stroke="gray" d="M43.6892,-98C43.6892,-98 558.378,-98 558.378,-98 564.378,-98 570.378,-104 570.378,-110 570.378,-110 570.378,-1238 570.378,-1238 570.378,-1244 564.378,-1250 558.378,-1250 558.378,-1250 43.6892,-1250 43.6892,-1250 37.6892,-1250 31.6892,-1244 31.6892,-1238 31.6892,-1238 31.6892,-110 31.6892,-110 31.6892,-104 37.6892,-98 43.6892,-98"/>
<text text-anchor="middle" x="301.034" y="-1237.2" font-family="Times,serif" font-size="11.00" fill="gray">Global</text>
</g>
<!-- \\Horde_Text_Filter_JavascriptMinify -->
<g id="node1" class="node"><title>\\Horde_Text_Filter_JavascriptMinify</title>
<polygon fill="none" stroke="black" points="562.378,-1222 316.378,-1222 316.378,-1186 562.378,-1186 562.378,-1222"/>
<text text-anchor="middle" x="439.378" y="-1201.2" font-family="Courier,monospace" font-size="11.00">Horde_Text_Filter_JavascriptMinify</text>
</g>
<!-- \\Horde_Text_Filter_Base -->
<g id="node20" class="node"><title>\\Horde_Text_Filter_Base</title>
<polygon fill="none" stroke="black" points="204.689,-763 39.6892,-763 39.6892,-727 204.689,-727 204.689,-763"/>
<text text-anchor="middle" x="122.189" y="-742.2" font-family="Courier,monospace" font-size="11.00">Horde_Text_Filter_Base</text>
</g>
<!-- \\Horde_Text_Filter_JavascriptMinify&#45;&gt;\\Horde_Text_Filter_Base -->
<g id="edge1" class="edge"><title>\\Horde_Text_Filter_JavascriptMinify&#45;&gt;\\Horde_Text_Filter_Base</title>
<path fill="none" stroke="black" d="M329.622,-1185.93C324.946,-1183.32 320.497,-1180.36 316.378,-1177 183.803,-1068.9 139.088,-850.883 127.013,-773.246"/>
<polygon fill="none" stroke="black" points="130.459,-772.622 125.52,-763.248 123.535,-773.656 130.459,-772.622"/>
</g>
<!-- \\Horde_Text_Filter_Simplemarkup -->
<g id="node2" class="node"><title>\\Horde_Text_Filter_Simplemarkup</title>
<polygon fill="none" stroke="black" points="548.878,-1168 329.878,-1168 329.878,-1132 548.878,-1132 548.878,-1168"/>
<text text-anchor="middle" x="439.378" y="-1147.2" font-family="Courier,monospace" font-size="11.00">Horde_Text_Filter_Simplemarkup</text>
</g>
<!-- \\Horde_Text_Filter_Simplemarkup&#45;&gt;\\Horde_Text_Filter_Base -->
<g id="edge2" class="edge"><title>\\Horde_Text_Filter_Simplemarkup&#45;&gt;\\Horde_Text_Filter_Base</title>
<path fill="none" stroke="black" d="M330.413,-1131.98C325.47,-1129.36 320.755,-1126.38 316.378,-1123 196.858,-1030.61 144.88,-843.833 128.909,-773.051"/>
<polygon fill="none" stroke="black" points="132.287,-772.116 126.73,-763.095 125.449,-773.613 132.287,-772.116"/>
</g>
<!-- \\Horde_Text_Filter_Xss -->
<g id="node3" class="node"><title>\\Horde_Text_Filter_Xss</title>
<polygon fill="none" stroke="black" points="518.378,-1114 360.378,-1114 360.378,-1078 518.378,-1078 518.378,-1114"/>
<text text-anchor="middle" x="439.378" y="-1093.2" font-family="Courier,monospace" font-size="11.00">Horde_Text_Filter_Xss</text>
</g>
<!-- \\Horde_Text_Filter_Xss&#45;&gt;\\Horde_Text_Filter_Base -->
<g id="edge3" class="edge"><title>\\Horde_Text_Filter_Xss&#45;&gt;\\Horde_Text_Filter_Base</title>
<path fill="none" stroke="black" d="M360.162,-1088.55C344.653,-1084.45 329.216,-1078.27 316.378,-1069 209.758,-992 151.533,-836.426 131.386,-772.938"/>
<polygon fill="none" stroke="black" points="134.677,-771.735 128.373,-763.22 127.991,-773.808 134.677,-771.735"/>
</g>
<!-- \\Horde_Text_Filter_Emails -->
<g id="node4" class="node"><title>\\Horde_Text_Filter_Emails</title>
<polygon fill="none" stroke="black" points="528.878,-1060 349.878,-1060 349.878,-1024 528.878,-1024 528.878,-1060"/>
<text text-anchor="middle" x="439.378" y="-1039.2" font-family="Courier,monospace" font-size="11.00">Horde_Text_Filter_Emails</text>
</g>
<!-- \\Horde_Text_Filter_Emails&#45;&gt;\\Horde_Text_Filter_Base -->
<g id="edge4" class="edge"><title>\\Horde_Text_Filter_Emails&#45;&gt;\\Horde_Text_Filter_Base</title>
<path fill="none" stroke="black" d="M349.581,-1030.47C337.848,-1026.66 326.424,-1021.64 316.378,-1015 222.238,-952.814 159.112,-827.867 134.612,-772.495"/>
<polygon fill="none" stroke="black" points="137.813,-771.08 130.618,-763.303 131.393,-773.869 137.813,-771.08"/>
</g>
<!-- \\Horde_Text_Filter_Cleanascii -->
<g id="node5" class="node"><title>\\Horde_Text_Filter_Cleanascii</title>
<polygon fill="none" stroke="black" points="542.378,-1006 336.378,-1006 336.378,-970 542.378,-970 542.378,-1006"/>
<text text-anchor="middle" x="439.378" y="-985.2" font-family="Courier,monospace" font-size="11.00">Horde_Text_Filter_Cleanascii</text>
</g>
<!-- \\Horde_Text_Filter_Cleanascii&#45;&gt;\\Horde_Text_Filter_Base -->
<g id="edge5" class="edge"><title>\\Horde_Text_Filter_Cleanascii&#45;&gt;\\Horde_Text_Filter_Base</title>
<path fill="none" stroke="black" d="M336.313,-970.584C329.37,-967.842 322.651,-964.67 316.378,-961 234.35,-913 168.187,-818.224 139.14,-771.842"/>
<polygon fill="none" stroke="black" points="142.062,-769.912 133.832,-763.239 136.104,-773.587 142.062,-769.912"/>
</g>
<!-- \\Horde_Text_Filter_Tabs2spaces -->
<g id="node6" class="node"><title>\\Horde_Text_Filter_Tabs2spaces</title>
<polygon fill="none" stroke="black" points="545.378,-952 333.378,-952 333.378,-916 545.378,-916 545.378,-952"/>
<text text-anchor="middle" x="439.378" y="-931.2" font-family="Courier,monospace" font-size="11.00">Horde_Text_Filter_Tabs2spaces</text>
</g>
<!-- \\Horde_Text_Filter_Tabs2spaces&#45;&gt;\\Horde_Text_Filter_Base -->
<g id="edge6" class="edge"><title>\\Horde_Text_Filter_Tabs2spaces&#45;&gt;\\Horde_Text_Filter_Base</title>
<path fill="none" stroke="black" d="M338.141,-915.989C330.624,-913.383 323.286,-910.404 316.378,-907 246.11,-872.377 179.674,-806.991 146.053,-770.774"/>
<polygon fill="none" stroke="black" points="148.339,-768.088 139,-763.083 143.179,-772.819 148.339,-768.088"/>
</g>
<!-- \\Horde_Text_Filter_Dimsignature -->
<g id="node7" class="node"><title>\\Horde_Text_Filter_Dimsignature</title>
<polygon fill="none" stroke="black" points="548.878,-898 329.878,-898 329.878,-862 548.878,-862 548.878,-898"/>
<text text-anchor="middle" x="439.378" y="-877.2" font-family="Courier,monospace" font-size="11.00">Horde_Text_Filter_Dimsignature</text>
</g>
<!-- \\Horde_Text_Filter_Dimsignature&#45;&gt;\\Horde_Text_Filter_Base -->
<g id="edge7" class="edge"><title>\\Horde_Text_Filter_Dimsignature&#45;&gt;\\Horde_Text_Filter_Base</title>
<path fill="none" stroke="black" d="M343.653,-861.922C334.327,-859.285 325.096,-856.319 316.378,-853 258.033,-830.787 195.93,-793.267 158.341,-768.817"/>
<polygon fill="none" stroke="black" points="160.069,-765.764 149.788,-763.204 156.228,-771.617 160.069,-765.764"/>
</g>
<!-- \\Horde_Text_Filter_Html2text -->
<g id="node8" class="node"><title>\\Horde_Text_Filter_Html2text</title>
<polygon fill="none" stroke="black" points="538.878,-844 339.878,-844 339.878,-808 538.878,-808 538.878,-844"/>
<text text-anchor="middle" x="439.378" y="-823.2" font-family="Courier,monospace" font-size="11.00">Horde_Text_Filter_Html2text</text>
</g>
<!-- \\Horde_Text_Filter_Html2text&#45;&gt;\\Horde_Text_Filter_Base -->
<g id="edge8" class="edge"><title>\\Horde_Text_Filter_Html2text&#45;&gt;\\Horde_Text_Filter_Base</title>
<path fill="none" stroke="black" d="M353.903,-807.936C341.298,-805.057 328.479,-802.028 316.378,-799 275.77,-788.839 230.706,-776.315 194.322,-765.887"/>
<polygon fill="none" stroke="black" points="194.879,-762.406 184.301,-763.006 192.944,-769.133 194.879,-762.406"/>
</g>
<!-- \\Horde_Text_Filter_Exception -->
<g id="node9" class="node"><title>\\Horde_Text_Filter_Exception</title>
<polygon fill="none" stroke="black" points="538.878,-250 339.878,-250 339.878,-214 538.878,-214 538.878,-250"/>
<text text-anchor="middle" x="439.378" y="-229.2" font-family="Courier,monospace" font-size="11.00">Horde_Text_Filter_Exception</text>
</g>
<!-- \\Horde_Exception_Wrapped -->
<g id="node23" class="node"><title>\\Horde_Exception_Wrapped</title>
<ellipse fill="none" stroke="black" cx="122.189" cy="-72" rx="112.38" ry="18"/>
<text text-anchor="middle" x="122.189" y="-68.3" font-family="Times,serif" font-size="14.00" fill="gray">\Horde_Exception_Wrapped</text>
</g>
<!-- \\Horde_Text_Filter_Exception&#45;&gt;\\Horde_Exception_Wrapped -->
<g id="edge9" class="edge"><title>\\Horde_Text_Filter_Exception&#45;&gt;\\Horde_Exception_Wrapped</title>
<path fill="none" stroke="black" d="M339.609,-217.336C331.387,-214.007 323.508,-209.947 316.378,-205 268.066,-171.478 293.322,-126.592 244.378,-94 239.304,-90.6212 233.858,-87.7221 228.184,-85.2378"/>
<polygon fill="none" stroke="black" points="229.036,-81.8131 218.447,-81.437 226.49,-88.3338 229.036,-81.8131"/>
</g>
<!-- \\Horde_Text_Filter_Text2html -->
<g id="node10" class="node"><title>\\Horde_Text_Filter_Text2html</title>
<polygon fill="none" stroke="black" points="538.878,-790 339.878,-790 339.878,-754 538.878,-754 538.878,-790"/>
<text text-anchor="middle" x="439.378" y="-769.2" font-family="Courier,monospace" font-size="11.00">Horde_Text_Filter_Text2html</text>
</g>
<!-- \\Horde_Text_Filter_Text2html&#45;&gt;\\Horde_Text_Filter_Base -->
<g id="edge10" class="edge"><title>\\Horde_Text_Filter_Text2html&#45;&gt;\\Horde_Text_Filter_Base</title>
<path fill="none" stroke="black" d="M339.515,-763.531C299.741,-760.124 254.142,-756.218 215.096,-752.873"/>
<polygon fill="none" stroke="black" points="215.056,-749.357 204.794,-751.99 214.458,-756.331 215.056,-749.357"/>
</g>
<!-- \\Horde_Text_Filter_Environment -->
<g id="node11" class="node"><title>\\Horde_Text_Filter_Environment</title>
<polygon fill="none" stroke="black" points="545.378,-736 333.378,-736 333.378,-700 545.378,-700 545.378,-736"/>
<text text-anchor="middle" x="439.378" y="-715.2" font-family="Courier,monospace" font-size="11.00">Horde_Text_Filter_Environment</text>
</g>
<!-- \\Horde_Text_Filter_Environment&#45;&gt;\\Horde_Text_Filter_Base -->
<g id="edge11" class="edge"><title>\\Horde_Text_Filter_Environment&#45;&gt;\\Horde_Text_Filter_Base</title>
<path fill="none" stroke="black" d="M332.987,-727.028C294.791,-730.3 251.982,-733.967 215.044,-737.131"/>
<polygon fill="none" stroke="black" points="214.455,-733.669 204.79,-738.01 215.052,-740.643 214.455,-733.669"/>
</g>
<!-- \\Horde_Text_Filter_Linkurls -->
<g id="node12" class="node"><title>\\Horde_Text_Filter_Linkurls</title>
<polygon fill="none" stroke="black" points="535.378,-682 343.378,-682 343.378,-646 535.378,-646 535.378,-682"/>
<text text-anchor="middle" x="439.378" y="-661.2" font-family="Courier,monospace" font-size="11.00">Horde_Text_Filter_Linkurls</text>
</g>
<!-- \\Horde_Text_Filter_Linkurls&#45;&gt;\\Horde_Text_Filter_Base -->
<g id="edge12" class="edge"><title>\\Horde_Text_Filter_Linkurls&#45;&gt;\\Horde_Text_Filter_Base</title>
<path fill="none" stroke="black" d="M353.903,-682.064C341.298,-684.943 328.479,-687.972 316.378,-691 275.77,-701.161 230.706,-713.685 194.322,-724.113"/>
<polygon fill="none" stroke="black" points="192.944,-720.867 184.301,-726.994 194.879,-727.594 192.944,-720.867"/>
</g>
<!-- \\Horde_Text_Filter_Space2html -->
<g id="node13" class="node"><title>\\Horde_Text_Filter_Space2html</title>
<polygon fill="none" stroke="black" points="542.378,-628 336.378,-628 336.378,-592 542.378,-592 542.378,-628"/>
<text text-anchor="middle" x="439.378" y="-607.2" font-family="Courier,monospace" font-size="11.00">Horde_Text_Filter_Space2html</text>
</g>
<!-- \\Horde_Text_Filter_Space2html&#45;&gt;\\Horde_Text_Filter_Base -->
<g id="edge13" class="edge"><title>\\Horde_Text_Filter_Space2html&#45;&gt;\\Horde_Text_Filter_Base</title>
<path fill="none" stroke="black" d="M343.653,-628.078C334.327,-630.715 325.096,-633.681 316.378,-637 258.033,-659.213 195.93,-696.733 158.341,-721.183"/>
<polygon fill="none" stroke="black" points="156.228,-718.383 149.788,-726.796 160.069,-724.236 156.228,-718.383"/>
</g>
<!-- \\Horde_Text_Filter_Bbcode -->
<g id="node14" class="node"><title>\\Horde_Text_Filter_Bbcode</title>
<polygon fill="none" stroke="black" points="528.878,-574 349.878,-574 349.878,-538 528.878,-538 528.878,-574"/>
<text text-anchor="middle" x="439.378" y="-553.2" font-family="Courier,monospace" font-size="11.00">Horde_Text_Filter_Bbcode</text>
</g>
<!-- \\Horde_Text_Filter_Bbcode&#45;&gt;\\Horde_Text_Filter_Base -->
<g id="edge14" class="edge"><title>\\Horde_Text_Filter_Bbcode&#45;&gt;\\Horde_Text_Filter_Base</title>
<path fill="none" stroke="black" d="M349.678,-570.326C338.177,-573.706 326.789,-577.87 316.378,-583 246.11,-617.623 179.674,-683.009 146.053,-719.226"/>
<polygon fill="none" stroke="black" points="143.179,-717.181 139,-726.917 148.339,-721.912 143.179,-717.181"/>
</g>
<!-- \\Horde_Text_Filter_Highlightquotes -->
<g id="node15" class="node"><title>\\Horde_Text_Filter_Highlightquotes</title>
<polygon fill="none" stroke="black" points="558.878,-520 319.878,-520 319.878,-484 558.878,-484 558.878,-520"/>
<text text-anchor="middle" x="439.378" y="-499.2" font-family="Courier,monospace" font-size="11.00">Horde_Text_Filter_Highlightquotes</text>
</g>
<!-- \\Horde_Text_Filter_Highlightquotes&#45;&gt;\\Horde_Text_Filter_Base -->
<g id="edge15" class="edge"><title>\\Horde_Text_Filter_Highlightquotes&#45;&gt;\\Horde_Text_Filter_Base</title>
<path fill="none" stroke="black" d="M334.763,-520.037C328.37,-522.634 322.182,-525.604 316.378,-529 234.35,-577 168.187,-671.776 139.14,-718.158"/>
<polygon fill="none" stroke="black" points="136.104,-716.413 133.832,-726.761 142.062,-720.088 136.104,-716.413"/>
</g>
<!-- \\Horde_Text_Filter_Emoticons -->
<g id="node16" class="node"><title>\\Horde_Text_Filter_Emoticons</title>
<polygon fill="none" stroke="black" points="538.878,-466 339.878,-466 339.878,-430 538.878,-430 538.878,-466"/>
<text text-anchor="middle" x="439.378" y="-445.2" font-family="Courier,monospace" font-size="11.00">Horde_Text_Filter_Emoticons</text>
</g>
<!-- \\Horde_Text_Filter_Emoticons&#45;&gt;\\Horde_Text_Filter_Base -->
<g id="edge16" class="edge"><title>\\Horde_Text_Filter_Emoticons&#45;&gt;\\Horde_Text_Filter_Base</title>
<path fill="none" stroke="black" d="M339.846,-463.014C331.575,-466.27 323.619,-470.217 316.378,-475 222.238,-537.186 159.112,-662.133 134.612,-717.505"/>
<polygon fill="none" stroke="black" points="131.393,-716.131 130.618,-726.697 137.813,-718.92 131.393,-716.131"/>
</g>
<!-- \\Horde_Text_Filter_Msoffice -->
<g id="node17" class="node"><title>\\Horde_Text_Filter_Msoffice</title>
<polygon fill="none" stroke="black" points="535.378,-412 343.378,-412 343.378,-376 535.378,-376 535.378,-412"/>
<text text-anchor="middle" x="439.378" y="-391.2" font-family="Courier,monospace" font-size="11.00">Horde_Text_Filter_Msoffice</text>
</g>
<!-- \\Horde_Text_Filter_Msoffice&#45;&gt;\\Horde_Text_Filter_Base -->
<g id="edge17" class="edge"><title>\\Horde_Text_Filter_Msoffice&#45;&gt;\\Horde_Text_Filter_Base</title>
<path fill="none" stroke="black" d="M343.111,-406.904C333.59,-410.543 324.468,-415.158 316.378,-421 209.758,-498 151.533,-653.574 131.386,-717.062"/>
<polygon fill="none" stroke="black" points="127.991,-716.192 128.373,-726.78 134.677,-718.265 127.991,-716.192"/>
</g>
<!-- \\Horde_Text_Filter_Words -->
<g id="node18" class="node"><title>\\Horde_Text_Filter_Words</title>
<polygon fill="none" stroke="black" points="525.378,-358 353.378,-358 353.378,-322 525.378,-322 525.378,-358"/>
<text text-anchor="middle" x="439.378" y="-337.2" font-family="Courier,monospace" font-size="11.00">Horde_Text_Filter_Words</text>
</g>
<!-- \\Horde_Text_Filter_Words&#45;&gt;\\Horde_Text_Filter_Base -->
<g id="edge18" class="edge"><title>\\Horde_Text_Filter_Words&#45;&gt;\\Horde_Text_Filter_Base</title>
<path fill="none" stroke="black" d="M353.345,-348.647C340.07,-352.762 327.191,-358.642 316.378,-367 196.858,-459.39 144.88,-646.167 128.909,-716.949"/>
<polygon fill="none" stroke="black" points="125.449,-716.387 126.73,-726.905 132.287,-717.884 125.449,-716.387"/>
</g>
<!-- \\Horde_Text_Filter_Cleanhtml -->
<g id="node19" class="node"><title>\\Horde_Text_Filter_Cleanhtml</title>
<polygon fill="none" stroke="black" points="538.878,-304 339.878,-304 339.878,-268 538.878,-268 538.878,-304"/>
<text text-anchor="middle" x="439.378" y="-283.2" font-family="Courier,monospace" font-size="11.00">Horde_Text_Filter_Cleanhtml</text>
</g>
<!-- \\Horde_Text_Filter_Cleanhtml&#45;&gt;\\Horde_Text_Filter_Base -->
<g id="edge19" class="edge"><title>\\Horde_Text_Filter_Cleanhtml&#45;&gt;\\Horde_Text_Filter_Base</title>
<path fill="none" stroke="black" d="M339.653,-299.119C331.277,-302.757 323.356,-307.311 316.378,-313 183.803,-421.097 139.088,-639.117 127.013,-716.754"/>
<polygon fill="none" stroke="black" points="123.535,-716.344 125.52,-726.752 130.459,-717.378 123.535,-716.344"/>
</g>
<!-- \\Horde_Text_Filter_Translation -->
<g id="node21" class="node"><title>\\Horde_Text_Filter_Translation</title>
<polygon fill="none" stroke="black" points="545.378,-196 333.378,-196 333.378,-160 545.378,-160 545.378,-196"/>
<text text-anchor="middle" x="439.378" y="-175.2" font-family="Courier,monospace" font-size="11.00">Horde_Text_Filter_Translation</text>
</g>
<!-- \\Horde_Translation_Autodetect -->
<g id="node24" class="node"><title>\\Horde_Translation_Autodetect</title>
<ellipse fill="none" stroke="black" cx="122.189" cy="-18" rx="122.379" ry="18"/>
<text text-anchor="middle" x="122.189" y="-14.3" font-family="Times,serif" font-size="14.00" fill="gray">\Horde_Translation_Autodetect</text>
</g>
<!-- \\Horde_Text_Filter_Translation&#45;&gt;\\Horde_Translation_Autodetect -->
<g id="edge20" class="edge"><title>\\Horde_Text_Filter_Translation&#45;&gt;\\Horde_Translation_Autodetect</title>
<path fill="none" stroke="black" d="M333.303,-160.429C327.37,-157.715 321.675,-154.592 316.378,-151 269.245,-119.033 291.489,-77.0006 244.378,-45 237.723,-40.4793 230.432,-36.7029 222.833,-33.5498"/>
<polygon fill="none" stroke="black" points="224.024,-30.2584 213.432,-30.0048 221.554,-36.8082 224.024,-30.2584"/>
</g>
<!-- \\Horde_Text_Filter -->
<g id="node22" class="node"><title>\\Horde_Text_Filter</title>
<polygon fill="none" stroke="black" points="504.878,-142 373.878,-142 373.878,-106 504.878,-106 504.878,-142"/>
<text text-anchor="middle" x="439.378" y="-121.2" font-family="Courier,monospace" font-size="11.00">Horde_Text_Filter</text>
</g>
</g>
</svg>
