<?xml version="1.0" encoding="UTF-8" standalone="no"?>
<!DOCTYPE svg PUBLIC "-//W3C//DTD SVG 1.1//EN"
 "http://www.w3.org/Graphics/SVG/1.1/DTD/svg11.dtd">
<!-- Generated by graphviz version 2.38.0 (20140413.2041)
 -->
<!-- Title: G Pages: 1 -->
<svg width="415pt" height="150pt"
 viewBox="0.00 0.00 415.00 150.00" xmlns="http://www.w3.org/2000/svg" xmlns:xlink="http://www.w3.org/1999/xlink">
<g id="graph0" class="graph" transform="scale(1 1) rotate(0) translate(4 146)">
<title>G</title>
<polygon fill="white" stroke="none" points="-4,4 -4,-146 411,-146 411,4 -4,4"/>
<g id="clust1" class="cluster"><title>cluster_Global</title>
<path fill="none" stroke="gray" d="M20,-8C20,-8 387,-8 387,-8 393,-8 399,-14 399,-20 399,-20 399,-122 399,-122 399,-128 393,-134 387,-134 387,-134 20,-134 20,-134 14,-134 8,-128 8,-122 8,-122 8,-20 8,-20 8,-14 14,-8 20,-8"/>
<text text-anchor="middle" x="203.5" y="-121.2" font-family="Times,serif" font-size="11.00" fill="gray">Global</text>
</g>
<!-- \\Horde_Scheduler_Cron -->
<g id="node1" class="node"><title>\\Horde_Scheduler_Cron</title>
<polygon fill="none" stroke="black" points="374.5,-106 222.5,-106 222.5,-70 374.5,-70 374.5,-106"/>
<text text-anchor="middle" x="298.5" y="-85.2" font-family="Courier,monospace" font-size="11.00">Horde_Scheduler_Cron</text>
</g>
<!-- \\Horde_Scheduler -->
<g id="node3" class="node"><title>\\Horde_Scheduler</title>
<polygon fill="none" stroke="black" points="134,-106 16,-106 16,-70 134,-70 134,-106"/>
<text text-anchor="middle" x="75" y="-85.2" font-family="Courier,monospace" font-size="11.00">Horde_Scheduler</text>
</g>
<!-- \\Horde_Scheduler_Cron&#45;&gt;\\Horde_Scheduler -->
<g id="edge1" class="edge"><title>\\Horde_Scheduler_Cron&#45;&gt;\\Horde_Scheduler</title>
<path fill="none" stroke="black" d="M222.201,-88C197.071,-88 169.218,-88 144.623,-88"/>
<polygon fill="none" stroke="black" points="144.299,-84.5001 134.299,-88 144.299,-91.5001 144.299,-84.5001"/>
</g>
<!-- \\Horde_Scheduler_Cron_Date -->
<g id="node2" class="node"><title>\\Horde_Scheduler_Cron_Date</title>
<polygon fill="none" stroke="black" points="391,-52 206,-52 206,-16 391,-16 391,-52"/>
<text text-anchor="middle" x="298.5" y="-31.2" font-family="Courier,monospace" font-size="11.00">Horde_Scheduler_Cron_Date</text>
</g>
</g>
</svg>
