<?xml version="1.0" encoding="UTF-8" standalone="no"?>
<!DOCTYPE svg PUBLIC "-//W3C//DTD SVG 1.1//EN"
 "http://www.w3.org/Graphics/SVG/1.1/DTD/svg11.dtd">
<!-- Generated by graphviz version 2.38.0 (20140413.2041)
 -->
<!-- Title: G Pages: 1 -->
<svg width="439pt" height="420pt"
 viewBox="0.00 0.00 438.79 420.00" xmlns="http://www.w3.org/2000/svg" xmlns:xlink="http://www.w3.org/1999/xlink">
<g id="graph0" class="graph" transform="scale(1 1) rotate(0) translate(4 416)">
<title>G</title>
<polygon fill="white" stroke="none" points="-4,4 -4,-416 434.787,-416 434.787,4 -4,4"/>
<g id="clust1" class="cluster"><title>cluster_Global</title>
<path fill="none" stroke="gray" d="M226.787,-8C226.787,-8 410.787,-8 410.787,-8 416.787,-8 422.787,-14 422.787,-20 422.787,-20 422.787,-392 422.787,-392 422.787,-398 416.787,-404 410.787,-404 410.787,-404 226.787,-404 226.787,-404 220.787,-404 214.787,-398 214.787,-392 214.787,-392 214.787,-20 214.787,-20 214.787,-14 220.787,-8 226.787,-8"/>
<text text-anchor="middle" x="318.787" y="-391.2" font-family="Times,serif" font-size="11.00" fill="gray">Global</text>
</g>
<!-- \\Horde_String_Transliterate -->
<g id="node1" class="node"><title>\\Horde_String_Transliterate</title>
<polygon fill="none" stroke="black" points="414.787,-376 222.787,-376 222.787,-340 414.787,-340 414.787,-376"/>
<text text-anchor="middle" x="318.787" y="-355.2" font-family="Courier,monospace" font-size="11.00">Horde_String_Transliterate</text>
</g>
<!-- \\Horde_Variables -->
<g id="node2" class="node"><title>\\Horde_Variables</title>
<polygon fill="none" stroke="black" points="377.787,-322 259.787,-322 259.787,-286 377.787,-286 377.787,-322"/>
<text text-anchor="middle" x="318.787" y="-301.2" font-family="Courier,monospace" font-size="11.00">Horde_Variables</text>
</g>
<!-- \\ArrayAccess -->
<g id="node8" class="node"><title>\\ArrayAccess</title>
<ellipse fill="none" stroke="black" cx="75.3933" cy="-358" rx="58.4896" ry="18"/>
<text text-anchor="middle" x="75.3933" y="-354.3" font-family="Times,serif" font-size="14.00" fill="gray">\ArrayAccess</text>
</g>
<!-- \\Horde_Variables&#45;&gt;\\ArrayAccess -->
<g id="edge1" class="edge"><title>\\Horde_Variables&#45;&gt;\\ArrayAccess</title>
<path fill="none" stroke="black" stroke-dasharray="1,5" d="M259.66,-317.003C221.241,-325.597 171.13,-336.807 133.021,-345.332"/>
<polygon fill="none" stroke="black" points="132.103,-341.951 123.108,-347.55 133.631,-348.782 132.103,-341.951"/>
</g>
<!-- \\Countable -->
<g id="node9" class="node"><title>\\Countable</title>
<ellipse fill="none" stroke="black" cx="75.3933" cy="-304" rx="49.2915" ry="18"/>
<text text-anchor="middle" x="75.3933" y="-300.3" font-family="Times,serif" font-size="14.00" fill="gray">\Countable</text>
</g>
<!-- \\Horde_Variables&#45;&gt;\\Countable -->
<g id="edge2" class="edge"><title>\\Horde_Variables&#45;&gt;\\Countable</title>
<path fill="none" stroke="black" stroke-dasharray="1,5" d="M259.66,-304C222.042,-304 173.215,-304 135.42,-304"/>
<polygon fill="none" stroke="black" points="135.071,-300.5 125.071,-304 135.071,-307.5 135.071,-300.5"/>
</g>
<!-- \\IteratorAggregate -->
<g id="node10" class="node"><title>\\IteratorAggregate</title>
<ellipse fill="none" stroke="black" cx="75.3933" cy="-250" rx="75.2868" ry="18"/>
<text text-anchor="middle" x="75.3933" y="-246.3" font-family="Times,serif" font-size="14.00" fill="gray">\IteratorAggregate</text>
</g>
<!-- \\Horde_Variables&#45;&gt;\\IteratorAggregate -->
<g id="edge3" class="edge"><title>\\Horde_Variables&#45;&gt;\\IteratorAggregate</title>
<path fill="none" stroke="black" stroke-dasharray="1,5" d="M259.66,-290.997C223.954,-283.01 178.151,-272.763 141.268,-264.513"/>
<polygon fill="none" stroke="black" points="141.64,-261.009 131.117,-262.242 140.112,-267.841 141.64,-261.009"/>
</g>
<!-- \\Horde_Util -->
<g id="node3" class="node"><title>\\Horde_Util</title>
<polygon fill="none" stroke="black" points="360.787,-268 276.787,-268 276.787,-232 360.787,-232 360.787,-268"/>
<text text-anchor="middle" x="318.787" y="-247.2" font-family="Courier,monospace" font-size="11.00">Horde_Util</text>
</g>
<!-- \\Horde_Domhtml -->
<g id="node4" class="node"><title>\\Horde_Domhtml</title>
<polygon fill="none" stroke="black" points="370.787,-214 266.787,-214 266.787,-178 370.787,-178 370.787,-214"/>
<text text-anchor="middle" x="318.787" y="-193.2" font-family="Courier,monospace" font-size="11.00">Horde_Domhtml</text>
</g>
<!-- \\Iterator -->
<g id="node11" class="node"><title>\\Iterator</title>
<ellipse fill="none" stroke="black" cx="75.3933" cy="-196" rx="38.9931" ry="18"/>
<text text-anchor="middle" x="75.3933" y="-192.3" font-family="Times,serif" font-size="14.00" fill="gray">\Iterator</text>
</g>
<!-- \\Horde_Domhtml&#45;&gt;\\Iterator -->
<g id="edge4" class="edge"><title>\\Horde_Domhtml&#45;&gt;\\Iterator</title>
<path fill="none" stroke="black" stroke-dasharray="1,5" d="M266.593,-196C224.618,-196 165.63,-196 124.515,-196"/>
<polygon fill="none" stroke="black" points="124.468,-192.5 114.468,-196 124.468,-199.5 124.468,-192.5"/>
</g>
<!-- \\Horde_String -->
<g id="node5" class="node"><title>\\Horde_String</title>
<polygon fill="none" stroke="black" points="367.787,-160 269.787,-160 269.787,-124 367.787,-124 367.787,-160"/>
<text text-anchor="middle" x="318.787" y="-139.2" font-family="Courier,monospace" font-size="11.00">Horde_String</text>
</g>
<!-- \\Horde_Array -->
<g id="node6" class="node"><title>\\Horde_Array</title>
<polygon fill="none" stroke="black" points="364.287,-106 273.287,-106 273.287,-70 364.287,-70 364.287,-106"/>
<text text-anchor="middle" x="318.787" y="-85.2" font-family="Courier,monospace" font-size="11.00">Horde_Array</text>
</g>
<!-- \\Horde_Array_Sort_Helper -->
<g id="node7" class="node"><title>\\Horde_Array_Sort_Helper</title>
<polygon fill="none" stroke="black" points="404.787,-52 232.787,-52 232.787,-16 404.787,-16 404.787,-52"/>
<text text-anchor="middle" x="318.787" y="-31.2" font-family="Courier,monospace" font-size="11.00">Horde_Array_Sort_Helper</text>
</g>
</g>
</svg>
