<?xml version="1.0" encoding="UTF-8" standalone="no"?>
<!DOCTYPE svg PUBLIC "-//W3C//DTD SVG 1.1//EN"
 "http://www.w3.org/Graphics/SVG/1.1/DTD/svg11.dtd">
<!-- Generated by graphviz version 2.38.0 (20140413.2041)
 -->
<!-- Title: G Pages: 1 -->
<svg width="459pt" height="258pt"
 viewBox="0.00 0.00 458.79 258.00" xmlns="http://www.w3.org/2000/svg" xmlns:xlink="http://www.w3.org/1999/xlink">
<g id="graph0" class="graph" transform="scale(1 1) rotate(0) translate(4 254)">
<title>G</title>
<polygon fill="white" stroke="none" points="-4,4 -4,-254 454.787,-254 454.787,4 -4,4"/>
<g id="clust1" class="cluster"><title>cluster_Global</title>
<path fill="none" stroke="gray" d="M226.787,-8C226.787,-8 430.787,-8 430.787,-8 436.787,-8 442.787,-14 442.787,-20 442.787,-20 442.787,-230 442.787,-230 442.787,-236 436.787,-242 430.787,-242 430.787,-242 226.787,-242 226.787,-242 220.787,-242 214.787,-236 214.787,-230 214.787,-230 214.787,-20 214.787,-20 214.787,-14 220.787,-8 226.787,-8"/>
<text text-anchor="middle" x="328.787" y="-229.2" font-family="Times,serif" font-size="11.00" fill="gray">Global</text>
</g>
<!-- \\Horde_ElasticSearch_Exception -->
<g id="node1" class="node"><title>\\Horde_ElasticSearch_Exception</title>
<polygon fill="none" stroke="black" points="434.787,-214 222.787,-214 222.787,-178 434.787,-178 434.787,-214"/>
<text text-anchor="middle" x="328.787" y="-193.2" font-family="Courier,monospace" font-size="11.00">Horde_ElasticSearch_Exception</text>
</g>
<!-- \\Horde_Exception -->
<g id="node5" class="node"><title>\\Horde_Exception</title>
<ellipse fill="none" stroke="black" cx="75.3933" cy="-196" rx="75.2868" ry="18"/>
<text text-anchor="middle" x="75.3933" y="-192.3" font-family="Times,serif" font-size="14.00" fill="gray">\Horde_Exception</text>
</g>
<!-- \\Horde_ElasticSearch_Exception&#45;&gt;\\Horde_Exception -->
<g id="edge1" class="edge"><title>\\Horde_ElasticSearch_Exception&#45;&gt;\\Horde_Exception</title>
<path fill="none" stroke="black" d="M222.63,-196C202.121,-196 180.862,-196 161.118,-196"/>
<polygon fill="none" stroke="black" points="160.943,-192.5 150.942,-196 160.942,-199.5 160.943,-192.5"/>
</g>
<!-- \\Horde_ElasticSearch_Index -->
<g id="node2" class="node"><title>\\Horde_ElasticSearch_Index</title>
<polygon fill="none" stroke="black" points="421.287,-160 236.287,-160 236.287,-124 421.287,-124 421.287,-160"/>
<text text-anchor="middle" x="328.787" y="-139.2" font-family="Courier,monospace" font-size="11.00">Horde_ElasticSearch_Index</text>
</g>
<!-- \\Horde_ElasticSearch_Type -->
<g id="node3" class="node"><title>\\Horde_ElasticSearch_Type</title>
<polygon fill="none" stroke="black" points="418.287,-106 239.287,-106 239.287,-70 418.287,-70 418.287,-106"/>
<text text-anchor="middle" x="328.787" y="-85.2" font-family="Courier,monospace" font-size="11.00">Horde_ElasticSearch_Type</text>
</g>
<!-- \\Horde_ElasticSearch_Client -->
<g id="node4" class="node"><title>\\Horde_ElasticSearch_Client</title>
<polygon fill="none" stroke="black" points="424.787,-52 232.787,-52 232.787,-16 424.787,-16 424.787,-52"/>
<text text-anchor="middle" x="328.787" y="-31.2" font-family="Courier,monospace" font-size="11.00">Horde_ElasticSearch_Client</text>
</g>
</g>
</svg>
