<?xml version="1.0" encoding="UTF-8" standalone="no"?>
<!DOCTYPE svg PUBLIC "-//W3C//DTD SVG 1.1//EN"
 "http://www.w3.org/Graphics/SVG/1.1/DTD/svg11.dtd">
<!-- Generated by graphviz version 2.38.0 (20140413.2041)
 -->
<!-- Title: G Pages: 1 -->
<svg width="661pt" height="2020pt"
 viewBox="0.00 0.00 661.27 2020.00" xmlns="http://www.w3.org/2000/svg" xmlns:xlink="http://www.w3.org/1999/xlink">
<g id="graph0" class="graph" transform="scale(1 1) rotate(0) translate(4 2016)">
<title>G</title>
<polygon fill="white" stroke="none" points="-4,4 -4,-2016 657.271,-2016 657.271,4 -4,4"/>
<g id="clust1" class="cluster"><title>cluster_Global</title>
<path fill="none" stroke="gray" d="M94.6355,-638C94.6355,-638 633.271,-638 633.271,-638 639.271,-638 645.271,-644 645.271,-650 645.271,-650 645.271,-1992 645.271,-1992 645.271,-1998 639.271,-2004 633.271,-2004 633.271,-2004 94.6355,-2004 94.6355,-2004 88.6355,-2004 82.6355,-1998 82.6355,-1992 82.6355,-1992 82.6355,-650 82.6355,-650 82.6355,-644 88.6355,-638 94.6355,-638"/>
<text text-anchor="middle" x="363.953" y="-1991.2" font-family="Times,serif" font-size="11.00" fill="gray">Global</text>
</g>
<g id="clust2" class="cluster"><title>cluster_\Mnemo</title>
<path fill="none" stroke="gray" d="M486.771,-1662C486.771,-1662 548.771,-1662 548.771,-1662 554.771,-1662 560.771,-1668 560.771,-1674 560.771,-1674 560.771,-1758 560.771,-1758 560.771,-1764 554.771,-1770 548.771,-1770 548.771,-1770 486.771,-1770 486.771,-1770 480.771,-1770 474.771,-1764 474.771,-1758 474.771,-1758 474.771,-1674 474.771,-1674 474.771,-1668 480.771,-1662 486.771,-1662"/>
<text text-anchor="middle" x="517.771" y="-1757.2" font-family="Times,serif" font-size="11.00" fill="gray">Mnemo</text>
</g>
<g id="clust3" class="cluster"><title>cluster_\Mnemo\Backup</title>
<path fill="none" stroke="gray" d="M494.771,-1670C494.771,-1670 540.771,-1670 540.771,-1670 546.771,-1670 552.771,-1676 552.771,-1682 552.771,-1682 552.771,-1730 552.771,-1730 552.771,-1736 546.771,-1742 540.771,-1742 540.771,-1742 494.771,-1742 494.771,-1742 488.771,-1742 482.771,-1736 482.771,-1730 482.771,-1730 482.771,-1682 482.771,-1682 482.771,-1676 488.771,-1670 494.771,-1670"/>
<text text-anchor="middle" x="517.771" y="-1729.2" font-family="Times,serif" font-size="11.00" fill="gray">Backup</text>
</g>
<!-- \\Mnemo\\Backup\\Notes -->
<g id="node1" class="node"><title>\\Mnemo\\Backup\\Notes</title>
<polygon fill="none" stroke="black" points="544.771,-1714 490.771,-1714 490.771,-1678 544.771,-1678 544.771,-1714"/>
<text text-anchor="middle" x="517.771" y="-1693.2" font-family="Courier,monospace" font-size="11.00">Notes</text>
</g>
<!-- \\Iterator -->
<g id="node36" class="node"><title>\\Iterator</title>
<ellipse fill="none" stroke="black" cx="163.136" cy="-612" rx="38.9931" ry="18"/>
<text text-anchor="middle" x="163.136" y="-608.3" font-family="Times,serif" font-size="14.00" fill="gray">\Iterator</text>
</g>
<!-- \\Mnemo\\Backup\\Notes&#45;&gt;\\Iterator -->
<g id="edge17" class="edge"><title>\\Mnemo\\Backup\\Notes&#45;&gt;\\Iterator</title>
<path fill="none" stroke="black" stroke-dasharray="1,5" d="M490.707,-1699.44C463.318,-1701.44 421.109,-1699.61 398.271,-1674 244.096,-1501.09 484.61,-803.107 326.271,-634 297.166,-602.916 246.552,-600.692 209.599,-604.187"/>
<polygon fill="none" stroke="black" points="209.118,-600.719 199.568,-605.306 209.894,-607.676 209.118,-600.719"/>
</g>
<!-- \\Mnemo_Api -->
<g id="node2" class="node"><title>\\Mnemo_Api</title>
<polygon fill="none" stroke="black" points="556.271,-1654 479.271,-1654 479.271,-1618 556.271,-1618 556.271,-1654"/>
<text text-anchor="middle" x="517.771" y="-1633.2" font-family="Courier,monospace" font-size="11.00">Mnemo_Api</text>
</g>
<!-- \\Horde_Registry_Api -->
<g id="node27" class="node"><title>\\Horde_Registry_Api</title>
<ellipse fill="none" stroke="black" cx="163.136" cy="-558" rx="87.1846" ry="18"/>
<text text-anchor="middle" x="163.136" y="-554.3" font-family="Times,serif" font-size="14.00" fill="gray">\Horde_Registry_Api</text>
</g>
<!-- \\Mnemo_Api&#45;&gt;\\Horde_Registry_Api -->
<g id="edge1" class="edge"><title>\\Mnemo_Api&#45;&gt;\\Horde_Registry_Api</title>
<path fill="none" stroke="black" d="M479.083,-1638.25C452.336,-1637.61 417.836,-1631.83 398.271,-1609 249.839,-1435.78 479.749,-753.766 326.271,-585 308.31,-565.25 281.825,-556.329 255.445,-552.96"/>
<polygon fill="none" stroke="black" points="255.661,-549.464 245.357,-551.929 254.949,-556.428 255.661,-549.464"/>
</g>
<!-- \\Mnemo_Ajax_Application -->
<g id="node3" class="node"><title>\\Mnemo_Ajax_Application</title>
<polygon fill="none" stroke="black" points="600.271,-1600 435.271,-1600 435.271,-1564 600.271,-1564 600.271,-1600"/>
<text text-anchor="middle" x="517.771" y="-1579.2" font-family="Courier,monospace" font-size="11.00">Mnemo_Ajax_Application</text>
</g>
<!-- \\Horde_Core_Ajax_Application -->
<g id="node28" class="node"><title>\\Horde_Core_Ajax_Application</title>
<ellipse fill="none" stroke="black" cx="163.136" cy="-504" rx="124.278" ry="18"/>
<text text-anchor="middle" x="163.136" y="-500.3" font-family="Times,serif" font-size="14.00" fill="gray">\Horde_Core_Ajax_Application</text>
</g>
<!-- \\Mnemo_Ajax_Application&#45;&gt;\\Horde_Core_Ajax_Application -->
<g id="edge2" class="edge"><title>\\Mnemo_Ajax_Application&#45;&gt;\\Horde_Core_Ajax_Application</title>
<path fill="none" stroke="black" d="M435.226,-1577.71C421.097,-1573.32 407.882,-1566.22 398.271,-1555 249.839,-1381.78 479.749,-699.766 326.271,-531 317.787,-521.671 307.402,-514.759 296.024,-509.706"/>
<polygon fill="none" stroke="black" points="297.291,-506.443 286.703,-506.042 294.729,-512.958 297.291,-506.443"/>
</g>
<!-- \\Mnemo_Ajax_Imple_TagAutoCompleter -->
<g id="node4" class="node"><title>\\Mnemo_Ajax_Imple_TagAutoCompleter</title>
<polygon fill="none" stroke="black" points="637.271,-1546 398.271,-1546 398.271,-1510 637.271,-1510 637.271,-1546"/>
<text text-anchor="middle" x="517.771" y="-1525.2" font-family="Courier,monospace" font-size="11.00">Mnemo_Ajax_Imple_TagAutoCompleter</text>
</g>
<!-- \\Horde_Core_Ajax_Imple_AutoCompleter -->
<g id="node29" class="node"><title>\\Horde_Core_Ajax_Imple_AutoCompleter</title>
<ellipse fill="none" stroke="black" cx="163.136" cy="-450" rx="163.271" ry="18"/>
<text text-anchor="middle" x="163.136" y="-446.3" font-family="Times,serif" font-size="14.00" fill="gray">\Horde_Core_Ajax_Imple_AutoCompleter</text>
</g>
<!-- \\Mnemo_Ajax_Imple_TagAutoCompleter&#45;&gt;\\Horde_Core_Ajax_Imple_AutoCompleter -->
<g id="edge3" class="edge"><title>\\Mnemo_Ajax_Imple_TagAutoCompleter&#45;&gt;\\Horde_Core_Ajax_Imple_AutoCompleter</title>
<path fill="none" stroke="black" d="M407.329,-1509.64C404.057,-1507.07 401.017,-1504.2 398.271,-1501 249.839,-1327.78 479.749,-645.766 326.271,-477 322.028,-472.334 317.309,-468.272 312.227,-464.746"/>
<polygon fill="none" stroke="black" points="313.709,-461.548 303.355,-459.303 310.049,-467.515 313.709,-461.548"/>
</g>
<!-- \\Mnemo_Ajax_Imple_EditNote -->
<g id="node5" class="node"><title>\\Mnemo_Ajax_Imple_EditNote</title>
<polygon fill="none" stroke="black" points="610.271,-1492 425.271,-1492 425.271,-1456 610.271,-1456 610.271,-1492"/>
<text text-anchor="middle" x="517.771" y="-1471.2" font-family="Courier,monospace" font-size="11.00">Mnemo_Ajax_Imple_EditNote</text>
</g>
<!-- \\Horde_Core_Ajax_Imple_InPlaceEditor -->
<g id="node30" class="node"><title>\\Horde_Core_Ajax_Imple_InPlaceEditor</title>
<ellipse fill="none" stroke="black" cx="163.136" cy="-396" rx="155.972" ry="18"/>
<text text-anchor="middle" x="163.136" y="-392.3" font-family="Times,serif" font-size="14.00" fill="gray">\Horde_Core_Ajax_Imple_InPlaceEditor</text>
</g>
<!-- \\Mnemo_Ajax_Imple_EditNote&#45;&gt;\\Horde_Core_Ajax_Imple_InPlaceEditor -->
<g id="edge4" class="edge"><title>\\Mnemo_Ajax_Imple_EditNote&#45;&gt;\\Horde_Core_Ajax_Imple_InPlaceEditor</title>
<path fill="none" stroke="black" d="M425.132,-1466.01C414.891,-1461.62 405.548,-1455.49 398.271,-1447 249.839,-1273.78 479.749,-591.766 326.271,-423 321.498,-417.752 316.123,-413.268 310.309,-409.45"/>
<polygon fill="none" stroke="black" points="311.897,-406.325 301.493,-404.321 308.377,-412.376 311.897,-406.325"/>
</g>
<!-- \\Mnemo_Form_EditNotepad -->
<g id="node6" class="node"><title>\\Mnemo_Form_EditNotepad</title>
<polygon fill="none" stroke="black" points="600.271,-1438 435.271,-1438 435.271,-1402 600.271,-1402 600.271,-1438"/>
<text text-anchor="middle" x="517.771" y="-1417.2" font-family="Courier,monospace" font-size="11.00">Mnemo_Form_EditNotepad</text>
</g>
<!-- \\Horde_Form -->
<g id="node31" class="node"><title>\\Horde_Form</title>
<ellipse fill="none" stroke="black" cx="163.136" cy="-342" rx="59.2899" ry="18"/>
<text text-anchor="middle" x="163.136" y="-338.3" font-family="Times,serif" font-size="14.00" fill="gray">\Horde_Form</text>
</g>
<!-- \\Mnemo_Form_EditNotepad&#45;&gt;\\Horde_Form -->
<g id="edge5" class="edge"><title>\\Mnemo_Form_EditNotepad&#45;&gt;\\Horde_Form</title>
<path fill="none" stroke="black" d="M435.226,-1415.71C421.097,-1411.32 407.882,-1404.22 398.271,-1393 249.839,-1219.78 479.749,-537.766 326.271,-369 302.173,-342.502 262.73,-335.497 228.781,-335.24"/>
<polygon fill="none" stroke="black" points="228.403,-331.744 218.445,-335.363 228.486,-338.744 228.403,-331.744"/>
</g>
<!-- \\Mnemo_Form_DeleteNotepad -->
<g id="node7" class="node"><title>\\Mnemo_Form_DeleteNotepad</title>
<polygon fill="none" stroke="black" points="607.271,-1384 428.271,-1384 428.271,-1348 607.271,-1348 607.271,-1384"/>
<text text-anchor="middle" x="517.771" y="-1363.2" font-family="Courier,monospace" font-size="11.00">Mnemo_Form_DeleteNotepad</text>
</g>
<!-- \\Mnemo_Form_DeleteNotepad&#45;&gt;\\Horde_Form -->
<g id="edge6" class="edge"><title>\\Mnemo_Form_DeleteNotepad&#45;&gt;\\Horde_Form</title>
<path fill="none" stroke="black" d="M428.086,-1359.18C416.7,-1354.74 406.252,-1348.28 398.271,-1339 257.307,-1175.14 472.007,-528.628 326.271,-369 302.122,-342.549 262.677,-335.545 228.741,-335.277"/>
<polygon fill="none" stroke="black" points="228.368,-331.781 218.409,-335.396 228.449,-338.78 228.368,-331.781"/>
</g>
<!-- \\Mnemo_Form_Search -->
<g id="node8" class="node"><title>\\Mnemo_Form_Search</title>
<polygon fill="none" stroke="black" points="583.271,-1276 452.271,-1276 452.271,-1240 583.271,-1240 583.271,-1276"/>
<text text-anchor="middle" x="517.771" y="-1255.2" font-family="Courier,monospace" font-size="11.00">Mnemo_Form_Search</text>
</g>
<!-- \\Mnemo_Form_Search&#45;&gt;\\Horde_Form -->
<g id="edge7" class="edge"><title>\\Mnemo_Form_Search&#45;&gt;\\Horde_Form</title>
<path fill="none" stroke="black" d="M452.257,-1257.63C432.163,-1254.15 411.76,-1246.53 398.271,-1231 272.239,-1085.86 456.53,-510.358 326.271,-369 302,-342.66 262.553,-335.659 228.646,-335.364"/>
<polygon fill="none" stroke="black" points="228.286,-331.868 218.324,-335.474 228.361,-338.867 228.286,-331.868"/>
</g>
<!-- \\Mnemo_Form_CreateNotepad -->
<g id="node9" class="node"><title>\\Mnemo_Form_CreateNotepad</title>
<polygon fill="none" stroke="black" points="607.271,-1168 428.271,-1168 428.271,-1132 607.271,-1132 607.271,-1168"/>
<text text-anchor="middle" x="517.771" y="-1147.2" font-family="Courier,monospace" font-size="11.00">Mnemo_Form_CreateNotepad</text>
</g>
<!-- \\Mnemo_Form_CreateNotepad&#45;&gt;\\Horde_Form -->
<g id="edge8" class="edge"><title>\\Mnemo_Form_CreateNotepad&#45;&gt;\\Horde_Form</title>
<path fill="none" stroke="black" d="M428.261,-1143.03C416.85,-1138.61 406.35,-1132.19 398.271,-1123 287.16,-996.567 441.064,-492.1 326.271,-369 301.932,-342.899 262.678,-335.857 228.892,-335.48"/>
<polygon fill="none" stroke="black" points="228.575,-331.983 218.604,-335.564 228.632,-338.983 228.575,-331.983"/>
</g>
<!-- \\Mnemo_TagBrowser -->
<g id="node10" class="node"><title>\\Mnemo_TagBrowser</title>
<polygon fill="none" stroke="black" points="580.271,-1114 455.271,-1114 455.271,-1078 580.271,-1078 580.271,-1114"/>
<text text-anchor="middle" x="517.771" y="-1093.2" font-family="Courier,monospace" font-size="11.00">Mnemo_TagBrowser</text>
</g>
<!-- \\Horde_Core_TagBrowser -->
<g id="node32" class="node"><title>\\Horde_Core_TagBrowser</title>
<ellipse fill="none" stroke="black" cx="163.136" cy="-288" rx="104.782" ry="18"/>
<text text-anchor="middle" x="163.136" y="-284.3" font-family="Times,serif" font-size="14.00" fill="gray">\Horde_Core_TagBrowser</text>
</g>
<!-- \\Mnemo_TagBrowser&#45;&gt;\\Horde_Core_TagBrowser -->
<g id="edge9" class="edge"><title>\\Mnemo_TagBrowser&#45;&gt;\\Horde_Core_TagBrowser</title>
<path fill="none" stroke="black" d="M455.141,-1095.99C434.176,-1092.74 412.478,-1085.17 398.271,-1069 287.16,-942.567 441.064,-438.1 326.271,-315 313.013,-300.782 295.329,-292.22 276.514,-287.309"/>
<polygon fill="none" stroke="black" points="277.115,-283.857 266.59,-285.063 275.571,-290.684 277.115,-283.857"/>
</g>
<!-- \\Mnemo_Exception -->
<g id="node11" class="node"><title>\\Mnemo_Exception</title>
<polygon fill="none" stroke="black" points="576.771,-1060 458.771,-1060 458.771,-1024 576.771,-1024 576.771,-1060"/>
<text text-anchor="middle" x="517.771" y="-1039.2" font-family="Courier,monospace" font-size="11.00">Mnemo_Exception</text>
</g>
<!-- \\Horde_Exception_Wrapped -->
<g id="node33" class="node"><title>\\Horde_Exception_Wrapped</title>
<ellipse fill="none" stroke="black" cx="163.136" cy="-234" rx="112.38" ry="18"/>
<text text-anchor="middle" x="163.136" y="-230.3" font-family="Times,serif" font-size="14.00" fill="gray">\Horde_Exception_Wrapped</text>
</g>
<!-- \\Mnemo_Exception&#45;&gt;\\Horde_Exception_Wrapped -->
<g id="edge10" class="edge"><title>\\Mnemo_Exception&#45;&gt;\\Horde_Exception_Wrapped</title>
<path fill="none" stroke="black" d="M458.524,-1042.48C436.538,-1039.53 413.244,-1032.04 398.271,-1015 287.16,-888.567 441.064,-384.1 326.271,-261 315.151,-249.075 300.917,-241.128 285.513,-235.978"/>
<polygon fill="none" stroke="black" points="286.37,-232.581 275.789,-233.122 284.397,-239.298 286.37,-232.581"/>
</g>
<!-- \\Mnemo -->
<g id="node12" class="node"><title>\\Mnemo</title>
<polygon fill="none" stroke="black" points="544.771,-1330 490.771,-1330 490.771,-1294 544.771,-1294 544.771,-1330"/>
<text text-anchor="middle" x="517.771" y="-1309.2" font-family="Courier,monospace" font-size="11.00">Mnemo</text>
</g>
<!-- \\Mnemo_Application -->
<g id="node13" class="node"><title>\\Mnemo_Application</title>
<polygon fill="none" stroke="black" points="583.271,-1006 452.271,-1006 452.271,-970 583.271,-970 583.271,-1006"/>
<text text-anchor="middle" x="517.771" y="-985.2" font-family="Courier,monospace" font-size="11.00">Mnemo_Application</text>
</g>
<!-- \\Horde_Registry_Application -->
<g id="node34" class="node"><title>\\Horde_Registry_Application</title>
<ellipse fill="none" stroke="black" cx="163.136" cy="-180" rx="115.08" ry="18"/>
<text text-anchor="middle" x="163.136" y="-176.3" font-family="Times,serif" font-size="14.00" fill="gray">\Horde_Registry_Application</text>
</g>
<!-- \\Mnemo_Application&#45;&gt;\\Horde_Registry_Application -->
<g id="edge11" class="edge"><title>\\Mnemo_Application&#45;&gt;\\Horde_Registry_Application</title>
<path fill="none" stroke="black" d="M452.053,-987.484C432.067,-983.974 411.782,-976.374 398.271,-961 287.16,-834.567 441.064,-330.1 326.271,-207 315.734,-195.701 302.403,-187.973 287.929,-182.812"/>
<polygon fill="none" stroke="black" points="288.861,-179.436 278.271,-179.779 286.764,-186.115 288.861,-179.436"/>
</g>
<!-- \\Mnemo_View_List -->
<g id="node14" class="node"><title>\\Mnemo_View_List</title>
<polygon fill="none" stroke="black" points="576.771,-1222 458.771,-1222 458.771,-1186 576.771,-1186 576.771,-1222"/>
<text text-anchor="middle" x="517.771" y="-1201.2" font-family="Courier,monospace" font-size="11.00">Mnemo_View_List</text>
</g>
<!-- \\Mnemo_Driver_Kolab -->
<g id="node15" class="node"><title>\\Mnemo_Driver_Kolab</title>
<polygon fill="none" stroke="black" points="586.771,-1976 448.771,-1976 448.771,-1940 586.771,-1940 586.771,-1976"/>
<text text-anchor="middle" x="517.771" y="-1955.2" font-family="Courier,monospace" font-size="11.00">Mnemo_Driver_Kolab</text>
</g>
<!-- \\Mnemo_Driver -->
<g id="node17" class="node"><title>\\Mnemo_Driver</title>
<polygon fill="none" stroke="black" points="212.136,-1949 114.136,-1949 114.136,-1913 212.136,-1913 212.136,-1949"/>
<text text-anchor="start" x="129.136" y="-1934.2" font-family="Courier,monospace" font-size="11.00">«abstract»</text>
<text text-anchor="start" x="122.136" y="-1922.2" font-family="Courier,monospace" font-size="11.00">Mnemo_Driver</text>
</g>
<!-- \\Mnemo_Driver_Kolab&#45;&gt;\\Mnemo_Driver -->
<g id="edge12" class="edge"><title>\\Mnemo_Driver_Kolab&#45;&gt;\\Mnemo_Driver</title>
<path fill="none" stroke="black" d="M448.361,-1952.76C382.621,-1947.73 284.36,-1940.21 222.293,-1935.45"/>
<polygon fill="none" stroke="black" points="222.513,-1931.96 212.275,-1934.69 221.979,-1938.94 222.513,-1931.96"/>
</g>
<!-- \\Mnemo_Driver_Sql -->
<g id="node16" class="node"><title>\\Mnemo_Driver_Sql</title>
<polygon fill="none" stroke="black" points="580.271,-1922 455.271,-1922 455.271,-1886 580.271,-1886 580.271,-1922"/>
<text text-anchor="middle" x="517.771" y="-1901.2" font-family="Courier,monospace" font-size="11.00">Mnemo_Driver_Sql</text>
</g>
<!-- \\Mnemo_Driver_Sql&#45;&gt;\\Mnemo_Driver -->
<g id="edge13" class="edge"><title>\\Mnemo_Driver_Sql&#45;&gt;\\Mnemo_Driver</title>
<path fill="none" stroke="black" d="M454.943,-1908.73C389.454,-1913.75 286.839,-1921.61 222.641,-1926.52"/>
<polygon fill="none" stroke="black" points="221.993,-1923.06 212.289,-1927.31 222.527,-1930.04 221.993,-1923.06"/>
</g>
<!-- \\Mnemo_Tagger -->
<g id="node18" class="node"><title>\\Mnemo_Tagger</title>
<polygon fill="none" stroke="black" points="566.771,-952 468.771,-952 468.771,-916 566.771,-916 566.771,-952"/>
<text text-anchor="middle" x="517.771" y="-931.2" font-family="Courier,monospace" font-size="11.00">Mnemo_Tagger</text>
</g>
<!-- \\Horde_Core_Tagger -->
<g id="node35" class="node"><title>\\Horde_Core_Tagger</title>
<ellipse fill="none" stroke="black" cx="163.136" cy="-126" rx="85.5853" ry="18"/>
<text text-anchor="middle" x="163.136" y="-122.3" font-family="Times,serif" font-size="14.00" fill="gray">\Horde_Core_Tagger</text>
</g>
<!-- \\Mnemo_Tagger&#45;&gt;\\Horde_Core_Tagger -->
<g id="edge14" class="edge"><title>\\Mnemo_Tagger&#45;&gt;\\Horde_Core_Tagger</title>
<path fill="none" stroke="black" d="M468.521,-935.543C443.885,-933.602 415.543,-926.653 398.271,-907 287.16,-780.567 441.064,-276.1 326.271,-153 307.979,-133.384 281.262,-124.532 254.773,-121.185"/>
<polygon fill="none" stroke="black" points="254.952,-117.686 244.65,-120.161 254.247,-124.65 254.952,-117.686"/>
</g>
<!-- \\Mnemo_Notepads_Kolab -->
<g id="node19" class="node"><title>\\Mnemo_Notepads_Kolab</title>
<polygon fill="none" stroke="black" points="593.771,-1868 441.771,-1868 441.771,-1832 593.771,-1832 593.771,-1868"/>
<text text-anchor="middle" x="517.771" y="-1847.2" font-family="Courier,monospace" font-size="11.00">Mnemo_Notepads_Kolab</text>
</g>
<!-- \\Mnemo_Notepads_Base -->
<g id="node21" class="node"><title>\\Mnemo_Notepads_Base</title>
<polygon fill="none" stroke="black" points="235.636,-1841 90.6355,-1841 90.6355,-1805 235.636,-1805 235.636,-1841"/>
<text text-anchor="start" x="129.136" y="-1826.2" font-family="Courier,monospace" font-size="11.00">«abstract»</text>
<text text-anchor="start" x="98.6355" y="-1814.2" font-family="Courier,monospace" font-size="11.00">Mnemo_Notepads_Base</text>
</g>
<!-- \\Mnemo_Notepads_Kolab&#45;&gt;\\Mnemo_Notepads_Base -->
<g id="edge15" class="edge"><title>\\Mnemo_Notepads_Kolab&#45;&gt;\\Mnemo_Notepads_Base</title>
<path fill="none" stroke="black" d="M441.554,-1844.24C384.095,-1839.84 304.999,-1833.79 245.962,-1829.27"/>
<polygon fill="none" stroke="black" points="246.163,-1825.77 235.925,-1828.5 245.629,-1832.75 246.163,-1825.77"/>
</g>
<!-- \\Mnemo_Notepads_Default -->
<g id="node20" class="node"><title>\\Mnemo_Notepads_Default</title>
<polygon fill="none" stroke="black" points="600.271,-1814 435.271,-1814 435.271,-1778 600.271,-1778 600.271,-1814"/>
<text text-anchor="middle" x="517.771" y="-1793.2" font-family="Courier,monospace" font-size="11.00">Mnemo_Notepads_Default</text>
</g>
<!-- \\Mnemo_Notepads_Default&#45;&gt;\\Mnemo_Notepads_Base -->
<g id="edge16" class="edge"><title>\\Mnemo_Notepads_Default&#45;&gt;\\Mnemo_Notepads_Base</title>
<path fill="none" stroke="black" d="M434.983,-1802.26C378.17,-1806.61 302.765,-1812.39 245.947,-1816.74"/>
<polygon fill="none" stroke="black" points="245.625,-1813.25 235.922,-1817.5 246.16,-1820.23 245.625,-1813.25"/>
</g>
<!-- \\Mnemo_Factory_Notepads -->
<g id="node22" class="node"><title>\\Mnemo_Factory_Notepads</title>
<polygon fill="none" stroke="black" points="600.271,-898 435.271,-898 435.271,-862 600.271,-862 600.271,-898"/>
<text text-anchor="middle" x="517.771" y="-877.2" font-family="Courier,monospace" font-size="11.00">Mnemo_Factory_Notepads</text>
</g>
<!-- \\Mnemo_Factory_TagBrowser -->
<g id="node23" class="node"><title>\\Mnemo_Factory_TagBrowser</title>
<polygon fill="none" stroke="black" points="607.271,-844 428.271,-844 428.271,-808 607.271,-808 607.271,-844"/>
<text text-anchor="middle" x="517.771" y="-823.2" font-family="Courier,monospace" font-size="11.00">Mnemo_Factory_TagBrowser</text>
</g>
<!-- \\Horde_Core_Factory_Base -->
<g id="node37" class="node"><title>\\Horde_Core_Factory_Base</title>
<ellipse fill="none" stroke="black" cx="163.136" cy="-72" rx="109.381" ry="18"/>
<text text-anchor="middle" x="163.136" y="-68.3" font-family="Times,serif" font-size="14.00" fill="gray">\Horde_Core_Factory_Base</text>
</g>
<!-- \\Mnemo_Factory_TagBrowser&#45;&gt;\\Horde_Core_Factory_Base -->
<g id="edge18" class="edge"><title>\\Mnemo_Factory_TagBrowser&#45;&gt;\\Horde_Core_Factory_Base</title>
<path fill="none" stroke="black" d="M428.026,-818.86C416.721,-814.45 406.313,-808.084 398.271,-799 294.615,-681.915 433.336,-212.976 326.271,-99 314.267,-86.2209 298.685,-78.0206 281.935,-72.9374"/>
<polygon fill="none" stroke="black" points="282.519,-69.4714 271.956,-70.2936 280.726,-76.2379 282.519,-69.4714"/>
</g>
<!-- \\Mnemo_Factory_Driver -->
<g id="node24" class="node"><title>\\Mnemo_Factory_Driver</title>
<polygon fill="none" stroke="black" points="593.771,-790 441.771,-790 441.771,-754 593.771,-754 593.771,-790"/>
<text text-anchor="middle" x="517.771" y="-769.2" font-family="Courier,monospace" font-size="11.00">Mnemo_Factory_Driver</text>
</g>
<!-- \\Mnemo_Block_Note -->
<g id="node25" class="node"><title>\\Mnemo_Block_Note</title>
<polygon fill="none" stroke="black" points="580.271,-736 455.271,-736 455.271,-700 580.271,-700 580.271,-736"/>
<text text-anchor="middle" x="517.771" y="-715.2" font-family="Courier,monospace" font-size="11.00">Mnemo_Block_Note</text>
</g>
<!-- \\Horde_Core_Block -->
<g id="node38" class="node"><title>\\Horde_Core_Block</title>
<ellipse fill="none" stroke="black" cx="163.136" cy="-18" rx="81.7856" ry="18"/>
<text text-anchor="middle" x="163.136" y="-14.3" font-family="Times,serif" font-size="14.00" fill="gray">\Horde_Core_Block</text>
</g>
<!-- \\Mnemo_Block_Note&#45;&gt;\\Horde_Core_Block -->
<g id="edge19" class="edge"><title>\\Mnemo_Block_Note&#45;&gt;\\Horde_Core_Block</title>
<path fill="none" stroke="black" d="M454.971,-717.823C434.117,-714.527 412.535,-706.975 398.271,-691 205.86,-475.513 524.955,-254.717 326.271,-45 306.956,-24.6129 278.531,-15.9104 250.853,-12.9216"/>
<polygon fill="none" stroke="black" points="250.967,-9.41884 240.709,-12.0679 250.38,-16.3942 250.967,-9.41884"/>
</g>
<!-- \\Mnemo_Block_Summary -->
<g id="node26" class="node"><title>\\Mnemo_Block_Summary</title>
<polygon fill="none" stroke="black" points="590.271,-682 445.271,-682 445.271,-646 590.271,-646 590.271,-682"/>
<text text-anchor="middle" x="517.771" y="-661.2" font-family="Courier,monospace" font-size="11.00">Mnemo_Block_Summary</text>
</g>
<!-- \\Mnemo_Block_Summary&#45;&gt;\\Horde_Core_Block -->
<g id="edge20" class="edge"><title>\\Mnemo_Block_Summary&#45;&gt;\\Horde_Core_Block</title>
<path fill="none" stroke="black" d="M517.458,-645.739C519.533,-561.937 516.275,-211.185 326.271,-45 306.455,-27.6684 279.866,-19.322 253.958,-15.7355"/>
<polygon fill="none" stroke="black" points="254.03,-12.2206 243.694,-14.549 253.226,-19.1743 254.03,-12.2206"/>
</g>
</g>
</svg>
