<?xml version="1.0" encoding="UTF-8" standalone="no"?>
<!DOCTYPE svg PUBLIC "-//W3C//DTD SVG 1.1//EN"
 "http://www.w3.org/Graphics/SVG/1.1/DTD/svg11.dtd">
<!-- Generated by graphviz version 2.38.0 (20140413.2041)
 -->
<!-- Title: G Pages: 1 -->
<svg width="857pt" height="1860pt"
 viewBox="0.00 0.00 856.66 1860.00" xmlns="http://www.w3.org/2000/svg" xmlns:xlink="http://www.w3.org/1999/xlink">
<g id="graph0" class="graph" transform="scale(1 1) rotate(0) translate(4 1856)">
<title>G</title>
<polygon fill="white" stroke="none" points="-4,4 -4,-1856 852.664,-1856 852.664,4 -4,4"/>
<g id="clust1" class="cluster"><title>cluster_Global</title>
<path fill="none" stroke="gray" d="M276.327,-476C276.327,-476 828.664,-476 828.664,-476 834.664,-476 840.664,-482 840.664,-488 840.664,-488 840.664,-1832 840.664,-1832 840.664,-1838 834.664,-1844 828.664,-1844 828.664,-1844 276.327,-1844 276.327,-1844 270.327,-1844 264.327,-1838 264.327,-1832 264.327,-1832 264.327,-488 264.327,-488 264.327,-482 270.327,-476 276.327,-476"/>
<text text-anchor="middle" x="552.496" y="-1831.2" font-family="Times,serif" font-size="11.00" fill="gray">Global</text>
</g>
<!-- \\Sesha_Api -->
<g id="node1" class="node"><title>\\Sesha_Api</title>
<polygon fill="none" stroke="black" points="727.664,-1708 650.664,-1708 650.664,-1672 727.664,-1672 727.664,-1708"/>
<text text-anchor="middle" x="689.164" y="-1687.2" font-family="Courier,monospace" font-size="11.00">Sesha_Api</text>
</g>
<!-- \\Horde_Registry_Api -->
<g id="node28" class="node"><title>\\Horde_Registry_Api</title>
<ellipse fill="none" stroke="black" cx="331.327" cy="-450" rx="87.1846" ry="18"/>
<text text-anchor="middle" x="331.327" y="-446.3" font-family="Times,serif" font-size="14.00" fill="gray">\Horde_Registry_Api</text>
</g>
<!-- \\Sesha_Api&#45;&gt;\\Horde_Registry_Api -->
<g id="edge1" class="edge"><title>\\Sesha_Api&#45;&gt;\\Horde_Registry_Api</title>
<path fill="none" stroke="black" d="M650.529,-1694.42C617.653,-1695.96 571.29,-1692.1 545.664,-1663 370.438,-1464 652.134,-668.094 473.664,-472 460.983,-458.067 443.406,-450.46 424.948,-446.653"/>
<polygon fill="none" stroke="black" points="425.378,-443.176 414.933,-444.954 424.207,-450.077 425.378,-443.176"/>
</g>
<!-- \\Sesha_Form_CategoryList -->
<g id="node2" class="node"><title>\\Sesha_Form_CategoryList</title>
<polygon fill="none" stroke="black" points="775.164,-1654 603.164,-1654 603.164,-1618 775.164,-1618 775.164,-1654"/>
<text text-anchor="middle" x="689.164" y="-1633.2" font-family="Courier,monospace" font-size="11.00">Sesha_Form_CategoryList</text>
</g>
<!-- \\Horde_Form -->
<g id="node29" class="node"><title>\\Horde_Form</title>
<ellipse fill="none" stroke="black" cx="331.327" cy="-396" rx="59.2899" ry="18"/>
<text text-anchor="middle" x="331.327" y="-392.3" font-family="Times,serif" font-size="14.00" fill="gray">\Horde_Form</text>
</g>
<!-- \\Sesha_Form_CategoryList&#45;&gt;\\Horde_Form -->
<g id="edge2" class="edge"><title>\\Sesha_Form_CategoryList&#45;&gt;\\Horde_Form</title>
<path fill="none" stroke="black" d="M603.153,-1637.8C581.482,-1633.92 560.227,-1625.53 545.664,-1609 371.146,-1410.86 648.034,-621.275 473.664,-423 455.305,-402.124 426.2,-394.296 399.16,-392.116"/>
<polygon fill="none" stroke="black" points="399.105,-388.608 388.925,-391.542 398.713,-395.597 399.105,-388.608"/>
</g>
<!-- \\Sesha_Form_PropertyDelete -->
<g id="node3" class="node"><title>\\Sesha_Form_PropertyDelete</title>
<polygon fill="none" stroke="black" points="781.664,-1600 596.664,-1600 596.664,-1564 781.664,-1564 781.664,-1600"/>
<text text-anchor="middle" x="689.164" y="-1579.2" font-family="Courier,monospace" font-size="11.00">Sesha_Form_PropertyDelete</text>
</g>
<!-- \\Sesha_Form_PropertyDelete&#45;&gt;\\Horde_Form -->
<g id="edge3" class="edge"><title>\\Sesha_Form_PropertyDelete&#45;&gt;\\Horde_Form</title>
<path fill="none" stroke="black" d="M596.517,-1582.42C577.21,-1578.08 558.75,-1569.81 545.664,-1555 378.789,-1366.08 640.397,-612.041 473.664,-423 455.275,-402.151 426.166,-394.326 399.132,-392.142"/>
<polygon fill="none" stroke="black" points="399.08,-388.633 388.899,-391.565 398.686,-395.622 399.08,-388.633"/>
</g>
<!-- \\Sesha_Form_PropertyList -->
<g id="node4" class="node"><title>\\Sesha_Form_PropertyList</title>
<polygon fill="none" stroke="black" points="775.164,-1546 603.164,-1546 603.164,-1510 775.164,-1510 775.164,-1546"/>
<text text-anchor="middle" x="689.164" y="-1525.2" font-family="Courier,monospace" font-size="11.00">Sesha_Form_PropertyList</text>
</g>
<!-- \\Sesha_Form_PropertyList&#45;&gt;\\Horde_Form -->
<g id="edge4" class="edge"><title>\\Sesha_Form_PropertyList&#45;&gt;\\Horde_Form</title>
<path fill="none" stroke="black" d="M602.847,-1529.67C581.305,-1525.77 560.193,-1517.4 545.664,-1501 386.432,-1321.31 632.762,-602.808 473.664,-423 455.242,-402.18 426.129,-394.359 399.1,-392.17"/>
<polygon fill="none" stroke="black" points="399.051,-388.661 388.87,-391.591 398.656,-395.65 399.051,-388.661"/>
</g>
<!-- \\Sesha_Form_CategoryDelete -->
<g id="node5" class="node"><title>\\Sesha_Form_CategoryDelete</title>
<polygon fill="none" stroke="black" points="781.664,-1492 596.664,-1492 596.664,-1456 781.664,-1456 781.664,-1492"/>
<text text-anchor="middle" x="689.164" y="-1471.2" font-family="Courier,monospace" font-size="11.00">Sesha_Form_CategoryDelete</text>
</g>
<!-- \\Sesha_Form_CategoryDelete&#45;&gt;\\Horde_Form -->
<g id="edge5" class="edge"><title>\\Sesha_Form_CategoryDelete&#45;&gt;\\Horde_Form</title>
<path fill="none" stroke="black" d="M596.588,-1474.36C577.278,-1470.02 558.8,-1461.77 545.664,-1447 394.073,-1276.54 625.128,-593.577 473.664,-423 455.206,-402.212 426.087,-394.395 399.065,-392.201"/>
<polygon fill="none" stroke="black" points="399.02,-388.692 388.837,-391.619 398.623,-395.681 399.02,-388.692"/>
</g>
<!-- \\Sesha_Form_Search -->
<g id="node6" class="node"><title>\\Sesha_Form_Search</title>
<polygon fill="none" stroke="black" points="754.664,-1438 623.664,-1438 623.664,-1402 754.664,-1402 754.664,-1438"/>
<text text-anchor="middle" x="689.164" y="-1417.2" font-family="Courier,monospace" font-size="11.00">Sesha_Form_Search</text>
</g>
<!-- \\Sesha_Form_Search&#45;&gt;\\Horde_Form -->
<g id="edge6" class="edge"><title>\\Sesha_Form_Search&#45;&gt;\\Horde_Form</title>
<path fill="none" stroke="black" d="M623.648,-1424.11C595.664,-1422.24 564.949,-1414.6 545.664,-1393 401.712,-1231.76 617.495,-584.347 473.664,-423 455.165,-402.248 426.042,-394.436 399.026,-392.235"/>
<polygon fill="none" stroke="black" points="398.985,-388.727 388.802,-391.651 398.586,-395.716 398.985,-388.727"/>
</g>
<!-- \\Sesha_Form_Stock -->
<g id="node7" class="node"><title>\\Sesha_Form_Stock</title>
<polygon fill="none" stroke="black" points="751.664,-1384 626.664,-1384 626.664,-1348 751.664,-1348 751.664,-1384"/>
<text text-anchor="middle" x="689.164" y="-1363.2" font-family="Courier,monospace" font-size="11.00">Sesha_Form_Stock</text>
</g>
<!-- \\Sesha_Form_Stock&#45;&gt;\\Horde_Form -->
<g id="edge7" class="edge"><title>\\Sesha_Form_Stock&#45;&gt;\\Horde_Form</title>
<path fill="none" stroke="black" d="M626.599,-1370.25C597.866,-1368.71 565.669,-1361.31 545.664,-1339 409.35,-1186.98 609.865,-575.12 473.664,-423 455.12,-402.288 425.991,-394.482 398.983,-392.274"/>
<polygon fill="none" stroke="black" points="398.947,-388.766 388.762,-391.686 398.545,-395.754 398.947,-388.766"/>
</g>
<!-- \\Sesha_Form_Category -->
<g id="node8" class="node"><title>\\Sesha_Form_Category</title>
<polygon fill="none" stroke="black" points="761.664,-1330 616.664,-1330 616.664,-1294 761.664,-1294 761.664,-1330"/>
<text text-anchor="middle" x="689.164" y="-1309.2" font-family="Courier,monospace" font-size="11.00">Sesha_Form_Category</text>
</g>
<!-- \\Sesha_Form_Category&#45;&gt;\\Horde_Form -->
<g id="edge8" class="edge"><title>\\Sesha_Form_Category&#45;&gt;\\Horde_Form</title>
<path fill="none" stroke="black" d="M616.39,-1315.4C590.516,-1312.71 563.363,-1304.64 545.664,-1285 416.985,-1142.2 602.236,-565.895 473.664,-423 455.144,-402.416 426.166,-394.595 399.257,-392.344"/>
<polygon fill="none" stroke="black" points="399.262,-388.838 389.072,-391.739 398.847,-395.826 399.262,-388.838"/>
</g>
<!-- \\Sesha_Form_Property -->
<g id="node9" class="node"><title>\\Sesha_Form_Property</title>
<polygon fill="none" stroke="black" points="761.664,-1276 616.664,-1276 616.664,-1240 761.664,-1240 761.664,-1276"/>
<text text-anchor="middle" x="689.164" y="-1255.2" font-family="Courier,monospace" font-size="11.00">Sesha_Form_Property</text>
</g>
<!-- \\Sesha_Form_Property&#45;&gt;\\Horde_Form -->
<g id="edge9" class="edge"><title>\\Sesha_Form_Property&#45;&gt;\\Horde_Form</title>
<path fill="none" stroke="black" d="M616.447,-1261.35C590.58,-1258.65 563.418,-1250.59 545.664,-1231 424.618,-1097.42 594.61,-556.672 473.664,-423 455.087,-402.468 426.101,-394.654 399.202,-392.393"/>
<polygon fill="none" stroke="black" points="399.213,-388.888 389.021,-391.784 398.794,-395.875 399.213,-388.888"/>
</g>
<!-- \\Sesha_Form_Type_Client -->
<g id="node10" class="node"><title>\\Sesha_Form_Type_Client</title>
<polygon fill="none" stroke="black" points="771.664,-1222 606.664,-1222 606.664,-1186 771.664,-1186 771.664,-1222"/>
<text text-anchor="middle" x="689.164" y="-1201.2" font-family="Courier,monospace" font-size="11.00">Sesha_Form_Type_Client</text>
</g>
<!-- \\Horde_Form_Type_enum -->
<g id="node30" class="node"><title>\\Horde_Form_Type_enum</title>
<ellipse fill="none" stroke="black" cx="331.327" cy="-342" rx="105.881" ry="18"/>
<text text-anchor="middle" x="331.327" y="-338.3" font-family="Times,serif" font-size="14.00" fill="gray">\Horde_Form_Type_enum</text>
</g>
<!-- \\Sesha_Form_Type_Client&#45;&gt;\\Horde_Form_Type_enum -->
<g id="edge10" class="edge"><title>\\Sesha_Form_Type_Client&#45;&gt;\\Horde_Form_Type_enum</title>
<path fill="none" stroke="black" d="M606.428,-1206.03C583.751,-1202.39 561.135,-1194.07 545.664,-1177 424.618,-1043.42 594.61,-502.672 473.664,-369 465.757,-360.26 455.963,-353.825 445.248,-349.141"/>
<polygon fill="none" stroke="black" points="446.208,-345.762 435.618,-345.462 443.71,-352.301 446.208,-345.762"/>
</g>
<!-- \\Sesha_Exception -->
<g id="node11" class="node"><title>\\Sesha_Exception</title>
<polygon fill="none" stroke="black" points="748.164,-1168 630.164,-1168 630.164,-1132 748.164,-1132 748.164,-1168"/>
<text text-anchor="middle" x="689.164" y="-1147.2" font-family="Courier,monospace" font-size="11.00">Sesha_Exception</text>
</g>
<!-- \\Horde_Exception_Wrapped -->
<g id="node31" class="node"><title>\\Horde_Exception_Wrapped</title>
<ellipse fill="none" stroke="black" cx="331.327" cy="-288" rx="112.38" ry="18"/>
<text text-anchor="middle" x="331.327" y="-284.3" font-family="Times,serif" font-size="14.00" fill="gray">\Horde_Exception_Wrapped</text>
</g>
<!-- \\Sesha_Exception&#45;&gt;\\Horde_Exception_Wrapped -->
<g id="edge11" class="edge"><title>\\Sesha_Exception&#45;&gt;\\Horde_Exception_Wrapped</title>
<path fill="none" stroke="black" d="M629.94,-1154.31C600.444,-1153.14 566.545,-1146.04 545.664,-1123 424.618,-989.419 594.61,-448.672 473.664,-315 466.751,-307.359 458.395,-301.479 449.242,-296.991"/>
<polygon fill="none" stroke="black" points="450.417,-293.687 439.848,-292.954 447.653,-300.118 450.417,-293.687"/>
</g>
<!-- \\Sesha_Application -->
<g id="node12" class="node"><title>\\Sesha_Application</title>
<polygon fill="none" stroke="black" points="754.664,-1060 623.664,-1060 623.664,-1024 754.664,-1024 754.664,-1060"/>
<text text-anchor="middle" x="689.164" y="-1039.2" font-family="Courier,monospace" font-size="11.00">Sesha_Application</text>
</g>
<!-- \\Horde_Registry_Application -->
<g id="node32" class="node"><title>\\Horde_Registry_Application</title>
<ellipse fill="none" stroke="black" cx="331.327" cy="-234" rx="115.08" ry="18"/>
<text text-anchor="middle" x="331.327" y="-230.3" font-family="Times,serif" font-size="14.00" fill="gray">\Horde_Registry_Application</text>
</g>
<!-- \\Sesha_Application&#45;&gt;\\Horde_Registry_Application -->
<g id="edge12" class="edge"><title>\\Sesha_Application&#45;&gt;\\Horde_Registry_Application</title>
<path fill="none" stroke="black" d="M623.49,-1045.9C595.647,-1043.95 565.091,-1036.3 545.664,-1015 432.248,-890.631 586.987,-385.454 473.664,-261 467.048,-253.734 459.129,-248.064 450.462,-243.67"/>
<polygon fill="none" stroke="black" points="451.742,-240.409 441.183,-239.54 448.896,-246.804 451.742,-240.409"/>
</g>
<!-- \\Sesha_View_List -->
<g id="node13" class="node"><title>\\Sesha_View_List</title>
<polygon fill="none" stroke="black" points="748.164,-1816 630.164,-1816 630.164,-1780 748.164,-1780 748.164,-1816"/>
<text text-anchor="middle" x="689.164" y="-1795.2" font-family="Courier,monospace" font-size="11.00">Sesha_View_List</text>
</g>
<!-- \\Sesha_View_Base -->
<g id="node14" class="node"><title>\\Sesha_View_Base</title>
<polygon fill="none" stroke="black" points="390.327,-1816 272.327,-1816 272.327,-1780 390.327,-1780 390.327,-1816"/>
<text text-anchor="middle" x="331.327" y="-1795.2" font-family="Courier,monospace" font-size="11.00">Sesha_View_Base</text>
</g>
<!-- \\Sesha_View_List&#45;&gt;\\Sesha_View_Base -->
<g id="edge13" class="edge"><title>\\Sesha_View_List&#45;&gt;\\Sesha_View_Base</title>
<path fill="none" stroke="black" d="M629.804,-1798C567.013,-1798 467.245,-1798 400.793,-1798"/>
<polygon fill="none" stroke="black" points="400.424,-1794.5 390.424,-1798 400.424,-1801.5 400.424,-1794.5"/>
</g>
<!-- \\Horde_View -->
<g id="node33" class="node"><title>\\Horde_View</title>
<ellipse fill="none" stroke="black" cx="58.4948" cy="-1798" rx="58.4896" ry="18"/>
<text text-anchor="middle" x="58.4948" y="-1794.3" font-family="Times,serif" font-size="14.00" fill="gray">\Horde_View</text>
</g>
<!-- \\Sesha_View_Base&#45;&gt;\\Horde_View -->
<g id="edge14" class="edge"><title>\\Sesha_View_Base&#45;&gt;\\Horde_View</title>
<path fill="none" stroke="black" d="M272.227,-1798C229.689,-1798 171.844,-1798 127.21,-1798"/>
<polygon fill="none" stroke="black" points="127.034,-1794.5 117.034,-1798 127.034,-1801.5 127.034,-1794.5"/>
</g>
<!-- \\Sesha -->
<g id="node15" class="node"><title>\\Sesha</title>
<polygon fill="none" stroke="black" points="716.164,-1114 662.164,-1114 662.164,-1078 716.164,-1078 716.164,-1114"/>
<text text-anchor="middle" x="689.164" y="-1093.2" font-family="Courier,monospace" font-size="11.00">Sesha</text>
</g>
<!-- \\Sesha_Driver_Rdo -->
<g id="node16" class="node"><title>\\Sesha_Driver_Rdo</title>
<polygon fill="none" stroke="black" points="751.664,-1762 626.664,-1762 626.664,-1726 751.664,-1726 751.664,-1762"/>
<text text-anchor="middle" x="689.164" y="-1741.2" font-family="Courier,monospace" font-size="11.00">Sesha_Driver_Rdo</text>
</g>
<!-- \\Sesha_Driver -->
<g id="node17" class="node"><title>\\Sesha_Driver</title>
<polygon fill="none" stroke="black" points="380.327,-1762 282.327,-1762 282.327,-1726 380.327,-1726 380.327,-1762"/>
<text text-anchor="start" x="297.327" y="-1747.2" font-family="Courier,monospace" font-size="11.00">«abstract»</text>
<text text-anchor="start" x="290.327" y="-1735.2" font-family="Courier,monospace" font-size="11.00">Sesha_Driver</text>
</g>
<!-- \\Sesha_Driver_Rdo&#45;&gt;\\Sesha_Driver -->
<g id="edge15" class="edge"><title>\\Sesha_Driver_Rdo&#45;&gt;\\Sesha_Driver</title>
<path fill="none" stroke="black" d="M626.588,-1744C560.22,-1744 455.389,-1744 390.409,-1744"/>
<polygon fill="none" stroke="black" points="390.335,-1740.5 380.334,-1744 390.334,-1747.5 390.335,-1740.5"/>
</g>
<!-- \\Sesha_Entity_ValueMapper -->
<g id="node18" class="node"><title>\\Sesha_Entity_ValueMapper</title>
<polygon fill="none" stroke="black" points="778.664,-952 599.664,-952 599.664,-916 778.664,-916 778.664,-952"/>
<text text-anchor="middle" x="689.164" y="-931.2" font-family="Courier,monospace" font-size="11.00">Sesha_Entity_ValueMapper</text>
</g>
<!-- \\Horde_Rdo_Mapper -->
<g id="node34" class="node"><title>\\Horde_Rdo_Mapper</title>
<ellipse fill="none" stroke="black" cx="331.327" cy="-180" rx="86.3847" ry="18"/>
<text text-anchor="middle" x="331.327" y="-176.3" font-family="Times,serif" font-size="14.00" fill="gray">\Horde_Rdo_Mapper</text>
</g>
<!-- \\Sesha_Entity_ValueMapper&#45;&gt;\\Horde_Rdo_Mapper -->
<g id="edge16" class="edge"><title>\\Sesha_Entity_ValueMapper&#45;&gt;\\Horde_Rdo_Mapper</title>
<path fill="none" stroke="black" d="M599.519,-934.609C579.273,-930.44 559.633,-922.205 545.664,-907 334.083,-676.68 685.073,-437.479 473.664,-207 461.482,-193.719 444.942,-185.779 427.468,-181.225"/>
<polygon fill="none" stroke="black" points="428.209,-177.804 417.686,-179.03 426.677,-184.634 428.209,-177.804"/>
</g>
<!-- \\Sesha_Entity_CategoryMapper -->
<g id="node19" class="node"><title>\\Sesha_Entity_CategoryMapper</title>
<polygon fill="none" stroke="black" points="788.664,-898 589.664,-898 589.664,-862 788.664,-862 788.664,-898"/>
<text text-anchor="middle" x="689.164" y="-877.2" font-family="Courier,monospace" font-size="11.00">Sesha_Entity_CategoryMapper</text>
</g>
<!-- \\Sesha_Entity_CategoryMapper&#45;&gt;\\Horde_Rdo_Mapper -->
<g id="edge17" class="edge"><title>\\Sesha_Entity_CategoryMapper&#45;&gt;\\Horde_Rdo_Mapper</title>
<path fill="none" stroke="black" d="M589.314,-878.024C572.81,-873.352 557.301,-865.56 545.664,-853 349.324,-641.086 669.845,-419.061 473.664,-207 461.61,-193.97 445.359,-186.093 428.17,-181.513"/>
<polygon fill="none" stroke="black" points="428.493,-177.997 417.965,-179.183 426.935,-184.821 428.493,-177.997"/>
</g>
<!-- \\Sesha_Entity_Stock -->
<g id="node20" class="node"><title>\\Sesha_Entity_Stock</title>
<polygon fill="none" stroke="black" points="758.164,-736 620.164,-736 620.164,-700 758.164,-700 758.164,-736"/>
<text text-anchor="middle" x="689.164" y="-715.2" font-family="Courier,monospace" font-size="11.00">Sesha_Entity_Stock</text>
</g>
<!-- \\Horde_Rdo_Base -->
<g id="node35" class="node"><title>\\Horde_Rdo_Base</title>
<ellipse fill="none" stroke="black" cx="331.327" cy="-126" rx="75.2868" ry="18"/>
<text text-anchor="middle" x="331.327" y="-122.3" font-family="Times,serif" font-size="14.00" fill="gray">\Horde_Rdo_Base</text>
</g>
<!-- \\Sesha_Entity_Stock&#45;&gt;\\Horde_Rdo_Base -->
<g id="edge18" class="edge"><title>\\Sesha_Entity_Stock&#45;&gt;\\Horde_Rdo_Base</title>
<path fill="none" stroke="black" d="M619.836,-721.227C593.174,-718.779 564.538,-710.926 545.664,-691 379.766,-515.855 639.431,-328.27 473.664,-153 458.771,-137.253 437.74,-129.079 416.44,-125.152"/>
<polygon fill="none" stroke="black" points="416.74,-121.657 406.324,-123.594 415.674,-128.576 416.74,-121.657"/>
</g>
<!-- \\Sesha_Entity_Category -->
<g id="node21" class="node"><title>\\Sesha_Entity_Category</title>
<polygon fill="none" stroke="black" points="768.164,-682 610.164,-682 610.164,-646 768.164,-646 768.164,-682"/>
<text text-anchor="middle" x="689.164" y="-661.2" font-family="Courier,monospace" font-size="11.00">Sesha_Entity_Category</text>
</g>
<!-- \\Sesha_Entity_Category&#45;&gt;\\Horde_Rdo_Base -->
<g id="edge19" class="edge"><title>\\Sesha_Entity_Category&#45;&gt;\\Horde_Rdo_Base</title>
<path fill="none" stroke="black" d="M610.011,-665.912C586.39,-662.496 562.328,-654.337 545.664,-637 394.957,-480.207 624.254,-309.906 473.664,-153 458.657,-137.363 437.588,-129.223 416.29,-125.296"/>
<polygon fill="none" stroke="black" points="416.594,-121.801 406.177,-123.734 415.525,-128.719 416.594,-121.801"/>
</g>
<!-- \\Sesha_Entity_StockMapper -->
<g id="node22" class="node"><title>\\Sesha_Entity_StockMapper</title>
<polygon fill="none" stroke="black" points="778.664,-844 599.664,-844 599.664,-808 778.664,-808 778.664,-844"/>
<text text-anchor="middle" x="689.164" y="-823.2" font-family="Courier,monospace" font-size="11.00">Sesha_Entity_StockMapper</text>
</g>
<!-- \\Sesha_Entity_StockMapper&#45;&gt;\\Horde_Rdo_Mapper -->
<g id="edge20" class="edge"><title>\\Sesha_Entity_StockMapper&#45;&gt;\\Horde_Rdo_Mapper</title>
<path fill="none" stroke="black" d="M599.343,-826.352C579.224,-822.163 559.687,-813.983 545.664,-799 364.553,-605.479 654.63,-400.657 473.664,-207 461.545,-194.031 445.265,-186.181 428.067,-181.608"/>
<polygon fill="none" stroke="black" points="428.388,-178.091 417.86,-179.28 426.832,-184.916 428.388,-178.091"/>
</g>
<!-- \\Sesha_Entity_Property -->
<g id="node23" class="node"><title>\\Sesha_Entity_Property</title>
<polygon fill="none" stroke="black" points="768.164,-628 610.164,-628 610.164,-592 768.164,-592 768.164,-628"/>
<text text-anchor="middle" x="689.164" y="-607.2" font-family="Courier,monospace" font-size="11.00">Sesha_Entity_Property</text>
</g>
<!-- \\Sesha_Entity_Property&#45;&gt;\\Horde_Rdo_Base -->
<g id="edge21" class="edge"><title>\\Sesha_Entity_Property&#45;&gt;\\Horde_Rdo_Base</title>
<path fill="none" stroke="black" d="M609.826,-611.678C586.335,-608.219 562.397,-600.094 545.664,-583 410.118,-444.528 609.107,-291.574 473.664,-153 458.59,-137.577 437.61,-129.486 416.422,-125.535"/>
<polygon fill="none" stroke="black" points="416.783,-122.049 406.362,-123.957 415.698,-128.964 416.783,-122.049"/>
</g>
<!-- \\Sesha_Entity_PropertyMapper -->
<g id="node24" class="node"><title>\\Sesha_Entity_PropertyMapper</title>
<polygon fill="none" stroke="black" points="788.664,-1006 589.664,-1006 589.664,-970 788.664,-970 788.664,-1006"/>
<text text-anchor="middle" x="689.164" y="-985.2" font-family="Courier,monospace" font-size="11.00">Sesha_Entity_PropertyMapper</text>
</g>
<!-- \\Sesha_Entity_PropertyMapper&#45;&gt;\\Horde_Rdo_Mapper -->
<g id="edge22" class="edge"><title>\\Sesha_Entity_PropertyMapper&#45;&gt;\\Horde_Rdo_Mapper</title>
<path fill="none" stroke="black" d="M589.516,-986.275C572.892,-981.602 557.287,-973.744 545.664,-961 432.248,-836.631 586.987,-331.454 473.664,-207 461.531,-193.675 445.012,-185.715 427.543,-181.156"/>
<polygon fill="none" stroke="black" points="428.286,-177.736 417.762,-178.96 426.753,-184.566 428.286,-177.736"/>
</g>
<!-- \\Sesha_Entity_Value -->
<g id="node25" class="node"><title>\\Sesha_Entity_Value</title>
<polygon fill="none" stroke="black" points="758.164,-790 620.164,-790 620.164,-754 758.164,-754 758.164,-790"/>
<text text-anchor="middle" x="689.164" y="-769.2" font-family="Courier,monospace" font-size="11.00">Sesha_Entity_Value</text>
</g>
<!-- \\Sesha_Entity_Value&#45;&gt;\\Horde_Rdo_Base -->
<g id="edge23" class="edge"><title>\\Sesha_Entity_Value&#45;&gt;\\Horde_Rdo_Base</title>
<path fill="none" stroke="black" d="M620.085,-775.372C593.299,-772.98 564.504,-765.131 545.664,-745 364.553,-551.479 654.63,-346.657 473.664,-153 458.793,-137.085 437.656,-128.879 416.247,-124.977"/>
<polygon fill="none" stroke="black" points="416.49,-121.474 406.078,-123.434 415.44,-128.395 416.49,-121.474"/>
</g>
<!-- \\Horde_Core_UI_VarRenderer_Stockedit_Html -->
<g id="node26" class="node"><title>\\Horde_Core_UI_VarRenderer_Stockedit_Html</title>
<polygon fill="none" stroke="black" points="832.664,-574 545.664,-574 545.664,-538 832.664,-538 832.664,-574"/>
<text text-anchor="middle" x="689.164" y="-553.2" font-family="Courier,monospace" font-size="11.00">Horde_Core_UI_VarRenderer_Stockedit_Html</text>
</g>
<!-- \\Horde_Core_Ui_VarRenderer_Html -->
<g id="node36" class="node"><title>\\Horde_Core_Ui_VarRenderer_Html</title>
<ellipse fill="none" stroke="black" cx="331.327" cy="-72" rx="142.175" ry="18"/>
<text text-anchor="middle" x="331.327" y="-68.3" font-family="Times,serif" font-size="14.00" fill="gray">\Horde_Core_Ui_VarRenderer_Html</text>
</g>
<!-- \\Horde_Core_UI_VarRenderer_Stockedit_Html&#45;&gt;\\Horde_Core_Ui_VarRenderer_Html -->
<g id="edge24" class="edge"><title>\\Horde_Core_UI_VarRenderer_Stockedit_Html&#45;&gt;\\Horde_Core_Ui_VarRenderer_Html</title>
<path fill="none" stroke="black" d="M556.203,-537.998C552.455,-535.318 548.923,-532.329 545.664,-529 410.118,-390.528 609.107,-237.574 473.664,-99 469.138,-94.369 464.079,-90.399 458.642,-87.0036"/>
<polygon fill="none" stroke="black" points="460.255,-83.8963 449.809,-82.1286 456.873,-90.0249 460.255,-83.8963"/>
</g>
<!-- \\Sesha_Factory_Driver -->
<g id="node27" class="node"><title>\\Sesha_Factory_Driver</title>
<polygon fill="none" stroke="black" points="765.164,-520 613.164,-520 613.164,-484 765.164,-484 765.164,-520"/>
<text text-anchor="middle" x="689.164" y="-499.2" font-family="Courier,monospace" font-size="11.00">Sesha_Factory_Driver</text>
</g>
<!-- \\Horde_Core_Factory_Base -->
<g id="node37" class="node"><title>\\Horde_Core_Factory_Base</title>
<ellipse fill="none" stroke="black" cx="331.327" cy="-18" rx="109.381" ry="18"/>
<text text-anchor="middle" x="331.327" y="-14.3" font-family="Times,serif" font-size="14.00" fill="gray">\Horde_Core_Factory_Base</text>
</g>
<!-- \\Sesha_Factory_Driver&#45;&gt;\\Horde_Core_Factory_Base -->
<g id="edge25" class="edge"><title>\\Sesha_Factory_Driver&#45;&gt;\\Horde_Core_Factory_Base</title>
<path fill="none" stroke="black" d="M685.592,-483.975C674.685,-414.624 625.602,-163.006 473.664,-45 464.262,-37.6974 453.462,-32.1779 442.111,-28.0308"/>
<polygon fill="none" stroke="black" points="443.058,-24.658 432.465,-24.8611 440.873,-31.3081 443.058,-24.658"/>
</g>
</g>
</svg>
