<?xml version="1.0" encoding="UTF-8" standalone="no"?>
<!DOCTYPE svg PUBLIC "-//W3C//DTD SVG 1.1//EN"
 "http://www.w3.org/Graphics/SVG/1.1/DTD/svg11.dtd">
<!-- Generated by graphviz version 2.38.0 (20140413.2041)
 -->
<!-- Title: G Pages: 1 -->
<svg width="614pt" height="510pt"
 viewBox="0.00 0.00 614.44 510.00" xmlns="http://www.w3.org/2000/svg" xmlns:xlink="http://www.w3.org/1999/xlink">
<g id="graph0" class="graph" transform="scale(1 1) rotate(0) translate(4 506)">
<title>G</title>
<polygon fill="white" stroke="none" points="-4,4 -4,-506 610.44,-506 610.44,4 -4,4"/>
<g id="clust1" class="cluster"><title>cluster_Global</title>
<path fill="none" stroke="gray" d="M20,-44C20,-44 586.44,-44 586.44,-44 592.44,-44 598.44,-50 598.44,-56 598.44,-56 598.44,-482 598.44,-482 598.44,-488 592.44,-494 586.44,-494 586.44,-494 20,-494 20,-494 14,-494 8,-488 8,-482 8,-482 8,-56 8,-56 8,-50 14,-44 20,-44"/>
<text text-anchor="middle" x="303.22" y="-481.2" font-family="Times,serif" font-size="11.00" fill="gray">Global</text>
</g>
<!-- \\Horde_Mail_Autoconfig -->
<g id="node1" class="node"><title>\\Horde_Mail_Autoconfig</title>
<polygon fill="none" stroke="black" points="525.94,-466 367.94,-466 367.94,-430 525.94,-430 525.94,-466"/>
<text text-anchor="middle" x="446.94" y="-445.2" font-family="Courier,monospace" font-size="11.00">Horde_Mail_Autoconfig</text>
</g>
<!-- \\Horde_Mail_Autoconfig_Exception -->
<g id="node2" class="node"><title>\\Horde_Mail_Autoconfig_Exception</title>
<polygon fill="none" stroke="black" points="559.94,-88 333.94,-88 333.94,-52 559.94,-52 559.94,-88"/>
<text text-anchor="middle" x="446.94" y="-67.2" font-family="Courier,monospace" font-size="11.00">Horde_Mail_Autoconfig_Exception</text>
</g>
<!-- \\Horde_Exception_Wrapped -->
<g id="node11" class="node"><title>\\Horde_Exception_Wrapped</title>
<ellipse fill="none" stroke="black" cx="119" cy="-18" rx="112.38" ry="18"/>
<text text-anchor="middle" x="119" y="-14.3" font-family="Times,serif" font-size="14.00" fill="gray">\Horde_Exception_Wrapped</text>
</g>
<!-- \\Horde_Mail_Autoconfig_Exception&#45;&gt;\\Horde_Exception_Wrapped -->
<g id="edge1" class="edge"><title>\\Horde_Mail_Autoconfig_Exception&#45;&gt;\\Horde_Exception_Wrapped</title>
<path fill="none" stroke="black" d="M333.77,-52.1045C293.116,-45.6186 247.775,-38.3851 209.349,-32.2546"/>
<polygon fill="none" stroke="black" points="209.648,-28.7581 199.221,-30.6388 208.545,-35.6707 209.648,-28.7581"/>
</g>
<!-- \\Horde_Mail_Autoconfig_Server -->
<g id="node3" class="node"><title>\\Horde_Mail_Autoconfig_Server</title>
<polygon fill="none" stroke="black" points="222,-196 16,-196 16,-160 222,-160 222,-196"/>
<text text-anchor="start" x="85" y="-181.2" font-family="Courier,monospace" font-size="11.00">«abstract»</text>
<text text-anchor="start" x="24" y="-169.2" font-family="Courier,monospace" font-size="11.00">Horde_Mail_Autoconfig_Server</text>
</g>
<!-- \\Horde_Mail_Autoconfig_Driver_Thunderbird -->
<g id="node4" class="node"><title>\\Horde_Mail_Autoconfig_Driver_Thunderbird</title>
<polygon fill="none" stroke="black" points="590.44,-412 303.44,-412 303.44,-376 590.44,-376 590.44,-412"/>
<text text-anchor="middle" x="446.94" y="-391.2" font-family="Courier,monospace" font-size="11.00">Horde_Mail_Autoconfig_Driver_Thunderbird</text>
</g>
<!-- \\Horde_Mail_Autoconfig_Driver -->
<g id="node10" class="node"><title>\\Horde_Mail_Autoconfig_Driver</title>
<polygon fill="none" stroke="black" points="222,-358 16,-358 16,-322 222,-322 222,-358"/>
<text text-anchor="start" x="85" y="-343.2" font-family="Courier,monospace" font-size="11.00">«abstract»</text>
<text text-anchor="start" x="24" y="-331.2" font-family="Courier,monospace" font-size="11.00">Horde_Mail_Autoconfig_Driver</text>
</g>
<!-- \\Horde_Mail_Autoconfig_Driver_Thunderbird&#45;&gt;\\Horde_Mail_Autoconfig_Driver -->
<g id="edge2" class="edge"><title>\\Horde_Mail_Autoconfig_Driver_Thunderbird&#45;&gt;\\Horde_Mail_Autoconfig_Driver</title>
<path fill="none" stroke="black" d="M336.954,-375.944C303.266,-370.363 266.109,-364.207 232.208,-358.59"/>
<polygon fill="none" stroke="black" points="232.708,-355.125 222.27,-356.944 231.564,-362.031 232.708,-355.125"/>
</g>
<!-- \\Horde_Mail_Autoconfig_Driver_Srv -->
<g id="node5" class="node"><title>\\Horde_Mail_Autoconfig_Driver_Srv</title>
<polygon fill="none" stroke="black" points="563.44,-358 330.44,-358 330.44,-322 563.44,-322 563.44,-358"/>
<text text-anchor="middle" x="446.94" y="-337.2" font-family="Courier,monospace" font-size="11.00">Horde_Mail_Autoconfig_Driver_Srv</text>
</g>
<!-- \\Horde_Mail_Autoconfig_Driver_Srv&#45;&gt;\\Horde_Mail_Autoconfig_Driver -->
<g id="edge3" class="edge"><title>\\Horde_Mail_Autoconfig_Driver_Srv&#45;&gt;\\Horde_Mail_Autoconfig_Driver</title>
<path fill="none" stroke="black" d="M330.108,-340C298.325,-340 263.924,-340 232.34,-340"/>
<polygon fill="none" stroke="black" points="232.192,-336.5 222.192,-340 232.192,-343.5 232.192,-336.5"/>
</g>
<!-- \\Horde_Mail_Autoconfig_Driver_Guess -->
<g id="node6" class="node"><title>\\Horde_Mail_Autoconfig_Driver_Guess</title>
<polygon fill="none" stroke="black" points="569.94,-304 323.94,-304 323.94,-268 569.94,-268 569.94,-304"/>
<text text-anchor="middle" x="446.94" y="-283.2" font-family="Courier,monospace" font-size="11.00">Horde_Mail_Autoconfig_Driver_Guess</text>
</g>
<!-- \\Horde_Mail_Autoconfig_Driver_Guess&#45;&gt;\\Horde_Mail_Autoconfig_Driver -->
<g id="edge4" class="edge"><title>\\Horde_Mail_Autoconfig_Driver_Guess&#45;&gt;\\Horde_Mail_Autoconfig_Driver</title>
<path fill="none" stroke="black" d="M336.954,-304.056C303.266,-309.637 266.109,-315.793 232.208,-321.41"/>
<polygon fill="none" stroke="black" points="231.564,-317.969 222.27,-323.056 232.708,-324.875 231.564,-317.969"/>
</g>
<!-- \\Horde_Mail_Autoconfig_Server_Pop3 -->
<g id="node7" class="node"><title>\\Horde_Mail_Autoconfig_Server_Pop3</title>
<polygon fill="none" stroke="black" points="566.44,-250 327.44,-250 327.44,-214 566.44,-214 566.44,-250"/>
<text text-anchor="middle" x="446.94" y="-229.2" font-family="Courier,monospace" font-size="11.00">Horde_Mail_Autoconfig_Server_Pop3</text>
</g>
<!-- \\Horde_Mail_Autoconfig_Server_Pop3&#45;&gt;\\Horde_Mail_Autoconfig_Server -->
<g id="edge5" class="edge"><title>\\Horde_Mail_Autoconfig_Server_Pop3&#45;&gt;\\Horde_Mail_Autoconfig_Server</title>
<path fill="none" stroke="black" d="M336.954,-213.944C303.266,-208.363 266.109,-202.207 232.208,-196.59"/>
<polygon fill="none" stroke="black" points="232.708,-193.125 222.27,-194.944 231.564,-200.031 232.708,-193.125"/>
</g>
<!-- \\Horde_Mail_Autoconfig_Server_Msa -->
<g id="node8" class="node"><title>\\Horde_Mail_Autoconfig_Server_Msa</title>
<polygon fill="none" stroke="black" points="563.44,-196 330.44,-196 330.44,-160 563.44,-160 563.44,-196"/>
<text text-anchor="middle" x="446.94" y="-175.2" font-family="Courier,monospace" font-size="11.00">Horde_Mail_Autoconfig_Server_Msa</text>
</g>
<!-- \\Horde_Mail_Autoconfig_Server_Msa&#45;&gt;\\Horde_Mail_Autoconfig_Server -->
<g id="edge6" class="edge"><title>\\Horde_Mail_Autoconfig_Server_Msa&#45;&gt;\\Horde_Mail_Autoconfig_Server</title>
<path fill="none" stroke="black" d="M330.108,-178C298.325,-178 263.924,-178 232.34,-178"/>
<polygon fill="none" stroke="black" points="232.192,-174.5 222.192,-178 232.192,-181.5 232.192,-174.5"/>
</g>
<!-- \\Horde_Mail_Autoconfig_Server_Imap -->
<g id="node9" class="node"><title>\\Horde_Mail_Autoconfig_Server_Imap</title>
<polygon fill="none" stroke="black" points="566.44,-142 327.44,-142 327.44,-106 566.44,-106 566.44,-142"/>
<text text-anchor="middle" x="446.94" y="-121.2" font-family="Courier,monospace" font-size="11.00">Horde_Mail_Autoconfig_Server_Imap</text>
</g>
<!-- \\Horde_Mail_Autoconfig_Server_Imap&#45;&gt;\\Horde_Mail_Autoconfig_Server -->
<g id="edge7" class="edge"><title>\\Horde_Mail_Autoconfig_Server_Imap&#45;&gt;\\Horde_Mail_Autoconfig_Server</title>
<path fill="none" stroke="black" d="M336.954,-142.056C303.266,-147.637 266.109,-153.793 232.208,-159.41"/>
<polygon fill="none" stroke="black" points="231.564,-155.969 222.27,-161.056 232.708,-162.875 231.564,-155.969"/>
</g>
</g>
</svg>
