<?xml version="1.0" encoding="UTF-8" standalone="no"?>
<!DOCTYPE svg PUBLIC "-//W3C//DTD SVG 1.1//EN"
 "http://www.w3.org/Graphics/SVG/1.1/DTD/svg11.dtd">
<!-- Generated by graphviz version 2.38.0 (20140413.2041)
 -->
<!-- Title: G Pages: 1 -->
<svg width="883pt" height="834pt"
 viewBox="0.00 0.00 883.00 834.00" xmlns="http://www.w3.org/2000/svg" xmlns:xlink="http://www.w3.org/1999/xlink">
<g id="graph0" class="graph" transform="scale(1 1) rotate(0) translate(4 830)">
<title>G</title>
<polygon fill="white" stroke="none" points="-4,4 -4,-830 879,-830 879,4 -4,4"/>
<g id="clust1" class="cluster"><title>cluster_Global</title>
<path fill="none" stroke="gray" d="M20,-44C20,-44 855,-44 855,-44 861,-44 867,-50 867,-56 867,-56 867,-806 867,-806 867,-812 861,-818 855,-818 855,-818 20,-818 20,-818 14,-818 8,-812 8,-806 8,-806 8,-56 8,-56 8,-50 14,-44 20,-44"/>
<text text-anchor="middle" x="437.5" y="-805.2" font-family="Times,serif" font-size="11.00" fill="gray">Global</text>
</g>
<!-- \\Horde_Text_Diff_ThreeWay_BlockBuilder -->
<g id="node1" class="node"><title>\\Horde_Text_Diff_ThreeWay_BlockBuilder</title>
<polygon fill="none" stroke="black" points="848.5,-790 582.5,-790 582.5,-754 848.5,-754 848.5,-790"/>
<text text-anchor="middle" x="715.5" y="-769.2" font-family="Courier,monospace" font-size="11.00">Horde_Text_Diff_ThreeWay_BlockBuilder</text>
</g>
<!-- \\Horde_Text_Diff_ThreeWay_Op_Copy -->
<g id="node2" class="node"><title>\\Horde_Text_Diff_ThreeWay_Op_Copy</title>
<polygon fill="none" stroke="black" points="832,-736 599,-736 599,-700 832,-700 832,-736"/>
<text text-anchor="middle" x="715.5" y="-715.2" font-family="Courier,monospace" font-size="11.00">Horde_Text_Diff_ThreeWay_Op_Copy</text>
</g>
<!-- \\Horde_Text_Diff_ThreeWay_Op_Base -->
<g id="node3" class="node"><title>\\Horde_Text_Diff_ThreeWay_Op_Base</title>
<polygon fill="none" stroke="black" points="500,-736 267,-736 267,-700 500,-700 500,-736"/>
<text text-anchor="middle" x="383.5" y="-715.2" font-family="Courier,monospace" font-size="11.00">Horde_Text_Diff_ThreeWay_Op_Base</text>
</g>
<!-- \\Horde_Text_Diff_ThreeWay_Op_Copy&#45;&gt;\\Horde_Text_Diff_ThreeWay_Op_Base -->
<g id="edge1" class="edge"><title>\\Horde_Text_Diff_ThreeWay_Op_Copy&#45;&gt;\\Horde_Text_Diff_ThreeWay_Op_Base</title>
<path fill="none" stroke="black" d="M598.618,-718C570.044,-718 539.308,-718 510.289,-718"/>
<polygon fill="none" stroke="black" points="510.103,-714.5 500.103,-718 510.103,-721.5 510.103,-714.5"/>
</g>
<!-- \\Horde_Text_Diff_Engine_Native -->
<g id="node4" class="node"><title>\\Horde_Text_Diff_Engine_Native</title>
<polygon fill="none" stroke="black" points="821.5,-682 609.5,-682 609.5,-646 821.5,-646 821.5,-682"/>
<text text-anchor="middle" x="715.5" y="-661.2" font-family="Courier,monospace" font-size="11.00">Horde_Text_Diff_Engine_Native</text>
</g>
<!-- \\Horde_Text_Diff_Engine_String -->
<g id="node5" class="node"><title>\\Horde_Text_Diff_Engine_String</title>
<polygon fill="none" stroke="black" points="821.5,-628 609.5,-628 609.5,-592 821.5,-592 821.5,-628"/>
<text text-anchor="middle" x="715.5" y="-607.2" font-family="Courier,monospace" font-size="11.00">Horde_Text_Diff_Engine_String</text>
</g>
<!-- \\Horde_Text_Diff_Engine_Shell -->
<g id="node6" class="node"><title>\\Horde_Text_Diff_Engine_Shell</title>
<polygon fill="none" stroke="black" points="818.5,-574 612.5,-574 612.5,-538 818.5,-538 818.5,-574"/>
<text text-anchor="middle" x="715.5" y="-553.2" font-family="Courier,monospace" font-size="11.00">Horde_Text_Diff_Engine_Shell</text>
</g>
<!-- \\Horde_Text_Diff_Engine_Xdiff -->
<g id="node7" class="node"><title>\\Horde_Text_Diff_Engine_Xdiff</title>
<polygon fill="none" stroke="black" points="818.5,-520 612.5,-520 612.5,-484 818.5,-484 818.5,-520"/>
<text text-anchor="middle" x="715.5" y="-499.2" font-family="Courier,monospace" font-size="11.00">Horde_Text_Diff_Engine_Xdiff</text>
</g>
<!-- \\Horde_Text_Diff_Exception -->
<g id="node8" class="node"><title>\\Horde_Text_Diff_Exception</title>
<polygon fill="none" stroke="black" points="808,-88 623,-88 623,-52 808,-52 808,-88"/>
<text text-anchor="middle" x="715.5" y="-67.2" font-family="Courier,monospace" font-size="11.00">Horde_Text_Diff_Exception</text>
</g>
<!-- \\Horde_Exception_Wrapped -->
<g id="node22" class="node"><title>\\Horde_Exception_Wrapped</title>
<ellipse fill="none" stroke="black" cx="383.5" cy="-18" rx="112.38" ry="18"/>
<text text-anchor="middle" x="383.5" y="-14.3" font-family="Times,serif" font-size="14.00" fill="gray">\Horde_Exception_Wrapped</text>
</g>
<!-- \\Horde_Text_Diff_Exception&#45;&gt;\\Horde_Exception_Wrapped -->
<g id="edge2" class="edge"><title>\\Horde_Text_Diff_Exception&#45;&gt;\\Horde_Exception_Wrapped</title>
<path fill="none" stroke="black" d="M622.577,-55.5151C576.204,-48.2078 520.18,-39.3798 474.131,-32.1237"/>
<polygon fill="none" stroke="black" points="474.586,-28.6523 464.164,-30.553 473.497,-35.567 474.586,-28.6523"/>
</g>
<!-- \\Horde_Text_Diff_Mapped -->
<g id="node9" class="node"><title>\\Horde_Text_Diff_Mapped</title>
<polygon fill="none" stroke="black" points="798,-466 633,-466 633,-430 798,-430 798,-466"/>
<text text-anchor="middle" x="715.5" y="-445.2" font-family="Courier,monospace" font-size="11.00">Horde_Text_Diff_Mapped</text>
</g>
<!-- \\Horde_Text_Diff -->
<g id="node21" class="node"><title>\\Horde_Text_Diff</title>
<polygon fill="none" stroke="black" points="442.5,-466 324.5,-466 324.5,-430 442.5,-430 442.5,-466"/>
<text text-anchor="middle" x="383.5" y="-445.2" font-family="Courier,monospace" font-size="11.00">Horde_Text_Diff</text>
</g>
<!-- \\Horde_Text_Diff_Mapped&#45;&gt;\\Horde_Text_Diff -->
<g id="edge3" class="edge"><title>\\Horde_Text_Diff_Mapped&#45;&gt;\\Horde_Text_Diff</title>
<path fill="none" stroke="black" d="M632.927,-448C577.547,-448 505.15,-448 452.81,-448"/>
<polygon fill="none" stroke="black" points="452.621,-444.5 442.621,-448 452.621,-451.5 452.621,-444.5"/>
</g>
<!-- \\Horde_Text_Diff_Op_Copy -->
<g id="node10" class="node"><title>\\Horde_Text_Diff_Op_Copy</title>
<polygon fill="none" stroke="black" points="801.5,-304 629.5,-304 629.5,-268 801.5,-268 801.5,-304"/>
<text text-anchor="middle" x="715.5" y="-283.2" font-family="Courier,monospace" font-size="11.00">Horde_Text_Diff_Op_Copy</text>
</g>
<!-- \\Horde_Text_Diff_Op_Base -->
<g id="node13" class="node"><title>\\Horde_Text_Diff_Op_Base</title>
<polygon fill="none" stroke="black" points="469.5,-358 297.5,-358 297.5,-322 469.5,-322 469.5,-358"/>
<text text-anchor="start" x="349.5" y="-343.2" font-family="Courier,monospace" font-size="11.00">«abstract»</text>
<text text-anchor="start" x="305.5" y="-331.2" font-family="Courier,monospace" font-size="11.00">Horde_Text_Diff_Op_Base</text>
</g>
<!-- \\Horde_Text_Diff_Op_Copy&#45;&gt;\\Horde_Text_Diff_Op_Base -->
<g id="edge4" class="edge"><title>\\Horde_Text_Diff_Op_Copy&#45;&gt;\\Horde_Text_Diff_Op_Base</title>
<path fill="none" stroke="black" d="M629.088,-299.977C583.267,-307.474 526.679,-316.734 479.477,-324.458"/>
<polygon fill="none" stroke="black" points="478.858,-321.013 469.554,-326.082 479.988,-327.921 478.858,-321.013"/>
</g>
<!-- \\Horde_Text_Diff_Op_Delete -->
<g id="node11" class="node"><title>\\Horde_Text_Diff_Op_Delete</title>
<polygon fill="none" stroke="black" points="808,-250 623,-250 623,-214 808,-214 808,-250"/>
<text text-anchor="middle" x="715.5" y="-229.2" font-family="Courier,monospace" font-size="11.00">Horde_Text_Diff_Op_Delete</text>
</g>
<!-- \\Horde_Text_Diff_Op_Delete&#45;&gt;\\Horde_Text_Diff_Op_Base -->
<g id="edge5" class="edge"><title>\\Horde_Text_Diff_Op_Delete&#45;&gt;\\Horde_Text_Diff_Op_Base</title>
<path fill="none" stroke="black" d="M622.923,-242.95C605.576,-246.796 587.897,-251.989 572,-259 535.401,-275.141 536.248,-296.087 500,-313 493.457,-316.053 486.539,-318.776 479.473,-321.203"/>
<polygon fill="none" stroke="black" points="478.21,-317.932 469.766,-324.331 480.357,-324.595 478.21,-317.932"/>
</g>
<!-- \\Horde_Text_Diff_Op_Change -->
<g id="node12" class="node"><title>\\Horde_Text_Diff_Op_Change</title>
<polygon fill="none" stroke="black" points="808,-412 623,-412 623,-376 808,-376 808,-412"/>
<text text-anchor="middle" x="715.5" y="-391.2" font-family="Courier,monospace" font-size="11.00">Horde_Text_Diff_Op_Change</text>
</g>
<!-- \\Horde_Text_Diff_Op_Change&#45;&gt;\\Horde_Text_Diff_Op_Base -->
<g id="edge6" class="edge"><title>\\Horde_Text_Diff_Op_Change&#45;&gt;\\Horde_Text_Diff_Op_Base</title>
<path fill="none" stroke="black" d="M622.577,-378.958C578.074,-371.676 524.683,-362.939 479.75,-355.586"/>
<polygon fill="none" stroke="black" points="480.142,-352.104 469.708,-353.943 479.011,-359.012 480.142,-352.104"/>
</g>
<!-- \\Horde_Text_Diff_Op_Add -->
<g id="node14" class="node"><title>\\Horde_Text_Diff_Op_Add</title>
<polygon fill="none" stroke="black" points="798,-358 633,-358 633,-322 798,-322 798,-358"/>
<text text-anchor="middle" x="715.5" y="-337.2" font-family="Courier,monospace" font-size="11.00">Horde_Text_Diff_Op_Add</text>
</g>
<!-- \\Horde_Text_Diff_Op_Add&#45;&gt;\\Horde_Text_Diff_Op_Base -->
<g id="edge7" class="edge"><title>\\Horde_Text_Diff_Op_Add&#45;&gt;\\Horde_Text_Diff_Op_Base</title>
<path fill="none" stroke="black" d="M632.927,-340C586.598,-340 528.36,-340 479.918,-340"/>
<polygon fill="none" stroke="black" points="479.738,-336.5 469.738,-340 479.738,-343.5 479.738,-336.5"/>
</g>
<!-- \\Horde_Text_Diff_ThreeWay -->
<g id="node15" class="node"><title>\\Horde_Text_Diff_ThreeWay</title>
<polygon fill="none" stroke="black" points="805,-142 626,-142 626,-106 805,-106 805,-142"/>
<text text-anchor="middle" x="715.5" y="-121.2" font-family="Courier,monospace" font-size="11.00">Horde_Text_Diff_ThreeWay</text>
</g>
<!-- \\Horde_Text_Diff_Renderer_Context -->
<g id="node16" class="node"><title>\\Horde_Text_Diff_Renderer_Context</title>
<polygon fill="none" stroke="black" points="500,-304 267,-304 267,-268 500,-268 500,-304"/>
<text text-anchor="middle" x="383.5" y="-283.2" font-family="Courier,monospace" font-size="11.00">Horde_Text_Diff_Renderer_Context</text>
</g>
<!-- \\Horde_Text_Diff_Renderer -->
<g id="node20" class="node"><title>\\Horde_Text_Diff_Renderer</title>
<polygon fill="none" stroke="black" points="195,-250 16,-250 16,-214 195,-214 195,-250"/>
<text text-anchor="middle" x="105.5" y="-229.2" font-family="Courier,monospace" font-size="11.00">Horde_Text_Diff_Renderer</text>
</g>
<!-- \\Horde_Text_Diff_Renderer_Context&#45;&gt;\\Horde_Text_Diff_Renderer -->
<g id="edge8" class="edge"><title>\\Horde_Text_Diff_Renderer_Context&#45;&gt;\\Horde_Text_Diff_Renderer</title>
<path fill="none" stroke="black" d="M290.212,-267.944C262.996,-262.619 233.106,-256.771 205.487,-251.367"/>
<polygon fill="none" stroke="black" points="205.91,-247.883 195.424,-249.398 204.566,-254.753 205.91,-247.883"/>
</g>
<!-- \\Horde_Text_Diff_Renderer_Inline -->
<g id="node17" class="node"><title>\\Horde_Text_Diff_Renderer_Inline</title>
<polygon fill="none" stroke="black" points="496.5,-250 270.5,-250 270.5,-214 496.5,-214 496.5,-250"/>
<text text-anchor="middle" x="383.5" y="-229.2" font-family="Courier,monospace" font-size="11.00">Horde_Text_Diff_Renderer_Inline</text>
</g>
<!-- \\Horde_Text_Diff_Renderer_Inline&#45;&gt;\\Horde_Text_Diff_Renderer -->
<g id="edge9" class="edge"><title>\\Horde_Text_Diff_Renderer_Inline&#45;&gt;\\Horde_Text_Diff_Renderer</title>
<path fill="none" stroke="black" d="M270.24,-232C248.822,-232 226.545,-232 205.575,-232"/>
<polygon fill="none" stroke="black" points="205.395,-228.5 195.395,-232 205.395,-235.5 205.395,-228.5"/>
</g>
<!-- \\Horde_Text_Diff_Renderer_Unified -->
<g id="node18" class="node"><title>\\Horde_Text_Diff_Renderer_Unified</title>
<polygon fill="none" stroke="black" points="500,-196 267,-196 267,-160 500,-160 500,-196"/>
<text text-anchor="middle" x="383.5" y="-175.2" font-family="Courier,monospace" font-size="11.00">Horde_Text_Diff_Renderer_Unified</text>
</g>
<!-- \\Horde_Text_Diff_Renderer_Unified&#45;&gt;\\Horde_Text_Diff_Renderer -->
<g id="edge10" class="edge"><title>\\Horde_Text_Diff_Renderer_Unified&#45;&gt;\\Horde_Text_Diff_Renderer</title>
<path fill="none" stroke="black" d="M290.212,-196.056C262.996,-201.381 233.106,-207.229 205.487,-212.633"/>
<polygon fill="none" stroke="black" points="204.566,-209.247 195.424,-214.602 205.91,-216.117 204.566,-209.247"/>
</g>
<!-- \\Horde_Text_Diff_Renderer_Unified_Colored -->
<g id="node19" class="node"><title>\\Horde_Text_Diff_Renderer_Unified_Colored</title>
<polygon fill="none" stroke="black" points="859,-196 572,-196 572,-160 859,-160 859,-196"/>
<text text-anchor="middle" x="715.5" y="-175.2" font-family="Courier,monospace" font-size="11.00">Horde_Text_Diff_Renderer_Unified_Colored</text>
</g>
<!-- \\Horde_Text_Diff_Renderer_Unified_Colored&#45;&gt;\\Horde_Text_Diff_Renderer_Unified -->
<g id="edge11" class="edge"><title>\\Horde_Text_Diff_Renderer_Unified_Colored&#45;&gt;\\Horde_Text_Diff_Renderer_Unified</title>
<path fill="none" stroke="black" d="M571.676,-178C551.261,-178 530.385,-178 510.328,-178"/>
<polygon fill="none" stroke="black" points="510.239,-174.5 500.239,-178 510.238,-181.5 510.239,-174.5"/>
</g>
</g>
</svg>
