<?xml version="1.0" encoding="UTF-8" standalone="no"?>
<!DOCTYPE svg PUBLIC "-//W3C//DTD SVG 1.1//EN"
 "http://www.w3.org/Graphics/SVG/1.1/DTD/svg11.dtd">
<!-- Generated by graphviz version 2.38.0 (20140413.2041)
 -->
<!-- Title: G Pages: 1 -->
<svg width="1252pt" height="3440pt"
 viewBox="0.00 0.00 1252.34 3440.35" xmlns="http://www.w3.org/2000/svg" xmlns:xlink="http://www.w3.org/1999/xlink">
<g id="graph0" class="graph" transform="scale(1 1) rotate(0) translate(4 3436.35)">
<title>G</title>
<polygon fill="white" stroke="none" points="-4,4 -4,-3436.35 1248.34,-3436.35 1248.34,4 -4,4"/>
<g id="clust1" class="cluster"><title>cluster_Global</title>
<path fill="none" stroke="gray" d="M224.23,-854C224.23,-854 1224.34,-854 1224.34,-854 1230.34,-854 1236.34,-860 1236.34,-866 1236.34,-866 1236.34,-3342 1236.34,-3342 1236.34,-3348 1230.34,-3354 1224.34,-3354 1224.34,-3354 224.23,-3354 224.23,-3354 218.23,-3354 212.23,-3348 212.23,-3342 212.23,-3342 212.23,-866 212.23,-866 212.23,-860 218.23,-854 224.23,-854"/>
<text text-anchor="middle" x="724.283" y="-3341.2" font-family="Times,serif" font-size="11.00" fill="gray">Global</text>
</g>
<g id="clust2" class="cluster"><title>cluster_\Turba</title>
<path fill="none" stroke="gray" d="M1038.84,-1824C1038.84,-1824 1117.84,-1824 1117.84,-1824 1123.84,-1824 1129.84,-1830 1129.84,-1836 1129.84,-1836 1129.84,-1920 1129.84,-1920 1129.84,-1926 1123.84,-1932 1117.84,-1932 1117.84,-1932 1038.84,-1932 1038.84,-1932 1032.84,-1932 1026.84,-1926 1026.84,-1920 1026.84,-1920 1026.84,-1836 1026.84,-1836 1026.84,-1830 1032.84,-1824 1038.84,-1824"/>
<text text-anchor="middle" x="1078.34" y="-1919.2" font-family="Times,serif" font-size="11.00" fill="gray">Turba</text>
</g>
<g id="clust3" class="cluster"><title>cluster_\Turba\Backup</title>
<path fill="none" stroke="gray" d="M1046.84,-1832C1046.84,-1832 1109.84,-1832 1109.84,-1832 1115.84,-1832 1121.84,-1838 1121.84,-1844 1121.84,-1844 1121.84,-1892 1121.84,-1892 1121.84,-1898 1115.84,-1904 1109.84,-1904 1109.84,-1904 1046.84,-1904 1046.84,-1904 1040.84,-1904 1034.84,-1898 1034.84,-1892 1034.84,-1892 1034.84,-1844 1034.84,-1844 1034.84,-1838 1040.84,-1832 1046.84,-1832"/>
<text text-anchor="middle" x="1078.34" y="-1891.2" font-family="Times,serif" font-size="11.00" fill="gray">Backup</text>
</g>
<!-- \\Turba\\Backup\\Contacts -->
<g id="node1" class="node"><title>\\Turba\\Backup\\Contacts</title>
<polygon fill="none" stroke="black" points="1113.84,-1876 1042.84,-1876 1042.84,-1840 1113.84,-1840 1113.84,-1876"/>
<text text-anchor="middle" x="1078.34" y="-1855.2" font-family="Courier,monospace" font-size="11.00">Contacts</text>
</g>
<!-- \\Iterator -->
<g id="node66" class="node"><title>\\Iterator</title>
<ellipse fill="none" stroke="black" cx="671.753" cy="-828" rx="38.9931" ry="18"/>
<text text-anchor="middle" x="671.753" y="-824.3" font-family="Times,serif" font-size="14.00" fill="gray">\Iterator</text>
</g>
<!-- \\Turba\\Backup\\Contacts&#45;&gt;\\Iterator -->
<g id="edge36" class="edge"><title>\\Turba\\Backup\\Contacts&#45;&gt;\\Iterator</title>
<path fill="none" stroke="black" stroke-dasharray="1,5" d="M1042.53,-1863.94C1008.21,-1867.59 956.899,-1866.75 928.337,-1836 778.818,-1675.03 1008.04,-1008.91 856.337,-850 821.32,-813.321 759.612,-813.533 717.489,-819.073"/>
<polygon fill="none" stroke="black" points="716.883,-815.624 707.494,-820.534 717.896,-822.55 716.883,-815.624"/>
</g>
<!-- \\Turba_LoginTasks_SystemTask_Upgrade -->
<g id="node2" class="node"><title>\\Turba_LoginTasks_SystemTask_Upgrade</title>
<polygon fill="none" stroke="black" points="1204.84,-1816 951.837,-1816 951.837,-1780 1204.84,-1780 1204.84,-1816"/>
<text text-anchor="middle" x="1078.34" y="-1795.2" font-family="Courier,monospace" font-size="11.00">Turba_LoginTasks_SystemTask_Upgrade</text>
</g>
<!-- \\Horde_Core_LoginTasks_SystemTask_Upgrade -->
<g id="node53" class="node"><title>\\Horde_Core_LoginTasks_SystemTask_Upgrade</title>
<ellipse fill="none" stroke="black" cx="671.753" cy="-774" rx="184.667" ry="18"/>
<text text-anchor="middle" x="671.753" y="-770.3" font-family="Times,serif" font-size="14.00" fill="gray">\Horde_Core_LoginTasks_SystemTask_Upgrade</text>
</g>
<!-- \\Turba_LoginTasks_SystemTask_Upgrade&#45;&gt;\\Horde_Core_LoginTasks_SystemTask_Upgrade -->
<g id="edge1" class="edge"><title>\\Turba_LoginTasks_SystemTask_Upgrade&#45;&gt;\\Horde_Core_LoginTasks_SystemTask_Upgrade</title>
<path fill="none" stroke="black" d="M951.75,-1788.76C943.002,-1784.24 935.02,-1778.43 928.337,-1771 783.741,-1610.34 1003.58,-959.237 856.337,-801 851.872,-796.202 846.958,-791.996 841.693,-788.319"/>
<polygon fill="none" stroke="black" points="843.48,-785.308 833.147,-782.965 839.764,-791.24 843.48,-785.308"/>
</g>
<!-- \\Turba_Api -->
<g id="node3" class="node"><title>\\Turba_Api</title>
<polygon fill="none" stroke="black" points="1116.84,-1762 1039.84,-1762 1039.84,-1726 1116.84,-1726 1116.84,-1762"/>
<text text-anchor="middle" x="1078.34" y="-1741.2" font-family="Courier,monospace" font-size="11.00">Turba_Api</text>
</g>
<!-- \\Horde_Registry_Api -->
<g id="node54" class="node"><title>\\Horde_Registry_Api</title>
<ellipse fill="none" stroke="black" cx="671.753" cy="-720" rx="87.1846" ry="18"/>
<text text-anchor="middle" x="671.753" y="-716.3" font-family="Times,serif" font-size="14.00" fill="gray">\Horde_Registry_Api</text>
</g>
<!-- \\Turba_Api&#45;&gt;\\Horde_Registry_Api -->
<g id="edge2" class="edge"><title>\\Turba_Api&#45;&gt;\\Horde_Registry_Api</title>
<path fill="none" stroke="black" d="M1039.78,-1748.79C1005.42,-1750.86 955.86,-1747.58 928.337,-1717 783.741,-1556.34 1003.58,-905.237 856.337,-747 831.469,-720.276 792.648,-711.92 757.097,-710.907"/>
<polygon fill="none" stroke="black" points="756.713,-707.404 746.681,-710.811 756.649,-714.403 756.713,-707.404"/>
</g>
<!-- \\Turba_Ajax_Application_Handler_Minisearch -->
<g id="node4" class="node"><title>\\Turba_Ajax_Application_Handler_Minisearch</title>
<polygon fill="none" stroke="black" points="1224.84,-1654 931.837,-1654 931.837,-1618 1224.84,-1618 1224.84,-1654"/>
<text text-anchor="middle" x="1078.34" y="-1633.2" font-family="Courier,monospace" font-size="11.00">Turba_Ajax_Application_Handler_Minisearch</text>
</g>
<!-- \\Horde_Core_Ajax_Application_Handler -->
<g id="node55" class="node"><title>\\Horde_Core_Ajax_Application_Handler</title>
<ellipse fill="none" stroke="black" cx="671.753" cy="-666" rx="156.772" ry="18"/>
<text text-anchor="middle" x="671.753" y="-662.3" font-family="Times,serif" font-size="14.00" fill="gray">\Horde_Core_Ajax_Application_Handler</text>
</g>
<!-- \\Turba_Ajax_Application_Handler_Minisearch&#45;&gt;\\Horde_Core_Ajax_Application_Handler -->
<g id="edge3" class="edge"><title>\\Turba_Ajax_Application_Handler_Minisearch&#45;&gt;\\Horde_Core_Ajax_Application_Handler</title>
<path fill="none" stroke="black" d="M937.752,-1617.77C934.398,-1615.13 931.246,-1612.22 928.337,-1609 791.416,-1457.53 995.756,-842.175 856.337,-693 849.562,-685.751 841.759,-679.855 833.275,-675.092"/>
<polygon fill="none" stroke="black" points="834.707,-671.895 824.201,-670.529 831.563,-678.149 834.707,-671.895"/>
</g>
<!-- \\Turba_Ajax_Application_Handler_Smartmobile -->
<g id="node5" class="node"><title>\\Turba_Ajax_Application_Handler_Smartmobile</title>
<polygon fill="none" stroke="black" points="1228.34,-1708 928.337,-1708 928.337,-1672 1228.34,-1672 1228.34,-1708"/>
<text text-anchor="middle" x="1078.34" y="-1687.2" font-family="Courier,monospace" font-size="11.00">Turba_Ajax_Application_Handler_Smartmobile</text>
</g>
<!-- \\Turba_Ajax_Application_Handler_Smartmobile&#45;&gt;\\Horde_Core_Ajax_Application_Handler -->
<g id="edge4" class="edge"><title>\\Turba_Ajax_Application_Handler_Smartmobile&#45;&gt;\\Horde_Core_Ajax_Application_Handler</title>
<path fill="none" stroke="black" d="M937.733,-1671.79C934.385,-1669.14 931.239,-1666.22 928.337,-1663 783.741,-1502.34 1003.58,-851.237 856.337,-693 849.577,-685.736 841.787,-679.829 833.311,-675.058"/>
<polygon fill="none" stroke="black" points="834.751,-671.864 824.246,-670.488 831.6,-678.115 834.751,-671.864"/>
</g>
<!-- \\Turba_Ajax_Application -->
<g id="node6" class="node"><title>\\Turba_Ajax_Application</title>
<polygon fill="none" stroke="black" points="1160.84,-1600 995.837,-1600 995.837,-1564 1160.84,-1564 1160.84,-1600"/>
<text text-anchor="middle" x="1078.34" y="-1579.2" font-family="Courier,monospace" font-size="11.00">Turba_Ajax_Application</text>
</g>
<!-- \\Horde_Core_Ajax_Application -->
<g id="node56" class="node"><title>\\Horde_Core_Ajax_Application</title>
<ellipse fill="none" stroke="black" cx="671.753" cy="-612" rx="124.278" ry="18"/>
<text text-anchor="middle" x="671.753" y="-608.3" font-family="Times,serif" font-size="14.00" fill="gray">\Horde_Core_Ajax_Application</text>
</g>
<!-- \\Turba_Ajax_Application&#45;&gt;\\Horde_Core_Ajax_Application -->
<g id="edge5" class="edge"><title>\\Turba_Ajax_Application&#45;&gt;\\Horde_Core_Ajax_Application</title>
<path fill="none" stroke="black" d="M995.703,-1585.53C970.707,-1582.29 945.349,-1573.82 928.337,-1555 791.416,-1403.53 995.756,-788.175 856.337,-639 841.172,-622.774 820.861,-613.329 799.275,-608.19"/>
<polygon fill="none" stroke="black" points="799.783,-604.721 789.281,-606.123 798.365,-611.576 799.783,-604.721"/>
</g>
<!-- \\Turba_Ajax_Imple_TagAutoCompleter -->
<g id="node7" class="node"><title>\\Turba_Ajax_Imple_TagAutoCompleter</title>
<polygon fill="none" stroke="black" points="1197.84,-1546 958.837,-1546 958.837,-1510 1197.84,-1510 1197.84,-1546"/>
<text text-anchor="middle" x="1078.34" y="-1525.2" font-family="Courier,monospace" font-size="11.00">Turba_Ajax_Imple_TagAutoCompleter</text>
</g>
<!-- \\Horde_Core_Ajax_Imple_AutoCompleter -->
<g id="node57" class="node"><title>\\Horde_Core_Ajax_Imple_AutoCompleter</title>
<ellipse fill="none" stroke="black" cx="671.753" cy="-558" rx="163.271" ry="18"/>
<text text-anchor="middle" x="671.753" y="-554.3" font-family="Times,serif" font-size="14.00" fill="gray">\Horde_Core_Ajax_Imple_AutoCompleter</text>
</g>
<!-- \\Turba_Ajax_Imple_TagAutoCompleter&#45;&gt;\\Horde_Core_Ajax_Imple_AutoCompleter -->
<g id="edge6" class="edge"><title>\\Turba_Ajax_Imple_TagAutoCompleter&#45;&gt;\\Horde_Core_Ajax_Imple_AutoCompleter</title>
<path fill="none" stroke="black" d="M958.486,-1521.88C947.107,-1517.02 936.711,-1510.26 928.337,-1501 791.416,-1349.53 995.756,-734.175 856.337,-585 850.25,-578.487 843.334,-573.067 835.839,-568.579"/>
<polygon fill="none" stroke="black" points="837.257,-565.368 826.79,-563.729 833.951,-571.538 837.257,-565.368"/>
</g>
<!-- \\Turba_Test -->
<g id="node8" class="node"><title>\\Turba_Test</title>
<polygon fill="none" stroke="black" points="1120.34,-1492 1036.34,-1492 1036.34,-1456 1120.34,-1456 1120.34,-1492"/>
<text text-anchor="middle" x="1078.34" y="-1471.2" font-family="Courier,monospace" font-size="11.00">Turba_Test</text>
</g>
<!-- \\Horde_Test -->
<g id="node58" class="node"><title>\\Horde_Test</title>
<ellipse fill="none" stroke="black" cx="671.753" cy="-504" rx="54.6905" ry="18"/>
<text text-anchor="middle" x="671.753" y="-500.3" font-family="Times,serif" font-size="14.00" fill="gray">\Horde_Test</text>
</g>
<!-- \\Turba_Test&#45;&gt;\\Horde_Test -->
<g id="edge7" class="edge"><title>\\Turba_Test&#45;&gt;\\Horde_Test</title>
<path fill="none" stroke="black" d="M1036.14,-1478.96C1002.01,-1480.55 954.957,-1476.45 928.337,-1447 791.416,-1295.53 995.756,-680.175 856.337,-531 825.21,-497.695 772.401,-492.96 731.391,-495.386"/>
<polygon fill="none" stroke="black" points="730.95,-491.909 721.239,-496.144 731.472,-498.889 730.95,-491.909"/>
</g>
<!-- \\Turba -->
<g id="node9" class="node"><title>\\Turba</title>
<polygon fill="none" stroke="black" points="1105.34,-2894 1051.34,-2894 1051.34,-2858 1105.34,-2858 1105.34,-2894"/>
<text text-anchor="middle" x="1078.34" y="-2873.2" font-family="Courier,monospace" font-size="11.00">Turba</text>
</g>
<!-- \\Turba_Form_EditContactGroup -->
<g id="node10" class="node"><title>\\Turba_Form_EditContactGroup</title>
<polygon fill="none" stroke="black" points="1177.84,-3002 978.837,-3002 978.837,-2966 1177.84,-2966 1177.84,-3002"/>
<text text-anchor="middle" x="1078.34" y="-2981.2" font-family="Courier,monospace" font-size="11.00">Turba_Form_EditContactGroup</text>
</g>
<!-- \\Turba_Form_EditContact -->
<g id="node16" class="node"><title>\\Turba_Form_EditContact</title>
<polygon fill="none" stroke="black" points="754.253,-3002 589.253,-3002 589.253,-2966 754.253,-2966 754.253,-3002"/>
<text text-anchor="middle" x="671.753" y="-2981.2" font-family="Courier,monospace" font-size="11.00">Turba_Form_EditContact</text>
</g>
<!-- \\Turba_Form_EditContactGroup&#45;&gt;\\Turba_Form_EditContact -->
<g id="edge8" class="edge"><title>\\Turba_Form_EditContactGroup&#45;&gt;\\Turba_Form_EditContact</title>
<path fill="none" stroke="black" d="M978.623,-2984C913.343,-2984 828.355,-2984 764.537,-2984"/>
<polygon fill="none" stroke="black" points="764.483,-2980.5 754.483,-2984 764.483,-2987.5 764.483,-2980.5"/>
</g>
<!-- \\Turba_Form_CreateAddressBook -->
<g id="node11" class="node"><title>\\Turba_Form_CreateAddressBook</title>
<polygon fill="none" stroke="black" points="1181.34,-3218 975.337,-3218 975.337,-3182 1181.34,-3182 1181.34,-3218"/>
<text text-anchor="middle" x="1078.34" y="-3197.2" font-family="Courier,monospace" font-size="11.00">Turba_Form_CreateAddressBook</text>
</g>
<!-- \\Horde_Form -->
<g id="node59" class="node"><title>\\Horde_Form</title>
<ellipse fill="none" stroke="black" cx="59.1448" cy="-3286" rx="59.2899" ry="18"/>
<text text-anchor="middle" x="59.1448" y="-3282.3" font-family="Times,serif" font-size="14.00" fill="gray">\Horde_Form</text>
</g>
<!-- \\Turba_Form_CreateAddressBook&#45;&gt;\\Horde_Form -->
<g id="edge9" class="edge"><title>\\Turba_Form_CreateAddressBook&#45;&gt;\\Horde_Form</title>
<path fill="none" stroke="black" d="M975.177,-3216.73C959.421,-3219.82 943.391,-3223.27 928.337,-3227 812.679,-3255.68 789.022,-3281.91 672.753,-3308"/>
<path fill="none" stroke="black" d="M670.753,-3308C458.019,-3355.74 393.204,-3486.76 190.29,-3407 141.943,-3388 100.892,-3341.65 78.4557,-3312.14"/>
<polygon fill="none" stroke="black" points="81.1375,-3309.88 72.3663,-3303.94 75.5172,-3314.06 81.1375,-3309.88"/>
</g>
<!-- \\Turba_Form_DeleteAddressBook -->
<g id="node12" class="node"><title>\\Turba_Form_DeleteAddressBook</title>
<polygon fill="none" stroke="black" points="1181.34,-3326 975.337,-3326 975.337,-3290 1181.34,-3290 1181.34,-3326"/>
<text text-anchor="middle" x="1078.34" y="-3305.2" font-family="Courier,monospace" font-size="11.00">Turba_Form_DeleteAddressBook</text>
</g>
<!-- \\Turba_Form_DeleteAddressBook&#45;&gt;\\Horde_Form -->
<g id="edge10" class="edge"><title>\\Turba_Form_DeleteAddressBook&#45;&gt;\\Horde_Form</title>
<path fill="none" stroke="black" d="M974.97,-3295.74C892.351,-3288.76 773.672,-3285.35 672.753,-3308"/>
</g>
<!-- \\Turba_Form_Contact -->
<g id="node13" class="node"><title>\\Turba_Form_Contact</title>
<polygon fill="none" stroke="black" points="740.753,-3164 602.753,-3164 602.753,-3128 740.753,-3128 740.753,-3164"/>
<text text-anchor="middle" x="671.753" y="-3143.2" font-family="Courier,monospace" font-size="11.00">Turba_Form_Contact</text>
</g>
<!-- \\Turba_Form_ContactBase -->
<g id="node17" class="node"><title>\\Turba_Form_ContactBase</title>
<polygon fill="none" stroke="black" points="385.23,-3137 220.23,-3137 220.23,-3101 385.23,-3101 385.23,-3137"/>
<text text-anchor="start" x="268.73" y="-3122.2" font-family="Courier,monospace" font-size="11.00">«abstract»</text>
<text text-anchor="start" x="228.23" y="-3110.2" font-family="Courier,monospace" font-size="11.00">Turba_Form_ContactBase</text>
</g>
<!-- \\Turba_Form_Contact&#45;&gt;\\Turba_Form_ContactBase -->
<g id="edge11" class="edge"><title>\\Turba_Form_Contact&#45;&gt;\\Turba_Form_ContactBase</title>
<path fill="none" stroke="black" d="M602.579,-3140.98C544.234,-3136.69 459.732,-3130.48 395.458,-3125.75"/>
<polygon fill="none" stroke="black" points="395.554,-3122.25 385.324,-3125 395.04,-3129.23 395.554,-3122.25"/>
</g>
<!-- \\Turba_Form_AddContact -->
<g id="node14" class="node"><title>\\Turba_Form_AddContact</title>
<polygon fill="none" stroke="black" points="750.753,-3110 592.753,-3110 592.753,-3074 750.753,-3074 750.753,-3110"/>
<text text-anchor="middle" x="671.753" y="-3089.2" font-family="Courier,monospace" font-size="11.00">Turba_Form_AddContact</text>
</g>
<!-- \\Turba_Form_AddContact&#45;&gt;\\Turba_Form_ContactBase -->
<g id="edge12" class="edge"><title>\\Turba_Form_AddContact&#45;&gt;\\Turba_Form_ContactBase</title>
<path fill="none" stroke="black" d="M592.468,-3097.76C534.853,-3102 456.337,-3107.77 395.724,-3112.23"/>
<polygon fill="none" stroke="black" points="395.108,-3108.77 385.392,-3112.99 395.622,-3115.75 395.108,-3108.77"/>
</g>
<!-- \\Turba_Form_Type_TurbaTags -->
<g id="node15" class="node"><title>\\Turba_Form_Type_TurbaTags</title>
<polygon fill="none" stroke="black" points="1170.84,-1438 985.837,-1438 985.837,-1402 1170.84,-1402 1170.84,-1438"/>
<text text-anchor="middle" x="1078.34" y="-1417.2" font-family="Courier,monospace" font-size="11.00">Turba_Form_Type_TurbaTags</text>
</g>
<!-- \\Horde_Form_Type -->
<g id="node60" class="node"><title>\\Horde_Form_Type</title>
<ellipse fill="none" stroke="black" cx="671.753" cy="-450" rx="81.4863" ry="18"/>
<text text-anchor="middle" x="671.753" y="-446.3" font-family="Times,serif" font-size="14.00" fill="gray">\Horde_Form_Type</text>
</g>
<!-- \\Turba_Form_Type_TurbaTags&#45;&gt;\\Horde_Form_Type -->
<g id="edge13" class="edge"><title>\\Turba_Form_Type_TurbaTags&#45;&gt;\\Horde_Form_Type</title>
<path fill="none" stroke="black" d="M985.602,-1421.93C964.026,-1417.82 943.057,-1409.28 928.337,-1393 791.416,-1241.53 995.756,-626.175 856.337,-477 830.299,-449.14 789.09,-441.272 752.306,-440.864"/>
<polygon fill="none" stroke="black" points="752.04,-437.365 742.065,-440.936 752.089,-444.365 752.04,-437.365"/>
</g>
<!-- \\Turba_Form_EditContact&#45;&gt;\\Turba_Form_ContactBase -->
<g id="edge14" class="edge"><title>\\Turba_Form_EditContact&#45;&gt;\\Turba_Form_ContactBase</title>
<path fill="none" stroke="black" d="M589.155,-2989.19C556.733,-2993 519.525,-2999.59 487.17,-3011 430.139,-3031.11 371.068,-3069.64 335.866,-3094.82"/>
<polygon fill="none" stroke="black" points="333.494,-3092.22 327.446,-3100.92 337.599,-3097.89 333.494,-3092.22"/>
</g>
<!-- \\Turba_Form_ContactBase&#45;&gt;\\Horde_Form -->
<g id="edge15" class="edge"><title>\\Turba_Form_ContactBase&#45;&gt;\\Horde_Form</title>
<path fill="none" stroke="black" d="M275.416,-3137.19C230.862,-3167.99 140.716,-3230.3 92.4206,-3263.69"/>
<polygon fill="none" stroke="black" points="90.146,-3261.01 83.9103,-3269.57 94.1264,-3266.76 90.146,-3261.01"/>
</g>
<!-- \\Turba_Form_EditAddressBook -->
<g id="node18" class="node"><title>\\Turba_Form_EditAddressBook</title>
<polygon fill="none" stroke="black" points="1174.34,-3272 982.337,-3272 982.337,-3236 1174.34,-3236 1174.34,-3272"/>
<text text-anchor="middle" x="1078.34" y="-3251.2" font-family="Courier,monospace" font-size="11.00">Turba_Form_EditAddressBook</text>
</g>
<!-- \\Turba_Form_EditAddressBook&#45;&gt;\\Horde_Form -->
<g id="edge16" class="edge"><title>\\Turba_Form_EditAddressBook&#45;&gt;\\Horde_Form</title>
<path fill="none" stroke="black" d="M982.084,-3261.94C899.564,-3269.94 777.332,-3284.53 672.753,-3308"/>
</g>
<!-- \\Turba_Object -->
<g id="node19" class="node"><title>\\Turba_Object</title>
<polygon fill="none" stroke="black" points="720.753,-3056 622.753,-3056 622.753,-3020 720.753,-3020 720.753,-3056"/>
<text text-anchor="middle" x="671.753" y="-3035.2" font-family="Courier,monospace" font-size="11.00">Turba_Object</text>
</g>
<!-- \\Turba_Exception -->
<g id="node20" class="node"><title>\\Turba_Exception</title>
<polygon fill="none" stroke="black" points="730.753,-3218 612.753,-3218 612.753,-3182 730.753,-3182 730.753,-3218"/>
<text text-anchor="middle" x="671.753" y="-3197.2" font-family="Courier,monospace" font-size="11.00">Turba_Exception</text>
</g>
<!-- \\Horde_Exception_Wrapped -->
<g id="node61" class="node"><title>\\Horde_Exception_Wrapped</title>
<ellipse fill="none" stroke="black" cx="302.73" cy="-3380" rx="112.38" ry="18"/>
<text text-anchor="middle" x="302.73" y="-3376.3" font-family="Times,serif" font-size="14.00" fill="gray">\Horde_Exception_Wrapped</text>
</g>
<!-- \\Turba_Exception&#45;&gt;\\Horde_Exception_Wrapped -->
<g id="edge17" class="edge"><title>\\Turba_Exception&#45;&gt;\\Horde_Exception_Wrapped</title>
<path fill="none" stroke="black" d="M628.221,-3218.05C589.873,-3235.17 532.683,-3262.87 487.17,-3294 451.832,-3318.17 453.519,-3338.96 415.17,-3358 409.794,-3360.67 404.123,-3363.01 398.301,-3365.07"/>
<polygon fill="none" stroke="black" points="396.824,-3361.87 388.387,-3368.28 398.978,-3368.53 396.824,-3361.87"/>
</g>
<!-- \\Turba_Application -->
<g id="node21" class="node"><title>\\Turba_Application</title>
<polygon fill="none" stroke="black" points="1143.84,-1384 1012.84,-1384 1012.84,-1348 1143.84,-1348 1143.84,-1384"/>
<text text-anchor="middle" x="1078.34" y="-1363.2" font-family="Courier,monospace" font-size="11.00">Turba_Application</text>
</g>
<!-- \\Horde_Registry_Application -->
<g id="node62" class="node"><title>\\Horde_Registry_Application</title>
<ellipse fill="none" stroke="black" cx="671.753" cy="-396" rx="115.08" ry="18"/>
<text text-anchor="middle" x="671.753" y="-392.3" font-family="Times,serif" font-size="14.00" fill="gray">\Horde_Registry_Application</text>
</g>
<!-- \\Turba_Application&#45;&gt;\\Horde_Registry_Application -->
<g id="edge18" class="edge"><title>\\Turba_Application&#45;&gt;\\Horde_Registry_Application</title>
<path fill="none" stroke="black" d="M1012.64,-1371C982.704,-1369.61 949.227,-1362.11 928.337,-1339 791.416,-1187.53 995.756,-572.175 856.337,-423 838.002,-403.382 812.145,-393.677 785.607,-389.509"/>
<polygon fill="none" stroke="black" points="785.788,-386.003 775.418,-388.174 784.878,-392.944 785.788,-386.003"/>
</g>
<!-- \\Turba_View_Browse -->
<g id="node22" class="node"><title>\\Turba_View_Browse</title>
<polygon fill="none" stroke="black" points="1143.84,-2516 1012.84,-2516 1012.84,-2480 1143.84,-2480 1143.84,-2516"/>
<text text-anchor="middle" x="1078.34" y="-2495.2" font-family="Courier,monospace" font-size="11.00">Turba_View_Browse</text>
</g>
<!-- \\Turba_View_Duplicates -->
<g id="node23" class="node"><title>\\Turba_View_Duplicates</title>
<polygon fill="none" stroke="black" points="1157.34,-2462 999.337,-2462 999.337,-2426 1157.34,-2426 1157.34,-2462"/>
<text text-anchor="middle" x="1078.34" y="-2441.2" font-family="Courier,monospace" font-size="11.00">Turba_View_Duplicates</text>
</g>
<!-- \\Turba_View_List_AlphaFilter -->
<g id="node24" class="node"><title>\\Turba_View_List_AlphaFilter</title>
<polygon fill="none" stroke="black" points="1177.84,-2408 978.837,-2408 978.837,-2372 1177.84,-2372 1177.84,-2408"/>
<text text-anchor="middle" x="1078.34" y="-2387.2" font-family="Courier,monospace" font-size="11.00">Turba_View_List_AlphaFilter</text>
</g>
<!-- \\Turba_View_List_PageFilter -->
<g id="node25" class="node"><title>\\Turba_View_List_PageFilter</title>
<polygon fill="none" stroke="black" points="1174.34,-2354 982.337,-2354 982.337,-2318 1174.34,-2318 1174.34,-2354"/>
<text text-anchor="middle" x="1078.34" y="-2333.2" font-family="Courier,monospace" font-size="11.00">Turba_View_List_PageFilter</text>
</g>
<!-- \\Turba_View_DeleteContact -->
<g id="node26" class="node"><title>\\Turba_View_DeleteContact</title>
<polygon fill="none" stroke="black" points="1167.84,-2300 988.837,-2300 988.837,-2264 1167.84,-2264 1167.84,-2300"/>
<text text-anchor="middle" x="1078.34" y="-2279.2" font-family="Courier,monospace" font-size="11.00">Turba_View_DeleteContact</text>
</g>
<!-- \\Turba_View_Contact -->
<g id="node27" class="node"><title>\\Turba_View_Contact</title>
<polygon fill="none" stroke="black" points="1147.34,-2246 1009.34,-2246 1009.34,-2210 1147.34,-2210 1147.34,-2246"/>
<text text-anchor="middle" x="1078.34" y="-2225.2" font-family="Courier,monospace" font-size="11.00">Turba_View_Contact</text>
</g>
<!-- \\Turba_View_List -->
<g id="node28" class="node"><title>\\Turba_View_List</title>
<polygon fill="none" stroke="black" points="1137.34,-2030 1019.34,-2030 1019.34,-1994 1137.34,-1994 1137.34,-2030"/>
<text text-anchor="middle" x="1078.34" y="-2009.2" font-family="Courier,monospace" font-size="11.00">Turba_View_List</text>
</g>
<!-- \\Countable -->
<g id="node63" class="node"><title>\\Countable</title>
<ellipse fill="none" stroke="black" cx="302.73" cy="-828" rx="49.2915" ry="18"/>
<text text-anchor="middle" x="302.73" y="-824.3" font-family="Times,serif" font-size="14.00" fill="gray">\Countable</text>
</g>
<!-- \\Turba_View_List&#45;&gt;\\Countable -->
<g id="edge19" class="edge"><title>\\Turba_View_List&#45;&gt;\\Countable</title>
<path fill="none" stroke="black" stroke-dasharray="1,5" d="M1019.29,-2025.9C934.401,-2042.64 775.349,-2059.97 672.753,-1985"/>
</g>
<!-- \\Turba_View_EditContact -->
<g id="node29" class="node"><title>\\Turba_View_EditContact</title>
<polygon fill="none" stroke="black" points="1160.84,-2138 995.837,-2138 995.837,-2102 1160.84,-2102 1160.84,-2138"/>
<text text-anchor="middle" x="1078.34" y="-2117.2" font-family="Courier,monospace" font-size="11.00">Turba_View_EditContact</text>
</g>
<!-- \\Turba_Object_Group -->
<g id="node30" class="node"><title>\\Turba_Object_Group</title>
<polygon fill="none" stroke="black" points="1147.34,-3056 1009.34,-3056 1009.34,-3020 1147.34,-3020 1147.34,-3056"/>
<text text-anchor="middle" x="1078.34" y="-3035.2" font-family="Courier,monospace" font-size="11.00">Turba_Object_Group</text>
</g>
<!-- \\Turba_Object_Group&#45;&gt;\\Turba_Object -->
<g id="edge20" class="edge"><title>\\Turba_Object_Group&#45;&gt;\\Turba_Object</title>
<path fill="none" stroke="black" d="M1009.16,-3038C931.086,-3038 804.499,-3038 730.896,-3038"/>
<polygon fill="none" stroke="black" points="730.873,-3034.5 720.873,-3038 730.873,-3041.5 730.873,-3034.5"/>
</g>
<!-- \\Turba_Driver_Kolab -->
<g id="node31" class="node"><title>\\Turba_Driver_Kolab</title>
<polygon fill="none" stroke="black" points="1147.34,-2192 1009.34,-2192 1009.34,-2156 1147.34,-2156 1147.34,-2192"/>
<text text-anchor="middle" x="1078.34" y="-2171.2" font-family="Courier,monospace" font-size="11.00">Turba_Driver_Kolab</text>
</g>
<!-- \\Turba_Driver -->
<g id="node42" class="node"><title>\\Turba_Driver</title>
<polygon fill="none" stroke="black" points="720.753,-2651 622.753,-2651 622.753,-2615 720.753,-2615 720.753,-2651"/>
<text text-anchor="middle" x="671.753" y="-2630.2" font-family="Courier,monospace" font-size="11.00">Turba_Driver</text>
</g>
<!-- \\Turba_Driver_Kolab&#45;&gt;\\Turba_Driver -->
<g id="edge21" class="edge"><title>\\Turba_Driver_Kolab&#45;&gt;\\Turba_Driver</title>
<path fill="none" stroke="black" d="M1009.26,-2174.34C982.082,-2177.38 951.75,-2184.71 928.337,-2201 779.063,-2304.87 703.32,-2526.46 680.421,-2604.83"/>
<polygon fill="none" stroke="black" points="676.923,-2604.33 677.538,-2614.91 683.653,-2606.26 676.923,-2604.33"/>
</g>
<!-- \\Turba_Driver_Group -->
<g id="node32" class="node"><title>\\Turba_Driver_Group</title>
<polygon fill="none" stroke="black" points="1147.34,-2084 1009.34,-2084 1009.34,-2048 1147.34,-2048 1147.34,-2084"/>
<text text-anchor="middle" x="1078.34" y="-2063.2" font-family="Courier,monospace" font-size="11.00">Turba_Driver_Group</text>
</g>
<!-- \\Turba_Driver_Group&#45;&gt;\\Turba_Driver -->
<g id="edge22" class="edge"><title>\\Turba_Driver_Group&#45;&gt;\\Turba_Driver</title>
<path fill="none" stroke="black" d="M1009.24,-2065.2C981.746,-2068.02 951.184,-2075.49 928.337,-2093 752.333,-2227.91 692.042,-2514.14 676.95,-2604.83"/>
<polygon fill="none" stroke="black" points="673.463,-2604.46 675.328,-2614.89 680.374,-2605.58 673.463,-2604.46"/>
</g>
<!-- \\Turba_Driver_Imsp -->
<g id="node33" class="node"><title>\\Turba_Driver_Imsp</title>
<polygon fill="none" stroke="black" points="1143.84,-2948 1012.84,-2948 1012.84,-2912 1143.84,-2912 1143.84,-2948"/>
<text text-anchor="middle" x="1078.34" y="-2927.2" font-family="Courier,monospace" font-size="11.00">Turba_Driver_Imsp</text>
</g>
<!-- \\Turba_Driver_Imsp&#45;&gt;\\Turba_Driver -->
<g id="edge23" class="edge"><title>\\Turba_Driver_Imsp&#45;&gt;\\Turba_Driver</title>
<path fill="none" stroke="black" d="M1012.78,-2927.19C985.422,-2923.81 954.001,-2916.89 928.337,-2903 816.49,-2842.47 725.41,-2715.18 689.385,-2659.74"/>
<polygon fill="none" stroke="black" points="692.234,-2657.7 683.887,-2651.18 686.344,-2661.48 692.234,-2657.7"/>
</g>
<!-- \\Turba_Driver_Vbook -->
<g id="node34" class="node"><title>\\Turba_Driver_Vbook</title>
<polygon fill="none" stroke="black" points="1147.34,-2840 1009.34,-2840 1009.34,-2804 1147.34,-2804 1147.34,-2840"/>
<text text-anchor="middle" x="1078.34" y="-2819.2" font-family="Courier,monospace" font-size="11.00">Turba_Driver_Vbook</text>
</g>
<!-- \\Turba_Driver_Vbook&#45;&gt;\\Turba_Driver -->
<g id="edge24" class="edge"><title>\\Turba_Driver_Vbook&#45;&gt;\\Turba_Driver</title>
<path fill="none" stroke="black" d="M1009.07,-2815.26C983.173,-2811.26 953.807,-2804.94 928.337,-2795 839.648,-2760.39 748.447,-2693.6 702.734,-2657.53"/>
<polygon fill="none" stroke="black" points="704.743,-2654.66 694.739,-2651.17 700.385,-2660.14 704.743,-2654.66"/>
</g>
<!-- \\Turba_Driver_Favourites -->
<g id="node35" class="node"><title>\\Turba_Driver_Favourites</title>
<polygon fill="none" stroke="black" points="1164.34,-2786 992.337,-2786 992.337,-2750 1164.34,-2750 1164.34,-2786"/>
<text text-anchor="middle" x="1078.34" y="-2765.2" font-family="Courier,monospace" font-size="11.00">Turba_Driver_Favourites</text>
</g>
<!-- \\Turba_Driver_Favourites&#45;&gt;\\Turba_Driver -->
<g id="edge25" class="edge"><title>\\Turba_Driver_Favourites&#45;&gt;\\Turba_Driver</title>
<path fill="none" stroke="black" d="M992.258,-2755.92C971.155,-2752.02 948.745,-2747.08 928.337,-2741 852.221,-2718.32 768.136,-2680.06 717.918,-2655.69"/>
<polygon fill="none" stroke="black" points="719.163,-2652.4 708.642,-2651.16 716.091,-2658.69 719.163,-2652.4"/>
</g>
<!-- \\Turba_Driver_Share -->
<g id="node36" class="node"><title>\\Turba_Driver_Share</title>
<polygon fill="none" stroke="black" points="1147.34,-2732 1009.34,-2732 1009.34,-2696 1147.34,-2696 1147.34,-2732"/>
<text text-anchor="middle" x="1078.34" y="-2711.2" font-family="Courier,monospace" font-size="11.00">Turba_Driver_Share</text>
</g>
<!-- \\Turba_Driver_Share&#45;&gt;\\Turba_Driver -->
<g id="edge26" class="edge"><title>\\Turba_Driver_Share&#45;&gt;\\Turba_Driver</title>
<path fill="none" stroke="black" d="M1009.02,-2702.05C983.649,-2697.5 954.65,-2692.16 928.337,-2687 860.539,-2673.7 782.922,-2657.1 731.182,-2645.85"/>
<polygon fill="none" stroke="black" points="731.706,-2642.38 721.19,-2643.67 730.215,-2649.22 731.706,-2642.38"/>
</g>
<!-- \\Turba_Driver_Sql -->
<g id="node37" class="node"><title>\\Turba_Driver_Sql</title>
<polygon fill="none" stroke="black" points="1140.84,-2678 1015.84,-2678 1015.84,-2642 1140.84,-2642 1140.84,-2678"/>
<text text-anchor="middle" x="1078.34" y="-2657.2" font-family="Courier,monospace" font-size="11.00">Turba_Driver_Sql</text>
</g>
<!-- \\Turba_Driver_Sql&#45;&gt;\\Turba_Driver -->
<g id="edge27" class="edge"><title>\\Turba_Driver_Sql&#45;&gt;\\Turba_Driver</title>
<path fill="none" stroke="black" d="M1015.45,-2655.87C938.177,-2650.71 806.971,-2641.96 731.295,-2636.91"/>
<polygon fill="none" stroke="black" points="731.207,-2633.39 720.997,-2636.22 730.741,-2640.38 731.207,-2633.39"/>
</g>
<!-- \\Turba_Driver_Prefs -->
<g id="node38" class="node"><title>\\Turba_Driver_Prefs</title>
<polygon fill="none" stroke="black" points="1147.34,-2624 1009.34,-2624 1009.34,-2588 1147.34,-2588 1147.34,-2624"/>
<text text-anchor="middle" x="1078.34" y="-2603.2" font-family="Courier,monospace" font-size="11.00">Turba_Driver_Prefs</text>
</g>
<!-- \\Turba_Driver_Prefs&#45;&gt;\\Turba_Driver -->
<g id="edge28" class="edge"><title>\\Turba_Driver_Prefs&#45;&gt;\\Turba_Driver</title>
<path fill="none" stroke="black" d="M1009.16,-2610.55C931.086,-2615.76 804.499,-2624.21 730.896,-2629.12"/>
<polygon fill="none" stroke="black" points="730.617,-2625.63 720.873,-2629.79 731.083,-2632.62 730.617,-2625.63"/>
</g>
<!-- \\Turba_Driver_Ldap -->
<g id="node39" class="node"><title>\\Turba_Driver_Ldap</title>
<polygon fill="none" stroke="black" points="1143.84,-2570 1012.84,-2570 1012.84,-2534 1143.84,-2534 1143.84,-2570"/>
<text text-anchor="middle" x="1078.34" y="-2549.2" font-family="Courier,monospace" font-size="11.00">Turba_Driver_Ldap</text>
</g>
<!-- \\Turba_Driver_Ldap&#45;&gt;\\Turba_Driver -->
<g id="edge29" class="edge"><title>\\Turba_Driver_Ldap&#45;&gt;\\Turba_Driver</title>
<path fill="none" stroke="black" d="M1012.72,-2563.29C986.499,-2567.98 955.94,-2573.58 928.337,-2579 860.539,-2592.3 782.922,-2608.9 731.182,-2620.15"/>
<polygon fill="none" stroke="black" points="730.215,-2616.78 721.19,-2622.33 731.706,-2623.62 730.215,-2616.78"/>
</g>
<!-- \\Turba_Exception_ObjectExists -->
<g id="node40" class="node"><title>\\Turba_Exception_ObjectExists</title>
<polygon fill="none" stroke="black" points="1181.34,-3110 975.337,-3110 975.337,-3074 1181.34,-3074 1181.34,-3110"/>
<text text-anchor="middle" x="1078.34" y="-3089.2" font-family="Courier,monospace" font-size="11.00">Turba_Exception_ObjectExists</text>
</g>
<!-- \\Turba_Exception_ObjectExists&#45;&gt;\\Turba_Exception -->
<g id="edge30" class="edge"><title>\\Turba_Exception_ObjectExists&#45;&gt;\\Turba_Exception</title>
<path fill="none" stroke="black" d="M975.27,-3103.97C959.189,-3107.7 943.035,-3112.59 928.337,-3119 891.674,-3135 893.26,-3157.62 856.337,-3173 820.069,-3188.11 776.69,-3194.95 741.208,-3197.97"/>
<polygon fill="none" stroke="black" points="740.649,-3194.51 730.946,-3198.76 741.184,-3201.48 740.649,-3194.51"/>
</g>
<!-- \\Turba_Exception_NotSupported -->
<g id="node41" class="node"><title>\\Turba_Exception_NotSupported</title>
<polygon fill="none" stroke="black" points="1181.34,-3164 975.337,-3164 975.337,-3128 1181.34,-3128 1181.34,-3164"/>
<text text-anchor="middle" x="1078.34" y="-3143.2" font-family="Courier,monospace" font-size="11.00">Turba_Exception_NotSupported</text>
</g>
<!-- \\Turba_Exception_NotSupported&#45;&gt;\\Turba_Exception -->
<g id="edge31" class="edge"><title>\\Turba_Exception_NotSupported&#45;&gt;\\Turba_Exception</title>
<path fill="none" stroke="black" d="M975.243,-3159.63C901.916,-3169.41 805.09,-3182.34 740.965,-3190.9"/>
<polygon fill="none" stroke="black" points="740.411,-3187.44 730.962,-3192.23 741.338,-3194.38 740.411,-3187.44"/>
</g>
<!-- \\Turba_Driver&#45;&gt;\\Countable -->
<g id="edge32" class="edge"><title>\\Turba_Driver&#45;&gt;\\Countable</title>
<path fill="none" stroke="black" stroke-dasharray="1,5" d="M663.925,-2614.93C636.091,-2540.37 530.617,-2248.78 487.17,-1999 465.249,-1872.98 499.442,-946.233 415.17,-850 401.893,-834.839 381.459,-828.277 361.698,-825.864"/>
<polygon fill="none" stroke="black" points="361.736,-822.353 351.466,-824.956 361.118,-829.326 361.736,-822.353"/>
</g>
<!-- \\Turba_Tagger -->
<g id="node43" class="node"><title>\\Turba_Tagger</title>
<polygon fill="none" stroke="black" points="1127.34,-1330 1029.34,-1330 1029.34,-1294 1127.34,-1294 1127.34,-1330"/>
<text text-anchor="middle" x="1078.34" y="-1309.2" font-family="Courier,monospace" font-size="11.00">Turba_Tagger</text>
</g>
<!-- \\Horde_Core_Tagger -->
<g id="node64" class="node"><title>\\Horde_Core_Tagger</title>
<ellipse fill="none" stroke="black" cx="671.753" cy="-342" rx="85.5853" ry="18"/>
<text text-anchor="middle" x="671.753" y="-338.3" font-family="Times,serif" font-size="14.00" fill="gray">\Horde_Core_Tagger</text>
</g>
<!-- \\Turba_Tagger&#45;&gt;\\Horde_Core_Tagger -->
<g id="edge33" class="edge"><title>\\Turba_Tagger&#45;&gt;\\Horde_Core_Tagger</title>
<path fill="none" stroke="black" d="M1029.2,-1317.2C995.87,-1317.9 953.194,-1312.5 928.337,-1285 791.416,-1133.53 995.756,-518.175 856.337,-369 831.103,-342.001 791.621,-333.777 755.727,-332.923"/>
<polygon fill="none" stroke="black" points="755.732,-329.423 745.713,-332.868 755.693,-336.423 755.732,-329.423"/>
</g>
<!-- \\Turba_Data_Ldif -->
<g id="node44" class="node"><title>\\Turba_Data_Ldif</title>
<polygon fill="none" stroke="black" points="1137.34,-1276 1019.34,-1276 1019.34,-1240 1137.34,-1240 1137.34,-1276"/>
<text text-anchor="middle" x="1078.34" y="-1255.2" font-family="Courier,monospace" font-size="11.00">Turba_Data_Ldif</text>
</g>
<!-- \\Horde_Data_Base -->
<g id="node65" class="node"><title>\\Horde_Data_Base</title>
<ellipse fill="none" stroke="black" cx="671.753" cy="-288" rx="77.1866" ry="18"/>
<text text-anchor="middle" x="671.753" y="-284.3" font-family="Times,serif" font-size="14.00" fill="gray">\Horde_Data_Base</text>
</g>
<!-- \\Turba_Data_Ldif&#45;&gt;\\Horde_Data_Base -->
<g id="edge34" class="edge"><title>\\Turba_Data_Ldif&#45;&gt;\\Horde_Data_Base</title>
<path fill="none" stroke="black" d="M1019.02,-1263.21C987.571,-1262.61 950.726,-1255.77 928.337,-1231 791.416,-1079.53 995.756,-464.175 856.337,-315 829.595,-286.387 786.851,-278.861 749.334,-278.847"/>
<polygon fill="none" stroke="black" points="748.845,-275.355 738.908,-279.03 748.968,-282.354 748.845,-275.355"/>
</g>
<!-- \\Turba_List -->
<g id="node45" class="node"><title>\\Turba_List</title>
<polygon fill="none" stroke="black" points="1120.34,-1976 1036.34,-1976 1036.34,-1940 1120.34,-1940 1120.34,-1976"/>
<text text-anchor="middle" x="1078.34" y="-1955.2" font-family="Courier,monospace" font-size="11.00">Turba_List</text>
</g>
<!-- \\Turba_List&#45;&gt;\\Countable -->
<g id="edge35" class="edge"><title>\\Turba_List&#45;&gt;\\Countable</title>
<path fill="none" stroke="black" stroke-dasharray="1,5" d="M1036.2,-1963.7C939.099,-1976.75 701.599,-2006.08 672.753,-1985"/>
<path fill="none" stroke="black" stroke-dasharray="1,5" d="M670.753,-1985C253.254,-1679.94 785.624,-1210.74 415.17,-850 401.157,-836.355 381.277,-829.981 362.178,-827.291"/>
<polygon fill="none" stroke="black" points="362.315,-823.786 351.994,-826.178 361.554,-830.744 362.315,-823.786"/>
</g>
<!-- \\Horde_Core_Ui_VarRenderer_Turba -->
<g id="node46" class="node"><title>\\Horde_Core_Ui_VarRenderer_Turba</title>
<polygon fill="none" stroke="black" points="1191.34,-1222 965.337,-1222 965.337,-1186 1191.34,-1186 1191.34,-1222"/>
<text text-anchor="middle" x="1078.34" y="-1201.2" font-family="Courier,monospace" font-size="11.00">Horde_Core_Ui_VarRenderer_Turba</text>
</g>
<!-- \\Horde_Core_Ui_VarRenderer_Html -->
<g id="node67" class="node"><title>\\Horde_Core_Ui_VarRenderer_Html</title>
<ellipse fill="none" stroke="black" cx="671.753" cy="-234" rx="142.175" ry="18"/>
<text text-anchor="middle" x="671.753" y="-230.3" font-family="Times,serif" font-size="14.00" fill="gray">\Horde_Core_Ui_VarRenderer_Html</text>
</g>
<!-- \\Horde_Core_Ui_VarRenderer_Turba&#45;&gt;\\Horde_Core_Ui_VarRenderer_Html -->
<g id="edge37" class="edge"><title>\\Horde_Core_Ui_VarRenderer_Turba&#45;&gt;\\Horde_Core_Ui_VarRenderer_Html</title>
<path fill="none" stroke="black" d="M965.053,-1200.44C951.119,-1195.49 938.297,-1188.02 928.337,-1177 791.416,-1025.53 995.756,-410.175 856.337,-261 847.134,-251.153 836.037,-243.804 823.909,-238.399"/>
<polygon fill="none" stroke="black" points="825.034,-235.08 814.448,-234.635 822.446,-241.584 825.034,-235.08"/>
</g>
<!-- \\Turba_Smartmobile -->
<g id="node47" class="node"><title>\\Turba_Smartmobile</title>
<polygon fill="none" stroke="black" points="1143.84,-1168 1012.84,-1168 1012.84,-1132 1143.84,-1132 1143.84,-1168"/>
<text text-anchor="middle" x="1078.34" y="-1147.2" font-family="Courier,monospace" font-size="11.00">Turba_Smartmobile</text>
</g>
<!-- \\Turba_Factory_Shares -->
<g id="node48" class="node"><title>\\Turba_Factory_Shares</title>
<polygon fill="none" stroke="black" points="1154.34,-1060 1002.34,-1060 1002.34,-1024 1154.34,-1024 1154.34,-1060"/>
<text text-anchor="middle" x="1078.34" y="-1039.2" font-family="Courier,monospace" font-size="11.00">Turba_Factory_Shares</text>
</g>
<!-- \\Horde_Core_Factory_Injector -->
<g id="node68" class="node"><title>\\Horde_Core_Factory_Injector</title>
<ellipse fill="none" stroke="black" cx="671.753" cy="-180" rx="119.679" ry="18"/>
<text text-anchor="middle" x="671.753" y="-176.3" font-family="Times,serif" font-size="14.00" fill="gray">\Horde_Core_Factory_Injector</text>
</g>
<!-- \\Turba_Factory_Shares&#45;&gt;\\Horde_Core_Factory_Injector -->
<g id="edge38" class="edge"><title>\\Turba_Factory_Shares&#45;&gt;\\Horde_Core_Factory_Injector</title>
<path fill="none" stroke="black" d="M1002.02,-1046.14C975.095,-1043.51 946.865,-1035.28 928.337,-1015 806.758,-881.903 980.111,-338.058 856.337,-207 839.521,-189.194 816.501,-179.583 792.447,-174.869"/>
<polygon fill="none" stroke="black" points="792.9,-171.396 782.458,-173.191 791.74,-178.3 792.9,-171.396"/>
</g>
<!-- \\Turba_Factory_Driver -->
<g id="node49" class="node"><title>\\Turba_Factory_Driver</title>
<polygon fill="none" stroke="black" points="1154.34,-1006 1002.34,-1006 1002.34,-970 1154.34,-970 1154.34,-1006"/>
<text text-anchor="middle" x="1078.34" y="-985.2" font-family="Courier,monospace" font-size="11.00">Turba_Factory_Driver</text>
</g>
<!-- \\Horde_Core_Factory_Base -->
<g id="node69" class="node"><title>\\Horde_Core_Factory_Base</title>
<ellipse fill="none" stroke="black" cx="671.753" cy="-126" rx="109.381" ry="18"/>
<text text-anchor="middle" x="671.753" y="-122.3" font-family="Times,serif" font-size="14.00" fill="gray">\Horde_Core_Factory_Base</text>
</g>
<!-- \\Turba_Factory_Driver&#45;&gt;\\Horde_Core_Factory_Base -->
<g id="edge39" class="edge"><title>\\Turba_Factory_Driver&#45;&gt;\\Horde_Core_Factory_Base</title>
<path fill="none" stroke="black" d="M1002.02,-992.135C975.095,-989.507 946.865,-981.284 928.337,-961 806.758,-827.903 980.111,-284.058 856.337,-153 836.451,-131.944 807.892,-122.347 779.204,-118.758"/>
<polygon fill="none" stroke="black" points="779.367,-115.257 769.065,-117.73 778.661,-122.221 779.367,-115.257"/>
</g>
<!-- \\Turba_Factory_Tagger -->
<g id="node50" class="node"><title>\\Turba_Factory_Tagger</title>
<polygon fill="none" stroke="black" points="1154.34,-1114 1002.34,-1114 1002.34,-1078 1154.34,-1078 1154.34,-1114"/>
<text text-anchor="middle" x="1078.34" y="-1093.2" font-family="Courier,monospace" font-size="11.00">Turba_Factory_Tagger</text>
</g>
<!-- \\Turba_Factory_Tagger&#45;&gt;\\Horde_Core_Factory_Injector -->
<g id="edge40" class="edge"><title>\\Turba_Factory_Tagger&#45;&gt;\\Horde_Core_Factory_Injector</title>
<path fill="none" stroke="black" d="M1001.96,-1100.19C975.028,-1097.57 946.809,-1089.33 928.337,-1069 799.088,-926.717 987.932,-347.115 856.337,-207 839.57,-189.148 816.571,-179.517 792.52,-174.8"/>
<polygon fill="none" stroke="black" points="792.974,-171.328 782.532,-173.122 791.814,-178.231 792.974,-171.328"/>
</g>
<!-- \\Turba_Prefs_Special_Columnselect -->
<g id="node51" class="node"><title>\\Turba_Prefs_Special_Columnselect</title>
<polygon fill="none" stroke="black" points="1194.84,-952 961.837,-952 961.837,-916 1194.84,-916 1194.84,-952"/>
<text text-anchor="middle" x="1078.34" y="-931.2" font-family="Courier,monospace" font-size="11.00">Turba_Prefs_Special_Columnselect</text>
</g>
<!-- \\Horde_Core_Prefs_Ui_Special -->
<g id="node70" class="node"><title>\\Horde_Core_Prefs_Ui_Special</title>
<ellipse fill="none" stroke="black" cx="671.753" cy="-72" rx="122.379" ry="18"/>
<text text-anchor="middle" x="671.753" y="-68.3" font-family="Times,serif" font-size="14.00" fill="gray">\Horde_Core_Prefs_Ui_Special</text>
</g>
<!-- \\Turba_Prefs_Special_Columnselect&#45;&gt;\\Horde_Core_Prefs_Ui_Special -->
<g id="edge41" class="edge"><title>\\Turba_Prefs_Special_Columnselect&#45;&gt;\\Horde_Core_Prefs_Ui_Special</title>
<path fill="none" stroke="black" stroke-dasharray="1,5" d="M961.481,-928.975C948.955,-924.063 937.468,-916.996 928.337,-907 806.758,-773.903 980.111,-230.058 856.337,-99 840.537,-82.2705 819.262,-72.7747 796.796,-67.7784"/>
<polygon fill="none" stroke="black" points="797.24,-64.2996 786.759,-65.8471 795.917,-71.1735 797.24,-64.2996"/>
</g>
<!-- \\Turba_Block_Minisearch -->
<g id="node52" class="node"><title>\\Turba_Block_Minisearch</title>
<polygon fill="none" stroke="black" points="1160.84,-898 995.837,-898 995.837,-862 1160.84,-862 1160.84,-898"/>
<text text-anchor="middle" x="1078.34" y="-877.2" font-family="Courier,monospace" font-size="11.00">Turba_Block_Minisearch</text>
</g>
<!-- \\Horde_Core_Block -->
<g id="node71" class="node"><title>\\Horde_Core_Block</title>
<ellipse fill="none" stroke="black" cx="671.753" cy="-18" rx="81.7856" ry="18"/>
<text text-anchor="middle" x="671.753" y="-14.3" font-family="Times,serif" font-size="14.00" fill="gray">\Horde_Core_Block</text>
</g>
<!-- \\Turba_Block_Minisearch&#45;&gt;\\Horde_Core_Block -->
<g id="edge42" class="edge"><title>\\Turba_Block_Minisearch&#45;&gt;\\Horde_Core_Block</title>
<path fill="none" stroke="black" d="M1075.21,-861.697C1061.84,-749.956 985.791,-160.628 856.337,-45 829.767,-21.2685 791.896,-13.0014 757.445,-11.2666"/>
<polygon fill="none" stroke="black" points="757.466,-7.76555 747.357,-10.9353 757.236,-14.7618 757.466,-7.76555"/>
</g>
</g>
</svg>
