<?xml version="1.0" encoding="UTF-8" standalone="no"?>
<!DOCTYPE svg PUBLIC "-//W3C//DTD SVG 1.1//EN"
 "http://www.w3.org/Graphics/SVG/1.1/DTD/svg11.dtd">
<!-- Generated by graphviz version 2.38.0 (20140413.2041)
 -->
<!-- Title: G Pages: 1 -->
<svg width="423pt" height="150pt"
 viewBox="0.00 0.00 422.89 150.00" xmlns="http://www.w3.org/2000/svg" xmlns:xlink="http://www.w3.org/1999/xlink">
<g id="graph0" class="graph" transform="scale(1 1) rotate(0) translate(4 146)">
<title>G</title>
<polygon fill="white" stroke="none" points="-4,4 -4,-146 418.889,-146 418.889,4 -4,4"/>
<g id="clust1" class="cluster"><title>cluster_Global</title>
<path fill="none" stroke="gray" d="M196.889,-8C196.889,-8 394.889,-8 394.889,-8 400.889,-8 406.889,-14 406.889,-20 406.889,-20 406.889,-122 406.889,-122 406.889,-128 400.889,-134 394.889,-134 394.889,-134 196.889,-134 196.889,-134 190.889,-134 184.889,-128 184.889,-122 184.889,-122 184.889,-20 184.889,-20 184.889,-14 190.889,-8 196.889,-8"/>
<text text-anchor="middle" x="295.889" y="-121.2" font-family="Times,serif" font-size="11.00" fill="gray">Global</text>
</g>
<!-- \\Horde_Mongo_Client -->
<g id="node1" class="node"><title>\\Horde_Mongo_Client</title>
<polygon fill="none" stroke="black" points="364.889,-106 226.889,-106 226.889,-70 364.889,-70 364.889,-106"/>
<text text-anchor="middle" x="295.889" y="-85.2" font-family="Courier,monospace" font-size="11.00">Horde_Mongo_Client</text>
</g>
<!-- \\MongoClient -->
<g id="node3" class="node"><title>\\MongoClient</title>
<ellipse fill="none" stroke="black" cx="60.4446" cy="-115" rx="60.3893" ry="18"/>
<text text-anchor="middle" x="60.4446" y="-111.3" font-family="Times,serif" font-size="14.00" fill="gray">\MongoClient</text>
</g>
<!-- \\Horde_Mongo_Client&#45;&gt;\\MongoClient -->
<g id="edge1" class="edge"><title>\\Horde_Mongo_Client&#45;&gt;\\MongoClient</title>
<path fill="none" stroke="black" d="M226.74,-95.8821C195.424,-99.5041 158.431,-103.783 127.389,-107.373"/>
<polygon fill="none" stroke="black" points="126.638,-103.936 117.107,-108.562 127.443,-110.89 126.638,-103.936"/>
</g>
<!-- \\Serializable -->
<g id="node4" class="node"><title>\\Serializable</title>
<ellipse fill="none" stroke="black" cx="60.4446" cy="-61" rx="54.6905" ry="18"/>
<text text-anchor="middle" x="60.4446" y="-57.3" font-family="Times,serif" font-size="14.00" fill="gray">\Serializable</text>
</g>
<!-- \\Horde_Mongo_Client&#45;&gt;\\Serializable -->
<g id="edge2" class="edge"><title>\\Horde_Mongo_Client&#45;&gt;\\Serializable</title>
<path fill="none" stroke="black" stroke-dasharray="1,5" d="M226.74,-80.1179C193.709,-76.2976 154.362,-71.7468 122.345,-68.0437"/>
<polygon fill="none" stroke="black" points="122.56,-64.5454 112.225,-66.8732 121.756,-71.499 122.56,-64.5454"/>
</g>
<!-- \\Horde_Mongo_Collection_Index -->
<g id="node2" class="node"><title>\\Horde_Mongo_Collection_Index</title>
<polygon fill="none" stroke="black" points="398.889,-52 192.889,-52 192.889,-16 398.889,-16 398.889,-52"/>
<text text-anchor="middle" x="295.889" y="-31.2" font-family="Courier,monospace" font-size="11.00">Horde_Mongo_Collection_Index</text>
</g>
</g>
</svg>
