<?xml version="1.0" encoding="UTF-8" standalone="no"?>
<!DOCTYPE svg PUBLIC "-//W3C//DTD SVG 1.1//EN"
 "http://www.w3.org/Graphics/SVG/1.1/DTD/svg11.dtd">
<!-- Generated by graphviz version 2.38.0 (20140413.2041)
 -->
<!-- Title: G Pages: 1 -->
<svg width="844pt" height="242pt"
 viewBox="0.00 0.00 844.07 242.00" xmlns="http://www.w3.org/2000/svg" xmlns:xlink="http://www.w3.org/1999/xlink">
<g id="graph0" class="graph" transform="scale(1 1) rotate(0) translate(4 238)">
<title>G</title>
<polygon fill="white" stroke="none" points="-4,4 -4,-238 840.07,-238 840.07,4 -4,4"/>
<g id="clust1" class="cluster"><title>cluster_Global</title>
<path fill="none" stroke="gray" d="M185.19,-46C185.19,-46 816.07,-46 816.07,-46 822.07,-46 828.07,-52 828.07,-58 828.07,-58 828.07,-214 828.07,-214 828.07,-220 822.07,-226 816.07,-226 816.07,-226 185.19,-226 185.19,-226 179.19,-226 173.19,-220 173.19,-214 173.19,-214 173.19,-58 173.19,-58 173.19,-52 179.19,-46 185.19,-46"/>
<text text-anchor="middle" x="500.63" y="-213.2" font-family="Times,serif" font-size="11.00" fill="gray">Global</text>
</g>
<!-- \\Horde_Stream_Temp -->
<g id="node1" class="node"><title>\\Horde_Stream_Temp</title>
<polygon fill="none" stroke="black" points="529.13,-144 398.13,-144 398.13,-108 529.13,-108 529.13,-144"/>
<text text-anchor="middle" x="463.63" y="-123.2" font-family="Courier,monospace" font-size="11.00">Horde_Stream_Temp</text>
</g>
<!-- \\Horde_Stream -->
<g id="node6" class="node"><title>\\Horde_Stream</title>
<polygon fill="none" stroke="black" points="279.19,-144 181.19,-144 181.19,-108 279.19,-108 279.19,-144"/>
<text text-anchor="middle" x="230.19" y="-123.2" font-family="Courier,monospace" font-size="11.00">Horde_Stream</text>
</g>
<!-- \\Horde_Stream_Temp&#45;&gt;\\Horde_Stream -->
<g id="edge1" class="edge"><title>\\Horde_Stream_Temp&#45;&gt;\\Horde_Stream</title>
<path fill="none" stroke="black" d="M397.854,-126C363.946,-126 322.748,-126 289.796,-126"/>
<polygon fill="none" stroke="black" points="289.407,-122.5 279.407,-126 289.407,-129.5 289.407,-122.5"/>
</g>
<!-- \\Horde_Stream_Existing -->
<g id="node2" class="node"><title>\\Horde_Stream_Existing</title>
<polygon fill="none" stroke="black" points="542.63,-198 384.63,-198 384.63,-162 542.63,-162 542.63,-198"/>
<text text-anchor="middle" x="463.63" y="-177.2" font-family="Courier,monospace" font-size="11.00">Horde_Stream_Existing</text>
</g>
<!-- \\Horde_Stream_Existing&#45;&gt;\\Horde_Stream -->
<g id="edge2" class="edge"><title>\\Horde_Stream_Existing&#45;&gt;\\Horde_Stream</title>
<path fill="none" stroke="black" d="M385.242,-161.944C353.974,-154.648 318.497,-146.371 289.476,-139.599"/>
<polygon fill="none" stroke="black" points="290.031,-136.135 279.497,-137.271 288.441,-142.952 290.031,-136.135"/>
</g>
<!-- \\Horde_Stream_Exception -->
<g id="node3" class="node"><title>\\Horde_Stream_Exception</title>
<polygon fill="none" stroke="black" points="816.57,-90 651.57,-90 651.57,-54 816.57,-54 816.57,-90"/>
<text text-anchor="middle" x="734.07" y="-69.2" font-family="Courier,monospace" font-size="11.00">Horde_Stream_Exception</text>
</g>
<!-- \\Horde_Exception_Wrapped -->
<g id="node7" class="node"><title>\\Horde_Exception_Wrapped</title>
<ellipse fill="none" stroke="black" cx="463.63" cy="-18" rx="112.38" ry="18"/>
<text text-anchor="middle" x="463.63" y="-14.3" font-family="Times,serif" font-size="14.00" fill="gray">\Horde_Exception_Wrapped</text>
</g>
<!-- \\Horde_Stream_Exception&#45;&gt;\\Horde_Exception_Wrapped -->
<g id="edge3" class="edge"><title>\\Horde_Stream_Exception&#45;&gt;\\Horde_Exception_Wrapped</title>
<path fill="none" stroke="black" d="M651.436,-55.5783C617.461,-48.7438 578.147,-40.8352 544.374,-34.0414"/>
<polygon fill="none" stroke="black" points="545.039,-30.6052 534.545,-32.0642 543.658,-37.4677 545.039,-30.6052"/>
</g>
<!-- \\Horde_Stream_TempString -->
<g id="node4" class="node"><title>\\Horde_Stream_TempString</title>
<polygon fill="none" stroke="black" points="820.07,-144 648.07,-144 648.07,-108 820.07,-108 820.07,-144"/>
<text text-anchor="middle" x="734.07" y="-123.2" font-family="Courier,monospace" font-size="11.00">Horde_Stream_TempString</text>
</g>
<!-- \\Horde_Stream_TempString&#45;&gt;\\Horde_Stream_Temp -->
<g id="edge4" class="edge"><title>\\Horde_Stream_TempString&#45;&gt;\\Horde_Stream_Temp</title>
<path fill="none" stroke="black" d="M647.765,-126C612.983,-126 573.124,-126 539.491,-126"/>
<polygon fill="none" stroke="black" points="539.266,-122.5 529.266,-126 539.266,-129.5 539.266,-122.5"/>
</g>
<!-- \\Horde_Stream_String -->
<g id="node5" class="node"><title>\\Horde_Stream_String</title>
<polygon fill="none" stroke="black" points="536.13,-90 391.13,-90 391.13,-54 536.13,-54 536.13,-90"/>
<text text-anchor="middle" x="463.63" y="-69.2" font-family="Courier,monospace" font-size="11.00">Horde_Stream_String</text>
</g>
<!-- \\Horde_Stream_String&#45;&gt;\\Horde_Stream -->
<g id="edge5" class="edge"><title>\\Horde_Stream_String&#45;&gt;\\Horde_Stream</title>
<path fill="none" stroke="black" d="M390.986,-88.7161C358.283,-96.3465 320.058,-105.265 289.195,-112.466"/>
<polygon fill="none" stroke="black" points="288.393,-109.059 279.45,-114.74 289.983,-115.876 288.393,-109.059"/>
</g>
<!-- \\Serializable -->
<g id="node8" class="node"><title>\\Serializable</title>
<ellipse fill="none" stroke="black" cx="54.5952" cy="-126" rx="54.6905" ry="18"/>
<text text-anchor="middle" x="54.5952" y="-122.3" font-family="Times,serif" font-size="14.00" fill="gray">\Serializable</text>
</g>
<!-- \\Horde_Stream&#45;&gt;\\Serializable -->
<g id="edge6" class="edge"><title>\\Horde_Stream&#45;&gt;\\Serializable</title>
<path fill="none" stroke="black" stroke-dasharray="1,5" d="M180.834,-126C161.867,-126 139.832,-126 119.579,-126"/>
<polygon fill="none" stroke="black" points="119.49,-122.5 109.49,-126 119.49,-129.5 119.49,-122.5"/>
</g>
</g>
</svg>
