<?xml version="1.0" encoding="UTF-8" standalone="no"?>
<!DOCTYPE svg PUBLIC "-//W3C//DTD SVG 1.1//EN"
 "http://www.w3.org/Graphics/SVG/1.1/DTD/svg11.dtd">
<!-- Generated by graphviz version 2.38.0 (20140413.2041)
 -->
<!-- Title: G Pages: 1 -->
<svg width="673pt" height="474pt"
 viewBox="0.00 0.00 673.00 474.00" xmlns="http://www.w3.org/2000/svg" xmlns:xlink="http://www.w3.org/1999/xlink">
<g id="graph0" class="graph" transform="scale(1 1) rotate(0) translate(4 470)">
<title>G</title>
<polygon fill="white" stroke="none" points="-4,4 -4,-470 669,-470 669,4 -4,4"/>
<g id="clust1" class="cluster"><title>cluster_Global</title>
<path fill="none" stroke="gray" d="M20,-8C20,-8 645,-8 645,-8 651,-8 657,-14 657,-20 657,-20 657,-446 657,-446 657,-452 651,-458 645,-458 645,-458 20,-458 20,-458 14,-458 8,-452 8,-446 8,-446 8,-20 8,-20 8,-14 14,-8 20,-8"/>
<text text-anchor="middle" x="332.5" y="-445.2" font-family="Times,serif" font-size="11.00" fill="gray">Global</text>
</g>
<!-- \\Horde_Constraint_Null -->
<g id="node1" class="node"><title>\\Horde_Constraint_Null</title>
<polygon fill="none" stroke="black" points="398,-430 240,-430 240,-394 398,-394 398,-430"/>
<text text-anchor="middle" x="319" y="-409.2" font-family="Courier,monospace" font-size="11.00">Horde_Constraint_Null</text>
</g>
<!-- \\Horde_Constraint -->
<g id="node11" class="node"><title>\\Horde_Constraint</title>
<polygon fill="none" stroke="black" points="141,-241 16,-241 16,-205 141,-205 141,-241"/>
<text text-anchor="middle" x="78.5" y="-220.2" font-family="Courier,monospace" font-size="11.00">Horde_Constraint</text>
</g>
<!-- \\Horde_Constraint_Null&#45;&gt;\\Horde_Constraint -->
<g id="edge1" class="edge"><title>\\Horde_Constraint_Null&#45;&gt;\\Horde_Constraint</title>
<path fill="none" stroke="black" stroke-dasharray="1,5" d="M239.968,-397.898C230.493,-394.487 221.258,-390.254 213,-385 158.664,-350.431 115.732,-286.397 94.3498,-250.047"/>
<polygon fill="none" stroke="black" points="97.1659,-247.924 89.1411,-241.006 91.1005,-251.419 97.1659,-247.924"/>
</g>
<!-- \\Horde_Constraint_AlwaysFalse -->
<g id="node2" class="node"><title>\\Horde_Constraint_AlwaysFalse</title>
<polygon fill="none" stroke="black" points="422,-376 216,-376 216,-340 422,-340 422,-376"/>
<text text-anchor="middle" x="319" y="-355.2" font-family="Courier,monospace" font-size="11.00">Horde_Constraint_AlwaysFalse</text>
</g>
<!-- \\Horde_Constraint_AlwaysFalse&#45;&gt;\\Horde_Constraint -->
<g id="edge2" class="edge"><title>\\Horde_Constraint_AlwaysFalse&#45;&gt;\\Horde_Constraint</title>
<path fill="none" stroke="black" stroke-dasharray="1,5" d="M234.255,-339.996C226.914,-337.367 219.726,-334.382 213,-331 170.519,-309.638 129.15,-272.97 103.999,-248.362"/>
<polygon fill="none" stroke="black" points="106.292,-245.707 96.7301,-241.143 101.358,-250.673 106.292,-245.707"/>
</g>
<!-- \\Horde_Constraint_And -->
<g id="node3" class="node"><title>\\Horde_Constraint_And</title>
<polygon fill="none" stroke="black" points="649,-295 497,-295 497,-259 649,-259 649,-295"/>
<text text-anchor="middle" x="573" y="-274.2" font-family="Courier,monospace" font-size="11.00">Horde_Constraint_And</text>
</g>
<!-- \\Horde_Constraint_Coupler -->
<g id="node5" class="node"><title>\\Horde_Constraint_Coupler</title>
<polygon fill="none" stroke="black" points="408.5,-268 229.5,-268 229.5,-232 408.5,-232 408.5,-268"/>
<text text-anchor="start" x="285" y="-253.2" font-family="Courier,monospace" font-size="11.00">«abstract»</text>
<text text-anchor="start" x="237.5" y="-241.2" font-family="Courier,monospace" font-size="11.00">Horde_Constraint_Coupler</text>
</g>
<!-- \\Horde_Constraint_And&#45;&gt;\\Horde_Constraint_Coupler -->
<g id="edge3" class="edge"><title>\\Horde_Constraint_And&#45;&gt;\\Horde_Constraint_Coupler</title>
<path fill="none" stroke="black" d="M496.733,-268.936C472.278,-266.316 444.763,-263.367 418.855,-260.592"/>
<polygon fill="none" stroke="black" points="418.949,-257.082 408.633,-259.496 418.203,-264.042 418.949,-257.082"/>
</g>
<!-- \\Horde_Constraint_Not -->
<g id="node4" class="node"><title>\\Horde_Constraint_Not</title>
<polygon fill="none" stroke="black" points="395,-322 243,-322 243,-286 395,-286 395,-322"/>
<text text-anchor="middle" x="319" y="-301.2" font-family="Courier,monospace" font-size="11.00">Horde_Constraint_Not</text>
</g>
<!-- \\Horde_Constraint_Not&#45;&gt;\\Horde_Constraint -->
<g id="edge4" class="edge"><title>\\Horde_Constraint_Not&#45;&gt;\\Horde_Constraint</title>
<path fill="none" stroke="black" stroke-dasharray="1,5" d="M242.795,-285.955C232.718,-283.161 222.565,-280.149 213,-277 184.888,-267.745 154.23,-255.503 129.39,-245.015"/>
<polygon fill="none" stroke="black" points="130.745,-241.788 120.173,-241.091 128.003,-248.229 130.745,-241.788"/>
</g>
<!-- \\Horde_Constraint_Coupler&#45;&gt;\\Horde_Constraint -->
<g id="edge5" class="edge"><title>\\Horde_Constraint_Coupler&#45;&gt;\\Horde_Constraint</title>
<path fill="none" stroke="black" stroke-dasharray="1,5" d="M229.191,-239.946C203.467,-237.034 175.716,-233.892 151.18,-231.115"/>
<polygon fill="none" stroke="black" points="151.565,-227.636 141.235,-229.989 150.777,-234.592 151.565,-227.636"/>
</g>
<!-- \\Horde_Constraint_Or -->
<g id="node6" class="node"><title>\\Horde_Constraint_Or</title>
<polygon fill="none" stroke="black" points="645.5,-241 500.5,-241 500.5,-205 645.5,-205 645.5,-241"/>
<text text-anchor="middle" x="573" y="-220.2" font-family="Courier,monospace" font-size="11.00">Horde_Constraint_Or</text>
</g>
<!-- \\Horde_Constraint_Or&#45;&gt;\\Horde_Constraint_Coupler -->
<g id="edge6" class="edge"><title>\\Horde_Constraint_Or&#45;&gt;\\Horde_Constraint_Coupler</title>
<path fill="none" stroke="black" d="M500.461,-230.665C475.06,-233.386 446.002,-236.5 418.734,-239.421"/>
<polygon fill="none" stroke="black" points="418.35,-235.942 408.779,-240.488 419.095,-242.903 418.35,-235.942"/>
</g>
<!-- \\Horde_Constraint_IsInstanceOf -->
<g id="node7" class="node"><title>\\Horde_Constraint_IsInstanceOf</title>
<polygon fill="none" stroke="black" points="425,-214 213,-214 213,-178 425,-178 425,-214"/>
<text text-anchor="middle" x="319" y="-193.2" font-family="Courier,monospace" font-size="11.00">Horde_Constraint_IsInstanceOf</text>
</g>
<!-- \\Horde_Constraint_IsInstanceOf&#45;&gt;\\Horde_Constraint -->
<g id="edge7" class="edge"><title>\\Horde_Constraint_IsInstanceOf&#45;&gt;\\Horde_Constraint</title>
<path fill="none" stroke="black" stroke-dasharray="1,5" d="M212.696,-207.921C191.868,-210.279 170.465,-212.702 151.075,-214.897"/>
<polygon fill="none" stroke="black" points="150.676,-211.42 141.133,-216.023 151.463,-218.376 150.676,-211.42"/>
</g>
<!-- \\Horde_Constraint_PregMatch -->
<g id="node8" class="node"><title>\\Horde_Constraint_PregMatch</title>
<polygon fill="none" stroke="black" points="415,-160 223,-160 223,-124 415,-124 415,-160"/>
<text text-anchor="middle" x="319" y="-139.2" font-family="Courier,monospace" font-size="11.00">Horde_Constraint_PregMatch</text>
</g>
<!-- \\Horde_Constraint_PregMatch&#45;&gt;\\Horde_Constraint -->
<g id="edge8" class="edge"><title>\\Horde_Constraint_PregMatch&#45;&gt;\\Horde_Constraint</title>
<path fill="none" stroke="black" stroke-dasharray="1,5" d="M242.795,-160.045C232.718,-162.839 222.565,-165.851 213,-169 184.888,-178.255 154.23,-190.497 129.39,-200.985"/>
<polygon fill="none" stroke="black" points="128.003,-197.771 120.173,-204.909 130.745,-204.212 128.003,-197.771"/>
</g>
<!-- \\Horde_Constraint_AlwaysTrue -->
<g id="node9" class="node"><title>\\Horde_Constraint_AlwaysTrue</title>
<polygon fill="none" stroke="black" points="418.5,-106 219.5,-106 219.5,-70 418.5,-70 418.5,-106"/>
<text text-anchor="middle" x="319" y="-85.2" font-family="Courier,monospace" font-size="11.00">Horde_Constraint_AlwaysTrue</text>
</g>
<!-- \\Horde_Constraint_AlwaysTrue&#45;&gt;\\Horde_Constraint -->
<g id="edge9" class="edge"><title>\\Horde_Constraint_AlwaysTrue&#45;&gt;\\Horde_Constraint</title>
<path fill="none" stroke="black" stroke-dasharray="1,5" d="M234.255,-106.004C226.914,-108.633 219.726,-111.618 213,-115 170.519,-136.362 129.15,-173.03 103.999,-197.638"/>
<polygon fill="none" stroke="black" points="101.358,-195.327 96.7301,-204.857 106.292,-200.293 101.358,-195.327"/>
</g>
<!-- \\Horde_Constraint_IsEqual -->
<g id="node10" class="node"><title>\\Horde_Constraint_IsEqual</title>
<polygon fill="none" stroke="black" points="408.5,-52 229.5,-52 229.5,-16 408.5,-16 408.5,-52"/>
<text text-anchor="middle" x="319" y="-31.2" font-family="Courier,monospace" font-size="11.00">Horde_Constraint_IsEqual</text>
</g>
<!-- \\Horde_Constraint_IsEqual&#45;&gt;\\Horde_Constraint -->
<g id="edge10" class="edge"><title>\\Horde_Constraint_IsEqual&#45;&gt;\\Horde_Constraint</title>
<path fill="none" stroke="black" stroke-dasharray="1,5" d="M229.98,-52.0636C224.046,-54.6542 218.32,-57.6154 213,-61 158.664,-95.569 115.732,-159.603 94.3498,-195.953"/>
<polygon fill="none" stroke="black" points="91.1005,-194.581 89.1411,-204.994 97.1659,-198.076 91.1005,-194.581"/>
</g>
</g>
</svg>
