<?xml version="1.0" encoding="UTF-8" standalone="no"?>
<!DOCTYPE svg PUBLIC "-//W3C//DTD SVG 1.1//EN"
 "http://www.w3.org/Graphics/SVG/1.1/DTD/svg11.dtd">
<!-- Generated by graphviz version 2.38.0 (20140413.2041)
 -->
<!-- Title: G Pages: 1 -->
<svg width="567pt" height="510pt"
 viewBox="0.00 0.00 566.88 510.00" xmlns="http://www.w3.org/2000/svg" xmlns:xlink="http://www.w3.org/1999/xlink">
<g id="graph0" class="graph" transform="scale(1 1) rotate(0) translate(4 506)">
<title>G</title>
<polygon fill="white" stroke="none" points="-4,4 -4,-506 562.88,-506 562.88,4 -4,4"/>
<g id="clust1" class="cluster"><title>cluster_Global</title>
<path fill="none" stroke="gray" d="M50.94,-44C50.94,-44 538.88,-44 538.88,-44 544.88,-44 550.88,-50 550.88,-56 550.88,-56 550.88,-482 550.88,-482 550.88,-488 544.88,-494 538.88,-494 538.88,-494 50.94,-494 50.94,-494 44.94,-494 38.94,-488 38.94,-482 38.94,-482 38.94,-56 38.94,-56 38.94,-50 44.94,-44 50.94,-44"/>
<text text-anchor="middle" x="294.91" y="-481.2" font-family="Times,serif" font-size="11.00" fill="gray">Global</text>
</g>
<!-- \\Horde_Pack_Exception -->
<g id="node1" class="node"><title>\\Horde_Pack_Exception</title>
<polygon fill="none" stroke="black" points="495.88,-196 343.88,-196 343.88,-160 495.88,-160 495.88,-196"/>
<text text-anchor="middle" x="419.88" y="-175.2" font-family="Courier,monospace" font-size="11.00">Horde_Pack_Exception</text>
</g>
<!-- \\Horde_Exception_Wrapped -->
<g id="node10" class="node"><title>\\Horde_Exception_Wrapped</title>
<ellipse fill="none" stroke="black" cx="112.44" cy="-18" rx="112.38" ry="18"/>
<text text-anchor="middle" x="112.44" y="-14.3" font-family="Times,serif" font-size="14.00" fill="gray">\Horde_Exception_Wrapped</text>
</g>
<!-- \\Horde_Pack_Exception&#45;&gt;\\Horde_Exception_Wrapped -->
<g id="edge1" class="edge"><title>\\Horde_Pack_Exception&#45;&gt;\\Horde_Exception_Wrapped</title>
<path fill="none" stroke="black" d="M343.8,-170.904C327.324,-166.84 310.693,-160.584 296.88,-151 248.568,-117.478 273.573,-72.9664 224.88,-40 220.856,-37.2758 216.575,-34.8721 212.122,-32.7526"/>
<polygon fill="none" stroke="black" points="213.343,-29.4689 202.77,-28.7894 210.612,-35.9141 213.343,-29.4689"/>
</g>
<!-- \\Horde_Pack_Driver_Serialize -->
<g id="node2" class="node"><title>\\Horde_Pack_Driver_Serialize</title>
<polygon fill="none" stroke="black" points="519.38,-466 320.38,-466 320.38,-430 519.38,-430 519.38,-466"/>
<text text-anchor="middle" x="419.88" y="-445.2" font-family="Courier,monospace" font-size="11.00">Horde_Pack_Driver_Serialize</text>
</g>
<!-- \\Horde_Pack_Driver -->
<g id="node7" class="node"><title>\\Horde_Pack_Driver</title>
<polygon fill="none" stroke="black" points="177.94,-358 46.94,-358 46.94,-322 177.94,-322 177.94,-358"/>
<text text-anchor="start" x="78.44" y="-343.2" font-family="Courier,monospace" font-size="11.00">«abstract»</text>
<text text-anchor="start" x="54.94" y="-331.2" font-family="Courier,monospace" font-size="11.00">Horde_Pack_Driver</text>
</g>
<!-- \\Horde_Pack_Driver_Serialize&#45;&gt;\\Horde_Pack_Driver -->
<g id="edge2" class="edge"><title>\\Horde_Pack_Driver_Serialize&#45;&gt;\\Horde_Pack_Driver</title>
<path fill="none" stroke="black" d="M327.735,-429.916C317.248,-427.221 306.775,-424.244 296.88,-421 248.14,-405.021 194.742,-380.605 158.191,-362.756"/>
<polygon fill="none" stroke="black" points="159.329,-359.415 148.811,-358.139 156.238,-365.696 159.329,-359.415"/>
</g>
<!-- \\Horde_Pack_Driver_Msgpack -->
<g id="node3" class="node"><title>\\Horde_Pack_Driver_Msgpack</title>
<polygon fill="none" stroke="black" points="512.38,-412 327.38,-412 327.38,-376 512.38,-376 512.38,-412"/>
<text text-anchor="middle" x="419.88" y="-391.2" font-family="Courier,monospace" font-size="11.00">Horde_Pack_Driver_Msgpack</text>
</g>
<!-- \\Horde_Pack_Driver_Msgpack&#45;&gt;\\Horde_Pack_Driver -->
<g id="edge3" class="edge"><title>\\Horde_Pack_Driver_Msgpack&#45;&gt;\\Horde_Pack_Driver</title>
<path fill="none" stroke="black" d="M327.238,-377.798C282.826,-369.947 230.164,-360.636 188.219,-353.221"/>
<polygon fill="none" stroke="black" points="188.804,-349.77 178.347,-351.475 187.585,-356.663 188.804,-349.77"/>
</g>
<!-- \\Horde_Pack_Driver_Msgpackserialize -->
<g id="node4" class="node"><title>\\Horde_Pack_Driver_Msgpackserialize</title>
<polygon fill="none" stroke="black" points="542.88,-358 296.88,-358 296.88,-322 542.88,-322 542.88,-358"/>
<text text-anchor="middle" x="419.88" y="-337.2" font-family="Courier,monospace" font-size="11.00">Horde_Pack_Driver_Msgpackserialize</text>
</g>
<!-- \\Horde_Pack_Driver_Msgpackserialize&#45;&gt;\\Horde_Pack_Driver -->
<g id="edge4" class="edge"><title>\\Horde_Pack_Driver_Msgpackserialize&#45;&gt;\\Horde_Pack_Driver</title>
<path fill="none" stroke="black" d="M296.845,-340C260.26,-340 221.225,-340 188.612,-340"/>
<polygon fill="none" stroke="black" points="188.26,-336.5 178.26,-340 188.26,-343.5 188.26,-336.5"/>
</g>
<!-- \\Horde_Pack_Driver_Igbinary -->
<g id="node5" class="node"><title>\\Horde_Pack_Driver_Igbinary</title>
<polygon fill="none" stroke="black" points="515.88,-304 323.88,-304 323.88,-268 515.88,-268 515.88,-304"/>
<text text-anchor="middle" x="419.88" y="-283.2" font-family="Courier,monospace" font-size="11.00">Horde_Pack_Driver_Igbinary</text>
</g>
<!-- \\Horde_Pack_Driver_Igbinary&#45;&gt;\\Horde_Pack_Driver -->
<g id="edge5" class="edge"><title>\\Horde_Pack_Driver_Igbinary&#45;&gt;\\Horde_Pack_Driver</title>
<path fill="none" stroke="black" d="M323.493,-302.864C279.833,-310.583 228.859,-319.595 188.06,-326.808"/>
<polygon fill="none" stroke="black" points="187.423,-323.366 178.185,-328.553 188.642,-330.259 187.423,-323.366"/>
</g>
<!-- \\Horde_Pack_Driver_Json -->
<g id="node6" class="node"><title>\\Horde_Pack_Driver_Json</title>
<polygon fill="none" stroke="black" points="502.38,-250 337.38,-250 337.38,-214 502.38,-214 502.38,-250"/>
<text text-anchor="middle" x="419.88" y="-229.2" font-family="Courier,monospace" font-size="11.00">Horde_Pack_Driver_Json</text>
</g>
<!-- \\Horde_Pack_Driver_Json&#45;&gt;\\Horde_Pack_Driver -->
<g id="edge6" class="edge"><title>\\Horde_Pack_Driver_Json&#45;&gt;\\Horde_Pack_Driver</title>
<path fill="none" stroke="black" d="M337.227,-247.718C323.628,-251.005 309.763,-254.776 296.88,-259 248.14,-274.979 194.742,-299.395 158.191,-317.244"/>
<polygon fill="none" stroke="black" points="156.238,-314.304 148.811,-321.861 159.329,-320.585 156.238,-314.304"/>
</g>
<!-- \\Horde_Pack_Autodetermine -->
<g id="node8" class="node"><title>\\Horde_Pack_Autodetermine</title>
<polygon fill="none" stroke="black" points="509.38,-142 330.38,-142 330.38,-106 509.38,-106 509.38,-142"/>
<text text-anchor="middle" x="419.88" y="-121.2" font-family="Courier,monospace" font-size="11.00">Horde_Pack_Autodetermine</text>
</g>
<!-- \\Horde_Pack -->
<g id="node9" class="node"><title>\\Horde_Pack</title>
<polygon fill="none" stroke="black" points="461.88,-88 377.88,-88 377.88,-52 461.88,-52 461.88,-88"/>
<text text-anchor="middle" x="419.88" y="-67.2" font-family="Courier,monospace" font-size="11.00">Horde_Pack</text>
</g>
</g>
</svg>
