<?xml version="1.0" encoding="UTF-8" standalone="no"?>
<!DOCTYPE svg PUBLIC "-//W3C//DTD SVG 1.1//EN"
 "http://www.w3.org/Graphics/SVG/1.1/DTD/svg11.dtd">
<!-- Generated by graphviz version 2.38.0 (20140413.2041)
 -->
<!-- Title: G Pages: 1 -->
<svg width="840pt" height="834pt"
 viewBox="0.00 0.00 840.38 834.00" xmlns="http://www.w3.org/2000/svg" xmlns:xlink="http://www.w3.org/1999/xlink">
<g id="graph0" class="graph" transform="scale(1 1) rotate(0) translate(4 830)">
<title>G</title>
<polygon fill="white" stroke="none" points="-4,4 -4,-830 836.378,-830 836.378,4 -4,4"/>
<g id="clust1" class="cluster"><title>cluster_Global</title>
<path fill="none" stroke="gray" d="M20,-206C20,-206 812.378,-206 812.378,-206 818.378,-206 824.378,-212 824.378,-218 824.378,-218 824.378,-806 824.378,-806 824.378,-812 818.378,-818 812.378,-818 812.378,-818 20,-818 20,-818 14,-818 8,-812 8,-806 8,-806 8,-218 8,-218 8,-212 14,-206 20,-206"/>
<text text-anchor="middle" x="416.189" y="-805.2" font-family="Times,serif" font-size="11.00" fill="gray">Global</text>
</g>
<!-- \\Horde_Mail_Mbox_Parse -->
<g id="node1" class="node"><title>\\Horde_Mail_Mbox_Parse</title>
<polygon fill="none" stroke="black" points="778.878,-358 620.878,-358 620.878,-322 778.878,-322 778.878,-358"/>
<text text-anchor="middle" x="699.878" y="-337.2" font-family="Courier,monospace" font-size="11.00">Horde_Mail_Mbox_Parse</text>
</g>
<!-- \\ArrayAccess -->
<g id="node20" class="node"><title>\\ArrayAccess</title>
<ellipse fill="none" stroke="black" cx="105.5" cy="-18" rx="58.4896" ry="18"/>
<text text-anchor="middle" x="105.5" y="-14.3" font-family="Times,serif" font-size="14.00" fill="gray">\ArrayAccess</text>
</g>
<!-- \\Horde_Mail_Mbox_Parse&#45;&gt;\\ArrayAccess -->
<g id="edge1" class="edge"><title>\\Horde_Mail_Mbox_Parse&#45;&gt;\\ArrayAccess</title>
<path fill="none" stroke="black" stroke-dasharray="1,5" d="M620.655,-332.052C607.181,-327.925 594.089,-321.86 583.378,-313 522.667,-262.779 573.328,-199.685 511.378,-151 468.337,-117.175 440.665,-150.188 390.189,-129"/>
<path fill="none" stroke="black" stroke-dasharray="1,5" d="M388.189,-129C337.919,-107.898 316.212,-133.465 267,-110 228.086,-91.4452 232.514,-66.2424 195,-45 185.368,-39.5459 174.509,-35.0718 163.782,-31.4453"/>
<polygon fill="none" stroke="black" points="164.597,-28.032 154.007,-28.3492 162.483,-34.7053 164.597,-28.032"/>
</g>
<!-- \\Countable -->
<g id="node21" class="node"><title>\\Countable</title>
<ellipse fill="none" stroke="black" cx="105.5" cy="-126" rx="49.2915" ry="18"/>
<text text-anchor="middle" x="105.5" y="-122.3" font-family="Times,serif" font-size="14.00" fill="gray">\Countable</text>
</g>
<!-- \\Horde_Mail_Mbox_Parse&#45;&gt;\\Countable -->
<g id="edge2" class="edge"><title>\\Horde_Mail_Mbox_Parse&#45;&gt;\\Countable</title>
<path fill="none" stroke="black" stroke-dasharray="1,5" d="M388.189,-129C349.237,-112.649 234.58,-117 164.131,-121.558"/>
<polygon fill="none" stroke="black" points="163.816,-118.072 154.072,-122.23 164.283,-125.056 163.816,-118.072"/>
</g>
<!-- \\Iterator -->
<g id="node22" class="node"><title>\\Iterator</title>
<ellipse fill="none" stroke="black" cx="389.189" cy="-178" rx="38.9931" ry="18"/>
<text text-anchor="middle" x="389.189" y="-174.3" font-family="Times,serif" font-size="14.00" fill="gray">\Iterator</text>
</g>
<!-- \\Horde_Mail_Mbox_Parse&#45;&gt;\\Iterator -->
<g id="edge3" class="edge"><title>\\Horde_Mail_Mbox_Parse&#45;&gt;\\Iterator</title>
<path fill="none" stroke="black" stroke-dasharray="1,5" d="M620.828,-330.371C607.562,-326.393 594.499,-320.814 583.378,-313 535.265,-279.193 560.061,-234.981 511.378,-202 490.11,-187.591 462.214,-181.412 438.549,-178.915"/>
<polygon fill="none" stroke="black" points="438.62,-175.408 428.355,-178.034 438.017,-182.382 438.62,-175.408"/>
</g>
<!-- \\Horde_Mail_Rfc822_Group -->
<g id="node2" class="node"><title>\\Horde_Mail_Rfc822_Group</title>
<polygon fill="none" stroke="black" points="475.189,-304 303.189,-304 303.189,-268 475.189,-268 475.189,-304"/>
<text text-anchor="middle" x="389.189" y="-283.2" font-family="Courier,monospace" font-size="11.00">Horde_Mail_Rfc822_Group</text>
</g>
<!-- \\Horde_Mail_Rfc822_Object -->
<g id="node4" class="node"><title>\\Horde_Mail_Rfc822_Object</title>
<polygon fill="none" stroke="black" points="195,-304 16,-304 16,-268 195,-268 195,-304"/>
<text text-anchor="start" x="71.5" y="-289.2" font-family="Courier,monospace" font-size="11.00">«abstract»</text>
<text text-anchor="start" x="24" y="-277.2" font-family="Courier,monospace" font-size="11.00">Horde_Mail_Rfc822_Object</text>
</g>
<!-- \\Horde_Mail_Rfc822_Group&#45;&gt;\\Horde_Mail_Rfc822_Object -->
<g id="edge4" class="edge"><title>\\Horde_Mail_Rfc822_Group&#45;&gt;\\Horde_Mail_Rfc822_Object</title>
<path fill="none" stroke="black" d="M302.909,-286C272.224,-286 237.349,-286 205.589,-286"/>
<polygon fill="none" stroke="black" points="205.396,-282.5 195.396,-286 205.396,-289.5 205.396,-282.5"/>
</g>
<!-- \\Horde_Mail_Rfc822_Group&#45;&gt;\\Countable -->
<g id="edge5" class="edge"><title>\\Horde_Mail_Rfc822_Group&#45;&gt;\\Countable</title>
<path fill="none" stroke="black" stroke-dasharray="1,5" d="M302.981,-275.632C290.245,-271.7 277.788,-266.328 267,-259 219.889,-226.999 240.846,-186.788 195,-153 184.898,-145.555 172.721,-140.14 160.676,-136.209"/>
<polygon fill="none" stroke="black" points="161.668,-132.852 151.086,-133.364 159.677,-139.563 161.668,-132.852"/>
</g>
<!-- \\Horde_Mail_Rfc822_Address -->
<g id="node3" class="node"><title>\\Horde_Mail_Rfc822_Address</title>
<polygon fill="none" stroke="black" points="481.689,-358 296.689,-358 296.689,-322 481.689,-322 481.689,-358"/>
<text text-anchor="middle" x="389.189" y="-337.2" font-family="Courier,monospace" font-size="11.00">Horde_Mail_Rfc822_Address</text>
</g>
<!-- \\Horde_Mail_Rfc822_Address&#45;&gt;\\Horde_Mail_Rfc822_Object -->
<g id="edge6" class="edge"><title>\\Horde_Mail_Rfc822_Address&#45;&gt;\\Horde_Mail_Rfc822_Object</title>
<path fill="none" stroke="black" d="M296.343,-322.393C267.206,-316.807 234.872,-310.609 205.269,-304.934"/>
<polygon fill="none" stroke="black" points="205.823,-301.477 195.343,-303.031 204.505,-308.351 205.823,-301.477"/>
</g>
<!-- \\Horde_Mail_Rfc822_GroupList -->
<g id="node5" class="node"><title>\\Horde_Mail_Rfc822_GroupList</title>
<polygon fill="none" stroke="black" points="799.378,-412 600.378,-412 600.378,-376 799.378,-376 799.378,-412"/>
<text text-anchor="middle" x="699.878" y="-391.2" font-family="Courier,monospace" font-size="11.00">Horde_Mail_Rfc822_GroupList</text>
</g>
<!-- \\Horde_Mail_Rfc822_List -->
<g id="node6" class="node"><title>\\Horde_Mail_Rfc822_List</title>
<polygon fill="none" stroke="black" points="471.689,-250 306.689,-250 306.689,-214 471.689,-214 471.689,-250"/>
<text text-anchor="middle" x="389.189" y="-229.2" font-family="Courier,monospace" font-size="11.00">Horde_Mail_Rfc822_List</text>
</g>
<!-- \\Horde_Mail_Rfc822_GroupList&#45;&gt;\\Horde_Mail_Rfc822_List -->
<g id="edge7" class="edge"><title>\\Horde_Mail_Rfc822_GroupList&#45;&gt;\\Horde_Mail_Rfc822_List</title>
<path fill="none" stroke="black" d="M600.207,-376.521C594.294,-373.789 588.625,-370.637 583.378,-367 535.969,-334.131 558.958,-291.621 511.378,-259 502.395,-252.841 492.236,-248.061 481.716,-244.356"/>
<polygon fill="none" stroke="black" points="482.567,-240.954 471.976,-241.247 480.438,-247.622 482.567,-240.954"/>
</g>
<!-- \\Horde_Mail_Rfc822_List&#45;&gt;\\Horde_Mail_Rfc822_Object -->
<g id="edge8" class="edge"><title>\\Horde_Mail_Rfc822_List&#45;&gt;\\Horde_Mail_Rfc822_Object</title>
<path fill="none" stroke="black" d="M306.335,-247.692C274.831,-253.731 238.522,-260.691 205.568,-267.009"/>
<polygon fill="none" stroke="black" points="204.62,-263.627 195.457,-268.947 205.938,-270.501 204.62,-263.627"/>
</g>
<!-- \\Horde_Mail_Rfc822_List&#45;&gt;\\ArrayAccess -->
<g id="edge9" class="edge"><title>\\Horde_Mail_Rfc822_List&#45;&gt;\\ArrayAccess</title>
<path fill="none" stroke="black" stroke-dasharray="1,5" d="M306.496,-224.681C292.242,-220.502 278.364,-214.257 267,-205 206.541,-155.75 253.521,-96.5373 195,-45 187.235,-38.1614 177.774,-33.0548 167.963,-29.2416"/>
<polygon fill="none" stroke="black" points="169.088,-25.9272 158.493,-25.9676 166.8,-32.543 169.088,-25.9272"/>
</g>
<!-- \\Horde_Mail_Rfc822_List&#45;&gt;\\Countable -->
<g id="edge10" class="edge"><title>\\Horde_Mail_Rfc822_List&#45;&gt;\\Countable</title>
<path fill="none" stroke="black" stroke-dasharray="1,5" d="M306.527,-218.592C293.016,-215.028 279.387,-210.567 267,-205 230.995,-188.82 230.356,-170.552 195,-153 183.306,-147.195 170.117,-142.354 157.562,-138.451"/>
<polygon fill="none" stroke="black" points="158.251,-135.005 147.668,-135.521 156.263,-141.717 158.251,-135.005"/>
</g>
<!-- \\SeekableIterator -->
<g id="node23" class="node"><title>\\SeekableIterator</title>
<ellipse fill="none" stroke="black" cx="105.5" cy="-180" rx="70.6878" ry="18"/>
<text text-anchor="middle" x="105.5" y="-176.3" font-family="Times,serif" font-size="14.00" fill="gray">\SeekableIterator</text>
</g>
<!-- \\Horde_Mail_Rfc822_List&#45;&gt;\\SeekableIterator -->
<g id="edge11" class="edge"><title>\\Horde_Mail_Rfc822_List&#45;&gt;\\SeekableIterator</title>
<path fill="none" stroke="black" stroke-dasharray="1,5" d="M306.335,-216.89C264.105,-209.094 213.24,-199.704 173.396,-192.349"/>
<polygon fill="none" stroke="black" points="173.985,-188.899 163.516,-190.525 172.714,-195.782 173.985,-188.899"/>
</g>
<!-- \\Serializable -->
<g id="node24" class="node"><title>\\Serializable</title>
<ellipse fill="none" stroke="black" cx="105.5" cy="-72" rx="54.6905" ry="18"/>
<text text-anchor="middle" x="105.5" y="-68.3" font-family="Times,serif" font-size="14.00" fill="gray">\Serializable</text>
</g>
<!-- \\Horde_Mail_Rfc822_List&#45;&gt;\\Serializable -->
<g id="edge12" class="edge"><title>\\Horde_Mail_Rfc822_List&#45;&gt;\\Serializable</title>
<path fill="none" stroke="black" stroke-dasharray="1,5" d="M306.46,-222.669C292.524,-218.661 278.768,-212.994 267,-205 219.889,-172.999 240.846,-132.788 195,-99 185.799,-92.2186 174.875,-87.1211 163.897,-83.2953"/>
<polygon fill="none" stroke="black" points="164.868,-79.9316 154.278,-80.2502 162.756,-86.6051 164.868,-79.9316"/>
</g>
<!-- \\Horde_Mail_Rfc822_Identification -->
<g id="node7" class="node"><title>\\Horde_Mail_Rfc822_Identification</title>
<polygon fill="none" stroke="black" points="816.378,-628 583.378,-628 583.378,-592 816.378,-592 816.378,-628"/>
<text text-anchor="middle" x="699.878" y="-607.2" font-family="Courier,monospace" font-size="11.00">Horde_Mail_Rfc822_Identification</text>
</g>
<!-- \\Horde_Mail_Rfc822 -->
<g id="node10" class="node"><title>\\Horde_Mail_Rfc822</title>
<polygon fill="none" stroke="black" points="454.689,-628 323.689,-628 323.689,-592 454.689,-592 454.689,-628"/>
<text text-anchor="middle" x="389.189" y="-607.2" font-family="Courier,monospace" font-size="11.00">Horde_Mail_Rfc822</text>
</g>
<!-- \\Horde_Mail_Rfc822_Identification&#45;&gt;\\Horde_Mail_Rfc822 -->
<g id="edge13" class="edge"><title>\\Horde_Mail_Rfc822_Identification&#45;&gt;\\Horde_Mail_Rfc822</title>
<path fill="none" stroke="black" d="M583.056,-610C543.662,-610 500.691,-610 465.329,-610"/>
<polygon fill="none" stroke="black" points="465.09,-606.5 455.09,-610 465.09,-613.5 465.09,-606.5"/>
</g>
<!-- \\Horde_Mail_Exception -->
<g id="node8" class="node"><title>\\Horde_Mail_Exception</title>
<polygon fill="none" stroke="black" points="775.878,-304 623.878,-304 623.878,-268 775.878,-268 775.878,-304"/>
<text text-anchor="middle" x="699.878" y="-283.2" font-family="Courier,monospace" font-size="11.00">Horde_Mail_Exception</text>
</g>
<!-- \\Horde_Exception_Wrapped -->
<g id="node25" class="node"><title>\\Horde_Exception_Wrapped</title>
<ellipse fill="none" stroke="black" cx="389.189" cy="-83" rx="112.38" ry="18"/>
<text text-anchor="middle" x="389.189" y="-79.3" font-family="Times,serif" font-size="14.00" fill="gray">\Horde_Exception_Wrapped</text>
</g>
<!-- \\Horde_Mail_Exception&#45;&gt;\\Horde_Exception_Wrapped -->
<g id="edge14" class="edge"><title>\\Horde_Mail_Exception&#45;&gt;\\Horde_Exception_Wrapped</title>
<path fill="none" stroke="black" d="M623.682,-278.446C609.242,-274.344 595.015,-268.189 583.378,-259 527.221,-214.656 566.897,-160.14 511.378,-115 502.976,-108.168 493.26,-102.783 483.06,-98.5409"/>
<polygon fill="none" stroke="black" points="484.171,-95.2193 473.58,-94.9572 481.696,-101.767 484.171,-95.2193"/>
</g>
<!-- \\Horde_Mail_Transport -->
<g id="node9" class="node"><title>\\Horde_Mail_Transport</title>
<polygon fill="none" stroke="black" points="181.5,-574 29.5,-574 29.5,-538 181.5,-538 181.5,-574"/>
<text text-anchor="start" x="71.5" y="-559.2" font-family="Courier,monospace" font-size="11.00">«abstract»</text>
<text text-anchor="start" x="37.5" y="-547.2" font-family="Courier,monospace" font-size="11.00">Horde_Mail_Transport</text>
</g>
<!-- \\Horde_Mail_Transport_Smtp -->
<g id="node11" class="node"><title>\\Horde_Mail_Transport_Smtp</title>
<polygon fill="none" stroke="black" points="481.689,-466 296.689,-466 296.689,-430 481.689,-430 481.689,-466"/>
<text text-anchor="middle" x="389.189" y="-445.2" font-family="Courier,monospace" font-size="11.00">Horde_Mail_Transport_Smtp</text>
</g>
<!-- \\Horde_Mail_Transport_Smtp&#45;&gt;\\Horde_Mail_Transport -->
<g id="edge15" class="edge"><title>\\Horde_Mail_Transport_Smtp&#45;&gt;\\Horde_Mail_Transport</title>
<path fill="none" stroke="black" d="M296.506,-465.873C286.447,-468.587 276.439,-471.626 267,-475 223.798,-490.442 177.294,-514.856 145.522,-532.847"/>
<polygon fill="none" stroke="black" points="143.504,-529.969 136.561,-537.972 146.979,-536.045 143.504,-529.969"/>
</g>
<!-- \\Horde_Mail_Transport_Null -->
<g id="node12" class="node"><title>\\Horde_Mail_Transport_Null</title>
<polygon fill="none" stroke="black" points="481.689,-412 296.689,-412 296.689,-376 481.689,-376 481.689,-412"/>
<text text-anchor="middle" x="389.189" y="-391.2" font-family="Courier,monospace" font-size="11.00">Horde_Mail_Transport_Null</text>
</g>
<!-- \\Horde_Mail_Transport_Null&#45;&gt;\\Horde_Mail_Transport -->
<g id="edge16" class="edge"><title>\\Horde_Mail_Transport_Null&#45;&gt;\\Horde_Mail_Transport</title>
<path fill="none" stroke="black" d="M296.552,-409.425C286.332,-412.598 276.275,-416.413 267,-421 211.036,-448.676 158.036,-499.843 129.137,-530.615"/>
<polygon fill="none" stroke="black" points="126.549,-528.258 122.321,-537.973 131.685,-533.015 126.549,-528.258"/>
</g>
<!-- \\Horde_Mail_Transport_Smtpmx -->
<g id="node13" class="node"><title>\\Horde_Mail_Transport_Smtpmx</title>
<polygon fill="none" stroke="black" points="488.689,-790 289.689,-790 289.689,-754 488.689,-754 488.689,-790"/>
<text text-anchor="middle" x="389.189" y="-769.2" font-family="Courier,monospace" font-size="11.00">Horde_Mail_Transport_Smtpmx</text>
</g>
<!-- \\Horde_Mail_Transport_Smtpmx&#45;&gt;\\Horde_Mail_Transport -->
<g id="edge17" class="edge"><title>\\Horde_Mail_Transport_Smtpmx&#45;&gt;\\Horde_Mail_Transport</title>
<path fill="none" stroke="black" d="M289.475,-755.815C281.614,-752.803 274.013,-749.232 267,-745 199.327,-704.16 146.163,-624.676 121.509,-582.992"/>
<polygon fill="none" stroke="black" points="124.46,-581.104 116.41,-574.216 118.407,-584.621 124.46,-581.104"/>
</g>
<!-- \\Horde_Mail_Transport_Lmtphorde -->
<g id="node14" class="node"><title>\\Horde_Mail_Transport_Lmtphorde</title>
<polygon fill="none" stroke="black" points="809.378,-736 590.378,-736 590.378,-700 809.378,-700 809.378,-736"/>
<text text-anchor="middle" x="699.878" y="-715.2" font-family="Courier,monospace" font-size="11.00">Horde_Mail_Transport_Lmtphorde</text>
</g>
<!-- \\Horde_Mail_Transport_Smtphorde -->
<g id="node18" class="node"><title>\\Horde_Mail_Transport_Smtphorde</title>
<polygon fill="none" stroke="black" points="498.689,-736 279.689,-736 279.689,-700 498.689,-700 498.689,-736"/>
<text text-anchor="middle" x="389.189" y="-715.2" font-family="Courier,monospace" font-size="11.00">Horde_Mail_Transport_Smtphorde</text>
</g>
<!-- \\Horde_Mail_Transport_Lmtphorde&#45;&gt;\\Horde_Mail_Transport_Smtphorde -->
<g id="edge18" class="edge"><title>\\Horde_Mail_Transport_Lmtphorde&#45;&gt;\\Horde_Mail_Transport_Smtphorde</title>
<path fill="none" stroke="black" d="M590.046,-718C563.803,-718 535.632,-718 508.96,-718"/>
<polygon fill="none" stroke="black" points="508.819,-714.5 498.819,-718 508.819,-721.5 508.819,-714.5"/>
</g>
<!-- \\Horde_Mail_Transport_Mock -->
<g id="node15" class="node"><title>\\Horde_Mail_Transport_Mock</title>
<polygon fill="none" stroke="black" points="481.689,-682 296.689,-682 296.689,-646 481.689,-646 481.689,-682"/>
<text text-anchor="middle" x="389.189" y="-661.2" font-family="Courier,monospace" font-size="11.00">Horde_Mail_Transport_Mock</text>
</g>
<!-- \\Horde_Mail_Transport_Mock&#45;&gt;\\Horde_Mail_Transport -->
<g id="edge19" class="edge"><title>\\Horde_Mail_Transport_Mock&#45;&gt;\\Horde_Mail_Transport</title>
<path fill="none" stroke="black" d="M296.506,-646.127C286.447,-643.413 276.439,-640.374 267,-637 223.798,-621.558 177.294,-597.144 145.522,-579.153"/>
<polygon fill="none" stroke="black" points="146.979,-575.955 136.561,-574.028 143.504,-582.031 146.979,-575.955"/>
</g>
<!-- \\Horde_Mail_Transport_Sendmail -->
<g id="node16" class="node"><title>\\Horde_Mail_Transport_Sendmail</title>
<polygon fill="none" stroke="black" points="495.189,-574 283.189,-574 283.189,-538 495.189,-538 495.189,-574"/>
<text text-anchor="middle" x="389.189" y="-553.2" font-family="Courier,monospace" font-size="11.00">Horde_Mail_Transport_Sendmail</text>
</g>
<!-- \\Horde_Mail_Transport_Sendmail&#45;&gt;\\Horde_Mail_Transport -->
<g id="edge20" class="edge"><title>\\Horde_Mail_Transport_Sendmail&#45;&gt;\\Horde_Mail_Transport</title>
<path fill="none" stroke="black" d="M282.898,-556C252.975,-556 220.761,-556 192.155,-556"/>
<polygon fill="none" stroke="black" points="191.79,-552.5 181.79,-556 191.79,-559.5 191.79,-552.5"/>
</g>
<!-- \\Horde_Mail_Transport_Mail -->
<g id="node17" class="node"><title>\\Horde_Mail_Transport_Mail</title>
<polygon fill="none" stroke="black" points="481.689,-520 296.689,-520 296.689,-484 481.689,-484 481.689,-520"/>
<text text-anchor="middle" x="389.189" y="-499.2" font-family="Courier,monospace" font-size="11.00">Horde_Mail_Transport_Mail</text>
</g>
<!-- \\Horde_Mail_Transport_Mail&#45;&gt;\\Horde_Mail_Transport -->
<g id="edge21" class="edge"><title>\\Horde_Mail_Transport_Mail&#45;&gt;\\Horde_Mail_Transport</title>
<path fill="none" stroke="black" d="M296.343,-519.607C262.733,-526.05 224.87,-533.308 191.85,-539.638"/>
<polygon fill="none" stroke="black" points="190.931,-536.251 181.768,-541.571 192.249,-543.126 190.931,-536.251"/>
</g>
<!-- \\Horde_Mail_Transport_Smtphorde&#45;&gt;\\Horde_Mail_Transport -->
<g id="edge22" class="edge"><title>\\Horde_Mail_Transport_Smtphorde&#45;&gt;\\Horde_Mail_Transport</title>
<path fill="none" stroke="black" d="M288.612,-699.963C281.147,-697.363 273.859,-694.392 267,-691 211.036,-663.324 158.036,-612.157 129.137,-581.385"/>
<polygon fill="none" stroke="black" points="131.685,-578.985 122.321,-574.027 126.549,-583.742 131.685,-578.985"/>
</g>
<!-- \\Horde_Mail_Translation -->
<g id="node19" class="node"><title>\\Horde_Mail_Translation</title>
<polygon fill="none" stroke="black" points="782.378,-250 617.378,-250 617.378,-214 782.378,-214 782.378,-250"/>
<text text-anchor="middle" x="699.878" y="-229.2" font-family="Courier,monospace" font-size="11.00">Horde_Mail_Translation</text>
</g>
<!-- \\Horde_Translation_Autodetect -->
<g id="node26" class="node"><title>\\Horde_Translation_Autodetect</title>
<ellipse fill="none" stroke="black" cx="389.189" cy="-29" rx="122.379" ry="18"/>
<text text-anchor="middle" x="389.189" y="-25.3" font-family="Times,serif" font-size="14.00" fill="gray">\Horde_Translation_Autodetect</text>
</g>
<!-- \\Horde_Mail_Translation&#45;&gt;\\Horde_Translation_Autodetect -->
<g id="edge23" class="edge"><title>\\Horde_Mail_Translation&#45;&gt;\\Horde_Translation_Autodetect</title>
<path fill="none" stroke="black" d="M685.34,-213.994C657.196,-177.93 588.535,-96.8073 511.378,-56 503.105,-51.6244 494.152,-47.9564 484.988,-44.8818"/>
<polygon fill="none" stroke="black" points="485.97,-41.5218 475.382,-41.8877 483.887,-48.2047 485.97,-41.5218"/>
</g>
</g>
</svg>
