<?xml version="1.0" encoding="UTF-8" standalone="no"?>
<!DOCTYPE svg PUBLIC "-//W3C//DTD SVG 1.1//EN"
 "http://www.w3.org/Graphics/SVG/1.1/DTD/svg11.dtd">
<!-- Generated by graphviz version 2.38.0 (20140413.2041)
 -->
<!-- Title: G Pages: 1 -->
<svg width="554pt" height="510pt"
 viewBox="0.00 0.00 553.88 510.00" xmlns="http://www.w3.org/2000/svg" xmlns:xlink="http://www.w3.org/1999/xlink">
<g id="graph0" class="graph" transform="scale(1 1) rotate(0) translate(4 506)">
<title>G</title>
<polygon fill="white" stroke="none" points="-4,4 -4,-506 549.88,-506 549.88,4 -4,4"/>
<g id="clust1" class="cluster"><title>cluster_Global</title>
<path fill="none" stroke="gray" d="M26.94,-98C26.94,-98 525.88,-98 525.88,-98 531.88,-98 537.88,-104 537.88,-110 537.88,-110 537.88,-482 537.88,-482 537.88,-488 531.88,-494 525.88,-494 525.88,-494 26.94,-494 26.94,-494 20.94,-494 14.94,-488 14.94,-482 14.94,-482 14.94,-110 14.94,-110 14.94,-104 20.94,-98 26.94,-98"/>
<text text-anchor="middle" x="276.41" y="-481.2" font-family="Times,serif" font-size="11.00" fill="gray">Global</text>
</g>
<!-- \\Horde_Tree -->
<g id="node1" class="node"><title>\\Horde_Tree</title>
<polygon fill="none" stroke="black" points="455.38,-250 371.38,-250 371.38,-214 455.38,-214 455.38,-250"/>
<text text-anchor="middle" x="413.38" y="-229.2" font-family="Courier,monospace" font-size="11.00">Horde_Tree</text>
</g>
<!-- \\Countable -->
<g id="node9" class="node"><title>\\Countable</title>
<ellipse fill="none" stroke="black" cx="112.44" cy="-72" rx="49.2915" ry="18"/>
<text text-anchor="middle" x="112.44" y="-68.3" font-family="Times,serif" font-size="14.00" fill="gray">\Countable</text>
</g>
<!-- \\Horde_Tree&#45;&gt;\\Countable -->
<g id="edge1" class="edge"><title>\\Horde_Tree&#45;&gt;\\Countable</title>
<path fill="none" stroke="black" stroke-dasharray="1,5" d="M371.355,-229.934C347.774,-227.009 318.615,-220.273 296.88,-205 248.767,-171.193 273.573,-126.966 224.88,-94 209.379,-83.5056 190.052,-77.7689 171.868,-74.7046"/>
<polygon fill="none" stroke="black" points="172.312,-71.2326 161.914,-73.2639 171.31,-78.1604 172.312,-71.2326"/>
</g>
<!-- \\Horde_Tree_Exception -->
<g id="node2" class="node"><title>\\Horde_Tree_Exception</title>
<polygon fill="none" stroke="black" points="489.38,-196 337.38,-196 337.38,-160 489.38,-160 489.38,-196"/>
<text text-anchor="middle" x="413.38" y="-175.2" font-family="Courier,monospace" font-size="11.00">Horde_Tree_Exception</text>
</g>
<!-- \\Horde_Exception_Wrapped -->
<g id="node10" class="node"><title>\\Horde_Exception_Wrapped</title>
<ellipse fill="none" stroke="black" cx="112.44" cy="-18" rx="112.38" ry="18"/>
<text text-anchor="middle" x="112.44" y="-14.3" font-family="Times,serif" font-size="14.00" fill="gray">\Horde_Exception_Wrapped</text>
</g>
<!-- \\Horde_Tree_Exception&#45;&gt;\\Horde_Exception_Wrapped -->
<g id="edge2" class="edge"><title>\\Horde_Tree_Exception&#45;&gt;\\Horde_Exception_Wrapped</title>
<path fill="none" stroke="black" d="M337.184,-168.963C322.982,-164.96 308.847,-159.22 296.88,-151 249.937,-118.754 271.693,-77.4348 224.88,-45 218.693,-40.7131 211.902,-37.1035 204.821,-34.0647"/>
<polygon fill="none" stroke="black" points="205.604,-30.6144 195.015,-30.2646 203.074,-37.1415 205.604,-30.6144"/>
</g>
<!-- \\Horde_Tree_Renderer_Select -->
<g id="node3" class="node"><title>\\Horde_Tree_Renderer_Select</title>
<polygon fill="none" stroke="black" points="509.38,-466 317.38,-466 317.38,-430 509.38,-430 509.38,-466"/>
<text text-anchor="middle" x="413.38" y="-445.2" font-family="Courier,monospace" font-size="11.00">Horde_Tree_Renderer_Select</text>
</g>
<!-- \\Horde_Tree_Renderer_Base -->
<g id="node7" class="node"><title>\\Horde_Tree_Renderer_Base</title>
<polygon fill="none" stroke="black" points="201.94,-385 22.94,-385 22.94,-349 201.94,-349 201.94,-385"/>
<text text-anchor="start" x="78.44" y="-370.2" font-family="Courier,monospace" font-size="11.00">«abstract»</text>
<text text-anchor="start" x="30.94" y="-358.2" font-family="Courier,monospace" font-size="11.00">Horde_Tree_Renderer_Base</text>
</g>
<!-- \\Horde_Tree_Renderer_Select&#45;&gt;\\Horde_Tree_Renderer_Base -->
<g id="edge3" class="edge"><title>\\Horde_Tree_Renderer_Select&#45;&gt;\\Horde_Tree_Renderer_Base</title>
<path fill="none" stroke="black" d="M332.705,-429.998C320.673,-427.099 308.429,-424.047 296.88,-421 258.607,-410.902 216.194,-398.497 181.799,-388.124"/>
<polygon fill="none" stroke="black" points="182.444,-384.662 171.859,-385.115 180.416,-391.362 182.444,-384.662"/>
</g>
<!-- \\Horde_Tree_Renderer_Jquerymobile -->
<g id="node4" class="node"><title>\\Horde_Tree_Renderer_Jquerymobile</title>
<polygon fill="none" stroke="black" points="529.88,-412 296.88,-412 296.88,-376 529.88,-376 529.88,-412"/>
<text text-anchor="middle" x="413.38" y="-391.2" font-family="Courier,monospace" font-size="11.00">Horde_Tree_Renderer_Jquerymobile</text>
</g>
<!-- \\Horde_Tree_Renderer_Jquerymobile&#45;&gt;\\Horde_Tree_Renderer_Base -->
<g id="edge4" class="edge"><title>\\Horde_Tree_Renderer_Jquerymobile&#45;&gt;\\Horde_Tree_Renderer_Base</title>
<path fill="none" stroke="black" d="M296.802,-383.561C268.976,-381.048 239.495,-378.385 212.499,-375.947"/>
<polygon fill="none" stroke="black" points="212.557,-372.438 202.283,-375.024 211.928,-379.41 212.557,-372.438"/>
</g>
<!-- \\Horde_Tree_Renderer_Html -->
<g id="node5" class="node"><title>\\Horde_Tree_Renderer_Html</title>
<polygon fill="none" stroke="black" points="502.88,-358 323.88,-358 323.88,-322 502.88,-322 502.88,-358"/>
<text text-anchor="middle" x="413.38" y="-337.2" font-family="Courier,monospace" font-size="11.00">Horde_Tree_Renderer_Html</text>
</g>
<!-- \\Horde_Tree_Renderer_Html&#45;&gt;\\Horde_Tree_Renderer_Base -->
<g id="edge5" class="edge"><title>\\Horde_Tree_Renderer_Html&#45;&gt;\\Horde_Tree_Renderer_Base</title>
<path fill="none" stroke="black" d="M323.498,-348.028C288.416,-351.196 247.974,-354.849 212,-358.098"/>
<polygon fill="none" stroke="black" points="211.625,-354.618 201.98,-359.003 212.254,-361.589 211.625,-354.618"/>
</g>
<!-- \\Horde_Tree_Renderer_Simplehtml -->
<g id="node6" class="node"><title>\\Horde_Tree_Renderer_Simplehtml</title>
<polygon fill="none" stroke="black" points="522.88,-304 303.88,-304 303.88,-268 522.88,-268 522.88,-304"/>
<text text-anchor="middle" x="413.38" y="-283.2" font-family="Courier,monospace" font-size="11.00">Horde_Tree_Renderer_Simplehtml</text>
</g>
<!-- \\Horde_Tree_Renderer_Simplehtml&#45;&gt;\\Horde_Tree_Renderer_Base -->
<g id="edge6" class="edge"><title>\\Horde_Tree_Renderer_Simplehtml&#45;&gt;\\Horde_Tree_Renderer_Base</title>
<path fill="none" stroke="black" d="M332.705,-304.002C320.673,-306.901 308.429,-309.953 296.88,-313 258.607,-323.098 216.194,-335.503 181.799,-345.876"/>
<polygon fill="none" stroke="black" points="180.416,-342.638 171.859,-348.885 182.444,-349.338 180.416,-342.638"/>
</g>
<!-- \\Horde_Tree_Renderer -->
<g id="node8" class="node"><title>\\Horde_Tree_Renderer</title>
<polygon fill="none" stroke="black" points="485.88,-142 340.88,-142 340.88,-106 485.88,-106 485.88,-142"/>
<text text-anchor="middle" x="413.38" y="-121.2" font-family="Courier,monospace" font-size="11.00">Horde_Tree_Renderer</text>
</g>
</g>
</svg>
