<?xml version="1.0" encoding="UTF-8" standalone="no"?>
<!DOCTYPE svg PUBLIC "-//W3C//DTD SVG 1.1//EN"
 "http://www.w3.org/Graphics/SVG/1.1/DTD/svg11.dtd">
<!-- Generated by graphviz version 2.38.0 (20140413.2041)
 -->
<!-- Title: G Pages: 1 -->
<svg width="498pt" height="204pt"
 viewBox="0.00 0.00 498.38 204.00" xmlns="http://www.w3.org/2000/svg" xmlns:xlink="http://www.w3.org/1999/xlink">
<g id="graph0" class="graph" transform="scale(1 1) rotate(0) translate(4 200)">
<title>G</title>
<polygon fill="white" stroke="none" points="-4,4 -4,-200 494.378,-200 494.378,4 -4,4"/>
<g id="clust1" class="cluster"><title>cluster_Global</title>
<path fill="none" stroke="gray" d="M320.378,-8C320.378,-8 470.378,-8 470.378,-8 476.378,-8 482.378,-14 482.378,-20 482.378,-20 482.378,-176 482.378,-176 482.378,-182 476.378,-188 470.378,-188 470.378,-188 320.378,-188 320.378,-188 314.378,-188 308.378,-182 308.378,-176 308.378,-176 308.378,-20 308.378,-20 308.378,-14 314.378,-8 320.378,-8"/>
<text text-anchor="middle" x="395.378" y="-175.2" font-family="Times,serif" font-size="11.00" fill="gray">Global</text>
</g>
<!-- \\Horde_Cli_Color -->
<g id="node1" class="node"><title>\\Horde_Cli_Color</title>
<polygon fill="none" stroke="black" points="454.378,-160 336.378,-160 336.378,-124 454.378,-124 454.378,-160"/>
<text text-anchor="middle" x="395.378" y="-139.2" font-family="Courier,monospace" font-size="11.00">Horde_Cli_Color</text>
</g>
<!-- \\Horde_Cli_Translation -->
<g id="node2" class="node"><title>\\Horde_Cli_Translation</title>
<polygon fill="none" stroke="black" points="474.378,-106 316.378,-106 316.378,-70 474.378,-70 474.378,-106"/>
<text text-anchor="middle" x="395.378" y="-85.2" font-family="Courier,monospace" font-size="11.00">Horde_Cli_Translation</text>
</g>
<!-- \\Horde_Translation_Autodetect -->
<g id="node4" class="node"><title>\\Horde_Translation_Autodetect</title>
<ellipse fill="none" stroke="black" cx="122.189" cy="-88" rx="122.379" ry="18"/>
<text text-anchor="middle" x="122.189" y="-84.3" font-family="Times,serif" font-size="14.00" fill="gray">\Horde_Translation_Autodetect</text>
</g>
<!-- \\Horde_Cli_Translation&#45;&gt;\\Horde_Translation_Autodetect -->
<g id="edge1" class="edge"><title>\\Horde_Cli_Translation&#45;&gt;\\Horde_Translation_Autodetect</title>
<path fill="none" stroke="black" d="M316.303,-88C296.919,-88 275.61,-88 254.442,-88"/>
<polygon fill="none" stroke="black" points="254.403,-84.5001 244.403,-88 254.403,-91.5001 254.403,-84.5001"/>
</g>
<!-- \\Horde_Cli -->
<g id="node3" class="node"><title>\\Horde_Cli</title>
<polygon fill="none" stroke="black" points="433.878,-52 356.878,-52 356.878,-16 433.878,-16 433.878,-52"/>
<text text-anchor="middle" x="395.378" y="-31.2" font-family="Courier,monospace" font-size="11.00">Horde_Cli</text>
</g>
</g>
</svg>
