<?xml version="1.0" encoding="UTF-8" standalone="no"?>
<!DOCTYPE svg PUBLIC "-//W3C//DTD SVG 1.1//EN"
 "http://www.w3.org/Graphics/SVG/1.1/DTD/svg11.dtd">
<!-- Generated by graphviz version 2.38.0 (20140413.2041)
 -->
<!-- Title: G Pages: 1 -->
<svg width="1187pt" height="726pt"
 viewBox="0.00 0.00 1187.00 726.00" xmlns="http://www.w3.org/2000/svg" xmlns:xlink="http://www.w3.org/1999/xlink">
<g id="graph0" class="graph" transform="scale(1 1) rotate(0) translate(4 722)">
<title>G</title>
<polygon fill="white" stroke="none" points="-4,4 -4,-722 1183,-722 1183,4 -4,4"/>
<g id="clust1" class="cluster"><title>cluster_Global</title>
<path fill="none" stroke="gray" d="M20,-44C20,-44 1159,-44 1159,-44 1165,-44 1171,-50 1171,-56 1171,-56 1171,-698 1171,-698 1171,-704 1165,-710 1159,-710 1159,-710 20,-710 20,-710 14,-710 8,-704 8,-698 8,-698 8,-56 8,-56 8,-50 14,-44 20,-44"/>
<text text-anchor="middle" x="589.5" y="-697.2" font-family="Times,serif" font-size="11.00" fill="gray">Global</text>
</g>
<!-- \\Horde_View -->
<g id="node1" class="node"><title>\\Horde_View</title>
<polygon fill="none" stroke="black" points="1065,-574 981,-574 981,-538 1065,-538 1065,-574"/>
<text text-anchor="middle" x="1023" y="-553.2" font-family="Courier,monospace" font-size="11.00">Horde_View</text>
</g>
<!-- \\Horde_View_Base -->
<g id="node23" class="node"><title>\\Horde_View_Base</title>
<polygon fill="none" stroke="black" points="730,-601 612,-601 612,-565 730,-565 730,-601"/>
<text text-anchor="start" x="637" y="-586.2" font-family="Courier,monospace" font-size="11.00">«abstract»</text>
<text text-anchor="start" x="620" y="-574.2" font-family="Courier,monospace" font-size="11.00">Horde_View_Base</text>
</g>
<!-- \\Horde_View&#45;&gt;\\Horde_View_Base -->
<g id="edge1" class="edge"><title>\\Horde_View&#45;&gt;\\Horde_View_Base</title>
<path fill="none" stroke="black" d="M980.821,-559.177C921.66,-563.741 811.884,-572.209 740.415,-577.722"/>
<polygon fill="none" stroke="black" points="739.861,-574.255 730.159,-578.513 740.399,-581.234 739.861,-574.255"/>
</g>
<!-- \\Horde_View_Exception -->
<g id="node2" class="node"><title>\\Horde_View_Exception</title>
<polygon fill="none" stroke="black" points="1099,-142 947,-142 947,-106 1099,-106 1099,-142"/>
<text text-anchor="middle" x="1023" y="-121.2" font-family="Courier,monospace" font-size="11.00">Horde_View_Exception</text>
</g>
<!-- \\Exception -->
<g id="node26" class="node"><title>\\Exception</title>
<ellipse fill="none" stroke="black" cx="671" cy="-18" rx="48.9926" ry="18"/>
<text text-anchor="middle" x="671" y="-14.3" font-family="Times,serif" font-size="14.00" fill="gray">\Exception</text>
</g>
<!-- \\Horde_View_Exception&#45;&gt;\\Exception -->
<g id="edge2" class="edge"><title>\\Horde_View_Exception&#45;&gt;\\Exception</title>
<path fill="none" stroke="black" d="M946.739,-116.116C925.481,-112.114 902.769,-106.084 883,-97 845.914,-79.9581 848.377,-56.3924 811,-40 785.617,-28.868 755.436,-23.2819 729.692,-20.5124"/>
<polygon fill="none" stroke="black" points="729.986,-17.0246 719.697,-19.552 729.316,-23.9925 729.986,-17.0246"/>
</g>
<!-- \\Horde_View_Helper_Capture_ContentFor -->
<g id="node3" class="node"><title>\\Horde_View_Helper_Capture_ContentFor</title>
<polygon fill="none" stroke="black" points="1153,-682 893,-682 893,-646 1153,-646 1153,-682"/>
<text text-anchor="middle" x="1023" y="-661.2" font-family="Courier,monospace" font-size="11.00">Horde_View_Helper_Capture_ContentFor</text>
</g>
<!-- \\Horde_View_Helper_Capture_Base -->
<g id="node4" class="node"><title>\\Horde_View_Helper_Capture_Base</title>
<polygon fill="none" stroke="black" points="780.5,-682 561.5,-682 561.5,-646 780.5,-646 780.5,-682"/>
<text text-anchor="middle" x="671" y="-661.2" font-family="Courier,monospace" font-size="11.00">Horde_View_Helper_Capture_Base</text>
</g>
<!-- \\Horde_View_Helper_Capture_ContentFor&#45;&gt;\\Horde_View_Helper_Capture_Base -->
<g id="edge3" class="edge"><title>\\Horde_View_Helper_Capture_ContentFor&#45;&gt;\\Horde_View_Helper_Capture_Base</title>
<path fill="none" stroke="black" d="M892.667,-664C859.314,-664 823.58,-664 790.792,-664"/>
<polygon fill="none" stroke="black" points="790.717,-660.5 780.717,-664 790.717,-667.5 790.717,-660.5"/>
</g>
<!-- \\Horde_View_Helper_FormTag -->
<g id="node5" class="node"><title>\\Horde_View_Helper_FormTag</title>
<polygon fill="none" stroke="black" points="448.5,-682 263.5,-682 263.5,-646 448.5,-646 448.5,-682"/>
<text text-anchor="middle" x="356" y="-661.2" font-family="Courier,monospace" font-size="11.00">Horde_View_Helper_FormTag</text>
</g>
<!-- \\Horde_View_Helper_Base -->
<g id="node21" class="node"><title>\\Horde_View_Helper_Base</title>
<polygon fill="none" stroke="black" points="181,-385 16,-385 16,-349 181,-349 181,-385"/>
<text text-anchor="start" x="64.5" y="-370.2" font-family="Courier,monospace" font-size="11.00">«abstract»</text>
<text text-anchor="start" x="24" y="-358.2" font-family="Courier,monospace" font-size="11.00">Horde_View_Helper_Base</text>
</g>
<!-- \\Horde_View_Helper_FormTag&#45;&gt;\\Horde_View_Helper_Base -->
<g id="edge4" class="edge"><title>\\Horde_View_Helper_FormTag&#45;&gt;\\Horde_View_Helper_Base</title>
<path fill="none" stroke="black" d="M267.053,-645.866C262.088,-643.291 257.354,-640.353 253,-637 169.726,-572.861 124.268,-449.846 107.32,-394.81"/>
<polygon fill="none" stroke="black" points="110.619,-393.624 104.396,-385.05 103.913,-395.633 110.619,-393.624"/>
</g>
<!-- \\Horde_View_Helper_Date -->
<g id="node6" class="node"><title>\\Horde_View_Helper_Date</title>
<polygon fill="none" stroke="black" points="438.5,-628 273.5,-628 273.5,-592 438.5,-592 438.5,-628"/>
<text text-anchor="middle" x="356" y="-607.2" font-family="Courier,monospace" font-size="11.00">Horde_View_Helper_Date</text>
</g>
<!-- \\Horde_View_Helper_Date&#45;&gt;\\Horde_View_Helper_Base -->
<g id="edge5" class="edge"><title>\\Horde_View_Helper_Date&#45;&gt;\\Horde_View_Helper_Base</title>
<path fill="none" stroke="black" d="M273.334,-594.017C266.152,-590.964 259.249,-587.329 253,-583 182.009,-533.819 132.592,-440.617 111.282,-394.401"/>
<polygon fill="none" stroke="black" points="114.353,-392.697 107.048,-385.023 107.973,-395.577 114.353,-392.697"/>
</g>
<!-- \\Horde_View_Helper_Benchmark_Timer -->
<g id="node7" class="node"><title>\\Horde_View_Helper_Benchmark_Timer</title>
<polygon fill="none" stroke="black" points="1142.5,-520 903.5,-520 903.5,-484 1142.5,-484 1142.5,-520"/>
<text text-anchor="middle" x="1023" y="-499.2" font-family="Courier,monospace" font-size="11.00">Horde_View_Helper_Benchmark_Timer</text>
</g>
<!-- \\Horde_View_Helper_Form_InstanceTag_Form -->
<g id="node8" class="node"><title>\\Horde_View_Helper_Form_InstanceTag_Form</title>
<polygon fill="none" stroke="black" points="1163,-466 883,-466 883,-430 1163,-430 1163,-466"/>
<text text-anchor="middle" x="1023" y="-445.2" font-family="Courier,monospace" font-size="11.00">Horde_View_Helper_Form_InstanceTag_Form</text>
</g>
<!-- \\Horde_View_Helper_Form_InstanceTag_Base -->
<g id="node9" class="node"><title>\\Horde_View_Helper_Form_InstanceTag_Base</title>
<polygon fill="none" stroke="black" points="811,-506 531,-506 531,-470 811,-470 811,-506"/>
<text text-anchor="middle" x="671" y="-485.2" font-family="Courier,monospace" font-size="11.00">Horde_View_Helper_Form_InstanceTag_Base</text>
</g>
<!-- \\Horde_View_Helper_Form_InstanceTag_Form&#45;&gt;\\Horde_View_Helper_Form_InstanceTag_Base -->
<g id="edge6" class="edge"><title>\\Horde_View_Helper_Form_InstanceTag_Form&#45;&gt;\\Horde_View_Helper_Form_InstanceTag_Base</title>
<path fill="none" stroke="black" d="M882.917,-463.895C862.59,-466.218 841.589,-468.618 821.073,-470.963"/>
<polygon fill="none" stroke="black" points="820.584,-467.496 811.046,-472.109 821.379,-474.451 820.584,-467.496"/>
</g>
<!-- \\Horde_View_Helper_Tag -->
<g id="node22" class="node"><title>\\Horde_View_Helper_Tag</title>
<polygon fill="none" stroke="black" points="435,-574 277,-574 277,-538 435,-538 435,-574"/>
<text text-anchor="middle" x="356" y="-553.2" font-family="Courier,monospace" font-size="11.00">Horde_View_Helper_Tag</text>
</g>
<!-- \\Horde_View_Helper_Form_InstanceTag_Base&#45;&gt;\\Horde_View_Helper_Tag -->
<g id="edge7" class="edge"><title>\\Horde_View_Helper_Form_InstanceTag_Base&#45;&gt;\\Horde_View_Helper_Tag</title>
<path fill="none" stroke="black" d="M586.944,-506.044C543.166,-515.555 489.473,-527.22 444.984,-536.885"/>
<polygon fill="none" stroke="black" points="444.085,-533.499 435.056,-539.042 445.571,-540.339 444.085,-533.499"/>
</g>
<!-- \\Horde_View_Helper_Form_Builder -->
<g id="node10" class="node"><title>\\Horde_View_Helper_Form_Builder</title>
<polygon fill="none" stroke="black" points="1132.5,-372 913.5,-372 913.5,-336 1132.5,-336 1132.5,-372"/>
<text text-anchor="middle" x="1023" y="-351.2" font-family="Courier,monospace" font-size="11.00">Horde_View_Helper_Form_Builder</text>
</g>
<!-- \\Horde_View_Helper_Block -->
<g id="node11" class="node"><title>\\Horde_View_Helper_Block</title>
<polygon fill="none" stroke="black" points="442,-520 270,-520 270,-484 442,-484 442,-520"/>
<text text-anchor="middle" x="356" y="-499.2" font-family="Courier,monospace" font-size="11.00">Horde_View_Helper_Block</text>
</g>
<!-- \\Horde_View_Helper_Block&#45;&gt;\\Horde_View_Helper_Base -->
<g id="edge8" class="edge"><title>\\Horde_View_Helper_Block&#45;&gt;\\Horde_View_Helper_Base</title>
<path fill="none" stroke="black" d="M275.495,-483.937C267.759,-481.297 260.14,-478.326 253,-475 205.753,-452.99 157.618,-416.319 128.153,-391.902"/>
<polygon fill="none" stroke="black" points="130.265,-389.106 120.353,-385.363 125.767,-394.47 130.265,-389.106"/>
</g>
<!-- \\Horde_View_Helper_Javascript -->
<g id="node12" class="node"><title>\\Horde_View_Helper_Javascript</title>
<polygon fill="none" stroke="black" points="459,-466 253,-466 253,-430 459,-430 459,-466"/>
<text text-anchor="middle" x="356" y="-445.2" font-family="Courier,monospace" font-size="11.00">Horde_View_Helper_Javascript</text>
</g>
<!-- \\Horde_View_Helper_Javascript&#45;&gt;\\Horde_View_Helper_Base -->
<g id="edge9" class="edge"><title>\\Horde_View_Helper_Javascript&#45;&gt;\\Horde_View_Helper_Base</title>
<path fill="none" stroke="black" d="M284.009,-429.986C273.572,-427.113 262.98,-424.071 253,-421 220.979,-411.147 185.683,-398.834 157.02,-388.455"/>
<polygon fill="none" stroke="black" points="158.161,-385.146 147.567,-385.015 155.768,-391.724 158.161,-385.146"/>
</g>
<!-- \\Horde_View_Helper_Debug -->
<g id="node13" class="node"><title>\\Horde_View_Helper_Debug</title>
<polygon fill="none" stroke="black" points="442,-412 270,-412 270,-376 442,-376 442,-412"/>
<text text-anchor="middle" x="356" y="-391.2" font-family="Courier,monospace" font-size="11.00">Horde_View_Helper_Debug</text>
</g>
<!-- \\Horde_View_Helper_Debug&#45;&gt;\\Horde_View_Helper_Base -->
<g id="edge10" class="edge"><title>\\Horde_View_Helper_Debug&#45;&gt;\\Horde_View_Helper_Base</title>
<path fill="none" stroke="black" d="M269.922,-385.009C244.676,-382.341 216.917,-379.408 191.266,-376.697"/>
<polygon fill="none" stroke="black" points="191.486,-373.201 181.173,-375.631 190.75,-380.162 191.486,-373.201"/>
</g>
<!-- \\Horde_View_Helper_Capture -->
<g id="node14" class="node"><title>\\Horde_View_Helper_Capture</title>
<polygon fill="none" stroke="black" points="448.5,-358 263.5,-358 263.5,-322 448.5,-322 448.5,-358"/>
<text text-anchor="middle" x="356" y="-337.2" font-family="Courier,monospace" font-size="11.00">Horde_View_Helper_Capture</text>
</g>
<!-- \\Horde_View_Helper_Capture&#45;&gt;\\Horde_View_Helper_Base -->
<g id="edge11" class="edge"><title>\\Horde_View_Helper_Capture&#45;&gt;\\Horde_View_Helper_Base</title>
<path fill="none" stroke="black" d="M263.48,-349.671C239.926,-352.161 214.58,-354.839 191.025,-357.328"/>
<polygon fill="none" stroke="black" points="190.627,-353.851 181.05,-358.382 191.362,-360.812 190.627,-353.851"/>
</g>
<!-- \\Horde_View_Helper_Url -->
<g id="node15" class="node"><title>\\Horde_View_Helper_Url</title>
<polygon fill="none" stroke="black" points="435,-304 277,-304 277,-268 435,-268 435,-304"/>
<text text-anchor="middle" x="356" y="-283.2" font-family="Courier,monospace" font-size="11.00">Horde_View_Helper_Url</text>
</g>
<!-- \\Horde_View_Helper_Url&#45;&gt;\\Horde_View_Helper_Base -->
<g id="edge12" class="edge"><title>\\Horde_View_Helper_Url&#45;&gt;\\Horde_View_Helper_Base</title>
<path fill="none" stroke="black" d="M284.009,-304.014C273.572,-306.887 262.98,-309.929 253,-313 220.979,-322.853 185.683,-335.166 157.02,-345.545"/>
<polygon fill="none" stroke="black" points="155.768,-342.276 147.567,-348.985 158.161,-348.854 155.768,-342.276"/>
</g>
<!-- \\Horde_View_Helper_Number -->
<g id="node16" class="node"><title>\\Horde_View_Helper_Number</title>
<polygon fill="none" stroke="black" points="445.5,-250 266.5,-250 266.5,-214 445.5,-214 445.5,-250"/>
<text text-anchor="middle" x="356" y="-229.2" font-family="Courier,monospace" font-size="11.00">Horde_View_Helper_Number</text>
</g>
<!-- \\Horde_View_Helper_Number&#45;&gt;\\Horde_View_Helper_Base -->
<g id="edge13" class="edge"><title>\\Horde_View_Helper_Number&#45;&gt;\\Horde_View_Helper_Base</title>
<path fill="none" stroke="black" d="M275.495,-250.063C267.759,-252.703 260.14,-255.674 253,-259 205.753,-281.01 157.618,-317.681 128.153,-342.098"/>
<polygon fill="none" stroke="black" points="125.767,-339.53 120.353,-348.637 130.265,-344.894 125.767,-339.53"/>
</g>
<!-- \\Horde_View_Helper_Benchmark -->
<g id="node17" class="node"><title>\\Horde_View_Helper_Benchmark</title>
<polygon fill="none" stroke="black" points="455.5,-196 256.5,-196 256.5,-160 455.5,-160 455.5,-196"/>
<text text-anchor="middle" x="356" y="-175.2" font-family="Courier,monospace" font-size="11.00">Horde_View_Helper_Benchmark</text>
</g>
<!-- \\Horde_View_Helper_Benchmark&#45;&gt;\\Horde_View_Helper_Base -->
<g id="edge14" class="edge"><title>\\Horde_View_Helper_Benchmark&#45;&gt;\\Horde_View_Helper_Base</title>
<path fill="none" stroke="black" d="M271.049,-196.092C264.765,-198.682 258.671,-201.635 253,-205 194.023,-239.997 143.22,-304.043 117.482,-340.238"/>
<polygon fill="none" stroke="black" points="114.353,-338.605 111.489,-348.806 120.089,-342.618 114.353,-338.605"/>
</g>
<!-- \\Horde_View_Helper_Form -->
<g id="node18" class="node"><title>\\Horde_View_Helper_Form</title>
<polygon fill="none" stroke="black" points="438.5,-142 273.5,-142 273.5,-106 438.5,-106 438.5,-142"/>
<text text-anchor="middle" x="356" y="-121.2" font-family="Courier,monospace" font-size="11.00">Horde_View_Helper_Form</text>
</g>
<!-- \\Horde_View_Helper_Form&#45;&gt;\\Horde_View_Helper_Base -->
<g id="edge15" class="edge"><title>\\Horde_View_Helper_Form&#45;&gt;\\Horde_View_Helper_Base</title>
<path fill="none" stroke="black" d="M273.334,-139.983C266.152,-143.036 259.249,-146.671 253,-151 182.009,-200.181 132.592,-293.383 111.282,-339.599"/>
<polygon fill="none" stroke="black" points="107.973,-338.423 107.048,-348.977 114.353,-341.303 107.973,-338.423"/>
</g>
<!-- \\Horde_View_Helper_Text -->
<g id="node19" class="node"><title>\\Horde_View_Helper_Text</title>
<polygon fill="none" stroke="black" points="438.5,-88 273.5,-88 273.5,-52 438.5,-52 438.5,-88"/>
<text text-anchor="middle" x="356" y="-67.2" font-family="Courier,monospace" font-size="11.00">Horde_View_Helper_Text</text>
</g>
<!-- \\Horde_View_Helper_Text&#45;&gt;\\Horde_View_Helper_Base -->
<g id="edge16" class="edge"><title>\\Horde_View_Helper_Text&#45;&gt;\\Horde_View_Helper_Base</title>
<path fill="none" stroke="black" d="M273.37,-85.1022C266.099,-88.3321 259.168,-92.2495 253,-97 169.726,-161.139 124.268,-284.154 107.32,-339.19"/>
<polygon fill="none" stroke="black" points="103.913,-338.367 104.396,-348.95 110.619,-340.376 103.913,-338.367"/>
</g>
<!-- \\Horde_View_Helper_Text_Cycle -->
<g id="node20" class="node"><title>\\Horde_View_Helper_Text_Cycle</title>
<polygon fill="none" stroke="black" points="1126,-237 920,-237 920,-201 1126,-201 1126,-237"/>
<text text-anchor="middle" x="1023" y="-216.2" font-family="Courier,monospace" font-size="11.00">Horde_View_Helper_Text_Cycle</text>
</g>
<!-- \\Horde_View_Helper_Tag&#45;&gt;\\Horde_View_Helper_Base -->
<g id="edge17" class="edge"><title>\\Horde_View_Helper_Tag&#45;&gt;\\Horde_View_Helper_Base</title>
<path fill="none" stroke="black" d="M276.857,-540.181C268.528,-537.084 260.404,-533.394 253,-529 194.023,-494.003 143.22,-429.957 117.482,-393.762"/>
<polygon fill="none" stroke="black" points="120.089,-391.382 111.489,-385.194 114.353,-395.395 120.089,-391.382"/>
</g>
<!-- \\Horde_View_Json -->
<g id="node24" class="node"><title>\\Horde_View_Json</title>
<polygon fill="none" stroke="black" points="1082,-628 964,-628 964,-592 1082,-592 1082,-628"/>
<text text-anchor="middle" x="1023" y="-607.2" font-family="Courier,monospace" font-size="11.00">Horde_View_Json</text>
</g>
<!-- \\Horde_View_Json&#45;&gt;\\Horde_View_Base -->
<g id="edge18" class="edge"><title>\\Horde_View_Json&#45;&gt;\\Horde_View_Base</title>
<path fill="none" stroke="black" d="M963.812,-605.511C902.277,-600.764 805.28,-593.282 740.197,-588.261"/>
<polygon fill="none" stroke="black" points="740.275,-584.757 730.036,-587.477 739.737,-591.736 740.275,-584.757"/>
</g>
<!-- \\Horde_View_Interface -->
<g id="node25" class="node"><title>\\Horde_View_Interface</title>
<polygon fill="none" stroke="black" points="1099,-88 947,-88 947,-52 1099,-52 1099,-88"/>
<text text-anchor="middle" x="1023" y="-67.2" font-family="Courier,monospace" font-size="11.00">Horde_View_Interface</text>
</g>
</g>
</svg>
