<?xml version="1.0" encoding="UTF-8" standalone="no"?>
<!DOCTYPE svg PUBLIC "-//W3C//DTD SVG 1.1//EN"
 "http://www.w3.org/Graphics/SVG/1.1/DTD/svg11.dtd">
<!-- Generated by graphviz version 2.38.0 (20140413.2041)
 -->
<!-- Title: G Pages: 1 -->
<svg width="511pt" height="564pt"
 viewBox="0.00 0.00 511.08 564.00" xmlns="http://www.w3.org/2000/svg" xmlns:xlink="http://www.w3.org/1999/xlink">
<g id="graph0" class="graph" transform="scale(1 1) rotate(0) translate(4 560)">
<title>G</title>
<polygon fill="white" stroke="none" points="-4,4 -4,-560 507.08,-560 507.08,4 -4,4"/>
<g id="clust1" class="cluster"><title>cluster_Global</title>
<path fill="none" stroke="gray" d="M46.5398,-152C46.5398,-152 483.08,-152 483.08,-152 489.08,-152 495.08,-158 495.08,-164 495.08,-164 495.08,-536 495.08,-536 495.08,-542 489.08,-548 483.08,-548 483.08,-548 46.5398,-548 46.5398,-548 40.5398,-548 34.5398,-542 34.5398,-536 34.5398,-536 34.5398,-164 34.5398,-164 34.5398,-158 40.5398,-152 46.5398,-152"/>
<text text-anchor="middle" x="264.81" y="-535.2" font-family="Times,serif" font-size="11.00" fill="gray">Global</text>
</g>
<!-- \\Chora_Test -->
<g id="node1" class="node"><title>\\Chora_Test</title>
<polygon fill="none" stroke="black" points="436.58,-358 352.58,-358 352.58,-322 436.58,-322 436.58,-358"/>
<text text-anchor="middle" x="394.58" y="-337.2" font-family="Courier,monospace" font-size="11.00">Chora_Test</text>
</g>
<!-- \\Horde_Test -->
<g id="node9" class="node"><title>\\Horde_Test</title>
<ellipse fill="none" stroke="black" cx="115.04" cy="-126" rx="54.6905" ry="18"/>
<text text-anchor="middle" x="115.04" y="-122.3" font-family="Times,serif" font-size="14.00" fill="gray">\Horde_Test</text>
</g>
<!-- \\Chora_Test&#45;&gt;\\Horde_Test -->
<g id="edge1" class="edge"><title>\\Chora_Test&#45;&gt;\\Horde_Test</title>
<path fill="none" stroke="black" d="M352.497,-335.634C335.239,-331.978 315.987,-325.275 302.08,-313 242.093,-260.053 292.547,-197.996 230.08,-148 215.999,-136.73 197.836,-130.65 180.162,-127.509"/>
<polygon fill="none" stroke="black" points="180.252,-123.984 169.847,-125.982 179.227,-130.909 180.252,-123.984"/>
</g>
<!-- \\Chora_Readme_Collection -->
<g id="node2" class="node"><title>\\Chora_Readme_Collection</title>
<polygon fill="none" stroke="black" points="480.58,-466 308.58,-466 308.58,-430 480.58,-430 480.58,-466"/>
<text text-anchor="middle" x="394.58" y="-445.2" font-family="Courier,monospace" font-size="11.00">Chora_Readme_Collection</text>
</g>
<!-- \\Chora_Exception -->
<g id="node3" class="node"><title>\\Chora_Exception</title>
<polygon fill="none" stroke="black" points="453.58,-304 335.58,-304 335.58,-268 453.58,-268 453.58,-304"/>
<text text-anchor="middle" x="394.58" y="-283.2" font-family="Courier,monospace" font-size="11.00">Chora_Exception</text>
</g>
<!-- \\Horde_Exception_Wrapped -->
<g id="node10" class="node"><title>\\Horde_Exception_Wrapped</title>
<ellipse fill="none" stroke="black" cx="115.04" cy="-72" rx="112.38" ry="18"/>
<text text-anchor="middle" x="115.04" y="-68.3" font-family="Times,serif" font-size="14.00" fill="gray">\Horde_Exception_Wrapped</text>
</g>
<!-- \\Chora_Exception&#45;&gt;\\Horde_Exception_Wrapped -->
<g id="edge2" class="edge"><title>\\Chora_Exception&#45;&gt;\\Horde_Exception_Wrapped</title>
<path fill="none" stroke="black" d="M335.552,-277C323.482,-273.017 311.564,-267.276 302.08,-259 243.323,-207.732 290.21,-148.649 230.08,-99 224.651,-94.5176 218.606,-90.7537 212.212,-87.5959"/>
<polygon fill="none" stroke="black" points="213.187,-84.2017 202.623,-83.3899 210.375,-90.6121 213.187,-84.2017"/>
</g>
<!-- \\Chora_Application -->
<g id="node4" class="node"><title>\\Chora_Application</title>
<polygon fill="none" stroke="black" points="460.08,-250 329.08,-250 329.08,-214 460.08,-214 460.08,-250"/>
<text text-anchor="middle" x="394.58" y="-229.2" font-family="Courier,monospace" font-size="11.00">Chora_Application</text>
</g>
<!-- \\Horde_Registry_Application -->
<g id="node11" class="node"><title>\\Horde_Registry_Application</title>
<ellipse fill="none" stroke="black" cx="115.04" cy="-18" rx="115.08" ry="18"/>
<text text-anchor="middle" x="115.04" y="-14.3" font-family="Times,serif" font-size="14.00" fill="gray">\Horde_Registry_Application</text>
</g>
<!-- \\Chora_Application&#45;&gt;\\Horde_Registry_Application -->
<g id="edge3" class="edge"><title>\\Chora_Application&#45;&gt;\\Horde_Registry_Application</title>
<path fill="none" stroke="black" d="M328.911,-220.615C319.174,-216.816 309.817,-211.751 302.08,-205 243.323,-153.732 290.21,-94.6495 230.08,-45 224.756,-40.6047 218.841,-36.9001 212.584,-33.7805"/>
<polygon fill="none" stroke="black" points="213.761,-30.4738 203.201,-29.6161 210.921,-36.872 213.761,-30.4738"/>
</g>
<!-- \\Chora_Renderer_File_Plain -->
<g id="node5" class="node"><title>\\Chora_Renderer_File_Plain</title>
<polygon fill="none" stroke="black" points="487.08,-412 302.08,-412 302.08,-376 487.08,-376 487.08,-412"/>
<text text-anchor="middle" x="394.58" y="-391.2" font-family="Courier,monospace" font-size="11.00">Chora_Renderer_File_Plain</text>
</g>
<!-- \\Chora_Renderer_File -->
<g id="node7" class="node"><title>\\Chora_Renderer_File</title>
<polygon fill="none" stroke="black" points="187.54,-466 42.5398,-466 42.5398,-430 187.54,-430 187.54,-466"/>
<text text-anchor="middle" x="115.04" y="-445.2" font-family="Courier,monospace" font-size="11.00">Chora_Renderer_File</text>
</g>
<!-- \\Chora_Renderer_File_Plain&#45;&gt;\\Chora_Renderer_File -->
<g id="edge4" class="edge"><title>\\Chora_Renderer_File_Plain&#45;&gt;\\Chora_Renderer_File</title>
<path fill="none" stroke="black" d="M301.933,-411.831C268.307,-418.374 230.492,-425.731 197.791,-432.094"/>
<polygon fill="none" stroke="black" points="196.964,-428.689 187.816,-434.035 198.301,-435.56 196.964,-428.689"/>
</g>
<!-- \\Chora_Renderer_File_Html -->
<g id="node6" class="node"><title>\\Chora_Renderer_File_Html</title>
<polygon fill="none" stroke="black" points="484.08,-520 305.08,-520 305.08,-484 484.08,-484 484.08,-520"/>
<text text-anchor="middle" x="394.58" y="-499.2" font-family="Courier,monospace" font-size="11.00">Chora_Renderer_File_Html</text>
</g>
<!-- \\Chora_Renderer_File_Html&#45;&gt;\\Chora_Renderer_File -->
<g id="edge5" class="edge"><title>\\Chora_Renderer_File_Html&#45;&gt;\\Chora_Renderer_File</title>
<path fill="none" stroke="black" d="M305.001,-484.766C270.493,-478.051 231.198,-470.406 197.413,-463.833"/>
<polygon fill="none" stroke="black" points="198.064,-460.394 187.579,-461.919 196.727,-467.265 198.064,-460.394"/>
</g>
<!-- \\Chora -->
<g id="node8" class="node"><title>\\Chora</title>
<polygon fill="none" stroke="black" points="421.58,-196 367.58,-196 367.58,-160 421.58,-160 421.58,-196"/>
<text text-anchor="middle" x="394.58" y="-175.2" font-family="Courier,monospace" font-size="11.00">Chora</text>
</g>
</g>
</svg>
