<?xml version="1.0" encoding="UTF-8" standalone="no"?>
<!DOCTYPE svg PUBLIC "-//W3C//DTD SVG 1.1//EN"
 "http://www.w3.org/Graphics/SVG/1.1/DTD/svg11.dtd">
<!-- Generated by graphviz version 2.38.0 (20140413.2041)
 -->
<!-- Title: G Pages: 1 -->
<svg width="505pt" height="258pt"
 viewBox="0.00 0.00 505.38 258.00" xmlns="http://www.w3.org/2000/svg" xmlns:xlink="http://www.w3.org/1999/xlink">
<g id="graph0" class="graph" transform="scale(1 1) rotate(0) translate(4 254)">
<title>G</title>
<polygon fill="white" stroke="none" points="-4,4 -4,-254 501.378,-254 501.378,4 -4,4"/>
<g id="clust1" class="cluster"><title>cluster_Global</title>
<path fill="none" stroke="gray" d="M320.378,-8C320.378,-8 477.378,-8 477.378,-8 483.378,-8 489.378,-14 489.378,-20 489.378,-20 489.378,-230 489.378,-230 489.378,-236 483.378,-242 477.378,-242 477.378,-242 320.378,-242 320.378,-242 314.378,-242 308.378,-236 308.378,-230 308.378,-230 308.378,-20 308.378,-20 308.378,-14 314.378,-8 320.378,-8"/>
<text text-anchor="middle" x="398.878" y="-229.2" font-family="Times,serif" font-size="11.00" fill="gray">Global</text>
</g>
<!-- \\Horde_Idna -->
<g id="node1" class="node"><title>\\Horde_Idna</title>
<polygon fill="none" stroke="black" points="440.878,-214 356.878,-214 356.878,-178 440.878,-178 440.878,-214"/>
<text text-anchor="middle" x="398.878" y="-193.2" font-family="Courier,monospace" font-size="11.00">Horde_Idna</text>
</g>
<!-- \\Horde_Idna_Exception -->
<g id="node2" class="node"><title>\\Horde_Idna_Exception</title>
<polygon fill="none" stroke="black" points="474.878,-160 322.878,-160 322.878,-124 474.878,-124 474.878,-160"/>
<text text-anchor="middle" x="398.878" y="-139.2" font-family="Courier,monospace" font-size="11.00">Horde_Idna_Exception</text>
</g>
<!-- \\Horde_Exception -->
<g id="node5" class="node"><title>\\Horde_Exception</title>
<ellipse fill="none" stroke="black" cx="122.189" cy="-142" rx="75.2868" ry="18"/>
<text text-anchor="middle" x="122.189" y="-138.3" font-family="Times,serif" font-size="14.00" fill="gray">\Horde_Exception</text>
</g>
<!-- \\Horde_Idna_Exception&#45;&gt;\\Horde_Exception -->
<g id="edge1" class="edge"><title>\\Horde_Idna_Exception&#45;&gt;\\Horde_Exception</title>
<path fill="none" stroke="black" d="M322.818,-142C287.245,-142 244.599,-142 207.873,-142"/>
<polygon fill="none" stroke="black" points="207.682,-138.5 197.682,-142 207.682,-145.5 207.682,-138.5"/>
</g>
<!-- \\Horde_Idna_Punycode -->
<g id="node3" class="node"><title>\\Horde_Idna_Punycode</title>
<polygon fill="none" stroke="black" points="471.378,-106 326.378,-106 326.378,-70 471.378,-70 471.378,-106"/>
<text text-anchor="middle" x="398.878" y="-85.2" font-family="Courier,monospace" font-size="11.00">Horde_Idna_Punycode</text>
</g>
<!-- \\Horde_Idna_Translation -->
<g id="node4" class="node"><title>\\Horde_Idna_Translation</title>
<polygon fill="none" stroke="black" points="481.378,-52 316.378,-52 316.378,-16 481.378,-16 481.378,-52"/>
<text text-anchor="middle" x="398.878" y="-31.2" font-family="Courier,monospace" font-size="11.00">Horde_Idna_Translation</text>
</g>
<!-- \\Horde_Translation_Autodetect -->
<g id="node6" class="node"><title>\\Horde_Translation_Autodetect</title>
<ellipse fill="none" stroke="black" cx="122.189" cy="-34" rx="122.379" ry="18"/>
<text text-anchor="middle" x="122.189" y="-30.3" font-family="Times,serif" font-size="14.00" fill="gray">\Horde_Translation_Autodetect</text>
</g>
<!-- \\Horde_Idna_Translation&#45;&gt;\\Horde_Translation_Autodetect -->
<g id="edge2" class="edge"><title>\\Horde_Idna_Translation&#45;&gt;\\Horde_Translation_Autodetect</title>
<path fill="none" stroke="black" d="M316.206,-34C296.839,-34 275.695,-34 254.731,-34"/>
<polygon fill="none" stroke="black" points="254.463,-30.5001 244.463,-34 254.463,-37.5001 254.463,-30.5001"/>
</g>
</g>
</svg>
