<?xml version="1.0" encoding="UTF-8" standalone="no"?>
<!DOCTYPE svg PUBLIC "-//W3C//DTD SVG 1.1//EN"
 "http://www.w3.org/Graphics/SVG/1.1/DTD/svg11.dtd">
<!-- Generated by graphviz version 2.38.0 (20140413.2041)
 -->
<!-- Title: G Pages: 1 -->
<svg width="549pt" height="510pt"
 viewBox="0.00 0.00 549.44 510.00" xmlns="http://www.w3.org/2000/svg" xmlns:xlink="http://www.w3.org/1999/xlink">
<g id="graph0" class="graph" transform="scale(1 1) rotate(0) translate(4 506)">
<title>G</title>
<polygon fill="white" stroke="none" points="-4,4 -4,-506 545.44,-506 545.44,4 -4,4"/>
<g id="clust1" class="cluster"><title>cluster_Global</title>
<path fill="none" stroke="gray" d="M20,-44C20,-44 521.44,-44 521.44,-44 527.44,-44 533.44,-50 533.44,-56 533.44,-56 533.44,-482 533.44,-482 533.44,-488 527.44,-494 521.44,-494 521.44,-494 20,-494 20,-494 14,-494 8,-488 8,-482 8,-482 8,-56 8,-56 8,-50 14,-44 20,-44"/>
<text text-anchor="middle" x="270.72" y="-481.2" font-family="Times,serif" font-size="11.00" fill="gray">Global</text>
</g>
<!-- \\Horde_Crypt_Blowfish -->
<g id="node1" class="node"><title>\\Horde_Crypt_Blowfish</title>
<polygon fill="none" stroke="black" points="491.94,-466 339.94,-466 339.94,-430 491.94,-430 491.94,-466"/>
<text text-anchor="middle" x="415.94" y="-445.2" font-family="Courier,monospace" font-size="11.00">Horde_Crypt_Blowfish</text>
</g>
<!-- \\Horde_Crypt_Blowfish_Openssl -->
<g id="node2" class="node"><title>\\Horde_Crypt_Blowfish_Openssl</title>
<polygon fill="none" stroke="black" points="518.94,-412 312.94,-412 312.94,-376 518.94,-376 518.94,-412"/>
<text text-anchor="middle" x="415.94" y="-391.2" font-family="Courier,monospace" font-size="11.00">Horde_Crypt_Blowfish_Openssl</text>
</g>
<!-- \\Horde_Crypt_Blowfish_Base -->
<g id="node10" class="node"><title>\\Horde_Crypt_Blowfish_Base</title>
<polygon fill="none" stroke="black" points="214.5,-358 29.5,-358 29.5,-322 214.5,-322 214.5,-358"/>
<text text-anchor="start" x="88" y="-343.2" font-family="Courier,monospace" font-size="11.00">«abstract»</text>
<text text-anchor="start" x="37.5" y="-331.2" font-family="Courier,monospace" font-size="11.00">Horde_Crypt_Blowfish_Base</text>
</g>
<!-- \\Horde_Crypt_Blowfish_Openssl&#45;&gt;\\Horde_Crypt_Blowfish_Base -->
<g id="edge1" class="edge"><title>\\Horde_Crypt_Blowfish_Openssl&#45;&gt;\\Horde_Crypt_Blowfish_Base</title>
<path fill="none" stroke="black" d="M317.322,-375.944C287.537,-370.434 254.724,-364.365 224.677,-358.807"/>
<polygon fill="none" stroke="black" points="225.072,-355.321 214.602,-356.944 223.798,-362.204 225.072,-355.321"/>
</g>
<!-- \\Horde_Crypt_Blowfish_Exception -->
<g id="node3" class="node"><title>\\Horde_Crypt_Blowfish_Exception</title>
<polygon fill="none" stroke="black" points="525.44,-142 306.44,-142 306.44,-106 525.44,-106 525.44,-142"/>
<text text-anchor="middle" x="415.94" y="-121.2" font-family="Courier,monospace" font-size="11.00">Horde_Crypt_Blowfish_Exception</text>
</g>
<!-- \\Horde_Exception_Wrapped -->
<g id="node11" class="node"><title>\\Horde_Exception_Wrapped</title>
<ellipse fill="none" stroke="black" cx="122" cy="-18" rx="112.38" ry="18"/>
<text text-anchor="middle" x="122" y="-14.3" font-family="Times,serif" font-size="14.00" fill="gray">\Horde_Exception_Wrapped</text>
</g>
<!-- \\Horde_Crypt_Blowfish_Exception&#45;&gt;\\Horde_Exception_Wrapped -->
<g id="edge2" class="edge"><title>\\Horde_Crypt_Blowfish_Exception&#45;&gt;\\Horde_Exception_Wrapped</title>
<path fill="none" stroke="black" d="M328.157,-105.986C320.662,-103.363 313.321,-100.382 306.44,-97 269.81,-78.9991 271.5,-57.0985 234.44,-40 228.682,-37.3433 222.612,-35.007 216.4,-32.9524"/>
<polygon fill="none" stroke="black" points="217.13,-29.5162 206.544,-29.9501 215.09,-36.2124 217.13,-29.5162"/>
</g>
<!-- \\Horde_Crypt_Blowfish_Mcrypt -->
<g id="node4" class="node"><title>\\Horde_Crypt_Blowfish_Mcrypt</title>
<polygon fill="none" stroke="black" points="515.44,-358 316.44,-358 316.44,-322 515.44,-322 515.44,-358"/>
<text text-anchor="middle" x="415.94" y="-337.2" font-family="Courier,monospace" font-size="11.00">Horde_Crypt_Blowfish_Mcrypt</text>
</g>
<!-- \\Horde_Crypt_Blowfish_Mcrypt&#45;&gt;\\Horde_Crypt_Blowfish_Base -->
<g id="edge3" class="edge"><title>\\Horde_Crypt_Blowfish_Mcrypt&#45;&gt;\\Horde_Crypt_Blowfish_Base</title>
<path fill="none" stroke="black" d="M316.102,-340C286.804,-340 254.668,-340 225.163,-340"/>
<polygon fill="none" stroke="black" points="224.846,-336.5 214.846,-340 224.846,-343.5 224.846,-336.5"/>
</g>
<!-- \\Horde_Crypt_Blowfish_Php -->
<g id="node5" class="node"><title>\\Horde_Crypt_Blowfish_Php</title>
<polygon fill="none" stroke="black" points="505.44,-304 326.44,-304 326.44,-268 505.44,-268 505.44,-304"/>
<text text-anchor="middle" x="415.94" y="-283.2" font-family="Courier,monospace" font-size="11.00">Horde_Crypt_Blowfish_Php</text>
</g>
<!-- \\Horde_Crypt_Blowfish_Php&#45;&gt;\\Horde_Crypt_Blowfish_Base -->
<g id="edge4" class="edge"><title>\\Horde_Crypt_Blowfish_Php&#45;&gt;\\Horde_Crypt_Blowfish_Base</title>
<path fill="none" stroke="black" d="M326.159,-302.422C294.158,-308.341 257.8,-315.066 224.774,-321.175"/>
<polygon fill="none" stroke="black" points="223.837,-317.789 214.641,-323.049 225.11,-324.672 223.837,-317.789"/>
</g>
<!-- \\Horde_Crypt_Blowfish_Php_Cbc -->
<g id="node6" class="node"><title>\\Horde_Crypt_Blowfish_Php_Cbc</title>
<polygon fill="none" stroke="black" points="518.94,-250 312.94,-250 312.94,-214 518.94,-214 518.94,-250"/>
<text text-anchor="middle" x="415.94" y="-229.2" font-family="Courier,monospace" font-size="11.00">Horde_Crypt_Blowfish_Php_Cbc</text>
</g>
<!-- \\Horde_Crypt_Blowfish_Php_Base -->
<g id="node8" class="node"><title>\\Horde_Crypt_Blowfish_Php_Base</title>
<polygon fill="none" stroke="black" points="228,-223 16,-223 16,-187 228,-187 228,-223"/>
<text text-anchor="start" x="88" y="-208.2" font-family="Courier,monospace" font-size="11.00">«abstract»</text>
<text text-anchor="start" x="24" y="-196.2" font-family="Courier,monospace" font-size="11.00">Horde_Crypt_Blowfish_Php_Base</text>
</g>
<!-- \\Horde_Crypt_Blowfish_Php_Cbc&#45;&gt;\\Horde_Crypt_Blowfish_Php_Base -->
<g id="edge5" class="edge"><title>\\Horde_Crypt_Blowfish_Php_Cbc&#45;&gt;\\Horde_Crypt_Blowfish_Php_Base</title>
<path fill="none" stroke="black" d="M312.834,-222.557C288.699,-220.325 262.801,-217.929 238.135,-215.648"/>
<polygon fill="none" stroke="black" points="238.297,-212.148 228.017,-214.712 237.652,-219.119 238.297,-212.148"/>
</g>
<!-- \\Horde_Crypt_Blowfish_Php_Ecb -->
<g id="node7" class="node"><title>\\Horde_Crypt_Blowfish_Php_Ecb</title>
<polygon fill="none" stroke="black" points="518.94,-196 312.94,-196 312.94,-160 518.94,-160 518.94,-196"/>
<text text-anchor="middle" x="415.94" y="-175.2" font-family="Courier,monospace" font-size="11.00">Horde_Crypt_Blowfish_Php_Ecb</text>
</g>
<!-- \\Horde_Crypt_Blowfish_Php_Ecb&#45;&gt;\\Horde_Crypt_Blowfish_Php_Base -->
<g id="edge6" class="edge"><title>\\Horde_Crypt_Blowfish_Php_Ecb&#45;&gt;\\Horde_Crypt_Blowfish_Php_Base</title>
<path fill="none" stroke="black" d="M312.834,-187.443C288.699,-189.675 262.801,-192.071 238.135,-194.352"/>
<polygon fill="none" stroke="black" points="237.652,-190.881 228.017,-195.288 238.297,-197.852 237.652,-190.881"/>
</g>
<!-- \\Horde_Crypt_Blowfish_Pbkdf2 -->
<g id="node9" class="node"><title>\\Horde_Crypt_Blowfish_Pbkdf2</title>
<polygon fill="none" stroke="black" points="515.44,-88 316.44,-88 316.44,-52 515.44,-52 515.44,-88"/>
<text text-anchor="middle" x="415.94" y="-67.2" font-family="Courier,monospace" font-size="11.00">Horde_Crypt_Blowfish_Pbkdf2</text>
</g>
</g>
</svg>
