<?xml version="1.0" encoding="UTF-8" standalone="no"?>
<!DOCTYPE svg PUBLIC "-//W3C//DTD SVG 1.1//EN"
 "http://www.w3.org/Graphics/SVG/1.1/DTD/svg11.dtd">
<!-- Generated by graphviz version 2.38.0 (20140413.2041)
 -->
<!-- Title: G Pages: 1 -->
<svg width="559pt" height="510pt"
 viewBox="0.00 0.00 559.38 510.00" xmlns="http://www.w3.org/2000/svg" xmlns:xlink="http://www.w3.org/1999/xlink">
<g id="graph0" class="graph" transform="scale(1 1) rotate(0) translate(4 506)">
<title>G</title>
<polygon fill="white" stroke="none" points="-4,4 -4,-506 555.378,-506 555.378,4 -4,4"/>
<g id="clust1" class="cluster"><title>cluster_Global</title>
<path fill="none" stroke="gray" d="M40.1892,-98C40.1892,-98 531.378,-98 531.378,-98 537.378,-98 543.378,-104 543.378,-110 543.378,-110 543.378,-482 543.378,-482 543.378,-488 537.378,-494 531.378,-494 531.378,-494 40.1892,-494 40.1892,-494 34.1892,-494 28.1892,-488 28.1892,-482 28.1892,-482 28.1892,-110 28.1892,-110 28.1892,-104 34.1892,-98 40.1892,-98"/>
<text text-anchor="middle" x="285.784" y="-481.2" font-family="Times,serif" font-size="11.00" fill="gray">Global</text>
</g>
<!-- \\Horde_Crypt -->
<g id="node1" class="node"><title>\\Horde_Crypt</title>
<polygon fill="none" stroke="black" points="167.689,-385 76.6892,-385 76.6892,-349 167.689,-349 167.689,-385"/>
<text text-anchor="middle" x="122.189" y="-364.2" font-family="Courier,monospace" font-size="11.00">Horde_Crypt</text>
</g>
<!-- \\Horde_Crypt_Pgp -->
<g id="node2" class="node"><title>\\Horde_Crypt_Pgp</title>
<polygon fill="none" stroke="black" points="484.878,-466 366.878,-466 366.878,-430 484.878,-430 484.878,-466"/>
<text text-anchor="middle" x="425.878" y="-445.2" font-family="Courier,monospace" font-size="11.00">Horde_Crypt_Pgp</text>
</g>
<!-- \\Horde_Crypt_Pgp&#45;&gt;\\Horde_Crypt -->
<g id="edge1" class="edge"><title>\\Horde_Crypt_Pgp&#45;&gt;\\Horde_Crypt</title>
<path fill="none" stroke="black" d="M366.802,-433.874C350.467,-429.812 332.706,-425.313 316.378,-421 269.552,-408.632 216.588,-393.765 177.975,-382.765"/>
<polygon fill="none" stroke="black" points="178.558,-379.292 167.981,-379.913 176.637,-386.023 178.558,-379.292"/>
</g>
<!-- \\Horde_Crypt_Pgp_Keyserver -->
<g id="node3" class="node"><title>\\Horde_Crypt_Pgp_Keyserver</title>
<polygon fill="none" stroke="black" points="518.378,-412 333.378,-412 333.378,-376 518.378,-376 518.378,-412"/>
<text text-anchor="middle" x="425.878" y="-391.2" font-family="Courier,monospace" font-size="11.00">Horde_Crypt_Pgp_Keyserver</text>
</g>
<!-- \\Horde_Crypt_Pgp_Parse -->
<g id="node4" class="node"><title>\\Horde_Crypt_Pgp_Parse</title>
<polygon fill="none" stroke="black" points="504.878,-358 346.878,-358 346.878,-322 504.878,-322 504.878,-358"/>
<text text-anchor="middle" x="425.878" y="-337.2" font-family="Courier,monospace" font-size="11.00">Horde_Crypt_Pgp_Parse</text>
</g>
<!-- \\Horde_Crypt_Pgp_Backend -->
<g id="node5" class="node"><title>\\Horde_Crypt_Pgp_Backend</title>
<polygon fill="none" stroke="black" points="208.189,-250 36.1892,-250 36.1892,-214 208.189,-214 208.189,-250"/>
<text text-anchor="middle" x="122.189" y="-229.2" font-family="Courier,monospace" font-size="11.00">Horde_Crypt_Pgp_Backend</text>
</g>
<!-- \\Horde_Crypt_Pgp_Backend_Binary -->
<g id="node6" class="node"><title>\\Horde_Crypt_Pgp_Backend_Binary</title>
<polygon fill="none" stroke="black" points="535.378,-250 316.378,-250 316.378,-214 535.378,-214 535.378,-250"/>
<text text-anchor="middle" x="425.878" y="-229.2" font-family="Courier,monospace" font-size="11.00">Horde_Crypt_Pgp_Backend_Binary</text>
</g>
<!-- \\Horde_Crypt_Pgp_Backend_Binary&#45;&gt;\\Horde_Crypt_Pgp_Backend -->
<g id="edge2" class="edge"><title>\\Horde_Crypt_Pgp_Backend_Binary&#45;&gt;\\Horde_Crypt_Pgp_Backend</title>
<path fill="none" stroke="black" d="M315.962,-232C284.118,-232 249.566,-232 218.626,-232"/>
<polygon fill="none" stroke="black" points="218.281,-228.5 208.281,-232 218.281,-235.5 218.281,-228.5"/>
</g>
<!-- \\Horde_Crypt_Exception -->
<g id="node7" class="node"><title>\\Horde_Crypt_Exception</title>
<polygon fill="none" stroke="black" points="504.878,-196 346.878,-196 346.878,-160 504.878,-160 504.878,-196"/>
<text text-anchor="middle" x="425.878" y="-175.2" font-family="Courier,monospace" font-size="11.00">Horde_Crypt_Exception</text>
</g>
<!-- \\Horde_Exception_Wrapped -->
<g id="node10" class="node"><title>\\Horde_Exception_Wrapped</title>
<ellipse fill="none" stroke="black" cx="122.189" cy="-72" rx="112.38" ry="18"/>
<text text-anchor="middle" x="122.189" y="-68.3" font-family="Times,serif" font-size="14.00" fill="gray">\Horde_Exception_Wrapped</text>
</g>
<!-- \\Horde_Crypt_Exception&#45;&gt;\\Horde_Exception_Wrapped -->
<g id="edge3" class="edge"><title>\\Horde_Crypt_Exception&#45;&gt;\\Horde_Exception_Wrapped</title>
<path fill="none" stroke="black" d="M346.684,-162.822C336.242,-159.569 325.873,-155.666 316.378,-151 279.748,-132.999 281.568,-110.814 244.378,-94 237.254,-90.7791 229.693,-88.0295 221.965,-85.6822"/>
<polygon fill="none" stroke="black" points="222.681,-82.248 212.107,-82.919 220.791,-88.9882 222.681,-82.248"/>
</g>
<!-- \\Horde_Crypt_Smime -->
<g id="node8" class="node"><title>\\Horde_Crypt_Smime</title>
<polygon fill="none" stroke="black" points="491.378,-304 360.378,-304 360.378,-268 491.378,-268 491.378,-304"/>
<text text-anchor="middle" x="425.878" y="-283.2" font-family="Courier,monospace" font-size="11.00">Horde_Crypt_Smime</text>
</g>
<!-- \\Horde_Crypt_Smime&#45;&gt;\\Horde_Crypt -->
<g id="edge4" class="edge"><title>\\Horde_Crypt_Smime&#45;&gt;\\Horde_Crypt</title>
<path fill="none" stroke="black" d="M360.256,-301.758C345.797,-305.374 330.548,-309.257 316.378,-313 269.552,-325.368 216.588,-340.235 177.975,-351.235"/>
<polygon fill="none" stroke="black" points="176.637,-347.977 167.981,-354.087 178.558,-354.708 176.637,-347.977"/>
</g>
<!-- \\Horde_Crypt_Translation -->
<g id="node9" class="node"><title>\\Horde_Crypt_Translation</title>
<polygon fill="none" stroke="black" points="511.878,-142 339.878,-142 339.878,-106 511.878,-106 511.878,-142"/>
<text text-anchor="middle" x="425.878" y="-121.2" font-family="Courier,monospace" font-size="11.00">Horde_Crypt_Translation</text>
</g>
<!-- \\Horde_Translation_Autodetect -->
<g id="node11" class="node"><title>\\Horde_Translation_Autodetect</title>
<ellipse fill="none" stroke="black" cx="122.189" cy="-18" rx="122.379" ry="18"/>
<text text-anchor="middle" x="122.189" y="-14.3" font-family="Times,serif" font-size="14.00" fill="gray">\Horde_Translation_Autodetect</text>
</g>
<!-- \\Horde_Crypt_Translation&#45;&gt;\\Horde_Translation_Autodetect -->
<g id="edge5" class="edge"><title>\\Horde_Crypt_Translation&#45;&gt;\\Horde_Translation_Autodetect</title>
<path fill="none" stroke="black" d="M389.04,-105.846C353.185,-88.279 296.076,-61.8962 244.378,-45 232.657,-41.1692 220.123,-37.7022 207.724,-34.6277"/>
<polygon fill="none" stroke="black" points="208.369,-31.183 197.827,-32.2467 206.731,-37.9889 208.369,-31.183"/>
</g>
</g>
</svg>
