<?xml version="1.0" encoding="UTF-8" standalone="no"?>
<!DOCTYPE svg PUBLIC "-//W3C//DTD SVG 1.1//EN"
 "http://www.w3.org/Graphics/SVG/1.1/DTD/svg11.dtd">
<!-- Generated by graphviz version 2.38.0 (20140413.2041)
 -->
<!-- Title: G Pages: 1 -->
<svg width="593pt" height="1698pt"
 viewBox="0.00 0.00 593.38 1698.00" xmlns="http://www.w3.org/2000/svg" xmlns:xlink="http://www.w3.org/1999/xlink">
<g id="graph0" class="graph" transform="scale(1 1) rotate(0) translate(4 1694)">
<title>G</title>
<polygon fill="white" stroke="none" points="-4,4 -4,-1694 589.378,-1694 589.378,4 -4,4"/>
<g id="clust1" class="cluster"><title>cluster_Global</title>
<path fill="none" stroke="gray" d="M43.6892,-98C43.6892,-98 565.378,-98 565.378,-98 571.378,-98 577.378,-104 577.378,-110 577.378,-110 577.378,-1670 577.378,-1670 577.378,-1676 571.378,-1682 565.378,-1682 565.378,-1682 43.6892,-1682 43.6892,-1682 37.6892,-1682 31.6892,-1676 31.6892,-1670 31.6892,-1670 31.6892,-110 31.6892,-110 31.6892,-104 37.6892,-98 43.6892,-98"/>
<text text-anchor="middle" x="304.534" y="-1669.2" font-family="Times,serif" font-size="11.00" fill="gray">Global</text>
</g>
<!-- \\Horde_Mime_Viewer -->
<g id="node1" class="node"><title>\\Horde_Mime_Viewer</title>
<polygon fill="none" stroke="black" points="508.378,-1654 377.378,-1654 377.378,-1618 508.378,-1618 508.378,-1654"/>
<text text-anchor="middle" x="442.878" y="-1633.2" font-family="Courier,monospace" font-size="11.00">Horde_Mime_Viewer</text>
</g>
<!-- \\Horde_Mime_Viewer_Deb -->
<g id="node2" class="node"><title>\\Horde_Mime_Viewer_Deb</title>
<polygon fill="none" stroke="black" points="521.878,-1600 363.878,-1600 363.878,-1564 521.878,-1564 521.878,-1600"/>
<text text-anchor="middle" x="442.878" y="-1579.2" font-family="Courier,monospace" font-size="11.00">Horde_Mime_Viewer_Deb</text>
</g>
<!-- \\Horde_Mime_Viewer_Base -->
<g id="node28" class="node"><title>\\Horde_Mime_Viewer_Base</title>
<polygon fill="none" stroke="black" points="204.689,-925 39.6892,-925 39.6892,-889 204.689,-889 204.689,-925"/>
<text text-anchor="middle" x="122.189" y="-904.2" font-family="Courier,monospace" font-size="11.00">Horde_Mime_Viewer_Base</text>
</g>
<!-- \\Horde_Mime_Viewer_Deb&#45;&gt;\\Horde_Mime_Viewer_Base -->
<g id="edge1" class="edge"><title>\\Horde_Mime_Viewer_Deb&#45;&gt;\\Horde_Mime_Viewer_Base</title>
<path fill="none" stroke="black" d="M363.718,-1578.35C346.416,-1574.19 329.385,-1567.03 316.378,-1555 221.207,-1466.96 146.45,-1048.46 127.727,-935.278"/>
<polygon fill="none" stroke="black" points="131.163,-934.601 126.091,-925.299 124.255,-935.733 131.163,-934.601"/>
</g>
<!-- \\Horde_Mime_Viewer_Security -->
<g id="node3" class="node"><title>\\Horde_Mime_Viewer_Security</title>
<polygon fill="none" stroke="black" points="538.878,-1546 346.878,-1546 346.878,-1510 538.878,-1510 538.878,-1546"/>
<text text-anchor="middle" x="442.878" y="-1525.2" font-family="Courier,monospace" font-size="11.00">Horde_Mime_Viewer_Security</text>
</g>
<!-- \\Horde_Mime_Viewer_Security&#45;&gt;\\Horde_Mime_Viewer_Base -->
<g id="edge2" class="edge"><title>\\Horde_Mime_Viewer_Security&#45;&gt;\\Horde_Mime_Viewer_Base</title>
<path fill="none" stroke="black" d="M346.831,-1518.92C335.665,-1514.71 325.148,-1508.91 316.378,-1501 142.925,-1344.48 124.594,-1030.7 123.139,-935.212"/>
<polygon fill="none" stroke="black" points="126.638,-935.13 123.038,-925.166 119.639,-935.201 126.638,-935.13"/>
</g>
<!-- \\Horde_Mime_Viewer_Richtext -->
<g id="node4" class="node"><title>\\Horde_Mime_Viewer_Richtext</title>
<polygon fill="none" stroke="black" points="538.878,-1492 346.878,-1492 346.878,-1456 538.878,-1456 538.878,-1492"/>
<text text-anchor="middle" x="442.878" y="-1471.2" font-family="Courier,monospace" font-size="11.00">Horde_Mime_Viewer_Richtext</text>
</g>
<!-- \\Horde_Mime_Viewer_Richtext&#45;&gt;\\Horde_Mime_Viewer_Base -->
<g id="edge3" class="edge"><title>\\Horde_Mime_Viewer_Richtext&#45;&gt;\\Horde_Mime_Viewer_Base</title>
<path fill="none" stroke="black" d="M346.73,-1464.56C335.647,-1460.4 325.178,-1454.71 316.378,-1447 156.61,-1306.99 128.963,-1025.29 124.185,-935.311"/>
<polygon fill="none" stroke="black" points="127.67,-934.9 123.699,-925.077 120.678,-935.232 127.67,-934.9"/>
</g>
<!-- \\Horde_Mime_Viewer_Syntaxhighlighter -->
<g id="node5" class="node"><title>\\Horde_Mime_Viewer_Syntaxhighlighter</title>
<polygon fill="none" stroke="black" points="569.378,-1438 316.378,-1438 316.378,-1402 569.378,-1402 569.378,-1438"/>
<text text-anchor="middle" x="442.878" y="-1417.2" font-family="Courier,monospace" font-size="11.00">Horde_Mime_Viewer_Syntaxhighlighter</text>
</g>
<!-- \\Horde_Mime_Viewer_Syntaxhighlighter&#45;&gt;\\Horde_Mime_Viewer_Base -->
<g id="edge4" class="edge"><title>\\Horde_Mime_Viewer_Syntaxhighlighter&#45;&gt;\\Horde_Mime_Viewer_Base</title>
<path fill="none" stroke="black" d="M328.961,-1401.84C324.515,-1399.24 320.292,-1396.31 316.378,-1393 170.283,-1269.4 133.8,-1019.9 125.469,-935.587"/>
<polygon fill="none" stroke="black" points="128.94,-935.108 124.529,-925.475 121.97,-935.757 128.94,-935.108"/>
</g>
<!-- \\Horde_Mime_Viewer_Rtf -->
<g id="node6" class="node"><title>\\Horde_Mime_Viewer_Rtf</title>
<polygon fill="none" stroke="black" points="521.878,-1384 363.878,-1384 363.878,-1348 521.878,-1348 521.878,-1384"/>
<text text-anchor="middle" x="442.878" y="-1363.2" font-family="Courier,monospace" font-size="11.00">Horde_Mime_Viewer_Rtf</text>
</g>
<!-- \\Horde_Mime_Viewer_Rtf&#45;&gt;\\Horde_Mime_Viewer_Base -->
<g id="edge5" class="edge"><title>\\Horde_Mime_Viewer_Rtf&#45;&gt;\\Horde_Mime_Viewer_Base</title>
<path fill="none" stroke="black" d="M363.818,-1360.87C346.81,-1356.73 329.883,-1349.95 316.378,-1339 183.486,-1231.29 138.969,-1013.03 126.98,-935.287"/>
<polygon fill="none" stroke="black" points="130.424,-934.655 125.498,-925.276 123.5,-935.68 130.424,-934.655"/>
</g>
<!-- \\Horde_Mime_Viewer_Tgz -->
<g id="node7" class="node"><title>\\Horde_Mime_Viewer_Tgz</title>
<polygon fill="none" stroke="black" points="521.878,-1330 363.878,-1330 363.878,-1294 521.878,-1294 521.878,-1330"/>
<text text-anchor="middle" x="442.878" y="-1309.2" font-family="Courier,monospace" font-size="11.00">Horde_Mime_Viewer_Tgz</text>
</g>
<!-- \\Horde_Mime_Viewer_Tgz&#45;&gt;\\Horde_Mime_Viewer_Base -->
<g id="edge6" class="edge"><title>\\Horde_Mime_Viewer_Tgz&#45;&gt;\\Horde_Mime_Viewer_Base</title>
<path fill="none" stroke="black" d="M363.569,-1306.19C346.762,-1302.06 329.986,-1295.46 316.378,-1285 196.586,-1192.96 144.772,-1005.97 128.877,-935.093"/>
<polygon fill="none" stroke="black" points="132.254,-934.151 126.709,-925.123 125.414,-935.639 132.254,-934.151"/>
</g>
<!-- \\Horde_Mime_Viewer_Tnef -->
<g id="node8" class="node"><title>\\Horde_Mime_Viewer_Tnef</title>
<polygon fill="none" stroke="black" points="525.378,-1276 360.378,-1276 360.378,-1240 525.378,-1240 525.378,-1276"/>
<text text-anchor="middle" x="442.878" y="-1255.2" font-family="Courier,monospace" font-size="11.00">Horde_Mime_Viewer_Tnef</text>
</g>
<!-- \\Horde_Mime_Viewer_Tnef&#45;&gt;\\Horde_Mime_Viewer_Base -->
<g id="edge7" class="edge"><title>\\Horde_Mime_Viewer_Tnef&#45;&gt;\\Horde_Mime_Viewer_Base</title>
<path fill="none" stroke="black" d="M360.124,-1250.53C344.612,-1246.41 329.234,-1240.23 316.378,-1231 209.532,-1154.31 151.435,-998.562 131.354,-934.981"/>
<polygon fill="none" stroke="black" points="134.644,-933.773 128.352,-925.249 127.955,-935.837 134.644,-933.773"/>
</g>
<!-- \\Horde_Mime_Viewer_Images -->
<g id="node9" class="node"><title>\\Horde_Mime_Viewer_Images</title>
<polygon fill="none" stroke="black" points="532.378,-1222 353.378,-1222 353.378,-1186 532.378,-1186 532.378,-1222"/>
<text text-anchor="middle" x="442.878" y="-1201.2" font-family="Courier,monospace" font-size="11.00">Horde_Mime_Viewer_Images</text>
</g>
<!-- \\Horde_Mime_Viewer_Images&#45;&gt;\\Horde_Mime_Viewer_Base -->
<g id="edge8" class="edge"><title>\\Horde_Mime_Viewer_Images&#45;&gt;\\Horde_Mime_Viewer_Base</title>
<path fill="none" stroke="black" d="M353.16,-1193.56C340.177,-1189.63 327.464,-1184.28 316.378,-1177 222.055,-1115.09 159.026,-989.997 134.582,-934.542"/>
<polygon fill="none" stroke="black" points="137.781,-933.122 130.598,-925.335 131.357,-935.902 137.781,-933.122"/>
</g>
<!-- \\Horde_Mime_Viewer_Exception -->
<g id="node10" class="node"><title>\\Horde_Mime_Viewer_Exception</title>
<polygon fill="none" stroke="black" points="542.378,-196 343.378,-196 343.378,-160 542.378,-160 542.378,-196"/>
<text text-anchor="middle" x="442.878" y="-175.2" font-family="Courier,monospace" font-size="11.00">Horde_Mime_Viewer_Exception</text>
</g>
<!-- \\Horde_Exception_Wrapped -->
<g id="node31" class="node"><title>\\Horde_Exception_Wrapped</title>
<ellipse fill="none" stroke="black" cx="122.189" cy="-72" rx="112.38" ry="18"/>
<text text-anchor="middle" x="122.189" y="-68.3" font-family="Times,serif" font-size="14.00" fill="gray">\Horde_Exception_Wrapped</text>
</g>
<!-- \\Horde_Mime_Viewer_Exception&#45;&gt;\\Horde_Exception_Wrapped -->
<g id="edge9" class="edge"><title>\\Horde_Mime_Viewer_Exception&#45;&gt;\\Horde_Exception_Wrapped</title>
<path fill="none" stroke="black" d="M343.151,-161.314C333.91,-158.403 324.844,-154.994 316.378,-151 279.465,-133.587 281.568,-110.814 244.378,-94 237.254,-90.7791 229.693,-88.0295 221.965,-85.6822"/>
<polygon fill="none" stroke="black" points="222.681,-82.248 212.107,-82.919 220.791,-88.9882 222.681,-82.248"/>
</g>
<!-- \\Horde_Mime_Viewer_Audio -->
<g id="node11" class="node"><title>\\Horde_Mime_Viewer_Audio</title>
<polygon fill="none" stroke="black" points="528.878,-1168 356.878,-1168 356.878,-1132 528.878,-1132 528.878,-1168"/>
<text text-anchor="middle" x="442.878" y="-1147.2" font-family="Courier,monospace" font-size="11.00">Horde_Mime_Viewer_Audio</text>
</g>
<!-- \\Horde_Mime_Viewer_Audio&#45;&gt;\\Horde_Mime_Viewer_Base -->
<g id="edge10" class="edge"><title>\\Horde_Mime_Viewer_Audio&#45;&gt;\\Horde_Mime_Viewer_Base</title>
<path fill="none" stroke="black" d="M356.798,-1139.31C342.72,-1135.44 328.71,-1130.17 316.378,-1123 234.209,-1075.24 168.113,-980.35 139.111,-933.892"/>
<polygon fill="none" stroke="black" points="142.031,-931.959 133.811,-925.274 136.068,-935.626 142.031,-931.959"/>
</g>
<!-- \\Horde_Mime_Viewer_Default -->
<g id="node12" class="node"><title>\\Horde_Mime_Viewer_Default</title>
<polygon fill="none" stroke="black" points="535.378,-1114 350.378,-1114 350.378,-1078 535.378,-1078 535.378,-1114"/>
<text text-anchor="middle" x="442.878" y="-1093.2" font-family="Courier,monospace" font-size="11.00">Horde_Mime_Viewer_Default</text>
</g>
<!-- \\Horde_Mime_Viewer_Default&#45;&gt;\\Horde_Mime_Viewer_Base -->
<g id="edge11" class="edge"><title>\\Horde_Mime_Viewer_Default&#45;&gt;\\Horde_Mime_Viewer_Base</title>
<path fill="none" stroke="black" d="M350.305,-1081.78C338.586,-1078.39 326.989,-1074.19 316.378,-1069 246.008,-1034.58 179.612,-969.116 146.025,-932.83"/>
<polygon fill="none" stroke="black" points="148.311,-930.143 138.98,-925.125 143.145,-934.867 148.311,-930.143"/>
</g>
<!-- \\Horde_Mime_Viewer_Mspowerpoint -->
<g id="node13" class="node"><title>\\Horde_Mime_Viewer_Mspowerpoint</title>
<polygon fill="none" stroke="black" points="552.378,-1060 333.378,-1060 333.378,-1024 552.378,-1024 552.378,-1060"/>
<text text-anchor="middle" x="442.878" y="-1039.2" font-family="Courier,monospace" font-size="11.00">Horde_Mime_Viewer_Mspowerpoint</text>
</g>
<!-- \\Horde_Mime_Viewer_Mspowerpoint&#45;&gt;\\Horde_Mime_Viewer_Base -->
<g id="edge12" class="edge"><title>\\Horde_Mime_Viewer_Mspowerpoint&#45;&gt;\\Horde_Mime_Viewer_Base</title>
<path fill="none" stroke="black" d="M344.098,-1023.96C334.619,-1021.32 325.24,-1018.34 316.378,-1015 257.801,-992.896 195.529,-955.178 157.995,-930.677"/>
<polygon fill="none" stroke="black" points="159.735,-927.632 149.459,-925.054 155.885,-933.478 159.735,-927.632"/>
</g>
<!-- \\Horde_Mime_Viewer_Rpm -->
<g id="node14" class="node"><title>\\Horde_Mime_Viewer_Rpm</title>
<polygon fill="none" stroke="black" points="521.878,-1006 363.878,-1006 363.878,-970 521.878,-970 521.878,-1006"/>
<text text-anchor="middle" x="442.878" y="-985.2" font-family="Courier,monospace" font-size="11.00">Horde_Mime_Viewer_Rpm</text>
</g>
<!-- \\Horde_Mime_Viewer_Rpm&#45;&gt;\\Horde_Mime_Viewer_Base -->
<g id="edge13" class="edge"><title>\\Horde_Mime_Viewer_Rpm&#45;&gt;\\Horde_Mime_Viewer_Base</title>
<path fill="none" stroke="black" d="M363.717,-971.952C348.002,-968.51 331.632,-964.769 316.378,-961 275.741,-950.959 230.674,-938.442 194.297,-927.988"/>
<polygon fill="none" stroke="black" points="194.856,-924.507 184.278,-925.098 192.916,-931.233 194.856,-924.507"/>
</g>
<!-- \\Horde_Mime_Viewer_Wordperfect -->
<g id="node15" class="node"><title>\\Horde_Mime_Viewer_Wordperfect</title>
<polygon fill="none" stroke="black" points="548.878,-952 336.878,-952 336.878,-916 548.878,-916 548.878,-952"/>
<text text-anchor="middle" x="442.878" y="-931.2" font-family="Courier,monospace" font-size="11.00">Horde_Mime_Viewer_Wordperfect</text>
</g>
<!-- \\Horde_Mime_Viewer_Wordperfect&#45;&gt;\\Horde_Mime_Viewer_Base -->
<g id="edge14" class="edge"><title>\\Horde_Mime_Viewer_Wordperfect&#45;&gt;\\Horde_Mime_Viewer_Base</title>
<path fill="none" stroke="black" d="M336.644,-925.084C297.284,-921.75 252.924,-917.991 214.882,-914.768"/>
<polygon fill="none" stroke="black" points="215.103,-911.275 204.843,-913.918 214.512,-918.25 215.103,-911.275"/>
</g>
<!-- \\Horde_Mime_Viewer_Zip -->
<g id="node16" class="node"><title>\\Horde_Mime_Viewer_Zip</title>
<polygon fill="none" stroke="black" points="521.878,-898 363.878,-898 363.878,-862 521.878,-862 521.878,-898"/>
<text text-anchor="middle" x="442.878" y="-877.2" font-family="Courier,monospace" font-size="11.00">Horde_Mime_Viewer_Zip</text>
</g>
<!-- \\Horde_Mime_Viewer_Zip&#45;&gt;\\Horde_Mime_Viewer_Base -->
<g id="edge15" class="edge"><title>\\Horde_Mime_Viewer_Zip&#45;&gt;\\Horde_Mime_Viewer_Base</title>
<path fill="none" stroke="black" d="M363.51,-886.64C318.61,-890.444 262.028,-895.237 215.047,-899.218"/>
<polygon fill="none" stroke="black" points="214.538,-895.748 204.869,-900.08 215.129,-902.723 214.538,-895.748"/>
</g>
<!-- \\Horde_Mime_Viewer_Plain -->
<g id="node17" class="node"><title>\\Horde_Mime_Viewer_Plain</title>
<polygon fill="none" stroke="black" points="528.878,-844 356.878,-844 356.878,-808 528.878,-808 528.878,-844"/>
<text text-anchor="middle" x="442.878" y="-823.2" font-family="Courier,monospace" font-size="11.00">Horde_Mime_Viewer_Plain</text>
</g>
<!-- \\Horde_Mime_Viewer_Plain&#45;&gt;\\Horde_Mime_Viewer_Base -->
<g id="edge16" class="edge"><title>\\Horde_Mime_Viewer_Plain&#45;&gt;\\Horde_Mime_Viewer_Base</title>
<path fill="none" stroke="black" d="M356.657,-843.605C343.15,-846.605 329.36,-849.792 316.378,-853 275.741,-863.041 230.674,-875.558 194.297,-886.012"/>
<polygon fill="none" stroke="black" points="192.916,-882.767 184.278,-888.902 194.856,-889.493 192.916,-882.767"/>
</g>
<!-- \\Horde_Mime_Viewer_Html -->
<g id="node18" class="node"><title>\\Horde_Mime_Viewer_Html</title>
<polygon fill="none" stroke="black" points="525.378,-790 360.378,-790 360.378,-754 525.378,-754 525.378,-790"/>
<text text-anchor="middle" x="442.878" y="-769.2" font-family="Courier,monospace" font-size="11.00">Horde_Mime_Viewer_Html</text>
</g>
<!-- \\Horde_Mime_Viewer_Html&#45;&gt;\\Horde_Mime_Viewer_Base -->
<g id="edge17" class="edge"><title>\\Horde_Mime_Viewer_Html&#45;&gt;\\Horde_Mime_Viewer_Base</title>
<path fill="none" stroke="black" d="M360.178,-785.879C345.375,-789.432 330.245,-793.768 316.378,-799 257.801,-821.104 195.529,-858.822 157.995,-883.323"/>
<polygon fill="none" stroke="black" points="155.885,-880.522 149.459,-888.946 159.735,-886.368 155.885,-880.522"/>
</g>
<!-- \\Horde_Mime_Viewer_Ooo -->
<g id="node19" class="node"><title>\\Horde_Mime_Viewer_Ooo</title>
<polygon fill="none" stroke="black" points="521.878,-736 363.878,-736 363.878,-700 521.878,-700 521.878,-736"/>
<text text-anchor="middle" x="442.878" y="-715.2" font-family="Courier,monospace" font-size="11.00">Horde_Mime_Viewer_Ooo</text>
</g>
<!-- \\Horde_Mime_Viewer_Ooo&#45;&gt;\\Horde_Mime_Viewer_Base -->
<g id="edge18" class="edge"><title>\\Horde_Mime_Viewer_Ooo&#45;&gt;\\Horde_Mime_Viewer_Base</title>
<path fill="none" stroke="black" d="M363.578,-728.708C347.478,-732.586 330.993,-737.852 316.378,-745 246.008,-779.416 179.612,-844.884 146.025,-881.17"/>
<polygon fill="none" stroke="black" points="143.145,-879.133 138.98,-888.875 148.311,-883.857 143.145,-879.133"/>
</g>
<!-- \\Horde_Mime_Viewer_Simple -->
<g id="node20" class="node"><title>\\Horde_Mime_Viewer_Simple</title>
<polygon fill="none" stroke="black" points="532.378,-682 353.378,-682 353.378,-646 532.378,-646 532.378,-682"/>
<text text-anchor="middle" x="442.878" y="-661.2" font-family="Courier,monospace" font-size="11.00">Horde_Mime_Viewer_Simple</text>
</g>
<!-- \\Horde_Mime_Viewer_Simple&#45;&gt;\\Horde_Mime_Viewer_Base -->
<g id="edge19" class="edge"><title>\\Horde_Mime_Viewer_Simple&#45;&gt;\\Horde_Mime_Viewer_Base</title>
<path fill="none" stroke="black" d="M353.171,-675.716C340.324,-679.481 327.65,-684.448 316.378,-691 234.209,-738.758 168.113,-833.65 139.111,-880.108"/>
<polygon fill="none" stroke="black" points="136.068,-878.374 133.811,-888.726 142.031,-882.041 136.068,-878.374"/>
</g>
<!-- \\Horde_Mime_Viewer_Rfc822 -->
<g id="node21" class="node"><title>\\Horde_Mime_Viewer_Rfc822</title>
<polygon fill="none" stroke="black" points="532.378,-628 353.378,-628 353.378,-592 532.378,-592 532.378,-628"/>
<text text-anchor="middle" x="442.878" y="-607.2" font-family="Courier,monospace" font-size="11.00">Horde_Mime_Viewer_Rfc822</text>
</g>
<!-- \\Horde_Mime_Viewer_Rfc822&#45;&gt;\\Horde_Mime_Viewer_Base -->
<g id="edge20" class="edge"><title>\\Horde_Mime_Viewer_Rfc822&#45;&gt;\\Horde_Mime_Viewer_Base</title>
<path fill="none" stroke="black" d="M353.16,-620.441C340.177,-624.371 327.464,-629.724 316.378,-637 222.055,-698.909 159.026,-824.003 134.582,-879.458"/>
<polygon fill="none" stroke="black" points="131.357,-878.098 130.598,-888.665 137.781,-880.878 131.357,-878.098"/>
</g>
<!-- \\Horde_Mime_Viewer_Report -->
<g id="node22" class="node"><title>\\Horde_Mime_Viewer_Report</title>
<polygon fill="none" stroke="black" points="532.378,-574 353.378,-574 353.378,-538 532.378,-538 532.378,-574"/>
<text text-anchor="middle" x="442.878" y="-553.2" font-family="Courier,monospace" font-size="11.00">Horde_Mime_Viewer_Report</text>
</g>
<!-- \\Horde_Mime_Viewer_Report&#45;&gt;\\Horde_Mime_Viewer_Base -->
<g id="edge21" class="edge"><title>\\Horde_Mime_Viewer_Report&#45;&gt;\\Horde_Mime_Viewer_Base</title>
<path fill="none" stroke="black" d="M353.258,-565.434C340.118,-569.484 327.332,-575.138 316.378,-583 209.532,-659.686 151.435,-815.438 131.354,-879.019"/>
<polygon fill="none" stroke="black" points="127.955,-878.163 128.352,-888.751 134.644,-880.227 127.955,-878.163"/>
</g>
<!-- \\Horde_Mime_Viewer_Smil -->
<g id="node23" class="node"><title>\\Horde_Mime_Viewer_Smil</title>
<polygon fill="none" stroke="black" points="525.378,-520 360.378,-520 360.378,-484 525.378,-484 525.378,-520"/>
<text text-anchor="middle" x="442.878" y="-499.2" font-family="Courier,monospace" font-size="11.00">Horde_Mime_Viewer_Smil</text>
</g>
<!-- \\Horde_Mime_Viewer_Smil&#45;&gt;\\Horde_Mime_Viewer_Base -->
<g id="edge22" class="edge"><title>\\Horde_Mime_Viewer_Smil&#45;&gt;\\Horde_Mime_Viewer_Base</title>
<path fill="none" stroke="black" d="M360.296,-508.643C344.597,-512.811 329.103,-519.224 316.378,-529 196.586,-621.037 144.772,-808.027 128.877,-878.907"/>
<polygon fill="none" stroke="black" points="125.414,-878.361 126.709,-888.877 132.254,-879.849 125.414,-878.361"/>
</g>
<!-- \\Horde_Mime_Viewer_Rar -->
<g id="node24" class="node"><title>\\Horde_Mime_Viewer_Rar</title>
<polygon fill="none" stroke="black" points="521.878,-466 363.878,-466 363.878,-430 521.878,-430 521.878,-466"/>
<text text-anchor="middle" x="442.878" y="-445.2" font-family="Courier,monospace" font-size="11.00">Horde_Mime_Viewer_Rar</text>
</g>
<!-- \\Horde_Mime_Viewer_Rar&#45;&gt;\\Horde_Mime_Viewer_Base -->
<g id="edge23" class="edge"><title>\\Horde_Mime_Viewer_Rar&#45;&gt;\\Horde_Mime_Viewer_Base</title>
<path fill="none" stroke="black" d="M363.818,-453.133C346.81,-457.272 329.883,-464.055 316.378,-475 183.486,-582.706 138.969,-800.971 126.98,-878.713"/>
<polygon fill="none" stroke="black" points="123.5,-878.32 125.498,-888.724 130.424,-879.345 123.5,-878.32"/>
</g>
<!-- \\Horde_Mime_Viewer_Msword -->
<g id="node25" class="node"><title>\\Horde_Mime_Viewer_Msword</title>
<polygon fill="none" stroke="black" points="532.378,-412 353.378,-412 353.378,-376 532.378,-376 532.378,-412"/>
<text text-anchor="middle" x="442.878" y="-391.2" font-family="Courier,monospace" font-size="11.00">Horde_Mime_Viewer_Msword</text>
</g>
<!-- \\Horde_Mime_Viewer_Msword&#45;&gt;\\Horde_Mime_Viewer_Base -->
<g id="edge24" class="edge"><title>\\Horde_Mime_Viewer_Msword&#45;&gt;\\Horde_Mime_Viewer_Base</title>
<path fill="none" stroke="black" d="M353.071,-401.64C339.728,-405.89 326.927,-412.075 316.378,-421 170.283,-544.599 133.8,-794.095 125.469,-878.413"/>
<polygon fill="none" stroke="black" points="121.97,-878.243 124.529,-888.525 128.94,-878.892 121.97,-878.243"/>
</g>
<!-- \\Horde_Mime_Viewer_Pdf -->
<g id="node26" class="node"><title>\\Horde_Mime_Viewer_Pdf</title>
<polygon fill="none" stroke="black" points="521.878,-358 363.878,-358 363.878,-322 521.878,-322 521.878,-358"/>
<text text-anchor="middle" x="442.878" y="-337.2" font-family="Courier,monospace" font-size="11.00">Horde_Mime_Viewer_Pdf</text>
</g>
<!-- \\Horde_Mime_Viewer_Pdf&#45;&gt;\\Horde_Mime_Viewer_Base -->
<g id="edge25" class="edge"><title>\\Horde_Mime_Viewer_Pdf&#45;&gt;\\Horde_Mime_Viewer_Base</title>
<path fill="none" stroke="black" d="M363.846,-344.232C346.64,-348.383 329.62,-355.396 316.378,-367 156.61,-507.005 128.963,-788.712 124.185,-878.689"/>
<polygon fill="none" stroke="black" points="120.678,-878.768 123.699,-888.923 127.67,-879.1 120.678,-878.768"/>
</g>
<!-- \\Horde_Mime_Viewer_Enriched -->
<g id="node27" class="node"><title>\\Horde_Mime_Viewer_Enriched</title>
<polygon fill="none" stroke="black" points="538.878,-304 346.878,-304 346.878,-268 538.878,-268 538.878,-304"/>
<text text-anchor="middle" x="442.878" y="-283.2" font-family="Courier,monospace" font-size="11.00">Horde_Mime_Viewer_Enriched</text>
</g>
<!-- \\Horde_Mime_Viewer_Enriched&#45;&gt;\\Horde_Mime_Viewer_Base -->
<g id="edge26" class="edge"><title>\\Horde_Mime_Viewer_Enriched&#45;&gt;\\Horde_Mime_Viewer_Base</title>
<path fill="none" stroke="black" d="M346.831,-295.08C335.665,-299.293 325.148,-305.087 316.378,-313 142.925,-469.522 124.594,-783.303 123.139,-878.788"/>
<polygon fill="none" stroke="black" points="119.639,-878.799 123.038,-888.834 126.638,-878.87 119.639,-878.799"/>
</g>
<!-- \\Horde_Mime_Viewer_Translation -->
<g id="node29" class="node"><title>\\Horde_Mime_Viewer_Translation</title>
<polygon fill="none" stroke="black" points="548.878,-142 336.878,-142 336.878,-106 548.878,-106 548.878,-142"/>
<text text-anchor="middle" x="442.878" y="-121.2" font-family="Courier,monospace" font-size="11.00">Horde_Mime_Viewer_Translation</text>
</g>
<!-- \\Horde_Translation_Autodetect -->
<g id="node32" class="node"><title>\\Horde_Translation_Autodetect</title>
<ellipse fill="none" stroke="black" cx="122.189" cy="-18" rx="122.379" ry="18"/>
<text text-anchor="middle" x="122.189" y="-14.3" font-family="Times,serif" font-size="14.00" fill="gray">\Horde_Translation_Autodetect</text>
</g>
<!-- \\Horde_Mime_Viewer_Translation&#45;&gt;\\Horde_Translation_Autodetect -->
<g id="edge27" class="edge"><title>\\Horde_Mime_Viewer_Translation&#45;&gt;\\Horde_Translation_Autodetect</title>
<path fill="none" stroke="black" d="M402.091,-105.875C362.683,-88.4535 300.3,-62.2899 244.378,-45 232.152,-41.22 219.079,-37.7411 206.21,-34.627"/>
<polygon fill="none" stroke="black" points="206.962,-31.2084 196.426,-32.3178 205.354,-38.0213 206.962,-31.2084"/>
</g>
<!-- \\Horde_Mime_Viewer_Msexcel -->
<g id="node30" class="node"><title>\\Horde_Mime_Viewer_Msexcel</title>
<polygon fill="none" stroke="black" points="535.378,-250 350.378,-250 350.378,-214 535.378,-214 535.378,-250"/>
<text text-anchor="middle" x="442.878" y="-229.2" font-family="Courier,monospace" font-size="11.00">Horde_Mime_Viewer_Msexcel</text>
</g>
<!-- \\Horde_Mime_Viewer_Msexcel&#45;&gt;\\Horde_Mime_Viewer_Base -->
<g id="edge28" class="edge"><title>\\Horde_Mime_Viewer_Msexcel&#45;&gt;\\Horde_Mime_Viewer_Base</title>
<path fill="none" stroke="black" d="M350.133,-239.606C337.699,-243.93 325.949,-250.147 316.378,-259 221.207,-347.038 146.45,-765.538 127.727,-878.722"/>
<polygon fill="none" stroke="black" points="124.255,-878.267 126.091,-888.701 131.163,-879.399 124.255,-878.267"/>
</g>
</g>
</svg>
