<?xml version="1.0" encoding="UTF-8" standalone="no"?>
<!DOCTYPE svg PUBLIC "-//W3C//DTD SVG 1.1//EN"
 "http://www.w3.org/Graphics/SVG/1.1/DTD/svg11.dtd">
<!-- Generated by graphviz version 2.38.0 (20140413.2041)
 -->
<!-- Title: G Pages: 1 -->
<svg width="688pt" height="1158pt"
 viewBox="0.00 0.00 688.36 1158.00" xmlns="http://www.w3.org/2000/svg" xmlns:xlink="http://www.w3.org/1999/xlink">
<g id="graph0" class="graph" transform="scale(1 1) rotate(0) translate(4 1154)">
<title>G</title>
<polygon fill="white" stroke="none" points="-4,4 -4,-1154 684.364,-1154 684.364,4 -4,4"/>
<g id="clust1" class="cluster"><title>cluster_Global</title>
<path fill="none" stroke="gray" d="M121.682,-530C121.682,-530 660.364,-530 660.364,-530 666.364,-530 672.364,-536 672.364,-542 672.364,-542 672.364,-1130 672.364,-1130 672.364,-1136 666.364,-1142 660.364,-1142 660.364,-1142 121.682,-1142 121.682,-1142 115.682,-1142 109.682,-1136 109.682,-1130 109.682,-1130 109.682,-542 109.682,-542 109.682,-536 115.682,-530 121.682,-530"/>
<text text-anchor="middle" x="391.023" y="-1129.2" font-family="Times,serif" font-size="11.00" fill="gray">Global</text>
</g>
<!-- \\Horde_Dav_Principals -->
<g id="node1" class="node"><title>\\Horde_Dav_Principals</title>
<polygon fill="none" stroke="black" points="644.364,-1060 492.364,-1060 492.364,-1024 644.364,-1024 644.364,-1060"/>
<text text-anchor="middle" x="568.364" y="-1039.2" font-family="Courier,monospace" font-size="11.00">Horde_Dav_Principals</text>
</g>
<!-- \\Sabre\\DAVACL\\PrincipalBackend\\AbstractBackend -->
<g id="node13" class="node"><title>\\Sabre\\DAVACL\\PrincipalBackend\\AbstractBackend</title>
<ellipse fill="none" stroke="black" cx="200.182" cy="-504" rx="200.365" ry="18"/>
<text text-anchor="middle" x="200.182" y="-500.3" font-family="Times,serif" font-size="14.00" fill="gray">\Sabre\DAVACL\PrincipalBackend\AbstractBackend</text>
</g>
<!-- \\Horde_Dav_Principals&#45;&gt;\\Sabre\\DAVACL\\PrincipalBackend\\AbstractBackend -->
<g id="edge1" class="edge"><title>\\Horde_Dav_Principals&#45;&gt;\\Sabre\\DAVACL\\PrincipalBackend\\AbstractBackend</title>
<path fill="none" stroke="black" d="M492.34,-1029.98C484.804,-1026.2 477.905,-1021.32 472.364,-1015 327.507,-849.851 558.484,-678.499 400.364,-526 397.125,-522.875 393.704,-520.01 390.128,-517.387"/>
<polygon fill="none" stroke="black" points="391.789,-514.289 381.517,-511.694 387.929,-520.129 391.789,-514.289"/>
</g>
<!-- \\Horde_Dav_Locks -->
<g id="node2" class="node"><title>\\Horde_Dav_Locks</title>
<polygon fill="none" stroke="black" points="627.364,-1006 509.364,-1006 509.364,-970 627.364,-970 627.364,-1006"/>
<text text-anchor="middle" x="568.364" y="-985.2" font-family="Courier,monospace" font-size="11.00">Horde_Dav_Locks</text>
</g>
<!-- \\Sabre\\DAV\\Locks\\Backend\\AbstractBackend -->
<g id="node14" class="node"><title>\\Sabre\\DAV\\Locks\\Backend\\AbstractBackend</title>
<ellipse fill="none" stroke="black" cx="200.182" cy="-450" rx="174.669" ry="18"/>
<text text-anchor="middle" x="200.182" y="-446.3" font-family="Times,serif" font-size="14.00" fill="gray">\Sabre\DAV\Locks\Backend\AbstractBackend</text>
</g>
<!-- \\Horde_Dav_Locks&#45;&gt;\\Sabre\\DAV\\Locks\\Backend\\AbstractBackend -->
<g id="edge2" class="edge"><title>\\Horde_Dav_Locks&#45;&gt;\\Sabre\\DAV\\Locks\\Backend\\AbstractBackend</title>
<path fill="none" stroke="black" d="M509.21,-982.467C495.366,-978.447 481.87,-971.821 472.364,-961 328.835,-797.611 555.137,-629.782 400.364,-477 393.36,-470.086 385.482,-464.368 377.007,-459.665"/>
<polygon fill="none" stroke="black" points="378.478,-456.487 367.971,-455.126 375.335,-462.742 378.478,-456.487"/>
</g>
<!-- \\Horde_Dav_Calendar_Backend -->
<g id="node3" class="node"><title>\\Horde_Dav_Calendar_Backend</title>
<polygon fill="none" stroke="black" points="664.364,-952 472.364,-952 472.364,-916 664.364,-916 664.364,-952"/>
<text text-anchor="middle" x="568.364" y="-931.2" font-family="Courier,monospace" font-size="11.00">Horde_Dav_Calendar_Backend</text>
</g>
<!-- \\Sabre\\CalDAV\\Backend\\AbstractBackend -->
<g id="node15" class="node"><title>\\Sabre\\CalDAV\\Backend\\AbstractBackend</title>
<ellipse fill="none" stroke="black" cx="200.182" cy="-396" rx="163.271" ry="18"/>
<text text-anchor="middle" x="200.182" y="-392.3" font-family="Times,serif" font-size="14.00" fill="gray">\Sabre\CalDAV\Backend\AbstractBackend</text>
</g>
<!-- \\Horde_Dav_Calendar_Backend&#45;&gt;\\Sabre\\CalDAV\\Backend\\AbstractBackend -->
<g id="edge3" class="edge"><title>\\Horde_Dav_Calendar_Backend&#45;&gt;\\Sabre\\CalDAV\\Backend\\AbstractBackend</title>
<path fill="none" stroke="black" d="M482.23,-915.889C478.631,-913.297 475.307,-910.349 472.364,-907 328.835,-743.611 555.137,-575.782 400.364,-423 391.731,-414.477 381.768,-407.771 370.997,-402.546"/>
<polygon fill="none" stroke="black" points="372.335,-399.311 361.771,-398.497 369.522,-405.721 372.335,-399.311"/>
</g>
<!-- \\Horde_Dav_Exception -->
<g id="node4" class="node"><title>\\Horde_Dav_Exception</title>
<polygon fill="none" stroke="black" points="640.864,-898 495.864,-898 495.864,-862 640.864,-862 640.864,-898"/>
<text text-anchor="middle" x="568.364" y="-877.2" font-family="Courier,monospace" font-size="11.00">Horde_Dav_Exception</text>
</g>
<!-- \\Horde_Exception_Wrapped -->
<g id="node16" class="node"><title>\\Horde_Exception_Wrapped</title>
<ellipse fill="none" stroke="black" cx="200.182" cy="-342" rx="112.38" ry="18"/>
<text text-anchor="middle" x="200.182" y="-338.3" font-family="Times,serif" font-size="14.00" fill="gray">\Horde_Exception_Wrapped</text>
</g>
<!-- \\Horde_Dav_Exception&#45;&gt;\\Horde_Exception_Wrapped -->
<g id="edge4" class="edge"><title>\\Horde_Dav_Exception&#45;&gt;\\Horde_Exception_Wrapped</title>
<path fill="none" stroke="black" d="M495.617,-869.52C486.812,-865.564 478.701,-860.214 472.364,-853 328.835,-689.611 555.137,-521.782 400.364,-369 375.218,-344.177 338.803,-334.766 303.968,-332.46"/>
<polygon fill="none" stroke="black" points="303.865,-328.951 293.711,-331.976 303.535,-335.943 303.865,-328.951"/>
</g>
<!-- \\Horde_Dav_Collection -->
<g id="node5" class="node"><title>\\Horde_Dav_Collection</title>
<polygon fill="none" stroke="black" points="644.364,-790 492.364,-790 492.364,-754 644.364,-754 644.364,-790"/>
<text text-anchor="middle" x="568.364" y="-769.2" font-family="Courier,monospace" font-size="11.00">Horde_Dav_Collection</text>
</g>
<!-- \\Sabre\\DAV\\Collection -->
<g id="node17" class="node"><title>\\Sabre\\DAV\\Collection</title>
<ellipse fill="none" stroke="black" cx="200.182" cy="-288" rx="93.6835" ry="18"/>
<text text-anchor="middle" x="200.182" y="-284.3" font-family="Times,serif" font-size="14.00" fill="gray">\Sabre\DAV\Collection</text>
</g>
<!-- \\Horde_Dav_Collection&#45;&gt;\\Sabre\\DAV\\Collection -->
<g id="edge5" class="edge"><title>\\Horde_Dav_Collection&#45;&gt;\\Sabre\\DAV\\Collection</title>
<path fill="none" stroke="black" d="M492,-759.639C484.622,-755.916 477.852,-751.134 472.364,-745 343.159,-600.593 539.5,-449.865 400.364,-315 371.382,-286.908 327.929,-278.688 288.998,-278.119"/>
<polygon fill="none" stroke="black" points="288.675,-274.62 278.683,-278.141 288.69,-281.62 288.675,-274.62"/>
</g>
<!-- \\Sabre\\DAV\\IProperties -->
<g id="node18" class="node"><title>\\Sabre\\DAV\\IProperties</title>
<ellipse fill="none" stroke="black" cx="200.182" cy="-234" rx="95.5831" ry="18"/>
<text text-anchor="middle" x="200.182" y="-230.3" font-family="Times,serif" font-size="14.00" fill="gray">\Sabre\DAV\IProperties</text>
</g>
<!-- \\Horde_Dav_Collection&#45;&gt;\\Sabre\\DAV\\IProperties -->
<g id="edge6" class="edge"><title>\\Horde_Dav_Collection&#45;&gt;\\Sabre\\DAV\\IProperties</title>
<path fill="none" stroke="black" stroke-dasharray="1,5" d="M492.35,-759.97C484.812,-756.197 477.909,-751.312 472.364,-745 328.835,-581.611 555.137,-413.782 400.364,-261 371.754,-232.757 328.556,-224.466 289.694,-223.889"/>
<polygon fill="none" stroke="black" points="289.386,-220.389 279.393,-223.91 289.4,-227.389 289.386,-220.389"/>
</g>
<!-- \\Horde_Dav_RootCollection -->
<g id="node6" class="node"><title>\\Horde_Dav_RootCollection</title>
<polygon fill="none" stroke="black" points="657.864,-844 478.864,-844 478.864,-808 657.864,-808 657.864,-844"/>
<text text-anchor="middle" x="568.364" y="-823.2" font-family="Courier,monospace" font-size="11.00">Horde_Dav_RootCollection</text>
</g>
<!-- \\Horde_Dav_RootCollection&#45;&gt;\\Sabre\\DAV\\Collection -->
<g id="edge7" class="edge"><title>\\Horde_Dav_RootCollection&#45;&gt;\\Sabre\\DAV\\Collection</title>
<path fill="none" stroke="black" d="M482.23,-807.889C478.631,-805.297 475.307,-802.349 472.364,-799 328.835,-635.611 555.137,-467.782 400.364,-315 371.35,-286.359 327.334,-278.236 288.052,-277.869"/>
<polygon fill="none" stroke="black" points="287.889,-274.37 277.914,-277.941 287.939,-281.37 287.889,-274.37"/>
</g>
<!-- \\Horde_Dav_Contacts_Backend -->
<g id="node7" class="node"><title>\\Horde_Dav_Contacts_Backend</title>
<polygon fill="none" stroke="black" points="664.364,-682 472.364,-682 472.364,-646 664.364,-646 664.364,-682"/>
<text text-anchor="middle" x="568.364" y="-661.2" font-family="Courier,monospace" font-size="11.00">Horde_Dav_Contacts_Backend</text>
</g>
<!-- \\Sabre\\CardDAV\\Backend\\AbstractBackend -->
<g id="node19" class="node"><title>\\Sabre\\CardDAV\\Backend\\AbstractBackend</title>
<ellipse fill="none" stroke="black" cx="200.182" cy="-126" rx="167.87" ry="18"/>
<text text-anchor="middle" x="200.182" y="-122.3" font-family="Times,serif" font-size="14.00" fill="gray">\Sabre\CardDAV\Backend\AbstractBackend</text>
</g>
<!-- \\Horde_Dav_Contacts_Backend&#45;&gt;\\Sabre\\CardDAV\\Backend\\AbstractBackend -->
<g id="edge8" class="edge"><title>\\Horde_Dav_Contacts_Backend&#45;&gt;\\Sabre\\CardDAV\\Backend\\AbstractBackend</title>
<path fill="none" stroke="black" d="M482.23,-645.889C478.631,-643.297 475.307,-640.349 472.364,-637 328.835,-473.611 555.137,-305.782 400.364,-153 392.474,-145.211 383.473,-138.939 373.76,-133.928"/>
<polygon fill="none" stroke="black" points="375.193,-130.734 364.651,-129.673 372.23,-137.077 375.193,-130.734"/>
</g>
<!-- \\Horde_Dav_Auth -->
<g id="node8" class="node"><title>\\Horde_Dav_Auth</title>
<polygon fill="none" stroke="black" points="623.864,-628 512.864,-628 512.864,-592 623.864,-592 623.864,-628"/>
<text text-anchor="middle" x="568.364" y="-607.2" font-family="Courier,monospace" font-size="11.00">Horde_Dav_Auth</text>
</g>
<!-- \\Sabre\\DAV\\Auth\\Backend\\AbstractBasic -->
<g id="node20" class="node"><title>\\Sabre\\DAV\\Auth\\Backend\\AbstractBasic</title>
<ellipse fill="none" stroke="black" cx="200.182" cy="-72" rx="159.472" ry="18"/>
<text text-anchor="middle" x="200.182" y="-68.3" font-family="Times,serif" font-size="14.00" fill="gray">\Sabre\DAV\Auth\Backend\AbstractBasic</text>
</g>
<!-- \\Horde_Dav_Auth&#45;&gt;\\Sabre\\DAV\\Auth\\Backend\\AbstractBasic -->
<g id="edge9" class="edge"><title>\\Horde_Dav_Auth&#45;&gt;\\Sabre\\DAV\\Auth\\Backend\\AbstractBasic</title>
<path fill="none" stroke="black" d="M512.676,-605.419C497.643,-601.523 482.662,-594.722 472.364,-583 328.835,-419.611 555.137,-251.782 400.364,-99 391.154,-89.9083 380.432,-82.8841 368.83,-77.5192"/>
<polygon fill="none" stroke="black" points="369.926,-74.1839 359.349,-73.5646 367.231,-80.6444 369.926,-74.1839"/>
</g>
<!-- \\Horde_Dav_File -->
<g id="node9" class="node"><title>\\Horde_Dav_File</title>
<polygon fill="none" stroke="black" points="623.864,-736 512.864,-736 512.864,-700 623.864,-700 623.864,-736"/>
<text text-anchor="middle" x="568.364" y="-715.2" font-family="Courier,monospace" font-size="11.00">Horde_Dav_File</text>
</g>
<!-- \\Horde_Dav_File&#45;&gt;\\Sabre\\DAV\\IProperties -->
<g id="edge11" class="edge"><title>\\Horde_Dav_File&#45;&gt;\\Sabre\\DAV\\IProperties</title>
<path fill="none" stroke="black" stroke-dasharray="1,5" d="M512.809,-713.301C497.78,-709.401 482.768,-702.628 472.364,-691 343.159,-546.593 539.5,-395.865 400.364,-261 371.727,-233.242 328.962,-224.887 290.39,-224.143"/>
<polygon fill="none" stroke="black" points="290.172,-220.643 280.163,-224.117 290.154,-227.642 290.172,-220.643"/>
</g>
<!-- \\Sabre\\DAV\\File -->
<g id="node21" class="node"><title>\\Sabre\\DAV\\File</title>
<ellipse fill="none" stroke="black" cx="200.182" cy="-180" rx="70.6878" ry="18"/>
<text text-anchor="middle" x="200.182" y="-176.3" font-family="Times,serif" font-size="14.00" fill="gray">\Sabre\DAV\File</text>
</g>
<!-- \\Horde_Dav_File&#45;&gt;\\Sabre\\DAV\\File -->
<g id="edge10" class="edge"><title>\\Horde_Dav_File&#45;&gt;\\Sabre\\DAV\\File</title>
<path fill="none" stroke="black" d="M512.676,-713.419C497.643,-709.523 482.662,-702.722 472.364,-691 328.835,-527.611 555.137,-359.782 400.364,-207 367.142,-174.205 314.25,-168.311 271.318,-170.16"/>
<polygon fill="none" stroke="black" points="270.982,-166.673 261.2,-170.744 271.385,-173.662 270.982,-166.673"/>
</g>
<!-- \\Horde_Dav_Storage_Sql -->
<g id="node10" class="node"><title>\\Horde_Dav_Storage_Sql</title>
<polygon fill="none" stroke="black" points="647.364,-1114 489.364,-1114 489.364,-1078 647.364,-1078 647.364,-1114"/>
<text text-anchor="middle" x="568.364" y="-1093.2" font-family="Courier,monospace" font-size="11.00">Horde_Dav_Storage_Sql</text>
</g>
<!-- \\Horde_Dav_Storage_Base -->
<g id="node11" class="node"><title>\\Horde_Dav_Storage_Base</title>
<polygon fill="none" stroke="black" points="282.682,-1114 117.682,-1114 117.682,-1078 282.682,-1078 282.682,-1114"/>
<text text-anchor="start" x="166.182" y="-1099.2" font-family="Courier,monospace" font-size="11.00">«abstract»</text>
<text text-anchor="start" x="125.682" y="-1087.2" font-family="Courier,monospace" font-size="11.00">Horde_Dav_Storage_Base</text>
</g>
<!-- \\Horde_Dav_Storage_Sql&#45;&gt;\\Horde_Dav_Storage_Base -->
<g id="edge12" class="edge"><title>\\Horde_Dav_Storage_Sql&#45;&gt;\\Horde_Dav_Storage_Base</title>
<path fill="none" stroke="black" d="M489.258,-1096C431.875,-1096 353.71,-1096 293.279,-1096"/>
<polygon fill="none" stroke="black" points="292.977,-1092.5 282.977,-1096 292.977,-1099.5 292.977,-1092.5"/>
</g>
<!-- \\Horde_Dav_Translation -->
<g id="node12" class="node"><title>\\Horde_Dav_Translation</title>
<polygon fill="none" stroke="black" points="647.364,-574 489.364,-574 489.364,-538 647.364,-538 647.364,-574"/>
<text text-anchor="middle" x="568.364" y="-553.2" font-family="Courier,monospace" font-size="11.00">Horde_Dav_Translation</text>
</g>
<!-- \\Horde_Translation_Autodetect -->
<g id="node22" class="node"><title>\\Horde_Translation_Autodetect</title>
<ellipse fill="none" stroke="black" cx="200.182" cy="-18" rx="122.379" ry="18"/>
<text text-anchor="middle" x="200.182" y="-14.3" font-family="Times,serif" font-size="14.00" fill="gray">\Horde_Translation_Autodetect</text>
</g>
<!-- \\Horde_Dav_Translation&#45;&gt;\\Horde_Translation_Autodetect -->
<g id="edge13" class="edge"><title>\\Horde_Dav_Translation&#45;&gt;\\Horde_Translation_Autodetect</title>
<path fill="none" stroke="black" d="M567.735,-537.871C568.188,-463.226 559.168,-177.361 400.364,-45 379.534,-27.6382 352.997,-18.3287 326.138,-13.7829"/>
<polygon fill="none" stroke="black" points="326.642,-10.3195 316.237,-12.3175 325.617,-17.244 326.642,-10.3195"/>
</g>
</g>
</svg>
