<?xml version="1.0" encoding="UTF-8" standalone="no"?>
<!DOCTYPE svg PUBLIC "-//W3C//DTD SVG 1.1//EN"
 "http://www.w3.org/Graphics/SVG/1.1/DTD/svg11.dtd">
<!-- Generated by graphviz version 2.38.0 (20140413.2041)
 -->
<!-- Title: G Pages: 1 -->
<svg width="625pt" height="1104pt"
 viewBox="0.00 0.00 625.00 1104.00" xmlns="http://www.w3.org/2000/svg" xmlns:xlink="http://www.w3.org/1999/xlink">
<g id="graph0" class="graph" transform="scale(1 1) rotate(0) translate(4 1100)">
<title>G</title>
<polygon fill="white" stroke="none" points="-4,4 -4,-1100 621,-1100 621,4 -4,4"/>
<g id="clust1" class="cluster"><title>cluster_Global</title>
<path fill="none" stroke="gray" d="M20,-98C20,-98 597,-98 597,-98 603,-98 609,-104 609,-110 609,-110 609,-1076 609,-1076 609,-1082 603,-1088 597,-1088 597,-1088 20,-1088 20,-1088 14,-1088 8,-1082 8,-1076 8,-1076 8,-110 8,-110 8,-104 14,-98 20,-98"/>
<text text-anchor="middle" x="308.5" y="-1075.2" font-family="Times,serif" font-size="11.00" fill="gray">Global</text>
</g>
<!-- \\Horde_Service_Facebook_Streams -->
<g id="node1" class="node"><title>\\Horde_Service_Facebook_Streams</title>
<polygon fill="none" stroke="black" points="580.5,-628 361.5,-628 361.5,-592 580.5,-592 580.5,-628"/>
<text text-anchor="middle" x="471" y="-607.2" font-family="Courier,monospace" font-size="11.00">Horde_Service_Facebook_Streams</text>
</g>
<!-- \\Horde_Service_Facebook_Base -->
<g id="node18" class="node"><title>\\Horde_Service_Facebook_Base</title>
<polygon fill="none" stroke="black" points="242,-655 43,-655 43,-619 242,-619 242,-655"/>
<text text-anchor="middle" x="142.5" y="-634.2" font-family="Courier,monospace" font-size="11.00">Horde_Service_Facebook_Base</text>
</g>
<!-- \\Horde_Service_Facebook_Streams&#45;&gt;\\Horde_Service_Facebook_Base -->
<g id="edge1" class="edge"><title>\\Horde_Service_Facebook_Streams&#45;&gt;\\Horde_Service_Facebook_Base</title>
<path fill="none" stroke="black" d="M361.28,-618.991C326.246,-621.888 287.426,-625.098 252.381,-627.996"/>
<polygon fill="none" stroke="black" points="251.797,-624.532 242.12,-628.845 252.374,-631.508 251.797,-624.532"/>
</g>
<!-- \\Horde_Service_Facebook_Users -->
<g id="node2" class="node"><title>\\Horde_Service_Facebook_Users</title>
<polygon fill="none" stroke="black" points="574,-520 368,-520 368,-484 574,-484 574,-520"/>
<text text-anchor="middle" x="471" y="-499.2" font-family="Courier,monospace" font-size="11.00">Horde_Service_Facebook_Users</text>
</g>
<!-- \\Horde_Service_Facebook_Users&#45;&gt;\\Horde_Service_Facebook_Base -->
<g id="edge2" class="edge"><title>\\Horde_Service_Facebook_Users&#45;&gt;\\Horde_Service_Facebook_Base</title>
<path fill="none" stroke="black" d="M369.179,-520.086C359.546,-522.713 350.016,-525.674 341,-529 281.258,-551.036 217.558,-588.772 179.139,-613.296"/>
<polygon fill="none" stroke="black" points="176.913,-610.567 170.401,-618.924 180.703,-616.451 176.913,-610.567"/>
</g>
<!-- \\Horde_Service_Facebook_Exception -->
<g id="node3" class="node"><title>\\Horde_Service_Facebook_Exception</title>
<polygon fill="none" stroke="black" points="587.5,-250 354.5,-250 354.5,-214 587.5,-214 587.5,-250"/>
<text text-anchor="middle" x="471" y="-229.2" font-family="Courier,monospace" font-size="11.00">Horde_Service_Facebook_Exception</text>
</g>
<!-- \\Horde_Exception_Wrapped -->
<g id="node21" class="node"><title>\\Horde_Exception_Wrapped</title>
<ellipse fill="none" stroke="black" cx="142.5" cy="-72" rx="112.38" ry="18"/>
<text text-anchor="middle" x="142.5" y="-68.3" font-family="Times,serif" font-size="14.00" fill="gray">\Horde_Exception_Wrapped</text>
</g>
<!-- \\Horde_Service_Facebook_Exception&#45;&gt;\\Horde_Exception_Wrapped -->
<g id="edge3" class="edge"><title>\\Horde_Service_Facebook_Exception&#45;&gt;\\Horde_Exception_Wrapped</title>
<path fill="none" stroke="black" d="M356.605,-213.923C351.148,-211.322 345.907,-208.363 341,-205 292.496,-171.756 318.042,-126.444 269,-94 263.298,-90.228 257.144,-87.046 250.73,-84.3667"/>
<polygon fill="none" stroke="black" points="251.761,-81.0156 241.168,-80.7907 249.308,-87.572 251.761,-81.0156"/>
</g>
<!-- \\Horde_Service_Facebook_Photos -->
<g id="node4" class="node"><title>\\Horde_Service_Facebook_Photos</title>
<polygon fill="none" stroke="black" points="577,-466 365,-466 365,-430 577,-430 577,-466"/>
<text text-anchor="middle" x="471" y="-445.2" font-family="Courier,monospace" font-size="11.00">Horde_Service_Facebook_Photos</text>
</g>
<!-- \\Horde_Service_Facebook_Photos&#45;&gt;\\Horde_Service_Facebook_Base -->
<g id="edge4" class="edge"><title>\\Horde_Service_Facebook_Photos&#45;&gt;\\Horde_Service_Facebook_Base</title>
<path fill="none" stroke="black" d="M364.732,-465.554C356.539,-468.265 348.532,-471.393 341,-475 269.419,-509.282 201.399,-574.804 166.944,-611.133"/>
<polygon fill="none" stroke="black" points="163.998,-609.158 159.715,-618.849 169.106,-613.944 163.998,-609.158"/>
</g>
<!-- \\Horde_Service_Facebook_Groups -->
<g id="node5" class="node"><title>\\Horde_Service_Facebook_Groups</title>
<polygon fill="none" stroke="black" points="577,-412 365,-412 365,-376 577,-376 577,-412"/>
<text text-anchor="middle" x="471" y="-391.2" font-family="Courier,monospace" font-size="11.00">Horde_Service_Facebook_Groups</text>
</g>
<!-- \\Horde_Service_Facebook_Groups&#45;&gt;\\Horde_Service_Facebook_Base -->
<g id="edge5" class="edge"><title>\\Horde_Service_Facebook_Groups&#45;&gt;\\Horde_Service_Facebook_Base</title>
<path fill="none" stroke="black" d="M364.783,-410.143C356.492,-413.166 348.454,-416.75 341,-421 257.615,-468.546 189.749,-563.538 159.904,-610.064"/>
<polygon fill="none" stroke="black" points="156.833,-608.372 154.449,-618.695 162.75,-612.112 156.833,-608.372"/>
</g>
<!-- \\Horde_Service_Facebook_Request_Rest -->
<g id="node6" class="node"><title>\\Horde_Service_Facebook_Request_Rest</title>
<polygon fill="none" stroke="black" points="597.5,-1060 344.5,-1060 344.5,-1024 597.5,-1024 597.5,-1060"/>
<text text-anchor="middle" x="471" y="-1039.2" font-family="Courier,monospace" font-size="11.00">Horde_Service_Facebook_Request_Rest</text>
</g>
<!-- \\Horde_Service_Facebook_Request_Base -->
<g id="node8" class="node"><title>\\Horde_Service_Facebook_Request_Base</title>
<polygon fill="none" stroke="black" points="269,-1033 16,-1033 16,-997 269,-997 269,-1033"/>
<text text-anchor="start" x="108.5" y="-1018.2" font-family="Courier,monospace" font-size="11.00">«abstract»</text>
<text text-anchor="start" x="24" y="-1006.2" font-family="Courier,monospace" font-size="11.00">Horde_Service_Facebook_Request_Base</text>
</g>
<!-- \\Horde_Service_Facebook_Request_Rest&#45;&gt;\\Horde_Service_Facebook_Request_Base -->
<g id="edge6" class="edge"><title>\\Horde_Service_Facebook_Request_Rest&#45;&gt;\\Horde_Service_Facebook_Request_Base</title>
<path fill="none" stroke="black" d="M344.234,-1031.6C322.988,-1029.84 300.846,-1028.01 279.356,-1026.23"/>
<polygon fill="none" stroke="black" points="279.456,-1022.73 269.202,-1025.39 278.879,-1029.71 279.456,-1022.73"/>
</g>
<!-- \\Horde_Service_Facebook_Request_Graph -->
<g id="node7" class="node"><title>\\Horde_Service_Facebook_Request_Graph</title>
<polygon fill="none" stroke="black" points="601,-1006 341,-1006 341,-970 601,-970 601,-1006"/>
<text text-anchor="middle" x="471" y="-985.2" font-family="Courier,monospace" font-size="11.00">Horde_Service_Facebook_Request_Graph</text>
</g>
<!-- \\Horde_Service_Facebook_Request_Graph&#45;&gt;\\Horde_Service_Facebook_Request_Base -->
<g id="edge7" class="edge"><title>\\Horde_Service_Facebook_Request_Graph&#45;&gt;\\Horde_Service_Facebook_Request_Base</title>
<path fill="none" stroke="black" d="M340.959,-998.671C320.662,-1000.35 299.627,-1002.09 279.186,-1003.78"/>
<polygon fill="none" stroke="black" points="278.882,-1000.29 269.204,-1004.6 279.459,-1007.27 278.882,-1000.29"/>
</g>
<!-- \\Horde_Service_Facebook_Friends -->
<g id="node9" class="node"><title>\\Horde_Service_Facebook_Friends</title>
<polygon fill="none" stroke="black" points="580.5,-358 361.5,-358 361.5,-322 580.5,-322 580.5,-358"/>
<text text-anchor="middle" x="471" y="-337.2" font-family="Courier,monospace" font-size="11.00">Horde_Service_Facebook_Friends</text>
</g>
<!-- \\Horde_Service_Facebook_Friends&#45;&gt;\\Horde_Service_Facebook_Base -->
<g id="edge8" class="edge"><title>\\Horde_Service_Facebook_Friends&#45;&gt;\\Horde_Service_Facebook_Base</title>
<path fill="none" stroke="black" d="M361.323,-356.454C354.199,-359.422 347.346,-362.908 341,-367 245.23,-428.763 180.242,-554.468 155.113,-609.81"/>
<polygon fill="none" stroke="black" points="151.896,-608.43 151.019,-618.988 158.289,-611.281 151.896,-608.43"/>
</g>
<!-- \\Horde_Service_Facebook_Fql -->
<g id="node10" class="node"><title>\\Horde_Service_Facebook_Fql</title>
<polygon fill="none" stroke="black" points="567,-304 375,-304 375,-268 567,-268 567,-304"/>
<text text-anchor="middle" x="471" y="-283.2" font-family="Courier,monospace" font-size="11.00">Horde_Service_Facebook_Fql</text>
</g>
<!-- \\Horde_Service_Facebook_Fql&#45;&gt;\\Horde_Service_Facebook_Base -->
<g id="edge9" class="edge"><title>\\Horde_Service_Facebook_Fql&#45;&gt;\\Horde_Service_Facebook_Base</title>
<path fill="none" stroke="black" d="M374.983,-296.48C362.882,-300.453 351.186,-305.807 341,-313 232.934,-389.312 172.879,-545.277 152.01,-608.966"/>
<polygon fill="none" stroke="black" points="148.604,-608.125 148.887,-618.716 155.271,-610.26 148.604,-608.125"/>
</g>
<!-- \\Horde_Service_Facebook_ErrorCodes -->
<g id="node11" class="node"><title>\\Horde_Service_Facebook_ErrorCodes</title>
<polygon fill="none" stroke="black" points="590.5,-574 351.5,-574 351.5,-538 590.5,-538 590.5,-574"/>
<text text-anchor="middle" x="471" y="-553.2" font-family="Courier,monospace" font-size="11.00">Horde_Service_Facebook_ErrorCodes</text>
</g>
<!-- \\Horde_Service_Facebook_Notes -->
<g id="node12" class="node"><title>\\Horde_Service_Facebook_Notes</title>
<polygon fill="none" stroke="black" points="574,-952 368,-952 368,-916 574,-916 574,-952"/>
<text text-anchor="middle" x="471" y="-931.2" font-family="Courier,monospace" font-size="11.00">Horde_Service_Facebook_Notes</text>
</g>
<!-- \\Horde_Service_Facebook_Notes&#45;&gt;\\Horde_Service_Facebook_Base -->
<g id="edge10" class="edge"><title>\\Horde_Service_Facebook_Notes&#45;&gt;\\Horde_Service_Facebook_Base</title>
<path fill="none" stroke="black" d="M367.868,-920.104C358.399,-916.635 349.269,-912.332 341,-907 245.23,-845.237 180.242,-719.532 155.113,-664.19"/>
<polygon fill="none" stroke="black" points="158.289,-662.719 151.019,-655.012 151.896,-665.57 158.289,-662.719"/>
</g>
<!-- \\Horde_Service_Facebook_Notifications -->
<g id="node13" class="node"><title>\\Horde_Service_Facebook_Notifications</title>
<polygon fill="none" stroke="black" points="601,-898 341,-898 341,-862 601,-862 601,-898"/>
<text text-anchor="middle" x="471" y="-877.2" font-family="Courier,monospace" font-size="11.00">Horde_Service_Facebook_Notifications</text>
</g>
<!-- \\Horde_Service_Facebook_Notifications&#45;&gt;\\Horde_Service_Facebook_Base -->
<g id="edge11" class="edge"><title>\\Horde_Service_Facebook_Notifications&#45;&gt;\\Horde_Service_Facebook_Base</title>
<path fill="none" stroke="black" d="M359.842,-861.975C353.3,-859.374 346.963,-856.4 341,-853 257.615,-805.454 189.749,-710.462 159.904,-663.936"/>
<polygon fill="none" stroke="black" points="162.75,-661.888 154.449,-655.305 156.833,-665.628 162.75,-661.888"/>
</g>
<!-- \\Horde_Service_Facebook_Links -->
<g id="node14" class="node"><title>\\Horde_Service_Facebook_Links</title>
<polygon fill="none" stroke="black" points="574,-844 368,-844 368,-808 574,-808 574,-844"/>
<text text-anchor="middle" x="471" y="-823.2" font-family="Courier,monospace" font-size="11.00">Horde_Service_Facebook_Links</text>
</g>
<!-- \\Horde_Service_Facebook_Links&#45;&gt;\\Horde_Service_Facebook_Base -->
<g id="edge12" class="edge"><title>\\Horde_Service_Facebook_Links&#45;&gt;\\Horde_Service_Facebook_Base</title>
<path fill="none" stroke="black" d="M367.77,-809.43C358.521,-806.499 349.461,-803.052 341,-799 269.419,-764.718 201.399,-699.196 166.944,-662.867"/>
<polygon fill="none" stroke="black" points="169.106,-660.056 159.715,-655.151 163.998,-664.842 169.106,-660.056"/>
</g>
<!-- \\Horde_Service_Facebook_Videos -->
<g id="node15" class="node"><title>\\Horde_Service_Facebook_Videos</title>
<polygon fill="none" stroke="black" points="577,-790 365,-790 365,-754 577,-754 577,-790"/>
<text text-anchor="middle" x="471" y="-769.2" font-family="Courier,monospace" font-size="11.00">Horde_Service_Facebook_Videos</text>
</g>
<!-- \\Horde_Service_Facebook_Videos&#45;&gt;\\Horde_Service_Facebook_Base -->
<g id="edge13" class="edge"><title>\\Horde_Service_Facebook_Videos&#45;&gt;\\Horde_Service_Facebook_Base</title>
<path fill="none" stroke="black" d="M369.179,-753.914C359.546,-751.287 350.016,-748.326 341,-745 281.258,-722.964 217.558,-685.228 179.139,-660.704"/>
<polygon fill="none" stroke="black" points="180.703,-657.549 170.401,-655.076 176.913,-663.433 180.703,-657.549"/>
</g>
<!-- \\Horde_Service_Facebook_Events -->
<g id="node16" class="node"><title>\\Horde_Service_Facebook_Events</title>
<polygon fill="none" stroke="black" points="577,-736 365,-736 365,-700 577,-700 577,-736"/>
<text text-anchor="middle" x="471" y="-715.2" font-family="Courier,monospace" font-size="11.00">Horde_Service_Facebook_Events</text>
</g>
<!-- \\Horde_Service_Facebook_Events&#45;&gt;\\Horde_Service_Facebook_Base -->
<g id="edge14" class="edge"><title>\\Horde_Service_Facebook_Events&#45;&gt;\\Horde_Service_Facebook_Base</title>
<path fill="none" stroke="black" d="M380.322,-699.962C367.107,-697.092 353.679,-694.057 341,-691 299.286,-680.942 252.998,-668.362 215.725,-657.876"/>
<polygon fill="none" stroke="black" points="216.533,-654.467 205.958,-655.118 214.63,-661.204 216.533,-654.467"/>
</g>
<!-- \\Horde_Service_Facebook_Auth -->
<g id="node17" class="node"><title>\\Horde_Service_Facebook_Auth</title>
<polygon fill="none" stroke="black" points="570.5,-682 371.5,-682 371.5,-646 570.5,-646 570.5,-682"/>
<text text-anchor="middle" x="471" y="-661.2" font-family="Courier,monospace" font-size="11.00">Horde_Service_Facebook_Auth</text>
</g>
<!-- \\Horde_Service_Facebook_Auth&#45;&gt;\\Horde_Service_Facebook_Base -->
<g id="edge15" class="edge"><title>\\Horde_Service_Facebook_Auth&#45;&gt;\\Horde_Service_Facebook_Base</title>
<path fill="none" stroke="black" d="M371.153,-655.826C333.593,-652.72 290.616,-649.166 252.195,-645.989"/>
<polygon fill="none" stroke="black" points="252.265,-642.483 242.011,-645.146 251.688,-649.459 252.265,-642.483"/>
</g>
<!-- \\Horde_Service_Facebook_Translation -->
<g id="node19" class="node"><title>\\Horde_Service_Facebook_Translation</title>
<polygon fill="none" stroke="black" points="594,-196 348,-196 348,-160 594,-160 594,-196"/>
<text text-anchor="middle" x="471" y="-175.2" font-family="Courier,monospace" font-size="11.00">Horde_Service_Facebook_Translation</text>
</g>
<!-- \\Horde_Translation_Autodetect -->
<g id="node22" class="node"><title>\\Horde_Translation_Autodetect</title>
<ellipse fill="none" stroke="black" cx="142.5" cy="-18" rx="122.379" ry="18"/>
<text text-anchor="middle" x="142.5" y="-14.3" font-family="Times,serif" font-size="14.00" fill="gray">\Horde_Translation_Autodetect</text>
</g>
<!-- \\Horde_Service_Facebook_Translation&#45;&gt;\\Horde_Translation_Autodetect -->
<g id="edge16" class="edge"><title>\\Horde_Service_Facebook_Translation&#45;&gt;\\Horde_Translation_Autodetect</title>
<path fill="none" stroke="black" d="M357.007,-159.945C351.415,-157.34 346.038,-154.375 341,-151 293.684,-119.304 316.227,-76.8284 269,-45 261.96,-40.2553 254.236,-36.3248 246.188,-33.0712"/>
<polygon fill="none" stroke="black" points="247.206,-29.7167 236.612,-29.5546 244.793,-36.2875 247.206,-29.7167"/>
</g>
<!-- \\Horde_Service_Facebook -->
<g id="node20" class="node"><title>\\Horde_Service_Facebook</title>
<polygon fill="none" stroke="black" points="553.5,-142 388.5,-142 388.5,-106 553.5,-106 553.5,-142"/>
<text text-anchor="middle" x="471" y="-121.2" font-family="Courier,monospace" font-size="11.00">Horde_Service_Facebook</text>
</g>
</g>
</svg>
