<?xml version="1.0" encoding="UTF-8" standalone="no"?>
<!DOCTYPE svg PUBLIC "-//W3C//DTD SVG 1.1//EN"
 "http://www.w3.org/Graphics/SVG/1.1/DTD/svg11.dtd">
<!-- Generated by graphviz version 2.38.0 (20140413.2041)
 -->
<!-- Title: G Pages: 1 -->
<svg width="717pt" height="1320pt"
 viewBox="0.00 0.00 717.08 1320.00" xmlns="http://www.w3.org/2000/svg" xmlns:xlink="http://www.w3.org/1999/xlink">
<g id="graph0" class="graph" transform="scale(1 1) rotate(0) translate(4 1316)">
<title>G</title>
<polygon fill="white" stroke="none" points="-4,4 -4,-1316 713.08,-1316 713.08,4 -4,4"/>
<g id="clust1" class="cluster"><title>cluster_Global</title>
<path fill="none" stroke="gray" d="M20,-206C20,-206 689.08,-206 689.08,-206 695.08,-206 701.08,-212 701.08,-218 701.08,-218 701.08,-1292 701.08,-1292 701.08,-1298 695.08,-1304 689.08,-1304 689.08,-1304 20,-1304 20,-1304 14,-1304 8,-1298 8,-1292 8,-1292 8,-218 8,-218 8,-212 14,-206 20,-206"/>
<text text-anchor="middle" x="354.54" y="-1291.2" font-family="Times,serif" font-size="11.00" fill="gray">Global</text>
</g>
<!-- \\Folks_Api -->
<g id="node1" class="node"><title>\\Folks_Api</title>
<polygon fill="none" stroke="black" points="632.08,-952 555.08,-952 555.08,-916 632.08,-916 632.08,-952"/>
<text text-anchor="middle" x="593.58" y="-931.2" font-family="Courier,monospace" font-size="11.00">Folks_Api</text>
</g>
<!-- \\Horde_Registry_Api -->
<g id="node28" class="node"><title>\\Horde_Registry_Api</title>
<ellipse fill="none" stroke="black" cx="307.04" cy="-180" rx="87.1846" ry="18"/>
<text text-anchor="middle" x="307.04" y="-176.3" font-family="Times,serif" font-size="14.00" fill="gray">\Horde_Registry_Api</text>
</g>
<!-- \\Folks_Api&#45;&gt;\\Horde_Registry_Api -->
<g id="edge1" class="edge"><title>\\Folks_Api&#45;&gt;\\Horde_Registry_Api</title>
<path fill="none" stroke="black" d="M554.819,-933.548C533.755,-931.177 508.859,-924.458 494.08,-907 392.325,-786.807 528.384,-318.189 422.08,-202 416.481,-195.881 409.737,-191.16 402.361,-187.546"/>
<polygon fill="none" stroke="black" points="403.296,-184.145 392.719,-183.539 400.61,-190.609 403.296,-184.145"/>
</g>
<!-- \\Folks_Friends_shared -->
<g id="node2" class="node"><title>\\Folks_Friends_shared</title>
<polygon fill="none" stroke="black" points="669.58,-1276 517.58,-1276 517.58,-1240 669.58,-1240 669.58,-1276"/>
<text text-anchor="middle" x="593.58" y="-1255.2" font-family="Courier,monospace" font-size="11.00">Folks_Friends_shared</text>
</g>
<!-- \\Folks_Friends_sql -->
<g id="node4" class="node"><title>\\Folks_Friends_sql</title>
<polygon fill="none" stroke="black" points="372.54,-1168 241.54,-1168 241.54,-1132 372.54,-1132 372.54,-1168"/>
<text text-anchor="middle" x="307.04" y="-1147.2" font-family="Courier,monospace" font-size="11.00">Folks_Friends_sql</text>
</g>
<!-- \\Folks_Friends_shared&#45;&gt;\\Folks_Friends_sql -->
<g id="edge2" class="edge"><title>\\Folks_Friends_shared&#45;&gt;\\Folks_Friends_sql</title>
<path fill="none" stroke="black" d="M517.525,-1240.64C509.448,-1237.83 501.484,-1234.63 494.08,-1231 458.158,-1213.4 458.304,-1193.96 422.08,-1177 409.699,-1171.2 395.962,-1166.59 382.432,-1162.93"/>
<polygon fill="none" stroke="black" points="383.194,-1159.52 372.64,-1160.44 381.467,-1166.3 383.194,-1159.52"/>
</g>
<!-- \\Folks_Friends_application -->
<g id="node3" class="node"><title>\\Folks_Friends_application</title>
<polygon fill="none" stroke="black" points="399.54,-1114 214.54,-1114 214.54,-1078 399.54,-1078 399.54,-1114"/>
<text text-anchor="middle" x="307.04" y="-1093.2" font-family="Courier,monospace" font-size="11.00">Folks_Friends_application</text>
</g>
<!-- \\Folks_Friends -->
<g id="node12" class="node"><title>\\Folks_Friends</title>
<polygon fill="none" stroke="black" points="120,-1195 16,-1195 16,-1159 120,-1159 120,-1195"/>
<text text-anchor="middle" x="68" y="-1174.2" font-family="Courier,monospace" font-size="11.00">Folks_Friends</text>
</g>
<!-- \\Folks_Friends_application&#45;&gt;\\Folks_Friends -->
<g id="edge3" class="edge"><title>\\Folks_Friends_application&#45;&gt;\\Folks_Friends</title>
<path fill="none" stroke="black" d="M222.091,-1114.04C211.875,-1116.77 201.647,-1119.77 192,-1123 165.76,-1131.79 137.421,-1144.03 114.566,-1154.63"/>
<polygon fill="none" stroke="black" points="113.017,-1151.49 105.451,-1158.91 115.991,-1157.83 113.017,-1151.49"/>
</g>
<!-- \\Folks_Friends_sql&#45;&gt;\\Folks_Friends -->
<g id="edge4" class="edge"><title>\\Folks_Friends_sql&#45;&gt;\\Folks_Friends</title>
<path fill="none" stroke="black" d="M241.268,-1157.38C206.733,-1161.31 164.474,-1166.13 130.454,-1170"/>
<polygon fill="none" stroke="black" points="129.718,-1166.56 120.179,-1171.17 130.511,-1173.52 129.718,-1166.56"/>
</g>
<!-- \\Folks_Friends_prefs -->
<g id="node5" class="node"><title>\\Folks_Friends_prefs</title>
<polygon fill="none" stroke="black" points="379.54,-1276 234.54,-1276 234.54,-1240 379.54,-1240 379.54,-1276"/>
<text text-anchor="middle" x="307.04" y="-1255.2" font-family="Courier,monospace" font-size="11.00">Folks_Friends_prefs</text>
</g>
<!-- \\Folks_Friends_prefs&#45;&gt;\\Folks_Friends -->
<g id="edge5" class="edge"><title>\\Folks_Friends_prefs&#45;&gt;\\Folks_Friends</title>
<path fill="none" stroke="black" d="M234.305,-1243.11C220.151,-1239.59 205.505,-1235.52 192,-1231 165.76,-1222.21 137.421,-1209.97 114.566,-1199.37"/>
<polygon fill="none" stroke="black" points="115.991,-1196.17 105.451,-1195.09 113.017,-1202.51 115.991,-1196.17"/>
</g>
<!-- \\Folks_Friends_facebook -->
<g id="node6" class="node"><title>\\Folks_Friends_facebook</title>
<polygon fill="none" stroke="black" points="389.54,-1222 224.54,-1222 224.54,-1186 389.54,-1186 389.54,-1222"/>
<text text-anchor="middle" x="307.04" y="-1201.2" font-family="Courier,monospace" font-size="11.00">Folks_Friends_facebook</text>
</g>
<!-- \\Folks_Friends_facebook&#45;&gt;\\Folks_Friends -->
<g id="edge6" class="edge"><title>\\Folks_Friends_facebook&#45;&gt;\\Folks_Friends</title>
<path fill="none" stroke="black" d="M224.464,-1194.71C193.692,-1191.2 159.228,-1187.28 130.583,-1184.01"/>
<polygon fill="none" stroke="black" points="130.643,-1180.5 120.311,-1182.84 129.851,-1187.45 130.643,-1180.5"/>
</g>
<!-- \\Folks_Activity_Form -->
<g id="node7" class="node"><title>\\Folks_Activity_Form</title>
<polygon fill="none" stroke="black" points="666.08,-898 521.08,-898 521.08,-862 666.08,-862 666.08,-898"/>
<text text-anchor="middle" x="593.58" y="-877.2" font-family="Courier,monospace" font-size="11.00">Folks_Activity_Form</text>
</g>
<!-- \\Horde_Form -->
<g id="node29" class="node"><title>\\Horde_Form</title>
<ellipse fill="none" stroke="black" cx="307.04" cy="-126" rx="59.2899" ry="18"/>
<text text-anchor="middle" x="307.04" y="-122.3" font-family="Times,serif" font-size="14.00" fill="gray">\Horde_Form</text>
</g>
<!-- \\Folks_Activity_Form&#45;&gt;\\Horde_Form -->
<g id="edge7" class="edge"><title>\\Folks_Activity_Form&#45;&gt;\\Horde_Form</title>
<path fill="none" stroke="black" d="M520.857,-871.435C510.628,-867.297 501.186,-861.388 494.08,-853 291.912,-614.374 628.4,-388.045 422.08,-153 410.467,-139.771 393.678,-132.399 376.538,-128.438"/>
<polygon fill="none" stroke="black" points="376.925,-124.948 366.442,-126.481 375.593,-131.82 376.925,-124.948"/>
</g>
<!-- \\Folks_AddFriend_Form -->
<g id="node8" class="node"><title>\\Folks_AddFriend_Form</title>
<polygon fill="none" stroke="black" points="669.58,-790 517.58,-790 517.58,-754 669.58,-754 669.58,-790"/>
<text text-anchor="middle" x="593.58" y="-769.2" font-family="Courier,monospace" font-size="11.00">Folks_AddFriend_Form</text>
</g>
<!-- \\Folks_AddFriend_Form&#45;&gt;\\Horde_Form -->
<g id="edge8" class="edge"><title>\\Folks_AddFriend_Form&#45;&gt;\\Horde_Form</title>
<path fill="none" stroke="black" d="M517.551,-761.856C508.633,-757.839 500.452,-752.382 494.08,-745 320.881,-544.367 598.769,-350.566 422.08,-153 410.345,-139.879 393.516,-132.543 376.377,-128.58"/>
<polygon fill="none" stroke="black" points="376.77,-125.091 366.286,-126.618 375.435,-131.962 376.77,-125.091"/>
</g>
<!-- \\Folks_Search_Form -->
<g id="node9" class="node"><title>\\Folks_Search_Form</title>
<polygon fill="none" stroke="black" points="659.08,-736 528.08,-736 528.08,-700 659.08,-700 659.08,-736"/>
<text text-anchor="middle" x="593.58" y="-715.2" font-family="Courier,monospace" font-size="11.00">Folks_Search_Form</text>
</g>
<!-- \\Folks_Search_Form&#45;&gt;\\Horde_Form -->
<g id="edge9" class="edge"><title>\\Folks_Search_Form&#45;&gt;\\Horde_Form</title>
<path fill="none" stroke="black" d="M527.866,-711.695C515.069,-707.564 502.888,-701.081 494.08,-691 335.344,-509.338 583.975,-331.852 422.08,-153 410.266,-139.949 393.412,-132.636 376.274,-128.673"/>
<polygon fill="none" stroke="black" points="376.671,-125.185 366.186,-126.708 375.333,-132.055 376.671,-125.185"/>
</g>
<!-- \\Folks_Login_Form -->
<g id="node10" class="node"><title>\\Folks_Login_Form</title>
<polygon fill="none" stroke="black" points="656.08,-682 531.08,-682 531.08,-646 656.08,-646 656.08,-682"/>
<text text-anchor="middle" x="593.58" y="-661.2" font-family="Courier,monospace" font-size="11.00">Folks_Login_Form</text>
</g>
<!-- \\Folks_Login_Form&#45;&gt;\\Horde_Form -->
<g id="edge10" class="edge"><title>\\Folks_Login_Form&#45;&gt;\\Horde_Form</title>
<path fill="none" stroke="black" d="M531.038,-658.538C517.134,-654.477 503.668,-647.812 494.08,-637 349.786,-474.285 569.203,-313.161 422.08,-153 410.229,-140.099 393.449,-132.822 376.397,-128.845"/>
<polygon fill="none" stroke="black" points="376.849,-125.366 366.361,-126.867 375.495,-132.234 376.849,-125.366"/>
</g>
<!-- \\Folks_Application -->
<g id="node11" class="node"><title>\\Folks_Application</title>
<polygon fill="none" stroke="black" points="659.08,-628 528.08,-628 528.08,-592 659.08,-592 659.08,-628"/>
<text text-anchor="middle" x="593.58" y="-607.2" font-family="Courier,monospace" font-size="11.00">Folks_Application</text>
</g>
<!-- \\Horde_Registry_Application -->
<g id="node30" class="node"><title>\\Horde_Registry_Application</title>
<ellipse fill="none" stroke="black" cx="307.04" cy="-72" rx="115.08" ry="18"/>
<text text-anchor="middle" x="307.04" y="-68.3" font-family="Times,serif" font-size="14.00" fill="gray">\Horde_Registry_Application</text>
</g>
<!-- \\Folks_Application&#45;&gt;\\Horde_Registry_Application -->
<g id="edge11" class="edge"><title>\\Folks_Application&#45;&gt;\\Horde_Registry_Application</title>
<path fill="none" stroke="black" d="M527.975,-603.598C515.172,-599.473 502.962,-593.016 494.08,-583 349.786,-420.285 569.203,-259.161 422.08,-99 418.024,-94.5845 413.39,-90.8278 408.366,-87.6367"/>
<polygon fill="none" stroke="black" points="410.021,-84.5526 399.575,-82.7839 406.638,-90.6809 410.021,-84.5526"/>
</g>
<!-- \\Folks_Driver_sql -->
<g id="node13" class="node"><title>\\Folks_Driver_sql</title>
<polygon fill="none" stroke="black" points="656.08,-1222 531.08,-1222 531.08,-1186 656.08,-1186 656.08,-1222"/>
<text text-anchor="middle" x="593.58" y="-1201.2" font-family="Courier,monospace" font-size="11.00">Folks_Driver_sql</text>
</g>
<!-- \\Folks_Driver -->
<g id="node15" class="node"><title>\\Folks_Driver</title>
<polygon fill="none" stroke="black" points="356.04,-1060 258.04,-1060 258.04,-1024 356.04,-1024 356.04,-1060"/>
<text text-anchor="middle" x="307.04" y="-1039.2" font-family="Courier,monospace" font-size="11.00">Folks_Driver</text>
</g>
<!-- \\Folks_Driver_sql&#45;&gt;\\Folks_Driver -->
<g id="edge12" class="edge"><title>\\Folks_Driver_sql&#45;&gt;\\Folks_Driver</title>
<path fill="none" stroke="black" d="M530.918,-1194.34C517.955,-1190.4 504.935,-1184.83 494.08,-1177 447.302,-1143.24 469.442,-1101.94 422.08,-1069 405.796,-1057.68 385.379,-1051.06 366.336,-1047.21"/>
<polygon fill="none" stroke="black" points="366.696,-1043.72 356.234,-1045.39 365.455,-1050.61 366.696,-1043.72"/>
</g>
<!-- \\Folks -->
<g id="node14" class="node"><title>\\Folks</title>
<polygon fill="none" stroke="black" points="620.58,-844 566.58,-844 566.58,-808 620.58,-808 620.58,-844"/>
<text text-anchor="middle" x="593.58" y="-823.2" font-family="Courier,monospace" font-size="11.00">Folks</text>
</g>
<!-- \\Folks_Notification_mail -->
<g id="node16" class="node"><title>\\Folks_Notification_mail</title>
<polygon fill="none" stroke="black" points="679.58,-1168 507.58,-1168 507.58,-1132 679.58,-1132 679.58,-1168"/>
<text text-anchor="middle" x="593.58" y="-1147.2" font-family="Courier,monospace" font-size="11.00">Folks_Notification_mail</text>
</g>
<!-- \\Folks_Notification -->
<g id="node20" class="node"><title>\\Folks_Notification</title>
<polygon fill="none" stroke="black" points="376.04,-1006 238.04,-1006 238.04,-970 376.04,-970 376.04,-1006"/>
<text text-anchor="middle" x="307.04" y="-985.2" font-family="Courier,monospace" font-size="11.00">Folks_Notification</text>
</g>
<!-- \\Folks_Notification_mail&#45;&gt;\\Folks_Notification -->
<g id="edge13" class="edge"><title>\\Folks_Notification_mail&#45;&gt;\\Folks_Notification</title>
<path fill="none" stroke="black" d="M508.88,-1131.79C503.67,-1129.23 498.681,-1126.32 494.08,-1123 447.302,-1089.24 469.442,-1047.94 422.08,-1015 411.298,-1007.5 398.703,-1002.07 385.895,-998.136"/>
<polygon fill="none" stroke="black" points="386.658,-994.715 376.086,-995.411 384.784,-1001.46 386.658,-994.715"/>
</g>
<!-- \\Folks_Notification_tickets -->
<g id="node17" class="node"><title>\\Folks_Notification_tickets</title>
<polygon fill="none" stroke="black" points="689.58,-1114 497.58,-1114 497.58,-1078 689.58,-1078 689.58,-1114"/>
<text text-anchor="middle" x="593.58" y="-1093.2" font-family="Courier,monospace" font-size="11.00">Folks_Notification_tickets</text>
</g>
<!-- \\Folks_Notification_tickets&#45;&gt;\\Folks_Notification -->
<g id="edge14" class="edge"><title>\\Folks_Notification_tickets&#45;&gt;\\Folks_Notification</title>
<path fill="none" stroke="black" d="M515.703,-1078C508.253,-1075.34 500.927,-1072.35 494.08,-1069 458.158,-1051.4 458.304,-1031.96 422.08,-1015 410.812,-1009.72 398.42,-1005.43 386.084,-1001.94"/>
<polygon fill="none" stroke="black" points="386.789,-998.509 376.226,-999.321 384.99,-1005.27 386.789,-998.509"/>
</g>
<!-- \\Folks_Notification_letter -->
<g id="node18" class="node"><title>\\Folks_Notification_letter</title>
<polygon fill="none" stroke="black" points="686.08,-1060 501.08,-1060 501.08,-1024 686.08,-1024 686.08,-1060"/>
<text text-anchor="middle" x="593.58" y="-1039.2" font-family="Courier,monospace" font-size="11.00">Folks_Notification_letter</text>
</g>
<!-- \\Folks_Notification_letter&#45;&gt;\\Folks_Notification -->
<g id="edge15" class="edge"><title>\\Folks_Notification_letter&#45;&gt;\\Folks_Notification</title>
<path fill="none" stroke="black" d="M500.983,-1024.62C464.007,-1017.6 421.777,-1009.59 386.272,-1002.85"/>
<polygon fill="none" stroke="black" points="386.923,-999.408 376.446,-1000.98 385.618,-1006.29 386.923,-999.408"/>
</g>
<!-- \\Folks_Notification_facebook -->
<g id="node19" class="node"><title>\\Folks_Notification_facebook</title>
<polygon fill="none" stroke="black" points="693.08,-1006 494.08,-1006 494.08,-970 693.08,-970 693.08,-1006"/>
<text text-anchor="middle" x="593.58" y="-985.2" font-family="Courier,monospace" font-size="11.00">Folks_Notification_facebook</text>
</g>
<!-- \\Folks_Notification_facebook&#45;&gt;\\Folks_Notification -->
<g id="edge16" class="edge"><title>\\Folks_Notification_facebook&#45;&gt;\\Folks_Notification</title>
<path fill="none" stroke="black" d="M493.86,-988C458.658,-988 419.519,-988 386.274,-988"/>
<polygon fill="none" stroke="black" points="386.157,-984.5 376.157,-988 386.157,-991.5 386.157,-984.5"/>
</g>
<!-- \\Folks_Block_Activities -->
<g id="node21" class="node"><title>\\Folks_Block_Activities</title>
<polygon fill="none" stroke="black" points="676.08,-250 511.08,-250 511.08,-214 676.08,-214 676.08,-250"/>
<text text-anchor="middle" x="593.58" y="-229.2" font-family="Courier,monospace" font-size="11.00">Folks_Block_Activities</text>
</g>
<!-- \\Horde_Core_Block -->
<g id="node31" class="node"><title>\\Horde_Core_Block</title>
<ellipse fill="none" stroke="black" cx="307.04" cy="-18" rx="81.7856" ry="18"/>
<text text-anchor="middle" x="307.04" y="-14.3" font-family="Times,serif" font-size="14.00" fill="gray">\Horde_Core_Block</text>
</g>
<!-- \\Folks_Block_Activities&#45;&gt;\\Horde_Core_Block -->
<g id="edge17" class="edge"><title>\\Folks_Block_Activities&#45;&gt;\\Horde_Core_Block</title>
<path fill="none" stroke="black" d="M581.471,-213.776C557.427,-175.974 496.668,-88.9031 422.08,-45 411.357,-38.6887 399.25,-33.852 387.032,-30.1455"/>
<polygon fill="none" stroke="black" points="387.806,-26.7279 377.233,-27.4087 385.923,-33.4699 387.806,-26.7279"/>
</g>
<!-- \\Folks_Block_Recent -->
<g id="node22" class="node"><title>\\Folks_Block_Recent</title>
<polygon fill="none" stroke="black" points="662.58,-574 524.58,-574 524.58,-538 662.58,-538 662.58,-574"/>
<text text-anchor="middle" x="593.58" y="-553.2" font-family="Courier,monospace" font-size="11.00">Folks_Block_Recent</text>
</g>
<!-- \\Folks_Block_Recent&#45;&gt;\\Horde_Core_Block -->
<g id="edge18" class="edge"><title>\\Folks_Block_Recent&#45;&gt;\\Horde_Core_Block</title>
<path fill="none" stroke="black" d="M524.432,-548.39C512.937,-544.245 502.138,-538.088 494.08,-529 349.786,-366.285 569.203,-205.161 422.08,-45 414.65,-36.9124 405.284,-31.0349 395.128,-26.7951"/>
<polygon fill="none" stroke="black" points="396.206,-23.4631 385.612,-23.3455 393.82,-30.0441 396.206,-23.4631"/>
</g>
<!-- \\Folks_Block_Friends -->
<g id="node23" class="node"><title>\\Folks_Block_Friends</title>
<polygon fill="none" stroke="black" points="666.08,-520 521.08,-520 521.08,-484 666.08,-484 666.08,-520"/>
<text text-anchor="middle" x="593.58" y="-499.2" font-family="Courier,monospace" font-size="11.00">Folks_Block_Friends</text>
</g>
<!-- \\Folks_Block_Friends&#45;&gt;\\Horde_Core_Block -->
<g id="edge19" class="edge"><title>\\Folks_Block_Friends&#45;&gt;\\Horde_Core_Block</title>
<path fill="none" stroke="black" d="M520.812,-492.84C510.717,-488.761 501.329,-483.027 494.08,-475 364.199,-331.2 554.461,-186.502 422.08,-45 414.577,-36.9804 405.168,-31.1423 394.991,-26.9222"/>
<polygon fill="none" stroke="black" points="396.055,-23.5855 385.461,-23.4855 393.681,-30.1704 396.055,-23.5855"/>
</g>
<!-- \\Folks_Block_Know -->
<g id="node24" class="node"><title>\\Folks_Block_Know</title>
<polygon fill="none" stroke="black" points="656.08,-466 531.08,-466 531.08,-430 656.08,-430 656.08,-466"/>
<text text-anchor="middle" x="593.58" y="-445.2" font-family="Courier,monospace" font-size="11.00">Folks_Block_Know</text>
</g>
<!-- \\Folks_Block_Know&#45;&gt;\\Horde_Core_Block -->
<g id="edge20" class="edge"><title>\\Folks_Block_Know&#45;&gt;\\Horde_Core_Block</title>
<path fill="none" stroke="black" d="M530.836,-442.107C517.105,-438.04 503.77,-431.481 494.08,-421 378.571,-296.068 539.76,-167.888 422.08,-45 414.43,-37.0121 404.887,-31.1991 394.6,-26.9975"/>
<polygon fill="none" stroke="black" points="395.571,-23.6282 384.976,-23.5758 393.226,-30.2237 395.571,-23.6282"/>
</g>
<!-- \\Folks_Block_New -->
<g id="node25" class="node"><title>\\Folks_Block_New</title>
<polygon fill="none" stroke="black" points="652.58,-412 534.58,-412 534.58,-376 652.58,-376 652.58,-412"/>
<text text-anchor="middle" x="593.58" y="-391.2" font-family="Courier,monospace" font-size="11.00">Folks_Block_New</text>
</g>
<!-- \\Folks_Block_New&#45;&gt;\\Horde_Core_Block -->
<g id="edge21" class="edge"><title>\\Folks_Block_New&#45;&gt;\\Horde_Core_Block</title>
<path fill="none" stroke="black" d="M534.394,-388.832C519.511,-384.859 504.725,-378.164 494.08,-367 392.881,-260.87 525.124,-149.34 422.08,-45 414.308,-37.1308 404.695,-31.386 394.373,-27.2184"/>
<polygon fill="none" stroke="black" points="395.322,-23.8418 384.727,-23.8187 392.995,-30.4437 395.322,-23.8418"/>
</g>
<!-- \\Folks_Block_MyComments -->
<g id="node26" class="node"><title>\\Folks_Block_MyComments</title>
<polygon fill="none" stroke="black" points="676.08,-358 511.08,-358 511.08,-322 676.08,-322 676.08,-358"/>
<text text-anchor="middle" x="593.58" y="-337.2" font-family="Courier,monospace" font-size="11.00">Folks_Block_MyComments</text>
</g>
<!-- \\Folks_Block_MyComments&#45;&gt;\\Horde_Core_Block -->
<g id="edge22" class="edge"><title>\\Folks_Block_MyComments&#45;&gt;\\Horde_Core_Block</title>
<path fill="none" stroke="black" d="M510.755,-325.256C504.634,-321.937 498.957,-317.902 494.08,-313 407.091,-225.568 510.588,-130.894 422.08,-45 414.143,-37.2976 404.435,-31.6488 394.065,-27.5289"/>
<polygon fill="none" stroke="black" points="394.983,-24.1425 384.388,-24.16 392.682,-30.7533 394.983,-24.1425"/>
</g>
<!-- \\Folks_Block_Random -->
<g id="node27" class="node"><title>\\Folks_Block_Random</title>
<polygon fill="none" stroke="black" points="662.58,-304 524.58,-304 524.58,-268 662.58,-268 662.58,-304"/>
<text text-anchor="middle" x="593.58" y="-283.2" font-family="Courier,monospace" font-size="11.00">Folks_Block_Random</text>
</g>
<!-- \\Folks_Block_Random&#45;&gt;\\Horde_Core_Block -->
<g id="edge23" class="edge"><title>\\Folks_Block_Random&#45;&gt;\\Horde_Core_Block</title>
<path fill="none" stroke="black" d="M524.404,-276.738C513.255,-272.723 502.587,-267.036 494.08,-259 421.128,-190.093 496.228,-112.617 422.08,-45 413.85,-37.4952 403.925,-31.9653 393.407,-27.909"/>
<polygon fill="none" stroke="black" points="394.206,-24.4842 383.612,-24.5837 391.956,-31.1127 394.206,-24.4842"/>
</g>
</g>
</svg>
