<?xml version="1.0" encoding="UTF-8" standalone="no"?>
<!DOCTYPE svg PUBLIC "-//W3C//DTD SVG 1.1//EN"
 "http://www.w3.org/Graphics/SVG/1.1/DTD/svg11.dtd">
<!-- Generated by graphviz version 2.38.0 (20140413.2041)
 -->
<!-- Title: G Pages: 1 -->
<svg width="422pt" height="250pt"
 viewBox="0.00 0.00 421.88 250.00" xmlns="http://www.w3.org/2000/svg" xmlns:xlink="http://www.w3.org/1999/xlink">
<g id="graph0" class="graph" transform="scale(1 1) rotate(0) translate(4 246)">
<title>G</title>
<polygon fill="white" stroke="none" points="-4,4 -4,-246 417.88,-246 417.88,4 -4,4"/>
<g id="clust1" class="cluster"><title>cluster_Global</title>
<path fill="none" stroke="gray" d="M276.88,-8C276.88,-8 393.88,-8 393.88,-8 399.88,-8 405.88,-14 405.88,-20 405.88,-20 405.88,-222 405.88,-222 405.88,-228 399.88,-234 393.88,-234 393.88,-234 276.88,-234 276.88,-234 270.88,-234 264.88,-228 264.88,-222 264.88,-222 264.88,-20 264.88,-20 264.88,-14 270.88,-8 276.88,-8"/>
<text text-anchor="middle" x="335.38" y="-221.2" font-family="Times,serif" font-size="11.00" fill="gray">Global</text>
</g>
<g id="clust2" class="cluster"><title>cluster_\Horde</title>
<path fill="none" stroke="gray" d="M284.88,-16C284.88,-16 385.88,-16 385.88,-16 391.88,-16 397.88,-22 397.88,-28 397.88,-28 397.88,-194 397.88,-194 397.88,-200 391.88,-206 385.88,-206 385.88,-206 284.88,-206 284.88,-206 278.88,-206 272.88,-200 272.88,-194 272.88,-194 272.88,-28 272.88,-28 272.88,-22 278.88,-16 284.88,-16"/>
<text text-anchor="middle" x="335.38" y="-193.2" font-family="Times,serif" font-size="11.00" fill="gray">Horde</text>
</g>
<g id="clust3" class="cluster"><title>cluster_\Horde\Socket</title>
<path fill="none" stroke="gray" d="M292.88,-24C292.88,-24 377.88,-24 377.88,-24 383.88,-24 389.88,-30 389.88,-36 389.88,-36 389.88,-166 389.88,-166 389.88,-172 383.88,-178 377.88,-178 377.88,-178 292.88,-178 292.88,-178 286.88,-178 280.88,-172 280.88,-166 280.88,-166 280.88,-36 280.88,-36 280.88,-30 286.88,-24 292.88,-24"/>
<text text-anchor="middle" x="335.38" y="-165.2" font-family="Times,serif" font-size="11.00" fill="gray">Socket</text>
</g>
<g id="clust4" class="cluster"><title>cluster_\Horde\Socket\Client</title>
<path fill="none" stroke="gray" d="M300.88,-78C300.88,-78 369.88,-78 369.88,-78 375.88,-78 381.88,-84 381.88,-90 381.88,-90 381.88,-138 381.88,-138 381.88,-144 375.88,-150 369.88,-150 369.88,-150 300.88,-150 300.88,-150 294.88,-150 288.88,-144 288.88,-138 288.88,-138 288.88,-90 288.88,-90 288.88,-84 294.88,-78 300.88,-78"/>
<text text-anchor="middle" x="335.38" y="-137.2" font-family="Times,serif" font-size="11.00" fill="gray">Client</text>
</g>
<!-- \\Horde\\Socket\\Client\\Exception -->
<g id="node1" class="node"><title>\\Horde\\Socket\\Client\\Exception</title>
<polygon fill="none" stroke="black" points="373.88,-122 296.88,-122 296.88,-86 373.88,-86 373.88,-122"/>
<text text-anchor="middle" x="335.38" y="-101.2" font-family="Courier,monospace" font-size="11.00">Exception</text>
</g>
<!-- \\Horde_Exception_Wrapped -->
<g id="node3" class="node"><title>\\Horde_Exception_Wrapped</title>
<ellipse fill="none" stroke="black" cx="112.44" cy="-104" rx="112.38" ry="18"/>
<text text-anchor="middle" x="112.44" y="-100.3" font-family="Times,serif" font-size="14.00" fill="gray">\Horde_Exception_Wrapped</text>
</g>
<!-- \\Horde\\Socket\\Client\\Exception&#45;&gt;\\Horde_Exception_Wrapped -->
<g id="edge1" class="edge"><title>\\Horde\\Socket\\Client\\Exception&#45;&gt;\\Horde_Exception_Wrapped</title>
<path fill="none" stroke="black" d="M296.65,-104C279.336,-104 257.73,-104 235.491,-104"/>
<polygon fill="none" stroke="black" points="235.241,-100.5 225.241,-104 235.241,-107.5 235.241,-100.5"/>
</g>
<!-- \\Horde\\Socket\\Client -->
<g id="node2" class="node"><title>\\Horde\\Socket\\Client</title>
<polygon fill="none" stroke="black" points="363.88,-68 306.88,-68 306.88,-32 363.88,-32 363.88,-68"/>
<text text-anchor="middle" x="335.38" y="-47.2" font-family="Courier,monospace" font-size="11.00">Client</text>
</g>
</g>
</svg>
