<?xml version="1.0" encoding="UTF-8" standalone="no"?>
<!DOCTYPE svg PUBLIC "-//W3C//DTD SVG 1.1//EN"
 "http://www.w3.org/Graphics/SVG/1.1/DTD/svg11.dtd">
<!-- Generated by graphviz version 2.38.0 (20140413.2041)
 -->
<!-- Title: G Pages: 1 -->
<svg width="1003pt" height="2238pt"
 viewBox="0.00 0.00 1003.00 2238.00" xmlns="http://www.w3.org/2000/svg" xmlns:xlink="http://www.w3.org/1999/xlink">
<g id="graph0" class="graph" transform="scale(1 1) rotate(0) translate(4 2234)">
<title>G</title>
<polygon fill="white" stroke="none" points="-4,4 -4,-2234 999,-2234 999,4 -4,4"/>
<g id="clust1" class="cluster"><title>cluster_Global</title>
<path fill="none" stroke="gray" d="M20,-152C20,-152 975,-152 975,-152 981,-152 987,-158 987,-164 987,-164 987,-2210 987,-2210 987,-2216 981,-2222 975,-2222 975,-2222 20,-2222 20,-2222 14,-2222 8,-2216 8,-2210 8,-2210 8,-164 8,-164 8,-158 14,-152 20,-152"/>
<text text-anchor="middle" x="497.5" y="-2209.2" font-family="Times,serif" font-size="11.00" fill="gray">Global</text>
</g>
<!-- \\Horde_Pear_Rest -->
<g id="node1" class="node"><title>\\Horde_Pear_Rest</title>
<polygon fill="none" stroke="black" points="847.5,-2194 729.5,-2194 729.5,-2158 847.5,-2158 847.5,-2194"/>
<text text-anchor="middle" x="788.5" y="-2173.2" font-family="Courier,monospace" font-size="11.00">Horde_Pear_Rest</text>
</g>
<!-- \\Horde_Pear_Registry -->
<g id="node2" class="node"><title>\\Horde_Pear_Registry</title>
<polygon fill="none" stroke="black" points="861,-2140 716,-2140 716,-2104 861,-2104 861,-2140"/>
<text text-anchor="middle" x="788.5" y="-2119.2" font-family="Courier,monospace" font-size="11.00">Horde_Pear_Registry</text>
</g>
<!-- \\Horde_Pear_Exception -->
<g id="node3" class="node"><title>\\Horde_Pear_Exception</title>
<polygon fill="none" stroke="black" points="864.5,-520 712.5,-520 712.5,-484 864.5,-484 864.5,-520"/>
<text text-anchor="middle" x="788.5" y="-499.2" font-family="Courier,monospace" font-size="11.00">Horde_Pear_Exception</text>
</g>
<!-- \\Horde_Exception_Wrapped -->
<g id="node47" class="node"><title>\\Horde_Exception_Wrapped</title>
<ellipse fill="none" stroke="black" cx="393" cy="-126" rx="112.38" ry="18"/>
<text text-anchor="middle" x="393" y="-122.3" font-family="Times,serif" font-size="14.00" fill="gray">\Horde_Exception_Wrapped</text>
</g>
<!-- \\Horde_Pear_Exception&#45;&gt;\\Horde_Exception_Wrapped -->
<g id="edge1" class="edge"><title>\\Horde_Pear_Exception&#45;&gt;\\Horde_Exception_Wrapped</title>
<path fill="none" stroke="black" d="M712.408,-510.218C673.617,-510.232 628.213,-503.022 598,-475 488.891,-373.802 633.906,-250.479 526,-148 520.963,-143.217 515.303,-139.25 509.232,-135.976"/>
<polygon fill="none" stroke="black" points="510.608,-132.755 500.07,-131.658 507.624,-139.087 510.608,-132.755"/>
</g>
<!-- \\Horde_Pear_Package_Xml_Factory -->
<g id="node4" class="node"><title>\\Horde_Pear_Package_Xml_Factory</title>
<polygon fill="none" stroke="black" points="898,-2032 679,-2032 679,-1996 898,-1996 898,-2032"/>
<text text-anchor="middle" x="788.5" y="-2011.2" font-family="Courier,monospace" font-size="11.00">Horde_Pear_Package_Xml_Factory</text>
</g>
<!-- \\Horde_Pear_Package_Xml_Element_Directory -->
<g id="node5" class="node"><title>\\Horde_Pear_Package_Xml_Element_Directory</title>
<polygon fill="none" stroke="black" points="932,-1978 645,-1978 645,-1942 932,-1942 932,-1978"/>
<text text-anchor="middle" x="788.5" y="-1957.2" font-family="Courier,monospace" font-size="11.00">Horde_Pear_Package_Xml_Element_Directory</text>
</g>
<!-- \\Horde_Pear_Package_Xml_Element_File -->
<g id="node6" class="node"><title>\\Horde_Pear_Package_Xml_Element_File</title>
<polygon fill="none" stroke="black" points="915,-1924 662,-1924 662,-1888 915,-1888 915,-1924"/>
<text text-anchor="middle" x="788.5" y="-1903.2" font-family="Courier,monospace" font-size="11.00">Horde_Pear_Package_Xml_Element_File</text>
</g>
<!-- \\Horde_Pear_Package_Xml_Directory -->
<g id="node7" class="node"><title>\\Horde_Pear_Package_Xml_Directory</title>
<polygon fill="none" stroke="black" points="905,-1870 672,-1870 672,-1834 905,-1834 905,-1870"/>
<text text-anchor="middle" x="788.5" y="-1849.2" font-family="Courier,monospace" font-size="11.00">Horde_Pear_Package_Xml_Directory</text>
</g>
<!-- \\Horde_Pear_Package_Xml_Contents -->
<g id="node8" class="node"><title>\\Horde_Pear_Package_Xml_Contents</title>
<polygon fill="none" stroke="black" points="901.5,-1816 675.5,-1816 675.5,-1780 901.5,-1780 901.5,-1816"/>
<text text-anchor="middle" x="788.5" y="-1795.2" font-family="Courier,monospace" font-size="11.00">Horde_Pear_Package_Xml_Contents</text>
</g>
<!-- \\Horde_Pear_Package_Dependencies -->
<g id="node9" class="node"><title>\\Horde_Pear_Package_Dependencies</title>
<polygon fill="none" stroke="black" points="901.5,-1762 675.5,-1762 675.5,-1726 901.5,-1726 901.5,-1762"/>
<text text-anchor="middle" x="788.5" y="-1741.2" font-family="Courier,monospace" font-size="11.00">Horde_Pear_Package_Dependencies</text>
</g>
<!-- \\Horde_Pear_Package_Xml -->
<g id="node10" class="node"><title>\\Horde_Pear_Package_Xml</title>
<polygon fill="none" stroke="black" points="871,-1708 706,-1708 706,-1672 871,-1672 871,-1708"/>
<text text-anchor="middle" x="788.5" y="-1687.2" font-family="Courier,monospace" font-size="11.00">Horde_Pear_Package_Xml</text>
</g>
<!-- \\Horde_Pear_Package_Task_UpdateContents -->
<g id="node11" class="node"><title>\\Horde_Pear_Package_Task_UpdateContents</title>
<polygon fill="none" stroke="black" points="925,-2086 652,-2086 652,-2050 925,-2050 925,-2086"/>
<text text-anchor="middle" x="788.5" y="-2065.2" font-family="Courier,monospace" font-size="11.00">Horde_Pear_Package_Task_UpdateContents</text>
</g>
<!-- \\Horde_Pear_Package_Task -->
<g id="node40" class="node"><title>\\Horde_Pear_Package_Task</title>
<polygon fill="none" stroke="black" points="479,-2086 307,-2086 307,-2050 479,-2050 479,-2086"/>
<text text-anchor="middle" x="393" y="-2065.2" font-family="Courier,monospace" font-size="11.00">Horde_Pear_Package_Task</text>
</g>
<!-- \\Horde_Pear_Package_Task_UpdateContents&#45;&gt;\\Horde_Pear_Package_Task -->
<g id="edge2" class="edge"><title>\\Horde_Pear_Package_Task_UpdateContents&#45;&gt;\\Horde_Pear_Package_Task</title>
<path fill="none" stroke="black" stroke-dasharray="1,5" d="M651.804,-2068C598.276,-2068 538.055,-2068 489.286,-2068"/>
<polygon fill="none" stroke="black" points="489.059,-2064.5 479.059,-2068 489.059,-2071.5 489.059,-2064.5"/>
</g>
<!-- \\Horde_Pear_Package_Contents_InstallAs_Horde -->
<g id="node12" class="node"><title>\\Horde_Pear_Package_Contents_InstallAs_Horde</title>
<polygon fill="none" stroke="black" points="942,-1492 635,-1492 635,-1456 942,-1456 942,-1492"/>
<text text-anchor="middle" x="788.5" y="-1471.2" font-family="Courier,monospace" font-size="11.00">Horde_Pear_Package_Contents_InstallAs_Horde</text>
</g>
<!-- \\Horde_Pear_Package_Contents_InstallAs -->
<g id="node45" class="node"><title>\\Horde_Pear_Package_Contents_InstallAs</title>
<polygon fill="none" stroke="black" points="526,-1546 260,-1546 260,-1510 526,-1510 526,-1546"/>
<text text-anchor="middle" x="393" y="-1525.2" font-family="Courier,monospace" font-size="11.00">Horde_Pear_Package_Contents_InstallAs</text>
</g>
<!-- \\Horde_Pear_Package_Contents_InstallAs_Horde&#45;&gt;\\Horde_Pear_Package_Contents_InstallAs -->
<g id="edge3" class="edge"><title>\\Horde_Pear_Package_Contents_InstallAs_Horde&#45;&gt;\\Horde_Pear_Package_Contents_InstallAs</title>
<path fill="none" stroke="black" stroke-dasharray="1,5" d="M656.197,-1492.02C617.359,-1497.35 574.681,-1503.21 535.243,-1508.62"/>
<polygon fill="none" stroke="black" points="534.722,-1505.16 525.291,-1509.98 535.674,-1512.09 534.722,-1505.16"/>
</g>
<!-- \\Horde_Pear_Package_Contents_InstallAs_HordeApplication -->
<g id="node13" class="node"><title>\\Horde_Pear_Package_Contents_InstallAs_HordeApplication</title>
<polygon fill="none" stroke="black" points="979,-1438 598,-1438 598,-1402 979,-1402 979,-1438"/>
<text text-anchor="middle" x="788.5" y="-1417.2" font-family="Courier,monospace" font-size="11.00">Horde_Pear_Package_Contents_InstallAs_HordeApplication</text>
</g>
<!-- \\Horde_Pear_Package_Contents_InstallAs_HordeApplication&#45;&gt;\\Horde_Pear_Package_Contents_InstallAs -->
<g id="edge4" class="edge"><title>\\Horde_Pear_Package_Contents_InstallAs_HordeApplication&#45;&gt;\\Horde_Pear_Package_Contents_InstallAs</title>
<path fill="none" stroke="black" stroke-dasharray="1,5" d="M637.362,-1438.04C623.969,-1440.65 610.686,-1443.63 598,-1447 542.479,-1461.75 481.604,-1487.22 440.935,-1505.67"/>
<polygon fill="none" stroke="black" points="439.448,-1502.5 431.811,-1509.84 442.36,-1508.86 439.448,-1502.5"/>
</g>
<!-- \\Horde_Pear_Package_Contents_InstallAs_HordeComponent -->
<g id="node14" class="node"><title>\\Horde_Pear_Package_Contents_InstallAs_HordeComponent</title>
<polygon fill="none" stroke="black" points="972.5,-1654 604.5,-1654 604.5,-1618 972.5,-1618 972.5,-1654"/>
<text text-anchor="middle" x="788.5" y="-1633.2" font-family="Courier,monospace" font-size="11.00">Horde_Pear_Package_Contents_InstallAs_HordeComponent</text>
</g>
<!-- \\Horde_Pear_Package_Contents_InstallAs_HordeComponent&#45;&gt;\\Horde_Pear_Package_Contents_InstallAs -->
<g id="edge5" class="edge"><title>\\Horde_Pear_Package_Contents_InstallAs_HordeComponent&#45;&gt;\\Horde_Pear_Package_Contents_InstallAs</title>
<path fill="none" stroke="black" stroke-dasharray="1,5" d="M637.362,-1617.96C623.969,-1615.35 610.686,-1612.37 598,-1609 542.479,-1594.25 481.604,-1568.78 440.935,-1550.33"/>
<polygon fill="none" stroke="black" points="442.36,-1547.14 431.811,-1546.16 439.448,-1553.5 442.36,-1547.14"/>
</g>
<!-- \\Horde_Pear_Package_Contents_InstallAs_HordeRole -->
<g id="node15" class="node"><title>\\Horde_Pear_Package_Contents_InstallAs_HordeRole</title>
<polygon fill="none" stroke="black" points="955.5,-1600 621.5,-1600 621.5,-1564 955.5,-1564 955.5,-1600"/>
<text text-anchor="middle" x="788.5" y="-1579.2" font-family="Courier,monospace" font-size="11.00">Horde_Pear_Package_Contents_InstallAs_HordeRole</text>
</g>
<!-- \\Horde_Pear_Package_Contents_InstallAs_HordeRole&#45;&gt;\\Horde_Pear_Package_Contents_InstallAs -->
<g id="edge6" class="edge"><title>\\Horde_Pear_Package_Contents_InstallAs_HordeRole&#45;&gt;\\Horde_Pear_Package_Contents_InstallAs</title>
<path fill="none" stroke="black" stroke-dasharray="1,5" d="M656.197,-1563.98C617.359,-1558.65 574.681,-1552.79 535.243,-1547.38"/>
<polygon fill="none" stroke="black" points="535.674,-1543.91 525.291,-1546.02 534.722,-1550.84 535.674,-1543.91"/>
</g>
<!-- \\Horde_Pear_Package_Contents_InstallAs_HordeTheme -->
<g id="node16" class="node"><title>\\Horde_Pear_Package_Contents_InstallAs_HordeTheme</title>
<polygon fill="none" stroke="black" points="959,-1546 618,-1546 618,-1510 959,-1510 959,-1546"/>
<text text-anchor="middle" x="788.5" y="-1525.2" font-family="Courier,monospace" font-size="11.00">Horde_Pear_Package_Contents_InstallAs_HordeTheme</text>
</g>
<!-- \\Horde_Pear_Package_Contents_InstallAs_HordeTheme&#45;&gt;\\Horde_Pear_Package_Contents_InstallAs -->
<g id="edge7" class="edge"><title>\\Horde_Pear_Package_Contents_InstallAs_HordeTheme&#45;&gt;\\Horde_Pear_Package_Contents_InstallAs</title>
<path fill="none" stroke="black" stroke-dasharray="1,5" d="M617.765,-1528C590.56,-1528 562.652,-1528 536.175,-1528"/>
<polygon fill="none" stroke="black" points="536.103,-1524.5 526.103,-1528 536.103,-1531.5 536.103,-1524.5"/>
</g>
<!-- \\Horde_Pear_Package_Contents_PatternsMatcher -->
<g id="node17" class="node"><title>\\Horde_Pear_Package_Contents_PatternsMatcher</title>
<polygon fill="none" stroke="black" points="942,-1330 635,-1330 635,-1294 942,-1294 942,-1330"/>
<text text-anchor="middle" x="788.5" y="-1309.2" font-family="Courier,monospace" font-size="11.00">Horde_Pear_Package_Contents_PatternsMatcher</text>
</g>
<!-- \\Horde_Pear_Package_Contents_Ignore_Composer -->
<g id="node18" class="node"><title>\\Horde_Pear_Package_Contents_Ignore_Composer</title>
<polygon fill="none" stroke="black" points="942,-1006 635,-1006 635,-970 942,-970 942,-1006"/>
<text text-anchor="middle" x="788.5" y="-985.2" font-family="Courier,monospace" font-size="11.00">Horde_Pear_Package_Contents_Ignore_Composer</text>
</g>
<!-- \\Horde_Pear_Package_Contents_Ignore -->
<g id="node42" class="node"><title>\\Horde_Pear_Package_Contents_Ignore</title>
<polygon fill="none" stroke="black" points="516,-1141 270,-1141 270,-1105 516,-1105 516,-1141"/>
<text text-anchor="middle" x="393" y="-1120.2" font-family="Courier,monospace" font-size="11.00">Horde_Pear_Package_Contents_Ignore</text>
</g>
<!-- \\Horde_Pear_Package_Contents_Ignore_Composer&#45;&gt;\\Horde_Pear_Package_Contents_Ignore -->
<g id="edge8" class="edge"><title>\\Horde_Pear_Package_Contents_Ignore_Composer&#45;&gt;\\Horde_Pear_Package_Contents_Ignore</title>
<path fill="none" stroke="black" stroke-dasharray="1,5" d="M634.909,-1005.01C622.297,-1007.85 609.852,-1011.15 598,-1015 535.108,-1035.44 468.532,-1074.4 429.153,-1099.52"/>
<polygon fill="none" stroke="black" points="427.21,-1096.61 420.699,-1104.96 431.001,-1102.49 427.21,-1096.61"/>
</g>
<!-- \\Horde_Pear_Package_Contents_Ignore_Patterns -->
<g id="node19" class="node"><title>\\Horde_Pear_Package_Contents_Ignore_Patterns</title>
<polygon fill="none" stroke="black" points="942,-952 635,-952 635,-916 942,-916 942,-952"/>
<text text-anchor="middle" x="788.5" y="-931.2" font-family="Courier,monospace" font-size="11.00">Horde_Pear_Package_Contents_Ignore_Patterns</text>
</g>
<!-- \\Horde_Pear_Package_Contents_Ignore_Patterns&#45;&gt;\\Horde_Pear_Package_Contents_Ignore -->
<g id="edge9" class="edge"><title>\\Horde_Pear_Package_Contents_Ignore_Patterns&#45;&gt;\\Horde_Pear_Package_Contents_Ignore</title>
<path fill="none" stroke="black" stroke-dasharray="1,5" d="M634.522,-948.534C621.931,-951.905 609.6,-956.009 598,-961 522.952,-993.292 452.237,-1060.68 417.111,-1097.55"/>
<polygon fill="none" stroke="black" points="414.47,-1095.25 410.167,-1104.93 419.568,-1100.05 414.47,-1095.25"/>
</g>
<!-- \\Horde_Pear_Package_Contents_Ignore_Composite -->
<g id="node20" class="node"><title>\\Horde_Pear_Package_Contents_Ignore_Composite</title>
<polygon fill="none" stroke="black" points="945.5,-1384 631.5,-1384 631.5,-1348 945.5,-1348 945.5,-1384"/>
<text text-anchor="middle" x="788.5" y="-1363.2" font-family="Courier,monospace" font-size="11.00">Horde_Pear_Package_Contents_Ignore_Composite</text>
</g>
<!-- \\Horde_Pear_Package_Contents_Ignore_Composite&#45;&gt;\\Horde_Pear_Package_Contents_Ignore -->
<g id="edge10" class="edge"><title>\\Horde_Pear_Package_Contents_Ignore_Composite&#45;&gt;\\Horde_Pear_Package_Contents_Ignore</title>
<path fill="none" stroke="black" stroke-dasharray="1,5" d="M631.238,-1352.49C619.691,-1348.86 608.476,-1344.42 598,-1339 510.86,-1293.88 440.576,-1196.54 410.218,-1149.51"/>
<polygon fill="none" stroke="black" points="413.171,-1147.63 404.852,-1141.07 407.264,-1151.38 413.171,-1147.63"/>
</g>
<!-- \\Horde_Pear_Package_Contents_Ignore_Dot -->
<g id="node21" class="node"><title>\\Horde_Pear_Package_Contents_Ignore_Dot</title>
<polygon fill="none" stroke="black" points="925,-1276 652,-1276 652,-1240 925,-1240 925,-1276"/>
<text text-anchor="middle" x="788.5" y="-1255.2" font-family="Courier,monospace" font-size="11.00">Horde_Pear_Package_Contents_Ignore_Dot</text>
</g>
<!-- \\Horde_Pear_Package_Contents_Ignore_Dot&#45;&gt;\\Horde_Pear_Package_Contents_Ignore -->
<g id="edge11" class="edge"><title>\\Horde_Pear_Package_Contents_Ignore_Dot&#45;&gt;\\Horde_Pear_Package_Contents_Ignore</title>
<path fill="none" stroke="black" stroke-dasharray="1,5" d="M651.869,-1244.51C633.534,-1240.99 615.145,-1236.57 598,-1231 535.108,-1210.56 468.532,-1171.6 429.153,-1146.48"/>
<polygon fill="none" stroke="black" points="431.001,-1143.51 420.699,-1141.04 427.21,-1149.39 431.001,-1143.51"/>
</g>
<!-- \\Horde_Pear_Package_Contents_Ignore_Nothing -->
<g id="node22" class="node"><title>\\Horde_Pear_Package_Contents_Ignore_Nothing</title>
<polygon fill="none" stroke="black" points="938.5,-1222 638.5,-1222 638.5,-1186 938.5,-1186 938.5,-1222"/>
<text text-anchor="middle" x="788.5" y="-1201.2" font-family="Courier,monospace" font-size="11.00">Horde_Pear_Package_Contents_Ignore_Nothing</text>
</g>
<!-- \\Horde_Pear_Package_Contents_Ignore_Nothing&#45;&gt;\\Horde_Pear_Package_Contents_Ignore -->
<g id="edge12" class="edge"><title>\\Horde_Pear_Package_Contents_Ignore_Nothing&#45;&gt;\\Horde_Pear_Package_Contents_Ignore</title>
<path fill="none" stroke="black" stroke-dasharray="1,5" d="M647.728,-1185.98C630.922,-1183.26 614.04,-1180.25 598,-1177 553.149,-1167.9 503.498,-1154.83 464.409,-1143.82"/>
<polygon fill="none" stroke="black" points="465.283,-1140.43 454.708,-1141.07 463.374,-1147.16 465.283,-1140.43"/>
</g>
<!-- \\Horde_Pear_Package_Contents_Ignore_Hidden -->
<g id="node23" class="node"><title>\\Horde_Pear_Package_Contents_Ignore_Hidden</title>
<polygon fill="none" stroke="black" points="935,-1168 642,-1168 642,-1132 935,-1132 935,-1168"/>
<text text-anchor="middle" x="788.5" y="-1147.2" font-family="Courier,monospace" font-size="11.00">Horde_Pear_Package_Contents_Ignore_Hidden</text>
</g>
<!-- \\Horde_Pear_Package_Contents_Ignore_Hidden&#45;&gt;\\Horde_Pear_Package_Contents_Ignore -->
<g id="edge13" class="edge"><title>\\Horde_Pear_Package_Contents_Ignore_Hidden&#45;&gt;\\Horde_Pear_Package_Contents_Ignore</title>
<path fill="none" stroke="black" stroke-dasharray="1,5" d="M641.814,-1140C604.01,-1137.41 563.503,-1134.63 526.422,-1132.09"/>
<polygon fill="none" stroke="black" points="526.276,-1128.57 516.059,-1131.38 525.796,-1135.55 526.276,-1128.57"/>
</g>
<!-- \\Horde_Pear_Package_Contents_Ignore_Git -->
<g id="node24" class="node"><title>\\Horde_Pear_Package_Contents_Ignore_Git</title>
<polygon fill="none" stroke="black" points="925,-1114 652,-1114 652,-1078 925,-1078 925,-1114"/>
<text text-anchor="middle" x="788.5" y="-1093.2" font-family="Courier,monospace" font-size="11.00">Horde_Pear_Package_Contents_Ignore_Git</text>
</g>
<!-- \\Horde_Pear_Package_Contents_Ignore_Git&#45;&gt;\\Horde_Pear_Package_Contents_Ignore -->
<g id="edge14" class="edge"><title>\\Horde_Pear_Package_Contents_Ignore_Git&#45;&gt;\\Horde_Pear_Package_Contents_Ignore</title>
<path fill="none" stroke="black" stroke-dasharray="1,5" d="M651.804,-1105.31C611.24,-1108.09 566.832,-1111.14 526.478,-1113.91"/>
<polygon fill="none" stroke="black" points="526.047,-1110.43 516.31,-1114.61 526.526,-1117.41 526.047,-1110.43"/>
</g>
<!-- \\Horde_Pear_Package_Contents_Ignore_Symlink -->
<g id="node25" class="node"><title>\\Horde_Pear_Package_Contents_Ignore_Symlink</title>
<polygon fill="none" stroke="black" points="938.5,-1060 638.5,-1060 638.5,-1024 938.5,-1024 938.5,-1060"/>
<text text-anchor="middle" x="788.5" y="-1039.2" font-family="Courier,monospace" font-size="11.00">Horde_Pear_Package_Contents_Ignore_Symlink</text>
</g>
<!-- \\Horde_Pear_Package_Contents_Ignore_Symlink&#45;&gt;\\Horde_Pear_Package_Contents_Ignore -->
<g id="edge15" class="edge"><title>\\Horde_Pear_Package_Contents_Ignore_Symlink&#45;&gt;\\Horde_Pear_Package_Contents_Ignore</title>
<path fill="none" stroke="black" stroke-dasharray="1,5" d="M647.728,-1060.02C630.922,-1062.74 614.04,-1065.75 598,-1069 553.149,-1078.1 503.498,-1091.17 464.409,-1102.18"/>
<polygon fill="none" stroke="black" points="463.374,-1098.84 454.708,-1104.93 465.283,-1105.57 463.374,-1098.84"/>
</g>
<!-- \\Horde_Pear_Package_Contents_List -->
<g id="node26" class="node"><title>\\Horde_Pear_Package_Contents_List</title>
<polygon fill="none" stroke="black" points="905,-898 672,-898 672,-862 905,-862 905,-898"/>
<text text-anchor="middle" x="788.5" y="-877.2" font-family="Courier,monospace" font-size="11.00">Horde_Pear_Package_Contents_List</text>
</g>
<!-- \\Horde_Pear_Package_Contents -->
<g id="node41" class="node"><title>\\Horde_Pear_Package_Contents</title>
<polygon fill="none" stroke="black" points="492.5,-898 293.5,-898 293.5,-862 492.5,-862 492.5,-898"/>
<text text-anchor="middle" x="393" y="-877.2" font-family="Courier,monospace" font-size="11.00">Horde_Pear_Package_Contents</text>
</g>
<!-- \\Horde_Pear_Package_Contents_List&#45;&gt;\\Horde_Pear_Package_Contents -->
<g id="edge16" class="edge"><title>\\Horde_Pear_Package_Contents_List&#45;&gt;\\Horde_Pear_Package_Contents</title>
<path fill="none" stroke="black" stroke-dasharray="1,5" d="M671.831,-880C618.364,-880 555.216,-880 502.644,-880"/>
<polygon fill="none" stroke="black" points="502.617,-876.5 492.617,-880 502.617,-883.5 502.617,-876.5"/>
</g>
<!-- \\Horde_Pear_Package_Contents_Role_HordeApplication -->
<g id="node27" class="node"><title>\\Horde_Pear_Package_Contents_Role_HordeApplication</title>
<polygon fill="none" stroke="black" points="962,-844 615,-844 615,-808 962,-808 962,-844"/>
<text text-anchor="middle" x="788.5" y="-823.2" font-family="Courier,monospace" font-size="11.00">Horde_Pear_Package_Contents_Role_HordeApplication</text>
</g>
<!-- \\Horde_Pear_Package_Contents_Role -->
<g id="node44" class="node"><title>\\Horde_Pear_Package_Contents_Role</title>
<polygon fill="none" stroke="black" points="509.5,-817 276.5,-817 276.5,-781 509.5,-781 509.5,-817"/>
<text text-anchor="middle" x="393" y="-796.2" font-family="Courier,monospace" font-size="11.00">Horde_Pear_Package_Contents_Role</text>
</g>
<!-- \\Horde_Pear_Package_Contents_Role_HordeApplication&#45;&gt;\\Horde_Pear_Package_Contents_Role -->
<g id="edge17" class="edge"><title>\\Horde_Pear_Package_Contents_Role_HordeApplication&#45;&gt;\\Horde_Pear_Package_Contents_Role</title>
<path fill="none" stroke="black" stroke-dasharray="1,5" d="M614.905,-814.157C582.902,-811.961 550.032,-809.706 519.754,-807.629"/>
<polygon fill="none" stroke="black" points="519.806,-804.124 509.59,-806.931 519.326,-811.108 519.806,-804.124"/>
</g>
<!-- \\Horde_Pear_Package_Contents_Role_HordeComponent -->
<g id="node28" class="node"><title>\\Horde_Pear_Package_Contents_Role_HordeComponent</title>
<polygon fill="none" stroke="black" points="955.5,-790 621.5,-790 621.5,-754 955.5,-754 955.5,-790"/>
<text text-anchor="middle" x="788.5" y="-769.2" font-family="Courier,monospace" font-size="11.00">Horde_Pear_Package_Contents_Role_HordeComponent</text>
</g>
<!-- \\Horde_Pear_Package_Contents_Role_HordeComponent&#45;&gt;\\Horde_Pear_Package_Contents_Role -->
<g id="edge18" class="edge"><title>\\Horde_Pear_Package_Contents_Role_HordeComponent&#45;&gt;\\Horde_Pear_Package_Contents_Role</title>
<path fill="none" stroke="black" stroke-dasharray="1,5" d="M621.476,-783.392C587.479,-785.724 552.226,-788.143 519.915,-790.36"/>
<polygon fill="none" stroke="black" points="519.27,-786.896 509.533,-791.073 519.75,-793.88 519.27,-786.896"/>
</g>
<!-- \\Horde_Pear_Package_Contents_Include_Patterns -->
<g id="node29" class="node"><title>\\Horde_Pear_Package_Contents_Include_Patterns</title>
<polygon fill="none" stroke="black" points="945.5,-736 631.5,-736 631.5,-700 945.5,-700 945.5,-736"/>
<text text-anchor="middle" x="788.5" y="-715.2" font-family="Courier,monospace" font-size="11.00">Horde_Pear_Package_Contents_Include_Patterns</text>
</g>
<!-- \\Horde_Pear_Package_Contents_Include -->
<g id="node43" class="node"><title>\\Horde_Pear_Package_Contents_Include</title>
<polygon fill="none" stroke="black" points="519.5,-709 266.5,-709 266.5,-673 519.5,-673 519.5,-709"/>
<text text-anchor="middle" x="393" y="-688.2" font-family="Courier,monospace" font-size="11.00">Horde_Pear_Package_Contents_Include</text>
</g>
<!-- \\Horde_Pear_Package_Contents_Include_Patterns&#45;&gt;\\Horde_Pear_Package_Contents_Include -->
<g id="edge19" class="edge"><title>\\Horde_Pear_Package_Contents_Include_Patterns&#45;&gt;\\Horde_Pear_Package_Contents_Include</title>
<path fill="none" stroke="black" stroke-dasharray="1,5" d="M631.413,-707.29C597.772,-704.982 562.472,-702.56 529.683,-700.31"/>
<polygon fill="none" stroke="black" points="529.809,-696.81 519.593,-699.618 529.33,-703.794 529.809,-696.81"/>
</g>
<!-- \\Horde_Pear_Package_Contents_Include_All -->
<g id="node30" class="node"><title>\\Horde_Pear_Package_Contents_Include_All</title>
<polygon fill="none" stroke="black" points="928.5,-682 648.5,-682 648.5,-646 928.5,-646 928.5,-682"/>
<text text-anchor="middle" x="788.5" y="-661.2" font-family="Courier,monospace" font-size="11.00">Horde_Pear_Package_Contents_Include_All</text>
</g>
<!-- \\Horde_Pear_Package_Contents_Include_All&#45;&gt;\\Horde_Pear_Package_Contents_Include -->
<g id="edge20" class="edge"><title>\\Horde_Pear_Package_Contents_Include_All&#45;&gt;\\Horde_Pear_Package_Contents_Include</title>
<path fill="none" stroke="black" stroke-dasharray="1,5" d="M648.49,-673.538C610.014,-676.178 568.307,-679.04 530.004,-681.668"/>
<polygon fill="none" stroke="black" points="529.559,-678.19 519.822,-682.367 530.039,-685.174 529.559,-678.19"/>
</g>
<!-- \\Horde_Pear_Package_Type_Horde -->
<g id="node31" class="node"><title>\\Horde_Pear_Package_Type_Horde</title>
<polygon fill="none" stroke="black" points="499,-601 287,-601 287,-565 499,-565 499,-601"/>
<text text-anchor="middle" x="393" y="-580.2" font-family="Courier,monospace" font-size="11.00">Horde_Pear_Package_Type_Horde</text>
</g>
<!-- \\Horde_Pear_Package_Type -->
<g id="node46" class="node"><title>\\Horde_Pear_Package_Type</title>
<polygon fill="none" stroke="black" points="188,-601 16,-601 16,-565 188,-565 188,-601"/>
<text text-anchor="middle" x="102" y="-580.2" font-family="Courier,monospace" font-size="11.00">Horde_Pear_Package_Type</text>
</g>
<!-- \\Horde_Pear_Package_Type_Horde&#45;&gt;\\Horde_Pear_Package_Type -->
<g id="edge21" class="edge"><title>\\Horde_Pear_Package_Type_Horde&#45;&gt;\\Horde_Pear_Package_Type</title>
<path fill="none" stroke="black" stroke-dasharray="1,5" d="M286.847,-583C257.955,-583 226.792,-583 198.478,-583"/>
<polygon fill="none" stroke="black" points="198.185,-579.5 188.185,-583 198.184,-586.5 198.185,-579.5"/>
</g>
<!-- \\Horde_Pear_Package_Type_HordeSplit -->
<g id="node32" class="node"><title>\\Horde_Pear_Package_Type_HordeSplit</title>
<polygon fill="none" stroke="black" points="911.5,-628 665.5,-628 665.5,-592 911.5,-592 911.5,-628"/>
<text text-anchor="middle" x="788.5" y="-607.2" font-family="Courier,monospace" font-size="11.00">Horde_Pear_Package_Type_HordeSplit</text>
</g>
<!-- \\Horde_Pear_Package_Type_HordeSplit&#45;&gt;\\Horde_Pear_Package_Type_Horde -->
<g id="edge22" class="edge"><title>\\Horde_Pear_Package_Type_HordeSplit&#45;&gt;\\Horde_Pear_Package_Type_Horde</title>
<path fill="none" stroke="black" d="M665.42,-601.623C615.596,-598.205 558.27,-594.271 509.178,-590.903"/>
<polygon fill="none" stroke="black" points="509.37,-587.408 499.154,-590.215 508.891,-594.392 509.37,-587.408"/>
</g>
<!-- \\Horde_Pear_Package_Type_HordeTheme -->
<g id="node33" class="node"><title>\\Horde_Pear_Package_Type_HordeTheme</title>
<polygon fill="none" stroke="black" points="911.5,-574 665.5,-574 665.5,-538 911.5,-538 911.5,-574"/>
<text text-anchor="middle" x="788.5" y="-553.2" font-family="Courier,monospace" font-size="11.00">Horde_Pear_Package_Type_HordeTheme</text>
</g>
<!-- \\Horde_Pear_Package_Type_HordeTheme&#45;&gt;\\Horde_Pear_Package_Type_Horde -->
<g id="edge23" class="edge"><title>\\Horde_Pear_Package_Type_HordeTheme&#45;&gt;\\Horde_Pear_Package_Type_Horde</title>
<path fill="none" stroke="black" d="M665.42,-564.377C615.596,-567.795 558.27,-571.729 509.178,-575.097"/>
<polygon fill="none" stroke="black" points="508.891,-571.608 499.154,-575.785 509.37,-578.592 508.891,-571.608"/>
</g>
<!-- \\Horde_Pear_Rest_Dependencies -->
<g id="node34" class="node"><title>\\Horde_Pear_Rest_Dependencies</title>
<polygon fill="none" stroke="black" points="891.5,-466 685.5,-466 685.5,-430 891.5,-430 891.5,-466"/>
<text text-anchor="middle" x="788.5" y="-445.2" font-family="Courier,monospace" font-size="11.00">Horde_Pear_Rest_Dependencies</text>
</g>
<!-- \\Horde_Pear_Rest_Package -->
<g id="node35" class="node"><title>\\Horde_Pear_Rest_Package</title>
<polygon fill="none" stroke="black" points="874.5,-412 702.5,-412 702.5,-376 874.5,-376 874.5,-412"/>
<text text-anchor="middle" x="788.5" y="-391.2" font-family="Courier,monospace" font-size="11.00">Horde_Pear_Rest_Package</text>
</g>
<!-- \\Horde_Xml_Element -->
<g id="node48" class="node"><title>\\Horde_Xml_Element</title>
<ellipse fill="none" stroke="black" cx="393" cy="-72" rx="89.8845" ry="18"/>
<text text-anchor="middle" x="393" y="-68.3" font-family="Times,serif" font-size="14.00" fill="gray">\Horde_Xml_Element</text>
</g>
<!-- \\Horde_Pear_Rest_Package&#45;&gt;\\Horde_Xml_Element -->
<g id="edge24" class="edge"><title>\\Horde_Pear_Rest_Package&#45;&gt;\\Horde_Xml_Element</title>
<path fill="none" stroke="black" d="M702.483,-401.446C666.325,-400.079 626.109,-391.9 598,-367 505.678,-285.219 615.817,-183.524 526,-99 515.994,-89.5833 503.629,-83.0665 490.516,-78.6147"/>
<polygon fill="none" stroke="black" points="491.442,-75.2384 480.858,-75.726 489.436,-81.9448 491.442,-75.2384"/>
</g>
<!-- \\Horde_Pear_Rest_Releases -->
<g id="node36" class="node"><title>\\Horde_Pear_Rest_Releases</title>
<polygon fill="none" stroke="black" points="878,-304 699,-304 699,-268 878,-268 878,-304"/>
<text text-anchor="middle" x="788.5" y="-283.2" font-family="Courier,monospace" font-size="11.00">Horde_Pear_Rest_Releases</text>
</g>
<!-- \\Horde_Xml_Element_List -->
<g id="node49" class="node"><title>\\Horde_Xml_Element_List</title>
<ellipse fill="none" stroke="black" cx="393" cy="-18" rx="107.781" ry="18"/>
<text text-anchor="middle" x="393" y="-14.3" font-family="Times,serif" font-size="14.00" fill="gray">\Horde_Xml_Element_List</text>
</g>
<!-- \\Horde_Pear_Rest_Releases&#45;&gt;\\Horde_Xml_Element_List -->
<g id="edge25" class="edge"><title>\\Horde_Pear_Rest_Releases&#45;&gt;\\Horde_Xml_Element_List</title>
<path fill="none" stroke="black" d="M698.871,-292.404C663.982,-290.422 625.719,-282.059 598,-259 520.854,-194.823 601.178,-111.471 526,-45 518.509,-38.3763 509.838,-33.2119 500.592,-29.2041"/>
<polygon fill="none" stroke="black" points="501.765,-25.9052 491.175,-25.5706 499.245,-32.4359 501.765,-25.9052"/>
</g>
<!-- \\Horde_Pear_Rest_Release -->
<g id="node37" class="node"><title>\\Horde_Pear_Rest_Release</title>
<polygon fill="none" stroke="black" points="874.5,-358 702.5,-358 702.5,-322 874.5,-322 874.5,-358"/>
<text text-anchor="middle" x="788.5" y="-337.2" font-family="Courier,monospace" font-size="11.00">Horde_Pear_Rest_Release</text>
</g>
<!-- \\Horde_Pear_Rest_Release&#45;&gt;\\Horde_Xml_Element -->
<g id="edge26" class="edge"><title>\\Horde_Pear_Rest_Release&#45;&gt;\\Horde_Xml_Element</title>
<path fill="none" stroke="black" d="M702.237,-346.576C666.461,-344.946 626.613,-336.803 598,-313 520.854,-248.823 601.178,-165.471 526,-99 515.706,-89.8985 503.186,-83.5522 490.004,-79.176"/>
<polygon fill="none" stroke="black" points="490.892,-75.7889 480.31,-76.3264 488.917,-82.5047 490.892,-75.7889"/>
</g>
<!-- \\Horde_Pear_Rest_PackageList -->
<g id="node38" class="node"><title>\\Horde_Pear_Rest_PackageList</title>
<polygon fill="none" stroke="black" points="888,-250 689,-250 689,-214 888,-214 888,-250"/>
<text text-anchor="middle" x="788.5" y="-229.2" font-family="Courier,monospace" font-size="11.00">Horde_Pear_Rest_PackageList</text>
</g>
<!-- \\Horde_Pear_Rest_PackageList&#45;&gt;\\Horde_Xml_Element_List -->
<g id="edge27" class="edge"><title>\\Horde_Pear_Rest_PackageList&#45;&gt;\\Horde_Xml_Element_List</title>
<path fill="none" stroke="black" d="M688.818,-236.111C657.21,-232.941 623.764,-224.373 598,-205 535.674,-158.135 586.886,-93.7201 526,-45 517.903,-38.5212 508.652,-33.4765 498.89,-29.5637"/>
<polygon fill="none" stroke="black" points="499.988,-26.2394 489.394,-26.1491 497.62,-32.8264 499.988,-26.2394"/>
</g>
<!-- \\Horde_Pear_Remote -->
<g id="node39" class="node"><title>\\Horde_Pear_Remote</title>
<polygon fill="none" stroke="black" points="854,-196 723,-196 723,-160 854,-160 854,-196"/>
<text text-anchor="middle" x="788.5" y="-175.2" font-family="Courier,monospace" font-size="11.00">Horde_Pear_Remote</text>
</g>
</g>
</svg>
