<?xml version="1.0" encoding="UTF-8" standalone="no"?>
<!DOCTYPE svg PUBLIC "-//W3C//DTD SVG 1.1//EN"
 "http://www.w3.org/Graphics/SVG/1.1/DTD/svg11.dtd">
<!-- Generated by graphviz version 2.38.0 (20140413.2041)
 -->
<!-- Title: G Pages: 1 -->
<svg width="849pt" height="564pt"
 viewBox="0.00 0.00 849.26 564.00" xmlns="http://www.w3.org/2000/svg" xmlns:xlink="http://www.w3.org/1999/xlink">
<g id="graph0" class="graph" transform="scale(1 1) rotate(0) translate(4 560)">
<title>G</title>
<polygon fill="white" stroke="none" points="-4,4 -4,-560 845.258,-560 845.258,4 -4,4"/>
<g id="clust1" class="cluster"><title>cluster_Global</title>
<path fill="none" stroke="gray" d="M344.069,-44C344.069,-44 821.258,-44 821.258,-44 827.258,-44 833.258,-50 833.258,-56 833.258,-56 833.258,-536 833.258,-536 833.258,-542 827.258,-548 821.258,-548 821.258,-548 344.069,-548 344.069,-548 338.069,-548 332.069,-542 332.069,-536 332.069,-536 332.069,-56 332.069,-56 332.069,-50 338.069,-44 344.069,-44"/>
<text text-anchor="middle" x="582.664" y="-535.2" font-family="Times,serif" font-size="11.00" fill="gray">Global</text>
</g>
<!-- \\Horde_Token_Null -->
<g id="node1" class="node"><title>\\Horde_Token_Null</title>
<polygon fill="none" stroke="black" points="781.758,-358 656.758,-358 656.758,-322 781.758,-322 781.758,-358"/>
<text text-anchor="middle" x="719.258" y="-337.2" font-family="Courier,monospace" font-size="11.00">Horde_Token_Null</text>
</g>
<!-- \\Horde_Token_Base -->
<g id="node9" class="node"><title>\\Horde_Token_Base</title>
<polygon fill="none" stroke="black" points="481.569,-277 356.569,-277 356.569,-241 481.569,-241 481.569,-277"/>
<text text-anchor="start" x="385.069" y="-262.2" font-family="Courier,monospace" font-size="11.00">«abstract»</text>
<text text-anchor="start" x="364.569" y="-250.2" font-family="Courier,monospace" font-size="11.00">Horde_Token_Base</text>
</g>
<!-- \\Horde_Token_Null&#45;&gt;\\Horde_Token_Base -->
<g id="edge1" class="edge"><title>\\Horde_Token_Null&#45;&gt;\\Horde_Token_Base</title>
<path fill="none" stroke="black" d="M656.573,-324.367C642.333,-320.695 627.256,-316.756 613.258,-313 572.982,-302.194 528.117,-289.682 491.768,-279.425"/>
<polygon fill="none" stroke="black" points="492.327,-275.946 481.752,-276.595 490.424,-282.682 492.327,-275.946"/>
</g>
<!-- \\Horde_Token_Exception -->
<g id="node2" class="node"><title>\\Horde_Token_Exception</title>
<polygon fill="none" stroke="black" points="498.069,-466 340.069,-466 340.069,-430 498.069,-430 498.069,-466"/>
<text text-anchor="middle" x="419.069" y="-445.2" font-family="Courier,monospace" font-size="11.00">Horde_Token_Exception</text>
</g>
<!-- \\Horde_Exception_Wrapped -->
<g id="node12" class="node"><title>\\Horde_Exception_Wrapped</title>
<ellipse fill="none" stroke="black" cx="112.44" cy="-448" rx="112.38" ry="18"/>
<text text-anchor="middle" x="112.44" y="-444.3" font-family="Times,serif" font-size="14.00" fill="gray">\Horde_Exception_Wrapped</text>
</g>
<!-- \\Horde_Token_Exception&#45;&gt;\\Horde_Exception_Wrapped -->
<g id="edge2" class="edge"><title>\\Horde_Token_Exception&#45;&gt;\\Horde_Exception_Wrapped</title>
<path fill="none" stroke="black" d="M340.015,-448C308.167,-448 270.583,-448 235.277,-448"/>
<polygon fill="none" stroke="black" points="234.896,-444.5 224.896,-448 234.896,-451.5 234.896,-444.5"/>
</g>
<!-- \\Horde_Token_Exception_Invalid -->
<g id="node3" class="node"><title>\\Horde_Token_Exception_Invalid</title>
<polygon fill="none" stroke="black" points="825.258,-520 613.258,-520 613.258,-484 825.258,-484 825.258,-520"/>
<text text-anchor="middle" x="719.258" y="-499.2" font-family="Courier,monospace" font-size="11.00">Horde_Token_Exception_Invalid</text>
</g>
<!-- \\Horde_Token_Exception_Invalid&#45;&gt;\\Horde_Token_Exception -->
<g id="edge3" class="edge"><title>\\Horde_Token_Exception_Invalid&#45;&gt;\\Horde_Token_Exception</title>
<path fill="none" stroke="black" d="M618.551,-483.944C582.955,-477.497 543.124,-470.284 508.539,-464.021"/>
<polygon fill="none" stroke="black" points="508.923,-460.534 498.46,-462.196 507.676,-467.422 508.923,-460.534"/>
</g>
<!-- \\Horde_Token_Exception_Used -->
<g id="node4" class="node"><title>\\Horde_Token_Exception_Used</title>
<polygon fill="none" stroke="black" points="815.258,-466 623.258,-466 623.258,-430 815.258,-430 815.258,-466"/>
<text text-anchor="middle" x="719.258" y="-445.2" font-family="Courier,monospace" font-size="11.00">Horde_Token_Exception_Used</text>
</g>
<!-- \\Horde_Token_Exception_Used&#45;&gt;\\Horde_Token_Exception -->
<g id="edge4" class="edge"><title>\\Horde_Token_Exception_Used&#45;&gt;\\Horde_Token_Exception</title>
<path fill="none" stroke="black" d="M623.09,-448C586.322,-448 544.497,-448 508.404,-448"/>
<polygon fill="none" stroke="black" points="508.384,-444.5 498.384,-448 508.384,-451.5 508.384,-444.5"/>
</g>
<!-- \\Horde_Token_Exception_Expired -->
<g id="node5" class="node"><title>\\Horde_Token_Exception_Expired</title>
<polygon fill="none" stroke="black" points="825.258,-412 613.258,-412 613.258,-376 825.258,-376 825.258,-412"/>
<text text-anchor="middle" x="719.258" y="-391.2" font-family="Courier,monospace" font-size="11.00">Horde_Token_Exception_Expired</text>
</g>
<!-- \\Horde_Token_Exception_Expired&#45;&gt;\\Horde_Token_Exception -->
<g id="edge5" class="edge"><title>\\Horde_Token_Exception_Expired&#45;&gt;\\Horde_Token_Exception</title>
<path fill="none" stroke="black" d="M618.551,-412.056C582.955,-418.503 543.124,-425.716 508.539,-431.979"/>
<polygon fill="none" stroke="black" points="507.676,-428.578 498.46,-433.804 508.923,-435.466 507.676,-428.578"/>
</g>
<!-- \\Horde_Token_Sql -->
<g id="node6" class="node"><title>\\Horde_Token_Sql</title>
<polygon fill="none" stroke="black" points="778.258,-304 660.258,-304 660.258,-268 778.258,-268 778.258,-304"/>
<text text-anchor="middle" x="719.258" y="-283.2" font-family="Courier,monospace" font-size="11.00">Horde_Token_Sql</text>
</g>
<!-- \\Horde_Token_Sql&#45;&gt;\\Horde_Token_Base -->
<g id="edge6" class="edge"><title>\\Horde_Token_Sql&#45;&gt;\\Horde_Token_Base</title>
<path fill="none" stroke="black" d="M660.057,-280.73C611.911,-276.371 543.317,-270.16 491.785,-265.494"/>
<polygon fill="none" stroke="black" points="491.992,-261.998 481.717,-264.582 491.361,-268.97 491.992,-261.998"/>
</g>
<!-- \\Horde_Token_Mongo -->
<g id="node7" class="node"><title>\\Horde_Token_Mongo</title>
<polygon fill="none" stroke="black" points="784.758,-250 653.758,-250 653.758,-214 784.758,-214 784.758,-250"/>
<text text-anchor="middle" x="719.258" y="-229.2" font-family="Courier,monospace" font-size="11.00">Horde_Token_Mongo</text>
</g>
<!-- \\Horde_Token_Mongo&#45;&gt;\\Horde_Token_Base -->
<g id="edge7" class="edge"><title>\\Horde_Token_Mongo&#45;&gt;\\Horde_Token_Base</title>
<path fill="none" stroke="black" d="M653.556,-237.859C605.901,-242.174 541.096,-248.041 491.849,-252.501"/>
<polygon fill="none" stroke="black" points="491.232,-249.042 481.589,-253.43 491.864,-256.014 491.232,-249.042"/>
</g>
<!-- \\Horde_Token_File -->
<g id="node8" class="node"><title>\\Horde_Token_File</title>
<polygon fill="none" stroke="black" points="781.758,-196 656.758,-196 656.758,-160 781.758,-160 781.758,-196"/>
<text text-anchor="middle" x="719.258" y="-175.2" font-family="Courier,monospace" font-size="11.00">Horde_Token_File</text>
</g>
<!-- \\Horde_Token_File&#45;&gt;\\Horde_Token_Base -->
<g id="edge8" class="edge"><title>\\Horde_Token_File&#45;&gt;\\Horde_Token_Base</title>
<path fill="none" stroke="black" d="M656.573,-193.633C642.333,-197.305 627.256,-201.244 613.258,-205 572.982,-215.806 528.117,-228.318 491.768,-238.575"/>
<polygon fill="none" stroke="black" points="490.424,-235.318 481.752,-241.405 492.327,-242.054 490.424,-235.318"/>
</g>
<!-- \\Horde_Token_Translation -->
<g id="node10" class="node"><title>\\Horde_Token_Translation</title>
<polygon fill="none" stroke="black" points="805.258,-142 633.258,-142 633.258,-106 805.258,-106 805.258,-142"/>
<text text-anchor="middle" x="719.258" y="-121.2" font-family="Courier,monospace" font-size="11.00">Horde_Token_Translation</text>
</g>
<!-- \\Horde_Translation_Autodetect -->
<g id="node13" class="node"><title>\\Horde_Translation_Autodetect</title>
<ellipse fill="none" stroke="black" cx="419.069" cy="-18" rx="122.379" ry="18"/>
<text text-anchor="middle" x="419.069" y="-14.3" font-family="Times,serif" font-size="14.00" fill="gray">\Horde_Translation_Autodetect</text>
</g>
<!-- \\Horde_Token_Translation&#45;&gt;\\Horde_Translation_Autodetect -->
<g id="edge9" class="edge"><title>\\Horde_Token_Translation&#45;&gt;\\Horde_Translation_Autodetect</title>
<path fill="none" stroke="black" d="M634.551,-105.92C627.202,-103.307 620.002,-100.347 613.258,-97 576.699,-78.8564 578.448,-56.8139 541.258,-40 535.105,-37.2182 528.626,-34.7879 521.996,-32.6648"/>
<polygon fill="none" stroke="black" points="522.774,-29.2452 512.192,-29.7687 520.791,-35.9585 522.774,-29.2452"/>
</g>
<!-- \\Horde_Token -->
<g id="node11" class="node"><title>\\Horde_Token</title>
<polygon fill="none" stroke="black" points="764.758,-88 673.758,-88 673.758,-52 764.758,-52 764.758,-88"/>
<text text-anchor="middle" x="719.258" y="-67.2" font-family="Courier,monospace" font-size="11.00">Horde_Token</text>
</g>
</g>
</svg>
