<?xml version="1.0" encoding="UTF-8" standalone="no"?>
<!DOCTYPE svg PUBLIC "-//W3C//DTD SVG 1.1//EN"
 "http://www.w3.org/Graphics/SVG/1.1/DTD/svg11.dtd">
<!-- Generated by graphviz version 2.38.0 (20140413.2041)
 -->
<!-- Title: G Pages: 1 -->
<svg width="785pt" height="2940pt"
 viewBox="0.00 0.00 785.17 2940.00" xmlns="http://www.w3.org/2000/svg" xmlns:xlink="http://www.w3.org/1999/xlink">
<g id="graph0" class="graph" transform="scale(1 1) rotate(0) translate(4 2936)">
<title>G</title>
<polygon fill="white" stroke="none" points="-4,4 -4,-2936 781.167,-2936 781.167,4 -4,4"/>
<g id="clust1" class="cluster"><title>cluster_Global</title>
<path fill="none" stroke="gray" d="M99.0836,-692C99.0836,-692 757.167,-692 757.167,-692 763.167,-692 769.167,-698 769.167,-704 769.167,-704 769.167,-2912 769.167,-2912 769.167,-2918 763.167,-2924 757.167,-2924 757.167,-2924 99.0836,-2924 99.0836,-2924 93.0836,-2924 87.0836,-2918 87.0836,-2912 87.0836,-2912 87.0836,-704 87.0836,-704 87.0836,-698 93.0836,-692 99.0836,-692"/>
<text text-anchor="middle" x="428.125" y="-2911.2" font-family="Times,serif" font-size="11.00" fill="gray">Global</text>
</g>
<!-- \\Horde_LoginTasks_Task_TosAgreement -->
<g id="node1" class="node"><title>\\Horde_LoginTasks_Task_TosAgreement</title>
<polygon fill="none" stroke="black" points="724.167,-2626 478.167,-2626 478.167,-2590 724.167,-2590 724.167,-2626"/>
<text text-anchor="middle" x="601.167" y="-2605.2" font-family="Courier,monospace" font-size="11.00">Horde_LoginTasks_Task_TosAgreement</text>
</g>
<!-- \\Horde_LoginTasks_Task -->
<g id="node43" class="node"><title>\\Horde_LoginTasks_Task</title>
<ellipse fill="none" stroke="black" cx="184.584" cy="-666" rx="102.882" ry="18"/>
<text text-anchor="middle" x="184.584" y="-662.3" font-family="Times,serif" font-size="14.00" fill="gray">\Horde_LoginTasks_Task</text>
</g>
<!-- \\Horde_LoginTasks_Task_TosAgreement&#45;&gt;\\Horde_LoginTasks_Task -->
<g id="edge1" class="edge"><title>\\Horde_LoginTasks_Task_TosAgreement&#45;&gt;\\Horde_LoginTasks_Task</title>
<path fill="none" stroke="black" d="M478.035,-2605.32C463.981,-2600.14 451.14,-2592.36 441.167,-2581 302.328,-2422.8 511.835,-842.758 369.167,-688 345.008,-661.793 307.268,-654.182 272.274,-653.964"/>
<polygon fill="none" stroke="black" points="271.957,-650.468 262.006,-654.106 272.054,-657.468 271.957,-650.468"/>
</g>
<!-- \\Horde_LoginTasks_Task_LastLogin -->
<g id="node2" class="node"><title>\\Horde_LoginTasks_Task_LastLogin</title>
<polygon fill="none" stroke="black" points="714.167,-2572 488.167,-2572 488.167,-2536 714.167,-2536 714.167,-2572"/>
<text text-anchor="middle" x="601.167" y="-2551.2" font-family="Courier,monospace" font-size="11.00">Horde_LoginTasks_Task_LastLogin</text>
</g>
<!-- \\Horde_LoginTasks_Task_LastLogin&#45;&gt;\\Horde_LoginTasks_Task -->
<g id="edge2" class="edge"><title>\\Horde_LoginTasks_Task_LastLogin&#45;&gt;\\Horde_LoginTasks_Task</title>
<path fill="none" stroke="black" d="M487.982,-2554.51C470.09,-2549.53 453.457,-2540.99 441.167,-2527 306.197,-2373.38 507.855,-838.272 369.167,-688 344.993,-661.807 307.251,-654.197 272.259,-653.977"/>
<polygon fill="none" stroke="black" points="271.944,-650.481 261.993,-654.118 272.04,-657.481 271.944,-650.481"/>
</g>
<!-- \\Horde_LoginTasks_Task_UpgradeCheck -->
<g id="node3" class="node"><title>\\Horde_LoginTasks_Task_UpgradeCheck</title>
<polygon fill="none" stroke="black" points="724.167,-2734 478.167,-2734 478.167,-2698 724.167,-2698 724.167,-2734"/>
<text text-anchor="middle" x="601.167" y="-2713.2" font-family="Courier,monospace" font-size="11.00">Horde_LoginTasks_Task_UpgradeCheck</text>
</g>
<!-- \\Horde_LoginTasks_Task_UpgradeCheck&#45;&gt;\\Horde_LoginTasks_Task -->
<g id="edge3" class="edge"><title>\\Horde_LoginTasks_Task_UpgradeCheck&#45;&gt;\\Horde_LoginTasks_Task</title>
<path fill="none" stroke="black" d="M478.013,-2713.34C463.962,-2708.15 451.129,-2700.37 441.167,-2689 294.59,-2521.63 519.796,-851.729 369.167,-688 345.035,-661.768 307.298,-654.154 272.299,-653.941"/>
<polygon fill="none" stroke="black" points="271.981,-650.445 262.031,-654.083 272.078,-657.444 271.981,-650.445"/>
</g>
<!-- \\Horde_LoginTasks_Task_AdminCheck -->
<g id="node4" class="node"><title>\\Horde_LoginTasks_Task_AdminCheck</title>
<polygon fill="none" stroke="black" points="717.667,-2680 484.667,-2680 484.667,-2644 717.667,-2644 717.667,-2680"/>
<text text-anchor="middle" x="601.167" y="-2659.2" font-family="Courier,monospace" font-size="11.00">Horde_LoginTasks_Task_AdminCheck</text>
</g>
<!-- \\Horde_LoginTasks_Task_AdminCheck&#45;&gt;\\Horde_LoginTasks_Task -->
<g id="edge4" class="edge"><title>\\Horde_LoginTasks_Task_AdminCheck&#45;&gt;\\Horde_LoginTasks_Task</title>
<path fill="none" stroke="black" d="M484.344,-2661.47C467.838,-2656.37 452.611,-2648.05 441.167,-2635 298.459,-2472.22 515.815,-847.243 369.167,-688 345.022,-661.78 307.283,-654.167 272.287,-653.952"/>
<polygon fill="none" stroke="black" points="271.97,-650.456 262.019,-654.094 272.066,-657.456 271.97,-650.456"/>
</g>
<!-- \\Horde_LoginTasks_SystemTask_Upgrade -->
<g id="node5" class="node"><title>\\Horde_LoginTasks_SystemTask_Upgrade</title>
<polygon fill="none" stroke="black" points="727.667,-2518 474.667,-2518 474.667,-2482 727.667,-2482 727.667,-2518"/>
<text text-anchor="middle" x="601.167" y="-2497.2" font-family="Courier,monospace" font-size="11.00">Horde_LoginTasks_SystemTask_Upgrade</text>
</g>
<!-- \\Horde_Core_LoginTasks_SystemTask_Upgrade -->
<g id="node44" class="node"><title>\\Horde_Core_LoginTasks_SystemTask_Upgrade</title>
<ellipse fill="none" stroke="black" cx="184.584" cy="-612" rx="184.667" ry="18"/>
<text text-anchor="middle" x="184.584" y="-608.3" font-family="Times,serif" font-size="14.00" fill="gray">\Horde_Core_LoginTasks_SystemTask_Upgrade</text>
</g>
<!-- \\Horde_LoginTasks_SystemTask_Upgrade&#45;&gt;\\Horde_Core_LoginTasks_SystemTask_Upgrade -->
<g id="edge5" class="edge"><title>\\Horde_LoginTasks_SystemTask_Upgrade&#45;&gt;\\Horde_Core_LoginTasks_SystemTask_Upgrade</title>
<path fill="none" stroke="black" d="M474.56,-2495.96C461.871,-2490.81 450.316,-2483.41 441.167,-2473 306.556,-2319.8 505.47,-790.694 369.167,-639 364.787,-634.125 359.944,-629.854 354.738,-626.123"/>
<polygon fill="none" stroke="black" points="356.582,-623.147 346.275,-620.693 352.802,-629.039 356.582,-623.147"/>
</g>
<!-- \\Horde_LoginTasks_SystemTask_GarbageCollection -->
<g id="node6" class="node"><title>\\Horde_LoginTasks_SystemTask_GarbageCollection</title>
<polygon fill="none" stroke="black" points="761.167,-2464 441.167,-2464 441.167,-2428 761.167,-2428 761.167,-2464"/>
<text text-anchor="middle" x="601.167" y="-2443.2" font-family="Courier,monospace" font-size="11.00">Horde_LoginTasks_SystemTask_GarbageCollection</text>
</g>
<!-- \\Horde_LoginTasks_SystemTask -->
<g id="node45" class="node"><title>\\Horde_LoginTasks_SystemTask</title>
<ellipse fill="none" stroke="black" cx="184.584" cy="-558" rx="128.877" ry="18"/>
<text text-anchor="middle" x="184.584" y="-554.3" font-family="Times,serif" font-size="14.00" fill="gray">\Horde_LoginTasks_SystemTask</text>
</g>
<!-- \\Horde_LoginTasks_SystemTask_GarbageCollection&#45;&gt;\\Horde_LoginTasks_SystemTask -->
<g id="edge6" class="edge"><title>\\Horde_LoginTasks_SystemTask_GarbageCollection&#45;&gt;\\Horde_LoginTasks_SystemTask</title>
<path fill="none" stroke="black" d="M450.43,-2427.92C447.133,-2425.22 444.032,-2422.26 441.167,-2419 306.556,-2265.8 505.47,-736.694 369.167,-585 355.382,-569.658 337.01,-560.301 317.207,-554.896"/>
<polygon fill="none" stroke="black" points="317.924,-551.468 307.384,-552.55 316.298,-558.277 317.924,-551.468"/>
</g>
<!-- \\Horde_Api -->
<g id="node7" class="node"><title>\\Horde_Api</title>
<polygon fill="none" stroke="black" points="639.667,-2410 562.667,-2410 562.667,-2374 639.667,-2374 639.667,-2410"/>
<text text-anchor="middle" x="601.167" y="-2389.2" font-family="Courier,monospace" font-size="11.00">Horde_Api</text>
</g>
<!-- \\Horde_Registry_Api -->
<g id="node46" class="node"><title>\\Horde_Registry_Api</title>
<ellipse fill="none" stroke="black" cx="184.584" cy="-504" rx="87.1846" ry="18"/>
<text text-anchor="middle" x="184.584" y="-500.3" font-family="Times,serif" font-size="14.00" fill="gray">\Horde_Registry_Api</text>
</g>
<!-- \\Horde_Api&#45;&gt;\\Horde_Registry_Api -->
<g id="edge7" class="edge"><title>\\Horde_Api&#45;&gt;\\Horde_Registry_Api</title>
<path fill="none" stroke="black" d="M562.334,-2397.65C525.454,-2400.79 470.738,-2398.65 441.167,-2365 306.556,-2211.8 505.47,-682.694 369.167,-531 344.369,-503.402 304.726,-495.171 268.615,-494.467"/>
<polygon fill="none" stroke="black" points="268.542,-490.967 258.539,-494.458 268.536,-497.967 268.542,-490.967"/>
</g>
<!-- \\Horde_Ajax_Application_TwitterHandler -->
<g id="node8" class="node"><title>\\Horde_Ajax_Application_TwitterHandler</title>
<polygon fill="none" stroke="black" points="734.167,-2194 468.167,-2194 468.167,-2158 734.167,-2158 734.167,-2194"/>
<text text-anchor="middle" x="601.167" y="-2173.2" font-family="Courier,monospace" font-size="11.00">Horde_Ajax_Application_TwitterHandler</text>
</g>
<!-- \\Horde_Core_Ajax_Application_Handler -->
<g id="node47" class="node"><title>\\Horde_Core_Ajax_Application_Handler</title>
<ellipse fill="none" stroke="black" cx="184.584" cy="-450" rx="156.772" ry="18"/>
<text text-anchor="middle" x="184.584" y="-446.3" font-family="Times,serif" font-size="14.00" fill="gray">\Horde_Core_Ajax_Application_Handler</text>
</g>
<!-- \\Horde_Ajax_Application_TwitterHandler&#45;&gt;\\Horde_Core_Ajax_Application_Handler -->
<g id="edge8" class="edge"><title>\\Horde_Ajax_Application_TwitterHandler&#45;&gt;\\Horde_Core_Ajax_Application_Handler</title>
<path fill="none" stroke="black" d="M468.165,-2169.07C458.001,-2164.15 448.761,-2157.61 441.167,-2149 318.162,-2009.55 493.712,-615.08 369.167,-477 362.521,-469.632 354.817,-463.646 346.406,-458.816"/>
<polygon fill="none" stroke="black" points="347.893,-455.646 337.399,-454.192 344.696,-461.873 347.893,-455.646"/>
</g>
<!-- \\Horde_Ajax_Application_FacebookHandler -->
<g id="node9" class="node"><title>\\Horde_Ajax_Application_FacebookHandler</title>
<polygon fill="none" stroke="black" points="737.667,-2356 464.667,-2356 464.667,-2320 737.667,-2320 737.667,-2356"/>
<text text-anchor="middle" x="601.167" y="-2335.2" font-family="Courier,monospace" font-size="11.00">Horde_Ajax_Application_FacebookHandler</text>
</g>
<!-- \\Horde_Ajax_Application_FacebookHandler&#45;&gt;\\Horde_Core_Ajax_Application_Handler -->
<g id="edge9" class="edge"><title>\\Horde_Ajax_Application_FacebookHandler&#45;&gt;\\Horde_Core_Ajax_Application_Handler</title>
<path fill="none" stroke="black" d="M464.457,-2329.23C455.747,-2324.55 447.821,-2318.57 441.167,-2311 306.556,-2157.8 505.47,-628.694 369.167,-477 362.535,-469.619 354.842,-463.624 346.438,-458.787"/>
<polygon fill="none" stroke="black" points="347.932,-455.619 337.438,-454.156 344.729,-461.844 347.932,-455.619"/>
</g>
<!-- \\Horde_Ajax_Application_Handler -->
<g id="node10" class="node"><title>\\Horde_Ajax_Application_Handler</title>
<polygon fill="none" stroke="black" points="710.667,-2248 491.667,-2248 491.667,-2212 710.667,-2212 710.667,-2248"/>
<text text-anchor="middle" x="601.167" y="-2227.2" font-family="Courier,monospace" font-size="11.00">Horde_Ajax_Application_Handler</text>
</g>
<!-- \\Horde_Ajax_Application_Handler&#45;&gt;\\Horde_Core_Ajax_Application_Handler -->
<g id="edge10" class="edge"><title>\\Horde_Ajax_Application_Handler&#45;&gt;\\Horde_Core_Ajax_Application_Handler</title>
<path fill="none" stroke="black" d="M491.661,-2231.45C472.389,-2226.64 454.307,-2217.92 441.167,-2203 314.293,-2058.97 497.631,-619.618 369.167,-477 362.526,-469.627 354.826,-463.638 346.417,-458.806"/>
<polygon fill="none" stroke="black" points="347.907,-455.636 337.413,-454.18 344.708,-461.863 347.907,-455.636"/>
</g>
<!-- \\Horde_Ajax_Application -->
<g id="node11" class="node"><title>\\Horde_Ajax_Application</title>
<polygon fill="none" stroke="black" points="683.667,-2140 518.667,-2140 518.667,-2104 683.667,-2104 683.667,-2140"/>
<text text-anchor="middle" x="601.167" y="-2119.2" font-family="Courier,monospace" font-size="11.00">Horde_Ajax_Application</text>
</g>
<!-- \\Horde_Core_Ajax_Application -->
<g id="node48" class="node"><title>\\Horde_Core_Ajax_Application</title>
<ellipse fill="none" stroke="black" cx="184.584" cy="-396" rx="124.278" ry="18"/>
<text text-anchor="middle" x="184.584" y="-392.3" font-family="Times,serif" font-size="14.00" fill="gray">\Horde_Core_Ajax_Application</text>
</g>
<!-- \\Horde_Ajax_Application&#45;&gt;\\Horde_Core_Ajax_Application -->
<g id="edge11" class="edge"><title>\\Horde_Ajax_Application&#45;&gt;\\Horde_Core_Ajax_Application</title>
<path fill="none" stroke="black" d="M518.529,-2127.81C489.996,-2125.31 460.337,-2116.73 441.167,-2095 318.162,-1955.55 493.712,-561.08 369.167,-423 353.661,-405.809 332.393,-396.141 309.821,-391.129"/>
<polygon fill="none" stroke="black" points="310.208,-387.64 299.729,-389.2 308.894,-394.515 310.208,-387.64"/>
</g>
<!-- \\Horde_Test -->
<g id="node12" class="node"><title>\\Horde_Test</title>
<polygon fill="none" stroke="black" points="643.167,-2302 559.167,-2302 559.167,-2266 643.167,-2266 643.167,-2302"/>
<text text-anchor="middle" x="601.167" y="-2281.2" font-family="Courier,monospace" font-size="11.00">Horde_Test</text>
</g>
<!-- \\Horde_Cli_Backup -->
<g id="node13" class="node"><title>\\Horde_Cli_Backup</title>
<polygon fill="none" stroke="black" points="663.667,-2086 538.667,-2086 538.667,-2050 663.667,-2050 663.667,-2086"/>
<text text-anchor="middle" x="601.167" y="-2065.2" font-family="Courier,monospace" font-size="11.00">Horde_Cli_Backup</text>
</g>
<!-- \\Horde\\Cli\\Application -->
<g id="node49" class="node"><title>\\Horde\\Cli\\Application</title>
<ellipse fill="none" stroke="black" cx="184.584" cy="-342" rx="92.0841" ry="18"/>
<text text-anchor="middle" x="184.584" y="-338.3" font-family="Times,serif" font-size="14.00" fill="gray">\Horde\Cli\Application</text>
</g>
<!-- \\Horde_Cli_Backup&#45;&gt;\\Horde\\Cli\\Application -->
<g id="edge12" class="edge"><title>\\Horde_Cli_Backup&#45;&gt;\\Horde\\Cli\\Application</title>
<path fill="none" stroke="black" d="M538.448,-2074.66C504.625,-2074.63 464.875,-2067.88 441.167,-2041 318.162,-1901.55 493.712,-507.08 369.167,-369 345.405,-342.655 308.113,-333.98 273.329,-332.648"/>
<polygon fill="none" stroke="black" points="273.18,-329.145 263.117,-332.458 273.05,-336.143 273.18,-329.145"/>
</g>
<!-- \\Horde_Tree_Renderer_Sidebar -->
<g id="node14" class="node"><title>\\Horde_Tree_Renderer_Sidebar</title>
<polygon fill="none" stroke="black" points="700.667,-1978 501.667,-1978 501.667,-1942 700.667,-1942 700.667,-1978"/>
<text text-anchor="middle" x="601.167" y="-1957.2" font-family="Courier,monospace" font-size="11.00">Horde_Tree_Renderer_Sidebar</text>
</g>
<!-- \\Horde_Tree_Renderer_Base -->
<g id="node50" class="node"><title>\\Horde_Tree_Renderer_Base</title>
<ellipse fill="none" stroke="black" cx="184.584" cy="-288" rx="113.98" ry="18"/>
<text text-anchor="middle" x="184.584" y="-284.3" font-family="Times,serif" font-size="14.00" fill="gray">\Horde_Tree_Renderer_Base</text>
</g>
<!-- \\Horde_Tree_Renderer_Sidebar&#45;&gt;\\Horde_Tree_Renderer_Base -->
<g id="edge13" class="edge"><title>\\Horde_Tree_Renderer_Sidebar&#45;&gt;\\Horde_Tree_Renderer_Base</title>
<path fill="none" stroke="black" d="M501.549,-1963.54C478.675,-1959.38 456.553,-1950.42 441.167,-1933 322.03,-1798.13 489.793,-448.542 369.167,-315 350.141,-293.936 322.463,-284.173 294.344,-280.428"/>
<polygon fill="none" stroke="black" points="294.713,-276.947 284.393,-279.345 293.956,-283.906 294.713,-276.947"/>
</g>
<!-- \\Horde_Tree_Renderer_Menu -->
<g id="node15" class="node"><title>\\Horde_Tree_Renderer_Menu</title>
<polygon fill="none" stroke="black" points="690.667,-2032 511.667,-2032 511.667,-1996 690.667,-1996 690.667,-2032"/>
<text text-anchor="middle" x="601.167" y="-2011.2" font-family="Courier,monospace" font-size="11.00">Horde_Tree_Renderer_Menu</text>
</g>
<!-- \\Horde_Tree_Renderer_Menu&#45;&gt;\\Horde_Tree_Renderer_Base -->
<g id="edge14" class="edge"><title>\\Horde_Tree_Renderer_Menu&#45;&gt;\\Horde_Tree_Renderer_Base</title>
<path fill="none" stroke="black" d="M511.482,-2019.06C485.195,-2015.81 458.763,-2006.95 441.167,-1987 318.162,-1847.55 493.712,-453.08 369.167,-315 350.156,-293.922 322.483,-284.155 294.364,-280.41"/>
<polygon fill="none" stroke="black" points="294.732,-276.93 284.413,-279.328 293.975,-283.888 294.732,-276.93"/>
</g>
<!-- \\Horde_Application -->
<g id="node16" class="node"><title>\\Horde_Application</title>
<polygon fill="none" stroke="black" points="666.667,-1924 535.667,-1924 535.667,-1888 666.667,-1888 666.667,-1924"/>
<text text-anchor="middle" x="601.167" y="-1903.2" font-family="Courier,monospace" font-size="11.00">Horde_Application</text>
</g>
<!-- \\Horde_Registry_Application -->
<g id="node51" class="node"><title>\\Horde_Registry_Application</title>
<ellipse fill="none" stroke="black" cx="184.584" cy="-234" rx="115.08" ry="18"/>
<text text-anchor="middle" x="184.584" y="-230.3" font-family="Times,serif" font-size="14.00" fill="gray">\Horde_Registry_Application</text>
</g>
<!-- \\Horde_Application&#45;&gt;\\Horde_Registry_Application -->
<g id="edge15" class="edge"><title>\\Horde_Application&#45;&gt;\\Horde_Registry_Application</title>
<path fill="none" stroke="black" d="M535.275,-1912.62C502.175,-1912.17 464.153,-1905.02 441.167,-1879 322.03,-1744.13 489.793,-394.542 369.167,-261 350.608,-240.454 323.819,-230.66 296.417,-226.715"/>
<polygon fill="none" stroke="black" points="296.651,-223.218 286.308,-225.517 295.827,-230.169 296.651,-223.218"/>
</g>
<!-- \\Horde_View_Sidebar -->
<g id="node17" class="node"><title>\\Horde_View_Sidebar</title>
<polygon fill="none" stroke="black" points="670.167,-1816 532.167,-1816 532.167,-1780 670.167,-1780 670.167,-1816"/>
<text text-anchor="middle" x="601.167" y="-1795.2" font-family="Courier,monospace" font-size="11.00">Horde_View_Sidebar</text>
</g>
<!-- \\Horde_View -->
<g id="node52" class="node"><title>\\Horde_View</title>
<ellipse fill="none" stroke="black" cx="184.584" cy="-180" rx="58.4896" ry="18"/>
<text text-anchor="middle" x="184.584" y="-176.3" font-family="Times,serif" font-size="14.00" fill="gray">\Horde_View</text>
</g>
<!-- \\Horde_View_Sidebar&#45;&gt;\\Horde_View -->
<g id="edge16" class="edge"><title>\\Horde_View_Sidebar&#45;&gt;\\Horde_View</title>
<path fill="none" stroke="black" d="M532.074,-1804.54C499.758,-1803.67 463.43,-1796.16 441.167,-1771 325.899,-1640.71 485.874,-336.005 369.167,-207 339.182,-173.855 287.776,-168.706 246.975,-170.943"/>
<polygon fill="none" stroke="black" points="246.578,-167.462 236.85,-171.658 247.071,-174.445 246.578,-167.462"/>
</g>
<!-- \\Horde_View_Topbar -->
<g id="node18" class="node"><title>\\Horde_View_Topbar</title>
<polygon fill="none" stroke="black" points="666.667,-1870 535.667,-1870 535.667,-1834 666.667,-1834 666.667,-1870"/>
<text text-anchor="middle" x="601.167" y="-1849.2" font-family="Courier,monospace" font-size="11.00">Horde_View_Topbar</text>
</g>
<!-- \\Horde_View_Topbar&#45;&gt;\\Horde_View -->
<g id="edge17" class="edge"><title>\\Horde_View_Topbar&#45;&gt;\\Horde_View</title>
<path fill="none" stroke="black" d="M535.275,-1858.62C502.175,-1858.17 464.153,-1851.02 441.167,-1825 322.03,-1690.13 489.793,-340.542 369.167,-207 339.207,-173.832 287.799,-168.685 246.991,-170.929"/>
<polygon fill="none" stroke="black" points="246.591,-167.448 236.864,-171.646 247.086,-174.431 246.591,-167.448"/>
</g>
<!-- \\Horde_Autoloader_ClassPathMapper_HordeDevel -->
<g id="node19" class="node"><title>\\Horde_Autoloader_ClassPathMapper_HordeDevel</title>
<polygon fill="none" stroke="black" points="754.667,-1762 447.667,-1762 447.667,-1726 754.667,-1726 754.667,-1762"/>
<text text-anchor="middle" x="601.167" y="-1741.2" font-family="Courier,monospace" font-size="11.00">Horde_Autoloader_ClassPathMapper_HordeDevel</text>
</g>
<!-- \\Horde_Autoloader_ClassPathMapper -->
<g id="node53" class="node"><title>\\Horde_Autoloader_ClassPathMapper</title>
<ellipse fill="none" stroke="black" cx="184.584" cy="-126" rx="145.674" ry="18"/>
<text text-anchor="middle" x="184.584" y="-122.3" font-family="Times,serif" font-size="14.00" fill="gray">\Horde_Autoloader_ClassPathMapper</text>
</g>
<!-- \\Horde_Autoloader_ClassPathMapper_HordeDevel&#45;&gt;\\Horde_Autoloader_ClassPathMapper -->
<g id="edge18" class="edge"><title>\\Horde_Autoloader_ClassPathMapper_HordeDevel&#45;&gt;\\Horde_Autoloader_ClassPathMapper</title>
<path fill="none" stroke="black" stroke-dasharray="1,5" d="M450.459,-1725.89C447.153,-1723.21 444.043,-1720.25 441.167,-1717 325.899,-1586.71 485.874,-282.005 369.167,-153 360.641,-143.575 350.382,-136.413 339.127,-131.042"/>
<polygon fill="none" stroke="black" points="340.473,-127.811 329.902,-127.109 337.728,-134.25 340.473,-127.811"/>
</g>
<!-- \\Horde_Prefs_Special_Twitter -->
<g id="node20" class="node"><title>\\Horde_Prefs_Special_Twitter</title>
<polygon fill="none" stroke="black" points="700.667,-1654 501.667,-1654 501.667,-1618 700.667,-1618 700.667,-1654"/>
<text text-anchor="middle" x="601.167" y="-1633.2" font-family="Courier,monospace" font-size="11.00">Horde_Prefs_Special_Twitter</text>
</g>
<!-- \\Horde_Core_Prefs_Ui_Special -->
<g id="node54" class="node"><title>\\Horde_Core_Prefs_Ui_Special</title>
<ellipse fill="none" stroke="black" cx="184.584" cy="-72" rx="122.379" ry="18"/>
<text text-anchor="middle" x="184.584" y="-68.3" font-family="Times,serif" font-size="14.00" fill="gray">\Horde_Core_Prefs_Ui_Special</text>
</g>
<!-- \\Horde_Prefs_Special_Twitter&#45;&gt;\\Horde_Core_Prefs_Ui_Special -->
<g id="edge19" class="edge"><title>\\Horde_Prefs_Special_Twitter&#45;&gt;\\Horde_Core_Prefs_Ui_Special</title>
<path fill="none" stroke="black" stroke-dasharray="1,5" d="M501.587,-1639.5C478.713,-1635.35 456.58,-1626.39 441.167,-1609 329.767,-1483.29 481.955,-223.468 369.167,-99 352.912,-81.0611 330.381,-71.3273 306.659,-66.5272"/>
<polygon fill="none" stroke="black" points="307.251,-63.0777 296.8,-64.8156 306.054,-69.9746 307.251,-63.0777"/>
</g>
<!-- \\Horde_Prefs_Special_Syncml -->
<g id="node21" class="node"><title>\\Horde_Prefs_Special_Syncml</title>
<polygon fill="none" stroke="black" points="697.167,-1600 505.167,-1600 505.167,-1564 697.167,-1564 697.167,-1600"/>
<text text-anchor="middle" x="601.167" y="-1579.2" font-family="Courier,monospace" font-size="11.00">Horde_Prefs_Special_Syncml</text>
</g>
<!-- \\Horde_Prefs_Special_Syncml&#45;&gt;\\Horde_Core_Prefs_Ui_Special -->
<g id="edge20" class="edge"><title>\\Horde_Prefs_Special_Syncml&#45;&gt;\\Horde_Core_Prefs_Ui_Special</title>
<path fill="none" stroke="black" stroke-dasharray="1,5" d="M504.92,-1586.05C480.883,-1582.17 457.339,-1573.22 441.167,-1555 333.634,-1433.87 478.037,-218.931 369.167,-99 352.896,-81.0754 330.358,-71.3475 306.636,-66.5487"/>
<polygon fill="none" stroke="black" points="307.227,-63.0992 296.776,-64.8374 306.03,-69.996 307.227,-63.0992"/>
</g>
<!-- \\Horde_Prefs_Special_Activesync -->
<g id="node22" class="node"><title>\\Horde_Prefs_Special_Activesync</title>
<polygon fill="none" stroke="black" points="710.667,-1546 491.667,-1546 491.667,-1510 710.667,-1510 710.667,-1546"/>
<text text-anchor="middle" x="601.167" y="-1525.2" font-family="Courier,monospace" font-size="11.00">Horde_Prefs_Special_Activesync</text>
</g>
<!-- \\Horde_Prefs_Special_Activesync&#45;&gt;\\Horde_Core_Prefs_Ui_Special -->
<g id="edge21" class="edge"><title>\\Horde_Prefs_Special_Activesync&#45;&gt;\\Horde_Core_Prefs_Ui_Special</title>
<path fill="none" stroke="black" stroke-dasharray="1,5" d="M491.366,-1529.25C472.238,-1524.42 454.286,-1515.75 441.167,-1501 233.837,-1267.9 579.07,-329.789 369.167,-99 353.046,-81.2747 330.797,-71.5699 307.34,-66.7212"/>
<polygon fill="none" stroke="black" points="307.685,-63.2279 297.228,-64.9313 306.465,-70.1208 307.685,-63.2279"/>
</g>
<!-- \\Horde_Prefs_Special_Category -->
<g id="node23" class="node"><title>\\Horde_Prefs_Special_Category</title>
<polygon fill="none" stroke="black" points="704.167,-1492 498.167,-1492 498.167,-1456 704.167,-1456 704.167,-1492"/>
<text text-anchor="middle" x="601.167" y="-1471.2" font-family="Courier,monospace" font-size="11.00">Horde_Prefs_Special_Category</text>
</g>
<!-- \\Horde_Prefs_Special_Category&#45;&gt;\\Horde_Core_Prefs_Ui_Special -->
<g id="edge22" class="edge"><title>\\Horde_Prefs_Special_Category&#45;&gt;\\Horde_Core_Prefs_Ui_Special</title>
<path fill="none" stroke="black" stroke-dasharray="1,5" d="M497.942,-1476.72C476.398,-1472.29 455.792,-1463.41 441.167,-1447 241.571,-1223.06 571.235,-320.716 369.167,-99 353.028,-81.2913 330.771,-71.5933 307.313,-66.7462"/>
<polygon fill="none" stroke="black" points="307.657,-63.2528 297.2,-64.9566 306.437,-70.1457 307.657,-63.2528"/>
</g>
<!-- \\Horde_Prefs_Special_Facebook -->
<g id="node24" class="node"><title>\\Horde_Prefs_Special_Facebook</title>
<polygon fill="none" stroke="black" points="704.167,-1708 498.167,-1708 498.167,-1672 704.167,-1672 704.167,-1708"/>
<text text-anchor="middle" x="601.167" y="-1687.2" font-family="Courier,monospace" font-size="11.00">Horde_Prefs_Special_Facebook</text>
</g>
<!-- \\Horde_Prefs_Special_Facebook&#45;&gt;\\Horde_Core_Prefs_Ui_Special -->
<g id="edge23" class="edge"><title>\\Horde_Prefs_Special_Facebook&#45;&gt;\\Horde_Core_Prefs_Ui_Special</title>
<path fill="none" stroke="black" stroke-dasharray="1,5" d="M497.854,-1692.8C476.314,-1688.37 455.731,-1679.46 441.167,-1663 325.899,-1532.71 485.874,-228.005 369.167,-99 352.926,-81.0477 330.402,-71.3084 306.681,-66.5073"/>
<polygon fill="none" stroke="black" points="307.274,-63.0578 296.822,-64.7954 306.076,-69.9546 307.274,-63.0578"/>
</g>
<!-- \\Horde_Block_Cloud -->
<g id="node25" class="node"><title>\\Horde_Block_Cloud</title>
<polygon fill="none" stroke="black" points="666.667,-736 535.667,-736 535.667,-700 666.667,-700 666.667,-736"/>
<text text-anchor="middle" x="601.167" y="-715.2" font-family="Courier,monospace" font-size="11.00">Horde_Block_Cloud</text>
</g>
<!-- \\Horde_Core_Block -->
<g id="node55" class="node"><title>\\Horde_Core_Block</title>
<ellipse fill="none" stroke="black" cx="184.584" cy="-18" rx="81.7856" ry="18"/>
<text text-anchor="middle" x="184.584" y="-14.3" font-family="Times,serif" font-size="14.00" fill="gray">\Horde_Core_Block</text>
</g>
<!-- \\Horde_Block_Cloud&#45;&gt;\\Horde_Core_Block -->
<g id="edge24" class="edge"><title>\\Horde_Block_Cloud&#45;&gt;\\Horde_Core_Block</title>
<path fill="none" stroke="black" d="M600.242,-699.788C599.535,-611.314 583.934,-223.374 369.167,-45 342.441,-22.8028 305.653,-14.5158 272.024,-12.3586"/>
<polygon fill="none" stroke="black" points="271.855,-8.84701 261.703,-11.8773 271.529,-15.8394 271.855,-8.84701"/>
</g>
<!-- \\Horde_Block_Google -->
<g id="node26" class="node"><title>\\Horde_Block_Google</title>
<polygon fill="none" stroke="black" points="670.167,-1438 532.167,-1438 532.167,-1402 670.167,-1402 670.167,-1438"/>
<text text-anchor="middle" x="601.167" y="-1417.2" font-family="Courier,monospace" font-size="11.00">Horde_Block_Google</text>
</g>
<!-- \\Horde_Block_Google&#45;&gt;\\Horde_Core_Block -->
<g id="edge25" class="edge"><title>\\Horde_Block_Google&#45;&gt;\\Horde_Core_Block</title>
<path fill="none" stroke="black" d="M532.152,-1426.47C499.857,-1425.58 463.523,-1418.08 441.167,-1393 241.571,-1169.06 571.235,-266.716 369.167,-45 343.382,-16.707 301.98,-8.86232 265.015,-8.5788"/>
<polygon fill="none" stroke="black" points="264.685,-5.08202 254.723,-8.68862 264.76,-12.0816 264.685,-5.08202"/>
</g>
<!-- \\Horde_Block_Weather -->
<g id="node27" class="node"><title>\\Horde_Block_Weather</title>
<polygon fill="none" stroke="black" points="673.667,-1384 528.667,-1384 528.667,-1348 673.667,-1348 673.667,-1384"/>
<text text-anchor="middle" x="601.167" y="-1363.2" font-family="Courier,monospace" font-size="11.00">Horde_Block_Weather</text>
</g>
<!-- \\Horde_Block_Weather&#45;&gt;\\Horde_Core_Block -->
<g id="edge26" class="edge"><title>\\Horde_Block_Weather&#45;&gt;\\Horde_Core_Block</title>
<path fill="none" stroke="black" d="M528.527,-1372.32C497.181,-1370.97 462.711,-1363.12 441.167,-1339 249.305,-1124.21 563.4,-257.645 369.167,-45 343.449,-16.8444 302.264,-8.95367 265.414,-8.60717"/>
<polygon fill="none" stroke="black" points="265.12,-5.10956 255.152,-8.69892 265.183,-12.1093 265.12,-5.10956"/>
</g>
<!-- \\Horde_Block_Time -->
<g id="node28" class="node"><title>\\Horde_Block_Time</title>
<polygon fill="none" stroke="black" points="663.667,-1330 538.667,-1330 538.667,-1294 663.667,-1294 663.667,-1330"/>
<text text-anchor="middle" x="601.167" y="-1309.2" font-family="Courier,monospace" font-size="11.00">Horde_Block_Time</text>
</g>
<!-- \\Horde_Block_Time&#45;&gt;\\Horde_Core_Block -->
<g id="edge27" class="edge"><title>\\Horde_Block_Time&#45;&gt;\\Horde_Core_Block</title>
<path fill="none" stroke="black" d="M538.598,-1318.52C504.825,-1318.45 465.075,-1311.7 441.167,-1285 257.038,-1079.37 555.566,-248.574 369.167,-45 343.415,-16.8754 302.228,-8.98709 265.385,-8.63412"/>
<polygon fill="none" stroke="black" points="265.094,-5.13643 255.125,-8.72383 265.155,-12.1362 265.094,-5.13643"/>
</g>
<!-- \\Horde_Block_FbStream -->
<g id="node29" class="node"><title>\\Horde_Block_FbStream</title>
<polygon fill="none" stroke="black" points="677.167,-1276 525.167,-1276 525.167,-1240 677.167,-1240 677.167,-1276"/>
<text text-anchor="middle" x="601.167" y="-1255.2" font-family="Courier,monospace" font-size="11.00">Horde_Block_FbStream</text>
</g>
<!-- \\Horde_Block_FbStream&#45;&gt;\\Horde_Core_Block -->
<g id="edge28" class="edge"><title>\\Horde_Block_FbStream&#45;&gt;\\Horde_Core_Block</title>
<path fill="none" stroke="black" d="M524.906,-1264.08C494.581,-1262.27 461.93,-1254.13 441.167,-1231 264.77,-1034.53 547.733,-239.504 369.167,-45 343.378,-16.9094 302.188,-9.02359 265.353,-8.66355"/>
<polygon fill="none" stroke="black" points="265.065,-5.16578 255.095,-8.75103 265.124,-12.1655 265.065,-5.16578"/>
</g>
<!-- \\Horde_Block_Moon -->
<g id="node30" class="node"><title>\\Horde_Block_Moon</title>
<polygon fill="none" stroke="black" points="663.667,-1222 538.667,-1222 538.667,-1186 663.667,-1186 663.667,-1222"/>
<text text-anchor="middle" x="601.167" y="-1201.2" font-family="Courier,monospace" font-size="11.00">Horde_Block_Moon</text>
</g>
<!-- \\Horde_Block_Moon&#45;&gt;\\Horde_Core_Block -->
<g id="edge29" class="edge"><title>\\Horde_Block_Moon&#45;&gt;\\Horde_Core_Block</title>
<path fill="none" stroke="black" d="M538.653,-1210.47C504.899,-1210.38 465.149,-1203.63 441.167,-1177 272.501,-989.683 539.901,-230.435 369.167,-45 343.338,-16.9466 302.144,-9.06362 265.317,-8.69583"/>
<polygon fill="none" stroke="black" points="265.033,-5.19797 255.063,-8.78086 265.091,-12.1977 265.033,-5.19797"/>
</g>
<!-- \\Horde_Block_Feed -->
<g id="node31" class="node"><title>\\Horde_Block_Feed</title>
<polygon fill="none" stroke="black" points="663.667,-1168 538.667,-1168 538.667,-1132 663.667,-1132 663.667,-1168"/>
<text text-anchor="middle" x="601.167" y="-1147.2" font-family="Courier,monospace" font-size="11.00">Horde_Block_Feed</text>
</g>
<!-- \\Horde_Block_Feed&#45;&gt;\\Horde_Core_Block -->
<g id="edge30" class="edge"><title>\\Horde_Block_Feed&#45;&gt;\\Horde_Core_Block</title>
<path fill="none" stroke="black" d="M538.289,-1156.44C504.631,-1156.29 465.097,-1149.49 441.167,-1123 280.231,-944.837 532.07,-221.368 369.167,-45 343.293,-16.9876 302.097,-9.10771 265.279,-8.73139"/>
<polygon fill="none" stroke="black" points="264.998,-5.23343 255.027,-8.81373 265.055,-12.2332 264.998,-5.23343"/>
</g>
<!-- \\Horde_Block_Metar -->
<g id="node32" class="node"><title>\\Horde_Block_Metar</title>
<polygon fill="none" stroke="black" points="666.667,-1114 535.667,-1114 535.667,-1078 666.667,-1078 666.667,-1114"/>
<text text-anchor="middle" x="601.167" y="-1093.2" font-family="Courier,monospace" font-size="11.00">Horde_Block_Metar</text>
</g>
<!-- \\Horde_Block_Metar&#45;&gt;\\Horde_Core_Block -->
<g id="edge31" class="edge"><title>\\Horde_Block_Metar&#45;&gt;\\Horde_Core_Block</title>
<path fill="none" stroke="black" d="M535.541,-1102.38C502.518,-1101.86 464.485,-1094.72 441.167,-1069 287.959,-899.989 524.24,-212.302 369.167,-45 343.345,-17.141 302.362,-9.21764 265.663,-8.77555"/>
<polygon fill="none" stroke="black" points="265.42,-5.27689 255.442,-8.8389 265.463,-12.2768 265.42,-5.27689"/>
</g>
<!-- \\Horde_Block_Account_Localhost -->
<g id="node33" class="node"><title>\\Horde_Block_Account_Localhost</title>
<polygon fill="none" stroke="black" points="707.167,-2788 495.167,-2788 495.167,-2752 707.167,-2752 707.167,-2788"/>
<text text-anchor="middle" x="601.167" y="-2767.2" font-family="Courier,monospace" font-size="11.00">Horde_Block_Account_Localhost</text>
</g>
<!-- \\Horde_Block_Account_Base -->
<g id="node35" class="node"><title>\\Horde_Block_Account_Base</title>
<polygon fill="none" stroke="black" points="274.084,-2842 95.0836,-2842 95.0836,-2806 274.084,-2806 274.084,-2842"/>
<text text-anchor="middle" x="184.584" y="-2821.2" font-family="Courier,monospace" font-size="11.00">Horde_Block_Account_Base</text>
</g>
<!-- \\Horde_Block_Account_Localhost&#45;&gt;\\Horde_Block_Account_Base -->
<g id="edge32" class="edge"><title>\\Horde_Block_Account_Localhost&#45;&gt;\\Horde_Block_Account_Base</title>
<path fill="none" stroke="black" d="M495.014,-2783.7C430.231,-2792.13 347.703,-2802.88 284.173,-2811.16"/>
<polygon fill="none" stroke="black" points="283.609,-2807.7 274.145,-2812.46 284.514,-2814.64 283.609,-2807.7"/>
</g>
<!-- \\Horde_Block_Account_Finger -->
<g id="node34" class="node"><title>\\Horde_Block_Account_Finger</title>
<polygon fill="none" stroke="black" points="697.167,-2896 505.167,-2896 505.167,-2860 697.167,-2860 697.167,-2896"/>
<text text-anchor="middle" x="601.167" y="-2875.2" font-family="Courier,monospace" font-size="11.00">Horde_Block_Account_Finger</text>
</g>
<!-- \\Horde_Block_Account_Finger&#45;&gt;\\Horde_Block_Account_Base -->
<g id="edge33" class="edge"><title>\\Horde_Block_Account_Finger&#45;&gt;\\Horde_Block_Account_Base</title>
<path fill="none" stroke="black" d="M505.053,-2865.61C438.997,-2857.01 351.193,-2845.57 284.353,-2836.86"/>
<polygon fill="none" stroke="black" points="284.599,-2833.37 274.231,-2835.55 283.695,-2840.31 284.599,-2833.37"/>
</g>
<!-- \\Horde_Block_Account_Ldap -->
<g id="node36" class="node"><title>\\Horde_Block_Account_Ldap</title>
<polygon fill="none" stroke="black" points="690.667,-2842 511.667,-2842 511.667,-2806 690.667,-2806 690.667,-2842"/>
<text text-anchor="middle" x="601.167" y="-2821.2" font-family="Courier,monospace" font-size="11.00">Horde_Block_Account_Ldap</text>
</g>
<!-- \\Horde_Block_Account_Ldap&#45;&gt;\\Horde_Block_Account_Base -->
<g id="edge34" class="edge"><title>\\Horde_Block_Account_Ldap&#45;&gt;\\Horde_Block_Account_Base</title>
<path fill="none" stroke="black" d="M511.483,-2824C444.714,-2824 353.203,-2824 284.147,-2824"/>
<polygon fill="none" stroke="black" points="284.127,-2820.5 274.127,-2824 284.127,-2827.5 284.127,-2820.5"/>
</g>
<!-- \\Horde_Block_Fortune -->
<g id="node37" class="node"><title>\\Horde_Block_Fortune</title>
<polygon fill="none" stroke="black" points="673.667,-1060 528.667,-1060 528.667,-1024 673.667,-1024 673.667,-1060"/>
<text text-anchor="middle" x="601.167" y="-1039.2" font-family="Courier,monospace" font-size="11.00">Horde_Block_Fortune</text>
</g>
<!-- \\Horde_Block_Fortune&#45;&gt;\\Horde_Core_Block -->
<g id="edge35" class="edge"><title>\\Horde_Block_Fortune&#45;&gt;\\Horde_Core_Block</title>
<path fill="none" stroke="black" d="M528.321,-1048.12C497.126,-1046.68 462.839,-1038.81 441.167,-1015 295.686,-855.139 516.412,-203.237 369.167,-45 343.29,-17.1913 302.303,-9.27194 265.616,-8.81948"/>
<polygon fill="none" stroke="black" points="265.377,-5.32073 255.398,-8.87955 265.418,-12.3206 265.377,-5.32073"/>
</g>
<!-- \\Horde_Block_Vatid -->
<g id="node38" class="node"><title>\\Horde_Block_Vatid</title>
<polygon fill="none" stroke="black" points="666.667,-1006 535.667,-1006 535.667,-970 666.667,-970 666.667,-1006"/>
<text text-anchor="middle" x="601.167" y="-985.2" font-family="Courier,monospace" font-size="11.00">Horde_Block_Vatid</text>
</g>
<!-- \\Horde_Block_Vatid&#45;&gt;\\Horde_Core_Block -->
<g id="edge36" class="edge"><title>\\Horde_Block_Vatid&#45;&gt;\\Horde_Core_Block</title>
<path fill="none" stroke="black" d="M535.625,-994.308C502.628,-993.763 464.591,-986.627 441.167,-961 303.411,-810.288 508.586,-194.175 369.167,-45 343.23,-17.2477 302.238,-9.33273 265.563,-8.86867"/>
<polygon fill="none" stroke="black" points="265.33,-5.36981 255.349,-8.92507 265.368,-12.3697 265.33,-5.36981"/>
</g>
<!-- \\Horde_Block_Account -->
<g id="node39" class="node"><title>\\Horde_Block_Account</title>
<polygon fill="none" stroke="black" points="673.667,-952 528.667,-952 528.667,-916 673.667,-916 673.667,-952"/>
<text text-anchor="middle" x="601.167" y="-931.2" font-family="Courier,monospace" font-size="11.00">Horde_Block_Account</text>
</g>
<!-- \\Horde_Block_Account&#45;&gt;\\Horde_Core_Block -->
<g id="edge37" class="edge"><title>\\Horde_Block_Account&#45;&gt;\\Horde_Core_Block</title>
<path fill="none" stroke="black" d="M528.421,-940.032C497.247,-938.571 462.949,-930.714 441.167,-907 311.134,-765.434 500.762,-185.115 369.167,-45 343.263,-17.4185 302.483,-9.46287 265.93,-8.93"/>
<polygon fill="none" stroke="black" points="265.736,-5.43058 255.748,-8.9664 265.761,-12.4305 265.736,-5.43058"/>
</g>
<!-- \\Horde_Block_Iframe -->
<g id="node40" class="node"><title>\\Horde_Block_Iframe</title>
<polygon fill="none" stroke="black" points="670.167,-898 532.167,-898 532.167,-862 670.167,-862 670.167,-898"/>
<text text-anchor="middle" x="601.167" y="-877.2" font-family="Courier,monospace" font-size="11.00">Horde_Block_Iframe</text>
</g>
<!-- \\Horde_Block_Iframe&#45;&gt;\\Horde_Core_Block -->
<g id="edge38" class="edge"><title>\\Horde_Block_Iframe&#45;&gt;\\Horde_Core_Block</title>
<path fill="none" stroke="black" d="M532.123,-886.121C500.023,-885.094 463.87,-877.579 441.167,-853 318.854,-720.577 492.941,-176.058 369.167,-45 343.187,-17.4904 302.4,-9.54067 265.863,-8.99315"/>
<polygon fill="none" stroke="black" points="265.675,-5.49362 255.686,-9.02491 265.697,-12.4936 265.675,-5.49362"/>
</g>
<!-- \\Horde_Block_Sunrise -->
<g id="node41" class="node"><title>\\Horde_Block_Sunrise</title>
<polygon fill="none" stroke="black" points="673.667,-844 528.667,-844 528.667,-808 673.667,-808 673.667,-844"/>
<text text-anchor="middle" x="601.167" y="-823.2" font-family="Courier,monospace" font-size="11.00">Horde_Block_Sunrise</text>
</g>
<!-- \\Horde_Block_Sunrise&#45;&gt;\\Horde_Core_Block -->
<g id="edge39" class="edge"><title>\\Horde_Block_Sunrise&#45;&gt;\\Horde_Core_Block</title>
<path fill="none" stroke="black" d="M528.549,-831.914C497.402,-830.428 463.089,-822.584 441.167,-799 326.571,-675.717 485.123,-167.004 369.167,-45 343.201,-17.6794 302.623,-9.6919 266.213,-9.07242"/>
<polygon fill="none" stroke="black" points="266.066,-5.57248 256.07,-9.08314 266.074,-12.5725 266.066,-5.57248"/>
</g>
<!-- \\Horde_Block_TwitterTimeline -->
<g id="node42" class="node"><title>\\Horde_Block_TwitterTimeline</title>
<polygon fill="none" stroke="black" points="700.667,-790 501.667,-790 501.667,-754 700.667,-754 700.667,-790"/>
<text text-anchor="middle" x="601.167" y="-769.2" font-family="Courier,monospace" font-size="11.00">Horde_Block_TwitterTimeline</text>
</g>
<!-- \\Horde_Block_TwitterTimeline&#45;&gt;\\Horde_Core_Block -->
<g id="edge40" class="edge"><title>\\Horde_Block_TwitterTimeline&#45;&gt;\\Horde_Core_Block</title>
<path fill="none" stroke="black" d="M501.406,-774.763C478.813,-770.552 456.86,-761.759 441.167,-745 334.284,-630.853 477.309,-157.955 369.167,-45 343.102,-17.7743 302.515,-9.79494 266.125,-9.15634"/>
<polygon fill="none" stroke="black" points="265.987,-5.65631 255.988,-9.161 265.99,-12.6563 265.987,-5.65631"/>
</g>
</g>
</svg>
