<?xml version="1.0" encoding="UTF-8" standalone="no"?>
<!DOCTYPE svg PUBLIC "-//W3C//DTD SVG 1.1//EN"
 "http://www.w3.org/Graphics/SVG/1.1/DTD/svg11.dtd">
<!-- Generated by graphviz version 2.38.0 (20140413.2041)
 -->
<!-- Title: G Pages: 1 -->
<svg width="792pt" height="726pt"
 viewBox="0.00 0.00 792.38 726.00" xmlns="http://www.w3.org/2000/svg" xmlns:xlink="http://www.w3.org/1999/xlink">
<g id="graph0" class="graph" transform="scale(1 1) rotate(0) translate(4 722)">
<title>G</title>
<polygon fill="white" stroke="none" points="-4,4 -4,-722 788.378,-722 788.378,4 -4,4"/>
<g id="clust1" class="cluster"><title>cluster_Global</title>
<path fill="none" stroke="gray" d="M20,-98C20,-98 764.378,-98 764.378,-98 770.378,-98 776.378,-104 776.378,-110 776.378,-110 776.378,-698 776.378,-698 776.378,-704 770.378,-710 764.378,-710 764.378,-710 20,-710 20,-710 14,-710 8,-704 8,-698 8,-698 8,-110 8,-110 8,-104 14,-98 20,-98"/>
<text text-anchor="middle" x="392.189" y="-697.2" font-family="Times,serif" font-size="11.00" fill="gray">Global</text>
</g>
<!-- \\Horde_Push_Exception -->
<g id="node1" class="node"><title>\\Horde_Push_Exception</title>
<polygon fill="none" stroke="black" points="738.378,-358 586.378,-358 586.378,-322 738.378,-322 738.378,-358"/>
<text text-anchor="middle" x="662.378" y="-337.2" font-family="Courier,monospace" font-size="11.00">Horde_Push_Exception</text>
</g>
<!-- \\Horde_Exception_Wrapped -->
<g id="node14" class="node"><title>\\Horde_Exception_Wrapped</title>
<ellipse fill="none" stroke="black" cx="362.189" cy="-72" rx="112.38" ry="18"/>
<text text-anchor="middle" x="362.189" y="-68.3" font-family="Times,serif" font-size="14.00" fill="gray">\Horde_Exception_Wrapped</text>
</g>
<!-- \\Horde_Push_Exception&#45;&gt;\\Horde_Exception_Wrapped -->
<g id="edge1" class="edge"><title>\\Horde_Push_Exception&#45;&gt;\\Horde_Exception_Wrapped</title>
<path fill="none" stroke="black" d="M586.28,-330.626C575.279,-326.579 564.829,-320.911 556.378,-313 481.58,-242.979 561.652,-161.28 484.378,-94 480.349,-90.4918 475.952,-87.4588 471.297,-84.8417"/>
<polygon fill="none" stroke="black" points="472.576,-81.5706 462.057,-80.3058 469.491,-87.8543 472.576,-81.5706"/>
</g>
<!-- \\Horde_Push_Cli -->
<g id="node2" class="node"><title>\\Horde_Push_Cli</title>
<polygon fill="none" stroke="black" points="717.878,-628 606.878,-628 606.878,-592 717.878,-592 717.878,-628"/>
<text text-anchor="middle" x="662.378" y="-607.2" font-family="Courier,monospace" font-size="11.00">Horde_Push_Cli</text>
</g>
<!-- \\Horde_Push_Recipient_Twitter -->
<g id="node3" class="node"><title>\\Horde_Push_Recipient_Twitter</title>
<polygon fill="none" stroke="black" points="765.378,-574 559.378,-574 559.378,-538 765.378,-538 765.378,-574"/>
<text text-anchor="middle" x="662.378" y="-553.2" font-family="Courier,monospace" font-size="11.00">Horde_Push_Recipient_Twitter</text>
</g>
<!-- \\Horde_Push_Recipient_Base -->
<g id="node8" class="node"><title>\\Horde_Push_Recipient_Base</title>
<polygon fill="none" stroke="black" points="454.689,-520 269.689,-520 269.689,-484 454.689,-484 454.689,-520"/>
<text text-anchor="start" x="328.189" y="-505.2" font-family="Courier,monospace" font-size="11.00">«abstract»</text>
<text text-anchor="start" x="277.689" y="-493.2" font-family="Courier,monospace" font-size="11.00">Horde_Push_Recipient_Base</text>
</g>
<!-- \\Horde_Push_Recipient_Twitter&#45;&gt;\\Horde_Push_Recipient_Base -->
<g id="edge2" class="edge"><title>\\Horde_Push_Recipient_Twitter&#45;&gt;\\Horde_Push_Recipient_Base</title>
<path fill="none" stroke="black" d="M561.671,-537.944C530.505,-532.3 496.093,-526.068 464.798,-520.401"/>
<polygon fill="none" stroke="black" points="465.219,-516.92 454.755,-518.582 463.971,-523.808 465.219,-516.92"/>
</g>
<!-- \\Horde_Push_Recipient_Blogger -->
<g id="node4" class="node"><title>\\Horde_Push_Recipient_Blogger</title>
<polygon fill="none" stroke="black" points="765.378,-520 559.378,-520 559.378,-484 765.378,-484 765.378,-520"/>
<text text-anchor="middle" x="662.378" y="-499.2" font-family="Courier,monospace" font-size="11.00">Horde_Push_Recipient_Blogger</text>
</g>
<!-- \\Horde_Push_Recipient_Blogger&#45;&gt;\\Horde_Push_Recipient_Base -->
<g id="edge3" class="edge"><title>\\Horde_Push_Recipient_Blogger&#45;&gt;\\Horde_Push_Recipient_Base</title>
<path fill="none" stroke="black" d="M559.176,-502C528.73,-502 495.38,-502 464.962,-502"/>
<polygon fill="none" stroke="black" points="464.767,-498.5 454.767,-502 464.767,-505.5 464.767,-498.5"/>
</g>
<!-- \\Horde_Push_Recipient_Mock -->
<g id="node5" class="node"><title>\\Horde_Push_Recipient_Mock</title>
<polygon fill="none" stroke="black" points="754.878,-466 569.878,-466 569.878,-430 754.878,-430 754.878,-466"/>
<text text-anchor="middle" x="662.378" y="-445.2" font-family="Courier,monospace" font-size="11.00">Horde_Push_Recipient_Mock</text>
</g>
<!-- \\Horde_Push_Recipient_Mock&#45;&gt;\\Horde_Push_Recipient_Base -->
<g id="edge4" class="edge"><title>\\Horde_Push_Recipient_Mock&#45;&gt;\\Horde_Push_Recipient_Base</title>
<path fill="none" stroke="black" d="M569.479,-464.642C536.304,-470.65 498.677,-477.464 464.725,-483.613"/>
<polygon fill="none" stroke="black" points="464.002,-480.187 454.785,-485.413 465.249,-487.075 464.002,-480.187"/>
</g>
<!-- \\Horde_Push_Recipient_Mail -->
<g id="node6" class="node"><title>\\Horde_Push_Recipient_Mail</title>
<polygon fill="none" stroke="black" points="754.878,-412 569.878,-412 569.878,-376 754.878,-376 754.878,-412"/>
<text text-anchor="middle" x="662.378" y="-391.2" font-family="Courier,monospace" font-size="11.00">Horde_Push_Recipient_Mail</text>
</g>
<!-- \\Horde_Push_Recipient_Mail&#45;&gt;\\Horde_Push_Recipient_Base -->
<g id="edge5" class="edge"><title>\\Horde_Push_Recipient_Mail&#45;&gt;\\Horde_Push_Recipient_Base</title>
<path fill="none" stroke="black" d="M585.853,-412.01C575.875,-414.801 565.834,-417.821 556.378,-421 505.85,-437.989 449.849,-462.078 411.207,-479.567"/>
<polygon fill="none" stroke="black" points="409.422,-476.534 401.771,-483.863 412.323,-482.905 409.422,-476.534"/>
</g>
<!-- \\Horde_Push_Recipient_Facebook -->
<g id="node7" class="node"><title>\\Horde_Push_Recipient_Facebook</title>
<polygon fill="none" stroke="black" points="768.378,-682 556.378,-682 556.378,-646 768.378,-646 768.378,-682"/>
<text text-anchor="middle" x="662.378" y="-661.2" font-family="Courier,monospace" font-size="11.00">Horde_Push_Recipient_Facebook</text>
</g>
<!-- \\Horde_Push_Recipient_Facebook&#45;&gt;\\Horde_Push_Recipient_Base -->
<g id="edge6" class="edge"><title>\\Horde_Push_Recipient_Facebook&#45;&gt;\\Horde_Push_Recipient_Base</title>
<path fill="none" stroke="black" d="M579.266,-645.956C571.396,-643.316 563.647,-640.341 556.378,-637 492.434,-607.611 427.21,-556.776 391.289,-526.577"/>
<polygon fill="none" stroke="black" points="393.544,-523.901 383.655,-520.098 389.014,-529.237 393.544,-523.901"/>
</g>
<!-- \\Horde_Push_Recipient -->
<g id="node13" class="node"><title>\\Horde_Push_Recipient</title>
<polygon fill="none" stroke="black" points="168,-520 16,-520 16,-484 168,-484 168,-520"/>
<text text-anchor="middle" x="92" y="-499.2" font-family="Courier,monospace" font-size="11.00">Horde_Push_Recipient</text>
</g>
<!-- \\Horde_Push_Recipient_Base&#45;&gt;\\Horde_Push_Recipient -->
<g id="edge7" class="edge"><title>\\Horde_Push_Recipient_Base&#45;&gt;\\Horde_Push_Recipient</title>
<path fill="none" stroke="black" stroke-dasharray="1,5" d="M269.644,-502C240.053,-502 207.378,-502 178.261,-502"/>
<polygon fill="none" stroke="black" points="178.121,-498.5 168.121,-502 178.121,-505.5 178.121,-498.5"/>
</g>
<!-- \\Horde_Push_Factory_Recipients -->
<g id="node9" class="node"><title>\\Horde_Push_Factory_Recipients</title>
<polygon fill="none" stroke="black" points="768.378,-304 556.378,-304 556.378,-268 768.378,-268 768.378,-304"/>
<text text-anchor="middle" x="662.378" y="-283.2" font-family="Courier,monospace" font-size="11.00">Horde_Push_Factory_Recipients</text>
</g>
<!-- \\Horde_Push_Factory_Push -->
<g id="node10" class="node"><title>\\Horde_Push_Factory_Push</title>
<polygon fill="none" stroke="black" points="748.378,-250 576.378,-250 576.378,-214 748.378,-214 748.378,-250"/>
<text text-anchor="middle" x="662.378" y="-229.2" font-family="Courier,monospace" font-size="11.00">Horde_Push_Factory_Push</text>
</g>
<!-- \\Horde_Push_Translation -->
<g id="node11" class="node"><title>\\Horde_Push_Translation</title>
<polygon fill="none" stroke="black" points="744.878,-196 579.878,-196 579.878,-160 744.878,-160 744.878,-196"/>
<text text-anchor="middle" x="662.378" y="-175.2" font-family="Courier,monospace" font-size="11.00">Horde_Push_Translation</text>
</g>
<!-- \\Horde_Translation_Autodetect -->
<g id="node15" class="node"><title>\\Horde_Translation_Autodetect</title>
<ellipse fill="none" stroke="black" cx="362.189" cy="-18" rx="122.379" ry="18"/>
<text text-anchor="middle" x="362.189" y="-14.3" font-family="Times,serif" font-size="14.00" fill="gray">\Horde_Translation_Autodetect</text>
</g>
<!-- \\Horde_Push_Translation&#45;&gt;\\Horde_Translation_Autodetect -->
<g id="edge8" class="edge"><title>\\Horde_Push_Translation&#45;&gt;\\Horde_Translation_Autodetect</title>
<path fill="none" stroke="black" d="M579.628,-163.357C571.388,-160.043 563.461,-155.981 556.378,-151 509.793,-118.239 531.489,-77.0006 484.378,-45 477.723,-40.4793 470.432,-36.7029 462.833,-33.5498"/>
<polygon fill="none" stroke="black" points="464.024,-30.2584 453.432,-30.0048 461.554,-36.8082 464.024,-30.2584"/>
</g>
<!-- \\Horde_Push -->
<g id="node12" class="node"><title>\\Horde_Push</title>
<polygon fill="none" stroke="black" points="704.378,-142 620.378,-142 620.378,-106 704.378,-106 704.378,-142"/>
<text text-anchor="middle" x="662.378" y="-121.2" font-family="Courier,monospace" font-size="11.00">Horde_Push</text>
</g>
</g>
</svg>
