<?xml version="1.0" encoding="UTF-8" standalone="no"?>
<!DOCTYPE svg PUBLIC "-//W3C//DTD SVG 1.1//EN"
 "http://www.w3.org/Graphics/SVG/1.1/DTD/svg11.dtd">
<!-- Generated by graphviz version 2.38.0 (20140413.2041)
 -->
<!-- Title: G Pages: 1 -->
<svg width="491pt" height="888pt"
 viewBox="0.00 0.00 491.08 888.00" xmlns="http://www.w3.org/2000/svg" xmlns:xlink="http://www.w3.org/1999/xlink">
<g id="graph0" class="graph" transform="scale(1 1) rotate(0) translate(4 884)">
<title>G</title>
<polygon fill="white" stroke="none" points="-4,4 -4,-884 487.08,-884 487.08,4 -4,4"/>
<g id="clust1" class="cluster"><title>cluster_Global</title>
<path fill="none" stroke="gray" d="M63.5398,-260C63.5398,-260 463.08,-260 463.08,-260 469.08,-260 475.08,-266 475.08,-272 475.08,-272 475.08,-860 475.08,-860 475.08,-866 469.08,-872 463.08,-872 463.08,-872 63.5398,-872 63.5398,-872 57.5398,-872 51.5398,-866 51.5398,-860 51.5398,-860 51.5398,-272 51.5398,-272 51.5398,-266 57.5398,-260 63.5398,-260"/>
<text text-anchor="middle" x="263.31" y="-859.2" font-family="Times,serif" font-size="11.00" fill="gray">Global</text>
</g>
<!-- \\Ulaform_Action_Mailto -->
<g id="node1" class="node"><title>\\Ulaform_Action_Mailto</title>
<polygon fill="none" stroke="black" points="463.58,-844 305.58,-844 305.58,-808 463.58,-808 463.58,-844"/>
<text text-anchor="middle" x="384.58" y="-823.2" font-family="Courier,monospace" font-size="11.00">Ulaform_Action_Mailto</text>
</g>
<!-- \\Ulaform_Action -->
<g id="node9" class="node"><title>\\Ulaform_Action</title>
<polygon fill="none" stroke="black" points="170.54,-817 59.5398,-817 59.5398,-781 170.54,-781 170.54,-817"/>
<text text-anchor="middle" x="115.04" y="-796.2" font-family="Courier,monospace" font-size="11.00">Ulaform_Action</text>
</g>
<!-- \\Ulaform_Action_Mailto&#45;&gt;\\Ulaform_Action -->
<g id="edge1" class="edge"><title>\\Ulaform_Action_Mailto&#45;&gt;\\Ulaform_Action</title>
<path fill="none" stroke="black" d="M305.477,-818.118C266.002,-814.134 218.657,-809.356 181.173,-805.573"/>
<polygon fill="none" stroke="black" points="181.178,-802.056 170.877,-804.534 180.475,-809.021 181.178,-802.056"/>
</g>
<!-- \\Ulaform_Action_Sql -->
<g id="node2" class="node"><title>\\Ulaform_Action_Sql</title>
<polygon fill="none" stroke="black" points="453.58,-790 315.58,-790 315.58,-754 453.58,-754 453.58,-790"/>
<text text-anchor="middle" x="384.58" y="-769.2" font-family="Courier,monospace" font-size="11.00">Ulaform_Action_Sql</text>
</g>
<!-- \\Ulaform_Action_Sql&#45;&gt;\\Ulaform_Action -->
<g id="edge2" class="edge"><title>\\Ulaform_Action_Sql&#45;&gt;\\Ulaform_Action</title>
<path fill="none" stroke="black" d="M315.376,-778.883C273.987,-783.06 221.473,-788.36 180.736,-792.471"/>
<polygon fill="none" stroke="black" points="180.245,-789.003 170.647,-793.489 180.948,-795.967 180.245,-789.003"/>
</g>
<!-- \\Ulaform_Api -->
<g id="node3" class="node"><title>\\Ulaform_Api</title>
<polygon fill="none" stroke="black" points="430.08,-682 339.08,-682 339.08,-646 430.08,-646 430.08,-682"/>
<text text-anchor="middle" x="384.58" y="-661.2" font-family="Courier,monospace" font-size="11.00">Ulaform_Api</text>
</g>
<!-- \\Horde_Registry_Api -->
<g id="node14" class="node"><title>\\Horde_Registry_Api</title>
<ellipse fill="none" stroke="black" cx="115.04" cy="-234" rx="87.1846" ry="18"/>
<text text-anchor="middle" x="115.04" y="-230.3" font-family="Times,serif" font-size="14.00" fill="gray">\Horde_Registry_Api</text>
</g>
<!-- \\Ulaform_Api&#45;&gt;\\Horde_Registry_Api -->
<g id="edge3" class="edge"><title>\\Ulaform_Api&#45;&gt;\\Horde_Registry_Api</title>
<path fill="none" stroke="black" d="M338.909,-658.163C325.319,-654.258 311.502,-647.769 302.08,-637 188.599,-507.308 351.704,-378.087 230.08,-256 224.226,-250.124 217.31,-245.569 209.823,-242.061"/>
<polygon fill="none" stroke="black" points="210.656,-238.624 200.071,-238.157 208.054,-245.123 210.656,-238.624"/>
</g>
<!-- \\Ulaform_Test -->
<g id="node4" class="node"><title>\\Ulaform_Test</title>
<polygon fill="none" stroke="black" points="433.58,-628 335.58,-628 335.58,-592 433.58,-592 433.58,-628"/>
<text text-anchor="middle" x="384.58" y="-607.2" font-family="Courier,monospace" font-size="11.00">Ulaform_Test</text>
</g>
<!-- \\Horde_Test -->
<g id="node15" class="node"><title>\\Horde_Test</title>
<ellipse fill="none" stroke="black" cx="115.04" cy="-180" rx="54.6905" ry="18"/>
<text text-anchor="middle" x="115.04" y="-176.3" font-family="Times,serif" font-size="14.00" fill="gray">\Horde_Test</text>
</g>
<!-- \\Ulaform_Test&#45;&gt;\\Horde_Test -->
<g id="edge4" class="edge"><title>\\Ulaform_Test&#45;&gt;\\Horde_Test</title>
<path fill="none" stroke="black" d="M335.525,-603.118C323.062,-599.133 310.729,-592.861 302.08,-583 189.881,-455.087 347.76,-329.888 230.08,-207 216.958,-193.298 198.267,-185.996 179.803,-182.249"/>
<polygon fill="none" stroke="black" points="180.351,-178.792 169.904,-180.556 179.171,-185.692 180.351,-178.792"/>
</g>
<!-- \\Ulaform_Exception -->
<g id="node5" class="node"><title>\\Ulaform_Exception</title>
<polygon fill="none" stroke="black" points="450.08,-574 319.08,-574 319.08,-538 450.08,-538 450.08,-574"/>
<text text-anchor="middle" x="384.58" y="-553.2" font-family="Courier,monospace" font-size="11.00">Ulaform_Exception</text>
</g>
<!-- \\Horde_Exception_Wrapped -->
<g id="node16" class="node"><title>\\Horde_Exception_Wrapped</title>
<ellipse fill="none" stroke="black" cx="115.04" cy="-126" rx="112.38" ry="18"/>
<text text-anchor="middle" x="115.04" y="-122.3" font-family="Times,serif" font-size="14.00" fill="gray">\Horde_Exception_Wrapped</text>
</g>
<!-- \\Ulaform_Exception&#45;&gt;\\Horde_Exception_Wrapped -->
<g id="edge5" class="edge"><title>\\Ulaform_Exception&#45;&gt;\\Horde_Exception_Wrapped</title>
<path fill="none" stroke="black" d="M318.944,-542.144C312.611,-538.69 306.797,-534.379 302.08,-529 189.881,-401.087 347.76,-275.888 230.08,-153 225.797,-148.528 220.922,-144.738 215.655,-141.531"/>
<polygon fill="none" stroke="black" points="216.933,-138.248 206.457,-136.666 213.66,-144.435 216.933,-138.248"/>
</g>
<!-- \\Ulaform_Application -->
<g id="node6" class="node"><title>\\Ulaform_Application</title>
<polygon fill="none" stroke="black" points="457.08,-520 312.08,-520 312.08,-484 457.08,-484 457.08,-520"/>
<text text-anchor="middle" x="384.58" y="-499.2" font-family="Courier,monospace" font-size="11.00">Ulaform_Application</text>
</g>
<!-- \\Horde_Registry_Application -->
<g id="node17" class="node"><title>\\Horde_Registry_Application</title>
<ellipse fill="none" stroke="black" cx="115.04" cy="-72" rx="115.08" ry="18"/>
<text text-anchor="middle" x="115.04" y="-68.3" font-family="Times,serif" font-size="14.00" fill="gray">\Horde_Registry_Application</text>
</g>
<!-- \\Ulaform_Application&#45;&gt;\\Horde_Registry_Application -->
<g id="edge6" class="edge"><title>\\Ulaform_Application&#45;&gt;\\Horde_Registry_Application</title>
<path fill="none" stroke="black" d="M312.069,-483.885C308.405,-481.306 305.028,-478.362 302.08,-475 189.881,-347.087 347.76,-221.888 230.08,-99 225.888,-94.6226 221.127,-90.8983 215.987,-87.7345"/>
<polygon fill="none" stroke="black" points="217.479,-84.5631 207.012,-82.9227 214.172,-90.7324 217.479,-84.5631"/>
</g>
<!-- \\Ulaform_Driver_Sql -->
<g id="node7" class="node"><title>\\Ulaform_Driver_Sql</title>
<polygon fill="none" stroke="black" points="453.58,-736 315.58,-736 315.58,-700 453.58,-700 453.58,-736"/>
<text text-anchor="middle" x="384.58" y="-715.2" font-family="Courier,monospace" font-size="11.00">Ulaform_Driver_Sql</text>
</g>
<!-- \\Ulaform_Driver -->
<g id="node8" class="node"><title>\\Ulaform_Driver</title>
<polygon fill="none" stroke="black" points="170.54,-736 59.5398,-736 59.5398,-700 170.54,-700 170.54,-736"/>
<text text-anchor="middle" x="115.04" y="-715.2" font-family="Courier,monospace" font-size="11.00">Ulaform_Driver</text>
</g>
<!-- \\Ulaform_Driver_Sql&#45;&gt;\\Ulaform_Driver -->
<g id="edge7" class="edge"><title>\\Ulaform_Driver_Sql&#45;&gt;\\Ulaform_Driver</title>
<path fill="none" stroke="black" d="M315.376,-718C273.987,-718 221.473,-718 180.736,-718"/>
<polygon fill="none" stroke="black" points="180.647,-714.5 170.647,-718 180.647,-721.5 180.647,-714.5"/>
</g>
<!-- \\Ulaform -->
<g id="node10" class="node"><title>\\Ulaform</title>
<polygon fill="none" stroke="black" points="416.58,-466 352.58,-466 352.58,-430 416.58,-430 416.58,-466"/>
<text text-anchor="middle" x="384.58" y="-445.2" font-family="Courier,monospace" font-size="11.00">Ulaform</text>
</g>
<!-- \\Ulaform_Factory_Driver -->
<g id="node11" class="node"><title>\\Ulaform_Factory_Driver</title>
<polygon fill="none" stroke="black" points="467.08,-412 302.08,-412 302.08,-376 467.08,-376 467.08,-412"/>
<text text-anchor="middle" x="384.58" y="-391.2" font-family="Courier,monospace" font-size="11.00">Ulaform_Factory_Driver</text>
</g>
<!-- \\Ulaform_Factory_Action -->
<g id="node12" class="node"><title>\\Ulaform_Factory_Action</title>
<polygon fill="none" stroke="black" points="467.08,-358 302.08,-358 302.08,-322 467.08,-322 467.08,-358"/>
<text text-anchor="middle" x="384.58" y="-337.2" font-family="Courier,monospace" font-size="11.00">Ulaform_Factory_Action</text>
</g>
<!-- \\Ulaform_Block_Form -->
<g id="node13" class="node"><title>\\Ulaform_Block_Form</title>
<polygon fill="none" stroke="black" points="453.58,-304 315.58,-304 315.58,-268 453.58,-268 453.58,-304"/>
<text text-anchor="middle" x="384.58" y="-283.2" font-family="Courier,monospace" font-size="11.00">Ulaform_Block_Form</text>
</g>
<!-- \\Horde_Core_Block -->
<g id="node18" class="node"><title>\\Horde_Core_Block</title>
<ellipse fill="none" stroke="black" cx="115.04" cy="-18" rx="81.7856" ry="18"/>
<text text-anchor="middle" x="115.04" y="-14.3" font-family="Times,serif" font-size="14.00" fill="gray">\Horde_Core_Block</text>
</g>
<!-- \\Ulaform_Block_Form&#45;&gt;\\Horde_Core_Block -->
<g id="edge8" class="edge"><title>\\Ulaform_Block_Form&#45;&gt;\\Horde_Core_Block</title>
<path fill="none" stroke="black" d="M377.48,-267.801C361.297,-222.44 312.757,-103.784 230.08,-45 220.428,-38.138 209.271,-33.0006 197.791,-29.1583"/>
<polygon fill="none" stroke="black" points="198.683,-25.7715 188.098,-26.2259 196.656,-32.4717 198.683,-25.7715"/>
</g>
</g>
</svg>
