<?xml version="1.0" encoding="UTF-8" standalone="no"?>
<!DOCTYPE svg PUBLIC "-//W3C//DTD SVG 1.1//EN"
 "http://www.w3.org/Graphics/SVG/1.1/DTD/svg11.dtd">
<!-- Generated by graphviz version 2.38.0 (20140413.2041)
 -->
<!-- Title: G Pages: 1 -->
<svg width="895pt" height="834pt"
 viewBox="0.00 0.00 895.00 834.00" xmlns="http://www.w3.org/2000/svg" xmlns:xlink="http://www.w3.org/1999/xlink">
<g id="graph0" class="graph" transform="scale(1 1) rotate(0) translate(4 830)">
<title>G</title>
<polygon fill="white" stroke="none" points="-4,4 -4,-830 891,-830 891,4 -4,4"/>
<g id="clust1" class="cluster"><title>cluster_Global</title>
<path fill="none" stroke="gray" d="M20,-44C20,-44 867,-44 867,-44 873,-44 879,-50 879,-56 879,-56 879,-806 879,-806 879,-812 873,-818 867,-818 867,-818 20,-818 20,-818 14,-818 8,-812 8,-806 8,-806 8,-56 8,-56 8,-50 14,-44 20,-44"/>
<text text-anchor="middle" x="443.5" y="-805.2" font-family="Times,serif" font-size="11.00" fill="gray">Global</text>
</g>
<!-- \\Horde_Controller_ResponseWriter_Web -->
<g id="node1" class="node"><title>\\Horde_Controller_ResponseWriter_Web</title>
<polygon fill="none" stroke="black" points="851,-790 598,-790 598,-754 851,-754 851,-790"/>
<text text-anchor="middle" x="724.5" y="-769.2" font-family="Courier,monospace" font-size="11.00">Horde_Controller_ResponseWriter_Web</text>
</g>
<!-- \\Horde_Controller_ResponseWriter -->
<g id="node16" class="node"><title>\\Horde_Controller_ResponseWriter</title>
<polygon fill="none" stroke="black" points="499.5,-763 273.5,-763 273.5,-727 499.5,-727 499.5,-763"/>
<text text-anchor="middle" x="386.5" y="-742.2" font-family="Courier,monospace" font-size="11.00">Horde_Controller_ResponseWriter</text>
</g>
<!-- \\Horde_Controller_ResponseWriter_Web&#45;&gt;\\Horde_Controller_ResponseWriter -->
<g id="edge1" class="edge"><title>\\Horde_Controller_ResponseWriter_Web&#45;&gt;\\Horde_Controller_ResponseWriter</title>
<path fill="none" stroke="black" stroke-dasharray="1,5" d="M597.908,-761.908C569.062,-759.59 538.432,-757.128 509.73,-754.822"/>
<polygon fill="none" stroke="black" points="509.913,-751.326 499.665,-754.013 509.353,-758.303 509.913,-751.326"/>
</g>
<!-- \\Horde_Controller_ResponseWriter_WebDebug -->
<g id="node2" class="node"><title>\\Horde_Controller_ResponseWriter_WebDebug</title>
<polygon fill="none" stroke="black" points="868,-736 581,-736 581,-700 868,-700 868,-736"/>
<text text-anchor="middle" x="724.5" y="-715.2" font-family="Courier,monospace" font-size="11.00">Horde_Controller_ResponseWriter_WebDebug</text>
</g>
<!-- \\Horde_Controller_ResponseWriter_WebDebug&#45;&gt;\\Horde_Controller_ResponseWriter -->
<g id="edge2" class="edge"><title>\\Horde_Controller_ResponseWriter_WebDebug&#45;&gt;\\Horde_Controller_ResponseWriter</title>
<path fill="none" stroke="black" stroke-dasharray="1,5" d="M580.519,-729.49C556.947,-731.384 532.703,-733.332 509.699,-735.18"/>
<polygon fill="none" stroke="black" points="509.262,-731.704 499.574,-735.994 509.822,-738.682 509.262,-731.704"/>
</g>
<!-- \\Horde_Controller_Null -->
<g id="node3" class="node"><title>\\Horde_Controller_Null</title>
<polygon fill="none" stroke="black" points="803.5,-520 645.5,-520 645.5,-484 803.5,-484 803.5,-520"/>
<text text-anchor="middle" x="724.5" y="-499.2" font-family="Courier,monospace" font-size="11.00">Horde_Controller_Null</text>
</g>
<!-- \\Horde_Controller -->
<g id="node22" class="node"><title>\\Horde_Controller</title>
<polygon fill="none" stroke="black" points="449,-547 324,-547 324,-511 449,-511 449,-547"/>
<text text-anchor="middle" x="386.5" y="-526.2" font-family="Courier,monospace" font-size="11.00">Horde_Controller</text>
</g>
<!-- \\Horde_Controller_Null&#45;&gt;\\Horde_Controller -->
<g id="edge3" class="edge"><title>\\Horde_Controller_Null&#45;&gt;\\Horde_Controller</title>
<path fill="none" stroke="black" stroke-dasharray="1,5" d="M645.147,-508.296C589.037,-512.805 514.059,-518.83 459.459,-523.218"/>
<polygon fill="none" stroke="black" points="458.855,-519.755 449.167,-524.045 459.416,-526.732 458.855,-519.755"/>
</g>
<!-- \\Horde_Controller_UrlWriter -->
<g id="node4" class="node"><title>\\Horde_Controller_UrlWriter</title>
<polygon fill="none" stroke="black" points="820.5,-628 628.5,-628 628.5,-592 820.5,-592 820.5,-628"/>
<text text-anchor="middle" x="724.5" y="-607.2" font-family="Courier,monospace" font-size="11.00">Horde_Controller_UrlWriter</text>
</g>
<!-- \\Horde_Controller_Exception -->
<g id="node5" class="node"><title>\\Horde_Controller_Exception</title>
<polygon fill="none" stroke="black" points="820.5,-196 628.5,-196 628.5,-160 820.5,-160 820.5,-196"/>
<text text-anchor="middle" x="724.5" y="-175.2" font-family="Courier,monospace" font-size="11.00">Horde_Controller_Exception</text>
</g>
<!-- \\Horde_Exception_Wrapped -->
<g id="node23" class="node"><title>\\Horde_Exception_Wrapped</title>
<ellipse fill="none" stroke="black" cx="386.5" cy="-18" rx="112.38" ry="18"/>
<text text-anchor="middle" x="386.5" y="-14.3" font-family="Times,serif" font-size="14.00" fill="gray">\Horde_Exception_Wrapped</text>
</g>
<!-- \\Horde_Controller_Exception&#45;&gt;\\Horde_Exception_Wrapped -->
<g id="edge4" class="edge"><title>\\Horde_Controller_Exception&#45;&gt;\\Horde_Exception_Wrapped</title>
<path fill="none" stroke="black" d="M628.362,-171.784C610.602,-167.546 592.95,-160.997 578,-151 529.12,-118.312 554.879,-72.6896 506,-40 501.271,-36.8375 496.21,-34.0985 490.941,-31.7289"/>
<polygon fill="none" stroke="black" points="491.843,-28.3199 481.259,-27.8507 489.24,-34.818 491.843,-28.3199"/>
</g>
<!-- \\Horde_Controller_Request_Null -->
<g id="node6" class="node"><title>\\Horde_Controller_Request_Null</title>
<polygon fill="none" stroke="black" points="492.5,-628 280.5,-628 280.5,-592 492.5,-592 492.5,-628"/>
<text text-anchor="middle" x="386.5" y="-607.2" font-family="Courier,monospace" font-size="11.00">Horde_Controller_Request_Null</text>
</g>
<!-- \\Horde_Controller_Request -->
<g id="node21" class="node"><title>\\Horde_Controller_Request</title>
<polygon fill="none" stroke="black" points="195,-655 16,-655 16,-619 195,-619 195,-655"/>
<text text-anchor="middle" x="105.5" y="-634.2" font-family="Courier,monospace" font-size="11.00">Horde_Controller_Request</text>
</g>
<!-- \\Horde_Controller_Request_Null&#45;&gt;\\Horde_Controller_Request -->
<g id="edge5" class="edge"><title>\\Horde_Controller_Request_Null&#45;&gt;\\Horde_Controller_Request</title>
<path fill="none" stroke="black" stroke-dasharray="1,5" d="M280.42,-620.169C255.711,-622.56 229.465,-625.1 205.055,-627.462"/>
<polygon fill="none" stroke="black" points="204.695,-623.981 195.078,-628.428 205.369,-630.948 204.695,-623.981"/>
</g>
<!-- \\Horde_Controller_Request_Http -->
<g id="node7" class="node"><title>\\Horde_Controller_Request_Http</title>
<polygon fill="none" stroke="black" points="492.5,-682 280.5,-682 280.5,-646 492.5,-646 492.5,-682"/>
<text text-anchor="middle" x="386.5" y="-661.2" font-family="Courier,monospace" font-size="11.00">Horde_Controller_Request_Http</text>
</g>
<!-- \\Horde_Controller_Request_Http&#45;&gt;\\Horde_Controller_Request -->
<g id="edge6" class="edge"><title>\\Horde_Controller_Request_Http&#45;&gt;\\Horde_Controller_Request</title>
<path fill="none" stroke="black" stroke-dasharray="1,5" d="M280.42,-653.831C255.711,-651.44 229.465,-648.9 205.055,-646.538"/>
<polygon fill="none" stroke="black" points="205.369,-643.052 195.078,-645.572 204.695,-650.019 205.369,-643.052"/>
</g>
<!-- \\Horde_Controller_Request_Mock -->
<g id="node8" class="node"><title>\\Horde_Controller_Request_Mock</title>
<polygon fill="none" stroke="black" points="830.5,-682 618.5,-682 618.5,-646 830.5,-646 830.5,-682"/>
<text text-anchor="middle" x="724.5" y="-661.2" font-family="Courier,monospace" font-size="11.00">Horde_Controller_Request_Mock</text>
</g>
<!-- \\Horde_Controller_Request_Mock&#45;&gt;\\Horde_Controller_Request_Http -->
<g id="edge7" class="edge"><title>\\Horde_Controller_Request_Mock&#45;&gt;\\Horde_Controller_Request_Http</title>
<path fill="none" stroke="black" d="M618.109,-664C581.519,-664 540.304,-664 502.945,-664"/>
<polygon fill="none" stroke="black" points="502.517,-660.5 492.517,-664 502.517,-667.5 502.517,-660.5"/>
</g>
<!-- \\Horde_Controller_SettingsExporter_Default -->
<g id="node9" class="node"><title>\\Horde_Controller_SettingsExporter_Default</title>
<polygon fill="none" stroke="black" points="871,-466 578,-466 578,-430 871,-430 871,-466"/>
<text text-anchor="middle" x="724.5" y="-445.2" font-family="Courier,monospace" font-size="11.00">Horde_Controller_SettingsExporter_Default</text>
</g>
<!-- \\Horde_Controller_SettingsExporter -->
<g id="node15" class="node"><title>\\Horde_Controller_SettingsExporter</title>
<polygon fill="none" stroke="black" points="506,-466 267,-466 267,-430 506,-430 506,-466"/>
<text text-anchor="middle" x="386.5" y="-445.2" font-family="Courier,monospace" font-size="11.00">Horde_Controller_SettingsExporter</text>
</g>
<!-- \\Horde_Controller_SettingsExporter_Default&#45;&gt;\\Horde_Controller_SettingsExporter -->
<g id="edge8" class="edge"><title>\\Horde_Controller_SettingsExporter_Default&#45;&gt;\\Horde_Controller_SettingsExporter</title>
<path fill="none" stroke="black" stroke-dasharray="1,5" d="M577.591,-448C557.138,-448 536.24,-448 516.139,-448"/>
<polygon fill="none" stroke="black" points="516.025,-444.5 506.025,-448 516.025,-451.5 516.025,-444.5"/>
</g>
<!-- \\Horde_Controller_Runner -->
<g id="node10" class="node"><title>\\Horde_Controller_Runner</title>
<polygon fill="none" stroke="black" points="810.5,-412 638.5,-412 638.5,-376 810.5,-376 810.5,-412"/>
<text text-anchor="middle" x="724.5" y="-391.2" font-family="Courier,monospace" font-size="11.00">Horde_Controller_Runner</text>
</g>
<!-- \\Horde_Controller_Response -->
<g id="node11" class="node"><title>\\Horde_Controller_Response</title>
<polygon fill="none" stroke="black" points="817,-358 632,-358 632,-322 817,-322 817,-358"/>
<text text-anchor="middle" x="724.5" y="-337.2" font-family="Courier,monospace" font-size="11.00">Horde_Controller_Response</text>
</g>
<!-- \\Horde_Controller_Filter_Gzip -->
<g id="node12" class="node"><title>\\Horde_Controller_Filter_Gzip</title>
<polygon fill="none" stroke="black" points="827.5,-304 621.5,-304 621.5,-268 827.5,-268 827.5,-304"/>
<text text-anchor="middle" x="724.5" y="-283.2" font-family="Courier,monospace" font-size="11.00">Horde_Controller_Filter_Gzip</text>
</g>
<!-- \\Horde_Controller_PostFilter -->
<g id="node18" class="node"><title>\\Horde_Controller_PostFilter</title>
<polygon fill="none" stroke="black" points="486,-304 287,-304 287,-268 486,-268 486,-304"/>
<text text-anchor="middle" x="386.5" y="-283.2" font-family="Courier,monospace" font-size="11.00">Horde_Controller_PostFilter</text>
</g>
<!-- \\Horde_Controller_Filter_Gzip&#45;&gt;\\Horde_Controller_PostFilter -->
<g id="edge9" class="edge"><title>\\Horde_Controller_Filter_Gzip&#45;&gt;\\Horde_Controller_PostFilter</title>
<path fill="none" stroke="black" stroke-dasharray="1,5" d="M621.32,-286C581.718,-286 536.319,-286 496.125,-286"/>
<polygon fill="none" stroke="black" points="496.024,-282.5 486.024,-286 496.024,-289.5 496.024,-282.5"/>
</g>
<!-- \\Horde_Controller_Base -->
<g id="node13" class="node"><title>\\Horde_Controller_Base</title>
<polygon fill="none" stroke="black" points="803.5,-574 645.5,-574 645.5,-538 803.5,-538 803.5,-574"/>
<text text-anchor="start" x="690.5" y="-559.2" font-family="Courier,monospace" font-size="11.00">«abstract»</text>
<text text-anchor="start" x="653.5" y="-547.2" font-family="Courier,monospace" font-size="11.00">Horde_Controller_Base</text>
</g>
<!-- \\Horde_Controller_Base&#45;&gt;\\Horde_Controller -->
<g id="edge10" class="edge"><title>\\Horde_Controller_Base&#45;&gt;\\Horde_Controller</title>
<path fill="none" stroke="black" stroke-dasharray="1,5" d="M645.147,-549.704C589.037,-545.195 514.059,-539.17 459.459,-534.782"/>
<polygon fill="none" stroke="black" points="459.416,-531.268 449.167,-533.955 458.855,-538.245 459.416,-531.268"/>
</g>
<!-- \\Horde_Controller_FilterRunner -->
<g id="node14" class="node"><title>\\Horde_Controller_FilterRunner</title>
<polygon fill="none" stroke="black" points="830.5,-250 618.5,-250 618.5,-214 830.5,-214 830.5,-250"/>
<text text-anchor="middle" x="724.5" y="-229.2" font-family="Courier,monospace" font-size="11.00">Horde_Controller_FilterRunner</text>
</g>
<!-- \\Horde_Controller_FilterCollection -->
<g id="node20" class="node"><title>\\Horde_Controller_FilterCollection</title>
<polygon fill="none" stroke="black" points="506,-250 267,-250 267,-214 506,-214 506,-250"/>
<text text-anchor="middle" x="386.5" y="-229.2" font-family="Courier,monospace" font-size="11.00">Horde_Controller_FilterCollection</text>
</g>
<!-- \\Horde_Controller_FilterRunner&#45;&gt;\\Horde_Controller_FilterCollection -->
<g id="edge11" class="edge"><title>\\Horde_Controller_FilterRunner&#45;&gt;\\Horde_Controller_FilterCollection</title>
<path fill="none" stroke="black" stroke-dasharray="1,5" d="M618.109,-232C585.93,-232 550.174,-232 516.61,-232"/>
<polygon fill="none" stroke="black" points="516.27,-228.5 506.27,-232 516.27,-235.5 516.27,-228.5"/>
</g>
<!-- \\Horde_Controller_PreFilter -->
<g id="node17" class="node"><title>\\Horde_Controller_PreFilter</title>
<polygon fill="none" stroke="black" points="820.5,-142 628.5,-142 628.5,-106 820.5,-106 820.5,-142"/>
<text text-anchor="middle" x="724.5" y="-121.2" font-family="Courier,monospace" font-size="11.00">Horde_Controller_PreFilter</text>
</g>
<!-- \\Horde_Controller_RequestConfiguration -->
<g id="node19" class="node"><title>\\Horde_Controller_RequestConfiguration</title>
<polygon fill="none" stroke="black" points="857.5,-88 591.5,-88 591.5,-52 857.5,-52 857.5,-88"/>
<text text-anchor="middle" x="724.5" y="-67.2" font-family="Courier,monospace" font-size="11.00">Horde_Controller_RequestConfiguration</text>
</g>
</g>
</svg>
