<?xml version="1.0" encoding="UTF-8" standalone="no"?>
<!DOCTYPE svg PUBLIC "-//W3C//DTD SVG 1.1//EN"
 "http://www.w3.org/Graphics/SVG/1.1/DTD/svg11.dtd">
<!-- Generated by graphviz version 2.38.0 (20140413.2041)
 -->
<!-- Title: G Pages: 1 -->
<svg width="554pt" height="366pt"
 viewBox="0.00 0.00 553.88 366.00" xmlns="http://www.w3.org/2000/svg" xmlns:xlink="http://www.w3.org/1999/xlink">
<g id="graph0" class="graph" transform="scale(1 1) rotate(0) translate(4 362)">
<title>G</title>
<polygon fill="white" stroke="none" points="-4,4 -4,-362 549.88,-362 549.88,4 -4,4"/>
<g id="clust1" class="cluster"><title>cluster_Global</title>
<path fill="none" stroke="gray" d="M300.88,-8C300.88,-8 525.88,-8 525.88,-8 531.88,-8 537.88,-14 537.88,-20 537.88,-20 537.88,-338 537.88,-338 537.88,-344 531.88,-350 525.88,-350 525.88,-350 300.88,-350 300.88,-350 294.88,-350 288.88,-344 288.88,-338 288.88,-338 288.88,-20 288.88,-20 288.88,-14 294.88,-8 300.88,-8"/>
<text text-anchor="middle" x="413.38" y="-337.2" font-family="Times,serif" font-size="11.00" fill="gray">Global</text>
</g>
<!-- \\Horde_Cli_Modular_ModuleProvider -->
<g id="node1" class="node"><title>\\Horde_Cli_Modular_ModuleProvider</title>
<polygon fill="none" stroke="black" points="529.88,-322 296.88,-322 296.88,-286 529.88,-286 529.88,-322"/>
<text text-anchor="middle" x="413.38" y="-301.2" font-family="Courier,monospace" font-size="11.00">Horde_Cli_Modular_ModuleProvider</text>
</g>
<!-- \\Horde_Cli_Modular_Exception -->
<g id="node2" class="node"><title>\\Horde_Cli_Modular_Exception</title>
<polygon fill="none" stroke="black" points="512.88,-268 313.88,-268 313.88,-232 512.88,-232 512.88,-268"/>
<text text-anchor="middle" x="413.38" y="-247.2" font-family="Courier,monospace" font-size="11.00">Horde_Cli_Modular_Exception</text>
</g>
<!-- \\Horde_Exception_Wrapped -->
<g id="node7" class="node"><title>\\Horde_Exception_Wrapped</title>
<ellipse fill="none" stroke="black" cx="112.44" cy="-250" rx="112.38" ry="18"/>
<text text-anchor="middle" x="112.44" y="-246.3" font-family="Times,serif" font-size="14.00" fill="gray">\Horde_Exception_Wrapped</text>
</g>
<!-- \\Horde_Cli_Modular_Exception&#45;&gt;\\Horde_Exception_Wrapped -->
<g id="edge1" class="edge"><title>\\Horde_Cli_Modular_Exception&#45;&gt;\\Horde_Exception_Wrapped</title>
<path fill="none" stroke="black" d="M313.667,-250C288.594,-250 261.359,-250 235.286,-250"/>
<polygon fill="none" stroke="black" points="234.972,-246.5 224.972,-250 234.972,-253.5 234.972,-246.5"/>
</g>
<!-- \\Horde_Cli_Modular_Modules -->
<g id="node3" class="node"><title>\\Horde_Cli_Modular_Modules</title>
<polygon fill="none" stroke="black" points="505.88,-214 320.88,-214 320.88,-178 505.88,-178 505.88,-214"/>
<text text-anchor="middle" x="413.38" y="-193.2" font-family="Courier,monospace" font-size="11.00">Horde_Cli_Modular_Modules</text>
</g>
<!-- \\IteratorAggregate -->
<g id="node8" class="node"><title>\\IteratorAggregate</title>
<ellipse fill="none" stroke="black" cx="112.44" cy="-196" rx="75.2868" ry="18"/>
<text text-anchor="middle" x="112.44" y="-192.3" font-family="Times,serif" font-size="14.00" fill="gray">\IteratorAggregate</text>
</g>
<!-- \\Horde_Cli_Modular_Modules&#45;&gt;\\IteratorAggregate -->
<g id="edge2" class="edge"><title>\\Horde_Cli_Modular_Modules&#45;&gt;\\IteratorAggregate</title>
<path fill="none" stroke="black" stroke-dasharray="1,5" d="M320.657,-196C281.584,-196 236.29,-196 198.032,-196"/>
<polygon fill="none" stroke="black" points="197.954,-192.5 187.954,-196 197.954,-199.5 197.954,-192.5"/>
</g>
<!-- \\Countable -->
<g id="node9" class="node"><title>\\Countable</title>
<ellipse fill="none" stroke="black" cx="112.44" cy="-142" rx="49.2915" ry="18"/>
<text text-anchor="middle" x="112.44" y="-138.3" font-family="Times,serif" font-size="14.00" fill="gray">\Countable</text>
</g>
<!-- \\Horde_Cli_Modular_Modules&#45;&gt;\\Countable -->
<g id="edge3" class="edge"><title>\\Horde_Cli_Modular_Modules&#45;&gt;\\Countable</title>
<path fill="none" stroke="black" stroke-dasharray="1,5" d="M320.657,-179.431C270.288,-170.333 209.581,-159.367 166.935,-151.663"/>
<polygon fill="none" stroke="black" points="167.504,-148.21 157.042,-149.876 166.26,-155.098 167.504,-148.21"/>
</g>
<!-- \\Horde_Cli_Modular -->
<g id="node4" class="node"><title>\\Horde_Cli_Modular</title>
<polygon fill="none" stroke="black" points="478.88,-160 347.88,-160 347.88,-124 478.88,-124 478.88,-160"/>
<text text-anchor="middle" x="413.38" y="-139.2" font-family="Courier,monospace" font-size="11.00">Horde_Cli_Modular</text>
</g>
<!-- \\Horde_Cli_Modular_ModuleUsage -->
<g id="node5" class="node"><title>\\Horde_Cli_Modular_ModuleUsage</title>
<polygon fill="none" stroke="black" points="519.38,-106 307.38,-106 307.38,-70 519.38,-70 519.38,-106"/>
<text text-anchor="middle" x="413.38" y="-85.2" font-family="Courier,monospace" font-size="11.00">Horde_Cli_Modular_ModuleUsage</text>
</g>
<!-- \\Horde_Cli_Modular_Module -->
<g id="node6" class="node"><title>\\Horde_Cli_Modular_Module</title>
<polygon fill="none" stroke="black" points="502.88,-52 323.88,-52 323.88,-16 502.88,-16 502.88,-52"/>
<text text-anchor="middle" x="413.38" y="-31.2" font-family="Courier,monospace" font-size="11.00">Horde_Cli_Modular_Module</text>
</g>
</g>
</svg>
