<?xml version="1.0" encoding="UTF-8" standalone="no"?>
<!DOCTYPE svg PUBLIC "-//W3C//DTD SVG 1.1//EN"
 "http://www.w3.org/Graphics/SVG/1.1/DTD/svg11.dtd">
<!-- Generated by graphviz version 2.38.0 (20140413.2041)
 -->
<!-- Title: G Pages: 1 -->
<svg width="601pt" height="150pt"
 viewBox="0.00 0.00 601.18 150.00" xmlns="http://www.w3.org/2000/svg" xmlns:xlink="http://www.w3.org/1999/xlink">
<g id="graph0" class="graph" transform="scale(1 1) rotate(0) translate(4 146)">
<title>G</title>
<polygon fill="white" stroke="none" points="-4,4 -4,-146 597.179,-146 597.179,4 -4,4"/>
<g id="clust1" class="cluster"><title>cluster_Global</title>
<path fill="none" stroke="gray" d="M315.179,-8C315.179,-8 573.179,-8 573.179,-8 579.179,-8 585.179,-14 585.179,-20 585.179,-20 585.179,-122 585.179,-122 585.179,-128 579.179,-134 573.179,-134 573.179,-134 315.179,-134 315.179,-134 309.179,-134 303.179,-128 303.179,-122 303.179,-122 303.179,-20 303.179,-20 303.179,-14 309.179,-8 315.179,-8"/>
<text text-anchor="middle" x="444.179" y="-121.2" font-family="Times,serif" font-size="11.00" fill="gray">Global</text>
</g>
<!-- \\Horde_JavascriptMinify_Jsmin -->
<g id="node1" class="node"><title>\\Horde_JavascriptMinify_Jsmin</title>
<polygon fill="none" stroke="black" points="547.179,-106 341.179,-106 341.179,-70 547.179,-70 547.179,-106"/>
<text text-anchor="middle" x="444.179" y="-85.2" font-family="Courier,monospace" font-size="11.00">Horde_JavascriptMinify_Jsmin</text>
</g>
<!-- \\Horde_JavascriptMinify_Null -->
<g id="node3" class="node"><title>\\Horde_JavascriptMinify_Null</title>
<ellipse fill="none" stroke="black" cx="119.589" cy="-88" rx="119.679" ry="18"/>
<text text-anchor="middle" x="119.589" y="-84.3" font-family="Times,serif" font-size="14.00" fill="gray">\Horde_JavascriptMinify_Null</text>
</g>
<!-- \\Horde_JavascriptMinify_Jsmin&#45;&gt;\\Horde_JavascriptMinify_Null -->
<g id="edge1" class="edge"><title>\\Horde_JavascriptMinify_Jsmin&#45;&gt;\\Horde_JavascriptMinify_Null</title>
<path fill="none" stroke="black" d="M341.109,-88C312.087,-88 280.095,-88 249.693,-88"/>
<polygon fill="none" stroke="black" points="249.45,-84.5001 239.45,-88 249.45,-91.5001 249.45,-84.5001"/>
</g>
<!-- \\Horde_JavascriptMinify_Jsmin_Minifier -->
<g id="node2" class="node"><title>\\Horde_JavascriptMinify_Jsmin_Minifier</title>
<polygon fill="none" stroke="black" points="577.179,-52 311.179,-52 311.179,-16 577.179,-16 577.179,-52"/>
<text text-anchor="middle" x="444.179" y="-31.2" font-family="Courier,monospace" font-size="11.00">Horde_JavascriptMinify_Jsmin_Minifier</text>
</g>
</g>
</svg>
