<?xml version="1.0" encoding="UTF-8" standalone="no"?>
<!DOCTYPE svg PUBLIC "-//W3C//DTD SVG 1.1//EN"
 "http://www.w3.org/Graphics/SVG/1.1/DTD/svg11.dtd">
<!-- Generated by graphviz version 2.38.0 (20140413.2041)
 -->
<!-- Title: G Pages: 1 -->
<svg width="163pt" height="168pt"
 viewBox="0.00 0.00 163.00 168.00" xmlns="http://www.w3.org/2000/svg" xmlns:xlink="http://www.w3.org/1999/xlink">
<g id="graph0" class="graph" transform="scale(1 1) rotate(0) translate(4 164)">
<title>G</title>
<polygon fill="white" stroke="none" points="-4,4 -4,-164 159,-164 159,4 -4,4"/>
<g id="clust1" class="cluster"><title>cluster_Global</title>
<path fill="none" stroke="gray" d="M20,-8C20,-8 135,-8 135,-8 141,-8 147,-14 147,-20 147,-20 147,-140 147,-140 147,-146 141,-152 135,-152 135,-152 20,-152 20,-152 14,-152 8,-146 8,-140 8,-140 8,-20 8,-20 8,-14 14,-8 20,-8"/>
<text text-anchor="middle" x="77.5" y="-139.2" font-family="Times,serif" font-size="11.00" fill="gray">Global</text>
</g>
<g id="clust2" class="cluster"><title>cluster_\Horde</title>
<path fill="none" stroke="gray" d="M28,-16C28,-16 127,-16 127,-16 133,-16 139,-22 139,-28 139,-28 139,-112 139,-112 139,-118 133,-124 127,-124 127,-124 28,-124 28,-124 22,-124 16,-118 16,-112 16,-112 16,-28 16,-28 16,-22 22,-16 28,-16"/>
<text text-anchor="middle" x="77.5" y="-111.2" font-family="Times,serif" font-size="11.00" fill="gray">Horde</text>
</g>
<g id="clust3" class="cluster"><title>cluster_\Horde\Cli</title>
<path fill="none" stroke="gray" d="M36,-24C36,-24 119,-24 119,-24 125,-24 131,-30 131,-36 131,-36 131,-84 131,-84 131,-90 125,-96 119,-96 119,-96 36,-96 36,-96 30,-96 24,-90 24,-84 24,-84 24,-36 24,-36 24,-30 30,-24 36,-24"/>
<text text-anchor="middle" x="77.5" y="-83.2" font-family="Times,serif" font-size="11.00" fill="gray">Cli</text>
</g>
<!-- \\Horde\\Cli\\Application -->
<g id="node1" class="node"><title>\\Horde\\Cli\\Application</title>
<polygon fill="none" stroke="black" points="123,-68 32,-68 32,-32 123,-32 123,-68"/>
<text text-anchor="middle" x="77.5" y="-47.2" font-family="Courier,monospace" font-size="11.00">Application</text>
</g>
</g>
</svg>
