<?xml version="1.0" encoding="UTF-8" standalone="no"?>
<!DOCTYPE svg PUBLIC "-//W3C//DTD SVG 1.1//EN"
 "http://www.w3.org/Graphics/SVG/1.1/DTD/svg11.dtd">
<!-- Generated by graphviz version 2.38.0 (20140413.2041)
 -->
<!-- Title: G Pages: 1 -->
<svg width="598pt" height="186pt"
 viewBox="0.00 0.00 598.00 186.00" xmlns="http://www.w3.org/2000/svg" xmlns:xlink="http://www.w3.org/1999/xlink">
<g id="graph0" class="graph" transform="scale(1 1) rotate(0) translate(4 182)">
<title>G</title>
<polygon fill="white" stroke="none" points="-4,4 -4,-182 594,-182 594,4 -4,4"/>
<g id="clust1" class="cluster"><title>cluster_Global</title>
<path fill="none" stroke="gray" d="M20,-44C20,-44 570,-44 570,-44 576,-44 582,-50 582,-56 582,-56 582,-158 582,-158 582,-164 576,-170 570,-170 570,-170 20,-170 20,-170 14,-170 8,-164 8,-158 8,-158 8,-56 8,-56 8,-50 14,-44 20,-44"/>
<text text-anchor="middle" x="295" y="-157.2" font-family="Times,serif" font-size="11.00" fill="gray">Global</text>
</g>
<!-- \\Horde_Service_UrlShortener_Exception -->
<g id="node1" class="node"><title>\\Horde_Service_UrlShortener_Exception</title>
<polygon fill="none" stroke="black" points="574,-88 314,-88 314,-52 574,-52 574,-88"/>
<text text-anchor="middle" x="444" y="-67.2" font-family="Courier,monospace" font-size="11.00">Horde_Service_UrlShortener_Exception</text>
</g>
<!-- \\Horde_Exception_Wrapped -->
<g id="node4" class="node"><title>\\Horde_Exception_Wrapped</title>
<ellipse fill="none" stroke="black" cx="129" cy="-18" rx="112.38" ry="18"/>
<text text-anchor="middle" x="129" y="-14.3" font-family="Times,serif" font-size="14.00" fill="gray">\Horde_Exception_Wrapped</text>
</g>
<!-- \\Horde_Service_UrlShortener_Exception&#45;&gt;\\Horde_Exception_Wrapped -->
<g id="edge1" class="edge"><title>\\Horde_Service_UrlShortener_Exception&#45;&gt;\\Horde_Exception_Wrapped</title>
<path fill="none" stroke="black" d="M334.406,-51.9589C296.318,-45.631 254.039,-38.6071 217.863,-32.597"/>
<polygon fill="none" stroke="black" points="218.268,-29.1164 207.83,-30.9301 217.121,-36.0218 218.268,-29.1164"/>
</g>
<!-- \\Horde_Service_UrlShortener_TinyUrl -->
<g id="node2" class="node"><title>\\Horde_Service_UrlShortener_TinyUrl</title>
<polygon fill="none" stroke="black" points="567,-142 321,-142 321,-106 567,-106 567,-142"/>
<text text-anchor="middle" x="444" y="-121.2" font-family="Courier,monospace" font-size="11.00">Horde_Service_UrlShortener_TinyUrl</text>
</g>
<!-- \\Horde_Service_UrlShortener_Base -->
<g id="node3" class="node"><title>\\Horde_Service_UrlShortener_Base</title>
<polygon fill="none" stroke="black" points="242,-142 16,-142 16,-106 242,-106 242,-142"/>
<text text-anchor="start" x="95" y="-127.2" font-family="Courier,monospace" font-size="11.00">«abstract»</text>
<text text-anchor="start" x="24" y="-115.2" font-family="Courier,monospace" font-size="11.00">Horde_Service_UrlShortener_Base</text>
</g>
<!-- \\Horde_Service_UrlShortener_TinyUrl&#45;&gt;\\Horde_Service_UrlShortener_Base -->
<g id="edge2" class="edge"><title>\\Horde_Service_UrlShortener_TinyUrl&#45;&gt;\\Horde_Service_UrlShortener_Base</title>
<path fill="none" stroke="black" d="M320.641,-124C298.189,-124 274.752,-124 252.302,-124"/>
<polygon fill="none" stroke="black" points="252.064,-120.5 242.063,-124 252.063,-127.5 252.064,-120.5"/>
</g>
</g>
</svg>
