<?xml version="1.0" encoding="UTF-8" standalone="no"?>
<!DOCTYPE svg PUBLIC "-//W3C//DTD SVG 1.1//EN"
 "http://www.w3.org/Graphics/SVG/1.1/DTD/svg11.dtd">
<!-- Generated by graphviz version 2.38.0 (20140413.2041)
 -->
<!-- Title: G Pages: 1 -->
<svg width="466pt" height="204pt"
 viewBox="0.00 0.00 465.88 204.00" xmlns="http://www.w3.org/2000/svg" xmlns:xlink="http://www.w3.org/1999/xlink">
<g id="graph0" class="graph" transform="scale(1 1) rotate(0) translate(4 200)">
<title>G</title>
<polygon fill="white" stroke="none" points="-4,4 -4,-200 461.88,-200 461.88,4 -4,4"/>
<g id="clust1" class="cluster"><title>cluster_Global</title>
<path fill="none" stroke="gray" d="M300.88,-8C300.88,-8 437.88,-8 437.88,-8 443.88,-8 449.88,-14 449.88,-20 449.88,-20 449.88,-176 449.88,-176 449.88,-182 443.88,-188 437.88,-188 437.88,-188 300.88,-188 300.88,-188 294.88,-188 288.88,-182 288.88,-176 288.88,-176 288.88,-20 288.88,-20 288.88,-14 294.88,-8 300.88,-8"/>
<text text-anchor="middle" x="369.38" y="-175.2" font-family="Times,serif" font-size="11.00" fill="gray">Global</text>
</g>
<!-- \\Horde_Url_Data -->
<g id="node1" class="node"><title>\\Horde_Url_Data</title>
<polygon fill="none" stroke="black" points="424.88,-160 313.88,-160 313.88,-124 424.88,-124 424.88,-160"/>
<text text-anchor="middle" x="369.38" y="-139.2" font-family="Courier,monospace" font-size="11.00">Horde_Url_Data</text>
</g>
<!-- \\Horde_Url_Exception -->
<g id="node2" class="node"><title>\\Horde_Url_Exception</title>
<polygon fill="none" stroke="black" points="441.88,-106 296.88,-106 296.88,-70 441.88,-70 441.88,-106"/>
<text text-anchor="middle" x="369.38" y="-85.2" font-family="Courier,monospace" font-size="11.00">Horde_Url_Exception</text>
</g>
<!-- \\Horde_Exception_Wrapped -->
<g id="node4" class="node"><title>\\Horde_Exception_Wrapped</title>
<ellipse fill="none" stroke="black" cx="112.44" cy="-88" rx="112.38" ry="18"/>
<text text-anchor="middle" x="112.44" y="-84.3" font-family="Times,serif" font-size="14.00" fill="gray">\Horde_Exception_Wrapped</text>
</g>
<!-- \\Horde_Url_Exception&#45;&gt;\\Horde_Exception_Wrapped -->
<g id="edge1" class="edge"><title>\\Horde_Url_Exception&#45;&gt;\\Horde_Exception_Wrapped</title>
<path fill="none" stroke="black" d="M296.687,-88C277.575,-88 256.38,-88 235.386,-88"/>
<polygon fill="none" stroke="black" points="235.105,-84.5001 225.105,-88 235.105,-91.5001 235.105,-84.5001"/>
</g>
<!-- \\Horde_Url -->
<g id="node3" class="node"><title>\\Horde_Url</title>
<polygon fill="none" stroke="black" points="407.88,-52 330.88,-52 330.88,-16 407.88,-16 407.88,-52"/>
<text text-anchor="middle" x="369.38" y="-31.2" font-family="Courier,monospace" font-size="11.00">Horde_Url</text>
</g>
</g>
</svg>
