<?xml version="1.0" encoding="UTF-8" standalone="no"?>
<!DOCTYPE svg PUBLIC "-//W3C//DTD SVG 1.1//EN"
 "http://www.w3.org/Graphics/SVG/1.1/DTD/svg11.dtd">
<!-- Generated by graphviz version 2.38.0 (20140413.2041)
 -->
<!-- Title: G Pages: 1 -->
<svg width="395pt" height="204pt"
 viewBox="0.00 0.00 395.00 204.00" xmlns="http://www.w3.org/2000/svg" xmlns:xlink="http://www.w3.org/1999/xlink">
<g id="graph0" class="graph" transform="scale(1 1) rotate(0) translate(4 200)">
<title>G</title>
<polygon fill="white" stroke="none" points="-4,4 -4,-200 391,-200 391,4 -4,4"/>
<g id="clust1" class="cluster"><title>cluster_Global</title>
<path fill="none" stroke="gray" d="M20,-8C20,-8 367,-8 367,-8 373,-8 379,-14 379,-20 379,-20 379,-176 379,-176 379,-182 373,-188 367,-188 367,-188 20,-188 20,-188 14,-188 8,-182 8,-176 8,-176 8,-20 8,-20 8,-14 14,-8 20,-8"/>
<text text-anchor="middle" x="193.5" y="-175.2" font-family="Times,serif" font-size="11.00" fill="gray">Global</text>
</g>
<!-- \\Horde_Reflection -->
<g id="node1" class="node"><title>\\Horde_Reflection</title>
<polygon fill="none" stroke="black" points="141,-106 16,-106 16,-70 141,-70 141,-106"/>
<text text-anchor="start" x="44.5" y="-91.2" font-family="Courier,monospace" font-size="11.00">«abstract»</text>
<text text-anchor="start" x="24" y="-79.2" font-family="Courier,monospace" font-size="11.00">Horde_Reflection</text>
</g>
<!-- \\Horde_Reflection_Html -->
<g id="node2" class="node"><title>\\Horde_Reflection_Html</title>
<polygon fill="none" stroke="black" points="371,-160 213,-160 213,-124 371,-124 371,-160"/>
<text text-anchor="middle" x="292" y="-139.2" font-family="Courier,monospace" font-size="11.00">Horde_Reflection_Html</text>
</g>
<!-- \\Horde_Reflection_Html&#45;&gt;\\Horde_Reflection -->
<g id="edge1" class="edge"><title>\\Horde_Reflection_Html&#45;&gt;\\Horde_Reflection</title>
<path fill="none" stroke="black" d="M220.28,-123.944C197.998,-118.255 173.378,-111.969 151.04,-106.266"/>
<polygon fill="none" stroke="black" points="151.843,-102.858 141.288,-103.776 150.111,-109.641 151.843,-102.858"/>
</g>
<!-- \\Horde_Reflection_CLI -->
<g id="node3" class="node"><title>\\Horde_Reflection_CLI</title>
<polygon fill="none" stroke="black" points="368,-106 216,-106 216,-70 368,-70 368,-106"/>
<text text-anchor="middle" x="292" y="-85.2" font-family="Courier,monospace" font-size="11.00">Horde_Reflection_CLI</text>
</g>
<!-- \\Horde_Reflection_CLI&#45;&gt;\\Horde_Reflection -->
<g id="edge2" class="edge"><title>\\Horde_Reflection_CLI&#45;&gt;\\Horde_Reflection</title>
<path fill="none" stroke="black" d="M215.837,-88C194.818,-88 172.035,-88 151.22,-88"/>
<polygon fill="none" stroke="black" points="151.176,-84.5001 141.176,-88 151.176,-91.5001 151.176,-84.5001"/>
</g>
<!-- \\Horde_Reflection_Wiki -->
<g id="node4" class="node"><title>\\Horde_Reflection_Wiki</title>
<polygon fill="none" stroke="black" points="371,-52 213,-52 213,-16 371,-16 371,-52"/>
<text text-anchor="middle" x="292" y="-31.2" font-family="Courier,monospace" font-size="11.00">Horde_Reflection_Wiki</text>
</g>
<!-- \\Horde_Reflection_Wiki&#45;&gt;\\Horde_Reflection -->
<g id="edge3" class="edge"><title>\\Horde_Reflection_Wiki&#45;&gt;\\Horde_Reflection</title>
<path fill="none" stroke="black" d="M220.28,-52.0563C197.998,-57.7451 173.378,-64.0312 151.04,-69.7345"/>
<polygon fill="none" stroke="black" points="150.111,-66.3592 141.288,-72.2243 151.843,-73.1416 150.111,-66.3592"/>
</g>
</g>
</svg>
