<?xml version="1.0" encoding="UTF-8" standalone="no"?>
<!DOCTYPE svg PUBLIC "-//W3C//DTD SVG 1.1//EN"
 "http://www.w3.org/Graphics/SVG/1.1/DTD/svg11.dtd">
<!-- Generated by graphviz version 2.38.0 (20140413.2041)
 -->
<!-- Title: G Pages: 1 -->
<svg width="668pt" height="1320pt"
 viewBox="0.00 0.00 668.27 1320.00" xmlns="http://www.w3.org/2000/svg" xmlns:xlink="http://www.w3.org/1999/xlink">
<g id="graph0" class="graph" transform="scale(1 1) rotate(0) translate(4 1316)">
<title>G</title>
<polygon fill="white" stroke="none" points="-4,4 -4,-1316 664.271,-1316 664.271,4 -4,4"/>
<g id="clust1" class="cluster"><title>cluster_Global</title>
<path fill="none" stroke="gray" d="M40.6355,-314C40.6355,-314 640.271,-314 640.271,-314 646.271,-314 652.271,-320 652.271,-326 652.271,-326 652.271,-1292 652.271,-1292 652.271,-1298 646.271,-1304 640.271,-1304 640.271,-1304 40.6355,-1304 40.6355,-1304 34.6355,-1304 28.6355,-1298 28.6355,-1292 28.6355,-1292 28.6355,-326 28.6355,-326 28.6355,-320 34.6355,-314 40.6355,-314"/>
<text text-anchor="middle" x="340.453" y="-1291.2" font-family="Times,serif" font-size="11.00" fill="gray">Global</text>
</g>
<!-- \\Horde_Support_CaseInsensitiveArray -->
<g id="node1" class="node"><title>\\Horde_Support_CaseInsensitiveArray</title>
<polygon fill="none" stroke="black" points="644.271,-1114 398.271,-1114 398.271,-1078 644.271,-1078 644.271,-1114"/>
<text text-anchor="middle" x="521.271" y="-1093.2" font-family="Courier,monospace" font-size="11.00">Horde_Support_CaseInsensitiveArray</text>
</g>
<!-- \\ArrayIterator -->
<g id="node20" class="node"><title>\\ArrayIterator</title>
<ellipse fill="none" stroke="black" cx="163.136" cy="-288" rx="59.5901" ry="18"/>
<text text-anchor="middle" x="163.136" y="-284.3" font-family="Times,serif" font-size="14.00" fill="gray">\ArrayIterator</text>
</g>
<!-- \\Horde_Support_CaseInsensitiveArray&#45;&gt;\\ArrayIterator -->
<g id="edge1" class="edge"><title>\\Horde_Support_CaseInsensitiveArray&#45;&gt;\\ArrayIterator</title>
<path fill="none" stroke="black" d="M407.969,-1077.95C404.472,-1075.3 401.216,-1072.33 398.271,-1069 286.074,-942.05 443.634,-432.189 326.271,-310 301.216,-283.914 260.975,-278.335 226.852,-279.316"/>
<polygon fill="none" stroke="black" points="226.302,-275.839 216.483,-279.816 226.64,-282.831 226.302,-275.839"/>
</g>
<!-- \\Horde_Support_ObjectStub -->
<g id="node2" class="node"><title>\\Horde_Support_ObjectStub</title>
<polygon fill="none" stroke="black" points="610.771,-1222 431.771,-1222 431.771,-1186 610.771,-1186 610.771,-1222"/>
<text text-anchor="middle" x="521.271" y="-1201.2" font-family="Courier,monospace" font-size="11.00">Horde_Support_ObjectStub</text>
</g>
<!-- \\Horde_Support_Numerizer_Locale_Pt -->
<g id="node3" class="node"><title>\\Horde_Support_Numerizer_Locale_Pt</title>
<polygon fill="none" stroke="black" points="640.771,-1276 401.771,-1276 401.771,-1240 640.771,-1240 640.771,-1276"/>
<text text-anchor="middle" x="521.271" y="-1255.2" font-family="Courier,monospace" font-size="11.00">Horde_Support_Numerizer_Locale_Pt</text>
</g>
<!-- \\Horde_Support_Numerizer_Locale_Base -->
<g id="node5" class="node"><title>\\Horde_Support_Numerizer_Locale_Base</title>
<polygon fill="none" stroke="black" points="289.636,-1222 36.6355,-1222 36.6355,-1186 289.636,-1186 289.636,-1222"/>
<text text-anchor="middle" x="163.136" y="-1201.2" font-family="Courier,monospace" font-size="11.00">Horde_Support_Numerizer_Locale_Base</text>
</g>
<!-- \\Horde_Support_Numerizer_Locale_Pt&#45;&gt;\\Horde_Support_Numerizer_Locale_Base -->
<g id="edge2" class="edge"><title>\\Horde_Support_Numerizer_Locale_Pt&#45;&gt;\\Horde_Support_Numerizer_Locale_Base</title>
<path fill="none" stroke="black" d="M401.683,-1240.02C366.819,-1234.73 328.518,-1228.92 293.042,-1223.55"/>
<polygon fill="none" stroke="black" points="293.528,-1220.08 283.116,-1222.04 292.478,-1227 293.528,-1220.08"/>
</g>
<!-- \\Horde_Support_Numerizer_Locale_De -->
<g id="node4" class="node"><title>\\Horde_Support_Numerizer_Locale_De</title>
<polygon fill="none" stroke="black" points="640.771,-1168 401.771,-1168 401.771,-1132 640.771,-1132 640.771,-1168"/>
<text text-anchor="middle" x="521.271" y="-1147.2" font-family="Courier,monospace" font-size="11.00">Horde_Support_Numerizer_Locale_De</text>
</g>
<!-- \\Horde_Support_Numerizer_Locale_De&#45;&gt;\\Horde_Support_Numerizer_Locale_Base -->
<g id="edge3" class="edge"><title>\\Horde_Support_Numerizer_Locale_De&#45;&gt;\\Horde_Support_Numerizer_Locale_Base</title>
<path fill="none" stroke="black" d="M401.683,-1167.98C366.819,-1173.27 328.518,-1179.08 293.042,-1184.45"/>
<polygon fill="none" stroke="black" points="292.478,-1181 283.116,-1185.96 293.528,-1187.92 292.478,-1181"/>
</g>
<!-- \\Horde_Support_Uuid -->
<g id="node6" class="node"><title>\\Horde_Support_Uuid</title>
<polygon fill="none" stroke="black" points="590.271,-1060 452.271,-1060 452.271,-1024 590.271,-1024 590.271,-1060"/>
<text text-anchor="middle" x="521.271" y="-1039.2" font-family="Courier,monospace" font-size="11.00">Horde_Support_Uuid</text>
</g>
<!-- \\Horde_Support_Inflector -->
<g id="node7" class="node"><title>\\Horde_Support_Inflector</title>
<polygon fill="none" stroke="black" points="607.271,-1006 435.271,-1006 435.271,-970 607.271,-970 607.271,-1006"/>
<text text-anchor="middle" x="521.271" y="-985.2" font-family="Courier,monospace" font-size="11.00">Horde_Support_Inflector</text>
</g>
<!-- \\Horde_Support_Timer -->
<g id="node8" class="node"><title>\\Horde_Support_Timer</title>
<polygon fill="none" stroke="black" points="593.771,-952 448.771,-952 448.771,-916 593.771,-916 593.771,-952"/>
<text text-anchor="middle" x="521.271" y="-931.2" font-family="Courier,monospace" font-size="11.00">Horde_Support_Timer</text>
</g>
<!-- \\Horde_Support_StringStream -->
<g id="node9" class="node"><title>\\Horde_Support_StringStream</title>
<polygon fill="none" stroke="black" points="617.271,-898 425.271,-898 425.271,-862 617.271,-862 617.271,-898"/>
<text text-anchor="middle" x="521.271" y="-877.2" font-family="Courier,monospace" font-size="11.00">Horde_Support_StringStream</text>
</g>
<!-- \\Horde_Stream_Wrapper_StringStream -->
<g id="node21" class="node"><title>\\Horde_Stream_Wrapper_StringStream</title>
<ellipse fill="none" stroke="black" cx="163.136" cy="-234" rx="151.373" ry="18"/>
<text text-anchor="middle" x="163.136" y="-230.3" font-family="Times,serif" font-size="14.00" fill="gray">\Horde_Stream_Wrapper_StringStream</text>
</g>
<!-- \\Horde_Support_StringStream&#45;&gt;\\Horde_Stream_Wrapper_StringStream -->
<g id="edge4" class="edge"><title>\\Horde_Support_StringStream&#45;&gt;\\Horde_Stream_Wrapper_StringStream</title>
<path fill="none" stroke="black" stroke-dasharray="1,5" d="M425.172,-871.548C415.021,-867.192 405.707,-861.192 398.271,-853 220.137,-656.736 509.523,-452.495 326.271,-261 320.981,-255.472 315.021,-250.806 308.588,-246.882"/>
<polygon fill="none" stroke="black" points="310.002,-243.667 299.543,-241.979 306.667,-249.821 310.002,-243.667"/>
</g>
<!-- \\Horde_Support_Backtrace -->
<g id="node10" class="node"><title>\\Horde_Support_Backtrace</title>
<polygon fill="none" stroke="black" points="607.271,-844 435.271,-844 435.271,-808 607.271,-808 607.271,-844"/>
<text text-anchor="middle" x="521.271" y="-823.2" font-family="Courier,monospace" font-size="11.00">Horde_Support_Backtrace</text>
</g>
<!-- \\Horde_Support_ConsistentHash -->
<g id="node11" class="node"><title>\\Horde_Support_ConsistentHash</title>
<polygon fill="none" stroke="black" points="624.271,-790 418.271,-790 418.271,-754 624.271,-754 624.271,-790"/>
<text text-anchor="middle" x="521.271" y="-769.2" font-family="Courier,monospace" font-size="11.00">Horde_Support_ConsistentHash</text>
</g>
<!-- \\Horde_Support_Numerizer -->
<g id="node12" class="node"><title>\\Horde_Support_Numerizer</title>
<polygon fill="none" stroke="black" points="607.271,-736 435.271,-736 435.271,-700 607.271,-700 607.271,-736"/>
<text text-anchor="middle" x="521.271" y="-715.2" font-family="Courier,monospace" font-size="11.00">Horde_Support_Numerizer</text>
</g>
<!-- \\Horde_Support_CombineStream -->
<g id="node13" class="node"><title>\\Horde_Support_CombineStream</title>
<polygon fill="none" stroke="black" points="620.771,-682 421.771,-682 421.771,-646 620.771,-646 620.771,-682"/>
<text text-anchor="middle" x="521.271" y="-661.2" font-family="Courier,monospace" font-size="11.00">Horde_Support_CombineStream</text>
</g>
<!-- \\Horde_Stream_Wrapper_CombineStream -->
<g id="node22" class="node"><title>\\Horde_Stream_Wrapper_CombineStream</title>
<ellipse fill="none" stroke="black" cx="163.136" cy="-180" rx="163.271" ry="18"/>
<text text-anchor="middle" x="163.136" y="-176.3" font-family="Times,serif" font-size="14.00" fill="gray">\Horde_Stream_Wrapper_CombineStream</text>
</g>
<!-- \\Horde_Support_CombineStream&#45;&gt;\\Horde_Stream_Wrapper_CombineStream -->
<g id="edge5" class="edge"><title>\\Horde_Support_CombineStream&#45;&gt;\\Horde_Stream_Wrapper_CombineStream</title>
<path fill="none" stroke="black" stroke-dasharray="1,5" d="M421.659,-653.499C412.94,-649.384 404.918,-644.001 398.271,-637 264.855,-496.474 463.349,-343.956 326.271,-207 321.568,-202.301 316.378,-198.234 310.829,-194.722"/>
<polygon fill="none" stroke="black" points="312.262,-191.512 301.832,-189.651 308.825,-197.61 312.262,-191.512"/>
</g>
<!-- \\Horde_Support_Array -->
<g id="node14" class="node"><title>\\Horde_Support_Array</title>
<polygon fill="none" stroke="black" points="593.771,-628 448.771,-628 448.771,-592 593.771,-592 593.771,-628"/>
<text text-anchor="middle" x="521.271" y="-607.2" font-family="Courier,monospace" font-size="11.00">Horde_Support_Array</text>
</g>
<!-- \\ArrayAccess -->
<g id="node23" class="node"><title>\\ArrayAccess</title>
<ellipse fill="none" stroke="black" cx="163.136" cy="-126" rx="58.4896" ry="18"/>
<text text-anchor="middle" x="163.136" y="-122.3" font-family="Times,serif" font-size="14.00" fill="gray">\ArrayAccess</text>
</g>
<!-- \\Horde_Support_Array&#45;&gt;\\ArrayAccess -->
<g id="edge6" class="edge"><title>\\Horde_Support_Array&#45;&gt;\\ArrayAccess</title>
<path fill="none" stroke="black" stroke-dasharray="1,5" d="M448.59,-608.265C429.938,-604.361 411.415,-596.844 398.271,-583 264.855,-442.474 463.349,-289.956 326.271,-153 301.208,-127.959 262.319,-120.856 228.91,-120.182"/>
<polygon fill="none" stroke="black" points="228.745,-116.682 218.739,-120.167 228.734,-123.682 228.745,-116.682"/>
</g>
<!-- \\Countable -->
<g id="node24" class="node"><title>\\Countable</title>
<ellipse fill="none" stroke="black" cx="163.136" cy="-72" rx="49.2915" ry="18"/>
<text text-anchor="middle" x="163.136" y="-68.3" font-family="Times,serif" font-size="14.00" fill="gray">\Countable</text>
</g>
<!-- \\Horde_Support_Array&#45;&gt;\\Countable -->
<g id="edge7" class="edge"><title>\\Horde_Support_Array&#45;&gt;\\Countable</title>
<path fill="none" stroke="black" stroke-dasharray="1,5" d="M448.744,-608.485C429.982,-604.603 411.362,-597.043 398.271,-583 249.976,-423.923 478.713,-254.108 326.271,-99 299.236,-71.4923 255.554,-65.5045 220.338,-65.9809"/>
<polygon fill="none" stroke="black" points="220.068,-62.4875 210.181,-66.2965 220.285,-69.4841 220.068,-62.4875"/>
</g>
<!-- \\IteratorAggregate -->
<g id="node25" class="node"><title>\\IteratorAggregate</title>
<ellipse fill="none" stroke="black" cx="163.136" cy="-18" rx="75.2868" ry="18"/>
<text text-anchor="middle" x="163.136" y="-14.3" font-family="Times,serif" font-size="14.00" fill="gray">\IteratorAggregate</text>
</g>
<!-- \\Horde_Support_Array&#45;&gt;\\IteratorAggregate -->
<g id="edge8" class="edge"><title>\\Horde_Support_Array&#45;&gt;\\IteratorAggregate</title>
<path fill="none" stroke="black" stroke-dasharray="1,5" d="M448.612,-608.607C429.847,-604.728 411.259,-597.138 398.271,-583 235.067,-405.341 494.107,-218.29 326.271,-45 305.315,-23.3633 274.076,-14.9789 244.596,-12.5969"/>
<polygon fill="none" stroke="black" points="244.449,-9.08239 234.262,-11.9928 244.04,-16.0705 244.449,-9.08239"/>
</g>
<!-- \\Horde_Support_Randomid -->
<g id="node15" class="node"><title>\\Horde_Support_Randomid</title>
<polygon fill="none" stroke="black" points="603.771,-574 438.771,-574 438.771,-538 603.771,-538 603.771,-574"/>
<text text-anchor="middle" x="521.271" y="-553.2" font-family="Courier,monospace" font-size="11.00">Horde_Support_Randomid</text>
</g>
<!-- \\Horde_Support_Memory -->
<g id="node16" class="node"><title>\\Horde_Support_Memory</title>
<polygon fill="none" stroke="black" points="597.271,-520 445.271,-520 445.271,-484 597.271,-484 597.271,-520"/>
<text text-anchor="middle" x="521.271" y="-499.2" font-family="Courier,monospace" font-size="11.00">Horde_Support_Memory</text>
</g>
<!-- \\Horde_Support_Stack -->
<g id="node17" class="node"><title>\\Horde_Support_Stack</title>
<polygon fill="none" stroke="black" points="593.771,-466 448.771,-466 448.771,-430 593.771,-430 593.771,-466"/>
<text text-anchor="middle" x="521.271" y="-445.2" font-family="Courier,monospace" font-size="11.00">Horde_Support_Stack</text>
</g>
<!-- \\Horde_Support_Stub -->
<g id="node18" class="node"><title>\\Horde_Support_Stub</title>
<polygon fill="none" stroke="black" points="590.271,-412 452.271,-412 452.271,-376 590.271,-376 590.271,-412"/>
<text text-anchor="middle" x="521.271" y="-391.2" font-family="Courier,monospace" font-size="11.00">Horde_Support_Stub</text>
</g>
<!-- \\Horde_Support_Stub&#45;&gt;\\ArrayAccess -->
<g id="edge9" class="edge"><title>\\Horde_Support_Stub&#45;&gt;\\ArrayAccess</title>
<path fill="none" stroke="black" stroke-dasharray="1,5" d="M452.175,-391.316C432.831,-387.499 413.035,-380.267 398.271,-367 323.628,-299.929 402.658,-218.078 326.271,-153 300.104,-130.707 262.663,-123.416 230.351,-121.944"/>
<polygon fill="none" stroke="black" points="230.154,-118.438 220.061,-121.659 229.961,-125.435 230.154,-118.438"/>
</g>
<!-- \\Horde_Support_Stub&#45;&gt;\\Countable -->
<g id="edge10" class="edge"><title>\\Horde_Support_Stub&#45;&gt;\\Countable</title>
<path fill="none" stroke="black" stroke-dasharray="1,5" d="M451.974,-391.937C432.508,-388.16 412.695,-380.794 398.271,-367 309.135,-281.758 417.626,-181.86 326.271,-99 298.208,-73.547 255.645,-67.2326 221.169,-67.0516"/>
<polygon fill="none" stroke="black" points="220.711,-63.5568 210.754,-67.178 220.796,-70.5563 220.711,-63.5568"/>
</g>
<!-- \\Horde_Support_Stub&#45;&gt;\\IteratorAggregate -->
<g id="edge11" class="edge"><title>\\Horde_Support_Stub&#45;&gt;\\IteratorAggregate</title>
<path fill="none" stroke="black" stroke-dasharray="1,5" d="M452.244,-392.432C432.558,-388.71 412.552,-381.25 398.271,-367 294.464,-263.419 432.775,-145.805 326.271,-45 304.951,-24.8209 274.585,-16.4994 245.885,-13.7644"/>
<polygon fill="none" stroke="black" points="246.051,-10.2672 235.82,-13.0197 245.535,-17.2482 246.051,-10.2672"/>
</g>
<!-- \\Horde_Support_Guid -->
<g id="node19" class="node"><title>\\Horde_Support_Guid</title>
<polygon fill="none" stroke="black" points="590.271,-358 452.271,-358 452.271,-322 590.271,-322 590.271,-358"/>
<text text-anchor="middle" x="521.271" y="-337.2" font-family="Courier,monospace" font-size="11.00">Horde_Support_Guid</text>
</g>
</g>
</svg>
