<?xml version="1.0" encoding="UTF-8" standalone="no"?>
<!DOCTYPE svg PUBLIC "-//W3C//DTD SVG 1.1//EN"
 "http://www.w3.org/Graphics/SVG/1.1/DTD/svg11.dtd">
<!-- Generated by graphviz version 2.38.0 (20140413.2041)
 -->
<!-- Title: G Pages: 1 -->
<svg width="500pt" height="150pt"
 viewBox="0.00 0.00 499.88 150.00" xmlns="http://www.w3.org/2000/svg" xmlns:xlink="http://www.w3.org/1999/xlink">
<g id="graph0" class="graph" transform="scale(1 1) rotate(0) translate(4 146)">
<title>G</title>
<polygon fill="white" stroke="none" points="-4,4 -4,-146 495.88,-146 495.88,4 -4,4"/>
<g id="clust1" class="cluster"><title>cluster_Global</title>
<path fill="none" stroke="gray" d="M300.88,-8C300.88,-8 471.88,-8 471.88,-8 477.88,-8 483.88,-14 483.88,-20 483.88,-20 483.88,-122 483.88,-122 483.88,-128 477.88,-134 471.88,-134 471.88,-134 300.88,-134 300.88,-134 294.88,-134 288.88,-128 288.88,-122 288.88,-122 288.88,-20 288.88,-20 288.88,-14 294.88,-8 300.88,-8"/>
<text text-anchor="middle" x="386.38" y="-121.2" font-family="Times,serif" font-size="11.00" fill="gray">Global</text>
</g>
<!-- \\Horde_Memcache_Exception -->
<g id="node1" class="node"><title>\\Horde_Memcache_Exception</title>
<polygon fill="none" stroke="black" points="475.88,-106 296.88,-106 296.88,-70 475.88,-70 475.88,-106"/>
<text text-anchor="middle" x="386.38" y="-85.2" font-family="Courier,monospace" font-size="11.00">Horde_Memcache_Exception</text>
</g>
<!-- \\Horde_Exception_Wrapped -->
<g id="node3" class="node"><title>\\Horde_Exception_Wrapped</title>
<ellipse fill="none" stroke="black" cx="112.44" cy="-88" rx="112.38" ry="18"/>
<text text-anchor="middle" x="112.44" y="-84.3" font-family="Times,serif" font-size="14.00" fill="gray">\Horde_Exception_Wrapped</text>
</g>
<!-- \\Horde_Memcache_Exception&#45;&gt;\\Horde_Exception_Wrapped -->
<g id="edge1" class="edge"><title>\\Horde_Memcache_Exception&#45;&gt;\\Horde_Exception_Wrapped</title>
<path fill="none" stroke="black" d="M296.713,-88C277.133,-88 256.058,-88 235.417,-88"/>
<polygon fill="none" stroke="black" points="235.328,-84.5001 225.328,-88 235.328,-91.5001 235.328,-84.5001"/>
</g>
<!-- \\Horde_Memcache -->
<g id="node2" class="node"><title>\\Horde_Memcache</title>
<polygon fill="none" stroke="black" points="441.88,-52 330.88,-52 330.88,-16 441.88,-16 441.88,-52"/>
<text text-anchor="middle" x="386.38" y="-31.2" font-family="Courier,monospace" font-size="11.00">Horde_Memcache</text>
</g>
<!-- \\Serializable -->
<g id="node4" class="node"><title>\\Serializable</title>
<ellipse fill="none" stroke="black" cx="112.44" cy="-34" rx="54.6905" ry="18"/>
<text text-anchor="middle" x="112.44" y="-30.3" font-family="Times,serif" font-size="14.00" fill="gray">\Serializable</text>
</g>
<!-- \\Horde_Memcache&#45;&gt;\\Serializable -->
<g id="edge2" class="edge"><title>\\Horde_Memcache&#45;&gt;\\Serializable</title>
<path fill="none" stroke="black" stroke-dasharray="1,5" d="M330.676,-34C286.408,-34 223.989,-34 177.411,-34"/>
<polygon fill="none" stroke="black" points="177.129,-30.5001 167.129,-34 177.129,-37.5001 177.129,-30.5001"/>
</g>
</g>
</svg>
