<?xml version="1.0" encoding="UTF-8" standalone="no"?>
<!DOCTYPE svg PUBLIC "-//W3C//DTD SVG 1.1//EN"
 "http://www.w3.org/Graphics/SVG/1.1/DTD/svg11.dtd">
<!-- Generated by graphviz version 2.38.0 (20140413.2041)
 -->
<!-- Title: G Pages: 1 -->
<svg width="764pt" height="3478pt"
 viewBox="0.00 0.00 763.87 3478.00" xmlns="http://www.w3.org/2000/svg" xmlns:xlink="http://www.w3.org/1999/xlink">
<g id="graph0" class="graph" transform="scale(1 1) rotate(0) translate(4 3474)">
<title>G</title>
<polygon fill="white" stroke="none" points="-4,4 -4,-3474 759.866,-3474 759.866,4 -4,4"/>
<g id="clust1" class="cluster"><title>cluster_Global</title>
<path fill="none" stroke="gray" d="M125.433,-1016C125.433,-1016 735.866,-1016 735.866,-1016 741.866,-1016 747.866,-1022 747.866,-1028 747.866,-1028 747.866,-3450 747.866,-3450 747.866,-3456 741.866,-3462 735.866,-3462 735.866,-3462 125.433,-3462 125.433,-3462 119.433,-3462 113.433,-3456 113.433,-3450 113.433,-3450 113.433,-1028 113.433,-1028 113.433,-1022 119.433,-1016 125.433,-1016"/>
<text text-anchor="middle" x="430.65" y="-3449.2" font-family="Times,serif" font-size="11.00" fill="gray">Global</text>
</g>
<g id="clust2" class="cluster"><title>cluster_\Nag</title>
<path fill="none" stroke="gray" d="M565.366,-3066C565.366,-3066 627.366,-3066 627.366,-3066 633.366,-3066 639.366,-3072 639.366,-3078 639.366,-3078 639.366,-3162 639.366,-3162 639.366,-3168 633.366,-3174 627.366,-3174 627.366,-3174 565.366,-3174 565.366,-3174 559.366,-3174 553.366,-3168 553.366,-3162 553.366,-3162 553.366,-3078 553.366,-3078 553.366,-3072 559.366,-3066 565.366,-3066"/>
<text text-anchor="middle" x="596.366" y="-3161.2" font-family="Times,serif" font-size="11.00" fill="gray">Nag</text>
</g>
<g id="clust3" class="cluster"><title>cluster_\Nag\Backup</title>
<path fill="none" stroke="gray" d="M573.366,-3074C573.366,-3074 619.366,-3074 619.366,-3074 625.366,-3074 631.366,-3080 631.366,-3086 631.366,-3086 631.366,-3134 631.366,-3134 631.366,-3140 625.366,-3146 619.366,-3146 619.366,-3146 573.366,-3146 573.366,-3146 567.366,-3146 561.366,-3140 561.366,-3134 561.366,-3134 561.366,-3086 561.366,-3086 561.366,-3080 567.366,-3074 573.366,-3074"/>
<text text-anchor="middle" x="596.366" y="-3133.2" font-family="Times,serif" font-size="11.00" fill="gray">Backup</text>
</g>
<!-- \\Nag\\Backup\\Tasks -->
<g id="node1" class="node"><title>\\Nag\\Backup\\Tasks</title>
<polygon fill="none" stroke="black" points="623.366,-3118 569.366,-3118 569.366,-3082 623.366,-3082 623.366,-3118"/>
<text text-anchor="middle" x="596.366" y="-3097.2" font-family="Courier,monospace" font-size="11.00">Tasks</text>
</g>
<!-- \\Iterator -->
<g id="node61" class="node"><title>\\Iterator</title>
<ellipse fill="none" stroke="black" cx="190.433" cy="-990" rx="38.9931" ry="18"/>
<text text-anchor="middle" x="190.433" y="-986.3" font-family="Times,serif" font-size="14.00" fill="gray">\Iterator</text>
</g>
<!-- \\Nag\\Backup\\Tasks&#45;&gt;\\Iterator -->
<g id="edge31" class="edge"><title>\\Nag\\Backup\\Tasks&#45;&gt;\\Iterator</title>
<path fill="none" stroke="black" stroke-dasharray="1,5" d="M569.21,-3104.77C536.591,-3109.04 481.624,-3110.38 452.866,-3078 300.336,-2906.26 536.594,-1180.84 380.866,-1012 344.811,-972.908 279.426,-974.211 235.71,-980.607"/>
<polygon fill="none" stroke="black" points="234.957,-977.183 225.64,-982.226 236.068,-984.094 234.957,-977.183"/>
</g>
<!-- \\Nag_LoginTasks_Task_PurgeCompleted -->
<g id="node2" class="node"><title>\\Nag_LoginTasks_Task_PurgeCompleted</title>
<polygon fill="none" stroke="black" points="719.366,-3058 473.366,-3058 473.366,-3022 719.366,-3022 719.366,-3058"/>
<text text-anchor="middle" x="596.366" y="-3037.2" font-family="Courier,monospace" font-size="11.00">Nag_LoginTasks_Task_PurgeCompleted</text>
</g>
<!-- \\Horde_LoginTasks_Task -->
<g id="node47" class="node"><title>\\Horde_LoginTasks_Task</title>
<ellipse fill="none" stroke="black" cx="190.433" cy="-936" rx="102.882" ry="18"/>
<text text-anchor="middle" x="190.433" y="-932.3" font-family="Times,serif" font-size="14.00" fill="gray">\Horde_LoginTasks_Task</text>
</g>
<!-- \\Nag_LoginTasks_Task_PurgeCompleted&#45;&gt;\\Horde_LoginTasks_Task -->
<g id="edge1" class="edge"><title>\\Nag_LoginTasks_Task_PurgeCompleted&#45;&gt;\\Horde_LoginTasks_Task</title>
<path fill="none" stroke="black" d="M473.285,-3029.51C465.636,-3025.2 458.688,-3019.78 452.866,-3013 304.418,-2840.06 533.225,-1132.51 380.866,-963 357.117,-936.578 320.152,-927.519 285.157,-925.928"/>
<polygon fill="none" stroke="black" points="284.952,-922.422 274.866,-925.666 284.773,-929.42 284.952,-922.422"/>
</g>
<!-- \\Nag_Api -->
<g id="node3" class="node"><title>\\Nag_Api</title>
<polygon fill="none" stroke="black" points="628.366,-2950 564.366,-2950 564.366,-2914 628.366,-2914 628.366,-2950"/>
<text text-anchor="middle" x="596.366" y="-2929.2" font-family="Courier,monospace" font-size="11.00">Nag_Api</text>
</g>
<!-- \\Horde_Registry_Api -->
<g id="node48" class="node"><title>\\Horde_Registry_Api</title>
<ellipse fill="none" stroke="black" cx="190.433" cy="-882" rx="87.1846" ry="18"/>
<text text-anchor="middle" x="190.433" y="-878.3" font-family="Times,serif" font-size="14.00" fill="gray">\Horde_Registry_Api</text>
</g>
<!-- \\Nag_Api&#45;&gt;\\Horde_Registry_Api -->
<g id="edge2" class="edge"><title>\\Nag_Api&#45;&gt;\\Horde_Registry_Api</title>
<path fill="none" stroke="black" d="M564.111,-2936.16C531.001,-2938.61 479.859,-2936.42 452.866,-2905 308.244,-2736.67 529.295,-1073.98 380.866,-909 354.249,-879.415 311.062,-871.606 272.641,-871.672"/>
<polygon fill="none" stroke="black" points="272.4,-868.176 262.47,-871.868 272.535,-875.174 272.4,-868.176"/>
</g>
<!-- \\Nag_Ajax_Application_Handler_Smartmobile -->
<g id="node4" class="node"><title>\\Nag_Ajax_Application_Handler_Smartmobile</title>
<polygon fill="none" stroke="black" points="739.866,-2896 452.866,-2896 452.866,-2860 739.866,-2860 739.866,-2896"/>
<text text-anchor="middle" x="596.366" y="-2875.2" font-family="Courier,monospace" font-size="11.00">Nag_Ajax_Application_Handler_Smartmobile</text>
</g>
<!-- \\Horde_Core_Ajax_Application_Handler -->
<g id="node49" class="node"><title>\\Horde_Core_Ajax_Application_Handler</title>
<ellipse fill="none" stroke="black" cx="190.433" cy="-828" rx="156.772" ry="18"/>
<text text-anchor="middle" x="190.433" y="-824.3" font-family="Times,serif" font-size="14.00" fill="gray">\Horde_Core_Ajax_Application_Handler</text>
</g>
<!-- \\Nag_Ajax_Application_Handler_Smartmobile&#45;&gt;\\Horde_Core_Ajax_Application_Handler -->
<g id="edge3" class="edge"><title>\\Nag_Ajax_Application_Handler_Smartmobile&#45;&gt;\\Horde_Core_Ajax_Application_Handler</title>
<path fill="none" stroke="black" d="M461.962,-2859.83C458.703,-2857.18 455.656,-2854.25 452.866,-2851 308.244,-2682.67 529.295,-1019.98 380.866,-855 373.381,-846.68 364.586,-840.083 354.955,-834.898"/>
<polygon fill="none" stroke="black" points="356.416,-831.717 345.888,-830.525 353.375,-838.022 356.416,-831.717"/>
</g>
<!-- \\Nag_Ajax_Application -->
<g id="node5" class="node"><title>\\Nag_Ajax_Application</title>
<polygon fill="none" stroke="black" points="672.366,-2842 520.366,-2842 520.366,-2806 672.366,-2806 672.366,-2842"/>
<text text-anchor="middle" x="596.366" y="-2821.2" font-family="Courier,monospace" font-size="11.00">Nag_Ajax_Application</text>
</g>
<!-- \\Horde_Core_Ajax_Application -->
<g id="node50" class="node"><title>\\Horde_Core_Ajax_Application</title>
<ellipse fill="none" stroke="black" cx="190.433" cy="-774" rx="124.278" ry="18"/>
<text text-anchor="middle" x="190.433" y="-770.3" font-family="Times,serif" font-size="14.00" fill="gray">\Horde_Core_Ajax_Application</text>
</g>
<!-- \\Nag_Ajax_Application&#45;&gt;\\Horde_Core_Ajax_Application -->
<g id="edge4" class="edge"><title>\\Nag_Ajax_Application&#45;&gt;\\Horde_Core_Ajax_Application</title>
<path fill="none" stroke="black" d="M520.134,-2827.51C495.116,-2824.56 469.439,-2816.29 452.866,-2797 308.244,-2628.67 529.295,-965.98 380.866,-801 362.166,-780.215 335.287,-770.178 307.627,-766.069"/>
<polygon fill="none" stroke="black" points="307.768,-762.56 297.415,-764.814 306.914,-769.508 307.768,-762.56"/>
</g>
<!-- \\Nag_Ajax_Imple_TagAutoCompleter -->
<g id="node6" class="node"><title>\\Nag_Ajax_Imple_TagAutoCompleter</title>
<polygon fill="none" stroke="black" points="709.366,-2788 483.366,-2788 483.366,-2752 709.366,-2752 709.366,-2788"/>
<text text-anchor="middle" x="596.366" y="-2767.2" font-family="Courier,monospace" font-size="11.00">Nag_Ajax_Imple_TagAutoCompleter</text>
</g>
<!-- \\Horde_Core_Ajax_Imple_AutoCompleter -->
<g id="node51" class="node"><title>\\Horde_Core_Ajax_Imple_AutoCompleter</title>
<ellipse fill="none" stroke="black" cx="190.433" cy="-720" rx="163.271" ry="18"/>
<text text-anchor="middle" x="190.433" y="-716.3" font-family="Times,serif" font-size="14.00" fill="gray">\Horde_Core_Ajax_Imple_AutoCompleter</text>
</g>
<!-- \\Nag_Ajax_Imple_TagAutoCompleter&#45;&gt;\\Horde_Core_Ajax_Imple_AutoCompleter -->
<g id="edge5" class="edge"><title>\\Nag_Ajax_Imple_TagAutoCompleter&#45;&gt;\\Horde_Core_Ajax_Imple_AutoCompleter</title>
<path fill="none" stroke="black" d="M483.333,-2764.38C471.715,-2759.54 461.153,-2752.64 452.866,-2743 308.244,-2574.67 529.295,-911.98 380.866,-747 374.27,-739.668 366.656,-733.674 358.349,-728.805"/>
<polygon fill="none" stroke="black" points="359.936,-725.685 349.456,-724.131 356.679,-731.881 359.936,-725.685"/>
</g>
<!-- \\Nag_Ajax_Imple_ContactAutoCompleter -->
<g id="node7" class="node"><title>\\Nag_Ajax_Imple_ContactAutoCompleter</title>
<polygon fill="none" stroke="black" points="722.866,-2734 469.866,-2734 469.866,-2698 722.866,-2698 722.866,-2734"/>
<text text-anchor="middle" x="596.366" y="-2713.2" font-family="Courier,monospace" font-size="11.00">Nag_Ajax_Imple_ContactAutoCompleter</text>
</g>
<!-- \\Horde_Core_Ajax_Imple_ContactAutoCompleter -->
<g id="node52" class="node"><title>\\Horde_Core_Ajax_Imple_ContactAutoCompleter</title>
<ellipse fill="none" stroke="black" cx="190.433" cy="-666" rx="190.366" ry="18"/>
<text text-anchor="middle" x="190.433" y="-662.3" font-family="Times,serif" font-size="14.00" fill="gray">\Horde_Core_Ajax_Imple_ContactAutoCompleter</text>
</g>
<!-- \\Nag_Ajax_Imple_ContactAutoCompleter&#45;&gt;\\Horde_Core_Ajax_Imple_ContactAutoCompleter -->
<g id="edge6" class="edge"><title>\\Nag_Ajax_Imple_ContactAutoCompleter&#45;&gt;\\Horde_Core_Ajax_Imple_ContactAutoCompleter</title>
<path fill="none" stroke="black" d="M469.788,-2703.42C463.515,-2699.49 457.789,-2694.73 452.866,-2689 308.244,-2520.67 529.295,-857.98 380.866,-693 376.492,-688.138 371.67,-683.864 366.495,-680.117"/>
<polygon fill="none" stroke="black" points="368.379,-677.167 358.087,-674.652 364.565,-683.036 368.379,-677.167"/>
</g>
<!-- \\Nag -->
<g id="node8" class="node"><title>\\Nag</title>
<polygon fill="none" stroke="black" points="623.366,-3004 569.366,-3004 569.366,-2968 623.366,-2968 623.366,-3004"/>
<text text-anchor="middle" x="596.366" y="-2983.2" font-family="Courier,monospace" font-size="11.00">Nag</text>
</g>
<!-- \\Nag_Form_CreateTaskList -->
<g id="node9" class="node"><title>\\Nag_Form_CreateTaskList</title>
<polygon fill="none" stroke="black" points="682.366,-2626 510.366,-2626 510.366,-2590 682.366,-2590 682.366,-2626"/>
<text text-anchor="middle" x="596.366" y="-2605.2" font-family="Courier,monospace" font-size="11.00">Nag_Form_CreateTaskList</text>
</g>
<!-- \\Horde_Form -->
<g id="node53" class="node"><title>\\Horde_Form</title>
<ellipse fill="none" stroke="black" cx="190.433" cy="-612" rx="59.2899" ry="18"/>
<text text-anchor="middle" x="190.433" y="-608.3" font-family="Times,serif" font-size="14.00" fill="gray">\Horde_Form</text>
</g>
<!-- \\Nag_Form_CreateTaskList&#45;&gt;\\Horde_Form -->
<g id="edge7" class="edge"><title>\\Nag_Form_CreateTaskList&#45;&gt;\\Horde_Form</title>
<path fill="none" stroke="black" d="M510.101,-2610.02C488.426,-2606.14 467.233,-2597.7 452.866,-2581 312.069,-2417.29 525.365,-799.45 380.866,-639 349.377,-604.035 294.741,-599.496 252.212,-602.419"/>
<polygon fill="none" stroke="black" points="251.908,-598.932 242.235,-603.253 252.492,-605.907 251.908,-598.932"/>
</g>
<!-- \\Nag_Form_DeleteTaskList -->
<g id="node10" class="node"><title>\\Nag_Form_DeleteTaskList</title>
<polygon fill="none" stroke="black" points="682.366,-2572 510.366,-2572 510.366,-2536 682.366,-2536 682.366,-2572"/>
<text text-anchor="middle" x="596.366" y="-2551.2" font-family="Courier,monospace" font-size="11.00">Nag_Form_DeleteTaskList</text>
</g>
<!-- \\Nag_Form_DeleteTaskList&#45;&gt;\\Horde_Form -->
<g id="edge8" class="edge"><title>\\Nag_Form_DeleteTaskList&#45;&gt;\\Horde_Form</title>
<path fill="none" stroke="black" d="M510.112,-2556.01C488.437,-2552.13 467.241,-2543.7 452.866,-2527 315.895,-2367.91 521.435,-794.92 380.866,-639 349.359,-604.052 294.724,-599.511 252.201,-602.429"/>
<polygon fill="none" stroke="black" points="251.899,-598.941 242.225,-603.262 252.482,-605.917 251.899,-598.941"/>
</g>
<!-- \\Nag_Form_Task -->
<g id="node11" class="node"><title>\\Nag_Form_Task</title>
<polygon fill="none" stroke="black" points="648.366,-2518 544.366,-2518 544.366,-2482 648.366,-2482 648.366,-2518"/>
<text text-anchor="middle" x="596.366" y="-2497.2" font-family="Courier,monospace" font-size="11.00">Nag_Form_Task</text>
</g>
<!-- \\Nag_Form_Task&#45;&gt;\\Horde_Form -->
<g id="edge9" class="edge"><title>\\Nag_Form_Task&#45;&gt;\\Horde_Form</title>
<path fill="none" stroke="black" d="M544.131,-2504.86C512.906,-2504.76 474.895,-2498.56 452.866,-2473 319.72,-2318.53 517.506,-790.39 380.866,-639 349.339,-604.069 294.707,-599.527 252.189,-602.439"/>
<polygon fill="none" stroke="black" points="251.889,-598.952 242.215,-603.271 252.472,-605.928 251.889,-598.952"/>
</g>
<!-- \\Nag_Form_Search -->
<g id="node12" class="node"><title>\\Nag_Form_Search</title>
<polygon fill="none" stroke="black" points="655.366,-2464 537.366,-2464 537.366,-2428 655.366,-2428 655.366,-2464"/>
<text text-anchor="middle" x="596.366" y="-2443.2" font-family="Courier,monospace" font-size="11.00">Nag_Form_Search</text>
</g>
<!-- \\Nag_Form_Search&#45;&gt;\\Horde_Form -->
<g id="edge10" class="edge"><title>\\Nag_Form_Search&#45;&gt;\\Horde_Form</title>
<path fill="none" stroke="black" d="M537.048,-2450.72C507.336,-2449.71 473.265,-2442.64 452.866,-2419 323.545,-2269.15 513.576,-785.861 380.866,-639 349.318,-604.088 294.688,-599.544 252.177,-602.45"/>
<polygon fill="none" stroke="black" points="251.879,-598.963 242.204,-603.281 252.46,-605.939 251.879,-598.963"/>
</g>
<!-- \\Nag_Form_EditTaskList -->
<g id="node13" class="node"><title>\\Nag_Form_EditTaskList</title>
<polygon fill="none" stroke="black" points="675.366,-2680 517.366,-2680 517.366,-2644 675.366,-2644 675.366,-2680"/>
<text text-anchor="middle" x="596.366" y="-2659.2" font-family="Courier,monospace" font-size="11.00">Nag_Form_EditTaskList</text>
</g>
<!-- \\Nag_Form_EditTaskList&#45;&gt;\\Horde_Form -->
<g id="edge11" class="edge"><title>\\Nag_Form_EditTaskList&#45;&gt;\\Horde_Form</title>
<path fill="none" stroke="black" d="M517.159,-2665.13C493.097,-2661.89 468.783,-2653.53 452.866,-2635 308.244,-2466.67 529.295,-803.98 380.866,-639 349.395,-604.019 294.756,-599.482 252.222,-602.409"/>
<polygon fill="none" stroke="black" points="251.917,-598.922 242.244,-603.245 252.502,-605.898 251.917,-598.922"/>
</g>
<!-- \\Nag_Form_Type_NagTags -->
<g id="node14" class="node"><title>\\Nag_Form_Type_NagTags</title>
<polygon fill="none" stroke="black" points="675.366,-2356 517.366,-2356 517.366,-2320 675.366,-2320 675.366,-2356"/>
<text text-anchor="middle" x="596.366" y="-2335.2" font-family="Courier,monospace" font-size="11.00">Nag_Form_Type_NagTags</text>
</g>
<!-- \\Horde_Form_Type -->
<g id="node54" class="node"><title>\\Horde_Form_Type</title>
<ellipse fill="none" stroke="black" cx="190.433" cy="-558" rx="81.4863" ry="18"/>
<text text-anchor="middle" x="190.433" y="-554.3" font-family="Times,serif" font-size="14.00" fill="gray">\Horde_Form_Type</text>
</g>
<!-- \\Nag_Form_Type_NagTags&#45;&gt;\\Horde_Form_Type -->
<g id="edge12" class="edge"><title>\\Nag_Form_Type_NagTags&#45;&gt;\\Horde_Form_Type</title>
<path fill="none" stroke="black" d="M517.219,-2341.08C493.161,-2337.83 468.835,-2329.48 452.866,-2311 327.37,-2165.76 509.647,-727.332 380.866,-585 353.289,-554.521 308.118,-547.197 268.802,-547.765"/>
<polygon fill="none" stroke="black" points="268.569,-544.271 258.683,-548.083 268.788,-551.267 268.569,-544.271"/>
</g>
<!-- \\Nag_Form_Type_NagContact -->
<g id="node15" class="node"><title>\\Nag_Form_Type_NagContact</title>
<polygon fill="none" stroke="black" points="685.866,-2302 506.866,-2302 506.866,-2266 685.866,-2266 685.866,-2302"/>
<text text-anchor="middle" x="596.366" y="-2281.2" font-family="Courier,monospace" font-size="11.00">Nag_Form_Type_NagContact</text>
</g>
<!-- \\Nag_Form_Type_NagContact&#45;&gt;\\Horde_Form_Type -->
<g id="edge13" class="edge"><title>\\Nag_Form_Type_NagContact&#45;&gt;\\Horde_Form_Type</title>
<path fill="none" stroke="black" d="M506.826,-2285.33C486.328,-2281.2 466.541,-2272.8 452.866,-2257 331.195,-2116.38 505.717,-722.803 380.866,-585 353.269,-554.54 308.097,-547.216 268.786,-547.78"/>
<polygon fill="none" stroke="black" points="268.554,-544.286 258.668,-548.097 268.773,-551.282 268.554,-544.286"/>
</g>
<!-- \\Nag_Form_Type_NagMethod -->
<g id="node16" class="node"><title>\\Nag_Form_Type_NagMethod</title>
<polygon fill="none" stroke="black" points="682.366,-2248 510.366,-2248 510.366,-2212 682.366,-2212 682.366,-2248"/>
<text text-anchor="middle" x="596.366" y="-2227.2" font-family="Courier,monospace" font-size="11.00">Nag_Form_Type_NagMethod</text>
</g>
<!-- \\Nag_Form_Type_NagMethod&#45;&gt;\\Horde_Form_Type -->
<g id="edge14" class="edge"><title>\\Nag_Form_Type_NagMethod&#45;&gt;\\Horde_Form_Type</title>
<path fill="none" stroke="black" d="M510.181,-2231.95C488.507,-2228.07 467.294,-2219.65 452.866,-2203 335.019,-2067 501.788,-718.274 380.866,-585 353.247,-554.559 308.074,-547.237 268.768,-547.796"/>
<polygon fill="none" stroke="black" points="268.538,-544.301 258.652,-548.111 268.757,-551.298 268.538,-544.301"/>
</g>
<!-- \\Nag_Form_Type_NagDue -->
<g id="node17" class="node"><title>\\Nag_Form_Type_NagDue</title>
<polygon fill="none" stroke="black" points="672.366,-2194 520.366,-2194 520.366,-2158 672.366,-2158 672.366,-2194"/>
<text text-anchor="middle" x="596.366" y="-2173.2" font-family="Courier,monospace" font-size="11.00">Nag_Form_Type_NagDue</text>
</g>
<!-- \\Nag_Form_Type_NagDue&#45;&gt;\\Horde_Form_Type -->
<g id="edge15" class="edge"><title>\\Nag_Form_Type_NagDue&#45;&gt;\\Horde_Form_Type</title>
<path fill="none" stroke="black" d="M520.239,-2179.42C495.232,-2176.46 469.535,-2168.21 452.866,-2149 338.844,-2017.62 497.859,-713.745 380.866,-585 353.224,-554.581 308.05,-547.259 268.75,-547.813"/>
<polygon fill="none" stroke="black" points="268.522,-544.318 258.635,-548.127 268.739,-551.315 268.522,-544.318"/>
</g>
<!-- \\Nag_Form_Type_NagRecurrence -->
<g id="node18" class="node"><title>\\Nag_Form_Type_NagRecurrence</title>
<polygon fill="none" stroke="black" points="695.866,-2140 496.866,-2140 496.866,-2104 695.866,-2104 695.866,-2140"/>
<text text-anchor="middle" x="596.366" y="-2119.2" font-family="Courier,monospace" font-size="11.00">Nag_Form_Type_NagRecurrence</text>
</g>
<!-- \\Nag_Form_Type_NagRecurrence&#45;&gt;\\Horde_Form_Type -->
<g id="edge16" class="edge"><title>\\Nag_Form_Type_NagRecurrence&#45;&gt;\\Horde_Form_Type</title>
<path fill="none" stroke="black" d="M496.589,-2120.82C479.871,-2116.12 464.265,-2108.11 452.866,-2095 342.668,-1968.23 493.931,-709.217 380.866,-585 353.199,-554.603 308.025,-547.282 268.73,-547.831"/>
<polygon fill="none" stroke="black" points="268.504,-544.336 258.617,-548.144 268.72,-551.333 268.504,-544.336"/>
</g>
<!-- \\Nag_Form_Type_NagAlarm -->
<g id="node19" class="node"><title>\\Nag_Form_Type_NagAlarm</title>
<polygon fill="none" stroke="black" points="678.866,-2086 513.866,-2086 513.866,-2050 678.866,-2050 678.866,-2086"/>
<text text-anchor="middle" x="596.366" y="-2065.2" font-family="Courier,monospace" font-size="11.00">Nag_Form_Type_NagAlarm</text>
</g>
<!-- \\Nag_Form_Type_NagAlarm&#45;&gt;\\Horde_Form_Type -->
<g id="edge17" class="edge"><title>\\Nag_Form_Type_NagAlarm&#45;&gt;\\Horde_Form_Type</title>
<path fill="none" stroke="black" d="M513.581,-2070.46C490.762,-2066.87 468.08,-2058.47 452.866,-2041 346.492,-1918.85 490.002,-704.689 380.866,-585 353.172,-554.628 307.997,-547.307 268.708,-547.851"/>
<polygon fill="none" stroke="black" points="268.485,-544.356 258.597,-548.162 268.7,-551.353 268.485,-544.356"/>
</g>
<!-- \\Nag_Form_Type_NagStart -->
<g id="node20" class="node"><title>\\Nag_Form_Type_NagStart</title>
<polygon fill="none" stroke="black" points="678.866,-2032 513.866,-2032 513.866,-1996 678.866,-1996 678.866,-2032"/>
<text text-anchor="middle" x="596.366" y="-2011.2" font-family="Courier,monospace" font-size="11.00">Nag_Form_Type_NagStart</text>
</g>
<!-- \\Nag_Form_Type_NagStart&#45;&gt;\\Horde_Form_Type -->
<g id="edge18" class="edge"><title>\\Nag_Form_Type_NagStart&#45;&gt;\\Horde_Form_Type</title>
<path fill="none" stroke="black" d="M513.601,-2016.45C490.784,-2012.85 468.096,-2004.46 452.866,-1987 247.765,-1751.93 591.282,-815.321 380.866,-585 353.143,-554.654 307.967,-547.334 268.685,-547.872"/>
<polygon fill="none" stroke="black" points="268.464,-544.377 258.576,-548.181 268.678,-551.374 268.464,-544.377"/>
</g>
<!-- \\Nag_Form_Type_NagSearchDue -->
<g id="node21" class="node"><title>\\Nag_Form_Type_NagSearchDue</title>
<polygon fill="none" stroke="black" points="692.366,-2410 500.366,-2410 500.366,-2374 692.366,-2374 692.366,-2410"/>
<text text-anchor="middle" x="596.366" y="-2389.2" font-family="Courier,monospace" font-size="11.00">Nag_Form_Type_NagSearchDue</text>
</g>
<!-- \\Nag_Form_Type_NagSearchDue&#45;&gt;\\Horde_Form_Type -->
<g id="edge19" class="edge"><title>\\Nag_Form_Type_NagSearchDue&#45;&gt;\\Horde_Form_Type</title>
<path fill="none" stroke="black" d="M500.162,-2391.85C482.083,-2387.31 465.04,-2379.11 452.866,-2365 323.545,-2215.15 513.576,-731.861 380.866,-585 353.308,-554.504 308.138,-547.179 268.818,-547.751"/>
<polygon fill="none" stroke="black" points="268.582,-544.257 258.698,-548.07 268.803,-551.254 268.582,-544.257"/>
</g>
<!-- \\Nag_TagBrowser -->
<g id="node22" class="node"><title>\\Nag_TagBrowser</title>
<polygon fill="none" stroke="black" points="651.866,-1924 540.866,-1924 540.866,-1888 651.866,-1888 651.866,-1924"/>
<text text-anchor="middle" x="596.366" y="-1903.2" font-family="Courier,monospace" font-size="11.00">Nag_TagBrowser</text>
</g>
<!-- \\Horde_Core_TagBrowser -->
<g id="node55" class="node"><title>\\Horde_Core_TagBrowser</title>
<ellipse fill="none" stroke="black" cx="190.433" cy="-504" rx="104.782" ry="18"/>
<text text-anchor="middle" x="190.433" y="-500.3" font-family="Times,serif" font-size="14.00" fill="gray">\Horde_Core_TagBrowser</text>
</g>
<!-- \\Nag_TagBrowser&#45;&gt;\\Horde_Core_TagBrowser -->
<g id="edge20" class="edge"><title>\\Nag_TagBrowser&#45;&gt;\\Horde_Core_TagBrowser</title>
<path fill="none" stroke="black" d="M540.737,-1910.71C510.263,-1910.12 474.246,-1903.45 452.866,-1879 255.412,-1653.17 583.427,-752.266 380.866,-531 357.49,-505.465 321.753,-496.245 287.594,-494.289"/>
<polygon fill="none" stroke="black" points="287.662,-490.789 277.538,-493.913 287.4,-497.784 287.662,-490.789"/>
</g>
<!-- \\Nag_Exception -->
<g id="node23" class="node"><title>\\Nag_Exception</title>
<polygon fill="none" stroke="black" points="648.366,-1816 544.366,-1816 544.366,-1780 648.366,-1780 648.366,-1816"/>
<text text-anchor="middle" x="596.366" y="-1795.2" font-family="Courier,monospace" font-size="11.00">Nag_Exception</text>
</g>
<!-- \\Horde_Exception_Wrapped -->
<g id="node56" class="node"><title>\\Horde_Exception_Wrapped</title>
<ellipse fill="none" stroke="black" cx="190.433" cy="-450" rx="112.38" ry="18"/>
<text text-anchor="middle" x="190.433" y="-446.3" font-family="Times,serif" font-size="14.00" fill="gray">\Horde_Exception_Wrapped</text>
</g>
<!-- \\Nag_Exception&#45;&gt;\\Horde_Exception_Wrapped -->
<g id="edge21" class="edge"><title>\\Nag_Exception&#45;&gt;\\Horde_Exception_Wrapped</title>
<path fill="none" stroke="black" d="M544.273,-1802.74C513.104,-1802.58 475.103,-1796.38 452.866,-1771 263.058,-1554.4 575.572,-689.212 380.866,-477 359.182,-453.366 326.909,-443.719 295.118,-440.87"/>
<polygon fill="none" stroke="black" points="295.041,-437.357 284.828,-440.174 294.569,-444.341 295.041,-437.357"/>
</g>
<!-- \\Nag_Application -->
<g id="node24" class="node"><title>\\Nag_Application</title>
<polygon fill="none" stroke="black" points="655.366,-1762 537.366,-1762 537.366,-1726 655.366,-1726 655.366,-1762"/>
<text text-anchor="middle" x="596.366" y="-1741.2" font-family="Courier,monospace" font-size="11.00">Nag_Application</text>
</g>
<!-- \\Horde_Registry_Application -->
<g id="node57" class="node"><title>\\Horde_Registry_Application</title>
<ellipse fill="none" stroke="black" cx="190.433" cy="-396" rx="115.08" ry="18"/>
<text text-anchor="middle" x="190.433" y="-392.3" font-family="Times,serif" font-size="14.00" fill="gray">\Horde_Registry_Application</text>
</g>
<!-- \\Nag_Application&#45;&gt;\\Horde_Registry_Application -->
<g id="edge22" class="edge"><title>\\Nag_Application&#45;&gt;\\Horde_Registry_Application</title>
<path fill="none" stroke="black" d="M537.19,-1748.6C507.52,-1747.55 473.444,-1740.48 452.866,-1717 263.058,-1500.4 575.572,-635.212 380.866,-423 359.79,-400.029 328.71,-390.271 297.793,-387.126"/>
<polygon fill="none" stroke="black" points="298.02,-383.633 287.774,-386.328 297.465,-390.611 298.02,-383.633"/>
</g>
<!-- \\Nag_Tasklists_Kolab -->
<g id="node25" class="node"><title>\\Nag_Tasklists_Kolab</title>
<polygon fill="none" stroke="black" points="668.866,-3434 523.866,-3434 523.866,-3398 668.866,-3398 668.866,-3434"/>
<text text-anchor="middle" x="596.366" y="-3413.2" font-family="Courier,monospace" font-size="11.00">Nag_Tasklists_Kolab</text>
</g>
<!-- \\Nag_Tasklists_Base -->
<g id="node27" class="node"><title>\\Nag_Tasklists_Base</title>
<polygon fill="none" stroke="black" points="259.433,-3407 121.433,-3407 121.433,-3371 259.433,-3371 259.433,-3407"/>
<text text-anchor="start" x="156.433" y="-3392.2" font-family="Courier,monospace" font-size="11.00">«abstract»</text>
<text text-anchor="start" x="129.433" y="-3380.2" font-family="Courier,monospace" font-size="11.00">Nag_Tasklists_Base</text>
</g>
<!-- \\Nag_Tasklists_Kolab&#45;&gt;\\Nag_Tasklists_Base -->
<g id="edge23" class="edge"><title>\\Nag_Tasklists_Kolab&#45;&gt;\\Nag_Tasklists_Base</title>
<path fill="none" stroke="black" d="M523.617,-3411.2C452.272,-3406.44 343.136,-3399.14 269.618,-3394.23"/>
<polygon fill="none" stroke="black" points="269.699,-3390.72 259.488,-3393.55 269.232,-3397.71 269.699,-3390.72"/>
</g>
<!-- \\Nag_Tasklists_Default -->
<g id="node26" class="node"><title>\\Nag_Tasklists_Default</title>
<polygon fill="none" stroke="black" points="675.366,-3380 517.366,-3380 517.366,-3344 675.366,-3344 675.366,-3380"/>
<text text-anchor="middle" x="596.366" y="-3359.2" font-family="Courier,monospace" font-size="11.00">Nag_Tasklists_Default</text>
</g>
<!-- \\Nag_Tasklists_Default&#45;&gt;\\Nag_Tasklists_Base -->
<g id="edge24" class="edge"><title>\\Nag_Tasklists_Default&#45;&gt;\\Nag_Tasklists_Base</title>
<path fill="none" stroke="black" d="M517.005,-3367.24C445.718,-3372 341.049,-3379 269.77,-3383.76"/>
<polygon fill="none" stroke="black" points="269.248,-3380.29 259.503,-3384.45 269.715,-3387.28 269.248,-3380.29"/>
</g>
<!-- \\Nag_View_List -->
<g id="node28" class="node"><title>\\Nag_View_List</title>
<polygon fill="none" stroke="black" points="648.366,-1978 544.366,-1978 544.366,-1942 648.366,-1942 648.366,-1978"/>
<text text-anchor="middle" x="596.366" y="-1957.2" font-family="Courier,monospace" font-size="11.00">Nag_View_List</text>
</g>
<!-- \\Nag_View_Helper_List -->
<g id="node29" class="node"><title>\\Nag_View_Helper_List</title>
<polygon fill="none" stroke="black" points="672.366,-1708 520.366,-1708 520.366,-1672 672.366,-1672 672.366,-1708"/>
<text text-anchor="middle" x="596.366" y="-1687.2" font-family="Courier,monospace" font-size="11.00">Nag_View_Helper_List</text>
</g>
<!-- \\Horde_View_Helper_Base -->
<g id="node58" class="node"><title>\\Horde_View_Helper_Base</title>
<ellipse fill="none" stroke="black" cx="190.433" cy="-342" rx="108.581" ry="18"/>
<text text-anchor="middle" x="190.433" y="-338.3" font-family="Times,serif" font-size="14.00" fill="gray">\Horde_View_Helper_Base</text>
</g>
<!-- \\Nag_View_Helper_List&#45;&gt;\\Horde_View_Helper_Base -->
<g id="edge25" class="edge"><title>\\Nag_View_Helper_List&#45;&gt;\\Horde_View_Helper_Base</title>
<path fill="none" stroke="black" d="M520.34,-1693.33C495.343,-1690.36 469.627,-1682.13 452.866,-1663 263.058,-1446.4 575.572,-581.212 380.866,-369 358.274,-344.377 324.187,-334.935 291.128,-332.547"/>
<polygon fill="none" stroke="black" points="291.081,-329.04 280.915,-332.023 290.723,-336.031 291.081,-329.04"/>
</g>
<!-- \\Nag_Task -->
<g id="node30" class="node"><title>\\Nag_Task</title>
<polygon fill="none" stroke="black" points="631.866,-1870 560.866,-1870 560.866,-1834 631.866,-1834 631.866,-1870"/>
<text text-anchor="middle" x="596.366" y="-1849.2" font-family="Courier,monospace" font-size="11.00">Nag_Task</text>
</g>
<!-- \\Nag_Search -->
<g id="node31" class="node"><title>\\Nag_Search</title>
<polygon fill="none" stroke="black" points="638.366,-1654 554.366,-1654 554.366,-1618 638.366,-1618 638.366,-1654"/>
<text text-anchor="middle" x="596.366" y="-1633.2" font-family="Courier,monospace" font-size="11.00">Nag_Search</text>
</g>
<!-- \\Serializable -->
<g id="node59" class="node"><title>\\Serializable</title>
<ellipse fill="none" stroke="black" cx="190.433" cy="-288" rx="54.6905" ry="18"/>
<text text-anchor="middle" x="190.433" y="-284.3" font-family="Times,serif" font-size="14.00" fill="gray">\Serializable</text>
</g>
<!-- \\Nag_Search&#45;&gt;\\Serializable -->
<g id="edge26" class="edge"><title>\\Nag_Search&#45;&gt;\\Serializable</title>
<path fill="none" stroke="black" stroke-dasharray="1,5" d="M554.123,-1640.59C521.513,-1641.7 477.51,-1637.12 452.866,-1609 263.058,-1392.4 575.572,-527.212 380.866,-315 348.327,-279.535 291.943,-275.565 249.126,-278.8"/>
<polygon fill="none" stroke="black" points="248.754,-275.319 239.11,-279.705 249.384,-282.291 248.754,-275.319"/>
</g>
<!-- \\Nag_Driver_Kolab -->
<g id="node32" class="node"><title>\\Nag_Driver_Kolab</title>
<polygon fill="none" stroke="black" points="658.866,-3218 533.866,-3218 533.866,-3182 658.866,-3182 658.866,-3218"/>
<text text-anchor="middle" x="596.366" y="-3197.2" font-family="Courier,monospace" font-size="11.00">Nag_Driver_Kolab</text>
</g>
<!-- \\Nag_Driver -->
<g id="node35" class="node"><title>\\Nag_Driver</title>
<polygon fill="none" stroke="black" points="232.433,-3272 148.433,-3272 148.433,-3236 232.433,-3236 232.433,-3272"/>
<text text-anchor="start" x="156.433" y="-3257.2" font-family="Courier,monospace" font-size="11.00">«abstract»</text>
<text text-anchor="start" x="156.433" y="-3245.2" font-family="Courier,monospace" font-size="11.00">Nag_Driver</text>
</g>
<!-- \\Nag_Driver_Kolab&#45;&gt;\\Nag_Driver -->
<g id="edge27" class="edge"><title>\\Nag_Driver_Kolab&#45;&gt;\\Nag_Driver</title>
<path fill="none" stroke="black" d="M533.578,-3208.26C453.897,-3218.91 316.775,-3237.24 242.622,-3247.16"/>
<polygon fill="none" stroke="black" points="242.037,-3243.7 232.589,-3248.5 242.965,-3250.64 242.037,-3243.7"/>
</g>
<!-- \\Nag_Driver_Smartlist -->
<g id="node33" class="node"><title>\\Nag_Driver_Smartlist</title>
<polygon fill="none" stroke="black" points="672.366,-3326 520.366,-3326 520.366,-3290 672.366,-3290 672.366,-3326"/>
<text text-anchor="middle" x="596.366" y="-3305.2" font-family="Courier,monospace" font-size="11.00">Nag_Driver_Smartlist</text>
</g>
<!-- \\Nag_Driver_Smartlist&#45;&gt;\\Nag_Driver -->
<g id="edge28" class="edge"><title>\\Nag_Driver_Smartlist&#45;&gt;\\Nag_Driver</title>
<path fill="none" stroke="black" d="M520.336,-3297.97C439.333,-3287.14 312.517,-3270.19 242.375,-3260.81"/>
<polygon fill="none" stroke="black" points="242.825,-3257.34 232.45,-3259.48 241.898,-3264.28 242.825,-3257.34"/>
</g>
<!-- \\Nag_Driver_Sql -->
<g id="node34" class="node"><title>\\Nag_Driver_Sql</title>
<polygon fill="none" stroke="black" points="651.866,-3272 540.866,-3272 540.866,-3236 651.866,-3236 651.866,-3272"/>
<text text-anchor="middle" x="596.366" y="-3251.2" font-family="Courier,monospace" font-size="11.00">Nag_Driver_Sql</text>
</g>
<!-- \\Nag_Driver_Sql&#45;&gt;\\Nag_Driver -->
<g id="edge29" class="edge"><title>\\Nag_Driver_Sql&#45;&gt;\\Nag_Driver</title>
<path fill="none" stroke="black" d="M540.47,-3254C462.08,-3254 319.129,-3254 242.757,-3254"/>
<polygon fill="none" stroke="black" points="242.436,-3250.5 232.436,-3254 242.436,-3257.5 242.436,-3250.5"/>
</g>
<!-- \\Nag_Tagger -->
<g id="node36" class="node"><title>\\Nag_Tagger</title>
<polygon fill="none" stroke="black" points="638.366,-1600 554.366,-1600 554.366,-1564 638.366,-1564 638.366,-1600"/>
<text text-anchor="middle" x="596.366" y="-1579.2" font-family="Courier,monospace" font-size="11.00">Nag_Tagger</text>
</g>
<!-- \\Horde_Core_Tagger -->
<g id="node60" class="node"><title>\\Horde_Core_Tagger</title>
<ellipse fill="none" stroke="black" cx="190.433" cy="-234" rx="85.5853" ry="18"/>
<text text-anchor="middle" x="190.433" y="-230.3" font-family="Times,serif" font-size="14.00" fill="gray">\Horde_Core_Tagger</text>
</g>
<!-- \\Nag_Tagger&#45;&gt;\\Horde_Core_Tagger -->
<g id="edge30" class="edge"><title>\\Nag_Tagger&#45;&gt;\\Horde_Core_Tagger</title>
<path fill="none" stroke="black" d="M554.123,-1586.59C521.513,-1587.7 477.51,-1583.12 452.866,-1555 263.058,-1338.4 575.572,-473.212 380.866,-261 353.962,-231.676 310.756,-223.884 272.396,-223.894"/>
<polygon fill="none" stroke="black" points="272.18,-220.397 262.244,-224.073 272.304,-227.396 272.18,-220.397"/>
</g>
<!-- \\Nag_QuickParser -->
<g id="node37" class="node"><title>\\Nag_QuickParser</title>
<polygon fill="none" stroke="black" points="655.366,-1546 537.366,-1546 537.366,-1510 655.366,-1510 655.366,-1546"/>
<text text-anchor="middle" x="596.366" y="-1525.2" font-family="Courier,monospace" font-size="11.00">Nag_QuickParser</text>
</g>
<!-- \\Nag_CompleteTask -->
<g id="node38" class="node"><title>\\Nag_CompleteTask</title>
<polygon fill="none" stroke="black" points="658.866,-1492 533.866,-1492 533.866,-1456 658.866,-1456 658.866,-1492"/>
<text text-anchor="middle" x="596.366" y="-1471.2" font-family="Courier,monospace" font-size="11.00">Nag_CompleteTask</text>
</g>
<!-- \\Horde_Core_Ui_VarRenderer_Nag -->
<g id="node39" class="node"><title>\\Horde_Core_Ui_VarRenderer_Nag</title>
<polygon fill="none" stroke="black" points="702.366,-1438 490.366,-1438 490.366,-1402 702.366,-1402 702.366,-1438"/>
<text text-anchor="middle" x="596.366" y="-1417.2" font-family="Courier,monospace" font-size="11.00">Horde_Core_Ui_VarRenderer_Nag</text>
</g>
<!-- \\Horde_Core_Ui_VarRenderer_Html -->
<g id="node62" class="node"><title>\\Horde_Core_Ui_VarRenderer_Html</title>
<ellipse fill="none" stroke="black" cx="190.433" cy="-180" rx="142.175" ry="18"/>
<text text-anchor="middle" x="190.433" y="-176.3" font-family="Times,serif" font-size="14.00" fill="gray">\Horde_Core_Ui_VarRenderer_Html</text>
</g>
<!-- \\Horde_Core_Ui_VarRenderer_Nag&#45;&gt;\\Horde_Core_Ui_VarRenderer_Html -->
<g id="edge32" class="edge"><title>\\Horde_Core_Ui_VarRenderer_Nag&#45;&gt;\\Horde_Core_Ui_VarRenderer_Html</title>
<path fill="none" stroke="black" d="M490.24,-1416.69C475.984,-1411.84 462.852,-1404.34 452.866,-1393 278.348,-1194.86 559.864,-401.106 380.866,-207 369.863,-195.068 356.159,-186.707 341.187,-180.989"/>
<polygon fill="none" stroke="black" points="342.308,-177.673 331.713,-177.761 340.051,-184.299 342.308,-177.673"/>
</g>
<!-- \\Nag_Smartmobile -->
<g id="node40" class="node"><title>\\Nag_Smartmobile</title>
<polygon fill="none" stroke="black" points="655.366,-1384 537.366,-1384 537.366,-1348 655.366,-1348 655.366,-1384"/>
<text text-anchor="middle" x="596.366" y="-1363.2" font-family="Courier,monospace" font-size="11.00">Nag_Smartmobile</text>
</g>
<!-- \\Nag_Factory_Tasklists -->
<g id="node41" class="node"><title>\\Nag_Factory_Tasklists</title>
<polygon fill="none" stroke="black" points="675.366,-1330 517.366,-1330 517.366,-1294 675.366,-1294 675.366,-1330"/>
<text text-anchor="middle" x="596.366" y="-1309.2" font-family="Courier,monospace" font-size="11.00">Nag_Factory_Tasklists</text>
</g>
<!-- \\Nag_Factory_TagBrowser -->
<g id="node42" class="node"><title>\\Nag_Factory_TagBrowser</title>
<polygon fill="none" stroke="black" points="678.866,-1276 513.866,-1276 513.866,-1240 678.866,-1240 678.866,-1276"/>
<text text-anchor="middle" x="596.366" y="-1255.2" font-family="Courier,monospace" font-size="11.00">Nag_Factory_TagBrowser</text>
</g>
<!-- \\Horde_Core_Factory_Base -->
<g id="node63" class="node"><title>\\Horde_Core_Factory_Base</title>
<ellipse fill="none" stroke="black" cx="190.433" cy="-126" rx="109.381" ry="18"/>
<text text-anchor="middle" x="190.433" y="-122.3" font-family="Times,serif" font-size="14.00" fill="gray">\Horde_Core_Factory_Base</text>
</g>
<!-- \\Nag_Factory_TagBrowser&#45;&gt;\\Horde_Core_Factory_Base -->
<g id="edge33" class="edge"><title>\\Nag_Factory_TagBrowser&#45;&gt;\\Horde_Core_Factory_Base</title>
<path fill="none" stroke="black" d="M513.766,-1260.3C490.955,-1256.7 468.23,-1248.34 452.866,-1231 293.633,-1051.31 544.161,-329.005 380.866,-153 358.445,-128.833 324.942,-119.345 292.317,-116.787"/>
<polygon fill="none" stroke="black" points="292.418,-113.288 282.234,-116.207 292.016,-120.276 292.418,-113.288"/>
</g>
<!-- \\Nag_Factory_Driver -->
<g id="node43" class="node"><title>\\Nag_Factory_Driver</title>
<polygon fill="none" stroke="black" points="665.366,-1222 527.366,-1222 527.366,-1186 665.366,-1186 665.366,-1222"/>
<text text-anchor="middle" x="596.366" y="-1201.2" font-family="Courier,monospace" font-size="11.00">Nag_Factory_Driver</text>
</g>
<!-- \\Nag_Factory_Driver&#45;&gt;\\Horde_Core_Factory_Base -->
<g id="edge34" class="edge"><title>\\Nag_Factory_Driver&#45;&gt;\\Horde_Core_Factory_Base</title>
<path fill="none" stroke="black" d="M527.146,-1207.87C500.171,-1205.59 471.272,-1197.7 452.866,-1177 301.275,-1006.54 536.311,-319.956 380.866,-153 358.505,-128.983 325.196,-119.48 292.717,-116.867"/>
<polygon fill="none" stroke="black" points="292.867,-113.37 282.677,-116.269 292.451,-120.358 292.867,-113.37"/>
</g>
<!-- \\Nag_Prefs_Special_TaskAlarms -->
<g id="node44" class="node"><title>\\Nag_Prefs_Special_TaskAlarms</title>
<polygon fill="none" stroke="black" points="699.366,-1168 493.366,-1168 493.366,-1132 699.366,-1132 699.366,-1168"/>
<text text-anchor="middle" x="596.366" y="-1147.2" font-family="Courier,monospace" font-size="11.00">Nag_Prefs_Special_TaskAlarms</text>
</g>
<!-- \\Horde_Core_Prefs_Ui_Special -->
<g id="node64" class="node"><title>\\Horde_Core_Prefs_Ui_Special</title>
<ellipse fill="none" stroke="black" cx="190.433" cy="-72" rx="122.379" ry="18"/>
<text text-anchor="middle" x="190.433" y="-68.3" font-family="Times,serif" font-size="14.00" fill="gray">\Horde_Core_Prefs_Ui_Special</text>
</g>
<!-- \\Nag_Prefs_Special_TaskAlarms&#45;&gt;\\Horde_Core_Prefs_Ui_Special -->
<g id="edge35" class="edge"><title>\\Nag_Prefs_Special_TaskAlarms&#45;&gt;\\Horde_Core_Prefs_Ui_Special</title>
<path fill="none" stroke="black" stroke-dasharray="1,5" d="M493.203,-1147.54C477.836,-1142.75 463.575,-1135.04 452.866,-1123 301.275,-952.537 536.311,-265.956 380.866,-99 361.915,-78.6452 335.099,-68.7159 307.59,-64.5702"/>
<polygon fill="none" stroke="black" points="307.795,-61.0686 297.437,-63.296 306.924,-68.0141 307.795,-61.0686"/>
</g>
<!-- \\Nag_Block_Summary -->
<g id="node45" class="node"><title>\\Nag_Block_Summary</title>
<polygon fill="none" stroke="black" points="661.866,-1114 530.866,-1114 530.866,-1078 661.866,-1078 661.866,-1114"/>
<text text-anchor="middle" x="596.366" y="-1093.2" font-family="Courier,monospace" font-size="11.00">Nag_Block_Summary</text>
</g>
<!-- \\Horde_Core_Block -->
<g id="node65" class="node"><title>\\Horde_Core_Block</title>
<ellipse fill="none" stroke="black" cx="190.433" cy="-18" rx="81.7856" ry="18"/>
<text text-anchor="middle" x="190.433" y="-14.3" font-family="Times,serif" font-size="14.00" fill="gray">\Horde_Core_Block</text>
</g>
<!-- \\Nag_Block_Summary&#45;&gt;\\Horde_Core_Block -->
<g id="edge36" class="edge"><title>\\Nag_Block_Summary&#45;&gt;\\Horde_Core_Block</title>
<path fill="none" stroke="black" d="M530.811,-1100.14C502.819,-1098.28 472.109,-1090.64 452.866,-1069 301.275,-898.537 536.311,-211.956 380.866,-45 353.229,-15.3159 308.867,-7.80419 270.019,-8.06786"/>
<polygon fill="none" stroke="black" points="269.665,-4.57525 259.752,-8.31454 269.833,-11.5732 269.665,-4.57525"/>
</g>
<!-- \\Nag_Tasklist -->
<g id="node46" class="node"><title>\\Nag_Tasklist</title>
<polygon fill="none" stroke="black" points="645.366,-1060 547.366,-1060 547.366,-1024 645.366,-1024 645.366,-1060"/>
<text text-anchor="middle" x="596.366" y="-1039.2" font-family="Courier,monospace" font-size="11.00">Nag_Tasklist</text>
</g>
</g>
</svg>
