<?xml version="1.0" encoding="UTF-8" standalone="no"?>
<!DOCTYPE svg PUBLIC "-//W3C//DTD SVG 1.1//EN"
 "http://www.w3.org/Graphics/SVG/1.1/DTD/svg11.dtd">
<!-- Generated by graphviz version 2.38.0 (20140413.2041)
 -->
<!-- Title: G Pages: 1 -->
<svg width="525pt" height="204pt"
 viewBox="0.00 0.00 525.38 204.00" xmlns="http://www.w3.org/2000/svg" xmlns:xlink="http://www.w3.org/1999/xlink">
<g id="graph0" class="graph" transform="scale(1 1) rotate(0) translate(4 200)">
<title>G</title>
<polygon fill="white" stroke="none" points="-4,4 -4,-200 521.378,-200 521.378,4 -4,4"/>
<g id="clust1" class="cluster"><title>cluster_Global</title>
<path fill="none" stroke="gray" d="M320.378,-8C320.378,-8 497.378,-8 497.378,-8 503.378,-8 509.378,-14 509.378,-20 509.378,-20 509.378,-176 509.378,-176 509.378,-182 503.378,-188 497.378,-188 497.378,-188 320.378,-188 320.378,-188 314.378,-188 308.378,-182 308.378,-176 308.378,-176 308.378,-20 308.378,-20 308.378,-14 314.378,-8 320.378,-8"/>
<text text-anchor="middle" x="408.878" y="-175.2" font-family="Times,serif" font-size="11.00" fill="gray">Global</text>
</g>
<!-- \\Horde_Browser -->
<g id="node1" class="node"><title>\\Horde_Browser</title>
<polygon fill="none" stroke="black" points="460.878,-160 356.878,-160 356.878,-124 460.878,-124 460.878,-160"/>
<text text-anchor="middle" x="408.878" y="-139.2" font-family="Courier,monospace" font-size="11.00">Horde_Browser</text>
</g>
<!-- \\Horde_Browser_Exception -->
<g id="node2" class="node"><title>\\Horde_Browser_Exception</title>
<polygon fill="none" stroke="black" points="494.878,-106 322.878,-106 322.878,-70 494.878,-70 494.878,-106"/>
<text text-anchor="middle" x="408.878" y="-85.2" font-family="Courier,monospace" font-size="11.00">Horde_Browser_Exception</text>
</g>
<!-- \\Horde_Exception_Wrapped -->
<g id="node4" class="node"><title>\\Horde_Exception_Wrapped</title>
<ellipse fill="none" stroke="black" cx="122.189" cy="-88" rx="112.38" ry="18"/>
<text text-anchor="middle" x="122.189" y="-84.3" font-family="Times,serif" font-size="14.00" fill="gray">\Horde_Exception_Wrapped</text>
</g>
<!-- \\Horde_Browser_Exception&#45;&gt;\\Horde_Exception_Wrapped -->
<g id="edge1" class="edge"><title>\\Horde_Browser_Exception&#45;&gt;\\Horde_Exception_Wrapped</title>
<path fill="none" stroke="black" d="M322.848,-88C298.295,-88 271.011,-88 244.697,-88"/>
<polygon fill="none" stroke="black" points="244.668,-84.5001 234.668,-88 244.668,-91.5001 244.668,-84.5001"/>
</g>
<!-- \\Horde_Browser_Translation -->
<g id="node3" class="node"><title>\\Horde_Browser_Translation</title>
<polygon fill="none" stroke="black" points="501.378,-52 316.378,-52 316.378,-16 501.378,-16 501.378,-52"/>
<text text-anchor="middle" x="408.878" y="-31.2" font-family="Courier,monospace" font-size="11.00">Horde_Browser_Translation</text>
</g>
<!-- \\Horde_Translation_Autodetect -->
<g id="node5" class="node"><title>\\Horde_Translation_Autodetect</title>
<ellipse fill="none" stroke="black" cx="122.189" cy="-34" rx="122.379" ry="18"/>
<text text-anchor="middle" x="122.189" y="-30.3" font-family="Times,serif" font-size="14.00" fill="gray">\Horde_Translation_Autodetect</text>
</g>
<!-- \\Horde_Browser_Translation&#45;&gt;\\Horde_Translation_Autodetect -->
<g id="edge2" class="edge"><title>\\Horde_Browser_Translation&#45;&gt;\\Horde_Translation_Autodetect</title>
<path fill="none" stroke="black" d="M316.234,-34C296.608,-34 275.502,-34 254.707,-34"/>
<polygon fill="none" stroke="black" points="254.531,-30.5001 244.531,-34 254.531,-37.5001 254.531,-30.5001"/>
</g>
</g>
</svg>
