<?xml version="1.0" encoding="UTF-8" standalone="no"?>
<!DOCTYPE svg PUBLIC "-//W3C//DTD SVG 1.1//EN"
 "http://www.w3.org/Graphics/SVG/1.1/DTD/svg11.dtd">
<!-- Generated by graphviz version 2.38.0 (20140413.2041)
 -->
<!-- Title: G Pages: 1 -->
<svg width="628pt" height="1374pt"
 viewBox="0.00 0.00 628.27 1374.00" xmlns="http://www.w3.org/2000/svg" xmlns:xlink="http://www.w3.org/1999/xlink">
<g id="graph0" class="graph" transform="scale(1 1) rotate(0) translate(4 1370)">
<title>G</title>
<polygon fill="white" stroke="none" points="-4,4 -4,-1370 624.272,-1370 624.272,4 -4,4"/>
<g id="clust1" class="cluster"><title>cluster_Global</title>
<path fill="none" stroke="gray" d="M111.636,-260C111.636,-260 600.272,-260 600.272,-260 606.272,-260 612.272,-266 612.272,-272 612.272,-272 612.272,-1346 612.272,-1346 612.272,-1352 606.272,-1358 600.272,-1358 600.272,-1358 111.636,-1358 111.636,-1358 105.636,-1358 99.6361,-1352 99.6361,-1346 99.6361,-1346 99.6361,-272 99.6361,-272 99.6361,-266 105.636,-260 111.636,-260"/>
<text text-anchor="middle" x="355.954" y="-1345.2" font-family="Times,serif" font-size="11.00" fill="gray">Global</text>
</g>
<!-- \\Shout_Ajax_Application_Handler -->
<g id="node1" class="node"><title>\\Shout_Ajax_Application_Handler</title>
<polygon fill="none" stroke="black" points="604.272,-1222 385.272,-1222 385.272,-1186 604.272,-1186 604.272,-1222"/>
<text text-anchor="middle" x="494.772" y="-1201.2" font-family="Courier,monospace" font-size="11.00">Shout_Ajax_Application_Handler</text>
</g>
<!-- \\Horde_Core_Ajax_Application_Handler -->
<g id="node22" class="node"><title>\\Horde_Core_Ajax_Application_Handler</title>
<ellipse fill="none" stroke="black" cx="156.636" cy="-234" rx="156.772" ry="18"/>
<text text-anchor="middle" x="156.636" y="-230.3" font-family="Times,serif" font-size="14.00" fill="gray">\Horde_Core_Ajax_Application_Handler</text>
</g>
<!-- \\Shout_Ajax_Application_Handler&#45;&gt;\\Horde_Core_Ajax_Application_Handler -->
<g id="edge1" class="edge"><title>\\Shout_Ajax_Application_Handler&#45;&gt;\\Horde_Core_Ajax_Application_Handler</title>
<path fill="none" stroke="black" d="M394.454,-1185.73C391.118,-1183.16 388.031,-1180.26 385.272,-1177 252.634,-1020.31 453.835,-405.621 313.272,-256 310.542,-253.094 307.617,-250.449 304.528,-248.043"/>
<polygon fill="none" stroke="black" points="306.223,-244.962 295.989,-242.221 302.28,-250.746 306.223,-244.962"/>
</g>
<!-- \\Shout_Ajax_Application -->
<g id="node2" class="node"><title>\\Shout_Ajax_Application</title>
<polygon fill="none" stroke="black" points="577.272,-1168 412.272,-1168 412.272,-1132 577.272,-1132 577.272,-1168"/>
<text text-anchor="middle" x="494.772" y="-1147.2" font-family="Courier,monospace" font-size="11.00">Shout_Ajax_Application</text>
</g>
<!-- \\Horde_Core_Ajax_Application -->
<g id="node23" class="node"><title>\\Horde_Core_Ajax_Application</title>
<ellipse fill="none" stroke="black" cx="156.636" cy="-180" rx="124.278" ry="18"/>
<text text-anchor="middle" x="156.636" y="-176.3" font-family="Times,serif" font-size="14.00" fill="gray">\Horde_Core_Ajax_Application</text>
</g>
<!-- \\Shout_Ajax_Application&#45;&gt;\\Horde_Core_Ajax_Application -->
<g id="edge2" class="edge"><title>\\Shout_Ajax_Application&#45;&gt;\\Horde_Core_Ajax_Application</title>
<path fill="none" stroke="black" d="M412.245,-1141.84C401.932,-1137.57 392.485,-1131.52 385.272,-1123 253.317,-967.184 450.759,-357.957 313.272,-207 305.85,-198.85 296.921,-192.594 287.143,-187.838"/>
<polygon fill="none" stroke="black" points="288.511,-184.617 277.942,-183.881 285.745,-191.047 288.511,-184.617"/>
</g>
<!-- \\Shout_Exception -->
<g id="node3" class="node"><title>\\Shout_Exception</title>
<polygon fill="none" stroke="black" points="553.772,-1114 435.772,-1114 435.772,-1078 553.772,-1078 553.772,-1114"/>
<text text-anchor="middle" x="494.772" y="-1093.2" font-family="Courier,monospace" font-size="11.00">Shout_Exception</text>
</g>
<!-- \\Horde_Exception_Wrapped -->
<g id="node24" class="node"><title>\\Horde_Exception_Wrapped</title>
<ellipse fill="none" stroke="black" cx="156.636" cy="-126" rx="112.38" ry="18"/>
<text text-anchor="middle" x="156.636" y="-122.3" font-family="Times,serif" font-size="14.00" fill="gray">\Horde_Exception_Wrapped</text>
</g>
<!-- \\Shout_Exception&#45;&gt;\\Horde_Exception_Wrapped -->
<g id="edge3" class="edge"><title>\\Shout_Exception&#45;&gt;\\Horde_Exception_Wrapped</title>
<path fill="none" stroke="black" d="M435.697,-1094.59C416.924,-1091.1 397.754,-1083.74 385.272,-1069 253.317,-913.184 450.759,-303.957 313.272,-153 303.762,-142.558 291.78,-135.225 278.705,-130.172"/>
<polygon fill="none" stroke="black" points="279.605,-126.782 269.011,-126.884 277.357,-133.411 279.605,-126.782"/>
</g>
<!-- \\RecordingDetailsForm -->
<g id="node4" class="node"><title>\\RecordingDetailsForm</title>
<polygon fill="none" stroke="black" points="570.772,-1060 418.772,-1060 418.772,-1024 570.772,-1024 570.772,-1060"/>
<text text-anchor="middle" x="494.772" y="-1039.2" font-family="Courier,monospace" font-size="11.00">RecordingDetailsForm</text>
</g>
<!-- \\Horde_Form -->
<g id="node25" class="node"><title>\\Horde_Form</title>
<ellipse fill="none" stroke="black" cx="156.636" cy="-72" rx="59.2899" ry="18"/>
<text text-anchor="middle" x="156.636" y="-68.3" font-family="Times,serif" font-size="14.00" fill="gray">\Horde_Form</text>
</g>
<!-- \\RecordingDetailsForm&#45;&gt;\\Horde_Form -->
<g id="edge4" class="edge"><title>\\RecordingDetailsForm&#45;&gt;\\Horde_Form</title>
<path fill="none" stroke="black" d="M418.526,-1036.19C405.8,-1031.89 393.928,-1025.22 385.272,-1015 253.317,-859.184 450.759,-249.957 313.272,-99 290.861,-74.3932 254.72,-67.0494 222.903,-66.1308"/>
<polygon fill="none" stroke="black" points="222.777,-62.6297 212.748,-66.0446 222.718,-69.6295 222.777,-62.6297"/>
</g>
<!-- \\ConferenceDeleteForm -->
<g id="node5" class="node"><title>\\ConferenceDeleteForm</title>
<polygon fill="none" stroke="black" points="570.772,-1006 418.772,-1006 418.772,-970 570.772,-970 570.772,-1006"/>
<text text-anchor="middle" x="494.772" y="-985.2" font-family="Courier,monospace" font-size="11.00">ConferenceDeleteForm</text>
</g>
<!-- \\ConferenceDeleteForm&#45;&gt;\\Horde_Form -->
<g id="edge5" class="edge"><title>\\ConferenceDeleteForm&#45;&gt;\\Horde_Form</title>
<path fill="none" stroke="black" d="M418.566,-982.154C405.837,-977.863 393.953,-971.2 385.272,-961 260.688,-814.616 443.053,-240.797 313.272,-99 290.801,-74.4481 254.656,-67.1071 222.853,-66.1764"/>
<polygon fill="none" stroke="black" points="222.734,-62.6753 212.703,-66.0857 222.671,-69.675 222.734,-62.6753"/>
</g>
<!-- \\MenuForm -->
<g id="node6" class="node"><title>\\MenuForm</title>
<polygon fill="none" stroke="black" points="530.272,-952 459.272,-952 459.272,-916 530.272,-916 530.272,-952"/>
<text text-anchor="middle" x="494.772" y="-931.2" font-family="Courier,monospace" font-size="11.00">MenuForm</text>
</g>
<!-- \\MenuForm&#45;&gt;\\Horde_Form -->
<g id="edge6" class="edge"><title>\\MenuForm&#45;&gt;\\Horde_Form</title>
<path fill="none" stroke="black" d="M459.05,-935.164C434.618,-933.958 403.195,-927.941 385.272,-907 268.057,-770.045 435.349,-231.64 313.272,-99 290.733,-74.5105 254.585,-67.1727 222.797,-66.2281"/>
<polygon fill="none" stroke="black" points="222.685,-62.727 212.652,-66.1324 222.619,-69.7267 222.685,-62.727"/>
</g>
<!-- \\DeviceMenuForm -->
<g id="node7" class="node"><title>\\DeviceMenuForm</title>
<polygon fill="none" stroke="black" points="550.272,-898 439.272,-898 439.272,-862 550.272,-862 550.272,-898"/>
<text text-anchor="middle" x="494.772" y="-877.2" font-family="Courier,monospace" font-size="11.00">DeviceMenuForm</text>
</g>
<!-- \\DeviceMenuForm&#45;&gt;\\Horde_Form -->
<g id="edge7" class="edge"><title>\\DeviceMenuForm&#45;&gt;\\Horde_Form</title>
<path fill="none" stroke="black" d="M439.223,-879.065C419.414,-875.829 398.637,-868.516 385.272,-853 275.423,-725.47 427.648,-222.487 313.272,-99 290.74,-74.6727 254.772,-67.3026 223.087,-66.2984"/>
<polygon fill="none" stroke="black" points="223.012,-62.7974 212.973,-66.1826 222.932,-69.7969 223.012,-62.7974"/>
</g>
<!-- \\DeviceDetailsForm -->
<g id="node8" class="node"><title>\\DeviceDetailsForm</title>
<polygon fill="none" stroke="black" points="560.272,-844 429.272,-844 429.272,-808 560.272,-808 560.272,-844"/>
<text text-anchor="middle" x="494.772" y="-823.2" font-family="Courier,monospace" font-size="11.00">DeviceDetailsForm</text>
</g>
<!-- \\DeviceDetailsForm&#45;&gt;\\Horde_Form -->
<g id="edge8" class="edge"><title>\\DeviceDetailsForm&#45;&gt;\\Horde_Form</title>
<path fill="none" stroke="black" d="M429.102,-822.98C412.602,-819.042 396.404,-811.829 385.272,-799 282.785,-680.891 419.951,-213.338 313.272,-99 290.651,-74.755 254.679,-67.3895 223.013,-66.3671"/>
<polygon fill="none" stroke="black" points="222.948,-62.8662 212.906,-66.2447 222.863,-69.8657 222.948,-62.8662"/>
</g>
<!-- \\DeviceDeleteForm -->
<g id="node9" class="node"><title>\\DeviceDeleteForm</title>
<polygon fill="none" stroke="black" points="557.272,-790 432.272,-790 432.272,-754 557.272,-754 557.272,-790"/>
<text text-anchor="middle" x="494.772" y="-769.2" font-family="Courier,monospace" font-size="11.00">DeviceDeleteForm</text>
</g>
<!-- \\DeviceDeleteForm&#45;&gt;\\Horde_Form -->
<g id="edge9" class="edge"><title>\\DeviceDeleteForm&#45;&gt;\\Horde_Form</title>
<path fill="none" stroke="black" d="M432.003,-769.562C414.543,-765.784 397.098,-758.511 385.272,-745 195.012,-527.612 511.247,-309.387 313.272,-99 290.548,-74.8514 254.57,-67.4912 222.927,-66.4476"/>
<polygon fill="none" stroke="black" points="222.873,-62.9467 212.828,-66.3175 222.782,-69.9462 222.873,-62.9467"/>
</g>
<!-- \\ConferenceDetailsForm -->
<g id="node10" class="node"><title>\\ConferenceDetailsForm</title>
<polygon fill="none" stroke="black" points="573.772,-736 415.772,-736 415.772,-700 573.772,-700 573.772,-736"/>
<text text-anchor="middle" x="494.772" y="-715.2" font-family="Courier,monospace" font-size="11.00">ConferenceDetailsForm</text>
</g>
<!-- \\ConferenceDetailsForm&#45;&gt;\\Horde_Form -->
<g id="edge10" class="edge"><title>\\ConferenceDetailsForm&#45;&gt;\\Horde_Form</title>
<path fill="none" stroke="black" d="M415.563,-710.723C404.057,-706.45 393.372,-700.162 385.272,-691 209.714,-492.428 495.876,-291.113 313.272,-99 290.513,-75.0553 254.711,-67.6669 223.181,-66.5553"/>
<polygon fill="none" stroke="black" points="223.168,-63.0548 213.115,-66.4019 223.061,-70.054 223.168,-63.0548"/>
</g>
<!-- \\ExtensionDetailsForm -->
<g id="node11" class="node"><title>\\ExtensionDetailsForm</title>
<polygon fill="none" stroke="black" points="570.772,-682 418.772,-682 418.772,-646 570.772,-646 570.772,-682"/>
<text text-anchor="middle" x="494.772" y="-661.2" font-family="Courier,monospace" font-size="11.00">ExtensionDetailsForm</text>
</g>
<!-- \\ExtensionDetailsForm&#45;&gt;\\Horde_Form -->
<g id="edge11" class="edge"><title>\\ExtensionDetailsForm&#45;&gt;\\Horde_Form</title>
<path fill="none" stroke="black" d="M418.69,-657.711C406.029,-653.448 394.139,-646.909 385.272,-637 224.4,-457.227 480.521,-272.856 313.272,-99 290.369,-75.1924 254.559,-67.8121 223.06,-66.6706"/>
<polygon fill="none" stroke="black" points="223.062,-63.1703 213.006,-66.5063 222.948,-70.1693 223.062,-63.1703"/>
</g>
<!-- \\ExtensionDeleteForm -->
<g id="node12" class="node"><title>\\ExtensionDeleteForm</title>
<polygon fill="none" stroke="black" points="567.272,-628 422.272,-628 422.272,-592 567.272,-592 567.272,-628"/>
<text text-anchor="middle" x="494.772" y="-607.2" font-family="Courier,monospace" font-size="11.00">ExtensionDeleteForm</text>
</g>
<!-- \\ExtensionDeleteForm&#45;&gt;\\Horde_Form -->
<g id="edge12" class="edge"><title>\\ExtensionDeleteForm&#45;&gt;\\Horde_Form</title>
<path fill="none" stroke="black" d="M422.151,-604.673C408.247,-600.467 394.994,-593.706 385.272,-583 239.065,-422.002 465.189,-254.622 313.272,-99 290.282,-75.4492 254.643,-68.0457 223.268,-66.8256"/>
<polygon fill="none" stroke="black" points="223.317,-63.326 213.252,-66.6341 223.183,-70.3247 223.317,-63.326"/>
</g>
<!-- \\AccountDetailsForm -->
<g id="node13" class="node"><title>\\AccountDetailsForm</title>
<polygon fill="none" stroke="black" points="563.772,-574 425.772,-574 425.772,-538 563.772,-538 563.772,-574"/>
<text text-anchor="middle" x="494.772" y="-553.2" font-family="Courier,monospace" font-size="11.00">AccountDetailsForm</text>
</g>
<!-- \\AccountDetailsForm&#45;&gt;\\Horde_Form -->
<g id="edge13" class="edge"><title>\\AccountDetailsForm&#45;&gt;\\Horde_Form</title>
<path fill="none" stroke="black" d="M425.67,-551.504C410.548,-547.399 395.882,-540.472 385.272,-529 253.701,-386.745 449.887,-236.419 313.272,-99 290.256,-75.8481 254.991,-68.3897 223.846,-67.0356"/>
<polygon fill="none" stroke="black" points="223.544,-63.5278 213.466,-66.7966 223.382,-70.526 223.544,-63.5278"/>
</g>
<!-- \\AccountDeleteForm -->
<g id="node14" class="node"><title>\\AccountDeleteForm</title>
<polygon fill="none" stroke="black" points="560.272,-520 429.272,-520 429.272,-484 560.272,-484 560.272,-520"/>
<text text-anchor="middle" x="494.772" y="-499.2" font-family="Courier,monospace" font-size="11.00">AccountDeleteForm</text>
</g>
<!-- \\AccountDeleteForm&#45;&gt;\\Horde_Form -->
<g id="edge14" class="edge"><title>\\AccountDeleteForm&#45;&gt;\\Horde_Form</title>
<path fill="none" stroke="black" d="M429.245,-498.201C412.946,-494.229 396.816,-487.193 385.272,-475 268.295,-351.443 434.628,-218.259 313.272,-99 290.076,-76.2041 254.97,-68.7346 223.968,-67.2834"/>
<polygon fill="none" stroke="black" points="223.724,-63.7758 213.635,-67.0086 223.538,-70.7733 223.724,-63.7758"/>
</g>
<!-- \\NumberDetailsForm -->
<g id="node15" class="node"><title>\\NumberDetailsForm</title>
<polygon fill="none" stroke="black" points="560.272,-466 429.272,-466 429.272,-430 560.272,-430 560.272,-466"/>
<text text-anchor="middle" x="494.772" y="-445.2" font-family="Courier,monospace" font-size="11.00">NumberDetailsForm</text>
</g>
<!-- \\NumberDetailsForm&#45;&gt;\\Horde_Form -->
<g id="edge15" class="edge"><title>\\NumberDetailsForm&#45;&gt;\\Horde_Form</title>
<path fill="none" stroke="black" d="M429.208,-443.896C413.006,-439.911 396.934,-432.945 385.272,-421 282.825,-316.074 419.435,-200.164 313.272,-99 289.817,-76.6489 254.863,-69.1773 224.019,-67.6119"/>
<polygon fill="none" stroke="black" points="223.842,-64.1049 213.739,-67.2945 223.626,-71.1016 223.842,-64.1049"/>
</g>
<!-- \\NumberDeleteForm -->
<g id="node16" class="node"><title>\\NumberDeleteForm</title>
<polygon fill="none" stroke="black" points="557.272,-412 432.272,-412 432.272,-376 557.272,-376 557.272,-412"/>
<text text-anchor="middle" x="494.772" y="-391.2" font-family="Courier,monospace" font-size="11.00">NumberDeleteForm</text>
</g>
<!-- \\NumberDeleteForm&#45;&gt;\\Horde_Form -->
<g id="edge16" class="edge"><title>\\NumberDeleteForm&#45;&gt;\\Horde_Form</title>
<path fill="none" stroke="black" d="M432.083,-390.167C415.041,-386.286 397.809,-379.306 385.272,-367 297.256,-280.602 404.346,-182.168 313.272,-99 289.529,-77.3181 254.889,-69.8331 224.313,-68.0887"/>
<polygon fill="none" stroke="black" points="224.246,-64.5838 214.121,-67.705 223.982,-71.5789 224.246,-64.5838"/>
</g>
<!-- \\Shout_Application -->
<g id="node17" class="node"><title>\\Shout_Application</title>
<polygon fill="none" stroke="black" points="560.272,-358 429.272,-358 429.272,-322 560.272,-322 560.272,-358"/>
<text text-anchor="middle" x="494.772" y="-337.2" font-family="Courier,monospace" font-size="11.00">Shout_Application</text>
</g>
<!-- \\Horde_Registry_Application -->
<g id="node26" class="node"><title>\\Horde_Registry_Application</title>
<ellipse fill="none" stroke="black" cx="156.636" cy="-18" rx="115.08" ry="18"/>
<text text-anchor="middle" x="156.636" y="-14.3" font-family="Times,serif" font-size="14.00" fill="gray">\Horde_Registry_Application</text>
</g>
<!-- \\Shout_Application&#45;&gt;\\Horde_Registry_Application -->
<g id="edge17" class="edge"><title>\\Shout_Application&#45;&gt;\\Horde_Registry_Application</title>
<path fill="none" stroke="black" d="M429.257,-335.495C413.152,-331.498 397.116,-324.626 385.272,-313 297.256,-226.602 404.346,-128.168 313.272,-45 303.509,-36.0845 291.904,-29.5695 279.496,-24.8669"/>
<polygon fill="none" stroke="black" points="280.462,-21.4992 269.868,-21.6144 278.222,-28.131 280.462,-21.4992"/>
</g>
<!-- \\Shout_Driver_Sql -->
<g id="node18" class="node"><title>\\Shout_Driver_Sql</title>
<polygon fill="none" stroke="black" points="557.272,-1330 432.272,-1330 432.272,-1294 557.272,-1294 557.272,-1330"/>
<text text-anchor="middle" x="494.772" y="-1309.2" font-family="Courier,monospace" font-size="11.00">Shout_Driver_Sql</text>
</g>
<!-- \\Shout_Driver -->
<g id="node20" class="node"><title>\\Shout_Driver</title>
<polygon fill="none" stroke="black" points="205.636,-1303 107.636,-1303 107.636,-1267 205.636,-1267 205.636,-1303"/>
<text text-anchor="middle" x="156.636" y="-1282.2" font-family="Courier,monospace" font-size="11.00">Shout_Driver</text>
</g>
<!-- \\Shout_Driver_Sql&#45;&gt;\\Shout_Driver -->
<g id="edge18" class="edge"><title>\\Shout_Driver_Sql&#45;&gt;\\Shout_Driver</title>
<path fill="none" stroke="black" d="M432.12,-1307.05C370.487,-1302.1 276.419,-1294.54 215.98,-1289.69"/>
<polygon fill="none" stroke="black" points="216.089,-1286.18 205.841,-1288.87 215.529,-1293.16 216.089,-1286.18"/>
</g>
<!-- \\Shout_Driver_Ldap -->
<g id="node19" class="node"><title>\\Shout_Driver_Ldap</title>
<polygon fill="none" stroke="black" points="560.272,-1276 429.272,-1276 429.272,-1240 560.272,-1240 560.272,-1276"/>
<text text-anchor="middle" x="494.772" y="-1255.2" font-family="Courier,monospace" font-size="11.00">Shout_Driver_Ldap</text>
</g>
<!-- \\Shout_Driver_Ldap&#45;&gt;\\Shout_Driver -->
<g id="edge19" class="edge"><title>\\Shout_Driver_Ldap&#45;&gt;\\Shout_Driver</title>
<path fill="none" stroke="black" d="M428.962,-1263.21C367.194,-1268.17 275.047,-1275.57 215.642,-1280.34"/>
<polygon fill="none" stroke="black" points="215.361,-1276.85 205.673,-1281.14 215.922,-1283.83 215.361,-1276.85"/>
</g>
<!-- \\Shout -->
<g id="node21" class="node"><title>\\Shout</title>
<polygon fill="none" stroke="black" points="521.772,-304 467.772,-304 467.772,-268 521.772,-268 521.772,-304"/>
<text text-anchor="middle" x="494.772" y="-283.2" font-family="Courier,monospace" font-size="11.00">Shout</text>
</g>
</g>
</svg>
