<?xml version="1.0" encoding="UTF-8" standalone="no"?>
<!DOCTYPE svg PUBLIC "-//W3C//DTD SVG 1.1//EN"
 "http://www.w3.org/Graphics/SVG/1.1/DTD/svg11.dtd">
<!-- Generated by graphviz version 2.38.0 (20140413.2041)
 -->
<!-- Title: G Pages: 1 -->
<svg width="1380pt" height="672pt"
 viewBox="0.00 0.00 1379.88 672.00" xmlns="http://www.w3.org/2000/svg" xmlns:xlink="http://www.w3.org/1999/xlink">
<g id="graph0" class="graph" transform="scale(1 1) rotate(0) translate(4 668)">
<title>G</title>
<polygon fill="white" stroke="none" points="-4,4 -4,-668 1375.88,-668 1375.88,4 -4,4"/>
<g id="clust1" class="cluster"><title>cluster_Global</title>
<path fill="none" stroke="gray" d="M300.88,-206C300.88,-206 1351.88,-206 1351.88,-206 1357.88,-206 1363.88,-212 1363.88,-218 1363.88,-218 1363.88,-644 1363.88,-644 1363.88,-650 1357.88,-656 1351.88,-656 1351.88,-656 300.88,-656 300.88,-656 294.88,-656 288.88,-650 288.88,-644 288.88,-644 288.88,-218 288.88,-218 288.88,-212 294.88,-206 300.88,-206"/>
<text text-anchor="middle" x="826.38" y="-643.2" font-family="Times,serif" font-size="11.00" fill="gray">Global</text>
</g>
<!-- \\Horde_Argv_IndentedHelpFormatter -->
<g id="node1" class="node"><title>\\Horde_Argv_IndentedHelpFormatter</title>
<polygon fill="none" stroke="black" points="1345.88,-628 1112.88,-628 1112.88,-592 1345.88,-592 1345.88,-628"/>
<text text-anchor="middle" x="1229.38" y="-607.2" font-family="Courier,monospace" font-size="11.00">Horde_Argv_IndentedHelpFormatter</text>
</g>
<!-- \\Horde_Argv_HelpFormatter -->
<g id="node12" class="node"><title>\\Horde_Argv_HelpFormatter</title>
<polygon fill="none" stroke="black" points="997.38,-601 818.38,-601 818.38,-565 997.38,-565 997.38,-601"/>
<text text-anchor="start" x="873.88" y="-586.2" font-family="Courier,monospace" font-size="11.00">«abstract»</text>
<text text-anchor="start" x="826.38" y="-574.2" font-family="Courier,monospace" font-size="11.00">Horde_Argv_HelpFormatter</text>
</g>
<!-- \\Horde_Argv_IndentedHelpFormatter&#45;&gt;\\Horde_Argv_HelpFormatter -->
<g id="edge1" class="edge"><title>\\Horde_Argv_IndentedHelpFormatter&#45;&gt;\\Horde_Argv_HelpFormatter</title>
<path fill="none" stroke="black" d="M1112.58,-600.214C1078.19,-597.308 1040.85,-594.153 1007.65,-591.347"/>
<polygon fill="none" stroke="black" points="1007.74,-587.842 997.485,-590.488 1007.15,-594.817 1007.74,-587.842"/>
</g>
<!-- \\Horde_Argv_TitledHelpFormatter -->
<g id="node2" class="node"><title>\\Horde_Argv_TitledHelpFormatter</title>
<polygon fill="none" stroke="black" points="1338.88,-574 1119.88,-574 1119.88,-538 1338.88,-538 1338.88,-574"/>
<text text-anchor="middle" x="1229.38" y="-553.2" font-family="Courier,monospace" font-size="11.00">Horde_Argv_TitledHelpFormatter</text>
</g>
<!-- \\Horde_Argv_TitledHelpFormatter&#45;&gt;\\Horde_Argv_HelpFormatter -->
<g id="edge2" class="edge"><title>\\Horde_Argv_TitledHelpFormatter&#45;&gt;\\Horde_Argv_HelpFormatter</title>
<path fill="none" stroke="black" d="M1119.77,-565.179C1083.54,-568.24 1043.4,-571.632 1007.94,-574.629"/>
<polygon fill="none" stroke="black" points="1007.25,-571.174 997.584,-575.504 1007.84,-578.149 1007.25,-571.174"/>
</g>
<!-- \\Horde_Argv_Values -->
<g id="node3" class="node"><title>\\Horde_Argv_Values</title>
<polygon fill="none" stroke="black" points="1294.88,-304 1163.88,-304 1163.88,-268 1294.88,-268 1294.88,-304"/>
<text text-anchor="middle" x="1229.38" y="-283.2" font-family="Courier,monospace" font-size="11.00">Horde_Argv_Values</text>
</g>
<!-- \\IteratorAggregate -->
<g id="node16" class="node"><title>\\IteratorAggregate</title>
<ellipse fill="none" stroke="black" cx="907.88" cy="-180" rx="75.2868" ry="18"/>
<text text-anchor="middle" x="907.88" y="-176.3" font-family="Times,serif" font-size="14.00" fill="gray">\IteratorAggregate</text>
</g>
<!-- \\Horde_Argv_Values&#45;&gt;\\IteratorAggregate -->
<g id="edge3" class="edge"><title>\\Horde_Argv_Values&#45;&gt;\\IteratorAggregate</title>
<path fill="none" stroke="black" stroke-dasharray="1,5" d="M1163.66,-277.921C1143.55,-273.888 1121.73,-267.89 1102.88,-259 1065.97,-241.587 1068.08,-218.792 1030.88,-202 1017.65,-196.028 1002.93,-191.676 988.411,-188.505"/>
<polygon fill="none" stroke="black" points="988.911,-185.035 978.417,-186.493 987.529,-191.898 988.911,-185.035"/>
</g>
<!-- \\ArrayAccess -->
<g id="node17" class="node"><title>\\ArrayAccess</title>
<ellipse fill="none" stroke="black" cx="907.88" cy="-126" rx="58.4896" ry="18"/>
<text text-anchor="middle" x="907.88" y="-122.3" font-family="Times,serif" font-size="14.00" fill="gray">\ArrayAccess</text>
</g>
<!-- \\Horde_Argv_Values&#45;&gt;\\ArrayAccess -->
<g id="edge4" class="edge"><title>\\Horde_Argv_Values&#45;&gt;\\ArrayAccess</title>
<path fill="none" stroke="black" stroke-dasharray="1,5" d="M1163.7,-281.615C1142.94,-277.814 1120.71,-271.019 1102.88,-259 1055.65,-227.172 1078.01,-184.967 1030.88,-153 1014.52,-141.905 994.352,-135.288 975.158,-131.366"/>
<polygon fill="none" stroke="black" points="975.701,-127.907 965.234,-129.551 974.442,-134.793 975.701,-127.907"/>
</g>
<!-- \\Countable -->
<g id="node18" class="node"><title>\\Countable</title>
<ellipse fill="none" stroke="black" cx="907.88" cy="-72" rx="49.2915" ry="18"/>
<text text-anchor="middle" x="907.88" y="-68.3" font-family="Times,serif" font-size="14.00" fill="gray">\Countable</text>
</g>
<!-- \\Horde_Argv_Values&#45;&gt;\\Countable -->
<g id="edge5" class="edge"><title>\\Horde_Argv_Values&#45;&gt;\\Countable</title>
<path fill="none" stroke="black" stroke-dasharray="1,5" d="M1163.71,-283.589C1142.46,-279.98 1119.95,-272.802 1102.88,-259 1042.24,-209.972 1091.37,-148.207 1030.88,-99 1013.16,-84.5829 989.366,-77.4585 967.502,-74.0664"/>
<polygon fill="none" stroke="black" points="967.662,-70.5573 957.29,-72.7215 966.748,-77.4974 967.662,-70.5573"/>
</g>
<!-- \\Horde_Argv_Exception -->
<g id="node4" class="node"><title>\\Horde_Argv_Exception</title>
<polygon fill="none" stroke="black" points="448.88,-466 296.88,-466 296.88,-430 448.88,-430 448.88,-466"/>
<text text-anchor="middle" x="372.88" y="-445.2" font-family="Courier,monospace" font-size="11.00">Horde_Argv_Exception</text>
</g>
<!-- \\Horde_Exception_Wrapped -->
<g id="node19" class="node"><title>\\Horde_Exception_Wrapped</title>
<ellipse fill="none" stroke="black" cx="112.44" cy="-448" rx="112.38" ry="18"/>
<text text-anchor="middle" x="112.44" y="-444.3" font-family="Times,serif" font-size="14.00" fill="gray">\Horde_Exception_Wrapped</text>
</g>
<!-- \\Horde_Argv_Exception&#45;&gt;\\Horde_Exception_Wrapped -->
<g id="edge6" class="edge"><title>\\Horde_Argv_Exception&#45;&gt;\\Horde_Exception_Wrapped</title>
<path fill="none" stroke="black" d="M296.781,-448C277.57,-448 256.411,-448 235.502,-448"/>
<polygon fill="none" stroke="black" points="235.268,-444.5 225.268,-448 235.268,-451.5 235.268,-444.5"/>
</g>
<!-- \\Horde_Argv_Option -->
<g id="node5" class="node"><title>\\Horde_Argv_Option</title>
<polygon fill="none" stroke="black" points="1294.88,-466 1163.88,-466 1163.88,-430 1294.88,-430 1294.88,-466"/>
<text text-anchor="middle" x="1229.38" y="-445.2" font-family="Courier,monospace" font-size="11.00">Horde_Argv_Option</text>
</g>
<!-- \\Horde_Argv_OptionException -->
<g id="node6" class="node"><title>\\Horde_Argv_OptionException</title>
<polygon fill="none" stroke="black" points="712.88,-466 520.88,-466 520.88,-430 712.88,-430 712.88,-466"/>
<text text-anchor="middle" x="616.88" y="-445.2" font-family="Courier,monospace" font-size="11.00">Horde_Argv_OptionException</text>
</g>
<!-- \\Horde_Argv_OptionException&#45;&gt;\\Horde_Argv_Exception -->
<g id="edge7" class="edge"><title>\\Horde_Argv_OptionException&#45;&gt;\\Horde_Argv_Exception</title>
<path fill="none" stroke="black" d="M520.583,-448C500.309,-448 479.025,-448 459.154,-448"/>
<polygon fill="none" stroke="black" points="458.904,-444.5 448.904,-448 458.904,-451.5 458.904,-444.5"/>
</g>
<!-- \\Horde_Argv_OptionValueException -->
<g id="node7" class="node"><title>\\Horde_Argv_OptionValueException</title>
<polygon fill="none" stroke="black" points="1020.88,-412 794.88,-412 794.88,-376 1020.88,-376 1020.88,-412"/>
<text text-anchor="middle" x="907.88" y="-391.2" font-family="Courier,monospace" font-size="11.00">Horde_Argv_OptionValueException</text>
</g>
<!-- \\Horde_Argv_OptionValueException&#45;&gt;\\Horde_Argv_OptionException -->
<g id="edge8" class="edge"><title>\\Horde_Argv_OptionValueException&#45;&gt;\\Horde_Argv_OptionException</title>
<path fill="none" stroke="black" d="M810.245,-412.056C782.21,-417.295 751.464,-423.04 722.939,-428.37"/>
<polygon fill="none" stroke="black" points="722.137,-424.959 712.95,-430.236 723.422,-431.84 722.137,-424.959"/>
</g>
<!-- \\Horde_Argv_OptionContainer -->
<g id="node8" class="node"><title>\\Horde_Argv_OptionContainer</title>
<polygon fill="none" stroke="black" points="1003.88,-358 811.88,-358 811.88,-322 1003.88,-322 1003.88,-358"/>
<text text-anchor="middle" x="907.88" y="-337.2" font-family="Courier,monospace" font-size="11.00">Horde_Argv_OptionContainer</text>
</g>
<!-- \\Horde_Argv_AmbiguousOptionException -->
<g id="node9" class="node"><title>\\Horde_Argv_AmbiguousOptionException</title>
<polygon fill="none" stroke="black" points="1355.88,-520 1102.88,-520 1102.88,-484 1355.88,-484 1355.88,-520"/>
<text text-anchor="middle" x="1229.38" y="-499.2" font-family="Courier,monospace" font-size="11.00">Horde_Argv_AmbiguousOptionException</text>
</g>
<!-- \\Horde_Argv_BadOptionException -->
<g id="node13" class="node"><title>\\Horde_Argv_BadOptionException</title>
<polygon fill="none" stroke="black" points="1013.88,-520 801.88,-520 801.88,-484 1013.88,-484 1013.88,-520"/>
<text text-anchor="middle" x="907.88" y="-499.2" font-family="Courier,monospace" font-size="11.00">Horde_Argv_BadOptionException</text>
</g>
<!-- \\Horde_Argv_AmbiguousOptionException&#45;&gt;\\Horde_Argv_BadOptionException -->
<g id="edge9" class="edge"><title>\\Horde_Argv_AmbiguousOptionException&#45;&gt;\\Horde_Argv_BadOptionException</title>
<path fill="none" stroke="black" d="M1102.56,-502C1076.66,-502 1049.52,-502 1024.02,-502"/>
<polygon fill="none" stroke="black" points="1023.96,-498.5 1013.96,-502 1023.96,-505.5 1023.96,-498.5"/>
</g>
<!-- \\Horde_Argv_OptionGroup -->
<g id="node10" class="node"><title>\\Horde_Argv_OptionGroup</title>
<polygon fill="none" stroke="black" points="1311.88,-412 1146.88,-412 1146.88,-376 1311.88,-376 1311.88,-412"/>
<text text-anchor="middle" x="1229.38" y="-391.2" font-family="Courier,monospace" font-size="11.00">Horde_Argv_OptionGroup</text>
</g>
<!-- \\Horde_Argv_OptionGroup&#45;&gt;\\Horde_Argv_OptionContainer -->
<g id="edge10" class="edge"><title>\\Horde_Argv_OptionGroup&#45;&gt;\\Horde_Argv_OptionContainer</title>
<path fill="none" stroke="black" d="M1146.52,-380.164C1106.21,-373.351 1057.14,-365.058 1014.08,-357.78"/>
<polygon fill="none" stroke="black" points="1014.58,-354.315 1004.13,-356.099 1013.41,-361.217 1014.58,-354.315"/>
</g>
<!-- \\Horde_Argv_OptionConflictException -->
<g id="node11" class="node"><title>\\Horde_Argv_OptionConflictException</title>
<polygon fill="none" stroke="black" points="1030.88,-466 784.88,-466 784.88,-430 1030.88,-430 1030.88,-466"/>
<text text-anchor="middle" x="907.88" y="-445.2" font-family="Courier,monospace" font-size="11.00">Horde_Argv_OptionConflictException</text>
</g>
<!-- \\Horde_Argv_OptionConflictException&#45;&gt;\\Horde_Argv_OptionException -->
<g id="edge11" class="edge"><title>\\Horde_Argv_OptionConflictException&#45;&gt;\\Horde_Argv_OptionException</title>
<path fill="none" stroke="black" d="M784.737,-448C764.31,-448 743.272,-448 723.31,-448"/>
<polygon fill="none" stroke="black" points="723.292,-444.5 713.292,-448 723.292,-451.5 723.292,-444.5"/>
</g>
<!-- \\Horde_Argv_BadOptionException&#45;&gt;\\Horde_Argv_OptionException -->
<g id="edge12" class="edge"><title>\\Horde_Argv_BadOptionException&#45;&gt;\\Horde_Argv_OptionException</title>
<path fill="none" stroke="black" d="M810.245,-483.944C782.21,-478.705 751.464,-472.96 722.939,-467.63"/>
<polygon fill="none" stroke="black" points="723.422,-464.16 712.95,-465.764 722.137,-471.041 723.422,-464.16"/>
</g>
<!-- \\Horde_Argv_Translation -->
<g id="node14" class="node"><title>\\Horde_Argv_Translation</title>
<polygon fill="none" stroke="black" points="1311.88,-250 1146.88,-250 1146.88,-214 1311.88,-214 1311.88,-250"/>
<text text-anchor="middle" x="1229.38" y="-229.2" font-family="Courier,monospace" font-size="11.00">Horde_Argv_Translation</text>
</g>
<!-- \\Horde_Translation_Autodetect -->
<g id="node20" class="node"><title>\\Horde_Translation_Autodetect</title>
<ellipse fill="none" stroke="black" cx="907.88" cy="-18" rx="122.379" ry="18"/>
<text text-anchor="middle" x="907.88" y="-14.3" font-family="Times,serif" font-size="14.00" fill="gray">\Horde_Translation_Autodetect</text>
</g>
<!-- \\Horde_Argv_Translation&#45;&gt;\\Horde_Translation_Autodetect -->
<g id="edge13" class="edge"><title>\\Horde_Argv_Translation&#45;&gt;\\Horde_Translation_Autodetect</title>
<path fill="none" stroke="black" d="M1214.84,-213.73C1185.71,-175.839 1113.05,-88.6102 1030.88,-45 1022.56,-40.5844 1013.55,-36.8899 1004.33,-33.799"/>
<polygon fill="none" stroke="black" points="1005.25,-30.4199 994.664,-30.7915 1003.17,-37.104 1005.25,-30.4199"/>
</g>
<!-- \\Horde_Argv_Parser -->
<g id="node15" class="node"><title>\\Horde_Argv_Parser</title>
<polygon fill="none" stroke="black" points="1294.88,-358 1163.88,-358 1163.88,-322 1294.88,-322 1294.88,-358"/>
<text text-anchor="middle" x="1229.38" y="-337.2" font-family="Courier,monospace" font-size="11.00">Horde_Argv_Parser</text>
</g>
<!-- \\Horde_Argv_Parser&#45;&gt;\\Horde_Argv_OptionContainer -->
<g id="edge14" class="edge"><title>\\Horde_Argv_Parser&#45;&gt;\\Horde_Argv_OptionContainer</title>
<path fill="none" stroke="black" d="M1163.72,-340C1120.82,-340 1063.53,-340 1014.14,-340"/>
<polygon fill="none" stroke="black" points="1014.05,-336.5 1004.05,-340 1014.05,-343.5 1014.05,-336.5"/>
</g>
</g>
</svg>
