<?xml version="1.0" encoding="UTF-8" standalone="no"?>
<!DOCTYPE svg PUBLIC "-//W3C//DTD SVG 1.1//EN"
 "http://www.w3.org/Graphics/SVG/1.1/DTD/svg11.dtd">
<!-- Generated by graphviz version 2.38.0 (20140413.2041)
 -->
<!-- Title: G Pages: 1 -->
<svg width="661pt" height="1176pt"
 viewBox="0.00 0.00 661.27 1176.00" xmlns="http://www.w3.org/2000/svg" xmlns:xlink="http://www.w3.org/1999/xlink">
<g id="graph0" class="graph" transform="scale(1 1) rotate(0) translate(4 1172)">
<title>G</title>
<polygon fill="white" stroke="none" points="-4,4 -4,-1172 657.271,-1172 657.271,4 -4,4"/>
<g id="clust1" class="cluster"><title>cluster_Global</title>
<path fill="none" stroke="gray" d="M402.271,-8C402.271,-8 633.271,-8 633.271,-8 639.271,-8 645.271,-14 645.271,-20 645.271,-20 645.271,-1148 645.271,-1148 645.271,-1154 639.271,-1160 633.271,-1160 633.271,-1160 402.271,-1160 402.271,-1160 396.271,-1160 390.271,-1154 390.271,-1148 390.271,-1148 390.271,-20 390.271,-20 390.271,-14 396.271,-8 402.271,-8"/>
<text text-anchor="middle" x="517.771" y="-1147.2" font-family="Times,serif" font-size="11.00" fill="gray">Global</text>
</g>
<!-- \\Trean_Api -->
<g id="node1" class="node"><title>\\Trean_Api</title>
<polygon fill="none" stroke="black" points="556.271,-1132 479.271,-1132 479.271,-1096 556.271,-1096 556.271,-1132"/>
<text text-anchor="middle" x="517.771" y="-1111.2" font-family="Courier,monospace" font-size="11.00">Trean_Api</text>
</g>
<!-- \\Horde_Registry_Api -->
<g id="node22" class="node"><title>\\Horde_Registry_Api</title>
<ellipse fill="none" stroke="black" cx="163.136" cy="-1114" rx="87.1846" ry="18"/>
<text text-anchor="middle" x="163.136" y="-1110.3" font-family="Times,serif" font-size="14.00" fill="gray">\Horde_Registry_Api</text>
</g>
<!-- \\Trean_Api&#45;&gt;\\Horde_Registry_Api -->
<g id="edge1" class="edge"><title>\\Trean_Api&#45;&gt;\\Horde_Registry_Api</title>
<path fill="none" stroke="black" d="M479.033,-1114C427.276,-1114 332.481,-1114 260.375,-1114"/>
<polygon fill="none" stroke="black" points="260.358,-1110.5 250.358,-1114 260.358,-1117.5 260.358,-1110.5"/>
</g>
<!-- \\Trean_Bookmark -->
<g id="node2" class="node"><title>\\Trean_Bookmark</title>
<polygon fill="none" stroke="black" points="573.271,-1078 462.271,-1078 462.271,-1042 573.271,-1042 573.271,-1078"/>
<text text-anchor="middle" x="517.771" y="-1057.2" font-family="Courier,monospace" font-size="11.00">Trean_Bookmark</text>
</g>
<!-- \\Trean_Ajax_Application -->
<g id="node3" class="node"><title>\\Trean_Ajax_Application</title>
<polygon fill="none" stroke="black" points="600.271,-1024 435.271,-1024 435.271,-988 600.271,-988 600.271,-1024"/>
<text text-anchor="middle" x="517.771" y="-1003.2" font-family="Courier,monospace" font-size="11.00">Trean_Ajax_Application</text>
</g>
<!-- \\Horde_Core_Ajax_Application -->
<g id="node23" class="node"><title>\\Horde_Core_Ajax_Application</title>
<ellipse fill="none" stroke="black" cx="163.136" cy="-1006" rx="124.278" ry="18"/>
<text text-anchor="middle" x="163.136" y="-1002.3" font-family="Times,serif" font-size="14.00" fill="gray">\Horde_Core_Ajax_Application</text>
</g>
<!-- \\Trean_Ajax_Application&#45;&gt;\\Horde_Core_Ajax_Application -->
<g id="edge2" class="edge"><title>\\Trean_Ajax_Application&#45;&gt;\\Horde_Core_Ajax_Application</title>
<path fill="none" stroke="black" d="M434.983,-1006C394.134,-1006 343.675,-1006 297.423,-1006"/>
<polygon fill="none" stroke="black" points="297.316,-1002.5 287.316,-1006 297.316,-1009.5 297.316,-1002.5"/>
</g>
<!-- \\Trean_Ajax_Imple_TopTags -->
<g id="node4" class="node"><title>\\Trean_Ajax_Imple_TopTags</title>
<polygon fill="none" stroke="black" points="607.271,-970 428.271,-970 428.271,-934 607.271,-934 607.271,-970"/>
<text text-anchor="middle" x="517.771" y="-949.2" font-family="Courier,monospace" font-size="11.00">Trean_Ajax_Imple_TopTags</text>
</g>
<!-- \\Horde_Core_Ajax_Imple -->
<g id="node24" class="node"><title>\\Horde_Core_Ajax_Imple</title>
<ellipse fill="none" stroke="black" cx="163.136" cy="-952" rx="103.182" ry="18"/>
<text text-anchor="middle" x="163.136" y="-948.3" font-family="Times,serif" font-size="14.00" fill="gray">\Horde_Core_Ajax_Imple</text>
</g>
<!-- \\Trean_Ajax_Imple_TopTags&#45;&gt;\\Horde_Core_Ajax_Imple -->
<g id="edge3" class="edge"><title>\\Trean_Ajax_Imple_TopTags&#45;&gt;\\Horde_Core_Ajax_Imple</title>
<path fill="none" stroke="black" d="M428.241,-952C382.337,-952 325.775,-952 276.787,-952"/>
<polygon fill="none" stroke="black" points="276.776,-948.5 266.776,-952 276.776,-955.5 276.776,-948.5"/>
</g>
<!-- \\Trean_Ajax_Imple_TagAutoCompleter -->
<g id="node5" class="node"><title>\\Trean_Ajax_Imple_TagAutoCompleter</title>
<polygon fill="none" stroke="black" points="637.271,-916 398.271,-916 398.271,-880 637.271,-880 637.271,-916"/>
<text text-anchor="middle" x="517.771" y="-895.2" font-family="Courier,monospace" font-size="11.00">Trean_Ajax_Imple_TagAutoCompleter</text>
</g>
<!-- \\Horde_Core_Ajax_Imple_AutoCompleter -->
<g id="node25" class="node"><title>\\Horde_Core_Ajax_Imple_AutoCompleter</title>
<ellipse fill="none" stroke="black" cx="163.136" cy="-898" rx="163.271" ry="18"/>
<text text-anchor="middle" x="163.136" y="-894.3" font-family="Times,serif" font-size="14.00" fill="gray">\Horde_Core_Ajax_Imple_AutoCompleter</text>
</g>
<!-- \\Trean_Ajax_Imple_TagAutoCompleter&#45;&gt;\\Horde_Core_Ajax_Imple_AutoCompleter -->
<g id="edge4" class="edge"><title>\\Trean_Ajax_Imple_TagAutoCompleter&#45;&gt;\\Horde_Core_Ajax_Imple_AutoCompleter</title>
<path fill="none" stroke="black" d="M397.876,-898C378.116,-898 357.275,-898 336.507,-898"/>
<polygon fill="none" stroke="black" points="336.323,-894.5 326.323,-898 336.323,-901.5 336.323,-894.5"/>
</g>
<!-- \\Trean_TagBrowser -->
<g id="node6" class="node"><title>\\Trean_TagBrowser</title>
<polygon fill="none" stroke="black" points="580.271,-862 455.271,-862 455.271,-826 580.271,-826 580.271,-862"/>
<text text-anchor="middle" x="517.771" y="-841.2" font-family="Courier,monospace" font-size="11.00">Trean_TagBrowser</text>
</g>
<!-- \\Horde_Core_TagBrowser -->
<g id="node26" class="node"><title>\\Horde_Core_TagBrowser</title>
<ellipse fill="none" stroke="black" cx="163.136" cy="-844" rx="104.782" ry="18"/>
<text text-anchor="middle" x="163.136" y="-840.3" font-family="Times,serif" font-size="14.00" fill="gray">\Horde_Core_TagBrowser</text>
</g>
<!-- \\Trean_TagBrowser&#45;&gt;\\Horde_Core_TagBrowser -->
<g id="edge5" class="edge"><title>\\Trean_TagBrowser&#45;&gt;\\Horde_Core_TagBrowser</title>
<path fill="none" stroke="black" d="M454.943,-844C406.208,-844 336.912,-844 278.189,-844"/>
<polygon fill="none" stroke="black" points="278.11,-840.5 268.11,-844 278.109,-847.5 278.11,-840.5"/>
</g>
<!-- \\Trean_Exception -->
<g id="node7" class="node"><title>\\Trean_Exception</title>
<polygon fill="none" stroke="black" points="576.771,-808 458.771,-808 458.771,-772 576.771,-772 576.771,-808"/>
<text text-anchor="middle" x="517.771" y="-787.2" font-family="Courier,monospace" font-size="11.00">Trean_Exception</text>
</g>
<!-- \\Horde_Exception -->
<g id="node27" class="node"><title>\\Horde_Exception</title>
<ellipse fill="none" stroke="black" cx="163.136" cy="-790" rx="75.2868" ry="18"/>
<text text-anchor="middle" x="163.136" y="-786.3" font-family="Times,serif" font-size="14.00" fill="gray">\Horde_Exception</text>
</g>
<!-- \\Trean_Exception&#45;&gt;\\Horde_Exception -->
<g id="edge6" class="edge"><title>\\Trean_Exception&#45;&gt;\\Horde_Exception</title>
<path fill="none" stroke="black" d="M458.54,-790C401.441,-790 313.764,-790 248.93,-790"/>
<polygon fill="none" stroke="black" points="248.729,-786.5 238.728,-790 248.728,-793.5 248.729,-786.5"/>
</g>
<!-- \\Trean_Application -->
<g id="node8" class="node"><title>\\Trean_Application</title>
<polygon fill="none" stroke="black" points="583.271,-754 452.271,-754 452.271,-718 583.271,-718 583.271,-754"/>
<text text-anchor="middle" x="517.771" y="-733.2" font-family="Courier,monospace" font-size="11.00">Trean_Application</text>
</g>
<!-- \\Horde_Registry_Application -->
<g id="node28" class="node"><title>\\Horde_Registry_Application</title>
<ellipse fill="none" stroke="black" cx="163.136" cy="-736" rx="115.08" ry="18"/>
<text text-anchor="middle" x="163.136" y="-732.3" font-family="Times,serif" font-size="14.00" fill="gray">\Horde_Registry_Application</text>
</g>
<!-- \\Trean_Application&#45;&gt;\\Horde_Registry_Application -->
<g id="edge7" class="edge"><title>\\Trean_Application&#45;&gt;\\Horde_Registry_Application</title>
<path fill="none" stroke="black" d="M452.092,-736C406.42,-736 343.769,-736 288.567,-736"/>
<polygon fill="none" stroke="black" points="288.352,-732.5 278.352,-736 288.352,-739.5 288.352,-732.5"/>
</g>
<!-- \\Trean_Url -->
<g id="node9" class="node"><title>\\Trean_Url</title>
<polygon fill="none" stroke="black" points="556.271,-700 479.271,-700 479.271,-664 556.271,-664 556.271,-700"/>
<text text-anchor="middle" x="517.771" y="-679.2" font-family="Courier,monospace" font-size="11.00">Trean_Url</text>
</g>
<!-- \\Trean_View_BookmarkList -->
<g id="node10" class="node"><title>\\Trean_View_BookmarkList</title>
<polygon fill="none" stroke="black" points="603.771,-646 431.771,-646 431.771,-610 603.771,-610 603.771,-646"/>
<text text-anchor="middle" x="517.771" y="-625.2" font-family="Courier,monospace" font-size="11.00">Trean_View_BookmarkList</text>
</g>
<!-- \\Trean_Queue_Task_Favicon -->
<g id="node11" class="node"><title>\\Trean_Queue_Task_Favicon</title>
<polygon fill="none" stroke="black" points="607.271,-592 428.271,-592 428.271,-556 607.271,-556 607.271,-592"/>
<text text-anchor="middle" x="517.771" y="-571.2" font-family="Courier,monospace" font-size="11.00">Trean_Queue_Task_Favicon</text>
</g>
<!-- \\Horde_Queue_Task -->
<g id="node29" class="node"><title>\\Horde_Queue_Task</title>
<ellipse fill="none" stroke="black" cx="163.136" cy="-547" rx="83.6854" ry="18"/>
<text text-anchor="middle" x="163.136" y="-543.3" font-family="Times,serif" font-size="14.00" fill="gray">\Horde_Queue_Task</text>
</g>
<!-- \\Trean_Queue_Task_Favicon&#45;&gt;\\Horde_Queue_Task -->
<g id="edge8" class="edge"><title>\\Trean_Queue_Task_Favicon&#45;&gt;\\Horde_Queue_Task</title>
<path fill="none" stroke="black" stroke-dasharray="1,5" d="M428.241,-567.222C374.575,-563.113 306.341,-557.888 252.673,-553.779"/>
<polygon fill="none" stroke="black" points="252.724,-550.273 242.486,-552.999 252.189,-557.252 252.724,-550.273"/>
</g>
<!-- \\Trean_Queue_Task_Crawl -->
<g id="node12" class="node"><title>\\Trean_Queue_Task_Crawl</title>
<polygon fill="none" stroke="black" points="600.271,-538 435.271,-538 435.271,-502 600.271,-502 600.271,-538"/>
<text text-anchor="middle" x="517.771" y="-517.2" font-family="Courier,monospace" font-size="11.00">Trean_Queue_Task_Crawl</text>
</g>
<!-- \\Trean_Queue_Task_Crawl&#45;&gt;\\Horde_Queue_Task -->
<g id="edge9" class="edge"><title>\\Trean_Queue_Task_Crawl&#45;&gt;\\Horde_Queue_Task</title>
<path fill="none" stroke="black" stroke-dasharray="1,5" d="M434.983,-526.262C380.394,-530.442 308.642,-535.936 252.704,-540.219"/>
<polygon fill="none" stroke="black" points="252.155,-536.75 242.452,-541.004 252.69,-543.73 252.155,-536.75"/>
</g>
<!-- \\Trean -->
<g id="node13" class="node"><title>\\Trean</title>
<polygon fill="none" stroke="black" points="544.771,-484 490.771,-484 490.771,-448 544.771,-448 544.771,-484"/>
<text text-anchor="middle" x="517.771" y="-463.2" font-family="Courier,monospace" font-size="11.00">Trean</text>
</g>
<!-- \\Trean_Tagger -->
<g id="node14" class="node"><title>\\Trean_Tagger</title>
<polygon fill="none" stroke="black" points="566.771,-430 468.771,-430 468.771,-394 566.771,-394 566.771,-430"/>
<text text-anchor="middle" x="517.771" y="-409.2" font-family="Courier,monospace" font-size="11.00">Trean_Tagger</text>
</g>
<!-- \\Horde_Core_Tagger -->
<g id="node30" class="node"><title>\\Horde_Core_Tagger</title>
<ellipse fill="none" stroke="black" cx="163.136" cy="-412" rx="85.5853" ry="18"/>
<text text-anchor="middle" x="163.136" y="-408.3" font-family="Times,serif" font-size="14.00" fill="gray">\Horde_Core_Tagger</text>
</g>
<!-- \\Trean_Tagger&#45;&gt;\\Horde_Core_Tagger -->
<g id="edge10" class="edge"><title>\\Trean_Tagger&#45;&gt;\\Horde_Core_Tagger</title>
<path fill="none" stroke="black" d="M468.478,-412C414.832,-412 326.88,-412 259.285,-412"/>
<polygon fill="none" stroke="black" points="259.044,-408.5 249.044,-412 259.044,-415.5 259.044,-408.5"/>
</g>
<!-- \\Trean_Data_Html -->
<g id="node15" class="node"><title>\\Trean_Data_Html</title>
<polygon fill="none" stroke="black" points="576.771,-376 458.771,-376 458.771,-340 576.771,-340 576.771,-376"/>
<text text-anchor="middle" x="517.771" y="-355.2" font-family="Courier,monospace" font-size="11.00">Trean_Data_Html</text>
</g>
<!-- \\Horde_Data_Base -->
<g id="node31" class="node"><title>\\Horde_Data_Base</title>
<ellipse fill="none" stroke="black" cx="163.136" cy="-331" rx="77.1866" ry="18"/>
<text text-anchor="middle" x="163.136" y="-327.3" font-family="Times,serif" font-size="14.00" fill="gray">\Horde_Data_Base</text>
</g>
<!-- \\Trean_Data_Html&#45;&gt;\\Horde_Data_Base -->
<g id="edge11" class="edge"><title>\\Trean_Data_Html&#45;&gt;\\Horde_Data_Base</title>
<path fill="none" stroke="black" d="M458.54,-353.541C400.884,-349.127 312.05,-342.325 247.039,-337.348"/>
<polygon fill="none" stroke="black" points="247.056,-333.839 236.818,-336.565 246.521,-340.818 247.056,-333.839"/>
</g>
<!-- \\Trean_Data_Json -->
<g id="node16" class="node"><title>\\Trean_Data_Json</title>
<polygon fill="none" stroke="black" points="576.771,-322 458.771,-322 458.771,-286 576.771,-286 576.771,-322"/>
<text text-anchor="middle" x="517.771" y="-301.2" font-family="Courier,monospace" font-size="11.00">Trean_Data_Json</text>
</g>
<!-- \\Trean_Data_Json&#45;&gt;\\Horde_Data_Base -->
<g id="edge12" class="edge"><title>\\Trean_Data_Json&#45;&gt;\\Horde_Data_Base</title>
<path fill="none" stroke="black" d="M458.54,-308.459C400.884,-312.873 312.05,-319.675 247.039,-324.652"/>
<polygon fill="none" stroke="black" points="246.521,-321.182 236.818,-325.435 247.056,-328.161 246.521,-321.182"/>
</g>
<!-- \\Trean_Bookmarks -->
<g id="node17" class="node"><title>\\Trean_Bookmarks</title>
<polygon fill="none" stroke="black" points="576.771,-268 458.771,-268 458.771,-232 576.771,-232 576.771,-268"/>
<text text-anchor="middle" x="517.771" y="-247.2" font-family="Courier,monospace" font-size="11.00">Trean_Bookmarks</text>
</g>
<!-- \\Trean_Factory_TagBrowser -->
<g id="node18" class="node"><title>\\Trean_Factory_TagBrowser</title>
<polygon fill="none" stroke="black" points="607.271,-214 428.271,-214 428.271,-178 607.271,-178 607.271,-214"/>
<text text-anchor="middle" x="517.771" y="-193.2" font-family="Courier,monospace" font-size="11.00">Trean_Factory_TagBrowser</text>
</g>
<!-- \\Trean_Block_Tagsearch -->
<g id="node19" class="node"><title>\\Trean_Block_Tagsearch</title>
<polygon fill="none" stroke="black" points="596.771,-160 438.771,-160 438.771,-124 596.771,-124 596.771,-160"/>
<text text-anchor="middle" x="517.771" y="-139.2" font-family="Courier,monospace" font-size="11.00">Trean_Block_Tagsearch</text>
</g>
<!-- \\Horde_Core_Block -->
<g id="node32" class="node"><title>\\Horde_Core_Block</title>
<ellipse fill="none" stroke="black" cx="163.136" cy="-88" rx="81.7856" ry="18"/>
<text text-anchor="middle" x="163.136" y="-84.3" font-family="Times,serif" font-size="14.00" fill="gray">\Horde_Core_Block</text>
</g>
<!-- \\Trean_Block_Tagsearch&#45;&gt;\\Horde_Core_Block -->
<g id="edge13" class="edge"><title>\\Trean_Block_Tagsearch&#45;&gt;\\Horde_Core_Block</title>
<path fill="none" stroke="black" d="M438.51,-130.016C379.623,-120.998 299.341,-108.704 240.837,-99.7455"/>
<polygon fill="none" stroke="black" points="241.325,-96.2795 230.911,-98.2254 240.266,-103.199 241.325,-96.2795"/>
</g>
<!-- \\Trean_Block_Mostclicked -->
<g id="node20" class="node"><title>\\Trean_Block_Mostclicked</title>
<polygon fill="none" stroke="black" points="603.771,-106 431.771,-106 431.771,-70 603.771,-70 603.771,-106"/>
<text text-anchor="middle" x="517.771" y="-85.2" font-family="Courier,monospace" font-size="11.00">Trean_Block_Mostclicked</text>
</g>
<!-- \\Trean_Block_Mostclicked&#45;&gt;\\Horde_Core_Block -->
<g id="edge14" class="edge"><title>\\Trean_Block_Mostclicked&#45;&gt;\\Horde_Core_Block</title>
<path fill="none" stroke="black" d="M431.408,-88C378.173,-88 309.704,-88 255.395,-88"/>
<polygon fill="none" stroke="black" points="255.079,-84.5001 245.079,-88 255.079,-91.5001 255.079,-84.5001"/>
</g>
<!-- \\Trean_Block_Bookmarks -->
<g id="node21" class="node"><title>\\Trean_Block_Bookmarks</title>
<polygon fill="none" stroke="black" points="596.771,-52 438.771,-52 438.771,-16 596.771,-16 596.771,-52"/>
<text text-anchor="middle" x="517.771" y="-31.2" font-family="Courier,monospace" font-size="11.00">Trean_Block_Bookmarks</text>
</g>
<!-- \\Trean_Block_Bookmarks&#45;&gt;\\Horde_Core_Block -->
<g id="edge15" class="edge"><title>\\Trean_Block_Bookmarks&#45;&gt;\\Horde_Core_Block</title>
<path fill="none" stroke="black" d="M438.51,-45.9844C379.623,-55.0018 299.341,-67.2956 240.837,-76.2545"/>
<polygon fill="none" stroke="black" points="240.266,-72.8011 230.911,-77.7746 241.325,-79.7205 240.266,-72.8011"/>
</g>
</g>
</svg>
