<?xml version="1.0" encoding="UTF-8" standalone="no"?>
<!DOCTYPE svg PUBLIC "-//W3C//DTD SVG 1.1//EN"
 "http://www.w3.org/Graphics/SVG/1.1/DTD/svg11.dtd">
<!-- Generated by graphviz version 2.38.0 (20140413.2041)
 -->
<!-- Title: G Pages: 1 -->
<svg width="533pt" height="402pt"
 viewBox="0.00 0.00 532.88 402.00" xmlns="http://www.w3.org/2000/svg" xmlns:xlink="http://www.w3.org/1999/xlink">
<g id="graph0" class="graph" transform="scale(1 1) rotate(0) translate(4 398)">
<title>G</title>
<polygon fill="white" stroke="none" points="-4,4 -4,-398 528.88,-398 528.88,4 -4,4"/>
<g id="clust1" class="cluster"><title>cluster_Global</title>
<path fill="none" stroke="gray" d="M26.94,-44C26.94,-44 504.88,-44 504.88,-44 510.88,-44 516.88,-50 516.88,-56 516.88,-56 516.88,-374 516.88,-374 516.88,-380 510.88,-386 504.88,-386 504.88,-386 26.94,-386 26.94,-386 20.94,-386 14.94,-380 14.94,-374 14.94,-374 14.94,-56 14.94,-56 14.94,-50 20.94,-44 26.94,-44"/>
<text text-anchor="middle" x="265.91" y="-373.2" font-family="Times,serif" font-size="11.00" fill="gray">Global</text>
</g>
<!-- \\Horde_Compress_Fast -->
<g id="node1" class="node"><title>\\Horde_Compress_Fast</title>
<polygon fill="none" stroke="black" points="475.38,-358 330.38,-358 330.38,-322 475.38,-322 475.38,-358"/>
<text text-anchor="middle" x="402.88" y="-337.2" font-family="Courier,monospace" font-size="11.00">Horde_Compress_Fast</text>
</g>
<!-- \\Horde_Compress_Fast_Null -->
<g id="node2" class="node"><title>\\Horde_Compress_Fast_Null</title>
<polygon fill="none" stroke="black" points="492.38,-304 313.38,-304 313.38,-268 492.38,-268 492.38,-304"/>
<text text-anchor="middle" x="402.88" y="-283.2" font-family="Courier,monospace" font-size="11.00">Horde_Compress_Fast_Null</text>
</g>
<!-- \\Horde_Compress_Fast_Base -->
<g id="node7" class="node"><title>\\Horde_Compress_Fast_Base</title>
<polygon fill="none" stroke="black" points="201.94,-223 22.94,-223 22.94,-187 201.94,-187 201.94,-223"/>
<text text-anchor="start" x="78.44" y="-208.2" font-family="Courier,monospace" font-size="11.00">«abstract»</text>
<text text-anchor="start" x="30.94" y="-196.2" font-family="Courier,monospace" font-size="11.00">Horde_Compress_Fast_Base</text>
</g>
<!-- \\Horde_Compress_Fast_Null&#45;&gt;\\Horde_Compress_Fast_Base -->
<g id="edge1" class="edge"><title>\\Horde_Compress_Fast_Null&#45;&gt;\\Horde_Compress_Fast_Base</title>
<path fill="none" stroke="black" d="M330.343,-267.958C319.126,-265.028 307.677,-261.976 296.88,-259 259.012,-248.561 216.962,-236.236 182.685,-225.999"/>
<polygon fill="none" stroke="black" points="183.357,-222.546 172.774,-223.032 181.35,-229.252 183.357,-222.546"/>
</g>
<!-- \\Horde_Compress_Fast_Exception -->
<g id="node3" class="node"><title>\\Horde_Compress_Fast_Exception</title>
<polygon fill="none" stroke="black" points="508.88,-88 296.88,-88 296.88,-52 508.88,-52 508.88,-88"/>
<text text-anchor="middle" x="402.88" y="-67.2" font-family="Courier,monospace" font-size="11.00">Horde_Compress_Fast_Exception</text>
</g>
<!-- \\Horde_Exception_Wrapped -->
<g id="node8" class="node"><title>\\Horde_Exception_Wrapped</title>
<ellipse fill="none" stroke="black" cx="112.44" cy="-18" rx="112.38" ry="18"/>
<text text-anchor="middle" x="112.44" y="-14.3" font-family="Times,serif" font-size="14.00" fill="gray">\Horde_Exception_Wrapped</text>
</g>
<!-- \\Horde_Compress_Fast_Exception&#45;&gt;\\Horde_Exception_Wrapped -->
<g id="edge2" class="edge"><title>\\Horde_Compress_Fast_Exception&#45;&gt;\\Horde_Exception_Wrapped</title>
<path fill="none" stroke="black" d="M301.807,-51.9589C267.892,-45.8446 230.372,-39.0805 197.803,-33.209"/>
<polygon fill="none" stroke="black" points="198.326,-29.747 187.864,-31.4172 197.084,-36.6359 198.326,-29.747"/>
</g>
<!-- \\Horde_Compress_Fast_Lzf -->
<g id="node4" class="node"><title>\\Horde_Compress_Fast_Lzf</title>
<polygon fill="none" stroke="black" points="488.88,-250 316.88,-250 316.88,-214 488.88,-214 488.88,-250"/>
<text text-anchor="middle" x="402.88" y="-229.2" font-family="Courier,monospace" font-size="11.00">Horde_Compress_Fast_Lzf</text>
</g>
<!-- \\Horde_Compress_Fast_Lzf&#45;&gt;\\Horde_Compress_Fast_Base -->
<g id="edge3" class="edge"><title>\\Horde_Compress_Fast_Lzf&#45;&gt;\\Horde_Compress_Fast_Base</title>
<path fill="none" stroke="black" d="M316.509,-224.009C283.841,-220.951 246.309,-217.437 212.47,-214.27"/>
<polygon fill="none" stroke="black" points="212.379,-210.746 202.096,-213.299 211.726,-217.716 212.379,-210.746"/>
</g>
<!-- \\Horde_Compress_Fast_Zlib -->
<g id="node5" class="node"><title>\\Horde_Compress_Fast_Zlib</title>
<polygon fill="none" stroke="black" points="492.38,-196 313.38,-196 313.38,-160 492.38,-160 492.38,-196"/>
<text text-anchor="middle" x="402.88" y="-175.2" font-family="Courier,monospace" font-size="11.00">Horde_Compress_Fast_Zlib</text>
</g>
<!-- \\Horde_Compress_Fast_Zlib&#45;&gt;\\Horde_Compress_Fast_Base -->
<g id="edge4" class="edge"><title>\\Horde_Compress_Fast_Zlib&#45;&gt;\\Horde_Compress_Fast_Base</title>
<path fill="none" stroke="black" d="M313.378,-186.284C281.412,-189.277 245.13,-192.673 212.33,-195.743"/>
<polygon fill="none" stroke="black" points="211.902,-192.268 202.271,-196.685 212.554,-199.237 211.902,-192.268"/>
</g>
<!-- \\Horde_Compress_Fast_Lz4 -->
<g id="node6" class="node"><title>\\Horde_Compress_Fast_Lz4</title>
<polygon fill="none" stroke="black" points="488.88,-142 316.88,-142 316.88,-106 488.88,-106 488.88,-142"/>
<text text-anchor="middle" x="402.88" y="-121.2" font-family="Courier,monospace" font-size="11.00">Horde_Compress_Fast_Lz4</text>
</g>
<!-- \\Horde_Compress_Fast_Lz4&#45;&gt;\\Horde_Compress_Fast_Base -->
<g id="edge5" class="edge"><title>\\Horde_Compress_Fast_Lz4&#45;&gt;\\Horde_Compress_Fast_Base</title>
<path fill="none" stroke="black" d="M330.343,-142.042C319.126,-144.972 307.677,-148.024 296.88,-151 259.012,-161.439 216.962,-173.764 182.685,-184.001"/>
<polygon fill="none" stroke="black" points="181.35,-180.748 172.774,-186.968 183.357,-187.454 181.35,-180.748"/>
</g>
</g>
</svg>
