<?xml version="1.0" encoding="UTF-8" standalone="no"?>
<!DOCTYPE svg PUBLIC "-//W3C//DTD SVG 1.1//EN"
 "http://www.w3.org/Graphics/SVG/1.1/DTD/svg11.dtd">
<!-- Generated by graphviz version 2.38.0 (20140413.2041)
 -->
<!-- Title: G Pages: 1 -->
<svg width="946pt" height="782pt"
 viewBox="0.00 0.00 946.19 782.00" xmlns="http://www.w3.org/2000/svg" xmlns:xlink="http://www.w3.org/1999/xlink">
<g id="graph0" class="graph" transform="scale(1 1) rotate(0) translate(4 778)">
<title>G</title>
<polygon fill="white" stroke="none" points="-4,4 -4,-778 942.19,-778 942.19,4 -4,4"/>
<g id="clust1" class="cluster"><title>cluster_Global</title>
<path fill="none" stroke="gray" d="M185.19,-46C185.19,-46 918.19,-46 918.19,-46 924.19,-46 930.19,-52 930.19,-58 930.19,-58 930.19,-754 930.19,-754 930.19,-760 924.19,-766 918.19,-766 918.19,-766 185.19,-766 185.19,-766 179.19,-766 173.19,-760 173.19,-754 173.19,-754 173.19,-58 173.19,-58 173.19,-52 179.19,-46 185.19,-46"/>
<text text-anchor="middle" x="551.69" y="-753.2" font-family="Times,serif" font-size="11.00" fill="gray">Global</text>
</g>
<!-- \\Horde_Cache -->
<g id="node1" class="node"><title>\\Horde_Cache</title>
<polygon fill="none" stroke="black" points="878.19,-603 787.19,-603 787.19,-567 878.19,-567 878.19,-603"/>
<text text-anchor="middle" x="832.69" y="-582.2" font-family="Courier,monospace" font-size="11.00">Horde_Cache</text>
</g>
<!-- \\Horde_Cache_Exception -->
<g id="node2" class="node"><title>\\Horde_Cache_Exception</title>
<polygon fill="none" stroke="black" points="911.69,-90 753.69,-90 753.69,-54 911.69,-54 911.69,-90"/>
<text text-anchor="middle" x="832.69" y="-69.2" font-family="Courier,monospace" font-size="11.00">Horde_Cache_Exception</text>
</g>
<!-- \\Horde_Exception_Wrapped -->
<g id="node18" class="node"><title>\\Horde_Exception_Wrapped</title>
<ellipse fill="none" stroke="black" cx="551.69" cy="-18" rx="112.38" ry="18"/>
<text text-anchor="middle" x="551.69" y="-14.3" font-family="Times,serif" font-size="14.00" fill="gray">\Horde_Exception_Wrapped</text>
</g>
<!-- \\Horde_Cache_Exception&#45;&gt;\\Horde_Exception_Wrapped -->
<g id="edge1" class="edge"><title>\\Horde_Cache_Exception&#45;&gt;\\Horde_Exception_Wrapped</title>
<path fill="none" stroke="black" d="M753.602,-56.8862C716.311,-49.6684 671.703,-41.0348 634.004,-33.7381"/>
<polygon fill="none" stroke="black" points="634.556,-30.28 624.073,-31.816 633.226,-37.1525 634.556,-30.28"/>
</g>
<!-- \\Horde_Cache_Storage_Hashtable -->
<g id="node3" class="node"><title>\\Horde_Cache_Storage_Hashtable</title>
<polygon fill="none" stroke="black" points="657.69,-738 445.69,-738 445.69,-702 657.69,-702 657.69,-738"/>
<text text-anchor="middle" x="551.69" y="-717.2" font-family="Courier,monospace" font-size="11.00">Horde_Cache_Storage_Hashtable</text>
</g>
<!-- \\Horde_Cache_Storage_Base -->
<g id="node16" class="node"><title>\\Horde_Cache_Storage_Base</title>
<polygon fill="none" stroke="black" points="360.19,-414 181.19,-414 181.19,-378 360.19,-378 360.19,-414"/>
<text text-anchor="start" x="236.69" y="-399.2" font-family="Courier,monospace" font-size="11.00">«abstract»</text>
<text text-anchor="start" x="189.19" y="-387.2" font-family="Courier,monospace" font-size="11.00">Horde_Cache_Storage_Base</text>
</g>
<!-- \\Horde_Cache_Storage_Hashtable&#45;&gt;\\Horde_Cache_Storage_Base -->
<g id="edge2" class="edge"><title>\\Horde_Cache_Storage_Hashtable&#45;&gt;\\Horde_Cache_Storage_Base</title>
<path fill="none" stroke="black" d="M446.472,-701.964C441.443,-699.354 436.643,-696.383 432.19,-693 339.735,-622.761 294.259,-483.374 278.418,-423.922"/>
<polygon fill="none" stroke="black" points="281.773,-422.916 275.881,-414.11 274.996,-424.668 281.773,-422.916"/>
</g>
<!-- \\Horde_Cache_Storage_Xcache -->
<g id="node4" class="node"><title>\\Horde_Cache_Storage_Xcache</title>
<polygon fill="none" stroke="black" points="647.69,-684 455.69,-684 455.69,-648 647.69,-648 647.69,-684"/>
<text text-anchor="middle" x="551.69" y="-663.2" font-family="Courier,monospace" font-size="11.00">Horde_Cache_Storage_Xcache</text>
</g>
<!-- \\Horde_Cache_Storage_Xcache&#45;&gt;\\Horde_Cache_Storage_Base -->
<g id="edge3" class="edge"><title>\\Horde_Cache_Storage_Xcache&#45;&gt;\\Horde_Cache_Storage_Base</title>
<path fill="none" stroke="black" d="M455.687,-651.397C447.369,-648.062 439.39,-643.984 432.19,-639 352.3,-583.69 301.904,-474.472 281.744,-423.459"/>
<polygon fill="none" stroke="black" points="284.984,-422.133 278.116,-414.066 278.455,-424.655 284.984,-422.133"/>
</g>
<!-- \\Horde_Cache_Storage_Null -->
<g id="node5" class="node"><title>\\Horde_Cache_Storage_Null</title>
<polygon fill="none" stroke="black" points="641.19,-630 462.19,-630 462.19,-594 641.19,-594 641.19,-630"/>
<text text-anchor="middle" x="551.69" y="-609.2" font-family="Courier,monospace" font-size="11.00">Horde_Cache_Storage_Null</text>
</g>
<!-- \\Horde_Cache_Storage_Null&#45;&gt;\\Horde_Cache_Storage_Base -->
<g id="edge4" class="edge"><title>\\Horde_Cache_Storage_Null&#45;&gt;\\Horde_Cache_Storage_Base</title>
<path fill="none" stroke="black" d="M462.124,-598.527C451.628,-595.012 441.39,-590.582 432.19,-585 364.616,-543.997 311.409,-464.584 286.723,-422.953"/>
<polygon fill="none" stroke="black" points="289.675,-421.067 281.617,-414.188 283.626,-424.591 289.675,-421.067"/>
</g>
<!-- \\Horde_Cache_Storage_Eaccelerator -->
<g id="node6" class="node"><title>\\Horde_Cache_Storage_Eaccelerator</title>
<polygon fill="none" stroke="black" points="668.19,-576 435.19,-576 435.19,-540 668.19,-540 668.19,-576"/>
<text text-anchor="middle" x="551.69" y="-555.2" font-family="Courier,monospace" font-size="11.00">Horde_Cache_Storage_Eaccelerator</text>
</g>
<!-- \\Horde_Cache_Storage_Eaccelerator&#45;&gt;\\Horde_Cache_Storage_Base -->
<g id="edge5" class="edge"><title>\\Horde_Cache_Storage_Eaccelerator&#45;&gt;\\Horde_Cache_Storage_Base</title>
<path fill="none" stroke="black" d="M453.629,-539.948C446.223,-537.35 438.991,-534.384 432.19,-531 376.594,-503.339 323.841,-452.618 294.817,-421.838"/>
<polygon fill="none" stroke="black" points="297.336,-419.407 287.963,-414.469 292.211,-424.174 297.336,-419.407"/>
</g>
<!-- \\Horde_Cache_Storage_Sql -->
<g id="node7" class="node"><title>\\Horde_Cache_Storage_Sql</title>
<polygon fill="none" stroke="black" points="637.69,-522 465.69,-522 465.69,-486 637.69,-486 637.69,-522"/>
<text text-anchor="middle" x="551.69" y="-501.2" font-family="Courier,monospace" font-size="11.00">Horde_Cache_Storage_Sql</text>
</g>
<!-- \\Horde_Cache_Storage_Sql&#45;&gt;\\Horde_Cache_Storage_Base -->
<g id="edge6" class="edge"><title>\\Horde_Cache_Storage_Sql&#45;&gt;\\Horde_Cache_Storage_Base</title>
<path fill="none" stroke="black" d="M465.49,-487.225C454.168,-484.231 442.811,-480.825 432.19,-477 389.16,-461.502 342.804,-437.207 311.028,-419.264"/>
<polygon fill="none" stroke="black" points="312.482,-416.064 302.062,-414.15 309.014,-422.144 312.482,-416.064"/>
</g>
<!-- \\Horde_Cache_Storage_Mongo -->
<g id="node8" class="node"><title>\\Horde_Cache_Storage_Mongo</title>
<polygon fill="none" stroke="black" points="644.19,-468 459.19,-468 459.19,-432 644.19,-432 644.19,-468"/>
<text text-anchor="middle" x="551.69" y="-447.2" font-family="Courier,monospace" font-size="11.00">Horde_Cache_Storage_Mongo</text>
</g>
<!-- \\Horde_Cache_Storage_Mongo&#45;&gt;\\Horde_Cache_Storage_Base -->
<g id="edge7" class="edge"><title>\\Horde_Cache_Storage_Mongo&#45;&gt;\\Horde_Cache_Storage_Base</title>
<path fill="none" stroke="black" d="M458.949,-432.244C430.676,-426.771 399.427,-420.723 370.689,-415.161"/>
<polygon fill="none" stroke="black" points="371.121,-411.68 360.638,-413.216 369.791,-418.552 371.121,-411.68"/>
</g>
<!-- \\Horde_Cache_Storage_Mock -->
<g id="node9" class="node"><title>\\Horde_Cache_Storage_Mock</title>
<polygon fill="none" stroke="black" points="922.19,-414 743.19,-414 743.19,-378 922.19,-378 922.19,-414"/>
<text text-anchor="middle" x="832.69" y="-393.2" font-family="Courier,monospace" font-size="11.00">Horde_Cache_Storage_Mock</text>
</g>
<!-- \\Horde_Cache_Storage_Memory -->
<g id="node13" class="node"><title>\\Horde_Cache_Storage_Memory</title>
<polygon fill="none" stroke="black" points="647.69,-414 455.69,-414 455.69,-378 647.69,-378 647.69,-414"/>
<text text-anchor="middle" x="551.69" y="-393.2" font-family="Courier,monospace" font-size="11.00">Horde_Cache_Storage_Memory</text>
</g>
<!-- \\Horde_Cache_Storage_Mock&#45;&gt;\\Horde_Cache_Storage_Memory -->
<g id="edge8" class="edge"><title>\\Horde_Cache_Storage_Mock&#45;&gt;\\Horde_Cache_Storage_Memory</title>
<path fill="none" stroke="black" d="M743.03,-396C716.029,-396 686.084,-396 658.092,-396"/>
<polygon fill="none" stroke="black" points="657.876,-392.5 647.876,-396 657.876,-399.5 657.876,-392.5"/>
</g>
<!-- \\Horde_Cache_Storage_Session -->
<g id="node10" class="node"><title>\\Horde_Cache_Storage_Session</title>
<polygon fill="none" stroke="black" points="651.19,-360 452.19,-360 452.19,-324 651.19,-324 651.19,-360"/>
<text text-anchor="middle" x="551.69" y="-339.2" font-family="Courier,monospace" font-size="11.00">Horde_Cache_Storage_Session</text>
</g>
<!-- \\Horde_Cache_Storage_Session&#45;&gt;\\Horde_Cache_Storage_Base -->
<g id="edge9" class="edge"><title>\\Horde_Cache_Storage_Session&#45;&gt;\\Horde_Cache_Storage_Base</title>
<path fill="none" stroke="black" d="M457.399,-360.056C429.484,-365.459 398.784,-371.401 370.525,-376.871"/>
<polygon fill="none" stroke="black" points="369.792,-373.447 360.64,-378.784 371.122,-380.32 369.792,-373.447"/>
</g>
<!-- \\Horde_Cache_Storage_Apc -->
<g id="node11" class="node"><title>\\Horde_Cache_Storage_Apc</title>
<polygon fill="none" stroke="black" points="637.69,-306 465.69,-306 465.69,-270 637.69,-270 637.69,-306"/>
<text text-anchor="middle" x="551.69" y="-285.2" font-family="Courier,monospace" font-size="11.00">Horde_Cache_Storage_Apc</text>
</g>
<!-- \\Horde_Cache_Storage_Apc&#45;&gt;\\Horde_Cache_Storage_Base -->
<g id="edge10" class="edge"><title>\\Horde_Cache_Storage_Apc&#45;&gt;\\Horde_Cache_Storage_Base</title>
<path fill="none" stroke="black" d="M465.49,-304.775C454.168,-307.769 442.811,-311.175 432.19,-315 389.16,-330.498 342.804,-354.793 311.028,-372.736"/>
<polygon fill="none" stroke="black" points="309.014,-369.856 302.062,-377.85 312.482,-375.936 309.014,-369.856"/>
</g>
<!-- \\Horde_Cache_Storage_Memoryoverlay -->
<g id="node12" class="node"><title>\\Horde_Cache_Storage_Memoryoverlay</title>
<polygon fill="none" stroke="black" points="671.19,-252 432.19,-252 432.19,-216 671.19,-216 671.19,-252"/>
<text text-anchor="middle" x="551.69" y="-231.2" font-family="Courier,monospace" font-size="11.00">Horde_Cache_Storage_Memoryoverlay</text>
</g>
<!-- \\Horde_Cache_Storage_Memoryoverlay&#45;&gt;\\Horde_Cache_Storage_Base -->
<g id="edge11" class="edge"><title>\\Horde_Cache_Storage_Memoryoverlay&#45;&gt;\\Horde_Cache_Storage_Base</title>
<path fill="none" stroke="black" d="M453.629,-252.052C446.223,-254.65 438.991,-257.616 432.19,-261 376.594,-288.661 323.841,-339.382 294.817,-370.162"/>
<polygon fill="none" stroke="black" points="292.211,-367.826 287.963,-377.531 297.336,-372.593 292.211,-367.826"/>
</g>
<!-- \\Horde_Cache_Storage_Memory&#45;&gt;\\Horde_Cache_Storage_Base -->
<g id="edge12" class="edge"><title>\\Horde_Cache_Storage_Memory&#45;&gt;\\Horde_Cache_Storage_Base</title>
<path fill="none" stroke="black" d="M455.455,-396C428.039,-396 398.078,-396 370.454,-396"/>
<polygon fill="none" stroke="black" points="370.391,-392.5 360.391,-396 370.391,-399.5 370.391,-392.5"/>
</g>
<!-- \\Horde_Cache_Storage_Stack -->
<g id="node14" class="node"><title>\\Horde_Cache_Storage_Stack</title>
<polygon fill="none" stroke="black" points="644.19,-198 459.19,-198 459.19,-162 644.19,-162 644.19,-198"/>
<text text-anchor="middle" x="551.69" y="-177.2" font-family="Courier,monospace" font-size="11.00">Horde_Cache_Storage_Stack</text>
</g>
<!-- \\Horde_Cache_Storage_Stack&#45;&gt;\\Horde_Cache_Storage_Base -->
<g id="edge13" class="edge"><title>\\Horde_Cache_Storage_Stack&#45;&gt;\\Horde_Cache_Storage_Base</title>
<path fill="none" stroke="black" d="M459.045,-194.534C449.63,-197.868 440.488,-201.965 432.19,-207 364.616,-248.003 311.409,-327.416 286.723,-369.047"/>
<polygon fill="none" stroke="black" points="283.626,-367.409 281.617,-377.812 289.675,-370.933 283.626,-367.409"/>
</g>
<!-- \\Horde_Cache_Storage_File -->
<g id="node15" class="node"><title>\\Horde_Cache_Storage_File</title>
<polygon fill="none" stroke="black" points="641.19,-144 462.19,-144 462.19,-108 641.19,-108 641.19,-144"/>
<text text-anchor="middle" x="551.69" y="-123.2" font-family="Courier,monospace" font-size="11.00">Horde_Cache_Storage_File</text>
</g>
<!-- \\Horde_Cache_Storage_File&#45;&gt;\\Horde_Cache_Storage_Base -->
<g id="edge14" class="edge"><title>\\Horde_Cache_Storage_File&#45;&gt;\\Horde_Cache_Storage_Base</title>
<path fill="none" stroke="black" d="M462.057,-138.213C451.457,-141.932 441.211,-146.755 432.19,-153 352.3,-208.31 301.904,-317.528 281.744,-368.541"/>
<polygon fill="none" stroke="black" points="278.455,-367.345 278.116,-377.934 284.984,-369.867 278.455,-367.345"/>
</g>
<!-- \\Serializable -->
<g id="node19" class="node"><title>\\Serializable</title>
<ellipse fill="none" stroke="black" cx="54.5952" cy="-396" rx="54.6905" ry="18"/>
<text text-anchor="middle" x="54.5952" y="-392.3" font-family="Times,serif" font-size="14.00" fill="gray">\Serializable</text>
</g>
<!-- \\Horde_Cache_Storage_Base&#45;&gt;\\Serializable -->
<g id="edge15" class="edge"><title>\\Horde_Cache_Storage_Base&#45;&gt;\\Serializable</title>
<path fill="none" stroke="black" stroke-dasharray="1,5" d="M181.064,-396C160.392,-396 138.774,-396 119.422,-396"/>
<polygon fill="none" stroke="black" points="119.225,-392.5 109.225,-396 119.225,-399.5 119.225,-392.5"/>
</g>
<!-- \\Horde_Cache_Storage_Memcache -->
<g id="node17" class="node"><title>\\Horde_Cache_Storage_Memcache</title>
<polygon fill="none" stroke="black" points="654.69,-90 448.69,-90 448.69,-54 654.69,-54 654.69,-90"/>
<text text-anchor="middle" x="551.69" y="-69.2" font-family="Courier,monospace" font-size="11.00">Horde_Cache_Storage_Memcache</text>
</g>
<!-- \\Horde_Cache_Storage_Memcache&#45;&gt;\\Horde_Cache_Storage_Base -->
<g id="edge16" class="edge"><title>\\Horde_Cache_Storage_Memcache&#45;&gt;\\Horde_Cache_Storage_Base</title>
<path fill="none" stroke="black" d="M448.476,-89.0214C442.717,-91.8681 437.231,-95.1707 432.19,-99 339.735,-169.239 294.259,-308.626 278.418,-368.078"/>
<polygon fill="none" stroke="black" points="274.996,-367.332 275.881,-377.89 281.773,-369.084 274.996,-367.332"/>
</g>
</g>
</svg>
