<?xml version="1.0" encoding="UTF-8" standalone="no"?>
<!DOCTYPE svg PUBLIC "-//W3C//DTD SVG 1.1//EN"
 "http://www.w3.org/Graphics/SVG/1.1/DTD/svg11.dtd">
<!-- Generated by graphviz version 2.38.0 (20140413.2041)
 -->
<!-- Title: G Pages: 1 -->
<svg width="552pt" height="1374pt"
 viewBox="0.00 0.00 552.08 1374.00" xmlns="http://www.w3.org/2000/svg" xmlns:xlink="http://www.w3.org/1999/xlink">
<g id="graph0" class="graph" transform="scale(1 1) rotate(0) translate(4 1370)">
<title>G</title>
<polygon fill="white" stroke="none" points="-4,4 -4,-1370 548.08,-1370 548.08,4 -4,4"/>
<g id="clust1" class="cluster"><title>cluster_Global</title>
<path fill="none" stroke="gray" d="M70.0398,-422C70.0398,-422 524.08,-422 524.08,-422 530.08,-422 536.08,-428 536.08,-434 536.08,-434 536.08,-1346 536.08,-1346 536.08,-1352 530.08,-1358 524.08,-1358 524.08,-1358 70.0398,-1358 70.0398,-1358 64.0398,-1358 58.0398,-1352 58.0398,-1346 58.0398,-1346 58.0398,-434 58.0398,-434 58.0398,-428 64.0398,-422 70.0398,-422"/>
<text text-anchor="middle" x="297.06" y="-1345.2" font-family="Times,serif" font-size="11.00" fill="gray">Global</text>
</g>
<!-- \\Agora_Api -->
<g id="node1" class="node"><title>\\Agora_Api</title>
<polygon fill="none" stroke="black" points="453.58,-1222 376.58,-1222 376.58,-1186 453.58,-1186 453.58,-1222"/>
<text text-anchor="middle" x="415.08" y="-1201.2" font-family="Courier,monospace" font-size="11.00">Agora_Api</text>
</g>
<!-- \\Horde_Registry_Api -->
<g id="node19" class="node"><title>\\Horde_Registry_Api</title>
<ellipse fill="none" stroke="black" cx="115.04" cy="-396" rx="87.1846" ry="18"/>
<text text-anchor="middle" x="115.04" y="-392.3" font-family="Times,serif" font-size="14.00" fill="gray">\Horde_Registry_Api</text>
</g>
<!-- \\Agora_Api&#45;&gt;\\Horde_Registry_Api -->
<g id="edge1" class="edge"><title>\\Agora_Api&#45;&gt;\\Horde_Registry_Api</title>
<path fill="none" stroke="black" d="M376.425,-1205.38C351.522,-1204.11 320.229,-1197.93 302.08,-1177 191.078,-1049 343.994,-543.411 230.08,-418 224.503,-411.861 217.774,-407.126 210.408,-403.504"/>
<polygon fill="none" stroke="black" points="211.351,-400.105 200.775,-399.488 208.658,-406.566 211.351,-400.105"/>
</g>
<!-- \\Agora_Tree_Flat -->
<g id="node2" class="node"><title>\\Agora_Tree_Flat</title>
<polygon fill="none" stroke="black" points="474.08,-1168 356.08,-1168 356.08,-1132 474.08,-1132 474.08,-1168"/>
<text text-anchor="middle" x="415.08" y="-1147.2" font-family="Courier,monospace" font-size="11.00">Agora_Tree_Flat</text>
</g>
<!-- \\Horde_Tree_Renderer_Html -->
<g id="node20" class="node"><title>\\Horde_Tree_Renderer_Html</title>
<ellipse fill="none" stroke="black" cx="115.04" cy="-342" rx="115.08" ry="18"/>
<text text-anchor="middle" x="115.04" y="-338.3" font-family="Times,serif" font-size="14.00" fill="gray">\Horde_Tree_Renderer_Html</text>
</g>
<!-- \\Agora_Tree_Flat&#45;&gt;\\Horde_Tree_Renderer_Html -->
<g id="edge2" class="edge"><title>\\Agora_Tree_Flat&#45;&gt;\\Horde_Tree_Renderer_Html</title>
<path fill="none" stroke="black" d="M356.059,-1149.22C336.148,-1145.9 315.516,-1138.48 302.08,-1123 191.763,-995.874 340.655,-495.901 230.08,-369 226.279,-364.638 221.915,-360.912 217.16,-357.734"/>
<polygon fill="none" stroke="black" points="218.63,-354.542 208.217,-352.587 215.139,-360.609 218.63,-354.542"/>
</g>
<!-- \\Agora_Form_Forum -->
<g id="node3" class="node"><title>\\Agora_Form_Forum</title>
<polygon fill="none" stroke="black" points="477.58,-1114 352.58,-1114 352.58,-1078 477.58,-1078 477.58,-1114"/>
<text text-anchor="middle" x="415.08" y="-1093.2" font-family="Courier,monospace" font-size="11.00">Agora_Form_Forum</text>
</g>
<!-- \\Horde_Form -->
<g id="node21" class="node"><title>\\Horde_Form</title>
<ellipse fill="none" stroke="black" cx="115.04" cy="-288" rx="59.2899" ry="18"/>
<text text-anchor="middle" x="115.04" y="-284.3" font-family="Times,serif" font-size="14.00" fill="gray">\Horde_Form</text>
</g>
<!-- \\Agora_Form_Forum&#45;&gt;\\Horde_Form -->
<g id="edge3" class="edge"><title>\\Agora_Form_Forum&#45;&gt;\\Horde_Form</title>
<path fill="none" stroke="black" d="M352.557,-1094.59C333.758,-1091 314.73,-1083.58 302.08,-1069 191.763,-941.874 340.655,-441.901 230.08,-315 218.459,-301.664 201.58,-294.272 184.353,-290.325"/>
<polygon fill="none" stroke="black" points="184.687,-286.825 174.207,-288.38 183.369,-293.7 184.687,-286.825"/>
</g>
<!-- \\Agora_Form_Search -->
<g id="node4" class="node"><title>\\Agora_Form_Search</title>
<polygon fill="none" stroke="black" points="480.58,-1060 349.58,-1060 349.58,-1024 480.58,-1024 480.58,-1060"/>
<text text-anchor="middle" x="415.08" y="-1039.2" font-family="Courier,monospace" font-size="11.00">Agora_Form_Search</text>
</g>
<!-- \\Agora_Form_Search&#45;&gt;\\Horde_Form -->
<g id="edge4" class="edge"><title>\\Agora_Form_Search&#45;&gt;\\Horde_Form</title>
<path fill="none" stroke="black" d="M349.404,-1039.89C331.674,-1036.08 314.059,-1028.7 302.08,-1015 96.2395,-779.535 436.4,-550.045 230.08,-315 218.467,-301.771 201.678,-294.399 184.538,-290.438"/>
<polygon fill="none" stroke="black" points="184.925,-286.948 174.442,-288.481 183.593,-293.82 184.925,-286.948"/>
</g>
<!-- \\Agora_Form_Message -->
<g id="node5" class="node"><title>\\Agora_Form_Message</title>
<polygon fill="none" stroke="black" points="484.08,-1006 346.08,-1006 346.08,-970 484.08,-970 484.08,-1006"/>
<text text-anchor="middle" x="415.08" y="-985.2" font-family="Courier,monospace" font-size="11.00">Agora_Form_Message</text>
</g>
<!-- \\Agora_Form_Message&#45;&gt;\\Horde_Form -->
<g id="edge5" class="edge"><title>\\Agora_Form_Message&#45;&gt;\\Horde_Form</title>
<path fill="none" stroke="black" d="M345.973,-985.023C329.448,-981.013 313.323,-973.752 302.08,-961 111.023,-744.311 421.578,-531.299 230.08,-315 218.411,-301.82 201.604,-294.465 184.464,-290.503"/>
<polygon fill="none" stroke="black" points="184.854,-287.013 174.37,-288.544 183.52,-293.885 184.854,-287.013"/>
</g>
<!-- \\Horde_Form_Renderer_MessageForm -->
<g id="node6" class="node"><title>\\Horde_Form_Renderer_MessageForm</title>
<polygon fill="none" stroke="black" points="528.08,-952 302.08,-952 302.08,-916 528.08,-916 528.08,-952"/>
<text text-anchor="middle" x="415.08" y="-931.2" font-family="Courier,monospace" font-size="11.00">Horde_Form_Renderer_MessageForm</text>
</g>
<!-- \\Horde_Form_Renderer -->
<g id="node22" class="node"><title>\\Horde_Form_Renderer</title>
<ellipse fill="none" stroke="black" cx="115.04" cy="-234" rx="95.5831" ry="18"/>
<text text-anchor="middle" x="115.04" y="-230.3" font-family="Times,serif" font-size="14.00" fill="gray">\Horde_Form_Renderer</text>
</g>
<!-- \\Horde_Form_Renderer_MessageForm&#45;&gt;\\Horde_Form_Renderer -->
<g id="edge6" class="edge"><title>\\Horde_Form_Renderer_MessageForm&#45;&gt;\\Horde_Form_Renderer</title>
<path fill="none" stroke="black" d="M311.713,-915.837C308.227,-913.233 304.99,-910.301 302.08,-907 111.023,-690.311 421.578,-477.299 230.08,-261 224.627,-254.841 218.052,-249.954 210.846,-246.091"/>
<polygon fill="none" stroke="black" points="211.962,-242.751 201.417,-241.726 209.021,-249.103 211.962,-242.751"/>
</g>
<!-- \\Agora_Exception -->
<g id="node7" class="node"><title>\\Agora_Exception</title>
<polygon fill="none" stroke="black" points="474.08,-898 356.08,-898 356.08,-862 474.08,-862 474.08,-898"/>
<text text-anchor="middle" x="415.08" y="-877.2" font-family="Courier,monospace" font-size="11.00">Agora_Exception</text>
</g>
<!-- \\Horde_Exception_Wrapped -->
<g id="node23" class="node"><title>\\Horde_Exception_Wrapped</title>
<ellipse fill="none" stroke="black" cx="115.04" cy="-180" rx="112.38" ry="18"/>
<text text-anchor="middle" x="115.04" y="-176.3" font-family="Times,serif" font-size="14.00" fill="gray">\Horde_Exception_Wrapped</text>
</g>
<!-- \\Agora_Exception&#45;&gt;\\Horde_Exception_Wrapped -->
<g id="edge7" class="edge"><title>\\Agora_Exception&#45;&gt;\\Horde_Exception_Wrapped</title>
<path fill="none" stroke="black" d="M355.9,-879.056C336.093,-875.697 315.572,-868.303 302.08,-853 111.023,-636.311 421.578,-423.299 230.08,-207 226.062,-202.462 221.435,-198.615 216.395,-195.358"/>
<polygon fill="none" stroke="black" points="217.995,-192.243 207.559,-190.419 214.58,-198.353 217.995,-192.243"/>
</g>
<!-- \\Agora_Application -->
<g id="node8" class="node"><title>\\Agora_Application</title>
<polygon fill="none" stroke="black" points="480.58,-844 349.58,-844 349.58,-808 480.58,-808 480.58,-844"/>
<text text-anchor="middle" x="415.08" y="-823.2" font-family="Courier,monospace" font-size="11.00">Agora_Application</text>
</g>
<!-- \\Horde_Registry_Application -->
<g id="node24" class="node"><title>\\Horde_Registry_Application</title>
<ellipse fill="none" stroke="black" cx="115.04" cy="-126" rx="115.08" ry="18"/>
<text text-anchor="middle" x="115.04" y="-122.3" font-family="Times,serif" font-size="14.00" fill="gray">\Horde_Registry_Application</text>
</g>
<!-- \\Agora_Application&#45;&gt;\\Horde_Registry_Application -->
<g id="edge8" class="edge"><title>\\Agora_Application&#45;&gt;\\Horde_Registry_Application</title>
<path fill="none" stroke="black" d="M349.476,-823.824C331.749,-820.01 314.117,-812.652 302.08,-799 111.023,-582.311 421.578,-369.299 230.08,-153 226.244,-148.668 221.854,-144.965 217.079,-141.805"/>
<polygon fill="none" stroke="black" points="218.526,-138.601 208.106,-136.685 215.057,-144.681 218.526,-138.601"/>
</g>
<!-- \\Agora_View -->
<g id="node9" class="node"><title>\\Agora_View</title>
<polygon fill="none" stroke="black" points="457.08,-790 373.08,-790 373.08,-754 457.08,-754 457.08,-790"/>
<text text-anchor="middle" x="415.08" y="-769.2" font-family="Courier,monospace" font-size="11.00">Agora_View</text>
</g>
<!-- \\Horde_View -->
<g id="node25" class="node"><title>\\Horde_View</title>
<ellipse fill="none" stroke="black" cx="115.04" cy="-72" rx="58.4896" ry="18"/>
<text text-anchor="middle" x="115.04" y="-68.3" font-family="Times,serif" font-size="14.00" fill="gray">\Horde_View</text>
</g>
<!-- \\Agora_View&#45;&gt;\\Horde_View -->
<g id="edge9" class="edge"><title>\\Agora_View&#45;&gt;\\Horde_View</title>
<path fill="none" stroke="black" d="M372.994,-773.071C348.772,-771.363 319.541,-764.803 302.08,-745 111.023,-528.311 421.578,-315.299 230.08,-99 218.298,-85.6927 201.278,-78.3233 183.967,-74.3889"/>
<polygon fill="none" stroke="black" points="184.256,-70.8811 173.778,-72.4503 182.948,-77.7578 184.256,-70.8811"/>
</g>
<!-- \\Agora_Driver_SplitSql -->
<g id="node10" class="node"><title>\\Agora_Driver_SplitSql</title>
<polygon fill="none" stroke="black" points="494.08,-1330 336.08,-1330 336.08,-1294 494.08,-1294 494.08,-1330"/>
<text text-anchor="middle" x="415.08" y="-1309.2" font-family="Courier,monospace" font-size="11.00">Agora_Driver_SplitSql</text>
</g>
<!-- \\Agora_Driver -->
<g id="node13" class="node"><title>\\Agora_Driver</title>
<polygon fill="none" stroke="black" points="164.04,-1303 66.0398,-1303 66.0398,-1267 164.04,-1267 164.04,-1303"/>
<text text-anchor="middle" x="115.04" y="-1282.2" font-family="Courier,monospace" font-size="11.00">Agora_Driver</text>
</g>
<!-- \\Agora_Driver_SplitSql&#45;&gt;\\Agora_Driver -->
<g id="edge10" class="edge"><title>\\Agora_Driver_SplitSql&#45;&gt;\\Agora_Driver</title>
<path fill="none" stroke="black" d="M335.773,-1304.91C285.265,-1300.33 220.649,-1294.48 174.587,-1290.3"/>
<polygon fill="none" stroke="black" points="174.744,-1286.8 164.469,-1289.39 174.112,-1293.78 174.744,-1286.8"/>
</g>
<!-- \\Agora_Driver_Sql -->
<g id="node11" class="node"><title>\\Agora_Driver_Sql</title>
<polygon fill="none" stroke="black" points="477.58,-1276 352.58,-1276 352.58,-1240 477.58,-1240 477.58,-1276"/>
<text text-anchor="middle" x="415.08" y="-1255.2" font-family="Courier,monospace" font-size="11.00">Agora_Driver_Sql</text>
</g>
<!-- \\Agora_Driver_Sql&#45;&gt;\\Agora_Driver -->
<g id="edge11" class="edge"><title>\\Agora_Driver_Sql&#45;&gt;\\Agora_Driver</title>
<path fill="none" stroke="black" d="M352.326,-1263.59C300.165,-1268.32 225.979,-1275.04 174.711,-1279.68"/>
<polygon fill="none" stroke="black" points="174.099,-1276.23 164.456,-1280.61 174.731,-1283.2 174.099,-1276.23"/>
</g>
<!-- \\Agora_ViewComments -->
<g id="node12" class="node"><title>\\Agora_ViewComments</title>
<polygon fill="none" stroke="black" points="484.08,-736 346.08,-736 346.08,-700 484.08,-700 484.08,-736"/>
<text text-anchor="middle" x="415.08" y="-715.2" font-family="Courier,monospace" font-size="11.00">Agora_ViewComments</text>
</g>
<!-- \\Agora -->
<g id="node14" class="node"><title>\\Agora</title>
<polygon fill="none" stroke="black" points="442.08,-682 388.08,-682 388.08,-646 442.08,-646 442.08,-682"/>
<text text-anchor="middle" x="415.08" y="-661.2" font-family="Courier,monospace" font-size="11.00">Agora</text>
</g>
<!-- \\Agora_Factory_Driver -->
<g id="node15" class="node"><title>\\Agora_Factory_Driver</title>
<polygon fill="none" stroke="black" points="491.08,-628 339.08,-628 339.08,-592 491.08,-592 491.08,-628"/>
<text text-anchor="middle" x="415.08" y="-607.2" font-family="Courier,monospace" font-size="11.00">Agora_Factory_Driver</text>
</g>
<!-- \\Agora_Block_Thread -->
<g id="node16" class="node"><title>\\Agora_Block_Thread</title>
<polygon fill="none" stroke="black" points="484.08,-574 346.08,-574 346.08,-538 484.08,-538 484.08,-574"/>
<text text-anchor="middle" x="415.08" y="-553.2" font-family="Courier,monospace" font-size="11.00">Agora_Block_Thread</text>
</g>
<!-- \\Horde_Core_Block -->
<g id="node26" class="node"><title>\\Horde_Core_Block</title>
<ellipse fill="none" stroke="black" cx="115.04" cy="-18" rx="81.7856" ry="18"/>
<text text-anchor="middle" x="115.04" y="-14.3" font-family="Times,serif" font-size="14.00" fill="gray">\Horde_Core_Block</text>
</g>
<!-- \\Agora_Block_Thread&#45;&gt;\\Horde_Core_Block -->
<g id="edge12" class="edge"><title>\\Agora_Block_Thread&#45;&gt;\\Horde_Core_Block</title>
<path fill="none" stroke="black" d="M345.992,-552.673C329.567,-548.65 313.488,-541.47 302.08,-529 155.283,-368.54 377.203,-205.161 230.08,-45 222.65,-36.9124 213.284,-31.0349 203.128,-26.7951"/>
<polygon fill="none" stroke="black" points="204.206,-23.4631 193.612,-23.3455 201.82,-30.0441 204.206,-23.4631"/>
</g>
<!-- \\Agora_Block_Forums -->
<g id="node17" class="node"><title>\\Agora_Block_Forums</title>
<polygon fill="none" stroke="black" points="484.08,-520 346.08,-520 346.08,-484 484.08,-484 484.08,-520"/>
<text text-anchor="middle" x="415.08" y="-499.2" font-family="Courier,monospace" font-size="11.00">Agora_Block_Forums</text>
</g>
<!-- \\Agora_Block_Forums&#45;&gt;\\Horde_Core_Block -->
<g id="edge13" class="edge"><title>\\Agora_Block_Forums&#45;&gt;\\Horde_Core_Block</title>
<path fill="none" stroke="black" d="M345.852,-498.46C329.528,-494.425 313.533,-487.292 302.08,-475 169.987,-333.229 362.461,-186.502 230.08,-45 222.577,-36.9804 213.168,-31.1423 202.991,-26.9222"/>
<polygon fill="none" stroke="black" points="204.055,-23.5855 193.461,-23.4855 201.681,-30.1704 204.055,-23.5855"/>
</g>
<!-- \\Agora_Block_Threads -->
<g id="node18" class="node"><title>\\Agora_Block_Threads</title>
<polygon fill="none" stroke="black" points="487.58,-466 342.58,-466 342.58,-430 487.58,-430 487.58,-466"/>
<text text-anchor="middle" x="415.08" y="-445.2" font-family="Courier,monospace" font-size="11.00">Agora_Block_Threads</text>
</g>
<!-- \\Agora_Block_Threads&#45;&gt;\\Horde_Core_Block -->
<g id="edge14" class="edge"><title>\\Agora_Block_Threads&#45;&gt;\\Horde_Core_Block</title>
<path fill="none" stroke="black" d="M411.481,-429.725C401.392,-365.84 358.771,-150.67 230.08,-45 221.262,-37.76 210.836,-32.3963 199.929,-28.4343"/>
<polygon fill="none" stroke="black" points="200.841,-25.0506 190.249,-25.3014 198.685,-31.7105 200.841,-25.0506"/>
</g>
</g>
</svg>
