<?xml version="1.0" encoding="UTF-8" standalone="no"?>
<!DOCTYPE svg PUBLIC "-//W3C//DTD SVG 1.1//EN"
 "http://www.w3.org/Graphics/SVG/1.1/DTD/svg11.dtd">
<!-- Generated by graphviz version 2.38.0 (20140413.2041)
 -->
<!-- Title: G Pages: 1 -->
<svg width="409pt" height="186pt"
 viewBox="0.00 0.00 409.00 186.00" xmlns="http://www.w3.org/2000/svg" xmlns:xlink="http://www.w3.org/1999/xlink">
<g id="graph0" class="graph" transform="scale(1 1) rotate(0) translate(4 182)">
<title>G</title>
<polygon fill="white" stroke="none" points="-4,4 -4,-182 405,-182 405,4 -4,4"/>
<g id="clust1" class="cluster"><title>cluster_Global</title>
<path fill="none" stroke="gray" d="M20,-44C20,-44 381,-44 381,-44 387,-44 393,-50 393,-56 393,-56 393,-158 393,-158 393,-164 387,-170 381,-170 381,-170 20,-170 20,-170 14,-170 8,-164 8,-158 8,-158 8,-56 8,-56 8,-50 14,-44 20,-44"/>
<text text-anchor="middle" x="200.5" y="-157.2" font-family="Times,serif" font-size="11.00" fill="gray">Global</text>
</g>
<!-- \\Horde_Lens -->
<g id="node1" class="node"><title>\\Horde_Lens</title>
<polygon fill="none" stroke="black" points="354.5,-142 270.5,-142 270.5,-106 354.5,-106 354.5,-142"/>
<text text-anchor="middle" x="312.5" y="-121.2" font-family="Courier,monospace" font-size="11.00">Horde_Lens</text>
</g>
<!-- \\Horde_Lens_Interface -->
<g id="node3" class="node"><title>\\Horde_Lens_Interface</title>
<polygon fill="none" stroke="black" points="168,-142 16,-142 16,-106 168,-106 168,-142"/>
<text text-anchor="middle" x="92" y="-121.2" font-family="Courier,monospace" font-size="11.00">Horde_Lens_Interface</text>
</g>
<!-- \\Horde_Lens&#45;&gt;\\Horde_Lens_Interface -->
<g id="edge1" class="edge"><title>\\Horde_Lens&#45;&gt;\\Horde_Lens_Interface</title>
<path fill="none" stroke="black" stroke-dasharray="1,5" d="M270.402,-124C244.522,-124 210.148,-124 178.552,-124"/>
<polygon fill="none" stroke="black" points="178.406,-120.5 168.406,-124 178.406,-127.5 178.406,-120.5"/>
</g>
<!-- \\Horde_Lens_Iterator -->
<g id="node2" class="node"><title>\\Horde_Lens_Iterator</title>
<polygon fill="none" stroke="black" points="385,-88 240,-88 240,-52 385,-52 385,-88"/>
<text text-anchor="middle" x="312.5" y="-67.2" font-family="Courier,monospace" font-size="11.00">Horde_Lens_Iterator</text>
</g>
<!-- \\OuterIterator -->
<g id="node4" class="node"><title>\\OuterIterator</title>
<ellipse fill="none" stroke="black" cx="92" cy="-18" rx="59.2899" ry="18"/>
<text text-anchor="middle" x="92" y="-14.3" font-family="Times,serif" font-size="14.00" fill="gray">\OuterIterator</text>
</g>
<!-- \\Horde_Lens_Iterator&#45;&gt;\\OuterIterator -->
<g id="edge2" class="edge"><title>\\Horde_Lens_Iterator&#45;&gt;\\OuterIterator</title>
<path fill="none" stroke="black" stroke-dasharray="1,5" d="M239.955,-52.9733C210.469,-45.9561 176.807,-37.945 149.147,-31.3622"/>
<polygon fill="none" stroke="black" points="149.785,-27.9164 139.246,-29.006 148.164,-34.7262 149.785,-27.9164"/>
</g>
</g>
</svg>
