<?xml version="1.0" encoding="UTF-8" standalone="no"?>
<!DOCTYPE svg PUBLIC "-//W3C//DTD SVG 1.1//EN"
 "http://www.w3.org/Graphics/SVG/1.1/DTD/svg11.dtd">
<!-- Generated by graphviz version 2.38.0 (20140413.2041)
 -->
<!-- Title: G Pages: 1 -->
<svg width="792pt" height="944pt"
 viewBox="0.00 0.00 792.38 944.00" xmlns="http://www.w3.org/2000/svg" xmlns:xlink="http://www.w3.org/1999/xlink">
<g id="graph0" class="graph" transform="scale(1 1) rotate(0) translate(4 940)">
<title>G</title>
<polygon fill="white" stroke="none" points="-4,4 -4,-940 788.378,-940 788.378,4 -4,4"/>
<g id="clust1" class="cluster"><title>cluster_Global</title>
<path fill="none" stroke="gray" d="M20,-154C20,-154 764.378,-154 764.378,-154 770.378,-154 776.378,-160 776.378,-166 776.378,-166 776.378,-916 776.378,-916 776.378,-922 770.378,-928 764.378,-928 764.378,-928 20,-928 20,-928 14,-928 8,-922 8,-916 8,-916 8,-166 8,-166 8,-160 14,-154 20,-154"/>
<text text-anchor="middle" x="392.189" y="-915.2" font-family="Times,serif" font-size="11.00" fill="gray">Global</text>
</g>
<!-- \\Horde_Date -->
<g id="node1" class="node"><title>\\Horde_Date</title>
<polygon fill="none" stroke="black" points="700.878,-859 616.878,-859 616.878,-823 700.878,-823 700.878,-859"/>
<text text-anchor="middle" x="658.878" y="-838.2" font-family="Courier,monospace" font-size="11.00">Horde_Date</text>
</g>
<!-- \\Horde_Date_Span -->
<g id="node2" class="node"><title>\\Horde_Date_Span</title>
<polygon fill="none" stroke="black" points="717.878,-765 599.878,-765 599.878,-729 717.878,-729 717.878,-765"/>
<text text-anchor="middle" x="658.878" y="-744.2" font-family="Courier,monospace" font-size="11.00">Horde_Date_Span</text>
</g>
<!-- \\Horde_Date_Exception -->
<g id="node3" class="node"><title>\\Horde_Date_Exception</title>
<polygon fill="none" stroke="black" points="734.878,-360 582.878,-360 582.878,-324 734.878,-324 734.878,-360"/>
<text text-anchor="middle" x="658.878" y="-339.2" font-family="Courier,monospace" font-size="11.00">Horde_Date_Exception</text>
</g>
<!-- \\Horde_Exception_Wrapped -->
<g id="node24" class="node"><title>\\Horde_Exception_Wrapped</title>
<ellipse fill="none" stroke="black" cx="355.189" cy="-126" rx="112.38" ry="18"/>
<text text-anchor="middle" x="355.189" y="-122.3" font-family="Times,serif" font-size="14.00" fill="gray">\Horde_Exception_Wrapped</text>
</g>
<!-- \\Horde_Date_Exception&#45;&gt;\\Horde_Exception_Wrapped -->
<g id="edge1" class="edge"><title>\\Horde_Date_Exception&#45;&gt;\\Horde_Exception_Wrapped</title>
<path fill="none" stroke="black" d="M582.624,-332.844C570.573,-328.804 558.941,-323.081 549.378,-315 488.266,-263.357 539.722,-200.15 477.378,-150 472.333,-145.942 466.793,-142.507 460.944,-139.605"/>
<polygon fill="none" stroke="black" points="462.09,-136.285 451.526,-135.47 459.276,-142.695 462.09,-136.285"/>
</g>
<!-- \\Horde_Date_Utils -->
<g id="node4" class="node"><title>\\Horde_Date_Utils</title>
<polygon fill="none" stroke="black" points="721.378,-495 596.378,-495 596.378,-459 721.378,-459 721.378,-495"/>
<text text-anchor="middle" x="658.878" y="-474.2" font-family="Courier,monospace" font-size="11.00">Horde_Date_Utils</text>
</g>
<!-- \\Horde_Date_Repeater_MonthName -->
<g id="node5" class="node"><title>\\Horde_Date_Repeater_MonthName</title>
<polygon fill="none" stroke="black" points="461.189,-900 249.189,-900 249.189,-864 461.189,-864 461.189,-900"/>
<text text-anchor="middle" x="355.189" y="-879.2" font-family="Courier,monospace" font-size="11.00">Horde_Date_Repeater_MonthName</text>
</g>
<!-- \\Horde_Date_Repeater -->
<g id="node23" class="node"><title>\\Horde_Date_Repeater</title>
<polygon fill="none" stroke="black" points="161,-549 16,-549 16,-513 161,-513 161,-549"/>
<text text-anchor="start" x="54.5" y="-534.2" font-family="Courier,monospace" font-size="11.00">«abstract»</text>
<text text-anchor="start" x="24" y="-522.2" font-family="Courier,monospace" font-size="11.00">Horde_Date_Repeater</text>
</g>
<!-- \\Horde_Date_Repeater_MonthName&#45;&gt;\\Horde_Date_Repeater -->
<g id="edge2" class="edge"><title>\\Horde_Date_Repeater_MonthName&#45;&gt;\\Horde_Date_Repeater</title>
<path fill="none" stroke="black" d="M249.007,-865.459C243.312,-862.491 237.918,-859.031 233,-855 137.642,-776.851 103.642,-622.5 93.3718,-559.146"/>
<polygon fill="none" stroke="black" points="96.8052,-558.446 91.8204,-549.097 89.8872,-559.514 96.8052,-558.446"/>
</g>
<!-- \\Horde_Date_Repeater_Time -->
<g id="node6" class="node"><title>\\Horde_Date_Repeater_Time</title>
<polygon fill="none" stroke="black" points="444.689,-846 265.689,-846 265.689,-810 444.689,-810 444.689,-846"/>
<text text-anchor="middle" x="355.189" y="-825.2" font-family="Courier,monospace" font-size="11.00">Horde_Date_Repeater_Time</text>
</g>
<!-- \\Horde_Date_Repeater_Time&#45;&gt;\\Horde_Date_Repeater -->
<g id="edge3" class="edge"><title>\\Horde_Date_Repeater_Time&#45;&gt;\\Horde_Date_Repeater</title>
<path fill="none" stroke="black" d="M265.446,-817.7C253.806,-813.718 242.604,-808.312 233,-801 150.668,-738.313 110.516,-614.539 96.0456,-559.057"/>
<polygon fill="none" stroke="black" points="99.4028,-558.056 93.5634,-549.216 92.6154,-559.768 99.4028,-558.056"/>
</g>
<!-- \\Horde_Date_Repeater_Exception -->
<g id="node7" class="node"><title>\\Horde_Date_Repeater_Exception</title>
<polygon fill="none" stroke="black" points="764.878,-306 552.878,-306 552.878,-270 764.878,-270 764.878,-306"/>
<text text-anchor="middle" x="658.878" y="-285.2" font-family="Courier,monospace" font-size="11.00">Horde_Date_Repeater_Exception</text>
</g>
<!-- \\Exception -->
<g id="node25" class="node"><title>\\Exception</title>
<ellipse fill="none" stroke="black" cx="355.189" cy="-72" rx="48.9926" ry="18"/>
<text text-anchor="middle" x="355.189" y="-68.3" font-family="Times,serif" font-size="14.00" fill="gray">\Exception</text>
</g>
<!-- \\Horde_Date_Repeater_Exception&#45;&gt;\\Exception -->
<g id="edge4" class="edge"><title>\\Horde_Date_Repeater_Exception&#45;&gt;\\Exception</title>
<path fill="none" stroke="black" d="M562.382,-269.926C557.767,-267.328 553.393,-264.369 549.378,-261 489.026,-210.348 538.351,-148.903 477.378,-99 459.738,-84.5622 435.991,-77.4452 414.194,-74.0645"/>
<polygon fill="none" stroke="black" points="414.387,-70.5599 404.016,-72.7252 413.474,-77.5001 414.387,-70.5599"/>
</g>
<!-- \\Horde_Date_Repeater_Minute -->
<g id="node8" class="node"><title>\\Horde_Date_Repeater_Minute</title>
<polygon fill="none" stroke="black" points="451.189,-792 259.189,-792 259.189,-756 451.189,-756 451.189,-792"/>
<text text-anchor="middle" x="355.189" y="-771.2" font-family="Courier,monospace" font-size="11.00">Horde_Date_Repeater_Minute</text>
</g>
<!-- \\Horde_Date_Repeater_Minute&#45;&gt;\\Horde_Date_Repeater -->
<g id="edge5" class="edge"><title>\\Horde_Date_Repeater_Minute&#45;&gt;\\Horde_Date_Repeater</title>
<path fill="none" stroke="black" d="M258.904,-760.284C249.727,-756.789 240.907,-752.43 233,-747 163.332,-699.153 118.675,-605.328 99.8101,-558.686"/>
<polygon fill="none" stroke="black" points="103,-557.235 96.0745,-549.218 96.4889,-559.804 103,-557.235"/>
</g>
<!-- \\Horde_Date_Repeater_Year -->
<g id="node9" class="node"><title>\\Horde_Date_Repeater_Year</title>
<polygon fill="none" stroke="black" points="444.689,-738 265.689,-738 265.689,-702 444.689,-702 444.689,-738"/>
<text text-anchor="middle" x="355.189" y="-717.2" font-family="Courier,monospace" font-size="11.00">Horde_Date_Repeater_Year</text>
</g>
<!-- \\Horde_Date_Repeater_Year&#45;&gt;\\Horde_Date_Repeater -->
<g id="edge6" class="edge"><title>\\Horde_Date_Repeater_Year&#45;&gt;\\Horde_Date_Repeater</title>
<path fill="none" stroke="black" d="M265.633,-707.136C254.218,-703.528 243.028,-698.91 233,-693 175.557,-659.147 128.797,-594.381 105.512,-557.828"/>
<polygon fill="none" stroke="black" points="108.374,-555.804 100.106,-549.179 102.438,-559.514 108.374,-555.804"/>
</g>
<!-- \\Horde_Date_Repeater_Week -->
<g id="node10" class="node"><title>\\Horde_Date_Repeater_Week</title>
<polygon fill="none" stroke="black" points="444.689,-684 265.689,-684 265.689,-648 444.689,-648 444.689,-684"/>
<text text-anchor="middle" x="355.189" y="-663.2" font-family="Courier,monospace" font-size="11.00">Horde_Date_Repeater_Week</text>
</g>
<!-- \\Horde_Date_Repeater_Week&#45;&gt;\\Horde_Date_Repeater -->
<g id="edge7" class="edge"><title>\\Horde_Date_Repeater_Week&#45;&gt;\\Horde_Date_Repeater</title>
<path fill="none" stroke="black" d="M265.681,-650.927C254.434,-647.672 243.276,-643.74 233,-639 187.645,-618.079 142.864,-581.053 115.697,-556.269"/>
<polygon fill="none" stroke="black" points="117.9,-553.539 108.183,-549.315 113.145,-558.676 117.9,-553.539"/>
</g>
<!-- \\Horde_Date_Repeater_SeasonName -->
<g id="node11" class="node"><title>\\Horde_Date_Repeater_SeasonName</title>
<polygon fill="none" stroke="black" points="768.378,-630 549.378,-630 549.378,-594 768.378,-594 768.378,-630"/>
<text text-anchor="middle" x="658.878" y="-609.2" font-family="Courier,monospace" font-size="11.00">Horde_Date_Repeater_SeasonName</text>
</g>
<!-- \\Horde_Date_Repeater_Season -->
<g id="node17" class="node"><title>\\Horde_Date_Repeater_Season</title>
<polygon fill="none" stroke="black" points="451.189,-630 259.189,-630 259.189,-594 451.189,-594 451.189,-630"/>
<text text-anchor="middle" x="355.189" y="-609.2" font-family="Courier,monospace" font-size="11.00">Horde_Date_Repeater_Season</text>
</g>
<!-- \\Horde_Date_Repeater_SeasonName&#45;&gt;\\Horde_Date_Repeater_Season -->
<g id="edge8" class="edge"><title>\\Horde_Date_Repeater_SeasonName&#45;&gt;\\Horde_Date_Repeater_Season</title>
<path fill="none" stroke="black" d="M548.962,-612C520.551,-612 489.985,-612 461.752,-612"/>
<polygon fill="none" stroke="black" points="461.464,-608.5 451.464,-612 461.464,-615.5 461.464,-608.5"/>
</g>
<!-- \\Horde_Date_Repeater_Fortnight -->
<g id="node12" class="node"><title>\\Horde_Date_Repeater_Fortnight</title>
<polygon fill="none" stroke="black" points="461.189,-576 249.189,-576 249.189,-540 461.189,-540 461.189,-576"/>
<text text-anchor="middle" x="355.189" y="-555.2" font-family="Courier,monospace" font-size="11.00">Horde_Date_Repeater_Fortnight</text>
</g>
<!-- \\Horde_Date_Repeater_Fortnight&#45;&gt;\\Horde_Date_Repeater -->
<g id="edge9" class="edge"><title>\\Horde_Date_Repeater_Fortnight&#45;&gt;\\Horde_Date_Repeater</title>
<path fill="none" stroke="black" d="M248.816,-547.251C222.968,-544.615 195.686,-541.832 171.144,-539.328"/>
<polygon fill="none" stroke="black" points="171.47,-535.843 161.167,-538.31 170.76,-542.807 171.47,-535.843"/>
</g>
<!-- \\Horde_Date_Repeater_Day -->
<g id="node13" class="node"><title>\\Horde_Date_Repeater_Day</title>
<polygon fill="none" stroke="black" points="441.189,-522 269.189,-522 269.189,-486 441.189,-486 441.189,-522"/>
<text text-anchor="middle" x="355.189" y="-501.2" font-family="Courier,monospace" font-size="11.00">Horde_Date_Repeater_Day</text>
</g>
<!-- \\Horde_Date_Repeater_Day&#45;&gt;\\Horde_Date_Repeater -->
<g id="edge10" class="edge"><title>\\Horde_Date_Repeater_Day&#45;&gt;\\Horde_Date_Repeater</title>
<path fill="none" stroke="black" d="M268.983,-512.692C237.754,-515.877 202.497,-519.474 171.55,-522.63"/>
<polygon fill="none" stroke="black" points="170.825,-519.186 161.232,-523.683 171.536,-526.15 170.825,-519.186"/>
</g>
<!-- \\Horde_Date_Repeater_Month -->
<g id="node14" class="node"><title>\\Horde_Date_Repeater_Month</title>
<polygon fill="none" stroke="black" points="447.689,-468 262.689,-468 262.689,-432 447.689,-432 447.689,-468"/>
<text text-anchor="middle" x="355.189" y="-447.2" font-family="Courier,monospace" font-size="11.00">Horde_Date_Repeater_Month</text>
</g>
<!-- \\Horde_Date_Repeater_Month&#45;&gt;\\Horde_Date_Repeater -->
<g id="edge11" class="edge"><title>\\Horde_Date_Repeater_Month&#45;&gt;\\Horde_Date_Repeater</title>
<path fill="none" stroke="black" d="M266.434,-468.013C255.121,-470.785 243.742,-473.799 233,-477 202.441,-486.105 169.061,-498.512 142.191,-509.138"/>
<polygon fill="none" stroke="black" points="140.594,-506.007 132.603,-512.963 143.188,-512.509 140.594,-506.007"/>
</g>
<!-- \\Horde_Date_Repeater_DayName -->
<g id="node15" class="node"><title>\\Horde_Date_Repeater_DayName</title>
<polygon fill="none" stroke="black" points="454.689,-414 255.689,-414 255.689,-378 454.689,-378 454.689,-414"/>
<text text-anchor="middle" x="355.189" y="-393.2" font-family="Courier,monospace" font-size="11.00">Horde_Date_Repeater_DayName</text>
</g>
<!-- \\Horde_Date_Repeater_DayName&#45;&gt;\\Horde_Date_Repeater -->
<g id="edge12" class="edge"><title>\\Horde_Date_Repeater_DayName&#45;&gt;\\Horde_Date_Repeater</title>
<path fill="none" stroke="black" d="M256.081,-414.032C248.13,-416.641 240.34,-419.614 233,-423 187.645,-443.921 142.864,-480.947 115.697,-505.731"/>
<polygon fill="none" stroke="black" points="113.145,-503.324 108.183,-512.685 117.9,-508.461 113.145,-503.324"/>
</g>
<!-- \\Horde_Date_Repeater_Hour -->
<g id="node16" class="node"><title>\\Horde_Date_Repeater_Hour</title>
<polygon fill="none" stroke="black" points="444.689,-360 265.689,-360 265.689,-324 444.689,-324 444.689,-360"/>
<text text-anchor="middle" x="355.189" y="-339.2" font-family="Courier,monospace" font-size="11.00">Horde_Date_Repeater_Hour</text>
</g>
<!-- \\Horde_Date_Repeater_Hour&#45;&gt;\\Horde_Date_Repeater -->
<g id="edge13" class="edge"><title>\\Horde_Date_Repeater_Hour&#45;&gt;\\Horde_Date_Repeater</title>
<path fill="none" stroke="black" d="M265.633,-354.864C254.218,-358.472 243.028,-363.09 233,-369 175.557,-402.853 128.797,-467.619 105.512,-504.172"/>
<polygon fill="none" stroke="black" points="102.438,-502.486 100.106,-512.821 108.374,-506.196 102.438,-502.486"/>
</g>
<!-- \\Horde_Date_Repeater_Season&#45;&gt;\\Horde_Date_Repeater -->
<g id="edge14" class="edge"><title>\\Horde_Date_Repeater_Season&#45;&gt;\\Horde_Date_Repeater</title>
<path fill="none" stroke="black" d="M266.434,-593.987C255.121,-591.215 243.742,-588.201 233,-585 202.441,-575.895 169.061,-563.488 142.191,-552.862"/>
<polygon fill="none" stroke="black" points="143.188,-549.491 132.603,-549.037 140.594,-555.993 143.188,-549.491"/>
</g>
<!-- \\Horde_Date_Repeater_DayPortion -->
<g id="node18" class="node"><title>\\Horde_Date_Repeater_DayPortion</title>
<polygon fill="none" stroke="black" points="464.689,-306 245.689,-306 245.689,-270 464.689,-270 464.689,-306"/>
<text text-anchor="middle" x="355.189" y="-285.2" font-family="Courier,monospace" font-size="11.00">Horde_Date_Repeater_DayPortion</text>
</g>
<!-- \\Horde_Date_Repeater_DayPortion&#45;&gt;\\Horde_Date_Repeater -->
<g id="edge15" class="edge"><title>\\Horde_Date_Repeater_DayPortion&#45;&gt;\\Horde_Date_Repeater</title>
<path fill="none" stroke="black" d="M248.574,-306.111C243.121,-308.698 237.886,-311.644 233,-315 163.332,-362.847 118.675,-456.672 99.8101,-503.314"/>
<polygon fill="none" stroke="black" points="96.4889,-502.196 96.0745,-512.782 103,-504.765 96.4889,-502.196"/>
</g>
<!-- \\Horde_Date_Repeater_Weekend -->
<g id="node19" class="node"><title>\\Horde_Date_Repeater_Weekend</title>
<polygon fill="none" stroke="black" points="454.689,-252 255.689,-252 255.689,-216 454.689,-216 454.689,-252"/>
<text text-anchor="middle" x="355.189" y="-231.2" font-family="Courier,monospace" font-size="11.00">Horde_Date_Repeater_Weekend</text>
</g>
<!-- \\Horde_Date_Repeater_Weekend&#45;&gt;\\Horde_Date_Repeater -->
<g id="edge16" class="edge"><title>\\Horde_Date_Repeater_Weekend&#45;&gt;\\Horde_Date_Repeater</title>
<path fill="none" stroke="black" d="M255.603,-248.073C247.535,-251.527 239.86,-255.777 233,-261 150.668,-323.687 110.516,-447.461 96.0456,-502.943"/>
<polygon fill="none" stroke="black" points="92.6154,-502.232 93.5634,-512.784 99.4028,-503.944 92.6154,-502.232"/>
</g>
<!-- \\Horde_Date_Repeater_Second -->
<g id="node20" class="node"><title>\\Horde_Date_Repeater_Second</title>
<polygon fill="none" stroke="black" points="451.189,-198 259.189,-198 259.189,-162 451.189,-162 451.189,-198"/>
<text text-anchor="middle" x="355.189" y="-177.2" font-family="Courier,monospace" font-size="11.00">Horde_Date_Repeater_Second</text>
</g>
<!-- \\Horde_Date_Repeater_Second&#45;&gt;\\Horde_Date_Repeater -->
<g id="edge17" class="edge"><title>\\Horde_Date_Repeater_Second&#45;&gt;\\Horde_Date_Repeater</title>
<path fill="none" stroke="black" d="M259.119,-191.886C249.687,-195.71 240.753,-200.647 233,-207 137.642,-285.149 103.642,-439.5 93.3718,-502.854"/>
<polygon fill="none" stroke="black" points="89.8872,-502.486 91.8204,-512.903 96.8052,-503.554 89.8872,-502.486"/>
</g>
<!-- \\Horde_Date_Recurrence -->
<g id="node21" class="node"><title>\\Horde_Date_Recurrence</title>
<polygon fill="none" stroke="black" points="737.878,-252 579.878,-252 579.878,-216 737.878,-216 737.878,-252"/>
<text text-anchor="middle" x="658.878" y="-231.2" font-family="Courier,monospace" font-size="11.00">Horde_Date_Recurrence</text>
</g>
<!-- \\Horde_Date_Translation -->
<g id="node22" class="node"><title>\\Horde_Date_Translation</title>
<polygon fill="none" stroke="black" points="741.378,-198 576.378,-198 576.378,-162 741.378,-162 741.378,-198"/>
<text text-anchor="middle" x="658.878" y="-177.2" font-family="Courier,monospace" font-size="11.00">Horde_Date_Translation</text>
</g>
<!-- \\Horde_Translation_Autodetect -->
<g id="node26" class="node"><title>\\Horde_Translation_Autodetect</title>
<ellipse fill="none" stroke="black" cx="355.189" cy="-18" rx="122.379" ry="18"/>
<text text-anchor="middle" x="355.189" y="-14.3" font-family="Times,serif" font-size="14.00" fill="gray">\Horde_Translation_Autodetect</text>
</g>
<!-- \\Horde_Date_Translation&#45;&gt;\\Horde_Translation_Autodetect -->
<g id="edge18" class="edge"><title>\\Horde_Date_Translation&#45;&gt;\\Horde_Translation_Autodetect</title>
<path fill="none" stroke="black" d="M639.108,-161.582C608.13,-132.266 543.161,-75.2245 477.378,-45 468.101,-40.7376 458.109,-37.1281 447.983,-34.076"/>
<polygon fill="none" stroke="black" points="448.828,-30.6778 438.253,-31.3173 446.919,-37.4124 448.828,-30.6778"/>
</g>
</g>
</svg>
