<?xml version="1.0" encoding="UTF-8" standalone="no"?>
<!DOCTYPE svg PUBLIC "-//W3C//DTD SVG 1.1//EN"
 "http://www.w3.org/Graphics/SVG/1.1/DTD/svg11.dtd">
<!-- Generated by graphviz version 2.38.0 (20140413.2041)
 -->
<!-- Title: G Pages: 1 -->
<svg width="490pt" height="312pt"
 viewBox="0.00 0.00 489.89 312.00" xmlns="http://www.w3.org/2000/svg" xmlns:xlink="http://www.w3.org/1999/xlink">
<g id="graph0" class="graph" transform="scale(1 1) rotate(0) translate(4 308)">
<title>G</title>
<polygon fill="white" stroke="none" points="-4,4 -4,-308 485.888,-308 485.888,4 -4,4"/>
<g id="clust1" class="cluster"><title>cluster_Global</title>
<path fill="none" stroke="gray" d="M209.888,-8C209.888,-8 461.888,-8 461.888,-8 467.888,-8 473.888,-14 473.888,-20 473.888,-20 473.888,-284 473.888,-284 473.888,-290 467.888,-296 461.888,-296 461.888,-296 209.888,-296 209.888,-296 203.888,-296 197.888,-290 197.888,-284 197.888,-284 197.888,-20 197.888,-20 197.888,-14 203.888,-8 209.888,-8"/>
<text text-anchor="middle" x="335.888" y="-283.2" font-family="Times,serif" font-size="11.00" fill="gray">Global</text>
</g>
<!-- \\Horde_Stream_Filter_Bin2hex -->
<g id="node1" class="node"><title>\\Horde_Stream_Filter_Bin2hex</title>
<polygon fill="none" stroke="black" points="435.388,-268 236.388,-268 236.388,-232 435.388,-232 435.388,-268"/>
<text text-anchor="middle" x="335.888" y="-247.2" font-family="Courier,monospace" font-size="11.00">Horde_Stream_Filter_Bin2hex</text>
</g>
<!-- \\php_user_filter -->
<g id="node6" class="node"><title>\\php_user_filter</title>
<ellipse fill="none" stroke="black" cx="66.9441" cy="-142" rx="66.8882" ry="18"/>
<text text-anchor="middle" x="66.9441" y="-138.3" font-family="Times,serif" font-size="14.00" fill="gray">\php_user_filter</text>
</g>
<!-- \\Horde_Stream_Filter_Bin2hex&#45;&gt;\\php_user_filter -->
<g id="edge1" class="edge"><title>\\Horde_Stream_Filter_Bin2hex&#45;&gt;\\php_user_filter</title>
<path fill="none" stroke="black" d="M236.347,-235.076C223.2,-231.787 210.064,-227.807 197.888,-223 161.011,-208.442 122.998,-183.355 97.6897,-164.948"/>
<polygon fill="none" stroke="black" points="99.7379,-162.109 89.6138,-158.986 95.5806,-167.741 99.7379,-162.109"/>
</g>
<!-- \\Horde_Stream_Filter_Null -->
<g id="node2" class="node"><title>\\Horde_Stream_Filter_Null</title>
<polygon fill="none" stroke="black" points="425.388,-214 246.388,-214 246.388,-178 425.388,-178 425.388,-214"/>
<text text-anchor="middle" x="335.888" y="-193.2" font-family="Courier,monospace" font-size="11.00">Horde_Stream_Filter_Null</text>
</g>
<!-- \\Horde_Stream_Filter_Null&#45;&gt;\\php_user_filter -->
<g id="edge2" class="edge"><title>\\Horde_Stream_Filter_Null&#45;&gt;\\php_user_filter</title>
<path fill="none" stroke="black" d="M246.058,-178.632C230.019,-175.456 213.451,-172.15 197.888,-169 175.76,-164.521 151.535,-159.515 130.06,-155.042"/>
<polygon fill="none" stroke="black" points="130.587,-151.577 120.083,-152.961 129.157,-158.429 130.587,-151.577"/>
</g>
<!-- \\Horde_Stream_Filter_Crc32 -->
<g id="node3" class="node"><title>\\Horde_Stream_Filter_Crc32</title>
<polygon fill="none" stroke="black" points="428.388,-160 243.388,-160 243.388,-124 428.388,-124 428.388,-160"/>
<text text-anchor="middle" x="335.888" y="-139.2" font-family="Courier,monospace" font-size="11.00">Horde_Stream_Filter_Crc32</text>
</g>
<!-- \\Horde_Stream_Filter_Crc32&#45;&gt;\\php_user_filter -->
<g id="edge3" class="edge"><title>\\Horde_Stream_Filter_Crc32&#45;&gt;\\php_user_filter</title>
<path fill="none" stroke="black" d="M243.021,-142C210.908,-142 175.225,-142 144.495,-142"/>
<polygon fill="none" stroke="black" points="144.276,-138.5 134.276,-142 144.276,-145.5 144.276,-138.5"/>
</g>
<!-- \\Horde_Stream_Filter_Htmlspecialchars -->
<g id="node4" class="node"><title>\\Horde_Stream_Filter_Htmlspecialchars</title>
<polygon fill="none" stroke="black" points="465.888,-106 205.888,-106 205.888,-70 465.888,-70 465.888,-106"/>
<text text-anchor="middle" x="335.888" y="-85.2" font-family="Courier,monospace" font-size="11.00">Horde_Stream_Filter_Htmlspecialchars</text>
</g>
<!-- \\Horde_Stream_Filter_Htmlspecialchars&#45;&gt;\\php_user_filter -->
<g id="edge4" class="edge"><title>\\Horde_Stream_Filter_Htmlspecialchars&#45;&gt;\\php_user_filter</title>
<path fill="none" stroke="black" d="M242.745,-106.025C227.747,-108.997 212.382,-112.066 197.888,-115 175.76,-119.479 151.535,-124.485 130.06,-128.958"/>
<polygon fill="none" stroke="black" points="129.157,-125.571 120.083,-131.039 130.587,-132.423 129.157,-125.571"/>
</g>
<!-- \\Horde_Stream_Filter_Eol -->
<g id="node5" class="node"><title>\\Horde_Stream_Filter_Eol</title>
<polygon fill="none" stroke="black" points="421.888,-52 249.888,-52 249.888,-16 421.888,-16 421.888,-52"/>
<text text-anchor="middle" x="335.888" y="-31.2" font-family="Courier,monospace" font-size="11.00">Horde_Stream_Filter_Eol</text>
</g>
<!-- \\Horde_Stream_Filter_Eol&#45;&gt;\\php_user_filter -->
<g id="edge5" class="edge"><title>\\Horde_Stream_Filter_Eol&#45;&gt;\\php_user_filter</title>
<path fill="none" stroke="black" d="M249.827,-45.7822C232.312,-49.5824 214.236,-54.5462 197.888,-61 161.011,-75.5585 122.998,-100.645 97.6897,-119.052"/>
<polygon fill="none" stroke="black" points="95.5806,-116.259 89.6138,-125.014 99.7379,-121.891 95.5806,-116.259"/>
</g>
</g>
</svg>
