<?xml version="1.0" encoding="UTF-8" standalone="no"?>
<!DOCTYPE svg PUBLIC "-//W3C//DTD SVG 1.1//EN"
 "http://www.w3.org/Graphics/SVG/1.1/DTD/svg11.dtd">
<!-- Generated by graphviz version 2.38.0 (20140413.2041)
 -->
<!-- Title: G Pages: 1 -->
<svg width="658pt" height="1212pt"
 viewBox="0.00 0.00 658.00 1212.00" xmlns="http://www.w3.org/2000/svg" xmlns:xlink="http://www.w3.org/1999/xlink">
<g id="graph0" class="graph" transform="scale(1 1) rotate(0) translate(4 1208)">
<title>G</title>
<polygon fill="white" stroke="none" points="-4,4 -4,-1208 654,-1208 654,4 -4,4"/>
<g id="clust1" class="cluster"><title>cluster_Global</title>
<path fill="none" stroke="gray" d="M20,-44C20,-44 630,-44 630,-44 636,-44 642,-50 642,-56 642,-56 642,-1184 642,-1184 642,-1190 636,-1196 630,-1196 630,-1196 20,-1196 20,-1196 14,-1196 8,-1190 8,-1184 8,-1184 8,-56 8,-56 8,-50 14,-44 20,-44"/>
<text text-anchor="middle" x="325" y="-1183.2" font-family="Times,serif" font-size="11.00" fill="gray">Global</text>
</g>
<!-- \\Horde_Date_Parser_Exception -->
<g id="node1" class="node"><title>\\Horde_Date_Parser_Exception</title>
<polygon fill="none" stroke="black" points="600.5,-250 401.5,-250 401.5,-214 600.5,-214 600.5,-250"/>
<text text-anchor="middle" x="501" y="-229.2" font-family="Courier,monospace" font-size="11.00">Horde_Date_Parser_Exception</text>
</g>
<!-- \\Exception -->
<g id="node30" class="node"><title>\\Exception</title>
<ellipse fill="none" stroke="black" cx="156" cy="-18" rx="48.9926" ry="18"/>
<text text-anchor="middle" x="156" y="-14.3" font-family="Times,serif" font-size="14.00" fill="gray">\Exception</text>
</g>
<!-- \\Horde_Date_Parser_Exception&#45;&gt;\\Exception -->
<g id="edge1" class="edge"><title>\\Horde_Date_Parser_Exception&#45;&gt;\\Exception</title>
<path fill="none" stroke="black" d="M401.479,-222.943C389.366,-218.744 377.817,-212.948 368,-205 305.813,-154.655 359.299,-88.9395 296,-40 273.033,-22.2432 241.442,-16.2303 214.179,-14.885"/>
<polygon fill="none" stroke="black" points="214.069,-11.3803 203.97,-14.5832 213.862,-18.3773 214.069,-11.3803"/>
</g>
<!-- \\Horde_Date_Parser_Result -->
<g id="node2" class="node"><title>\\Horde_Date_Parser_Result</title>
<polygon fill="none" stroke="black" points="590.5,-1114 411.5,-1114 411.5,-1078 590.5,-1078 590.5,-1114"/>
<text text-anchor="middle" x="501" y="-1093.2" font-family="Courier,monospace" font-size="11.00">Horde_Date_Parser_Result</text>
</g>
<!-- \\Horde_Date_Parser_Locale_Pt -->
<g id="node3" class="node"><title>\\Horde_Date_Parser_Locale_Pt</title>
<polygon fill="none" stroke="black" points="600.5,-628 401.5,-628 401.5,-592 600.5,-592 600.5,-628"/>
<text text-anchor="middle" x="501" y="-607.2" font-family="Courier,monospace" font-size="11.00">Horde_Date_Parser_Locale_Pt</text>
</g>
<!-- \\Horde_Date_Parser_Locale_Base -->
<g id="node26" class="node"><title>\\Horde_Date_Parser_Locale_Base</title>
<polygon fill="none" stroke="black" points="262,-655 50,-655 50,-619 262,-619 262,-655"/>
<text text-anchor="middle" x="156" y="-634.2" font-family="Courier,monospace" font-size="11.00">Horde_Date_Parser_Locale_Base</text>
</g>
<!-- \\Horde_Date_Parser_Locale_Pt&#45;&gt;\\Horde_Date_Parser_Locale_Base -->
<g id="edge2" class="edge"><title>\\Horde_Date_Parser_Locale_Pt&#45;&gt;\\Horde_Date_Parser_Locale_Base</title>
<path fill="none" stroke="black" d="M401.25,-617.773C361.027,-620.94 314.25,-624.622 272.46,-627.911"/>
<polygon fill="none" stroke="black" points="271.926,-624.442 262.231,-628.716 272.475,-631.421 271.926,-624.442"/>
</g>
<!-- \\Horde_Date_Parser_Locale_De_Pointer -->
<g id="node4" class="node"><title>\\Horde_Date_Parser_Locale_De_Pointer</title>
<polygon fill="none" stroke="black" points="627.5,-1060 374.5,-1060 374.5,-1024 627.5,-1024 627.5,-1060"/>
<text text-anchor="middle" x="501" y="-1039.2" font-family="Courier,monospace" font-size="11.00">Horde_Date_Parser_Locale_De_Pointer</text>
</g>
<!-- \\Horde_Date_Parser_Locale_Base_Pointer -->
<g id="node11" class="node"><title>\\Horde_Date_Parser_Locale_Base_Pointer</title>
<polygon fill="none" stroke="black" points="289,-1114 23,-1114 23,-1078 289,-1078 289,-1114"/>
<text text-anchor="middle" x="156" y="-1093.2" font-family="Courier,monospace" font-size="11.00">Horde_Date_Parser_Locale_Base_Pointer</text>
</g>
<!-- \\Horde_Date_Parser_Locale_De_Pointer&#45;&gt;\\Horde_Date_Parser_Locale_Base_Pointer -->
<g id="edge3" class="edge"><title>\\Horde_Date_Parser_Locale_De_Pointer&#45;&gt;\\Horde_Date_Parser_Locale_Base_Pointer</title>
<path fill="none" stroke="black" d="M385.309,-1060.06C351.985,-1065.3 315.436,-1071.06 281.538,-1076.39"/>
<polygon fill="none" stroke="black" points="280.917,-1072.95 271.583,-1077.96 282.006,-1079.86 280.917,-1072.95"/>
</g>
<!-- \\Horde_Date_Parser_Locale_De_Ordinal -->
<g id="node5" class="node"><title>\\Horde_Date_Parser_Locale_De_Ordinal</title>
<polygon fill="none" stroke="black" points="627.5,-952 374.5,-952 374.5,-916 627.5,-916 627.5,-952"/>
<text text-anchor="middle" x="501" y="-931.2" font-family="Courier,monospace" font-size="11.00">Horde_Date_Parser_Locale_De_Ordinal</text>
</g>
<!-- \\Horde_Date_Parser_Locale_Base_Ordinal -->
<g id="node12" class="node"><title>\\Horde_Date_Parser_Locale_Base_Ordinal</title>
<polygon fill="none" stroke="black" points="289,-979 23,-979 23,-943 289,-943 289,-979"/>
<text text-anchor="middle" x="156" y="-958.2" font-family="Courier,monospace" font-size="11.00">Horde_Date_Parser_Locale_Base_Ordinal</text>
</g>
<!-- \\Horde_Date_Parser_Locale_De_Ordinal&#45;&gt;\\Horde_Date_Parser_Locale_Base_Ordinal -->
<g id="edge4" class="edge"><title>\\Horde_Date_Parser_Locale_De_Ordinal&#45;&gt;\\Horde_Date_Parser_Locale_Base_Ordinal</title>
<path fill="none" stroke="black" d="M374.227,-943.9C349.861,-945.819 324.166,-947.841 299.314,-949.797"/>
<polygon fill="none" stroke="black" points="298.79,-946.328 289.095,-950.602 299.339,-953.306 298.79,-946.328"/>
</g>
<!-- \\Horde_Date_Parser_Locale_De_Grabber -->
<g id="node6" class="node"><title>\\Horde_Date_Parser_Locale_De_Grabber</title>
<polygon fill="none" stroke="black" points="627.5,-844 374.5,-844 374.5,-808 627.5,-808 627.5,-844"/>
<text text-anchor="middle" x="501" y="-823.2" font-family="Courier,monospace" font-size="11.00">Horde_Date_Parser_Locale_De_Grabber</text>
</g>
<!-- \\Horde_Date_Parser_Locale_Base_Grabber -->
<g id="node13" class="node"><title>\\Horde_Date_Parser_Locale_Base_Grabber</title>
<polygon fill="none" stroke="black" points="289,-871 23,-871 23,-835 289,-835 289,-871"/>
<text text-anchor="middle" x="156" y="-850.2" font-family="Courier,monospace" font-size="11.00">Horde_Date_Parser_Locale_Base_Grabber</text>
</g>
<!-- \\Horde_Date_Parser_Locale_De_Grabber&#45;&gt;\\Horde_Date_Parser_Locale_Base_Grabber -->
<g id="edge5" class="edge"><title>\\Horde_Date_Parser_Locale_De_Grabber&#45;&gt;\\Horde_Date_Parser_Locale_Base_Grabber</title>
<path fill="none" stroke="black" d="M374.227,-835.9C349.861,-837.819 324.166,-839.841 299.314,-841.797"/>
<polygon fill="none" stroke="black" points="298.79,-838.328 289.095,-842.602 299.339,-845.306 298.79,-838.328"/>
</g>
<!-- \\Horde_Date_Parser_Locale_De_Scalar -->
<g id="node7" class="node"><title>\\Horde_Date_Parser_Locale_De_Scalar</title>
<polygon fill="none" stroke="black" points="624,-736 378,-736 378,-700 624,-700 624,-736"/>
<text text-anchor="middle" x="501" y="-715.2" font-family="Courier,monospace" font-size="11.00">Horde_Date_Parser_Locale_De_Scalar</text>
</g>
<!-- \\Horde_Date_Parser_Locale_Base_Scalar -->
<g id="node14" class="node"><title>\\Horde_Date_Parser_Locale_Base_Scalar</title>
<polygon fill="none" stroke="black" points="286,-763 26,-763 26,-727 286,-727 286,-763"/>
<text text-anchor="middle" x="156" y="-742.2" font-family="Courier,monospace" font-size="11.00">Horde_Date_Parser_Locale_Base_Scalar</text>
</g>
<!-- \\Horde_Date_Parser_Locale_De_Scalar&#45;&gt;\\Horde_Date_Parser_Locale_Base_Scalar -->
<g id="edge6" class="edge"><title>\\Horde_Date_Parser_Locale_De_Scalar&#45;&gt;\\Horde_Date_Parser_Locale_Base_Scalar</title>
<path fill="none" stroke="black" d="M377.622,-727.633C351.264,-729.708 323.217,-731.916 296.27,-734.037"/>
<polygon fill="none" stroke="black" points="295.697,-730.571 286.002,-734.845 296.246,-737.55 295.697,-730.571"/>
</g>
<!-- \\Horde_Date_Parser_Locale_De_Separator -->
<g id="node8" class="node"><title>\\Horde_Date_Parser_Locale_De_Separator</title>
<polygon fill="none" stroke="black" points="634,-520 368,-520 368,-484 634,-484 634,-520"/>
<text text-anchor="middle" x="501" y="-499.2" font-family="Courier,monospace" font-size="11.00">Horde_Date_Parser_Locale_De_Separator</text>
</g>
<!-- \\Horde_Date_Parser_Locale_Base_Separator -->
<g id="node15" class="node"><title>\\Horde_Date_Parser_Locale_Base_Separator</title>
<polygon fill="none" stroke="black" points="296,-547 16,-547 16,-511 296,-511 296,-547"/>
<text text-anchor="middle" x="156" y="-526.2" font-family="Courier,monospace" font-size="11.00">Horde_Date_Parser_Locale_Base_Separator</text>
</g>
<!-- \\Horde_Date_Parser_Locale_De_Separator&#45;&gt;\\Horde_Date_Parser_Locale_Base_Separator -->
<g id="edge7" class="edge"><title>\\Horde_Date_Parser_Locale_De_Separator&#45;&gt;\\Horde_Date_Parser_Locale_Base_Separator</title>
<path fill="none" stroke="black" d="M367.878,-512.4C347.686,-513.99 326.725,-515.64 306.197,-517.256"/>
<polygon fill="none" stroke="black" points="305.855,-513.772 296.16,-518.046 306.404,-520.75 305.855,-513.772"/>
</g>
<!-- \\Horde_Date_Parser_Locale_De_Timezone -->
<g id="node9" class="node"><title>\\Horde_Date_Parser_Locale_De_Timezone</title>
<polygon fill="none" stroke="black" points="631,-412 371,-412 371,-376 631,-376 631,-412"/>
<text text-anchor="middle" x="501" y="-391.2" font-family="Courier,monospace" font-size="11.00">Horde_Date_Parser_Locale_De_Timezone</text>
</g>
<!-- \\Horde_Date_Parser_Locale_Base_Timezone -->
<g id="node16" class="node"><title>\\Horde_Date_Parser_Locale_Base_Timezone</title>
<polygon fill="none" stroke="black" points="292.5,-439 19.5,-439 19.5,-403 292.5,-403 292.5,-439"/>
<text text-anchor="middle" x="156" y="-418.2" font-family="Courier,monospace" font-size="11.00">Horde_Date_Parser_Locale_Base_Timezone</text>
</g>
<!-- \\Horde_Date_Parser_Locale_De_Timezone&#45;&gt;\\Horde_Date_Parser_Locale_Base_Timezone -->
<g id="edge8" class="edge"><title>\\Horde_Date_Parser_Locale_De_Timezone&#45;&gt;\\Horde_Date_Parser_Locale_Base_Timezone</title>
<path fill="none" stroke="black" d="M370.815,-404.169C348.566,-405.92 325.303,-407.752 302.655,-409.534"/>
<polygon fill="none" stroke="black" points="302.341,-406.048 292.647,-410.322 302.891,-413.027 302.341,-406.048"/>
</g>
<!-- \\Horde_Date_Parser_Locale_De_Repeater -->
<g id="node10" class="node"><title>\\Horde_Date_Parser_Locale_De_Repeater</title>
<polygon fill="none" stroke="black" points="631,-304 371,-304 371,-268 631,-268 631,-304"/>
<text text-anchor="middle" x="501" y="-283.2" font-family="Courier,monospace" font-size="11.00">Horde_Date_Parser_Locale_De_Repeater</text>
</g>
<!-- \\Horde_Date_Parser_Locale_Base_Repeater -->
<g id="node17" class="node"><title>\\Horde_Date_Parser_Locale_Base_Repeater</title>
<polygon fill="none" stroke="black" points="292.5,-331 19.5,-331 19.5,-295 292.5,-295 292.5,-331"/>
<text text-anchor="middle" x="156" y="-310.2" font-family="Courier,monospace" font-size="11.00">Horde_Date_Parser_Locale_Base_Repeater</text>
</g>
<!-- \\Horde_Date_Parser_Locale_De_Repeater&#45;&gt;\\Horde_Date_Parser_Locale_Base_Repeater -->
<g id="edge9" class="edge"><title>\\Horde_Date_Parser_Locale_De_Repeater&#45;&gt;\\Horde_Date_Parser_Locale_Base_Repeater</title>
<path fill="none" stroke="black" d="M370.815,-296.169C348.566,-297.92 325.303,-299.752 302.655,-301.534"/>
<polygon fill="none" stroke="black" points="302.341,-298.048 292.647,-302.322 302.891,-305.027 302.341,-298.048"/>
</g>
<!-- \\Horde_Date_Parser_Locale_Pt_Pointer -->
<g id="node18" class="node"><title>\\Horde_Date_Parser_Locale_Pt_Pointer</title>
<polygon fill="none" stroke="black" points="627.5,-1168 374.5,-1168 374.5,-1132 627.5,-1132 627.5,-1168"/>
<text text-anchor="middle" x="501" y="-1147.2" font-family="Courier,monospace" font-size="11.00">Horde_Date_Parser_Locale_Pt_Pointer</text>
</g>
<!-- \\Horde_Date_Parser_Locale_Pt_Pointer&#45;&gt;\\Horde_Date_Parser_Locale_Base_Pointer -->
<g id="edge10" class="edge"><title>\\Horde_Date_Parser_Locale_Pt_Pointer&#45;&gt;\\Horde_Date_Parser_Locale_Base_Pointer</title>
<path fill="none" stroke="black" d="M385.309,-1131.94C351.985,-1126.7 315.436,-1120.94 281.538,-1115.61"/>
<polygon fill="none" stroke="black" points="282.006,-1112.14 271.583,-1114.04 280.917,-1119.05 282.006,-1112.14"/>
</g>
<!-- \\Horde_Date_Parser_Locale_Pt_Ordinal -->
<g id="node19" class="node"><title>\\Horde_Date_Parser_Locale_Pt_Ordinal</title>
<polygon fill="none" stroke="black" points="627.5,-1006 374.5,-1006 374.5,-970 627.5,-970 627.5,-1006"/>
<text text-anchor="middle" x="501" y="-985.2" font-family="Courier,monospace" font-size="11.00">Horde_Date_Parser_Locale_Pt_Ordinal</text>
</g>
<!-- \\Horde_Date_Parser_Locale_Pt_Ordinal&#45;&gt;\\Horde_Date_Parser_Locale_Base_Ordinal -->
<g id="edge11" class="edge"><title>\\Horde_Date_Parser_Locale_Pt_Ordinal&#45;&gt;\\Horde_Date_Parser_Locale_Base_Ordinal</title>
<path fill="none" stroke="black" d="M374.227,-978.1C349.861,-976.181 324.166,-974.159 299.314,-972.203"/>
<polygon fill="none" stroke="black" points="299.339,-968.694 289.095,-971.398 298.79,-975.672 299.339,-968.694"/>
</g>
<!-- \\Horde_Date_Parser_Locale_Pt_Grabber -->
<g id="node20" class="node"><title>\\Horde_Date_Parser_Locale_Pt_Grabber</title>
<polygon fill="none" stroke="black" points="627.5,-898 374.5,-898 374.5,-862 627.5,-862 627.5,-898"/>
<text text-anchor="middle" x="501" y="-877.2" font-family="Courier,monospace" font-size="11.00">Horde_Date_Parser_Locale_Pt_Grabber</text>
</g>
<!-- \\Horde_Date_Parser_Locale_Pt_Grabber&#45;&gt;\\Horde_Date_Parser_Locale_Base_Grabber -->
<g id="edge12" class="edge"><title>\\Horde_Date_Parser_Locale_Pt_Grabber&#45;&gt;\\Horde_Date_Parser_Locale_Base_Grabber</title>
<path fill="none" stroke="black" d="M374.227,-870.1C349.861,-868.181 324.166,-866.159 299.314,-864.203"/>
<polygon fill="none" stroke="black" points="299.339,-860.694 289.095,-863.398 298.79,-867.672 299.339,-860.694"/>
</g>
<!-- \\Horde_Date_Parser_Locale_Pt_Scalar -->
<g id="node21" class="node"><title>\\Horde_Date_Parser_Locale_Pt_Scalar</title>
<polygon fill="none" stroke="black" points="624,-790 378,-790 378,-754 624,-754 624,-790"/>
<text text-anchor="middle" x="501" y="-769.2" font-family="Courier,monospace" font-size="11.00">Horde_Date_Parser_Locale_Pt_Scalar</text>
</g>
<!-- \\Horde_Date_Parser_Locale_Pt_Scalar&#45;&gt;\\Horde_Date_Parser_Locale_Base_Scalar -->
<g id="edge13" class="edge"><title>\\Horde_Date_Parser_Locale_Pt_Scalar&#45;&gt;\\Horde_Date_Parser_Locale_Base_Scalar</title>
<path fill="none" stroke="black" d="M377.622,-762.367C351.264,-760.292 323.217,-758.084 296.27,-755.963"/>
<polygon fill="none" stroke="black" points="296.246,-752.45 286.002,-755.155 295.697,-759.429 296.246,-752.45"/>
</g>
<!-- \\Horde_Date_Parser_Locale_Pt_Separator -->
<g id="node22" class="node"><title>\\Horde_Date_Parser_Locale_Pt_Separator</title>
<polygon fill="none" stroke="black" points="634,-574 368,-574 368,-538 634,-538 634,-574"/>
<text text-anchor="middle" x="501" y="-553.2" font-family="Courier,monospace" font-size="11.00">Horde_Date_Parser_Locale_Pt_Separator</text>
</g>
<!-- \\Horde_Date_Parser_Locale_Pt_Separator&#45;&gt;\\Horde_Date_Parser_Locale_Base_Separator -->
<g id="edge14" class="edge"><title>\\Horde_Date_Parser_Locale_Pt_Separator&#45;&gt;\\Horde_Date_Parser_Locale_Base_Separator</title>
<path fill="none" stroke="black" d="M367.878,-545.6C347.686,-544.01 326.725,-542.36 306.197,-540.744"/>
<polygon fill="none" stroke="black" points="306.404,-537.25 296.16,-539.954 305.855,-544.228 306.404,-537.25"/>
</g>
<!-- \\Horde_Date_Parser_Locale_Pt_Timezone -->
<g id="node23" class="node"><title>\\Horde_Date_Parser_Locale_Pt_Timezone</title>
<polygon fill="none" stroke="black" points="631,-466 371,-466 371,-430 631,-430 631,-466"/>
<text text-anchor="middle" x="501" y="-445.2" font-family="Courier,monospace" font-size="11.00">Horde_Date_Parser_Locale_Pt_Timezone</text>
</g>
<!-- \\Horde_Date_Parser_Locale_Pt_Timezone&#45;&gt;\\Horde_Date_Parser_Locale_Base_Timezone -->
<g id="edge15" class="edge"><title>\\Horde_Date_Parser_Locale_Pt_Timezone&#45;&gt;\\Horde_Date_Parser_Locale_Base_Timezone</title>
<path fill="none" stroke="black" d="M370.815,-437.831C348.566,-436.08 325.303,-434.248 302.655,-432.466"/>
<polygon fill="none" stroke="black" points="302.891,-428.973 292.647,-431.678 302.341,-435.952 302.891,-428.973"/>
</g>
<!-- \\Horde_Date_Parser_Locale_Pt_Repeater -->
<g id="node24" class="node"><title>\\Horde_Date_Parser_Locale_Pt_Repeater</title>
<polygon fill="none" stroke="black" points="631,-358 371,-358 371,-322 631,-322 631,-358"/>
<text text-anchor="middle" x="501" y="-337.2" font-family="Courier,monospace" font-size="11.00">Horde_Date_Parser_Locale_Pt_Repeater</text>
</g>
<!-- \\Horde_Date_Parser_Locale_Pt_Repeater&#45;&gt;\\Horde_Date_Parser_Locale_Base_Repeater -->
<g id="edge16" class="edge"><title>\\Horde_Date_Parser_Locale_Pt_Repeater&#45;&gt;\\Horde_Date_Parser_Locale_Base_Repeater</title>
<path fill="none" stroke="black" d="M370.815,-329.831C348.566,-328.08 325.303,-326.248 302.655,-324.466"/>
<polygon fill="none" stroke="black" points="302.891,-320.973 292.647,-323.678 302.341,-327.952 302.891,-320.973"/>
</g>
<!-- \\Horde_Date_Parser_Locale_De -->
<g id="node25" class="node"><title>\\Horde_Date_Parser_Locale_De</title>
<polygon fill="none" stroke="black" points="600.5,-682 401.5,-682 401.5,-646 600.5,-646 600.5,-682"/>
<text text-anchor="middle" x="501" y="-661.2" font-family="Courier,monospace" font-size="11.00">Horde_Date_Parser_Locale_De</text>
</g>
<!-- \\Horde_Date_Parser_Locale_De&#45;&gt;\\Horde_Date_Parser_Locale_Base -->
<g id="edge17" class="edge"><title>\\Horde_Date_Parser_Locale_De&#45;&gt;\\Horde_Date_Parser_Locale_Base</title>
<path fill="none" stroke="black" d="M401.25,-656.227C361.027,-653.06 314.25,-649.378 272.46,-646.089"/>
<polygon fill="none" stroke="black" points="272.475,-642.579 262.231,-645.284 271.926,-649.558 272.475,-642.579"/>
</g>
<!-- \\Horde_Date_Parser_Handler -->
<g id="node27" class="node"><title>\\Horde_Date_Parser_Handler</title>
<polygon fill="none" stroke="black" points="593.5,-196 408.5,-196 408.5,-160 593.5,-160 593.5,-196"/>
<text text-anchor="middle" x="501" y="-175.2" font-family="Courier,monospace" font-size="11.00">Horde_Date_Parser_Handler</text>
</g>
<!-- \\Horde_Date_Parser_Token -->
<g id="node28" class="node"><title>\\Horde_Date_Parser_Token</title>
<polygon fill="none" stroke="black" points="587,-142 415,-142 415,-106 587,-106 587,-142"/>
<text text-anchor="middle" x="501" y="-121.2" font-family="Courier,monospace" font-size="11.00">Horde_Date_Parser_Token</text>
</g>
<!-- \\Horde_Date_Parser -->
<g id="node29" class="node"><title>\\Horde_Date_Parser</title>
<polygon fill="none" stroke="black" points="566.5,-88 435.5,-88 435.5,-52 566.5,-52 566.5,-88"/>
<text text-anchor="middle" x="501" y="-67.2" font-family="Courier,monospace" font-size="11.00">Horde_Date_Parser</text>
</g>
</g>
</svg>
