<?xml version="1.0" encoding="UTF-8" standalone="no"?>
<!DOCTYPE svg PUBLIC "-//W3C//DTD SVG 1.1//EN"
 "http://www.w3.org/Graphics/SVG/1.1/DTD/svg11.dtd">
<!-- Generated by graphviz version 2.38.0 (20140413.2041)
 -->
<!-- Title: G Pages: 1 -->
<svg width="619pt" height="464pt"
 viewBox="0.00 0.00 618.88 464.00" xmlns="http://www.w3.org/2000/svg" xmlns:xlink="http://www.w3.org/1999/xlink">
<g id="graph0" class="graph" transform="scale(1 1) rotate(0) translate(4 460)">
<title>G</title>
<polygon fill="white" stroke="none" points="-4,4 -4,-460 614.88,-460 614.88,4 -4,4"/>
<g id="clust1" class="cluster"><title>cluster_Global</title>
<path fill="none" stroke="gray" d="M284.88,-8C284.88,-8 590.88,-8 590.88,-8 596.88,-8 602.88,-14 602.88,-20 602.88,-20 602.88,-436 602.88,-436 602.88,-442 596.88,-448 590.88,-448 590.88,-448 284.88,-448 284.88,-448 278.88,-448 272.88,-442 272.88,-436 272.88,-436 272.88,-20 272.88,-20 272.88,-14 278.88,-8 284.88,-8"/>
<text text-anchor="middle" x="437.88" y="-435.2" font-family="Times,serif" font-size="11.00" fill="gray">Global</text>
</g>
<g id="clust2" class="cluster"><title>cluster_\Horde</title>
<path fill="none" stroke="gray" d="M292.88,-16C292.88,-16 582.88,-16 582.88,-16 588.88,-16 594.88,-22 594.88,-28 594.88,-28 594.88,-408 594.88,-408 594.88,-414 588.88,-420 582.88,-420 582.88,-420 292.88,-420 292.88,-420 286.88,-420 280.88,-414 280.88,-408 280.88,-408 280.88,-28 280.88,-28 280.88,-22 286.88,-16 292.88,-16"/>
<text text-anchor="middle" x="437.88" y="-407.2" font-family="Times,serif" font-size="11.00" fill="gray">Horde</text>
</g>
<g id="clust3" class="cluster"><title>cluster_\Horde\ManageSieve</title>
<path fill="none" stroke="gray" d="M300.88,-68C300.88,-68 574.88,-68 574.88,-68 580.88,-68 586.88,-74 586.88,-80 586.88,-80 586.88,-380 586.88,-380 586.88,-386 580.88,-392 574.88,-392 574.88,-392 300.88,-392 300.88,-392 294.88,-392 288.88,-386 288.88,-380 288.88,-380 288.88,-80 288.88,-80 288.88,-74 294.88,-68 300.88,-68"/>
<text text-anchor="middle" x="437.88" y="-379.2" font-family="Times,serif" font-size="11.00" fill="gray">ManageSieve</text>
</g>
<g id="clust4" class="cluster"><title>cluster_\Horde\ManageSieve\Exception</title>
<path fill="none" stroke="gray" d="M449.88,-76C449.88,-76 566.88,-76 566.88,-76 572.88,-76 578.88,-82 578.88,-88 578.88,-88 578.88,-352 578.88,-352 578.88,-358 572.88,-364 566.88,-364 566.88,-364 449.88,-364 449.88,-364 443.88,-364 437.88,-358 437.88,-352 437.88,-352 437.88,-88 437.88,-88 437.88,-82 443.88,-76 449.88,-76"/>
<text text-anchor="middle" x="508.38" y="-351.2" font-family="Times,serif" font-size="11.00" fill="gray">Exception</text>
</g>
<!-- \\Horde\\ManageSieve\\Exception\\Referral -->
<g id="node1" class="node"><title>\\Horde\\ManageSieve\\Exception\\Referral</title>
<polygon fill="none" stroke="black" points="543.88,-336 472.88,-336 472.88,-300 543.88,-300 543.88,-336"/>
<text text-anchor="middle" x="508.38" y="-315.2" font-family="Courier,monospace" font-size="11.00">Referral</text>
</g>
<!-- \\Horde\\ManageSieve\\Exception -->
<g id="node6" class="node"><title>\\Horde\\ManageSieve\\Exception</title>
<polygon fill="none" stroke="black" points="373.88,-228 296.88,-228 296.88,-192 373.88,-192 373.88,-228"/>
<text text-anchor="middle" x="335.38" y="-207.2" font-family="Courier,monospace" font-size="11.00">Exception</text>
</g>
<!-- \\Horde\\ManageSieve\\Exception\\Referral&#45;&gt;\\Horde\\ManageSieve\\Exception -->
<g id="edge2" class="edge"><title>\\Horde\\ManageSieve\\Exception\\Referral&#45;&gt;\\Horde\\ManageSieve\\Exception</title>
<path fill="none" stroke="black" d="M472.848,-306.937C461.378,-302.654 448.764,-297.261 437.88,-291 410.399,-275.191 382.482,-252.309 362.901,-234.894"/>
<polygon fill="none" stroke="black" points="365.074,-232.141 355.304,-228.041 360.384,-237.338 365.074,-232.141"/>
</g>
<!-- \\Horde\\ManageSieve\\Exception\\NotDisconnected -->
<g id="node2" class="node"><title>\\Horde\\ManageSieve\\Exception\\NotDisconnected</title>
<polygon fill="none" stroke="black" points="567.38,-282 449.38,-282 449.38,-246 567.38,-246 567.38,-282"/>
<text text-anchor="middle" x="508.38" y="-261.2" font-family="Courier,monospace" font-size="11.00">NotDisconnected</text>
</g>
<!-- \\Horde\\ManageSieve\\Exception\\NotDisconnected&#45;&gt;\\Horde\\ManageSieve\\Exception -->
<g id="edge3" class="edge"><title>\\Horde\\ManageSieve\\Exception\\NotDisconnected&#45;&gt;\\Horde\\ManageSieve\\Exception</title>
<path fill="none" stroke="black" d="M449.964,-245.869C428.451,-239.075 404.271,-231.439 383.767,-224.964"/>
<polygon fill="none" stroke="black" points="384.614,-221.561 374.024,-221.888 382.506,-228.237 384.614,-221.561"/>
</g>
<!-- \\Horde\\ManageSieve\\Exception\\NotAuthenticated -->
<g id="node3" class="node"><title>\\Horde\\ManageSieve\\Exception\\NotAuthenticated</title>
<polygon fill="none" stroke="black" points="570.88,-228 445.88,-228 445.88,-192 570.88,-192 570.88,-228"/>
<text text-anchor="middle" x="508.38" y="-207.2" font-family="Courier,monospace" font-size="11.00">NotAuthenticated</text>
</g>
<!-- \\Horde\\ManageSieve\\Exception\\NotAuthenticated&#45;&gt;\\Horde\\ManageSieve\\Exception -->
<g id="edge4" class="edge"><title>\\Horde\\ManageSieve\\Exception\\NotAuthenticated&#45;&gt;\\Horde\\ManageSieve\\Exception</title>
<path fill="none" stroke="black" d="M445.645,-210C425.385,-210 403.191,-210 384.129,-210"/>
<polygon fill="none" stroke="black" points="383.894,-206.5 373.894,-210 383.893,-213.5 383.894,-206.5"/>
</g>
<!-- \\Horde\\ManageSieve\\Exception\\NotConnected -->
<g id="node4" class="node"><title>\\Horde\\ManageSieve\\Exception\\NotConnected</title>
<polygon fill="none" stroke="black" points="557.38,-174 459.38,-174 459.38,-138 557.38,-138 557.38,-174"/>
<text text-anchor="middle" x="508.38" y="-153.2" font-family="Courier,monospace" font-size="11.00">NotConnected</text>
</g>
<!-- \\Horde\\ManageSieve\\Exception\\NotConnected&#45;&gt;\\Horde\\ManageSieve\\Exception -->
<g id="edge5" class="edge"><title>\\Horde\\ManageSieve\\Exception\\NotConnected&#45;&gt;\\Horde\\ManageSieve\\Exception</title>
<path fill="none" stroke="black" d="M459.292,-171.186C435.695,-178.637 407.362,-187.585 383.849,-195.01"/>
<polygon fill="none" stroke="black" points="382.576,-191.741 374.094,-198.09 384.684,-198.416 382.576,-191.741"/>
</g>
<!-- \\Horde\\ManageSieve\\Exception\\ConnectionFailed -->
<g id="node5" class="node"><title>\\Horde\\ManageSieve\\Exception\\ConnectionFailed</title>
<polygon fill="none" stroke="black" points="570.88,-120 445.88,-120 445.88,-84 570.88,-84 570.88,-120"/>
<text text-anchor="middle" x="508.38" y="-99.2" font-family="Courier,monospace" font-size="11.00">ConnectionFailed</text>
</g>
<!-- \\Horde\\ManageSieve\\Exception\\ConnectionFailed&#45;&gt;\\Horde\\ManageSieve\\Exception -->
<g id="edge6" class="edge"><title>\\Horde\\ManageSieve\\Exception\\ConnectionFailed&#45;&gt;\\Horde\\ManageSieve\\Exception</title>
<path fill="none" stroke="black" d="M455.696,-120.043C449.56,-122.776 443.49,-125.773 437.88,-129 410.399,-144.809 382.482,-167.691 362.901,-185.106"/>
<polygon fill="none" stroke="black" points="360.384,-182.662 355.304,-191.959 365.074,-187.859 360.384,-182.662"/>
</g>
<!-- \\Horde_Exception_Wrapped -->
<g id="node8" class="node"><title>\\Horde_Exception_Wrapped</title>
<ellipse fill="none" stroke="black" cx="112.44" cy="-210" rx="112.38" ry="18"/>
<text text-anchor="middle" x="112.44" y="-206.3" font-family="Times,serif" font-size="14.00" fill="gray">\Horde_Exception_Wrapped</text>
</g>
<!-- \\Horde\\ManageSieve\\Exception&#45;&gt;\\Horde_Exception_Wrapped -->
<g id="edge1" class="edge"><title>\\Horde\\ManageSieve\\Exception&#45;&gt;\\Horde_Exception_Wrapped</title>
<path fill="none" stroke="black" d="M296.65,-210C279.336,-210 257.73,-210 235.491,-210"/>
<polygon fill="none" stroke="black" points="235.241,-206.5 225.241,-210 235.241,-213.5 235.241,-206.5"/>
</g>
<!-- \\Horde\\ManageSieve -->
<g id="node7" class="node"><title>\\Horde\\ManageSieve</title>
<polygon fill="none" stroke="black" points="553.88,-60 462.88,-60 462.88,-24 553.88,-24 553.88,-60"/>
<text text-anchor="middle" x="508.38" y="-39.2" font-family="Courier,monospace" font-size="11.00">ManageSieve</text>
</g>
</g>
</svg>
