<?xml version="1.0" encoding="UTF-8" standalone="no"?>
<!DOCTYPE svg PUBLIC "-//W3C//DTD SVG 1.1//EN"
 "http://www.w3.org/Graphics/SVG/1.1/DTD/svg11.dtd">
<!-- Generated by graphviz version 2.38.0 (20140413.2041)
 -->
<!-- Title: G Pages: 1 -->
<svg width="151pt" height="96pt"
 viewBox="0.00 0.00 151.00 96.00" xmlns="http://www.w3.org/2000/svg" xmlns:xlink="http://www.w3.org/1999/xlink">
<g id="graph0" class="graph" transform="scale(1 1) rotate(0) translate(4 92)">
<title>G</title>
<polygon fill="white" stroke="none" points="-4,4 -4,-92 147,-92 147,4 -4,4"/>
<g id="clust1" class="cluster"><title>cluster_Global</title>
<path fill="none" stroke="gray" d="M20,-8C20,-8 123,-8 123,-8 129,-8 135,-14 135,-20 135,-20 135,-68 135,-68 135,-74 129,-80 123,-80 123,-80 20,-80 20,-80 14,-80 8,-74 8,-68 8,-68 8,-20 8,-20 8,-14 14,-8 20,-8"/>
<text text-anchor="middle" x="71.5" y="-67.2" font-family="Times,serif" font-size="11.00" fill="gray">Global</text>
</g>
<!-- \\Horde_Template -->
<g id="node1" class="node"><title>\\Horde_Template</title>
<polygon fill="none" stroke="black" points="127,-52 16,-52 16,-16 127,-16 127,-52"/>
<text text-anchor="middle" x="71.5" y="-31.2" font-family="Courier,monospace" font-size="11.00">Horde_Template</text>
</g>
</g>
</svg>
