<?xml version="1.0" encoding="UTF-8" standalone="no"?>
<!DOCTYPE svg PUBLIC "-//W3C//DTD SVG 1.1//EN"
 "http://www.w3.org/Graphics/SVG/1.1/DTD/svg11.dtd">
<!-- Generated by graphviz version 2.38.0 (20140413.2041)
 -->
<!-- Title: G Pages: 1 -->
<svg width="1099pt" height="350pt"
 viewBox="0.00 0.00 1098.84 350.00" xmlns="http://www.w3.org/2000/svg" xmlns:xlink="http://www.w3.org/1999/xlink">
<g id="graph0" class="graph" transform="scale(1 1) rotate(0) translate(4 346)">
<title>G</title>
<polygon fill="white" stroke="none" points="-4,4 -4,-346 1094.84,-346 1094.84,4 -4,4"/>
<g id="clust1" class="cluster"><title>cluster_Global</title>
<path fill="none" stroke="gray" d="M279.326,-100C279.326,-100 1070.84,-100 1070.84,-100 1076.84,-100 1082.84,-106 1082.84,-112 1082.84,-112 1082.84,-322 1082.84,-322 1082.84,-328 1076.84,-334 1070.84,-334 1070.84,-334 279.326,-334 279.326,-334 273.326,-334 267.326,-328 267.326,-322 267.326,-322 267.326,-112 267.326,-112 267.326,-106 273.326,-100 279.326,-100"/>
<text text-anchor="middle" x="675.083" y="-321.2" font-family="Times,serif" font-size="11.00" fill="gray">Global</text>
</g>
<!-- \\Horde_Share_Kolab -->
<g id="node1" class="node"><title>\\Horde_Share_Kolab</title>
<polygon fill="none" stroke="black" points="767.151,-306 636.151,-306 636.151,-270 767.151,-270 767.151,-306"/>
<text text-anchor="middle" x="701.651" y="-285.2" font-family="Courier,monospace" font-size="11.00">Horde_Share_Kolab</text>
</g>
<!-- \\Horde_Share_Base -->
<g id="node9" class="node"><title>\\Horde_Share_Base</title>
<polygon fill="none" stroke="black" points="406.826,-279 281.826,-279 281.826,-243 406.826,-243 406.826,-279"/>
<text text-anchor="start" x="310.326" y="-264.2" font-family="Courier,monospace" font-size="11.00">«abstract»</text>
<text text-anchor="start" x="289.826" y="-252.2" font-family="Courier,monospace" font-size="11.00">Horde_Share_Base</text>
</g>
<!-- \\Horde_Share_Kolab&#45;&gt;\\Horde_Share_Base -->
<g id="edge1" class="edge"><title>\\Horde_Share_Kolab&#45;&gt;\\Horde_Share_Base</title>
<path fill="none" stroke="black" d="M635.892,-283.079C574.045,-278.38 481.029,-271.312 416.985,-266.445"/>
<polygon fill="none" stroke="black" points="417.2,-262.952 406.964,-265.684 416.67,-269.931 417.2,-262.952"/>
</g>
<!-- \\Horde_Share_Object -->
<g id="node2" class="node"><title>\\Horde_Share_Object</title>
<polygon fill="none" stroke="black" points="413.326,-191 275.326,-191 275.326,-155 413.326,-155 413.326,-191"/>
<text text-anchor="start" x="310.326" y="-176.2" font-family="Courier,monospace" font-size="11.00">«abstract»</text>
<text text-anchor="start" x="283.326" y="-164.2" font-family="Courier,monospace" font-size="11.00">Horde_Share_Object</text>
</g>
<!-- \\Serializable -->
<g id="node11" class="node"><title>\\Serializable</title>
<ellipse fill="none" stroke="black" cx="54.5952" cy="-127" rx="54.6905" ry="18"/>
<text text-anchor="middle" x="54.5952" y="-123.3" font-family="Times,serif" font-size="14.00" fill="gray">\Serializable</text>
</g>
<!-- \\Horde_Share_Object&#45;&gt;\\Serializable -->
<g id="edge2" class="edge"><title>\\Horde_Share_Object&#45;&gt;\\Serializable</title>
<path fill="none" stroke="black" stroke-dasharray="1,5" d="M275.138,-162.099C226.059,-154.252 160.553,-143.78 113.901,-136.321"/>
<polygon fill="none" stroke="black" points="114.377,-132.853 103.95,-134.731 113.272,-139.765 114.377,-132.853"/>
</g>
<!-- \\Horde_Share_Exception -->
<g id="node3" class="node"><title>\\Horde_Share_Exception</title>
<polygon fill="none" stroke="black" points="1064.34,-198 906.34,-198 906.34,-162 1064.34,-162 1064.34,-198"/>
<text text-anchor="middle" x="985.34" y="-177.2" font-family="Courier,monospace" font-size="11.00">Horde_Share_Exception</text>
</g>
<!-- \\Horde_Exception_Wrapped -->
<g id="node12" class="node"><title>\\Horde_Exception_Wrapped</title>
<ellipse fill="none" stroke="black" cx="701.651" cy="-72" rx="112.38" ry="18"/>
<text text-anchor="middle" x="701.651" y="-68.3" font-family="Times,serif" font-size="14.00" fill="gray">\Horde_Exception_Wrapped</text>
</g>
<!-- \\Horde_Share_Exception&#45;&gt;\\Horde_Exception_Wrapped -->
<g id="edge3" class="edge"><title>\\Horde_Share_Exception&#45;&gt;\\Horde_Exception_Wrapped</title>
<path fill="none" stroke="black" d="M915.663,-161.871C908.822,-159.233 902.1,-156.282 895.84,-153 859.692,-134.049 860.894,-113.11 823.84,-96 815.617,-92.2033 806.81,-89.0061 797.834,-86.3139"/>
<polygon fill="none" stroke="black" points="798.621,-82.8999 788.049,-83.5864 796.742,-89.6429 798.621,-82.8999"/>
</g>
<!-- \\Horde_Share_Object_Kolab -->
<g id="node4" class="node"><title>\\Horde_Share_Object_Kolab</title>
<polygon fill="none" stroke="black" points="791.151,-144 612.151,-144 612.151,-108 791.151,-108 791.151,-144"/>
<text text-anchor="middle" x="701.651" y="-123.2" font-family="Courier,monospace" font-size="11.00">Horde_Share_Object_Kolab</text>
</g>
<!-- \\Horde_Share_Object_Kolab&#45;&gt;\\Horde_Share_Object -->
<g id="edge4" class="edge"><title>\\Horde_Share_Object_Kolab&#45;&gt;\\Horde_Share_Object</title>
<path fill="none" stroke="black" d="M611.904,-137.739C554.044,-145.392 479.231,-155.288 423.594,-162.647"/>
<polygon fill="none" stroke="black" points="422.892,-159.21 413.437,-163.991 423.81,-166.149 422.892,-159.21"/>
</g>
<!-- \\Horde_Share_Object_Kolab&#45;&gt;\\Serializable -->
<g id="edge5" class="edge"><title>\\Horde_Share_Object_Kolab&#45;&gt;\\Serializable</title>
<path fill="none" stroke="black" stroke-dasharray="1,5" d="M611.908,-110.642C600.756,-107.437 589.685,-103.595 579.461,-99 543.457,-82.8198 545.02,-59.1447 507.461,-47 369.486,-2.38508 320.408,-6.42728 181.19,-47 143.447,-57.9998 106.226,-84.1605 82.2257,-103.589"/>
<polygon fill="none" stroke="black" points="79.7788,-101.071 74.3086,-110.144 84.2432,-106.462 79.7788,-101.071"/>
</g>
<!-- \\Horde_Perms_Permission_Kolab_Storage -->
<g id="node13" class="node"><title>\\Horde_Perms_Permission_Kolab_Storage</title>
<ellipse fill="none" stroke="black" cx="344.326" cy="-74" rx="163.271" ry="18"/>
<text text-anchor="middle" x="344.326" y="-70.3" font-family="Times,serif" font-size="14.00" fill="gray">\Horde_Perms_Permission_Kolab_Storage</text>
</g>
<!-- \\Horde_Share_Object_Kolab&#45;&gt;\\Horde_Perms_Permission_Kolab_Storage -->
<g id="edge6" class="edge"><title>\\Horde_Share_Object_Kolab&#45;&gt;\\Horde_Perms_Permission_Kolab_Storage</title>
<path fill="none" stroke="black" stroke-dasharray="1,5" d="M611.74,-111.828C578.981,-106.702 541.553,-100.96 507.461,-96 491.981,-93.748 475.658,-91.4468 459.571,-89.2218"/>
<polygon fill="none" stroke="black" points="459.978,-85.745 449.594,-87.8474 459.023,-92.6795 459.978,-85.745"/>
</g>
<!-- \\Horde_Share_Object_Sqlng -->
<g id="node5" class="node"><title>\\Horde_Share_Object_Sqlng</title>
<polygon fill="none" stroke="black" points="1074.84,-252 895.84,-252 895.84,-216 1074.84,-216 1074.84,-252"/>
<text text-anchor="middle" x="985.34" y="-231.2" font-family="Courier,monospace" font-size="11.00">Horde_Share_Object_Sqlng</text>
</g>
<!-- \\Horde_Share_Object_Sql -->
<g id="node6" class="node"><title>\\Horde_Share_Object_Sql</title>
<polygon fill="none" stroke="black" points="784.151,-198 619.151,-198 619.151,-162 784.151,-162 784.151,-198"/>
<text text-anchor="middle" x="701.651" y="-177.2" font-family="Courier,monospace" font-size="11.00">Horde_Share_Object_Sql</text>
</g>
<!-- \\Horde_Share_Object_Sqlng&#45;&gt;\\Horde_Share_Object_Sql -->
<g id="edge7" class="edge"><title>\\Horde_Share_Object_Sqlng&#45;&gt;\\Horde_Share_Object_Sql</title>
<path fill="none" stroke="black" d="M895.598,-216.988C863.299,-210.796 826.745,-203.789 794.207,-197.551"/>
<polygon fill="none" stroke="black" points="794.727,-194.088 784.247,-195.642 793.409,-200.962 794.727,-194.088"/>
</g>
<!-- \\Horde_Share_Object_Sql&#45;&gt;\\Horde_Share_Object -->
<g id="edge8" class="edge"><title>\\Horde_Share_Object_Sql&#45;&gt;\\Horde_Share_Object</title>
<path fill="none" stroke="black" d="M619.132,-178.394C560.373,-177.236 481.536,-175.683 423.548,-174.541"/>
<polygon fill="none" stroke="black" points="423.404,-171.038 413.337,-174.34 423.266,-178.036 423.404,-171.038"/>
</g>
<!-- \\Horde_Share_Object_Sql&#45;&gt;\\Serializable -->
<g id="edge9" class="edge"><title>\\Horde_Share_Object_Sql&#45;&gt;\\Serializable</title>
<path fill="none" stroke="black" stroke-dasharray="1,5" d="M618.738,-163.116C584.494,-156.702 544.196,-149.987 507.461,-146 369.677,-131.045 207.076,-127.68 119.385,-127.032"/>
<polygon fill="none" stroke="black" points="119.349,-123.532 109.327,-126.968 119.304,-130.532 119.349,-123.532"/>
</g>
<!-- \\Horde_Share_Sqlng -->
<g id="node7" class="node"><title>\\Horde_Share_Sqlng</title>
<polygon fill="none" stroke="black" points="1050.84,-306 919.84,-306 919.84,-270 1050.84,-270 1050.84,-306"/>
<text text-anchor="middle" x="985.34" y="-285.2" font-family="Courier,monospace" font-size="11.00">Horde_Share_Sqlng</text>
</g>
<!-- \\Horde_Share_Sql -->
<g id="node8" class="node"><title>\\Horde_Share_Sql</title>
<polygon fill="none" stroke="black" points="760.651,-252 642.651,-252 642.651,-216 760.651,-216 760.651,-252"/>
<text text-anchor="middle" x="701.651" y="-231.2" font-family="Courier,monospace" font-size="11.00">Horde_Share_Sql</text>
</g>
<!-- \\Horde_Share_Sqlng&#45;&gt;\\Horde_Share_Sql -->
<g id="edge10" class="edge"><title>\\Horde_Share_Sqlng&#45;&gt;\\Horde_Share_Sql</title>
<path fill="none" stroke="black" d="M919.714,-275.611C875.167,-267.071 816.061,-255.741 770.776,-247.06"/>
<polygon fill="none" stroke="black" points="771.231,-243.583 760.751,-245.138 769.913,-250.458 771.231,-243.583"/>
</g>
<!-- \\Horde_Share_Sql&#45;&gt;\\Horde_Share_Base -->
<g id="edge11" class="edge"><title>\\Horde_Share_Sql&#45;&gt;\\Horde_Share_Base</title>
<path fill="none" stroke="black" d="M642.374,-238.428C580.795,-243.107 483.601,-250.493 417.284,-255.532"/>
<polygon fill="none" stroke="black" points="416.622,-252.072 406.916,-256.32 417.153,-259.052 416.622,-252.072"/>
</g>
<!-- \\Horde_Share_Translation -->
<g id="node10" class="node"><title>\\Horde_Share_Translation</title>
<polygon fill="none" stroke="black" points="1071.34,-144 899.34,-144 899.34,-108 1071.34,-108 1071.34,-144"/>
<text text-anchor="middle" x="985.34" y="-123.2" font-family="Courier,monospace" font-size="11.00">Horde_Share_Translation</text>
</g>
<!-- \\Horde_Translation_Autodetect -->
<g id="node14" class="node"><title>\\Horde_Translation_Autodetect</title>
<ellipse fill="none" stroke="black" cx="701.651" cy="-18" rx="122.379" ry="18"/>
<text text-anchor="middle" x="701.651" y="-14.3" font-family="Times,serif" font-size="14.00" fill="gray">\Horde_Translation_Autodetect</text>
</g>
<!-- \\Horde_Share_Translation&#45;&gt;\\Horde_Translation_Autodetect -->
<g id="edge12" class="edge"><title>\\Horde_Share_Translation&#45;&gt;\\Horde_Translation_Autodetect</title>
<path fill="none" stroke="black" d="M954.279,-107.972C922.759,-89.7629 871.306,-61.9667 823.84,-45 812.739,-41.0322 800.851,-37.5274 789.018,-34.469"/>
<polygon fill="none" stroke="black" points="789.659,-31.0219 779.11,-32.0046 787.969,-37.8149 789.659,-31.0219"/>
</g>
</g>
</svg>
