<?xml version="1.0" encoding="UTF-8" standalone="no"?>
<!DOCTYPE svg PUBLIC "-//W3C//DTD SVG 1.1//EN"
 "http://www.w3.org/Graphics/SVG/1.1/DTD/svg11.dtd">
<!-- Generated by graphviz version 2.38.0 (20140413.2041)
 -->
<!-- Title: G Pages: 1 -->
<svg width="539pt" height="780pt"
 viewBox="0.00 0.00 539.38 780.00" xmlns="http://www.w3.org/2000/svg" xmlns:xlink="http://www.w3.org/1999/xlink">
<g id="graph0" class="graph" transform="scale(1 1) rotate(0) translate(4 776)">
<title>G</title>
<polygon fill="white" stroke="none" points="-4,4 -4,-776 535.378,-776 535.378,4 -4,4"/>
<g id="clust1" class="cluster"><title>cluster_Global</title>
<path fill="none" stroke="gray" d="M67.1892,-98C67.1892,-98 511.378,-98 511.378,-98 517.378,-98 523.378,-104 523.378,-110 523.378,-110 523.378,-752 523.378,-752 523.378,-758 517.378,-764 511.378,-764 511.378,-764 67.1892,-764 67.1892,-764 61.1892,-764 55.1892,-758 55.1892,-752 55.1892,-752 55.1892,-110 55.1892,-110 55.1892,-104 61.1892,-98 67.1892,-98"/>
<text text-anchor="middle" x="289.284" y="-751.2" font-family="Times,serif" font-size="11.00" fill="gray">Global</text>
</g>
<!-- \\Horde_Icalendar -->
<g id="node1" class="node"><title>\\Horde_Icalendar</title>
<polygon fill="none" stroke="black" points="181.189,-493 63.1892,-493 63.1892,-457 181.189,-457 181.189,-493"/>
<text text-anchor="middle" x="122.189" y="-472.2" font-family="Courier,monospace" font-size="11.00">Horde_Icalendar</text>
</g>
<!-- \\Horde_Icalendar_Standard -->
<g id="node2" class="node"><title>\\Horde_Icalendar_Standard</title>
<polygon fill="none" stroke="black" points="505.378,-736 326.378,-736 326.378,-700 505.378,-700 505.378,-736"/>
<text text-anchor="middle" x="415.878" y="-715.2" font-family="Courier,monospace" font-size="11.00">Horde_Icalendar_Standard</text>
</g>
<!-- \\Horde_Icalendar_Standard&#45;&gt;\\Horde_Icalendar -->
<g id="edge1" class="edge"><title>\\Horde_Icalendar_Standard&#45;&gt;\\Horde_Icalendar</title>
<path fill="none" stroke="black" d="M333.699,-699.896C327.655,-697.309 321.806,-694.36 316.378,-691 235.77,-641.099 169.157,-547.628 139.611,-501.766"/>
<polygon fill="none" stroke="black" points="142.52,-499.818 134.203,-493.256 136.612,-503.573 142.52,-499.818"/>
</g>
<!-- \\Horde_Icalendar_Daylight -->
<g id="node3" class="node"><title>\\Horde_Icalendar_Daylight</title>
<polygon fill="none" stroke="black" points="505.378,-682 326.378,-682 326.378,-646 505.378,-646 505.378,-682"/>
<text text-anchor="middle" x="415.878" y="-661.2" font-family="Courier,monospace" font-size="11.00">Horde_Icalendar_Daylight</text>
</g>
<!-- \\Horde_Icalendar_Daylight&#45;&gt;\\Horde_Icalendar -->
<g id="edge2" class="edge"><title>\\Horde_Icalendar_Daylight&#45;&gt;\\Horde_Icalendar</title>
<path fill="none" stroke="black" d="M336.774,-645.996C329.721,-643.36 322.818,-640.374 316.378,-637 247.353,-600.829 180.899,-536.617 146.824,-500.86"/>
<polygon fill="none" stroke="black" points="149.067,-498.137 139.661,-493.26 143.973,-502.938 149.067,-498.137"/>
</g>
<!-- \\Horde_Icalendar_Exception -->
<g id="node4" class="node"><title>\\Horde_Icalendar_Exception</title>
<polygon fill="none" stroke="black" points="508.378,-196 323.378,-196 323.378,-160 508.378,-160 508.378,-196"/>
<text text-anchor="middle" x="415.878" y="-175.2" font-family="Courier,monospace" font-size="11.00">Horde_Icalendar_Exception</text>
</g>
<!-- \\Horde_Exception_Wrapped -->
<g id="node14" class="node"><title>\\Horde_Exception_Wrapped</title>
<ellipse fill="none" stroke="black" cx="122.189" cy="-72" rx="112.38" ry="18"/>
<text text-anchor="middle" x="122.189" y="-68.3" font-family="Times,serif" font-size="14.00" fill="gray">\Horde_Exception_Wrapped</text>
</g>
<!-- \\Horde_Icalendar_Exception&#45;&gt;\\Horde_Exception_Wrapped -->
<g id="edge3" class="edge"><title>\\Horde_Icalendar_Exception&#45;&gt;\\Horde_Exception_Wrapped</title>
<path fill="none" stroke="black" d="M337.391,-159.993C330.138,-157.35 323.023,-154.363 316.378,-151 279.964,-132.567 281.568,-110.814 244.378,-94 237.254,-90.7791 229.693,-88.0295 221.965,-85.6822"/>
<polygon fill="none" stroke="black" points="222.681,-82.248 212.107,-82.919 220.791,-88.9882 222.681,-82.248"/>
</g>
<!-- \\Horde_Icalendar_Valarm -->
<g id="node5" class="node"><title>\\Horde_Icalendar_Valarm</title>
<polygon fill="none" stroke="black" points="498.378,-628 333.378,-628 333.378,-592 498.378,-592 498.378,-628"/>
<text text-anchor="middle" x="415.878" y="-607.2" font-family="Courier,monospace" font-size="11.00">Horde_Icalendar_Valarm</text>
</g>
<!-- \\Horde_Icalendar_Valarm&#45;&gt;\\Horde_Icalendar -->
<g id="edge4" class="edge"><title>\\Horde_Icalendar_Valarm&#45;&gt;\\Horde_Icalendar</title>
<path fill="none" stroke="black" d="M341.331,-591.963C332.815,-589.252 324.337,-586.259 316.378,-583 258.933,-559.477 197.057,-522.634 159.218,-498.65"/>
<polygon fill="none" stroke="black" points="160.907,-495.576 150.596,-493.143 157.139,-501.476 160.907,-495.576"/>
</g>
<!-- \\Horde_Icalendar_Vfreebusy -->
<g id="node6" class="node"><title>\\Horde_Icalendar_Vfreebusy</title>
<polygon fill="none" stroke="black" points="508.378,-574 323.378,-574 323.378,-538 508.378,-538 508.378,-574"/>
<text text-anchor="middle" x="415.878" y="-553.2" font-family="Courier,monospace" font-size="11.00">Horde_Icalendar_Vfreebusy</text>
</g>
<!-- \\Horde_Icalendar_Vfreebusy&#45;&gt;\\Horde_Icalendar -->
<g id="edge5" class="edge"><title>\\Horde_Icalendar_Vfreebusy&#45;&gt;\\Horde_Icalendar</title>
<path fill="none" stroke="black" d="M348.901,-537.964C338.033,-534.979 326.888,-531.909 316.378,-529 274.785,-517.486 228.189,-504.466 191.181,-494.095"/>
<polygon fill="none" stroke="black" points="192.074,-490.71 181.5,-491.381 190.184,-497.451 192.074,-490.71"/>
</g>
<!-- \\Horde_Icalendar_Vtodo -->
<g id="node7" class="node"><title>\\Horde_Icalendar_Vtodo</title>
<polygon fill="none" stroke="black" points="494.878,-520 336.878,-520 336.878,-484 494.878,-484 494.878,-520"/>
<text text-anchor="middle" x="415.878" y="-499.2" font-family="Courier,monospace" font-size="11.00">Horde_Icalendar_Vtodo</text>
</g>
<!-- \\Horde_Icalendar_Vtodo&#45;&gt;\\Horde_Icalendar -->
<g id="edge6" class="edge"><title>\\Horde_Icalendar_Vtodo&#45;&gt;\\Horde_Icalendar</title>
<path fill="none" stroke="black" d="M336.711,-494.764C291.405,-490.571 234.902,-485.341 191.403,-481.314"/>
<polygon fill="none" stroke="black" points="191.485,-477.807 181.204,-480.37 190.839,-484.777 191.485,-477.807"/>
</g>
<!-- \\Horde_Icalendar_Vtimezone -->
<g id="node8" class="node"><title>\\Horde_Icalendar_Vtimezone</title>
<polygon fill="none" stroke="black" points="508.378,-466 323.378,-466 323.378,-430 508.378,-430 508.378,-466"/>
<text text-anchor="middle" x="415.878" y="-445.2" font-family="Courier,monospace" font-size="11.00">Horde_Icalendar_Vtimezone</text>
</g>
<!-- \\Horde_Icalendar_Vtimezone&#45;&gt;\\Horde_Icalendar -->
<g id="edge7" class="edge"><title>\\Horde_Icalendar_Vtimezone&#45;&gt;\\Horde_Icalendar</title>
<path fill="none" stroke="black" d="M322.986,-456.506C280.434,-460.445 230.748,-465.044 191.57,-468.67"/>
<polygon fill="none" stroke="black" points="191.224,-465.187 181.589,-469.594 191.869,-472.158 191.224,-465.187"/>
</g>
<!-- \\Horde_Icalendar_Vcard -->
<g id="node9" class="node"><title>\\Horde_Icalendar_Vcard</title>
<polygon fill="none" stroke="black" points="494.878,-412 336.878,-412 336.878,-376 494.878,-376 494.878,-412"/>
<text text-anchor="middle" x="415.878" y="-391.2" font-family="Courier,monospace" font-size="11.00">Horde_Icalendar_Vcard</text>
</g>
<!-- \\Horde_Icalendar_Vcard&#45;&gt;\\Horde_Icalendar -->
<g id="edge8" class="edge"><title>\\Horde_Icalendar_Vcard&#45;&gt;\\Horde_Icalendar</title>
<path fill="none" stroke="black" d="M348.901,-412.036C338.033,-415.021 326.888,-418.091 316.378,-421 274.785,-432.514 228.189,-445.534 191.181,-455.905"/>
<polygon fill="none" stroke="black" points="190.184,-452.549 181.5,-458.619 192.074,-459.29 190.184,-452.549"/>
</g>
<!-- \\Horde_Icalendar_Vnote -->
<g id="node10" class="node"><title>\\Horde_Icalendar_Vnote</title>
<polygon fill="none" stroke="black" points="494.878,-358 336.878,-358 336.878,-322 494.878,-322 494.878,-358"/>
<text text-anchor="middle" x="415.878" y="-337.2" font-family="Courier,monospace" font-size="11.00">Horde_Icalendar_Vnote</text>
</g>
<!-- \\Horde_Icalendar_Vnote&#45;&gt;\\Horde_Icalendar -->
<g id="edge9" class="edge"><title>\\Horde_Icalendar_Vnote&#45;&gt;\\Horde_Icalendar</title>
<path fill="none" stroke="black" d="M341.331,-358.037C332.815,-360.748 324.337,-363.741 316.378,-367 258.933,-390.523 197.057,-427.366 159.218,-451.35"/>
<polygon fill="none" stroke="black" points="157.139,-448.524 150.596,-456.857 160.907,-454.424 157.139,-448.524"/>
</g>
<!-- \\Horde_Icalendar_Vevent -->
<g id="node11" class="node"><title>\\Horde_Icalendar_Vevent</title>
<polygon fill="none" stroke="black" points="498.378,-304 333.378,-304 333.378,-268 498.378,-268 498.378,-304"/>
<text text-anchor="middle" x="415.878" y="-283.2" font-family="Courier,monospace" font-size="11.00">Horde_Icalendar_Vevent</text>
</g>
<!-- \\Horde_Icalendar_Vevent&#45;&gt;\\Horde_Icalendar -->
<g id="edge10" class="edge"><title>\\Horde_Icalendar_Vevent&#45;&gt;\\Horde_Icalendar</title>
<path fill="none" stroke="black" d="M336.774,-304.004C329.721,-306.64 322.818,-309.626 316.378,-313 247.353,-349.171 180.899,-413.383 146.824,-449.14"/>
<polygon fill="none" stroke="black" points="143.973,-447.062 139.661,-456.74 149.067,-451.863 143.973,-447.062"/>
</g>
<!-- \\Horde_Icalendar_Vjournal -->
<g id="node12" class="node"><title>\\Horde_Icalendar_Vjournal</title>
<polygon fill="none" stroke="black" points="505.378,-250 326.378,-250 326.378,-214 505.378,-214 505.378,-250"/>
<text text-anchor="middle" x="415.878" y="-229.2" font-family="Courier,monospace" font-size="11.00">Horde_Icalendar_Vjournal</text>
</g>
<!-- \\Horde_Icalendar_Vjournal&#45;&gt;\\Horde_Icalendar -->
<g id="edge11" class="edge"><title>\\Horde_Icalendar_Vjournal&#45;&gt;\\Horde_Icalendar</title>
<path fill="none" stroke="black" d="M333.699,-250.104C327.655,-252.691 321.806,-255.64 316.378,-259 235.77,-308.901 169.157,-402.372 139.611,-448.234"/>
<polygon fill="none" stroke="black" points="136.612,-446.427 134.203,-456.744 142.52,-450.182 136.612,-446.427"/>
</g>
<!-- \\Horde_Icalendar_Translation -->
<g id="node13" class="node"><title>\\Horde_Icalendar_Translation</title>
<polygon fill="none" stroke="black" points="515.378,-142 316.378,-142 316.378,-106 515.378,-106 515.378,-142"/>
<text text-anchor="middle" x="415.878" y="-121.2" font-family="Courier,monospace" font-size="11.00">Horde_Icalendar_Translation</text>
</g>
<!-- \\Horde_Translation_Autodetect -->
<g id="node15" class="node"><title>\\Horde_Translation_Autodetect</title>
<ellipse fill="none" stroke="black" cx="122.189" cy="-18" rx="122.379" ry="18"/>
<text text-anchor="middle" x="122.189" y="-14.3" font-family="Times,serif" font-size="14.00" fill="gray">\Horde_Translation_Autodetect</text>
</g>
<!-- \\Horde_Icalendar_Translation&#45;&gt;\\Horde_Translation_Autodetect -->
<g id="edge12" class="edge"><title>\\Horde_Icalendar_Translation&#45;&gt;\\Horde_Translation_Autodetect</title>
<path fill="none" stroke="black" d="M381.472,-105.902C347.721,-88.2508 293.663,-61.6918 244.378,-45 232.86,-41.0989 220.532,-37.6059 208.312,-34.5307"/>
<polygon fill="none" stroke="black" points="209.096,-31.1194 198.551,-32.1541 207.44,-37.9206 209.096,-31.1194"/>
</g>
</g>
</svg>
