<?xml version="1.0" encoding="UTF-8" standalone="no"?>
<!DOCTYPE svg PUBLIC "-//W3C//DTD SVG 1.1//EN"
 "http://www.w3.org/Graphics/SVG/1.1/DTD/svg11.dtd">
<!-- Generated by graphviz version 2.38.0 (20140413.2041)
 -->
<!-- Title: G Pages: 1 -->
<svg width="794pt" height="672pt"
 viewBox="0.00 0.00 794.00 672.00" xmlns="http://www.w3.org/2000/svg" xmlns:xlink="http://www.w3.org/1999/xlink">
<g id="graph0" class="graph" transform="scale(1 1) rotate(0) translate(4 668)">
<title>G</title>
<polygon fill="white" stroke="none" points="-4,4 -4,-668 790,-668 790,4 -4,4"/>
<g id="clust1" class="cluster"><title>cluster_Global</title>
<path fill="none" stroke="gray" d="M20,-44C20,-44 766,-44 766,-44 772,-44 778,-50 778,-56 778,-56 778,-644 778,-644 778,-650 772,-656 766,-656 766,-656 20,-656 20,-656 14,-656 8,-650 8,-644 8,-644 8,-56 8,-56 8,-50 14,-44 20,-44"/>
<text text-anchor="middle" x="393" y="-643.2" font-family="Times,serif" font-size="11.00" fill="gray">Global</text>
</g>
<!-- \\Horde_Http -->
<g id="node1" class="node"><title>\\Horde_Http</title>
<polygon fill="none" stroke="black" points="706,-628 622,-628 622,-592 706,-592 706,-628"/>
<text text-anchor="middle" x="664" y="-607.2" font-family="Courier,monospace" font-size="11.00">Horde_Http</text>
</g>
<!-- \\Horde_Http_Exception -->
<g id="node2" class="node"><title>\\Horde_Http_Exception</title>
<polygon fill="none" stroke="black" points="740,-142 588,-142 588,-106 740,-106 740,-142"/>
<text text-anchor="middle" x="664" y="-121.2" font-family="Courier,monospace" font-size="11.00">Horde_Http_Exception</text>
</g>
<!-- \\Horde_Exception_Wrapped -->
<g id="node18" class="node"><title>\\Horde_Exception_Wrapped</title>
<ellipse fill="none" stroke="black" cx="373" cy="-18" rx="112.38" ry="18"/>
<text text-anchor="middle" x="373" y="-14.3" font-family="Times,serif" font-size="14.00" fill="gray">\Horde_Exception_Wrapped</text>
</g>
<!-- \\Horde_Http_Exception&#45;&gt;\\Horde_Exception_Wrapped -->
<g id="edge1" class="edge"><title>\\Horde_Http_Exception&#45;&gt;\\Horde_Exception_Wrapped</title>
<path fill="none" stroke="black" d="M587.885,-108.803C577.593,-105.543 567.357,-101.644 558,-97 521.441,-78.8564 523.068,-57.0809 486,-40 480.213,-37.3332 474.112,-34.9893 467.869,-32.9292"/>
<polygon fill="none" stroke="black" points="468.549,-29.4781 457.963,-29.9199 466.514,-36.1758 468.549,-29.4781"/>
</g>
<!-- \\Horde_Http_Request_Factory -->
<g id="node3" class="node"><title>\\Horde_Http_Request_Factory</title>
<polygon fill="none" stroke="black" points="760,-520 568,-520 568,-484 760,-484 760,-520"/>
<text text-anchor="middle" x="664" y="-499.2" font-family="Courier,monospace" font-size="11.00">Horde_Http_Request_Factory</text>
</g>
<!-- \\Horde_Http_Request_PeclhttpBase -->
<g id="node4" class="node"><title>\\Horde_Http_Request_PeclhttpBase</title>
<polygon fill="none" stroke="black" points="486,-466 260,-466 260,-430 486,-430 486,-466"/>
<text text-anchor="start" x="339" y="-451.2" font-family="Courier,monospace" font-size="11.00">«abstract»</text>
<text text-anchor="start" x="268" y="-439.2" font-family="Courier,monospace" font-size="11.00">Horde_Http_Request_PeclhttpBase</text>
</g>
<!-- \\Horde_Http_Request_Base -->
<g id="node9" class="node"><title>\\Horde_Http_Request_Base</title>
<polygon fill="none" stroke="black" points="188,-547 16,-547 16,-511 188,-511 188,-547"/>
<text text-anchor="start" x="68" y="-532.2" font-family="Courier,monospace" font-size="11.00">«abstract»</text>
<text text-anchor="start" x="24" y="-520.2" font-family="Courier,monospace" font-size="11.00">Horde_Http_Request_Base</text>
</g>
<!-- \\Horde_Http_Request_PeclhttpBase&#45;&gt;\\Horde_Http_Request_Base -->
<g id="edge2" class="edge"><title>\\Horde_Http_Request_PeclhttpBase&#45;&gt;\\Horde_Http_Request_Base</title>
<path fill="none" stroke="black" d="M293.12,-466.021C281.956,-468.86 270.656,-471.89 260,-475 227.061,-484.612 190.807,-496.961 161.443,-507.424"/>
<polygon fill="none" stroke="black" points="159.997,-504.224 151.764,-510.893 162.359,-510.813 159.997,-504.224"/>
</g>
<!-- \\Horde_Http_Request_Fopen -->
<g id="node5" class="node"><title>\\Horde_Http_Request_Fopen</title>
<polygon fill="none" stroke="black" points="462.5,-574 283.5,-574 283.5,-538 462.5,-538 462.5,-574"/>
<text text-anchor="middle" x="373" y="-553.2" font-family="Courier,monospace" font-size="11.00">Horde_Http_Request_Fopen</text>
</g>
<!-- \\Horde_Http_Request_Fopen&#45;&gt;\\Horde_Http_Request_Base -->
<g id="edge3" class="edge"><title>\\Horde_Http_Request_Fopen&#45;&gt;\\Horde_Http_Request_Base</title>
<path fill="none" stroke="black" d="M283.174,-547.084C255.915,-544.348 225.815,-541.327 198.151,-538.55"/>
<polygon fill="none" stroke="black" points="198.378,-535.056 188.079,-537.539 197.679,-542.021 198.378,-535.056"/>
</g>
<!-- \\Horde_Http_Request_Peclhttp2 -->
<g id="node6" class="node"><title>\\Horde_Http_Request_Peclhttp2</title>
<polygon fill="none" stroke="black" points="767,-466 561,-466 561,-430 767,-430 767,-466"/>
<text text-anchor="middle" x="664" y="-445.2" font-family="Courier,monospace" font-size="11.00">Horde_Http_Request_Peclhttp2</text>
</g>
<!-- \\Horde_Http_Request_Peclhttp2&#45;&gt;\\Horde_Http_Request_PeclhttpBase -->
<g id="edge4" class="edge"><title>\\Horde_Http_Request_Peclhttp2&#45;&gt;\\Horde_Http_Request_PeclhttpBase</title>
<path fill="none" stroke="black" d="M560.703,-448C539.957,-448 517.938,-448 496.575,-448"/>
<polygon fill="none" stroke="black" points="496.482,-444.5 486.482,-448 496.482,-451.5 496.482,-444.5"/>
</g>
<!-- \\Horde_Http_Request_Mock -->
<g id="node7" class="node"><title>\\Horde_Http_Request_Mock</title>
<polygon fill="none" stroke="black" points="459,-520 287,-520 287,-484 459,-484 459,-520"/>
<text text-anchor="middle" x="373" y="-499.2" font-family="Courier,monospace" font-size="11.00">Horde_Http_Request_Mock</text>
</g>
<!-- \\Horde_Http_Request_Mock&#45;&gt;\\Horde_Http_Request_Base -->
<g id="edge5" class="edge"><title>\\Horde_Http_Request_Mock&#45;&gt;\\Horde_Http_Request_Base</title>
<path fill="none" stroke="black" d="M286.887,-510.543C258.66,-513.376 227.064,-516.547 198.133,-519.451"/>
<polygon fill="none" stroke="black" points="197.621,-515.985 188.021,-520.466 198.321,-522.95 197.621,-515.985"/>
</g>
<!-- \\Horde_Http_Request_Peclhttp -->
<g id="node8" class="node"><title>\\Horde_Http_Request_Peclhttp</title>
<polygon fill="none" stroke="black" points="763.5,-574 564.5,-574 564.5,-538 763.5,-538 763.5,-574"/>
<text text-anchor="middle" x="664" y="-553.2" font-family="Courier,monospace" font-size="11.00">Horde_Http_Request_Peclhttp</text>
</g>
<!-- \\Horde_Http_Request_Peclhttp&#45;&gt;\\Horde_Http_Request_PeclhttpBase -->
<g id="edge6" class="edge"><title>\\Horde_Http_Request_Peclhttp&#45;&gt;\\Horde_Http_Request_PeclhttpBase</title>
<path fill="none" stroke="black" d="M579.938,-537.923C572.379,-535.303 564.957,-532.34 558,-529 521.94,-511.688 522.19,-492.039 486,-475 481.868,-473.054 477.581,-471.241 473.201,-469.552"/>
<polygon fill="none" stroke="black" points="474.081,-466.149 463.487,-466.049 471.707,-472.734 474.081,-466.149"/>
</g>
<!-- \\Horde_Http_Request_Curl -->
<g id="node10" class="node"><title>\\Horde_Http_Request_Curl</title>
<polygon fill="none" stroke="black" points="459,-628 287,-628 287,-592 459,-592 459,-628"/>
<text text-anchor="middle" x="373" y="-607.2" font-family="Courier,monospace" font-size="11.00">Horde_Http_Request_Curl</text>
</g>
<!-- \\Horde_Http_Request_Curl&#45;&gt;\\Horde_Http_Request_Base -->
<g id="edge7" class="edge"><title>\\Horde_Http_Request_Curl&#45;&gt;\\Horde_Http_Request_Base</title>
<path fill="none" stroke="black" d="M293.12,-591.979C281.956,-589.14 270.656,-586.11 260,-583 227.061,-573.388 190.807,-561.039 161.443,-550.576"/>
<polygon fill="none" stroke="black" points="162.359,-547.187 151.764,-547.107 159.997,-553.776 162.359,-547.187"/>
</g>
<!-- \\Horde_Http_Response_Fopen -->
<g id="node11" class="node"><title>\\Horde_Http_Response_Fopen</title>
<polygon fill="none" stroke="black" points="756.5,-358 571.5,-358 571.5,-322 756.5,-322 756.5,-358"/>
<text text-anchor="middle" x="664" y="-337.2" font-family="Courier,monospace" font-size="11.00">Horde_Http_Response_Fopen</text>
</g>
<!-- \\Horde_Http_Response_Base -->
<g id="node15" class="node"><title>\\Horde_Http_Response_Base</title>
<polygon fill="none" stroke="black" points="462.5,-304 283.5,-304 283.5,-268 462.5,-268 462.5,-304"/>
<text text-anchor="start" x="339" y="-289.2" font-family="Courier,monospace" font-size="11.00">«abstract»</text>
<text text-anchor="start" x="291.5" y="-277.2" font-family="Courier,monospace" font-size="11.00">Horde_Http_Response_Base</text>
</g>
<!-- \\Horde_Http_Response_Fopen&#45;&gt;\\Horde_Http_Response_Base -->
<g id="edge8" class="edge"><title>\\Horde_Http_Response_Fopen&#45;&gt;\\Horde_Http_Response_Base</title>
<path fill="none" stroke="black" d="M571.162,-322.84C539.842,-316.988 504.699,-310.421 472.853,-304.471"/>
<polygon fill="none" stroke="black" points="473.111,-300.958 462.638,-302.562 471.825,-307.839 473.111,-300.958"/>
</g>
<!-- \\Horde_Http_Response_Peclhttp2 -->
<g id="node12" class="node"><title>\\Horde_Http_Response_Peclhttp2</title>
<polygon fill="none" stroke="black" points="770,-304 558,-304 558,-268 770,-268 770,-304"/>
<text text-anchor="middle" x="664" y="-283.2" font-family="Courier,monospace" font-size="11.00">Horde_Http_Response_Peclhttp2</text>
</g>
<!-- \\Horde_Http_Response_Peclhttp2&#45;&gt;\\Horde_Http_Response_Base -->
<g id="edge9" class="edge"><title>\\Horde_Http_Response_Peclhttp2&#45;&gt;\\Horde_Http_Response_Base</title>
<path fill="none" stroke="black" d="M557.847,-286C530.227,-286 500.531,-286 473.232,-286"/>
<polygon fill="none" stroke="black" points="472.897,-282.5 462.897,-286 472.897,-289.5 472.897,-282.5"/>
</g>
<!-- \\Horde_Http_Response_Mock -->
<g id="node13" class="node"><title>\\Horde_Http_Response_Mock</title>
<polygon fill="none" stroke="black" points="753.5,-250 574.5,-250 574.5,-214 753.5,-214 753.5,-250"/>
<text text-anchor="middle" x="664" y="-229.2" font-family="Courier,monospace" font-size="11.00">Horde_Http_Response_Mock</text>
</g>
<!-- \\Horde_Http_Response_Mock&#45;&gt;\\Horde_Http_Response_Base -->
<g id="edge10" class="edge"><title>\\Horde_Http_Response_Mock&#45;&gt;\\Horde_Http_Response_Base</title>
<path fill="none" stroke="black" d="M574.326,-248.569C542.148,-254.581 505.604,-261.41 472.619,-267.573"/>
<polygon fill="none" stroke="black" points="471.693,-264.185 462.506,-269.463 472.979,-271.066 471.693,-264.185"/>
</g>
<!-- \\Horde_Http_Response_Peclhttp -->
<g id="node14" class="node"><title>\\Horde_Http_Response_Peclhttp</title>
<polygon fill="none" stroke="black" points="767,-196 561,-196 561,-160 767,-160 767,-196"/>
<text text-anchor="middle" x="664" y="-175.2" font-family="Courier,monospace" font-size="11.00">Horde_Http_Response_Peclhttp</text>
</g>
<!-- \\Horde_Http_Response_Peclhttp&#45;&gt;\\Horde_Http_Response_Base -->
<g id="edge11" class="edge"><title>\\Horde_Http_Response_Peclhttp&#45;&gt;\\Horde_Http_Response_Base</title>
<path fill="none" stroke="black" d="M586.857,-196.012C577.073,-198.784 567.249,-201.799 558,-205 509.707,-221.714 456.467,-245.805 419.735,-263.368"/>
<polygon fill="none" stroke="black" points="417.791,-260.419 410.299,-267.91 420.827,-266.726 417.791,-260.419"/>
</g>
<!-- \\Horde_Http_Response_Curl -->
<g id="node16" class="node"><title>\\Horde_Http_Response_Curl</title>
<polygon fill="none" stroke="black" points="753.5,-412 574.5,-412 574.5,-376 753.5,-376 753.5,-412"/>
<text text-anchor="middle" x="664" y="-391.2" font-family="Courier,monospace" font-size="11.00">Horde_Http_Response_Curl</text>
</g>
<!-- \\Horde_Http_Response_Curl&#45;&gt;\\Horde_Http_Response_Base -->
<g id="edge12" class="edge"><title>\\Horde_Http_Response_Curl&#45;&gt;\\Horde_Http_Response_Base</title>
<path fill="none" stroke="black" d="M586.857,-375.988C577.073,-373.216 567.249,-370.201 558,-367 509.707,-350.286 456.467,-326.195 419.735,-308.632"/>
<polygon fill="none" stroke="black" points="420.827,-305.274 410.299,-304.09 417.791,-311.581 420.827,-305.274"/>
</g>
<!-- \\Horde_Http_Client -->
<g id="node17" class="node"><title>\\Horde_Http_Client</title>
<polygon fill="none" stroke="black" points="729.5,-88 598.5,-88 598.5,-52 729.5,-52 729.5,-88"/>
<text text-anchor="middle" x="664" y="-67.2" font-family="Courier,monospace" font-size="11.00">Horde_Http_Client</text>
</g>
</g>
</svg>
