<?xml version="1.0" encoding="UTF-8" standalone="no"?>
<!DOCTYPE svg PUBLIC "-//W3C//DTD SVG 1.1//EN"
 "http://www.w3.org/Graphics/SVG/1.1/DTD/svg11.dtd">
<!-- Generated by graphviz version 2.38.0 (20140413.2041)
 -->
<!-- Title: G Pages: 1 -->
<svg width="572pt" height="1104pt"
 viewBox="0.00 0.00 572.08 1104.00" xmlns="http://www.w3.org/2000/svg" xmlns:xlink="http://www.w3.org/1999/xlink">
<g id="graph0" class="graph" transform="scale(1 1) rotate(0) translate(4 1100)">
<title>G</title>
<polygon fill="white" stroke="none" points="-4,4 -4,-1100 568.08,-1100 568.08,4 -4,4"/>
<g id="clust1" class="cluster"><title>cluster_Global</title>
<path fill="none" stroke="gray" d="M50.0398,-422C50.0398,-422 544.08,-422 544.08,-422 550.08,-422 556.08,-428 556.08,-434 556.08,-434 556.08,-1076 556.08,-1076 556.08,-1082 550.08,-1088 544.08,-1088 544.08,-1088 50.0398,-1088 50.0398,-1088 44.0398,-1088 38.0398,-1082 38.0398,-1076 38.0398,-1076 38.0398,-434 38.0398,-434 38.0398,-428 44.0398,-422 50.0398,-422"/>
<text text-anchor="middle" x="297.06" y="-1075.2" font-family="Times,serif" font-size="11.00" fill="gray">Global</text>
</g>
<!-- \\Pastie_Api -->
<g id="node1" class="node"><title>\\Pastie_Api</title>
<polygon fill="none" stroke="black" points="467.08,-844 383.08,-844 383.08,-808 467.08,-808 467.08,-844"/>
<text text-anchor="middle" x="425.08" y="-823.2" font-family="Courier,monospace" font-size="11.00">Pastie_Api</text>
</g>
<!-- \\Horde_Registry_Api -->
<g id="node15" class="node"><title>\\Horde_Registry_Api</title>
<ellipse fill="none" stroke="black" cx="115.04" cy="-396" rx="87.1846" ry="18"/>
<text text-anchor="middle" x="115.04" y="-392.3" font-family="Times,serif" font-size="14.00" fill="gray">\Horde_Registry_Api</text>
</g>
<!-- \\Pastie_Api&#45;&gt;\\Horde_Registry_Api -->
<g id="edge1" class="edge"><title>\\Pastie_Api&#45;&gt;\\Horde_Registry_Api</title>
<path fill="none" stroke="black" d="M382.912,-827.754C356.251,-826.571 322.766,-820.338 302.08,-799 182.129,-675.268 351.704,-540.087 230.08,-418 224.226,-412.124 217.31,-407.569 209.823,-404.061"/>
<polygon fill="none" stroke="black" points="210.656,-400.624 200.071,-400.157 208.054,-407.123 210.656,-400.624"/>
</g>
<!-- \\Pastie_Test -->
<g id="node2" class="node"><title>\\Pastie_Test</title>
<polygon fill="none" stroke="black" points="470.58,-790 379.58,-790 379.58,-754 470.58,-754 470.58,-790"/>
<text text-anchor="middle" x="425.08" y="-769.2" font-family="Courier,monospace" font-size="11.00">Pastie_Test</text>
</g>
<!-- \\Horde_Test -->
<g id="node16" class="node"><title>\\Horde_Test</title>
<ellipse fill="none" stroke="black" cx="115.04" cy="-342" rx="54.6905" ry="18"/>
<text text-anchor="middle" x="115.04" y="-338.3" font-family="Times,serif" font-size="14.00" fill="gray">\Horde_Test</text>
</g>
<!-- \\Pastie_Test&#45;&gt;\\Horde_Test -->
<g id="edge2" class="edge"><title>\\Pastie_Test&#45;&gt;\\Horde_Test</title>
<path fill="none" stroke="black" d="M379.389,-773.551C353.367,-771.972 321.885,-765.38 302.08,-745 183.5,-622.979 347.76,-491.888 230.08,-369 216.958,-355.298 198.267,-347.996 179.803,-344.249"/>
<polygon fill="none" stroke="black" points="180.351,-340.792 169.904,-342.556 179.171,-347.692 180.351,-340.792"/>
</g>
<!-- \\Pastie_Highlighter_TextHighlighter -->
<g id="node3" class="node"><title>\\Pastie_Highlighter_TextHighlighter</title>
<polygon fill="none" stroke="black" points="548.08,-1060 302.08,-1060 302.08,-1024 548.08,-1024 548.08,-1060"/>
<text text-anchor="middle" x="425.08" y="-1039.2" font-family="Courier,monospace" font-size="11.00">Pastie_Highlighter_TextHighlighter</text>
</g>
<!-- \\Pastie_Highlighter -->
<g id="node13" class="node"><title>\\Pastie_Highlighter</title>
<polygon fill="none" stroke="black" points="184.04,-1033 46.0398,-1033 46.0398,-997 184.04,-997 184.04,-1033"/>
<text text-anchor="middle" x="115.04" y="-1012.2" font-family="Courier,monospace" font-size="11.00">Pastie_Highlighter</text>
</g>
<!-- \\Pastie_Highlighter_TextHighlighter&#45;&gt;\\Pastie_Highlighter -->
<g id="edge3" class="edge"><title>\\Pastie_Highlighter_TextHighlighter&#45;&gt;\\Pastie_Highlighter</title>
<path fill="none" stroke="black" d="M301.892,-1031.29C265.818,-1028.13 227.308,-1024.75 194.752,-1021.9"/>
<polygon fill="none" stroke="black" points="194.67,-1018.38 184.402,-1020.99 194.058,-1025.35 194.67,-1018.38"/>
</g>
<!-- \\Pastie_Highlighter_LibGeshi -->
<g id="node4" class="node"><title>\\Pastie_Highlighter_LibGeshi</title>
<polygon fill="none" stroke="black" points="524.58,-1006 325.58,-1006 325.58,-970 524.58,-970 524.58,-1006"/>
<text text-anchor="middle" x="425.08" y="-985.2" font-family="Courier,monospace" font-size="11.00">Pastie_Highlighter_LibGeshi</text>
</g>
<!-- \\Pastie_Highlighter_LibGeshi&#45;&gt;\\Pastie_Highlighter -->
<g id="edge4" class="edge"><title>\\Pastie_Highlighter_LibGeshi&#45;&gt;\\Pastie_Highlighter</title>
<path fill="none" stroke="black" d="M325.343,-996.654C283.091,-1000.36 234.439,-1004.62 194.681,-1008.11"/>
<polygon fill="none" stroke="black" points="194.167,-1004.64 184.511,-1009 194.778,-1011.61 194.167,-1004.64"/>
</g>
<!-- \\Pastie_Exception -->
<g id="node5" class="node"><title>\\Pastie_Exception</title>
<polygon fill="none" stroke="black" points="487.58,-736 362.58,-736 362.58,-700 487.58,-700 487.58,-736"/>
<text text-anchor="middle" x="425.08" y="-715.2" font-family="Courier,monospace" font-size="11.00">Pastie_Exception</text>
</g>
<!-- \\Horde_Exception_Wrapped -->
<g id="node17" class="node"><title>\\Horde_Exception_Wrapped</title>
<ellipse fill="none" stroke="black" cx="115.04" cy="-288" rx="112.38" ry="18"/>
<text text-anchor="middle" x="115.04" y="-284.3" font-family="Times,serif" font-size="14.00" fill="gray">\Horde_Exception_Wrapped</text>
</g>
<!-- \\Pastie_Exception&#45;&gt;\\Horde_Exception_Wrapped -->
<g id="edge5" class="edge"><title>\\Pastie_Exception&#45;&gt;\\Horde_Exception_Wrapped</title>
<path fill="none" stroke="black" d="M362.438,-717.813C340.664,-714.597 317.727,-707.102 302.08,-691 183.5,-568.979 347.76,-437.888 230.08,-315 225.797,-310.528 220.922,-306.738 215.655,-303.531"/>
<polygon fill="none" stroke="black" points="216.933,-300.248 206.457,-298.666 213.66,-306.435 216.933,-300.248"/>
</g>
<!-- \\PasteForm -->
<g id="node6" class="node"><title>\\PasteForm</title>
<polygon fill="none" stroke="black" points="463.58,-682 386.58,-682 386.58,-646 463.58,-646 463.58,-682"/>
<text text-anchor="middle" x="425.08" y="-661.2" font-family="Courier,monospace" font-size="11.00">PasteForm</text>
</g>
<!-- \\Horde_Form -->
<g id="node18" class="node"><title>\\Horde_Form</title>
<ellipse fill="none" stroke="black" cx="115.04" cy="-234" rx="59.2899" ry="18"/>
<text text-anchor="middle" x="115.04" y="-230.3" font-family="Times,serif" font-size="14.00" fill="gray">\Horde_Form</text>
</g>
<!-- \\PasteForm&#45;&gt;\\Horde_Form -->
<g id="edge6" class="edge"><title>\\PasteForm&#45;&gt;\\Horde_Form</title>
<path fill="none" stroke="black" d="M386.39,-665.866C359.233,-665.064 323.699,-659.247 302.08,-637 183.5,-514.979 347.76,-383.888 230.08,-261 218.022,-248.409 201.261,-241.222 184.295,-237.232"/>
<polygon fill="none" stroke="black" points="184.808,-233.765 174.316,-235.235 183.435,-240.629 184.808,-233.765"/>
</g>
<!-- \\Pastie_Application -->
<g id="node7" class="node"><title>\\Pastie_Application</title>
<polygon fill="none" stroke="black" points="494.08,-628 356.08,-628 356.08,-592 494.08,-592 494.08,-628"/>
<text text-anchor="middle" x="425.08" y="-607.2" font-family="Courier,monospace" font-size="11.00">Pastie_Application</text>
</g>
<!-- \\Horde_Registry_Application -->
<g id="node19" class="node"><title>\\Horde_Registry_Application</title>
<ellipse fill="none" stroke="black" cx="115.04" cy="-180" rx="115.08" ry="18"/>
<text text-anchor="middle" x="115.04" y="-176.3" font-family="Times,serif" font-size="14.00" fill="gray">\Horde_Registry_Application</text>
</g>
<!-- \\Pastie_Application&#45;&gt;\\Horde_Registry_Application -->
<g id="edge7" class="edge"><title>\\Pastie_Application&#45;&gt;\\Horde_Registry_Application</title>
<path fill="none" stroke="black" d="M355.784,-608.697C336.085,-604.987 316.14,-597.468 302.08,-583 183.5,-460.979 347.76,-329.888 230.08,-207 225.888,-202.623 221.127,-198.898 215.987,-195.734"/>
<polygon fill="none" stroke="black" points="217.479,-192.563 207.012,-190.923 214.172,-198.732 217.479,-192.563"/>
</g>
<!-- \\Pastie_Driver_Rdo -->
<g id="node8" class="node"><title>\\Pastie_Driver_Rdo</title>
<polygon fill="none" stroke="black" points="490.58,-952 359.58,-952 359.58,-916 490.58,-916 490.58,-952"/>
<text text-anchor="middle" x="425.08" y="-931.2" font-family="Courier,monospace" font-size="11.00">Pastie_Driver_Rdo</text>
</g>
<!-- \\Pastie_Driver -->
<g id="node10" class="node"><title>\\Pastie_Driver</title>
<polygon fill="none" stroke="black" points="167.04,-925 63.0398,-925 63.0398,-889 167.04,-889 167.04,-925"/>
<text text-anchor="start" x="81.0398" y="-910.2" font-family="Courier,monospace" font-size="11.00">«abstract»</text>
<text text-anchor="start" x="71.0398" y="-898.2" font-family="Courier,monospace" font-size="11.00">Pastie_Driver</text>
</g>
<!-- \\Pastie_Driver_Rdo&#45;&gt;\\Pastie_Driver -->
<g id="edge8" class="edge"><title>\\Pastie_Driver_Rdo&#45;&gt;\\Pastie_Driver</title>
<path fill="none" stroke="black" d="M359.504,-928.34C305.917,-923.643 230.222,-917.008 177.512,-912.388"/>
<polygon fill="none" stroke="black" points="177.557,-908.879 167.29,-911.492 176.946,-915.852 177.557,-908.879"/>
</g>
<!-- \\Pastie_Driver_Sql -->
<g id="node9" class="node"><title>\\Pastie_Driver_Sql</title>
<polygon fill="none" stroke="black" points="490.58,-898 359.58,-898 359.58,-862 490.58,-862 490.58,-898"/>
<text text-anchor="middle" x="425.08" y="-877.2" font-family="Courier,monospace" font-size="11.00">Pastie_Driver_Sql</text>
</g>
<!-- \\Pastie_Driver_Sql&#45;&gt;\\Pastie_Driver -->
<g id="edge9" class="edge"><title>\\Pastie_Driver_Sql&#45;&gt;\\Pastie_Driver</title>
<path fill="none" stroke="black" d="M359.504,-885.66C305.917,-890.357 230.222,-896.992 177.512,-901.612"/>
<polygon fill="none" stroke="black" points="176.946,-898.148 167.29,-902.508 177.557,-905.121 176.946,-898.148"/>
</g>
<!-- \\Pastie_Entity_PasteMapper -->
<g id="node11" class="node"><title>\\Pastie_Entity_PasteMapper</title>
<polygon fill="none" stroke="black" points="517.58,-574 332.58,-574 332.58,-538 517.58,-538 517.58,-574"/>
<text text-anchor="middle" x="425.08" y="-553.2" font-family="Courier,monospace" font-size="11.00">Pastie_Entity_PasteMapper</text>
</g>
<!-- \\Horde_Rdo_Mapper -->
<g id="node20" class="node"><title>\\Horde_Rdo_Mapper</title>
<ellipse fill="none" stroke="black" cx="115.04" cy="-126" rx="86.3847" ry="18"/>
<text text-anchor="middle" x="115.04" y="-122.3" font-family="Times,serif" font-size="14.00" fill="gray">\Horde_Rdo_Mapper</text>
</g>
<!-- \\Pastie_Entity_PasteMapper&#45;&gt;\\Horde_Rdo_Mapper -->
<g id="edge10" class="edge"><title>\\Pastie_Entity_PasteMapper&#45;&gt;\\Horde_Rdo_Mapper</title>
<path fill="none" stroke="black" d="M332.541,-548.263C321.146,-543.904 310.546,-537.712 302.08,-529 183.5,-406.979 347.76,-275.888 230.08,-153 223.114,-145.726 214.578,-140.256 205.34,-136.163"/>
<polygon fill="none" stroke="black" points="206.49,-132.855 195.9,-132.514 203.966,-139.385 206.49,-132.855"/>
</g>
<!-- \\Pastie_Entity_Paste -->
<g id="node12" class="node"><title>\\Pastie_Entity_Paste</title>
<polygon fill="none" stroke="black" points="497.58,-520 352.58,-520 352.58,-484 497.58,-484 497.58,-520"/>
<text text-anchor="middle" x="425.08" y="-499.2" font-family="Courier,monospace" font-size="11.00">Pastie_Entity_Paste</text>
</g>
<!-- \\Horde_Rdo_Base -->
<g id="node21" class="node"><title>\\Horde_Rdo_Base</title>
<ellipse fill="none" stroke="black" cx="115.04" cy="-72" rx="75.2868" ry="18"/>
<text text-anchor="middle" x="115.04" y="-68.3" font-family="Times,serif" font-size="14.00" fill="gray">\Horde_Rdo_Base</text>
</g>
<!-- \\Pastie_Entity_Paste&#45;&gt;\\Horde_Rdo_Base -->
<g id="edge11" class="edge"><title>\\Pastie_Entity_Paste&#45;&gt;\\Horde_Rdo_Base</title>
<path fill="none" stroke="black" d="M352.288,-499.999C333.746,-496.074 315.308,-488.612 302.08,-475 183.5,-352.979 347.76,-221.888 230.08,-99 221.363,-89.8979 210.188,-83.6198 198.255,-79.332"/>
<polygon fill="none" stroke="black" points="199.144,-75.9428 188.555,-76.304 197.058,-82.6248 199.144,-75.9428"/>
</g>
<!-- \\Pastie_Factory_Driver -->
<g id="node14" class="node"><title>\\Pastie_Factory_Driver</title>
<polygon fill="none" stroke="black" points="504.08,-466 346.08,-466 346.08,-430 504.08,-430 504.08,-466"/>
<text text-anchor="middle" x="425.08" y="-445.2" font-family="Courier,monospace" font-size="11.00">Pastie_Factory_Driver</text>
</g>
<!-- \\Horde_Core_Factory_Base -->
<g id="node22" class="node"><title>\\Horde_Core_Factory_Base</title>
<ellipse fill="none" stroke="black" cx="115.04" cy="-18" rx="109.381" ry="18"/>
<text text-anchor="middle" x="115.04" y="-14.3" font-family="Times,serif" font-size="14.00" fill="gray">\Horde_Core_Factory_Base</text>
</g>
<!-- \\Pastie_Factory_Driver&#45;&gt;\\Horde_Core_Factory_Base -->
<g id="edge12" class="edge"><title>\\Pastie_Factory_Driver&#45;&gt;\\Horde_Core_Factory_Base</title>
<path fill="none" stroke="black" d="M421.005,-429.702C409.258,-365.743 361.083,-150.356 230.08,-45 224.248,-40.3101 217.738,-36.4105 210.865,-33.1709"/>
<polygon fill="none" stroke="black" points="211.872,-29.7977 201.297,-29.1501 209.16,-36.2511 211.872,-29.7977"/>
</g>
</g>
</svg>
