<?xml version="1.0" encoding="UTF-8" standalone="no"?>
<!DOCTYPE svg PUBLIC "-//W3C//DTD SVG 1.1//EN"
 "http://www.w3.org/Graphics/SVG/1.1/DTD/svg11.dtd">
<!-- Generated by graphviz version 2.38.0 (20140413.2041)
 -->
<!-- Title: G Pages: 1 -->
<svg width="743pt" height="402pt"
 viewBox="0.00 0.00 742.87 402.00" xmlns="http://www.w3.org/2000/svg" xmlns:xlink="http://www.w3.org/1999/xlink">
<g id="graph0" class="graph" transform="scale(1 1) rotate(0) translate(4 398)">
<title>G</title>
<polygon fill="white" stroke="none" points="-4,4 -4,-398 738.87,-398 738.87,4 -4,4"/>
<g id="clust1" class="cluster"><title>cluster_Global</title>
<path fill="none" stroke="gray" d="M236.681,-44C236.681,-44 714.87,-44 714.87,-44 720.87,-44 726.87,-50 726.87,-56 726.87,-56 726.87,-374 726.87,-374 726.87,-380 720.87,-386 714.87,-386 714.87,-386 236.681,-386 236.681,-386 230.681,-386 224.681,-380 224.681,-374 224.681,-374 224.681,-56 224.681,-56 224.681,-50 230.681,-44 236.681,-44"/>
<text text-anchor="middle" x="475.775" y="-373.2" font-family="Times,serif" font-size="11.00" fill="gray">Global</text>
</g>
<!-- \\Horde_Exception -->
<g id="node1" class="node"><title>\\Horde_Exception</title>
<polygon fill="none" stroke="black" points="350.681,-250 232.681,-250 232.681,-214 350.681,-214 350.681,-250"/>
<text text-anchor="middle" x="291.681" y="-229.2" font-family="Courier,monospace" font-size="11.00">Horde_Exception</text>
</g>
<!-- \\Exception -->
<g id="node8" class="node"><title>\\Exception</title>
<ellipse fill="none" stroke="black" cx="48.7457" cy="-232" rx="48.9926" ry="18"/>
<text text-anchor="middle" x="48.7457" y="-228.3" font-family="Times,serif" font-size="14.00" fill="gray">\Exception</text>
</g>
<!-- \\Horde_Exception&#45;&gt;\\Exception -->
<g id="edge1" class="edge"><title>\\Horde_Exception&#45;&gt;\\Exception</title>
<path fill="none" stroke="black" d="M232.664,-232C194.863,-232 145.722,-232 107.895,-232"/>
<polygon fill="none" stroke="black" points="107.544,-228.5 97.5441,-232 107.544,-235.5 107.544,-228.5"/>
</g>
<!-- \\Horde_Exception_PermissionDenied -->
<g id="node2" class="node"><title>\\Horde_Exception_PermissionDenied</title>
<polygon fill="none" stroke="black" points="718.87,-358 485.87,-358 485.87,-322 718.87,-322 718.87,-358"/>
<text text-anchor="middle" x="602.37" y="-337.2" font-family="Courier,monospace" font-size="11.00">Horde_Exception_PermissionDenied</text>
</g>
<!-- \\Horde_Exception_PermissionDenied&#45;&gt;\\Horde_Exception -->
<g id="edge2" class="edge"><title>\\Horde_Exception_PermissionDenied&#45;&gt;\\Horde_Exception</title>
<path fill="none" stroke="black" d="M516.705,-321.934C506.247,-319.197 495.763,-316.205 485.87,-313 434.838,-296.466 378.478,-272.095 339.872,-254.406"/>
<polygon fill="none" stroke="black" points="341,-251.072 330.453,-250.062 338.068,-257.429 341,-251.072"/>
</g>
<!-- \\Horde_Exception_Pear -->
<g id="node3" class="node"><title>\\Horde_Exception_Pear</title>
<polygon fill="none" stroke="black" points="678.37,-304 526.37,-304 526.37,-268 678.37,-268 678.37,-304"/>
<text text-anchor="middle" x="602.37" y="-283.2" font-family="Courier,monospace" font-size="11.00">Horde_Exception_Pear</text>
</g>
<!-- \\Horde_Exception_Pear&#45;&gt;\\Horde_Exception -->
<g id="edge3" class="edge"><title>\\Horde_Exception_Pear&#45;&gt;\\Horde_Exception</title>
<path fill="none" stroke="black" d="M526.251,-272.859C475.829,-264.039 409.93,-252.511 360.99,-243.95"/>
<polygon fill="none" stroke="black" points="361.58,-240.5 351.127,-242.224 360.374,-247.395 361.58,-240.5"/>
</g>
<!-- \\Horde_Exception_NotFound -->
<g id="node4" class="node"><title>\\Horde_Exception_NotFound</title>
<polygon fill="none" stroke="black" points="691.87,-250 512.87,-250 512.87,-214 691.87,-214 691.87,-250"/>
<text text-anchor="middle" x="602.37" y="-229.2" font-family="Courier,monospace" font-size="11.00">Horde_Exception_NotFound</text>
</g>
<!-- \\Horde_Exception_NotFound&#45;&gt;\\Horde_Exception -->
<g id="edge4" class="edge"><title>\\Horde_Exception_NotFound&#45;&gt;\\Horde_Exception</title>
<path fill="none" stroke="black" d="M512.498,-232C464.248,-232 405.519,-232 360.908,-232"/>
<polygon fill="none" stroke="black" points="360.751,-228.5 350.751,-232 360.751,-235.5 360.751,-228.5"/>
</g>
<!-- \\Horde_Exception_LastError -->
<g id="node5" class="node"><title>\\Horde_Exception_LastError</title>
<polygon fill="none" stroke="black" points="694.87,-196 509.87,-196 509.87,-160 694.87,-160 694.87,-196"/>
<text text-anchor="middle" x="602.37" y="-175.2" font-family="Courier,monospace" font-size="11.00">Horde_Exception_LastError</text>
</g>
<!-- \\Horde_Exception_LastError&#45;&gt;\\Horde_Exception -->
<g id="edge5" class="edge"><title>\\Horde_Exception_LastError&#45;&gt;\\Horde_Exception</title>
<path fill="none" stroke="black" d="M509.589,-194.056C461.939,-202.391 404.713,-212.402 361.007,-220.047"/>
<polygon fill="none" stroke="black" points="360.297,-216.618 351.05,-221.789 361.504,-223.514 360.297,-216.618"/>
</g>
<!-- \\Horde_Exception_Wrapped -->
<g id="node6" class="node"><title>\\Horde_Exception_Wrapped</title>
<polygon fill="none" stroke="black" points="688.37,-142 516.37,-142 516.37,-106 688.37,-106 688.37,-142"/>
<text text-anchor="middle" x="602.37" y="-121.2" font-family="Courier,monospace" font-size="11.00">Horde_Exception_Wrapped</text>
</g>
<!-- \\Horde_Exception_Wrapped&#45;&gt;\\Horde_Exception -->
<g id="edge6" class="edge"><title>\\Horde_Exception_Wrapped&#45;&gt;\\Horde_Exception</title>
<path fill="none" stroke="black" d="M516.705,-142.066C506.247,-144.803 495.763,-147.795 485.87,-151 434.838,-167.534 378.478,-191.905 339.872,-209.594"/>
<polygon fill="none" stroke="black" points="338.068,-206.571 330.453,-213.938 341,-212.928 338.068,-206.571"/>
</g>
<!-- \\Horde_Exception_Translation -->
<g id="node7" class="node"><title>\\Horde_Exception_Translation</title>
<polygon fill="none" stroke="black" points="701.87,-88 502.87,-88 502.87,-52 701.87,-52 701.87,-88"/>
<text text-anchor="middle" x="602.37" y="-67.2" font-family="Courier,monospace" font-size="11.00">Horde_Exception_Translation</text>
</g>
<!-- \\Horde_Translation_Autodetect -->
<g id="node9" class="node"><title>\\Horde_Translation_Autodetect</title>
<ellipse fill="none" stroke="black" cx="291.681" cy="-18" rx="122.379" ry="18"/>
<text text-anchor="middle" x="291.681" y="-14.3" font-family="Times,serif" font-size="14.00" fill="gray">\Horde_Translation_Autodetect</text>
</g>
<!-- \\Horde_Exception_Translation&#45;&gt;\\Horde_Translation_Autodetect -->
<g id="edge7" class="edge"><title>\\Horde_Exception_Translation&#45;&gt;\\Horde_Translation_Autodetect</title>
<path fill="none" stroke="black" d="M502.85,-53.4039C464.301,-46.9101 420.382,-39.5118 382.695,-33.1634"/>
<polygon fill="none" stroke="black" points="383.192,-29.6979 372.75,-31.488 382.029,-36.6006 383.192,-29.6979"/>
</g>
</g>
</svg>
