<?xml version="1.0" encoding="UTF-8" standalone="no"?>
<!DOCTYPE svg PUBLIC "-//W3C//DTD SVG 1.1//EN"
 "http://www.w3.org/Graphics/SVG/1.1/DTD/svg11.dtd">
<!-- Generated by graphviz version 2.38.0 (20140413.2041)
 -->
<!-- Title: G Pages: 1 -->
<svg width="795pt" height="510pt"
 viewBox="0.00 0.00 794.96 510.00" xmlns="http://www.w3.org/2000/svg" xmlns:xlink="http://www.w3.org/1999/xlink">
<g id="graph0" class="graph" transform="scale(1 1) rotate(0) translate(4 506)">
<title>G</title>
<polygon fill="white" stroke="none" points="-4,4 -4,-506 790.961,-506 790.961,4 -4,4"/>
<g id="clust1" class="cluster"><title>cluster_Global</title>
<path fill="none" stroke="gray" d="M325.871,-44C325.871,-44 766.961,-44 766.961,-44 772.961,-44 778.961,-50 778.961,-56 778.961,-56 778.961,-482 778.961,-482 778.961,-488 772.961,-494 766.961,-494 766.961,-494 325.871,-494 325.871,-494 319.871,-494 313.871,-488 313.871,-482 313.871,-482 313.871,-56 313.871,-56 313.871,-50 319.871,-44 325.871,-44"/>
<text text-anchor="middle" x="546.416" y="-481.2" font-family="Times,serif" font-size="11.00" fill="gray">Global</text>
</g>
<!-- \\Horde_Feed -->
<g id="node1" class="node"><title>\\Horde_Feed</title>
<polygon fill="none" stroke="black" points="720.461,-466 636.461,-466 636.461,-430 720.461,-430 720.461,-466"/>
<text text-anchor="middle" x="678.461" y="-445.2" font-family="Courier,monospace" font-size="11.00">Horde_Feed</text>
</g>
<!-- \\Horde_Feed_Blogroll -->
<g id="node2" class="node"><title>\\Horde_Feed_Blogroll</title>
<polygon fill="none" stroke="black" points="750.961,-142 605.961,-142 605.961,-106 750.961,-106 750.961,-142"/>
<text text-anchor="middle" x="678.461" y="-121.2" font-family="Courier,monospace" font-size="11.00">Horde_Feed_Blogroll</text>
</g>
<!-- \\Horde_Feed_Base -->
<g id="node10" class="node"><title>\\Horde_Feed_Base</title>
<polygon fill="none" stroke="black" points="459.871,-196 341.871,-196 341.871,-160 459.871,-160 459.871,-196"/>
<text text-anchor="start" x="366.871" y="-181.2" font-family="Courier,monospace" font-size="11.00">«abstract»</text>
<text text-anchor="start" x="349.871" y="-169.2" font-family="Courier,monospace" font-size="11.00">Horde_Feed_Base</text>
</g>
<!-- \\Horde_Feed_Blogroll&#45;&gt;\\Horde_Feed_Base -->
<g id="edge1" class="edge"><title>\\Horde_Feed_Blogroll&#45;&gt;\\Horde_Feed_Base</title>
<path fill="none" stroke="black" d="M605.772,-138.047C563.929,-146.246 511.427,-156.533 470.178,-164.616"/>
<polygon fill="none" stroke="black" points="469.357,-161.21 460.216,-166.568 470.703,-168.079 469.357,-161.21"/>
</g>
<!-- \\Horde_Feed_Exception -->
<g id="node3" class="node"><title>\\Horde_Feed_Exception</title>
<polygon fill="none" stroke="black" points="754.461,-88 602.461,-88 602.461,-52 754.461,-52 754.461,-88"/>
<text text-anchor="middle" x="678.461" y="-67.2" font-family="Courier,monospace" font-size="11.00">Horde_Feed_Exception</text>
</g>
<!-- \\Horde_Exception_LastError -->
<g id="node11" class="node"><title>\\Horde_Exception_LastError</title>
<ellipse fill="none" stroke="black" cx="400.871" cy="-18" rx="113.18" ry="18"/>
<text text-anchor="middle" x="400.871" y="-14.3" font-family="Times,serif" font-size="14.00" fill="gray">\Horde_Exception_LastError</text>
</g>
<!-- \\Horde_Feed_Exception&#45;&gt;\\Horde_Exception_LastError -->
<g id="edge2" class="edge"><title>\\Horde_Feed_Exception&#45;&gt;\\Horde_Exception_LastError</title>
<path fill="none" stroke="black" d="M602.155,-55.7908C565.727,-48.9174 521.907,-40.6492 484.556,-33.6015"/>
<polygon fill="none" stroke="black" points="485.183,-30.1581 474.707,-31.7432 483.885,-37.0367 485.183,-30.1581"/>
</g>
<!-- \\Horde_Feed_Atom -->
<g id="node4" class="node"><title>\\Horde_Feed_Atom</title>
<polygon fill="none" stroke="black" points="737.461,-250 619.461,-250 619.461,-214 737.461,-214 737.461,-250"/>
<text text-anchor="middle" x="678.461" y="-229.2" font-family="Courier,monospace" font-size="11.00">Horde_Feed_Atom</text>
</g>
<!-- \\Horde_Feed_Atom&#45;&gt;\\Horde_Feed_Base -->
<g id="edge3" class="edge"><title>\\Horde_Feed_Atom&#45;&gt;\\Horde_Feed_Base</title>
<path fill="none" stroke="black" d="M619.352,-220.614C575.656,-212.052 515.672,-200.298 469.766,-191.304"/>
<polygon fill="none" stroke="black" points="470.387,-187.859 459.9,-189.37 469.04,-194.728 470.387,-187.859"/>
</g>
<!-- \\Horde_Feed_Entry_Blogroll -->
<g id="node5" class="node"><title>\\Horde_Feed_Entry_Blogroll</title>
<polygon fill="none" stroke="black" points="770.961,-304 585.961,-304 585.961,-268 770.961,-268 770.961,-304"/>
<text text-anchor="middle" x="678.461" y="-283.2" font-family="Courier,monospace" font-size="11.00">Horde_Feed_Entry_Blogroll</text>
</g>
<!-- \\Horde_Feed_Entry_Base -->
<g id="node8" class="node"><title>\\Horde_Feed_Entry_Base</title>
<polygon fill="none" stroke="black" points="479.871,-358 321.871,-358 321.871,-322 479.871,-322 479.871,-358"/>
<text text-anchor="start" x="366.871" y="-343.2" font-family="Courier,monospace" font-size="11.00">«abstract»</text>
<text text-anchor="start" x="329.871" y="-331.2" font-family="Courier,monospace" font-size="11.00">Horde_Feed_Entry_Base</text>
</g>
<!-- \\Horde_Feed_Entry_Blogroll&#45;&gt;\\Horde_Feed_Entry_Base -->
<g id="edge4" class="edge"><title>\\Horde_Feed_Entry_Blogroll&#45;&gt;\\Horde_Feed_Entry_Base</title>
<path fill="none" stroke="black" d="M585.693,-303.981C554.885,-310.018 520.608,-316.734 490.079,-322.716"/>
<polygon fill="none" stroke="black" points="489.02,-319.357 479.88,-324.715 490.366,-326.226 489.02,-319.357"/>
</g>
<!-- \\Horde_Feed_Entry_Atom -->
<g id="node6" class="node"><title>\\Horde_Feed_Entry_Atom</title>
<polygon fill="none" stroke="black" points="757.461,-412 599.461,-412 599.461,-376 757.461,-376 757.461,-412"/>
<text text-anchor="middle" x="678.461" y="-391.2" font-family="Courier,monospace" font-size="11.00">Horde_Feed_Entry_Atom</text>
</g>
<!-- \\Horde_Feed_Entry_Atom&#45;&gt;\\Horde_Feed_Entry_Base -->
<g id="edge5" class="edge"><title>\\Horde_Feed_Entry_Atom&#45;&gt;\\Horde_Feed_Entry_Base</title>
<path fill="none" stroke="black" d="M599.225,-378.67C565.333,-372.029 525.489,-364.222 490.509,-357.368"/>
<polygon fill="none" stroke="black" points="490.789,-353.856 480.302,-355.368 489.443,-360.726 490.789,-353.856"/>
</g>
<!-- \\Horde_Feed_Entry_Rss -->
<g id="node7" class="node"><title>\\Horde_Feed_Entry_Rss</title>
<polygon fill="none" stroke="black" points="754.461,-358 602.461,-358 602.461,-322 754.461,-322 754.461,-358"/>
<text text-anchor="middle" x="678.461" y="-337.2" font-family="Courier,monospace" font-size="11.00">Horde_Feed_Entry_Rss</text>
</g>
<!-- \\Horde_Feed_Entry_Rss&#45;&gt;\\Horde_Feed_Entry_Base -->
<g id="edge6" class="edge"><title>\\Horde_Feed_Entry_Rss&#45;&gt;\\Horde_Feed_Entry_Base</title>
<path fill="none" stroke="black" d="M602.155,-340C567.484,-340 526.118,-340 490.005,-340"/>
<polygon fill="none" stroke="black" points="489.969,-336.5 479.969,-340 489.969,-343.5 489.969,-336.5"/>
</g>
<!-- \\Horde_Xml_Element -->
<g id="node12" class="node"><title>\\Horde_Xml_Element</title>
<ellipse fill="none" stroke="black" cx="107.89" cy="-340" rx="89.8845" ry="18"/>
<text text-anchor="middle" x="107.89" y="-336.3" font-family="Times,serif" font-size="14.00" fill="gray">\Horde_Xml_Element</text>
</g>
<!-- \\Horde_Feed_Entry_Base&#45;&gt;\\Horde_Xml_Element -->
<g id="edge7" class="edge"><title>\\Horde_Feed_Entry_Base&#45;&gt;\\Horde_Xml_Element</title>
<path fill="none" stroke="black" d="M321.511,-340C286.584,-340 245.046,-340 207.992,-340"/>
<polygon fill="none" stroke="black" points="207.669,-336.5 197.669,-340 207.669,-343.5 207.669,-336.5"/>
</g>
<!-- \\Horde_Feed_Rss -->
<g id="node9" class="node"><title>\\Horde_Feed_Rss</title>
<polygon fill="none" stroke="black" points="733.961,-196 622.961,-196 622.961,-160 733.961,-160 733.961,-196"/>
<text text-anchor="middle" x="678.461" y="-175.2" font-family="Courier,monospace" font-size="11.00">Horde_Feed_Rss</text>
</g>
<!-- \\Horde_Feed_Rss&#45;&gt;\\Horde_Feed_Base -->
<g id="edge8" class="edge"><title>\\Horde_Feed_Rss&#45;&gt;\\Horde_Feed_Base</title>
<path fill="none" stroke="black" d="M622.684,-178C578.811,-178 517.037,-178 469.98,-178"/>
<polygon fill="none" stroke="black" points="469.872,-174.5 459.872,-178 469.872,-181.5 469.872,-174.5"/>
</g>
<!-- \\Horde_Xml_Element_List -->
<g id="node13" class="node"><title>\\Horde_Xml_Element_List</title>
<ellipse fill="none" stroke="black" cx="107.89" cy="-178" rx="107.781" ry="18"/>
<text text-anchor="middle" x="107.89" y="-174.3" font-family="Times,serif" font-size="14.00" fill="gray">\Horde_Xml_Element_List</text>
</g>
<!-- \\Horde_Feed_Base&#45;&gt;\\Horde_Xml_Element_List -->
<g id="edge9" class="edge"><title>\\Horde_Feed_Base&#45;&gt;\\Horde_Xml_Element_List</title>
<path fill="none" stroke="black" d="M341.686,-178C308.508,-178 265.718,-178 225.892,-178"/>
<polygon fill="none" stroke="black" points="225.838,-174.5 215.838,-178 225.838,-181.5 225.838,-174.5"/>
</g>
</g>
</svg>
