<?xml version="1.0" encoding="UTF-8" standalone="no"?>
<!DOCTYPE svg PUBLIC "-//W3C//DTD SVG 1.1//EN"
 "http://www.w3.org/Graphics/SVG/1.1/DTD/svg11.dtd">
<!-- Generated by graphviz version 2.38.0 (20140413.2041)
 -->
<!-- Title: G Pages: 1 -->
<svg width="848pt" height="1754pt"
 viewBox="0.00 0.00 848.00 1754.00" xmlns="http://www.w3.org/2000/svg" xmlns:xlink="http://www.w3.org/1999/xlink">
<g id="graph0" class="graph" transform="scale(1 1) rotate(0) translate(4 1750)">
<title>G</title>
<polygon fill="white" stroke="none" points="-4,4 -4,-1750 844,-1750 844,4 -4,4"/>
<g id="clust1" class="cluster"><title>cluster_Global</title>
<path fill="none" stroke="gray" d="M20,-100C20,-100 820,-100 820,-100 826,-100 832,-106 832,-112 832,-112 832,-1726 832,-1726 832,-1732 826,-1738 820,-1738 820,-1738 20,-1738 20,-1738 14,-1738 8,-1732 8,-1726 8,-1726 8,-112 8,-112 8,-106 14,-100 20,-100"/>
<text text-anchor="middle" x="420" y="-1725.2" font-family="Times,serif" font-size="11.00" fill="gray">Global</text>
</g>
<!-- \\Horde_Image_Exif -->
<g id="node1" class="node"><title>\\Horde_Image_Exif</title>
<polygon fill="none" stroke="black" points="767,-1710 642,-1710 642,-1674 767,-1674 767,-1710"/>
<text text-anchor="middle" x="704.5" y="-1689.2" font-family="Courier,monospace" font-size="11.00">Horde_Image_Exif</text>
</g>
<!-- \\Horde_Image_Null -->
<g id="node2" class="node"><title>\\Horde_Image_Null</title>
<polygon fill="none" stroke="black" points="767,-360 642,-360 642,-324 767,-324 767,-360"/>
<text text-anchor="middle" x="704.5" y="-339.2" font-family="Courier,monospace" font-size="11.00">Horde_Image_Null</text>
</g>
<!-- \\Horde_Image_Base -->
<g id="node53" class="node"><title>\\Horde_Image_Base</title>
<polygon fill="none" stroke="black" points="432,-144 307,-144 307,-108 432,-108 432,-144"/>
<text text-anchor="start" x="335.5" y="-129.2" font-family="Courier,monospace" font-size="11.00">«abstract»</text>
<text text-anchor="start" x="315" y="-117.2" font-family="Courier,monospace" font-size="11.00">Horde_Image_Base</text>
</g>
<!-- \\Horde_Image_Null&#45;&gt;\\Horde_Image_Base -->
<g id="edge1" class="edge"><title>\\Horde_Image_Null&#45;&gt;\\Horde_Image_Base</title>
<path fill="none" stroke="black" d="M641.746,-338.795C621.864,-335.099 600.889,-328.068 585,-315 524.148,-264.95 574.762,-201.923 513,-153 493.137,-137.266 466.87,-129.73 442.303,-126.378"/>
<polygon fill="none" stroke="black" points="442.602,-122.889 432.266,-125.22 441.799,-129.843 442.602,-122.889"/>
</g>
<!-- \\Horde_Image_Svg -->
<g id="node3" class="node"><title>\\Horde_Image_Svg</title>
<polygon fill="none" stroke="black" points="763.5,-306 645.5,-306 645.5,-270 763.5,-270 763.5,-306"/>
<text text-anchor="middle" x="704.5" y="-285.2" font-family="Courier,monospace" font-size="11.00">Horde_Image_Svg</text>
</g>
<!-- \\Horde_Image_Svg&#45;&gt;\\Horde_Image_Base -->
<g id="edge2" class="edge"><title>\\Horde_Image_Svg&#45;&gt;\\Horde_Image_Base</title>
<path fill="none" stroke="black" d="M645.382,-283.647C624.914,-279.913 602.635,-273.153 585,-261 537.499,-228.264 561.095,-184.857 513,-153 492.244,-139.252 466.264,-132.096 442.191,-128.491"/>
<polygon fill="none" stroke="black" points="442.383,-124.986 432.012,-127.154 441.471,-131.926 442.383,-124.986"/>
</g>
<!-- \\Horde_Image_Swf -->
<g id="node4" class="node"><title>\\Horde_Image_Swf</title>
<polygon fill="none" stroke="black" points="763.5,-630 645.5,-630 645.5,-594 763.5,-594 763.5,-630"/>
<text text-anchor="middle" x="704.5" y="-609.2" font-family="Courier,monospace" font-size="11.00">Horde_Image_Swf</text>
</g>
<!-- \\Horde_Image_Swf&#45;&gt;\\Horde_Image_Base -->
<g id="edge3" class="edge"><title>\\Horde_Image_Swf&#45;&gt;\\Horde_Image_Base</title>
<path fill="none" stroke="black" d="M645.234,-611.859C623.513,-608.77 600.415,-601.351 585,-585 451.474,-443.371 649.108,-292.15 513,-153 494.736,-134.328 467.877,-126.355 442.387,-123.476"/>
<polygon fill="none" stroke="black" points="442.601,-119.981 432.331,-122.585 441.984,-126.954 442.601,-119.981"/>
</g>
<!-- \\Horde_Image_Rgb -->
<g id="node5" class="node"><title>\\Horde_Image_Rgb</title>
<polygon fill="none" stroke="black" points="763.5,-1494 645.5,-1494 645.5,-1458 763.5,-1458 763.5,-1494"/>
<text text-anchor="middle" x="704.5" y="-1473.2" font-family="Courier,monospace" font-size="11.00">Horde_Image_Rgb</text>
</g>
<!-- \\Horde_Image_Imagick -->
<g id="node6" class="node"><title>\\Horde_Image_Imagick</title>
<polygon fill="none" stroke="black" points="777,-576 632,-576 632,-540 777,-540 777,-576"/>
<text text-anchor="middle" x="704.5" y="-555.2" font-family="Courier,monospace" font-size="11.00">Horde_Image_Imagick</text>
</g>
<!-- \\Horde_Image_Imagick&#45;&gt;\\Horde_Image_Base -->
<g id="edge4" class="edge"><title>\\Horde_Image_Imagick&#45;&gt;\\Horde_Image_Base</title>
<path fill="none" stroke="black" d="M631.877,-555.159C614.498,-551.133 597.38,-543.831 585,-531 466.254,-407.925 633.988,-273.871 513,-153 494.522,-134.54 467.622,-126.607 442.159,-123.701"/>
<polygon fill="none" stroke="black" points="442.392,-120.207 432.118,-122.796 441.764,-127.179 442.392,-120.207"/>
</g>
<!-- \\Horde_Image_Exception -->
<g id="node7" class="node"><title>\\Horde_Image_Exception</title>
<polygon fill="none" stroke="black" points="783.5,-252 625.5,-252 625.5,-216 783.5,-216 783.5,-252"/>
<text text-anchor="middle" x="704.5" y="-231.2" font-family="Courier,monospace" font-size="11.00">Horde_Image_Exception</text>
</g>
<!-- \\Horde_Exception_Wrapped -->
<g id="node57" class="node"><title>\\Horde_Exception_Wrapped</title>
<ellipse fill="none" stroke="black" cx="369.5" cy="-72" rx="112.38" ry="18"/>
<text text-anchor="middle" x="369.5" y="-68.3" font-family="Times,serif" font-size="14.00" fill="gray">\Horde_Exception_Wrapped</text>
</g>
<!-- \\Horde_Image_Exception&#45;&gt;\\Horde_Exception_Wrapped -->
<g id="edge5" class="edge"><title>\\Horde_Image_Exception&#45;&gt;\\Horde_Exception_Wrapped</title>
<path fill="none" stroke="black" d="M625.292,-225.172C611.046,-221.141 596.936,-215.337 585,-207 536.792,-173.328 562.15,-128.28 513,-96 503.929,-90.0425 493.855,-85.413 483.375,-81.8329"/>
<polygon fill="none" stroke="black" points="484.242,-78.4376 473.654,-78.8321 482.177,-85.1261 484.242,-78.4376"/>
</g>
<!-- \\Horde_Image_Exif_Bundled -->
<g id="node8" class="node"><title>\\Horde_Image_Exif_Bundled</title>
<polygon fill="none" stroke="black" points="794,-1602 615,-1602 615,-1566 794,-1566 794,-1602"/>
<text text-anchor="middle" x="704.5" y="-1581.2" font-family="Courier,monospace" font-size="11.00">Horde_Image_Exif_Bundled</text>
</g>
<!-- \\Horde_Image_Exif_Base -->
<g id="node19" class="node"><title>\\Horde_Image_Exif_Base</title>
<polygon fill="none" stroke="black" points="448.5,-1656 290.5,-1656 290.5,-1620 448.5,-1620 448.5,-1656"/>
<text text-anchor="start" x="335.5" y="-1641.2" font-family="Courier,monospace" font-size="11.00">«abstract»</text>
<text text-anchor="start" x="298.5" y="-1629.2" font-family="Courier,monospace" font-size="11.00">Horde_Image_Exif_Base</text>
</g>
<!-- \\Horde_Image_Exif_Bundled&#45;&gt;\\Horde_Image_Exif_Base -->
<g id="edge6" class="edge"><title>\\Horde_Image_Exif_Bundled&#45;&gt;\\Horde_Image_Exif_Base</title>
<path fill="none" stroke="black" d="M614.7,-1598.4C566.403,-1606.23 506.864,-1615.89 458.666,-1623.7"/>
<polygon fill="none" stroke="black" points="457.873,-1620.29 448.562,-1625.34 458.993,-1627.2 457.873,-1620.29"/>
</g>
<!-- \\Horde_Image_Exif_Exiftool -->
<g id="node9" class="node"><title>\\Horde_Image_Exif_Exiftool</title>
<polygon fill="none" stroke="black" points="797,-1548 612,-1548 612,-1512 797,-1512 797,-1548"/>
<text text-anchor="middle" x="704.5" y="-1527.2" font-family="Courier,monospace" font-size="11.00">Horde_Image_Exif_Exiftool</text>
</g>
<!-- \\Horde_Image_Exif_Exiftool&#45;&gt;\\Horde_Image_Exif_Base -->
<g id="edge7" class="edge"><title>\\Horde_Image_Exif_Exiftool&#45;&gt;\\Horde_Image_Exif_Base</title>
<path fill="none" stroke="black" d="M611.943,-1546.76C602.659,-1549.66 593.52,-1553.05 585,-1557 548.704,-1573.81 549.599,-1594.86 513,-1611 496.01,-1618.49 476.983,-1623.91 458.503,-1627.82"/>
<polygon fill="none" stroke="black" points="457.732,-1624.41 448.607,-1629.79 459.098,-1631.27 457.732,-1624.41"/>
</g>
<!-- \\Horde_Image_Exif_Php -->
<g id="node10" class="node"><title>\\Horde_Image_Exif_Php</title>
<polygon fill="none" stroke="black" points="780.5,-1656 628.5,-1656 628.5,-1620 780.5,-1620 780.5,-1656"/>
<text text-anchor="middle" x="704.5" y="-1635.2" font-family="Courier,monospace" font-size="11.00">Horde_Image_Exif_Php</text>
</g>
<!-- \\Horde_Image_Exif_Php&#45;&gt;\\Horde_Image_Exif_Base -->
<g id="edge8" class="edge"><title>\\Horde_Image_Exif_Php&#45;&gt;\\Horde_Image_Exif_Base</title>
<path fill="none" stroke="black" d="M628.353,-1638C577.984,-1638 511.46,-1638 458.598,-1638"/>
<polygon fill="none" stroke="black" points="458.556,-1634.5 448.556,-1638 458.556,-1641.5 458.556,-1634.5"/>
</g>
<!-- \\Horde_Image_Exif_Parser_Sanyo -->
<g id="node11" class="node"><title>\\Horde_Image_Exif_Parser_Sanyo</title>
<polygon fill="none" stroke="black" points="810.5,-954 598.5,-954 598.5,-918 810.5,-918 810.5,-954"/>
<text text-anchor="middle" x="704.5" y="-933.2" font-family="Courier,monospace" font-size="11.00">Horde_Image_Exif_Parser_Sanyo</text>
</g>
<!-- \\Horde_Image_Exif_Parser_Base -->
<g id="node18" class="node"><title>\\Horde_Image_Exif_Parser_Base</title>
<polygon fill="none" stroke="black" points="472.5,-576 266.5,-576 266.5,-540 472.5,-540 472.5,-576"/>
<text text-anchor="middle" x="369.5" y="-555.2" font-family="Courier,monospace" font-size="11.00">Horde_Image_Exif_Parser_Base</text>
</g>
<!-- \\Horde_Image_Exif_Parser_Sanyo&#45;&gt;\\Horde_Image_Exif_Parser_Base -->
<g id="edge9" class="edge"><title>\\Horde_Image_Exif_Parser_Sanyo&#45;&gt;\\Horde_Image_Exif_Parser_Base</title>
<path fill="none" stroke="black" d="M598.321,-919.534C593.506,-916.527 589.018,-913.039 585,-909 480.972,-804.414 618.933,-687.656 513,-585 504.241,-576.512 493.696,-570.27 482.353,-565.727"/>
<polygon fill="none" stroke="black" points="483.254,-562.333 472.659,-562.299 480.92,-568.933 483.254,-562.333"/>
</g>
<!-- \\Horde_Image_Exif_Parser_Olympus -->
<g id="node12" class="node"><title>\\Horde_Image_Exif_Parser_Olympus</title>
<polygon fill="none" stroke="black" points="817.5,-900 591.5,-900 591.5,-864 817.5,-864 817.5,-900"/>
<text text-anchor="middle" x="704.5" y="-879.2" font-family="Courier,monospace" font-size="11.00">Horde_Image_Exif_Parser_Olympus</text>
</g>
<!-- \\Horde_Image_Exif_Parser_Olympus&#45;&gt;\\Horde_Image_Exif_Parser_Base -->
<g id="edge10" class="edge"><title>\\Horde_Image_Exif_Parser_Olympus&#45;&gt;\\Horde_Image_Exif_Parser_Base</title>
<path fill="none" stroke="black" d="M596.38,-863.985C592.316,-861.349 588.494,-858.368 585,-855 495.591,-768.803 603.979,-669.539 513,-585 504.137,-576.765 493.582,-570.67 482.281,-566.202"/>
<polygon fill="none" stroke="black" points="483.229,-562.825 472.634,-562.82 480.913,-569.431 483.229,-562.825"/>
</g>
<!-- \\Horde_Image_Exif_Parser_Gps -->
<g id="node13" class="node"><title>\\Horde_Image_Exif_Parser_Gps</title>
<polygon fill="none" stroke="black" points="804,-846 605,-846 605,-810 804,-810 804,-846"/>
<text text-anchor="middle" x="704.5" y="-825.2" font-family="Courier,monospace" font-size="11.00">Horde_Image_Exif_Parser_Gps</text>
</g>
<!-- \\Horde_Image_Exif_Parser_Gps&#45;&gt;\\Horde_Image_Exif_Parser_Base -->
<g id="edge11" class="edge"><title>\\Horde_Image_Exif_Parser_Gps&#45;&gt;\\Horde_Image_Exif_Parser_Base</title>
<path fill="none" stroke="black" d="M604.98,-814.325C597.727,-810.768 590.94,-806.386 585,-801 510.036,-733.026 589.201,-651.584 513,-585 504.038,-577.169 493.528,-571.309 482.346,-566.96"/>
<polygon fill="none" stroke="black" points="483.41,-563.624 472.815,-563.652 481.115,-570.237 483.41,-563.624"/>
</g>
<!-- \\Horde_Image_Exif_Parser_Fujifilm -->
<g id="node14" class="node"><title>\\Horde_Image_Exif_Parser_Fujifilm</title>
<polygon fill="none" stroke="black" points="821,-792 588,-792 588,-756 821,-756 821,-792"/>
<text text-anchor="middle" x="704.5" y="-771.2" font-family="Courier,monospace" font-size="11.00">Horde_Image_Exif_Parser_Fujifilm</text>
</g>
<!-- \\Horde_Image_Exif_Parser_Fujifilm&#45;&gt;\\Horde_Image_Exif_Parser_Base -->
<g id="edge12" class="edge"><title>\\Horde_Image_Exif_Parser_Fujifilm&#45;&gt;\\Horde_Image_Exif_Parser_Base</title>
<path fill="none" stroke="black" d="M598.121,-755.907C593.483,-753.305 589.074,-750.351 585,-747 524.148,-696.95 574.762,-633.923 513,-585 503.917,-577.805 493.494,-572.324 482.508,-568.174"/>
<polygon fill="none" stroke="black" points="483.321,-564.754 472.727,-564.86 481.075,-571.384 483.321,-564.754"/>
</g>
<!-- \\Horde_Image_Exif_Parser_Canon -->
<g id="node15" class="node"><title>\\Horde_Image_Exif_Parser_Canon</title>
<polygon fill="none" stroke="black" points="810.5,-738 598.5,-738 598.5,-702 810.5,-702 810.5,-738"/>
<text text-anchor="middle" x="704.5" y="-717.2" font-family="Courier,monospace" font-size="11.00">Horde_Image_Exif_Parser_Canon</text>
</g>
<!-- \\Horde_Image_Exif_Parser_Canon&#45;&gt;\\Horde_Image_Exif_Parser_Base -->
<g id="edge13" class="edge"><title>\\Horde_Image_Exif_Parser_Canon&#45;&gt;\\Horde_Image_Exif_Parser_Base</title>
<path fill="none" stroke="black" d="M600.519,-701.876C595.083,-699.295 589.865,-696.353 585,-693 537.499,-660.264 561.095,-616.857 513,-585 503.583,-578.762 493.091,-573.882 482.189,-570.074"/>
<polygon fill="none" stroke="black" points="483.111,-566.695 472.52,-566.997 480.988,-573.365 483.111,-566.695"/>
</g>
<!-- \\Horde_Image_Exif_Parser_Panasonic -->
<g id="node16" class="node"><title>\\Horde_Image_Exif_Parser_Panasonic</title>
<polygon fill="none" stroke="black" points="824,-684 585,-684 585,-648 824,-648 824,-684"/>
<text text-anchor="middle" x="704.5" y="-663.2" font-family="Courier,monospace" font-size="11.00">Horde_Image_Exif_Parser_Panasonic</text>
</g>
<!-- \\Horde_Image_Exif_Parser_Panasonic&#45;&gt;\\Horde_Image_Exif_Parser_Base -->
<g id="edge14" class="edge"><title>\\Horde_Image_Exif_Parser_Panasonic&#45;&gt;\\Horde_Image_Exif_Parser_Base</title>
<path fill="none" stroke="black" d="M607.886,-647.939C600.002,-645.334 592.276,-642.37 585,-639 548.704,-622.188 549.599,-601.141 513,-585 503.299,-580.721 492.933,-577.12 482.385,-574.088"/>
<polygon fill="none" stroke="black" points="483.226,-570.69 472.66,-571.461 481.401,-577.448 483.226,-570.69"/>
</g>
<!-- \\Horde_Image_Exif_Parser_Nikon -->
<g id="node17" class="node"><title>\\Horde_Image_Exif_Parser_Nikon</title>
<polygon fill="none" stroke="black" points="810.5,-1008 598.5,-1008 598.5,-972 810.5,-972 810.5,-1008"/>
<text text-anchor="middle" x="704.5" y="-987.2" font-family="Courier,monospace" font-size="11.00">Horde_Image_Exif_Parser_Nikon</text>
</g>
<!-- \\Horde_Image_Exif_Parser_Nikon&#45;&gt;\\Horde_Image_Exif_Parser_Base -->
<g id="edge15" class="edge"><title>\\Horde_Image_Exif_Parser_Nikon&#45;&gt;\\Horde_Image_Exif_Parser_Base</title>
<path fill="none" stroke="black" d="M598.438,-973.848C593.56,-970.766 589.029,-967.176 585,-963 466.254,-839.925 633.988,-705.871 513,-585 504.302,-576.31 493.738,-569.953 482.336,-565.355"/>
<polygon fill="none" stroke="black" points="483.179,-561.941 472.584,-561.894 480.837,-568.537 483.179,-561.941"/>
</g>
<!-- \\Horde_Image_Gd -->
<g id="node20" class="node"><title>\\Horde_Image_Gd</title>
<polygon fill="none" stroke="black" points="760,-522 649,-522 649,-486 760,-486 760,-522"/>
<text text-anchor="middle" x="704.5" y="-501.2" font-family="Courier,monospace" font-size="11.00">Horde_Image_Gd</text>
</g>
<!-- \\Horde_Image_Gd&#45;&gt;\\Horde_Image_Base -->
<g id="edge16" class="edge"><title>\\Horde_Image_Gd&#45;&gt;\\Horde_Image_Base</title>
<path fill="none" stroke="black" d="M648.715,-503.848C626.21,-500.953 601.591,-493.68 585,-477 480.972,-372.414 618.933,-255.656 513,-153 494.323,-134.901 467.52,-127.011 442.188,-124.039"/>
<polygon fill="none" stroke="black" points="442.483,-120.552 432.2,-123.103 441.83,-127.521 442.483,-120.552"/>
</g>
<!-- \\Horde_Image_Effect -->
<g id="node21" class="node"><title>\\Horde_Image_Effect</title>
<polygon fill="none" stroke="black" points="154,-954 16,-954 16,-918 154,-918 154,-954"/>
<text text-anchor="middle" x="85" y="-933.2" font-family="Courier,monospace" font-size="11.00">Horde_Image_Effect</text>
</g>
<!-- \\Horde_Image_Im -->
<g id="node22" class="node"><title>\\Horde_Image_Im</title>
<polygon fill="none" stroke="black" points="760,-468 649,-468 649,-432 760,-432 760,-468"/>
<text text-anchor="middle" x="704.5" y="-447.2" font-family="Courier,monospace" font-size="11.00">Horde_Image_Im</text>
</g>
<!-- \\Horde_Image_Im&#45;&gt;\\Horde_Image_Base -->
<g id="edge17" class="edge"><title>\\Horde_Image_Im&#45;&gt;\\Horde_Image_Base</title>
<path fill="none" stroke="black" d="M648.744,-449.472C626.379,-446.491 601.861,-439.256 585,-423 495.591,-336.803 603.979,-237.539 513,-153 494.113,-135.45 467.538,-127.62 442.446,-124.541"/>
<polygon fill="none" stroke="black" points="442.479,-121.028 432.183,-123.527 441.79,-127.994 442.479,-121.028"/>
</g>
<!-- \\Horde_Image_Effect_Im_Composite -->
<g id="node23" class="node"><title>\\Horde_Image_Effect_Im_Composite</title>
<polygon fill="none" stroke="black" points="482.5,-1494 256.5,-1494 256.5,-1458 482.5,-1458 482.5,-1494"/>
<text text-anchor="middle" x="369.5" y="-1473.2" font-family="Courier,monospace" font-size="11.00">Horde_Image_Effect_Im_Composite</text>
</g>
<!-- \\Horde_Image_Effect_Im_Composite&#45;&gt;\\Horde_Image_Effect -->
<g id="edge18" class="edge"><title>\\Horde_Image_Effect_Im_Composite&#45;&gt;\\Horde_Image_Effect</title>
<path fill="none" stroke="black" d="M256.38,-1467.59C245.216,-1463.15 234.785,-1457.12 226,-1449 152.632,-1381.22 103.268,-1061.5 89.7487,-964.178"/>
<polygon fill="none" stroke="black" points="93.206,-963.628 88.3799,-954.196 86.2709,-964.579 93.206,-963.628"/>
</g>
<!-- \\Horde_Image_Effect_Im_PolaroidImage -->
<g id="node24" class="node"><title>\\Horde_Image_Effect_Im_PolaroidImage</title>
<polygon fill="none" stroke="black" points="496,-1440 243,-1440 243,-1404 496,-1404 496,-1440"/>
<text text-anchor="middle" x="369.5" y="-1419.2" font-family="Courier,monospace" font-size="11.00">Horde_Image_Effect_Im_PolaroidImage</text>
</g>
<!-- \\Horde_Image_Effect_Im_PolaroidImage&#45;&gt;\\Horde_Image_Effect -->
<g id="edge19" class="edge"><title>\\Horde_Image_Effect_Im_PolaroidImage&#45;&gt;\\Horde_Image_Effect</title>
<path fill="none" stroke="black" d="M242.901,-1406.92C236.847,-1403.56 231.155,-1399.62 226,-1395 96.2648,-1278.66 85.0697,-1046.02 85.316,-964.789"/>
<polygon fill="none" stroke="black" points="88.8198,-964.392 85.4155,-954.359 81.8201,-964.326 88.8198,-964.392"/>
</g>
<!-- \\Horde_Image_Effect_Im_Unsharpmask -->
<g id="node25" class="node"><title>\\Horde_Image_Effect_Im_Unsharpmask</title>
<polygon fill="none" stroke="black" points="489,-1386 250,-1386 250,-1350 489,-1350 489,-1386"/>
<text text-anchor="middle" x="369.5" y="-1365.2" font-family="Courier,monospace" font-size="11.00">Horde_Image_Effect_Im_Unsharpmask</text>
</g>
<!-- \\Horde_Image_Effect_Im_Unsharpmask&#45;&gt;\\Horde_Image_Effect -->
<g id="edge20" class="edge"><title>\\Horde_Image_Effect_Im_Unsharpmask&#45;&gt;\\Horde_Image_Effect</title>
<path fill="none" stroke="black" d="M249.892,-1356.06C241.254,-1352.12 233.145,-1347.17 226,-1341 109.842,-1240.63 89.9821,-1038.93 86.6478,-964.465"/>
<polygon fill="none" stroke="black" points="90.1437,-964.289 86.2663,-954.429 83.1488,-964.555 90.1437,-964.289"/>
</g>
<!-- \\Horde_Image_Effect_Im_Border -->
<g id="node26" class="node"><title>\\Horde_Image_Effect_Im_Border</title>
<polygon fill="none" stroke="black" points="807.5,-1386 601.5,-1386 601.5,-1350 807.5,-1350 807.5,-1386"/>
<text text-anchor="middle" x="704.5" y="-1365.2" font-family="Courier,monospace" font-size="11.00">Horde_Image_Effect_Im_Border</text>
</g>
<!-- \\Horde_Image_Effect_Border -->
<g id="node40" class="node"><title>\\Horde_Image_Effect_Border</title>
<polygon fill="none" stroke="black" points="462,-1548 277,-1548 277,-1512 462,-1512 462,-1548"/>
<text text-anchor="middle" x="369.5" y="-1527.2" font-family="Courier,monospace" font-size="11.00">Horde_Image_Effect_Border</text>
</g>
<!-- \\Horde_Image_Effect_Im_Border&#45;&gt;\\Horde_Image_Effect_Border -->
<g id="edge21" class="edge"><title>\\Horde_Image_Effect_Im_Border&#45;&gt;\\Horde_Image_Effect_Border</title>
<path fill="none" stroke="black" d="M601.395,-1385.71C595.643,-1388.39 590.125,-1391.47 585,-1395 537.499,-1427.74 561.095,-1471.14 513,-1503 500.719,-1511.13 486.61,-1516.96 472.149,-1521.11"/>
<polygon fill="none" stroke="black" points="470.898,-1517.82 462.1,-1523.72 472.659,-1524.59 470.898,-1517.82"/>
</g>
<!-- \\Horde_Image_Effect_Im_RoundCorners -->
<g id="node27" class="node"><title>\\Horde_Image_Effect_Im_RoundCorners</title>
<polygon fill="none" stroke="black" points="492.5,-1332 246.5,-1332 246.5,-1296 492.5,-1296 492.5,-1332"/>
<text text-anchor="middle" x="369.5" y="-1311.2" font-family="Courier,monospace" font-size="11.00">Horde_Image_Effect_Im_RoundCorners</text>
</g>
<!-- \\Horde_Image_Effect_Im_RoundCorners&#45;&gt;\\Horde_Image_Effect -->
<g id="edge22" class="edge"><title>\\Horde_Image_Effect_Im_RoundCorners&#45;&gt;\\Horde_Image_Effect</title>
<path fill="none" stroke="black" d="M246.405,-1299.93C239.108,-1296.39 232.218,-1292.12 226,-1287 123.367,-1202.42 95.4903,-1031.7 88.3318,-964.297"/>
<polygon fill="none" stroke="black" points="91.7842,-963.641 87.3196,-954.033 84.818,-964.328 91.7842,-963.641"/>
</g>
<!-- \\Horde_Image_Effect_Im_DropShadow -->
<g id="node28" class="node"><title>\\Horde_Image_Effect_Im_DropShadow</title>
<polygon fill="none" stroke="black" points="486,-1278 253,-1278 253,-1242 486,-1242 486,-1278"/>
<text text-anchor="middle" x="369.5" y="-1257.2" font-family="Courier,monospace" font-size="11.00">Horde_Image_Effect_Im_DropShadow</text>
</g>
<!-- \\Horde_Image_Effect_Im_DropShadow&#45;&gt;\\Horde_Image_Effect -->
<g id="edge23" class="edge"><title>\\Horde_Image_Effect_Im_DropShadow&#45;&gt;\\Horde_Image_Effect</title>
<path fill="none" stroke="black" d="M252.714,-1248.08C243.143,-1244.19 234.064,-1239.24 226,-1233 136.703,-1163.87 101.773,-1023.88 90.541,-964.092"/>
<polygon fill="none" stroke="black" points="93.9812,-963.447 88.7675,-954.224 87.0916,-964.685 93.9812,-963.447"/>
</g>
<!-- \\Horde_Image_Effect_Im_TextWatermark -->
<g id="node29" class="node"><title>\\Horde_Image_Effect_Im_TextWatermark</title>
<polygon fill="none" stroke="black" points="496,-1224 243,-1224 243,-1188 496,-1188 496,-1224"/>
<text text-anchor="middle" x="369.5" y="-1203.2" font-family="Courier,monospace" font-size="11.00">Horde_Image_Effect_Im_TextWatermark</text>
</g>
<!-- \\Horde_Image_Effect_Im_TextWatermark&#45;&gt;\\Horde_Image_Effect -->
<g id="edge24" class="edge"><title>\\Horde_Image_Effect_Im_TextWatermark&#45;&gt;\\Horde_Image_Effect</title>
<path fill="none" stroke="black" d="M242.691,-1188.79C236.84,-1185.96 231.234,-1182.72 226,-1179 149.876,-1124.92 109.236,-1015.49 93.6378,-963.989"/>
<polygon fill="none" stroke="black" points="96.9416,-962.817 90.7671,-954.207 90.2249,-964.788 96.9416,-962.817"/>
</g>
<!-- \\Horde_Image_Effect_Im_CenterCrop -->
<g id="node30" class="node"><title>\\Horde_Image_Effect_Im_CenterCrop</title>
<polygon fill="none" stroke="black" points="486,-1170 253,-1170 253,-1134 486,-1134 486,-1170"/>
<text text-anchor="middle" x="369.5" y="-1149.2" font-family="Courier,monospace" font-size="11.00">Horde_Image_Effect_Im_CenterCrop</text>
</g>
<!-- \\Horde_Image_Effect_Im_CenterCrop&#45;&gt;\\Horde_Image_Effect -->
<g id="edge25" class="edge"><title>\\Horde_Image_Effect_Im_CenterCrop&#45;&gt;\\Horde_Image_Effect</title>
<path fill="none" stroke="black" d="M252.846,-1137.94C243.41,-1134.47 234.319,-1130.22 226,-1125 162.459,-1085.14 118.023,-1005.17 97.9901,-963.178"/>
<polygon fill="none" stroke="black" points="101.152,-961.678 93.7555,-954.092 94.8078,-964.635 101.152,-961.678"/>
</g>
<!-- \\Horde_Image_Effect_Im_LiquidResize -->
<g id="node31" class="node"><title>\\Horde_Image_Effect_Im_LiquidResize</title>
<polygon fill="none" stroke="black" points="492.5,-1116 246.5,-1116 246.5,-1080 492.5,-1080 492.5,-1116"/>
<text text-anchor="middle" x="369.5" y="-1095.2" font-family="Courier,monospace" font-size="11.00">Horde_Image_Effect_Im_LiquidResize</text>
</g>
<!-- \\Horde_Image_Effect_Im_LiquidResize&#45;&gt;\\Horde_Image_Effect -->
<g id="edge26" class="edge"><title>\\Horde_Image_Effect_Im_LiquidResize&#45;&gt;\\Horde_Image_Effect</title>
<path fill="none" stroke="black" d="M246.371,-1079.87C239.332,-1077.29 232.486,-1074.35 226,-1071 175.008,-1044.63 129.998,-993.744 105.514,-962.535"/>
<polygon fill="none" stroke="black" points="108.04,-960.078 99.1652,-954.291 102.494,-964.349 108.04,-960.078"/>
</g>
<!-- \\Horde_Image_Effect_Im_PhotoStack -->
<g id="node32" class="node"><title>\\Horde_Image_Effect_Im_PhotoStack</title>
<polygon fill="none" stroke="black" points="486,-1062 253,-1062 253,-1026 486,-1026 486,-1062"/>
<text text-anchor="middle" x="369.5" y="-1041.2" font-family="Courier,monospace" font-size="11.00">Horde_Image_Effect_Im_PhotoStack</text>
</g>
<!-- \\Horde_Image_Effect_Im_PhotoStack&#45;&gt;\\Horde_Image_Effect -->
<g id="edge27" class="edge"><title>\\Horde_Image_Effect_Im_PhotoStack&#45;&gt;\\Horde_Image_Effect</title>
<path fill="none" stroke="black" d="M254.377,-1025.96C244.663,-1023.35 235.087,-1020.38 226,-1017 187.524,-1002.7 147.341,-978.319 119.945,-960.034"/>
<polygon fill="none" stroke="black" points="121.762,-957.037 111.518,-954.332 117.839,-962.835 121.762,-957.037"/>
</g>
<!-- \\Horde_Image_Effect_Im_Blur -->
<g id="node33" class="node"><title>\\Horde_Image_Effect_Im_Blur</title>
<polygon fill="none" stroke="black" points="465.5,-1008 273.5,-1008 273.5,-972 465.5,-972 465.5,-1008"/>
<text text-anchor="middle" x="369.5" y="-987.2" font-family="Courier,monospace" font-size="11.00">Horde_Image_Effect_Im_Blur</text>
</g>
<!-- \\Horde_Image_Effect_Im_Blur&#45;&gt;\\Horde_Image_Effect -->
<g id="edge28" class="edge"><title>\\Horde_Image_Effect_Im_Blur&#45;&gt;\\Horde_Image_Effect</title>
<path fill="none" stroke="black" d="M273.444,-972.034C257.599,-969.026 241.334,-965.931 226,-963 206.033,-959.183 184.469,-955.036 164.387,-951.164"/>
<polygon fill="none" stroke="black" points="164.833,-947.686 154.351,-949.228 163.507,-954.559 164.833,-947.686"/>
</g>
<!-- \\Horde_Image_Effect_Gd_Unsharpmask -->
<g id="node34" class="node"><title>\\Horde_Image_Effect_Gd_Unsharpmask</title>
<polygon fill="none" stroke="black" points="489,-954 250,-954 250,-918 489,-918 489,-954"/>
<text text-anchor="middle" x="369.5" y="-933.2" font-family="Courier,monospace" font-size="11.00">Horde_Image_Effect_Gd_Unsharpmask</text>
</g>
<!-- \\Horde_Image_Effect_Gd_Unsharpmask&#45;&gt;\\Horde_Image_Effect -->
<g id="edge29" class="edge"><title>\\Horde_Image_Effect_Gd_Unsharpmask&#45;&gt;\\Horde_Image_Effect</title>
<path fill="none" stroke="black" d="M249.922,-936C221.13,-936 191.046,-936 164.628,-936"/>
<polygon fill="none" stroke="black" points="164.312,-932.5 154.312,-936 164.312,-939.5 164.312,-932.5"/>
</g>
<!-- \\Horde_Image_Effect_Gd_Border -->
<g id="node35" class="node"><title>\\Horde_Image_Effect_Gd_Border</title>
<polygon fill="none" stroke="black" points="807.5,-1332 601.5,-1332 601.5,-1296 807.5,-1296 807.5,-1332"/>
<text text-anchor="middle" x="704.5" y="-1311.2" font-family="Courier,monospace" font-size="11.00">Horde_Image_Effect_Gd_Border</text>
</g>
<!-- \\Horde_Image_Effect_Gd_Border&#45;&gt;\\Horde_Image_Effect_Border -->
<g id="edge30" class="edge"><title>\\Horde_Image_Effect_Gd_Border&#45;&gt;\\Horde_Image_Effect_Border</title>
<path fill="none" stroke="black" d="M601.499,-1330.28C595.618,-1333.3 590.052,-1336.84 585,-1341 524.148,-1391.05 574.762,-1454.08 513,-1503 501.019,-1512.49 486.707,-1519 471.844,-1523.4"/>
<polygon fill="none" stroke="black" points="470.787,-1520.06 462.016,-1526.01 472.579,-1526.83 470.787,-1520.06"/>
</g>
<!-- \\Horde_Image_Effect_Gd_RoundCorners -->
<g id="node36" class="node"><title>\\Horde_Image_Effect_Gd_RoundCorners</title>
<polygon fill="none" stroke="black" points="492.5,-900 246.5,-900 246.5,-864 492.5,-864 492.5,-900"/>
<text text-anchor="middle" x="369.5" y="-879.2" font-family="Courier,monospace" font-size="11.00">Horde_Image_Effect_Gd_RoundCorners</text>
</g>
<!-- \\Horde_Image_Effect_Gd_RoundCorners&#45;&gt;\\Horde_Image_Effect -->
<g id="edge31" class="edge"><title>\\Horde_Image_Effect_Gd_RoundCorners&#45;&gt;\\Horde_Image_Effect</title>
<path fill="none" stroke="black" d="M273.061,-900.039C257.336,-903.024 241.21,-906.092 226,-909 206.033,-912.817 184.469,-916.964 164.387,-920.836"/>
<polygon fill="none" stroke="black" points="163.507,-917.441 154.351,-922.772 164.833,-924.314 163.507,-917.441"/>
</g>
<!-- \\Horde_Image_Effect_Gd_DropShadow -->
<g id="node37" class="node"><title>\\Horde_Image_Effect_Gd_DropShadow</title>
<polygon fill="none" stroke="black" points="486,-846 253,-846 253,-810 486,-810 486,-846"/>
<text text-anchor="middle" x="369.5" y="-825.2" font-family="Courier,monospace" font-size="11.00">Horde_Image_Effect_Gd_DropShadow</text>
</g>
<!-- \\Horde_Image_Effect_Gd_DropShadow&#45;&gt;\\Horde_Image_Effect -->
<g id="edge32" class="edge"><title>\\Horde_Image_Effect_Gd_DropShadow&#45;&gt;\\Horde_Image_Effect</title>
<path fill="none" stroke="black" d="M254.377,-846.037C244.663,-848.65 235.087,-851.622 226,-855 187.524,-869.302 147.341,-893.681 119.945,-911.966"/>
<polygon fill="none" stroke="black" points="117.839,-909.165 111.518,-917.668 121.762,-914.963 117.839,-909.165"/>
</g>
<!-- \\Horde_Image_Effect_Gd_TextWatermark -->
<g id="node38" class="node"><title>\\Horde_Image_Effect_Gd_TextWatermark</title>
<polygon fill="none" stroke="black" points="496,-792 243,-792 243,-756 496,-756 496,-792"/>
<text text-anchor="middle" x="369.5" y="-771.2" font-family="Courier,monospace" font-size="11.00">Horde_Image_Effect_Gd_TextWatermark</text>
</g>
<!-- \\Horde_Image_Effect_Gd_TextWatermark&#45;&gt;\\Horde_Image_Effect -->
<g id="edge33" class="edge"><title>\\Horde_Image_Effect_Gd_TextWatermark&#45;&gt;\\Horde_Image_Effect</title>
<path fill="none" stroke="black" d="M246.371,-792.127C239.332,-794.705 232.486,-797.646 226,-801 175.008,-827.368 129.998,-878.256 105.514,-909.465"/>
<polygon fill="none" stroke="black" points="102.494,-907.651 99.1652,-917.709 108.04,-911.922 102.494,-907.651"/>
</g>
<!-- \\Horde_Image_Effect_Gd_Blur -->
<g id="node39" class="node"><title>\\Horde_Image_Effect_Gd_Blur</title>
<polygon fill="none" stroke="black" points="465.5,-738 273.5,-738 273.5,-702 465.5,-702 465.5,-738"/>
<text text-anchor="middle" x="369.5" y="-717.2" font-family="Courier,monospace" font-size="11.00">Horde_Image_Effect_Gd_Blur</text>
</g>
<!-- \\Horde_Image_Effect_Gd_Blur&#45;&gt;\\Horde_Image_Effect -->
<g id="edge34" class="edge"><title>\\Horde_Image_Effect_Gd_Blur&#45;&gt;\\Horde_Image_Effect</title>
<path fill="none" stroke="black" d="M273.169,-727.854C256.616,-732.005 240.185,-738.102 226,-747 162.459,-786.859 118.023,-866.828 97.9901,-908.822"/>
<polygon fill="none" stroke="black" points="94.8078,-907.365 93.7555,-917.908 101.152,-910.322 94.8078,-907.365"/>
</g>
<!-- \\Horde_Image_Effect_Border&#45;&gt;\\Horde_Image_Effect -->
<g id="edge35" class="edge"><title>\\Horde_Image_Effect_Border&#45;&gt;\\Horde_Image_Effect</title>
<path fill="none" stroke="black" d="M276.833,-1528.24C258.102,-1523.88 239.897,-1516.16 226,-1503 145.637,-1426.93 100.536,-1068.37 88.9892,-964.353"/>
<polygon fill="none" stroke="black" points="92.4551,-963.85 87.8892,-954.29 85.4965,-964.611 92.4551,-963.85"/>
</g>
<!-- \\Horde_Image_Effect_Imagick_Composite -->
<g id="node41" class="node"><title>\\Horde_Image_Effect_Imagick_Composite</title>
<polygon fill="none" stroke="black" points="499.5,-684 239.5,-684 239.5,-648 499.5,-648 499.5,-684"/>
<text text-anchor="middle" x="369.5" y="-663.2" font-family="Courier,monospace" font-size="11.00">Horde_Image_Effect_Imagick_Composite</text>
</g>
<!-- \\Horde_Image_Effect_Imagick_Composite&#45;&gt;\\Horde_Image_Effect -->
<g id="edge36" class="edge"><title>\\Horde_Image_Effect_Imagick_Composite&#45;&gt;\\Horde_Image_Effect</title>
<path fill="none" stroke="black" d="M240.977,-684.05C235.744,-686.677 230.721,-689.646 226,-693 149.876,-747.08 109.236,-856.514 93.6378,-908.011"/>
<polygon fill="none" stroke="black" points="90.2249,-907.212 90.7671,-917.793 96.9416,-909.183 90.2249,-907.212"/>
</g>
<!-- \\Horde_Image_Effect_Imagick_SmartCrop -->
<g id="node42" class="node"><title>\\Horde_Image_Effect_Imagick_SmartCrop</title>
<polygon fill="none" stroke="black" points="499.5,-630 239.5,-630 239.5,-594 499.5,-594 499.5,-630"/>
<text text-anchor="middle" x="369.5" y="-609.2" font-family="Courier,monospace" font-size="11.00">Horde_Image_Effect_Imagick_SmartCrop</text>
</g>
<!-- \\Horde_Image_Effect_Imagick_SmartCrop&#45;&gt;\\Horde_Image_Effect -->
<g id="edge37" class="edge"><title>\\Horde_Image_Effect_Imagick_SmartCrop&#45;&gt;\\Horde_Image_Effect</title>
<path fill="none" stroke="black" d="M239.622,-630.119C234.848,-632.738 230.281,-635.686 226,-639 136.703,-708.129 101.773,-848.124 90.541,-907.908"/>
<polygon fill="none" stroke="black" points="87.0916,-907.315 88.7675,-917.776 93.9812,-908.553 87.0916,-907.315"/>
</g>
<!-- \\Horde_Image_Effect_Imagick_PolaroidImage -->
<g id="node43" class="node"><title>\\Horde_Image_Effect_Imagick_PolaroidImage</title>
<polygon fill="none" stroke="black" points="513,-522 226,-522 226,-486 513,-486 513,-522"/>
<text text-anchor="middle" x="369.5" y="-501.2" font-family="Courier,monospace" font-size="11.00">Horde_Image_Effect_Imagick_PolaroidImage</text>
</g>
<!-- \\Horde_Image_Effect_Imagick_PolaroidImage&#45;&gt;\\Horde_Image_Effect -->
<g id="edge38" class="edge"><title>\\Horde_Image_Effect_Imagick_PolaroidImage&#45;&gt;\\Horde_Image_Effect</title>
<path fill="none" stroke="black" d="M238.188,-522.137C233.895,-524.765 229.81,-527.707 226,-531 109.842,-631.37 89.9821,-833.074 86.6478,-907.535"/>
<polygon fill="none" stroke="black" points="83.1488,-907.445 86.2663,-917.571 90.1437,-907.711 83.1488,-907.445"/>
</g>
<!-- \\Horde_Image_Effect_Imagick_Unsharpmask -->
<g id="node44" class="node"><title>\\Horde_Image_Effect_Imagick_Unsharpmask</title>
<polygon fill="none" stroke="black" points="506,-468 233,-468 233,-432 506,-432 506,-468"/>
<text text-anchor="middle" x="369.5" y="-447.2" font-family="Courier,monospace" font-size="11.00">Horde_Image_Effect_Imagick_Unsharpmask</text>
</g>
<!-- \\Horde_Image_Effect_Imagick_Unsharpmask&#45;&gt;\\Horde_Image_Effect -->
<g id="edge39" class="edge"><title>\\Horde_Image_Effect_Imagick_Unsharpmask&#45;&gt;\\Horde_Image_Effect</title>
<path fill="none" stroke="black" d="M237.714,-468.161C233.581,-470.787 229.656,-473.722 226,-477 96.2648,-593.336 85.0697,-825.977 85.316,-907.211"/>
<polygon fill="none" stroke="black" points="81.8201,-907.674 85.4155,-917.641 88.8198,-907.608 81.8201,-907.674"/>
</g>
<!-- \\Horde_Image_Effect_Imagick_Border -->
<g id="node45" class="node"><title>\\Horde_Image_Effect_Imagick_Border</title>
<polygon fill="none" stroke="black" points="824,-1440 585,-1440 585,-1404 824,-1404 824,-1440"/>
<text text-anchor="middle" x="704.5" y="-1419.2" font-family="Courier,monospace" font-size="11.00">Horde_Image_Effect_Imagick_Border</text>
</g>
<!-- \\Horde_Image_Effect_Imagick_Border&#45;&gt;\\Horde_Image_Effect_Border -->
<g id="edge40" class="edge"><title>\\Horde_Image_Effect_Imagick_Border&#45;&gt;\\Horde_Image_Effect_Border</title>
<path fill="none" stroke="black" d="M607.886,-1440.06C600.002,-1442.67 592.276,-1445.63 585,-1449 548.704,-1465.81 549.599,-1486.86 513,-1503 500.084,-1508.7 485.991,-1513.19 471.856,-1516.74"/>
<polygon fill="none" stroke="black" points="471.006,-1513.35 462.077,-1519.05 472.614,-1520.16 471.006,-1513.35"/>
</g>
<!-- \\Horde_Image_Effect_Imagick_RoundCorners -->
<g id="node46" class="node"><title>\\Horde_Image_Effect_Imagick_RoundCorners</title>
<polygon fill="none" stroke="black" points="509.5,-414 229.5,-414 229.5,-378 509.5,-378 509.5,-414"/>
<text text-anchor="middle" x="369.5" y="-393.2" font-family="Courier,monospace" font-size="11.00">Horde_Image_Effect_Imagick_RoundCorners</text>
</g>
<!-- \\Horde_Image_Effect_Imagick_RoundCorners&#45;&gt;\\Horde_Image_Effect -->
<g id="edge41" class="edge"><title>\\Horde_Image_Effect_Imagick_RoundCorners&#45;&gt;\\Horde_Image_Effect</title>
<path fill="none" stroke="black" d="M237.589,-414.023C233.491,-416.687 229.607,-419.668 226,-423 152.632,-490.779 103.268,-810.501 89.7487,-907.822"/>
<polygon fill="none" stroke="black" points="86.2709,-907.421 88.3799,-917.804 93.206,-908.372 86.2709,-907.421"/>
</g>
<!-- \\Horde_Image_Effect_Imagick_DropShadow -->
<g id="node47" class="node"><title>\\Horde_Image_Effect_Imagick_DropShadow</title>
<polygon fill="none" stroke="black" points="502.5,-360 236.5,-360 236.5,-324 502.5,-324 502.5,-360"/>
<text text-anchor="middle" x="369.5" y="-339.2" font-family="Courier,monospace" font-size="11.00">Horde_Image_Effect_Imagick_DropShadow</text>
</g>
<!-- \\Horde_Image_Effect_Imagick_DropShadow&#45;&gt;\\Horde_Image_Effect -->
<g id="edge42" class="edge"><title>\\Horde_Image_Effect_Imagick_DropShadow&#45;&gt;\\Horde_Image_Effect</title>
<path fill="none" stroke="black" d="M237.172,-360.119C233.218,-362.762 229.474,-365.711 226,-369 145.637,-445.074 100.536,-803.625 88.9892,-907.647"/>
<polygon fill="none" stroke="black" points="85.4965,-907.389 87.8892,-917.71 92.4551,-908.15 85.4965,-907.389"/>
</g>
<!-- \\Horde_Image_Effect_Imagick_TextWatermark -->
<g id="node48" class="node"><title>\\Horde_Image_Effect_Imagick_TextWatermark</title>
<polygon fill="none" stroke="black" points="513,-306 226,-306 226,-270 513,-270 513,-306"/>
<text text-anchor="middle" x="369.5" y="-285.2" font-family="Courier,monospace" font-size="11.00">Horde_Image_Effect_Imagick_TextWatermark</text>
</g>
<!-- \\Horde_Image_Effect_Imagick_TextWatermark&#45;&gt;\\Horde_Image_Effect -->
<g id="edge43" class="edge"><title>\\Horde_Image_Effect_Imagick_TextWatermark&#45;&gt;\\Horde_Image_Effect</title>
<path fill="none" stroke="black" d="M237.085,-306.029C233.156,-308.697 229.441,-311.676 226,-315 138.501,-399.533 97.954,-797.991 88.3178,-907.876"/>
<polygon fill="none" stroke="black" points="84.828,-907.608 87.4574,-917.872 91.8022,-908.209 84.828,-907.608"/>
</g>
<!-- \\Horde_Image_Effect_Imagick_CenterCrop -->
<g id="node49" class="node"><title>\\Horde_Image_Effect_Imagick_CenterCrop</title>
<polygon fill="none" stroke="black" points="502.5,-252 236.5,-252 236.5,-216 502.5,-216 502.5,-252"/>
<text text-anchor="middle" x="369.5" y="-231.2" font-family="Courier,monospace" font-size="11.00">Horde_Image_Effect_Imagick_CenterCrop</text>
</g>
<!-- \\Horde_Image_Effect_Imagick_CenterCrop&#45;&gt;\\Horde_Image_Effect -->
<g id="edge44" class="edge"><title>\\Horde_Image_Effect_Imagick_CenterCrop&#45;&gt;\\Horde_Image_Effect</title>
<path fill="none" stroke="black" d="M236.703,-252.166C232.908,-254.8 229.322,-257.735 226,-261 131.426,-353.956 95.6801,-791.77 87.7812,-907.749"/>
<polygon fill="none" stroke="black" points="84.2745,-907.735 87.1027,-917.945 91.259,-908.2 84.2745,-907.735"/>
</g>
<!-- \\Horde_Image_Effect_Imagick_LiquidResize -->
<g id="node50" class="node"><title>\\Horde_Image_Effect_Imagick_LiquidResize</title>
<polygon fill="none" stroke="black" points="509.5,-198 229.5,-198 229.5,-162 509.5,-162 509.5,-198"/>
<text text-anchor="middle" x="369.5" y="-177.2" font-family="Courier,monospace" font-size="11.00">Horde_Image_Effect_Imagick_LiquidResize</text>
</g>
<!-- \\Horde_Image_Effect_Imagick_LiquidResize&#45;&gt;\\Horde_Image_Effect -->
<g id="edge45" class="edge"><title>\\Horde_Image_Effect_Imagick_LiquidResize&#45;&gt;\\Horde_Image_Effect</title>
<path fill="none" stroke="black" d="M236.641,-198.103C232.863,-200.755 229.298,-203.71 226,-207 124.257,-308.491 93.5338,-786.413 87.3062,-907.872"/>
<polygon fill="none" stroke="black" points="83.8099,-907.713 86.808,-917.875 90.8012,-908.062 83.8099,-907.713"/>
</g>
<!-- \\Horde_Image_Effect_Imagick_PhotoStack -->
<g id="node51" class="node"><title>\\Horde_Image_Effect_Imagick_PhotoStack</title>
<polygon fill="none" stroke="black" points="502.5,-1710 236.5,-1710 236.5,-1674 502.5,-1674 502.5,-1710"/>
<text text-anchor="middle" x="369.5" y="-1689.2" font-family="Courier,monospace" font-size="11.00">Horde_Image_Effect_Imagick_PhotoStack</text>
</g>
<!-- \\Horde_Image_Effect_Imagick_PhotoStack&#45;&gt;\\Horde_Image_Effect -->
<g id="edge46" class="edge"><title>\\Horde_Image_Effect_Imagick_PhotoStack&#45;&gt;\\Horde_Image_Effect</title>
<path fill="none" stroke="black" d="M236.641,-1673.9C232.863,-1671.25 229.298,-1668.29 226,-1665 124.257,-1563.51 93.5338,-1085.59 87.3062,-964.128"/>
<polygon fill="none" stroke="black" points="90.8012,-963.938 86.808,-954.125 83.8099,-964.287 90.8012,-963.938"/>
</g>
<!-- \\Horde_Image_Effect_Imagick_Blur -->
<g id="node52" class="node"><title>\\Horde_Image_Effect_Imagick_Blur</title>
<polygon fill="none" stroke="black" points="482.5,-1602 256.5,-1602 256.5,-1566 482.5,-1566 482.5,-1602"/>
<text text-anchor="middle" x="369.5" y="-1581.2" font-family="Courier,monospace" font-size="11.00">Horde_Image_Effect_Imagick_Blur</text>
</g>
<!-- \\Horde_Image_Effect_Imagick_Blur&#45;&gt;\\Horde_Image_Effect -->
<g id="edge47" class="edge"><title>\\Horde_Image_Effect_Imagick_Blur&#45;&gt;\\Horde_Image_Effect</title>
<path fill="none" stroke="black" d="M256.366,-1576.12C245.135,-1571.6 234.692,-1565.4 226,-1557 138.501,-1472.47 97.954,-1074.01 88.3178,-964.124"/>
<polygon fill="none" stroke="black" points="91.8022,-963.791 87.4574,-954.128 84.828,-964.392 91.8022,-963.791"/>
</g>
<!-- \\EmptyIterator -->
<g id="node58" class="node"><title>\\EmptyIterator</title>
<ellipse fill="none" stroke="black" cx="85" cy="-74" rx="63.0888" ry="18"/>
<text text-anchor="middle" x="85" y="-70.3" font-family="Times,serif" font-size="14.00" fill="gray">\EmptyIterator</text>
</g>
<!-- \\Horde_Image_Base&#45;&gt;\\EmptyIterator -->
<g id="edge48" class="edge"><title>\\Horde_Image_Base&#45;&gt;\\EmptyIterator</title>
<path fill="none" stroke="black" d="M306.853,-114.653C259.966,-106.022 195.702,-94.193 148.585,-85.52"/>
<polygon fill="none" stroke="black" points="148.972,-82.0326 138.504,-83.6644 147.705,-88.9169 148.972,-82.0326"/>
</g>
<!-- \\Horde_Image_Png -->
<g id="node54" class="node"><title>\\Horde_Image_Png</title>
<polygon fill="none" stroke="black" points="763.5,-414 645.5,-414 645.5,-378 763.5,-378 763.5,-414"/>
<text text-anchor="middle" x="704.5" y="-393.2" font-family="Courier,monospace" font-size="11.00">Horde_Image_Png</text>
</g>
<!-- \\Horde_Image_Png&#45;&gt;\\Horde_Image_Base -->
<g id="edge49" class="edge"><title>\\Horde_Image_Png&#45;&gt;\\Horde_Image_Base</title>
<path fill="none" stroke="black" d="M645.279,-394.386C624.079,-391.03 601.334,-383.811 585,-369 510.036,-301.026 589.201,-219.584 513,-153 493.669,-136.108 467.134,-128.389 442.198,-125.214"/>
<polygon fill="none" stroke="black" points="442.316,-121.708 432.006,-124.149 441.588,-128.67 442.316,-121.708"/>
</g>
<!-- \\Horde_Image_Translation -->
<g id="node55" class="node"><title>\\Horde_Image_Translation</title>
<polygon fill="none" stroke="black" points="790.5,-198 618.5,-198 618.5,-162 790.5,-162 790.5,-198"/>
<text text-anchor="middle" x="704.5" y="-177.2" font-family="Courier,monospace" font-size="11.00">Horde_Image_Translation</text>
</g>
<!-- \\Horde_Translation_Autodetect -->
<g id="node59" class="node"><title>\\Horde_Translation_Autodetect</title>
<ellipse fill="none" stroke="black" cx="369.5" cy="-18" rx="122.379" ry="18"/>
<text text-anchor="middle" x="369.5" y="-14.3" font-family="Times,serif" font-size="14.00" fill="gray">\Horde_Translation_Autodetect</text>
</g>
<!-- \\Horde_Image_Translation&#45;&gt;\\Horde_Translation_Autodetect -->
<g id="edge50" class="edge"><title>\\Horde_Image_Translation&#45;&gt;\\Horde_Translation_Autodetect</title>
<path fill="none" stroke="black" d="M618.268,-168.892C606.471,-165.039 594.99,-159.885 585,-153 537.499,-120.264 561.095,-76.8569 513,-45 504,-39.0383 494.017,-34.3163 483.633,-30.5858"/>
<polygon fill="none" stroke="black" points="484.594,-27.2176 474.001,-27.4315 482.415,-33.8699 484.594,-27.2176"/>
</g>
<!-- \\Horde_Image -->
<g id="node56" class="node"><title>\\Horde_Image</title>
<polygon fill="none" stroke="black" points="750,-144 659,-144 659,-108 750,-108 750,-144"/>
<text text-anchor="middle" x="704.5" y="-123.2" font-family="Courier,monospace" font-size="11.00">Horde_Image</text>
</g>
</g>
</svg>
