<?xml version="1.0" encoding="UTF-8" standalone="no"?>
<!DOCTYPE svg PUBLIC "-//W3C//DTD SVG 1.1//EN"
 "http://www.w3.org/Graphics/SVG/1.1/DTD/svg11.dtd">
<!-- Generated by graphviz version 2.38.0 (20140413.2041)
 -->
<!-- Title: G Pages: 1 -->
<svg width="792pt" height="932pt"
 viewBox="0.00 0.00 792.26 932.00" xmlns="http://www.w3.org/2000/svg" xmlns:xlink="http://www.w3.org/1999/xlink">
<g id="graph0" class="graph" transform="scale(1 1) rotate(0) translate(4 928)">
<title>G</title>
<polygon fill="white" stroke="none" points="-4,4 -4,-928 788.258,-928 788.258,4 -4,4"/>
<g id="clust1" class="cluster"><title>cluster_Global</title>
<path fill="none" stroke="gray" d="M365.069,-98C365.069,-98 764.258,-98 764.258,-98 770.258,-98 776.258,-104 776.258,-110 776.258,-110 776.258,-904 776.258,-904 776.258,-910 770.258,-916 764.258,-916 764.258,-916 365.069,-916 365.069,-916 359.069,-916 353.069,-910 353.069,-904 353.069,-904 353.069,-110 353.069,-110 353.069,-104 359.069,-98 365.069,-98"/>
<text text-anchor="middle" x="564.664" y="-903.2" font-family="Times,serif" font-size="11.00" fill="gray">Global</text>
</g>
<g id="clust2" class="cluster"><title>cluster_\Horde</title>
<path fill="none" stroke="gray" d="M373.069,-106C373.069,-106 756.258,-106 756.258,-106 762.258,-106 768.258,-112 768.258,-118 768.258,-118 768.258,-876 768.258,-876 768.258,-882 762.258,-888 756.258,-888 756.258,-888 373.069,-888 373.069,-888 367.069,-888 361.069,-882 361.069,-876 361.069,-876 361.069,-118 361.069,-118 361.069,-112 367.069,-106 373.069,-106"/>
<text text-anchor="middle" x="564.664" y="-875.2" font-family="Times,serif" font-size="11.00" fill="gray">Horde</text>
</g>
<g id="clust3" class="cluster"><title>cluster_\Horde\Refactor</title>
<path fill="none" stroke="gray" d="M381.069,-114C381.069,-114 748.258,-114 748.258,-114 754.258,-114 760.258,-120 760.258,-126 760.258,-126 760.258,-848 760.258,-848 760.258,-854 754.258,-860 748.258,-860 748.258,-860 381.069,-860 381.069,-860 375.069,-860 369.069,-854 369.069,-848 369.069,-848 369.069,-126 369.069,-126 369.069,-120 375.069,-114 381.069,-114"/>
<text text-anchor="middle" x="564.664" y="-847.2" font-family="Times,serif" font-size="11.00" fill="gray">Refactor</text>
</g>
<g id="clust4" class="cluster"><title>cluster_\Horde\Refactor\Rule</title>
<path fill="none" stroke="gray" d="M617.258,-706C617.258,-706 740.258,-706 740.258,-706 746.258,-706 752.258,-712 752.258,-718 752.258,-718 752.258,-820 752.258,-820 752.258,-826 746.258,-832 740.258,-832 740.258,-832 617.258,-832 617.258,-832 611.258,-832 605.258,-826 605.258,-820 605.258,-820 605.258,-718 605.258,-718 605.258,-712 611.258,-706 617.258,-706"/>
<text text-anchor="middle" x="678.758" y="-819.2" font-family="Times,serif" font-size="11.00" fill="gray">Rule</text>
</g>
<g id="clust5" class="cluster"><title>cluster_\Horde\Refactor\Exception</title>
<path fill="none" stroke="gray" d="M623.758,-518C623.758,-518 733.758,-518 733.758,-518 739.758,-518 745.758,-524 745.758,-530 745.758,-530 745.758,-686 745.758,-686 745.758,-692 739.758,-698 733.758,-698 733.758,-698 623.758,-698 623.758,-698 617.758,-698 611.758,-692 611.758,-686 611.758,-686 611.758,-530 611.758,-530 611.758,-524 617.758,-518 623.758,-518"/>
<text text-anchor="middle" x="678.758" y="-685.2" font-family="Times,serif" font-size="11.00" fill="gray">Exception</text>
</g>
<g id="clust6" class="cluster"><title>cluster_\Horde\Refactor\Config</title>
<path fill="none" stroke="gray" d="M396.069,-438C396.069,-438 740.258,-438 740.258,-438 746.258,-438 752.258,-444 752.258,-450 752.258,-450 752.258,-498 752.258,-498 752.258,-504 746.258,-510 740.258,-510 740.258,-510 396.069,-510 396.069,-510 390.069,-510 384.069,-504 384.069,-498 384.069,-498 384.069,-450 384.069,-450 384.069,-444 390.069,-438 396.069,-438"/>
<text text-anchor="middle" x="568.164" y="-497.2" font-family="Times,serif" font-size="11.00" fill="gray">Config</text>
</g>
<!-- \\Horde\\Refactor\\Rule\\Php4Constructor -->
<g id="node1" class="node"><title>\\Horde\\Refactor\\Rule\\Php4Constructor</title>
<polygon fill="none" stroke="black" points="737.758,-804 619.758,-804 619.758,-768 737.758,-768 737.758,-804"/>
<text text-anchor="middle" x="678.758" y="-783.2" font-family="Courier,monospace" font-size="11.00">Php4Constructor</text>
</g>
<!-- \\Horde\\Refactor\\Rule -->
<g id="node10" class="node"><title>\\Horde\\Refactor\\Rule</title>
<polygon fill="none" stroke="black" points="461.069,-777 377.069,-777 377.069,-741 461.069,-741 461.069,-777"/>
<text text-anchor="start" x="385.069" y="-762.2" font-family="Courier,monospace" font-size="11.00">«abstract»</text>
<text text-anchor="start" x="405.069" y="-750.2" font-family="Courier,monospace" font-size="11.00">Rule</text>
</g>
<!-- \\Horde\\Refactor\\Rule\\Php4Constructor&#45;&gt;\\Horde\\Refactor\\Rule -->
<g id="edge2" class="edge"><title>\\Horde\\Refactor\\Rule\\Php4Constructor&#45;&gt;\\Horde\\Refactor\\Rule</title>
<path fill="none" stroke="black" d="M619.607,-779.907C575.037,-775.237 514.123,-768.855 471.36,-764.374"/>
<polygon fill="none" stroke="black" points="471.482,-760.868 461.172,-763.307 470.753,-767.83 471.482,-760.868"/>
</g>
<!-- \\Horde\\Refactor\\Rule\\FileLevelDocBlock -->
<g id="node2" class="node"><title>\\Horde\\Refactor\\Rule\\FileLevelDocBlock</title>
<polygon fill="none" stroke="black" points="744.258,-750 613.258,-750 613.258,-714 744.258,-714 744.258,-750"/>
<text text-anchor="middle" x="678.758" y="-729.2" font-family="Courier,monospace" font-size="11.00">FileLevelDocBlock</text>
</g>
<!-- \\Horde\\Refactor\\Rule\\FileLevelDocBlock&#45;&gt;\\Horde\\Refactor\\Rule -->
<g id="edge3" class="edge"><title>\\Horde\\Refactor\\Rule\\FileLevelDocBlock&#45;&gt;\\Horde\\Refactor\\Rule</title>
<path fill="none" stroke="black" d="M613.065,-738.778C569.222,-743.372 512.073,-749.36 471.368,-753.625"/>
<polygon fill="none" stroke="black" points="470.972,-750.147 461.392,-754.67 471.702,-757.109 470.972,-750.147"/>
</g>
<!-- \\Horde\\Refactor\\Exception\\NotFound -->
<g id="node3" class="node"><title>\\Horde\\Refactor\\Exception\\NotFound</title>
<polygon fill="none" stroke="black" points="714.258,-670 643.258,-670 643.258,-634 714.258,-634 714.258,-670"/>
<text text-anchor="middle" x="678.758" y="-649.2" font-family="Courier,monospace" font-size="11.00">NotFound</text>
</g>
<!-- \\Horde\\Refactor\\Exception -->
<g id="node8" class="node"><title>\\Horde\\Refactor\\Exception</title>
<polygon fill="none" stroke="black" points="457.569,-616 380.569,-616 380.569,-580 457.569,-580 457.569,-616"/>
<text text-anchor="middle" x="419.069" y="-595.2" font-family="Courier,monospace" font-size="11.00">Exception</text>
</g>
<!-- \\Horde\\Refactor\\Exception\\NotFound&#45;&gt;\\Horde\\Refactor\\Exception -->
<g id="edge4" class="edge"><title>\\Horde\\Refactor\\Exception\\NotFound&#45;&gt;\\Horde\\Refactor\\Exception</title>
<path fill="none" stroke="black" d="M643.005,-644.717C597.765,-635.237 518.494,-618.625 467.684,-607.978"/>
<polygon fill="none" stroke="black" points="468.114,-604.492 457.608,-605.867 466.678,-611.343 468.114,-604.492"/>
</g>
<!-- \\Horde\\Refactor\\Exception\\UnexpectedToken -->
<g id="node4" class="node"><title>\\Horde\\Refactor\\Exception\\UnexpectedToken</title>
<polygon fill="none" stroke="black" points="737.758,-616 619.758,-616 619.758,-580 737.758,-580 737.758,-616"/>
<text text-anchor="middle" x="678.758" y="-595.2" font-family="Courier,monospace" font-size="11.00">UnexpectedToken</text>
</g>
<!-- \\Horde\\Refactor\\Exception\\UnexpectedToken&#45;&gt;\\Horde\\Refactor\\Exception -->
<g id="edge5" class="edge"><title>\\Horde\\Refactor\\Exception\\UnexpectedToken&#45;&gt;\\Horde\\Refactor\\Exception</title>
<path fill="none" stroke="black" d="M619.607,-598C573.803,-598 510.737,-598 467.85,-598"/>
<polygon fill="none" stroke="black" points="467.674,-594.5 457.674,-598 467.674,-601.5 467.674,-594.5"/>
</g>
<!-- \\Horde\\Refactor\\Exception\\StopProcessing -->
<g id="node5" class="node"><title>\\Horde\\Refactor\\Exception\\StopProcessing</title>
<polygon fill="none" stroke="black" points="734.258,-562 623.258,-562 623.258,-526 734.258,-526 734.258,-562"/>
<text text-anchor="middle" x="678.758" y="-541.2" font-family="Courier,monospace" font-size="11.00">StopProcessing</text>
</g>
<!-- \\Horde\\Refactor\\Exception\\StopProcessing&#45;&gt;\\Horde\\Refactor\\Exception -->
<g id="edge6" class="edge"><title>\\Horde\\Refactor\\Exception\\StopProcessing&#45;&gt;\\Horde\\Refactor\\Exception</title>
<path fill="none" stroke="black" d="M623.109,-555.452C577.056,-565.103 511.819,-578.773 467.828,-587.992"/>
<polygon fill="none" stroke="black" points="467.023,-584.584 457.954,-590.061 468.459,-591.436 467.023,-584.584"/>
</g>
<!-- \\Horde\\Refactor\\Config\\FileLevelDocBlock -->
<g id="node6" class="node"><title>\\Horde\\Refactor\\Config\\FileLevelDocBlock</title>
<polygon fill="none" stroke="black" points="744.258,-482 613.258,-482 613.258,-446 744.258,-446 744.258,-482"/>
<text text-anchor="middle" x="678.758" y="-461.2" font-family="Courier,monospace" font-size="11.00">FileLevelDocBlock</text>
</g>
<!-- \\Horde\\Refactor\\Config\\Base -->
<g id="node7" class="node"><title>\\Horde\\Refactor\\Config\\Base</title>
<polygon fill="none" stroke="black" points="446.069,-482 392.069,-482 392.069,-446 446.069,-446 446.069,-482"/>
<text text-anchor="middle" x="419.069" y="-461.2" font-family="Courier,monospace" font-size="11.00">Base</text>
</g>
<!-- \\Horde\\Refactor\\Config\\FileLevelDocBlock&#45;&gt;\\Horde\\Refactor\\Config\\Base -->
<g id="edge8" class="edge"><title>\\Horde\\Refactor\\Config\\FileLevelDocBlock&#45;&gt;\\Horde\\Refactor\\Config\\Base</title>
<path fill="none" stroke="black" d="M613.065,-464C563.523,-464 496.991,-464 456.393,-464"/>
<polygon fill="none" stroke="black" points="456.161,-460.5 446.161,-464 456.161,-467.5 456.161,-460.5"/>
</g>
<!-- \\Horde_Exception_Wrapped -->
<g id="node16" class="node"><title>\\Horde_Exception_Wrapped</title>
<ellipse fill="none" stroke="black" cx="112.44" cy="-598" rx="112.38" ry="18"/>
<text text-anchor="middle" x="112.44" y="-594.3" font-family="Times,serif" font-size="14.00" fill="gray">\Horde_Exception_Wrapped</text>
</g>
<!-- \\Horde\\Refactor\\Exception&#45;&gt;\\Horde_Exception_Wrapped -->
<g id="edge1" class="edge"><title>\\Horde\\Refactor\\Exception&#45;&gt;\\Horde_Exception_Wrapped</title>
<path fill="none" stroke="black" d="M380.41,-598C344.145,-598 287.298,-598 235.365,-598"/>
<polygon fill="none" stroke="black" points="235.051,-594.5 225.051,-598 235.051,-601.5 235.051,-594.5"/>
</g>
<!-- \\Horde\\Refactor\\Config -->
<g id="node9" class="node"><title>\\Horde\\Refactor\\Config</title>
<polygon fill="none" stroke="black" points="707.258,-428 650.258,-428 650.258,-392 707.258,-392 707.258,-428"/>
<text text-anchor="middle" x="678.758" y="-407.2" font-family="Courier,monospace" font-size="11.00">Config</text>
</g>
<!-- \\Horde\\Refactor\\Cli -->
<g id="node11" class="node"><title>\\Horde\\Refactor\\Cli</title>
<polygon fill="none" stroke="black" points="705.758,-374 651.758,-374 651.758,-338 705.758,-338 705.758,-374"/>
<text text-anchor="middle" x="678.758" y="-353.2" font-family="Courier,monospace" font-size="11.00">Cli</text>
</g>
<!-- \\Horde\\Refactor\\Tokens -->
<g id="node12" class="node"><title>\\Horde\\Refactor\\Tokens</title>
<polygon fill="none" stroke="black" points="707.258,-320 650.258,-320 650.258,-284 707.258,-284 707.258,-320"/>
<text text-anchor="middle" x="678.758" y="-299.2" font-family="Courier,monospace" font-size="11.00">Tokens</text>
</g>
<!-- \\ArrayIterator -->
<g id="node17" class="node"><title>\\ArrayIterator</title>
<ellipse fill="none" stroke="black" cx="419.069" cy="-72" rx="59.5901" ry="18"/>
<text text-anchor="middle" x="419.069" y="-68.3" font-family="Times,serif" font-size="14.00" fill="gray">\ArrayIterator</text>
</g>
<!-- \\Horde\\Refactor\\Tokens&#45;&gt;\\ArrayIterator -->
<g id="edge7" class="edge"><title>\\Horde\\Refactor\\Tokens&#45;&gt;\\ArrayIterator</title>
<path fill="none" stroke="black" d="M650.124,-295.088C635.941,-290.731 618.839,-284.169 605.258,-275 531.805,-225.406 467.431,-140.88 437.644,-98.244"/>
<polygon fill="none" stroke="black" points="440.383,-96.051 431.822,-89.8094 434.622,-100.027 440.383,-96.051"/>
</g>
<!-- \\Horde\\Refactor\\TagFactory -->
<g id="node13" class="node"><title>\\Horde\\Refactor\\TagFactory</title>
<polygon fill="none" stroke="black" points="720.758,-266 636.758,-266 636.758,-230 720.758,-230 720.758,-266"/>
<text text-anchor="middle" x="678.758" y="-245.2" font-family="Courier,monospace" font-size="11.00">TagFactory</text>
</g>
<!-- \\Horde\\Refactor\\Translation -->
<g id="node14" class="node"><title>\\Horde\\Refactor\\Translation</title>
<polygon fill="none" stroke="black" points="724.258,-212 633.258,-212 633.258,-176 724.258,-176 724.258,-212"/>
<text text-anchor="middle" x="678.758" y="-191.2" font-family="Courier,monospace" font-size="11.00">Translation</text>
</g>
<!-- \\Horde_Translation_Autodetect -->
<g id="node18" class="node"><title>\\Horde_Translation_Autodetect</title>
<ellipse fill="none" stroke="black" cx="419.069" cy="-18" rx="122.379" ry="18"/>
<text text-anchor="middle" x="419.069" y="-14.3" font-family="Times,serif" font-size="14.00" fill="gray">\Horde_Translation_Autodetect</text>
</g>
<!-- \\Horde\\Refactor\\Translation&#45;&gt;\\Horde_Translation_Autodetect -->
<g id="edge9" class="edge"><title>\\Horde\\Refactor\\Translation&#45;&gt;\\Horde_Translation_Autodetect</title>
<path fill="none" stroke="black" d="M633.129,-183.185C623.173,-179.269 613.221,-174.013 605.258,-167 559.309,-126.53 589.875,-82.2232 541.258,-45 535.434,-40.5405 529.016,-36.7895 522.266,-33.6375"/>
<polygon fill="none" stroke="black" points="523.456,-30.3409 512.88,-29.7002 520.748,-36.796 523.456,-30.3409"/>
</g>
<!-- \\Horde\\Refactor\\Regexp -->
<g id="node15" class="node"><title>\\Horde\\Refactor\\Regexp</title>
<polygon fill="none" stroke="black" points="707.258,-158 650.258,-158 650.258,-122 707.258,-122 707.258,-158"/>
<text text-anchor="middle" x="678.758" y="-137.2" font-family="Courier,monospace" font-size="11.00">Regexp</text>
</g>
</g>
</svg>
