<?xml version="1.0" encoding="UTF-8" standalone="no"?>
<!DOCTYPE svg PUBLIC "-//W3C//DTD SVG 1.1//EN"
 "http://www.w3.org/Graphics/SVG/1.1/DTD/svg11.dtd">
<!-- Generated by graphviz version 2.38.0 (20140413.2041)
 -->
<!-- Title: G Pages: 1 -->
<svg width="464pt" height="456pt"
 viewBox="0.00 0.00 464.08 456.00" xmlns="http://www.w3.org/2000/svg" xmlns:xlink="http://www.w3.org/1999/xlink">
<g id="graph0" class="graph" transform="scale(1 1) rotate(0) translate(4 452)">
<title>G</title>
<polygon fill="white" stroke="none" points="-4,4 -4,-452 460.08,-452 460.08,4 -4,4"/>
<g id="clust1" class="cluster"><title>cluster_Global</title>
<path fill="none" stroke="gray" d="M70.0398,-44C70.0398,-44 436.08,-44 436.08,-44 442.08,-44 448.08,-50 448.08,-56 448.08,-56 448.08,-428 448.08,-428 448.08,-434 442.08,-440 436.08,-440 436.08,-440 70.0398,-440 70.0398,-440 64.0398,-440 58.0398,-434 58.0398,-428 58.0398,-428 58.0398,-56 58.0398,-56 58.0398,-50 64.0398,-44 70.0398,-44"/>
<text text-anchor="middle" x="253.06" y="-427.2" font-family="Times,serif" font-size="11.00" fill="gray">Global</text>
</g>
<!-- \\Luxor_Files -->
<g id="node1" class="node"><title>\\Luxor_Files</title>
<polygon fill="none" stroke="black" points="160.54,-196 69.5398,-196 69.5398,-160 160.54,-160 160.54,-196"/>
<text text-anchor="middle" x="115.04" y="-175.2" font-family="Courier,monospace" font-size="11.00">Luxor_Files</text>
</g>
<!-- \\Luxor_Application -->
<g id="node2" class="node"><title>\\Luxor_Application</title>
<polygon fill="none" stroke="black" points="436.58,-88 305.58,-88 305.58,-52 436.58,-52 436.58,-88"/>
<text text-anchor="middle" x="371.08" y="-67.2" font-family="Courier,monospace" font-size="11.00">Luxor_Application</text>
</g>
<!-- \\Horde_Registry_Application -->
<g id="node11" class="node"><title>\\Horde_Registry_Application</title>
<ellipse fill="none" stroke="black" cx="115.04" cy="-18" rx="115.08" ry="18"/>
<text text-anchor="middle" x="115.04" y="-14.3" font-family="Times,serif" font-size="14.00" fill="gray">\Horde_Registry_Application</text>
</g>
<!-- \\Luxor_Application&#45;&gt;\\Horde_Registry_Application -->
<g id="edge1" class="edge"><title>\\Luxor_Application&#45;&gt;\\Horde_Registry_Application</title>
<path fill="none" stroke="black" d="M305.316,-55.8323C281.662,-50.7344 254.681,-45.0083 230.08,-40 220.048,-37.9577 209.509,-35.8601 199.06,-33.8095"/>
<polygon fill="none" stroke="black" points="199.573,-30.3438 189.088,-31.8612 198.231,-37.2139 199.573,-30.3438"/>
</g>
<!-- \\Luxor_Lang -->
<g id="node3" class="node"><title>\\Luxor_Lang</title>
<polygon fill="none" stroke="black" points="157.04,-412 73.0398,-412 73.0398,-376 157.04,-376 157.04,-412"/>
<text text-anchor="middle" x="115.04" y="-391.2" font-family="Courier,monospace" font-size="11.00">Luxor_Lang</text>
</g>
<!-- \\Luxor_SimpleParse -->
<g id="node4" class="node"><title>\\Luxor_SimpleParse</title>
<polygon fill="none" stroke="black" points="436.58,-358 305.58,-358 305.58,-322 436.58,-322 436.58,-358"/>
<text text-anchor="middle" x="371.08" y="-337.2" font-family="Courier,monospace" font-size="11.00">Luxor_SimpleParse</text>
</g>
<!-- \\Luxor -->
<g id="node5" class="node"><title>\\Luxor</title>
<polygon fill="none" stroke="black" points="398.08,-304 344.08,-304 344.08,-268 398.08,-268 398.08,-304"/>
<text text-anchor="middle" x="371.08" y="-283.2" font-family="Courier,monospace" font-size="11.00">Luxor</text>
</g>
<!-- \\Luxor_Lang_Generic -->
<g id="node6" class="node"><title>\\Luxor_Lang_Generic</title>
<polygon fill="none" stroke="black" points="440.08,-412 302.08,-412 302.08,-376 440.08,-376 440.08,-412"/>
<text text-anchor="middle" x="371.08" y="-391.2" font-family="Courier,monospace" font-size="11.00">Luxor_Lang_Generic</text>
</g>
<!-- \\Luxor_Lang_Generic&#45;&gt;\\Luxor_Lang -->
<g id="edge2" class="edge"><title>\\Luxor_Lang_Generic&#45;&gt;\\Luxor_Lang</title>
<path fill="none" stroke="black" d="M302.002,-394C259.638,-394 206.035,-394 167.274,-394"/>
<polygon fill="none" stroke="black" points="167.257,-390.5 157.257,-394 167.257,-397.5 167.257,-390.5"/>
</g>
<!-- \\Luxor_Driver_sql -->
<g id="node7" class="node"><title>\\Luxor_Driver_sql</title>
<polygon fill="none" stroke="black" points="433.58,-250 308.58,-250 308.58,-214 433.58,-214 433.58,-250"/>
<text text-anchor="middle" x="371.08" y="-229.2" font-family="Courier,monospace" font-size="11.00">Luxor_Driver_sql</text>
</g>
<!-- \\Luxor_Driver -->
<g id="node8" class="node"><title>\\Luxor_Driver</title>
<polygon fill="none" stroke="black" points="164.04,-250 66.0398,-250 66.0398,-214 164.04,-214 164.04,-250"/>
<text text-anchor="middle" x="115.04" y="-229.2" font-family="Courier,monospace" font-size="11.00">Luxor_Driver</text>
</g>
<!-- \\Luxor_Driver_sql&#45;&gt;\\Luxor_Driver -->
<g id="edge3" class="edge"><title>\\Luxor_Driver_sql&#45;&gt;\\Luxor_Driver</title>
<path fill="none" stroke="black" d="M308.259,-232C267.457,-232 214.34,-232 174.285,-232"/>
<polygon fill="none" stroke="black" points="174.139,-228.5 164.139,-232 174.139,-235.5 174.139,-228.5"/>
</g>
<!-- \\Luxor_Tagger -->
<g id="node9" class="node"><title>\\Luxor_Tagger</title>
<polygon fill="none" stroke="black" points="420.08,-142 322.08,-142 322.08,-106 420.08,-106 420.08,-142"/>
<text text-anchor="middle" x="371.08" y="-121.2" font-family="Courier,monospace" font-size="11.00">Luxor_Tagger</text>
</g>
<!-- \\Luxor_Files_plain -->
<g id="node10" class="node"><title>\\Luxor_Files_plain</title>
<polygon fill="none" stroke="black" points="436.58,-196 305.58,-196 305.58,-160 436.58,-160 436.58,-196"/>
<text text-anchor="middle" x="371.08" y="-175.2" font-family="Courier,monospace" font-size="11.00">Luxor_Files_plain</text>
</g>
<!-- \\Luxor_Files_plain&#45;&gt;\\Luxor_Files -->
<g id="edge4" class="edge"><title>\\Luxor_Files_plain&#45;&gt;\\Luxor_Files</title>
<path fill="none" stroke="black" d="M305.317,-178C263.754,-178 210.376,-178 170.906,-178"/>
<polygon fill="none" stroke="black" points="170.676,-174.5 160.676,-178 170.676,-181.5 170.676,-174.5"/>
</g>
</g>
</svg>
