<?xml version="1.0" encoding="UTF-8" standalone="no"?>
<!DOCTYPE svg PUBLIC "-//W3C//DTD SVG 1.1//EN"
 "http://www.w3.org/Graphics/SVG/1.1/DTD/svg11.dtd">
<!-- Generated by graphviz version 2.38.0 (20140413.2041)
 -->
<!-- Title: G Pages: 1 -->
<svg width="1332pt" height="1276pt"
 viewBox="0.00 0.00 1331.79 1275.52" xmlns="http://www.w3.org/2000/svg" xmlns:xlink="http://www.w3.org/1999/xlink">
<g id="graph0" class="graph" transform="scale(1 1) rotate(0) translate(4 1271.52)">
<title>G</title>
<polygon fill="white" stroke="none" points="-4,4 -4,-1271.52 1327.79,-1271.52 1327.79,4 -4,4"/>
<g id="clust1" class="cluster"><title>cluster_Global</title>
<path fill="none" stroke="gray" d="M226.787,-107.521C226.787,-107.521 1303.79,-107.521 1303.79,-107.521 1309.79,-107.521 1315.79,-113.521 1315.79,-119.521 1315.79,-119.521 1315.79,-1247.52 1315.79,-1247.52 1315.79,-1253.52 1309.79,-1259.52 1303.79,-1259.52 1303.79,-1259.52 226.787,-1259.52 226.787,-1259.52 220.787,-1259.52 214.787,-1253.52 214.787,-1247.52 214.787,-1247.52 214.787,-119.521 214.787,-119.521 214.787,-113.521 220.787,-107.521 226.787,-107.521"/>
<text text-anchor="middle" x="765.287" y="-1246.72" font-family="Times,serif" font-size="11.00" fill="gray">Global</text>
</g>
<!-- \\Horde_Service_Weather -->
<g id="node1" class="node"><title>\\Horde_Service_Weather</title>
<polygon fill="none" stroke="black" points="1216.29,-1231.52 1058.29,-1231.52 1058.29,-1195.52 1216.29,-1195.52 1216.29,-1231.52"/>
<text text-anchor="middle" x="1137.29" y="-1210.72" font-family="Courier,monospace" font-size="11.00">Horde_Service_Weather</text>
</g>
<!-- \\Horde_Service_Weather_Forecast_Wwo -->
<g id="node2" class="node"><title>\\Horde_Service_Weather_Forecast_Wwo</title>
<polygon fill="none" stroke="black" points="844.287,-1123.52 598.287,-1123.52 598.287,-1087.52 844.287,-1087.52 844.287,-1123.52"/>
<text text-anchor="middle" x="721.287" y="-1102.72" font-family="Courier,monospace" font-size="11.00">Horde_Service_Weather_Forecast_Wwo</text>
</g>
<!-- \\Horde_Service_Weather_Forecast_Base -->
<g id="node7" class="node"><title>\\Horde_Service_Weather_Forecast_Base</title>
<polygon fill="none" stroke="black" points="475.787,-1123.52 222.787,-1123.52 222.787,-1087.52 475.787,-1087.52 475.787,-1123.52"/>
<text text-anchor="start" x="315.287" y="-1108.72" font-family="Courier,monospace" font-size="11.00">«abstract»</text>
<text text-anchor="start" x="230.787" y="-1096.72" font-family="Courier,monospace" font-size="11.00">Horde_Service_Weather_Forecast_Base</text>
</g>
<!-- \\Horde_Service_Weather_Forecast_Wwo&#45;&gt;\\Horde_Service_Weather_Forecast_Base -->
<g id="edge1" class="edge"><title>\\Horde_Service_Weather_Forecast_Wwo&#45;&gt;\\Horde_Service_Weather_Forecast_Base</title>
<path fill="none" stroke="black" d="M598.109,-1105.52C562.226,-1105.52 522.764,-1105.52 486.085,-1105.52"/>
<polygon fill="none" stroke="black" points="485.819,-1102.02 475.819,-1105.52 485.819,-1109.02 485.819,-1102.02"/>
</g>
<!-- \\Horde_Service_Weather_Forecast_Wwov2 -->
<g id="node3" class="node"><title>\\Horde_Service_Weather_Forecast_Wwov2</title>
<polygon fill="none" stroke="black" points="1267.29,-1177.52 1007.29,-1177.52 1007.29,-1141.52 1267.29,-1141.52 1267.29,-1177.52"/>
<text text-anchor="middle" x="1137.29" y="-1156.72" font-family="Courier,monospace" font-size="11.00">Horde_Service_Weather_Forecast_Wwov2</text>
</g>
<!-- \\Horde_Service_Weather_Forecast_Wwov2&#45;&gt;\\Horde_Service_Weather_Forecast_Wwo -->
<g id="edge2" class="edge"><title>\\Horde_Service_Weather_Forecast_Wwov2&#45;&gt;\\Horde_Service_Weather_Forecast_Wwo</title>
<path fill="none" stroke="black" d="M1007.28,-1142.69C958.66,-1136.35 903.315,-1129.13 854.413,-1122.76"/>
<polygon fill="none" stroke="black" points="854.771,-1119.27 844.402,-1121.45 853.866,-1126.21 854.771,-1119.27"/>
</g>
<!-- \\Horde_Service_Weather_Forecast_WeatherUnderground -->
<g id="node4" class="node"><title>\\Horde_Service_Weather_Forecast_WeatherUnderground</title>
<polygon fill="none" stroke="black" points="894.787,-1069.52 547.787,-1069.52 547.787,-1033.52 894.787,-1033.52 894.787,-1069.52"/>
<text text-anchor="middle" x="721.287" y="-1048.72" font-family="Courier,monospace" font-size="11.00">Horde_Service_Weather_Forecast_WeatherUnderground</text>
</g>
<!-- \\Horde_Service_Weather_Forecast_WeatherUnderground&#45;&gt;\\Horde_Service_Weather_Forecast_Base -->
<g id="edge3" class="edge"><title>\\Horde_Service_Weather_Forecast_WeatherUnderground&#45;&gt;\\Horde_Service_Weather_Forecast_Base</title>
<path fill="none" stroke="black" d="M596.825,-1069.54C560.616,-1074.82 520.857,-1080.63 484.038,-1086"/>
<polygon fill="none" stroke="black" points="483.126,-1082.6 473.737,-1087.5 484.137,-1089.52 483.126,-1082.6"/>
</g>
<!-- \\Horde_Service_Weather_Forecast_Taf -->
<g id="node5" class="node"><title>\\Horde_Service_Weather_Forecast_Taf</title>
<polygon fill="none" stroke="black" points="844.287,-1231.52 598.287,-1231.52 598.287,-1195.52 844.287,-1195.52 844.287,-1231.52"/>
<text text-anchor="middle" x="721.287" y="-1210.72" font-family="Courier,monospace" font-size="11.00">Horde_Service_Weather_Forecast_Taf</text>
</g>
<!-- \\Horde_Service_Weather_Forecast_Taf&#45;&gt;\\Horde_Service_Weather_Forecast_Base -->
<g id="edge4" class="edge"><title>\\Horde_Service_Weather_Forecast_Taf&#45;&gt;\\Horde_Service_Weather_Forecast_Base</title>
<path fill="none" stroke="black" d="M597.95,-1198.01C580.965,-1194.81 563.845,-1191 547.787,-1186.52 494.087,-1171.53 435.297,-1146.19 395.944,-1127.83"/>
<polygon fill="none" stroke="black" points="397.405,-1124.65 386.866,-1123.56 394.425,-1130.99 397.405,-1124.65"/>
</g>
<!-- \\Horde_Service_Weather_Forecast_Owm -->
<g id="node6" class="node"><title>\\Horde_Service_Weather_Forecast_Owm</title>
<polygon fill="none" stroke="black" points="844.287,-1177.52 598.287,-1177.52 598.287,-1141.52 844.287,-1141.52 844.287,-1177.52"/>
<text text-anchor="middle" x="721.287" y="-1156.72" font-family="Courier,monospace" font-size="11.00">Horde_Service_Weather_Forecast_Owm</text>
</g>
<!-- \\Horde_Service_Weather_Forecast_Owm&#45;&gt;\\Horde_Service_Weather_Forecast_Base -->
<g id="edge5" class="edge"><title>\\Horde_Service_Weather_Forecast_Owm&#45;&gt;\\Horde_Service_Weather_Forecast_Base</title>
<path fill="none" stroke="black" d="M598.109,-1141.69C561.493,-1136.35 521.151,-1130.46 483.841,-1125.01"/>
<polygon fill="none" stroke="black" points="484.317,-1121.55 473.916,-1123.56 483.306,-1128.47 484.317,-1121.55"/>
</g>
<!-- \\IteratorAggregate -->
<g id="node33" class="node"><title>\\IteratorAggregate</title>
<ellipse fill="none" stroke="black" cx="75.3933" cy="-570.521" rx="75.2868" ry="18"/>
<text text-anchor="middle" x="75.3933" y="-566.821" font-family="Times,serif" font-size="14.00" fill="gray">\IteratorAggregate</text>
</g>
<!-- \\Horde_Service_Weather_Forecast_Base&#45;&gt;\\IteratorAggregate -->
<g id="edge6" class="edge"><title>\\Horde_Service_Weather_Forecast_Base&#45;&gt;\\IteratorAggregate</title>
<path fill="none" stroke="black" stroke-dasharray="1,5" d="M339.084,-1087.41C298.862,-1008.27 138.359,-692.45 90.1531,-597.596"/>
<polygon fill="none" stroke="black" points="93.244,-595.953 85.5932,-588.624 87.0037,-599.124 93.244,-595.953"/>
</g>
<!-- \\Horde_Service_Weather_Wwo -->
<g id="node8" class="node"><title>\\Horde_Service_Weather_Wwo</title>
<polygon fill="none" stroke="black" points="1229.79,-1069.52 1044.79,-1069.52 1044.79,-1033.52 1229.79,-1033.52 1229.79,-1069.52"/>
<text text-anchor="middle" x="1137.29" y="-1048.72" font-family="Courier,monospace" font-size="11.00">Horde_Service_Weather_Wwo</text>
</g>
<!-- \\Horde_Service_Weather_Base -->
<g id="node31" class="node"><title>\\Horde_Service_Weather_Base</title>
<polygon fill="none" stroke="black" points="817.287,-1015.52 625.287,-1015.52 625.287,-979.521 817.287,-979.521 817.287,-1015.52"/>
<text text-anchor="start" x="687.287" y="-1000.72" font-family="Courier,monospace" font-size="11.00">«abstract»</text>
<text text-anchor="start" x="633.287" y="-988.721" font-family="Courier,monospace" font-size="11.00">Horde_Service_Weather_Base</text>
</g>
<!-- \\Horde_Service_Weather_Wwo&#45;&gt;\\Horde_Service_Weather_Base -->
<g id="edge7" class="edge"><title>\\Horde_Service_Weather_Wwo&#45;&gt;\\Horde_Service_Weather_Base</title>
<path fill="none" stroke="black" d="M1044.66,-1039.57C980.552,-1031.21 894.746,-1020.02 827.777,-1011.28"/>
<polygon fill="none" stroke="black" points="827.987,-1007.78 817.618,-1009.96 827.082,-1014.72 827.987,-1007.78"/>
</g>
<!-- \\Horde_Service_Weather_Exception -->
<g id="node9" class="node"><title>\\Horde_Service_Weather_Exception</title>
<polygon fill="none" stroke="black" points="834.287,-637.521 608.287,-637.521 608.287,-601.521 834.287,-601.521 834.287,-637.521"/>
<text text-anchor="middle" x="721.287" y="-616.721" font-family="Courier,monospace" font-size="11.00">Horde_Service_Weather_Exception</text>
</g>
<!-- \\Horde_Exception_Wrapped -->
<g id="node34" class="node"><title>\\Horde_Exception_Wrapped</title>
<ellipse fill="none" stroke="black" cx="349.287" cy="-81.5211" rx="112.38" ry="18"/>
<text text-anchor="middle" x="349.287" y="-77.8211" font-family="Times,serif" font-size="14.00" fill="gray">\Horde_Exception_Wrapped</text>
</g>
<!-- \\Horde_Service_Weather_Exception&#45;&gt;\\Horde_Exception_Wrapped -->
<g id="edge8" class="edge"><title>\\Horde_Service_Weather_Exception&#45;&gt;\\Horde_Exception_Wrapped</title>
<path fill="none" stroke="black" d="M644.49,-601.422C609.839,-589.291 571.348,-569.65 547.787,-538.521 429.518,-382.27 613.694,-242.745 475.787,-103.521 471.798,-99.494 467.35,-96.0526 462.575,-93.1201"/>
<polygon fill="none" stroke="black" points="464.127,-89.9817 453.655,-88.3746 460.839,-96.1615 464.127,-89.9817"/>
</g>
<!-- \\Horde_Service_Weather_WeatherUnderground -->
<g id="node10" class="node"><title>\\Horde_Service_Weather_WeatherUnderground</title>
<polygon fill="none" stroke="black" points="1280.79,-1015.52 993.787,-1015.52 993.787,-979.521 1280.79,-979.521 1280.79,-1015.52"/>
<text text-anchor="middle" x="1137.29" y="-994.721" font-family="Courier,monospace" font-size="11.00">Horde_Service_Weather_WeatherUnderground</text>
</g>
<!-- \\Horde_Service_Weather_WeatherUnderground&#45;&gt;\\Horde_Service_Weather_Base -->
<g id="edge9" class="edge"><title>\\Horde_Service_Weather_WeatherUnderground&#45;&gt;\\Horde_Service_Weather_Base</title>
<path fill="none" stroke="black" d="M993.522,-997.521C939.055,-997.521 878.003,-997.521 827.633,-997.521"/>
<polygon fill="none" stroke="black" points="827.381,-994.021 817.381,-997.521 827.381,-1001.02 827.381,-994.021"/>
</g>
<!-- \\Horde_Service_Weather_Period_Wwo -->
<g id="node11" class="node"><title>\\Horde_Service_Weather_Period_Wwo</title>
<polygon fill="none" stroke="black" points="1253.79,-853.521 1020.79,-853.521 1020.79,-817.521 1253.79,-817.521 1253.79,-853.521"/>
<text text-anchor="middle" x="1137.29" y="-832.721" font-family="Courier,monospace" font-size="11.00">Horde_Service_Weather_Period_Wwo</text>
</g>
<!-- \\Horde_Service_Weather_Period_Base -->
<g id="node16" class="node"><title>\\Horde_Service_Weather_Period_Base</title>
<polygon fill="none" stroke="black" points="840.787,-799.521 601.787,-799.521 601.787,-763.521 840.787,-763.521 840.787,-799.521"/>
<text text-anchor="middle" x="721.287" y="-778.721" font-family="Courier,monospace" font-size="11.00">Horde_Service_Weather_Period_Base</text>
</g>
<!-- \\Horde_Service_Weather_Period_Wwo&#45;&gt;\\Horde_Service_Weather_Period_Base -->
<g id="edge10" class="edge"><title>\\Horde_Service_Weather_Period_Wwo&#45;&gt;\\Horde_Service_Weather_Period_Base</title>
<path fill="none" stroke="black" d="M1020.69,-820.443C967.876,-813.555 905.13,-805.37 850.836,-798.288"/>
<polygon fill="none" stroke="black" points="851.169,-794.802 840.8,-796.979 850.264,-801.744 851.169,-794.802"/>
</g>
<!-- \\Horde_Service_Weather_Period_Wwov2 -->
<g id="node12" class="node"><title>\\Horde_Service_Weather_Period_Wwov2</title>
<polygon fill="none" stroke="black" points="1260.29,-799.521 1014.29,-799.521 1014.29,-763.521 1260.29,-763.521 1260.29,-799.521"/>
<text text-anchor="middle" x="1137.29" y="-778.721" font-family="Courier,monospace" font-size="11.00">Horde_Service_Weather_Period_Wwov2</text>
</g>
<!-- \\Horde_Service_Weather_Period_Wwov2&#45;&gt;\\Horde_Service_Weather_Period_Base -->
<g id="edge11" class="edge"><title>\\Horde_Service_Weather_Period_Wwov2&#45;&gt;\\Horde_Service_Weather_Period_Base</title>
<path fill="none" stroke="black" d="M1014.03,-781.521C962.835,-781.521 903.278,-781.521 851.373,-781.521"/>
<polygon fill="none" stroke="black" points="851.098,-778.021 841.098,-781.521 851.098,-785.021 851.098,-778.021"/>
</g>
<!-- \\Horde_Service_Weather_Period_WeatherUnderground -->
<g id="node13" class="node"><title>\\Horde_Service_Weather_Period_WeatherUnderground</title>
<polygon fill="none" stroke="black" points="1304.29,-745.521 970.287,-745.521 970.287,-709.521 1304.29,-709.521 1304.29,-745.521"/>
<text text-anchor="middle" x="1137.29" y="-724.721" font-family="Courier,monospace" font-size="11.00">Horde_Service_Weather_Period_WeatherUnderground</text>
</g>
<!-- \\Horde_Service_Weather_Period_WeatherUnderground&#45;&gt;\\Horde_Service_Weather_Period_Base -->
<g id="edge12" class="edge"><title>\\Horde_Service_Weather_Period_WeatherUnderground&#45;&gt;\\Horde_Service_Weather_Period_Base</title>
<path fill="none" stroke="black" d="M998.143,-745.54C950.715,-751.726 897.844,-758.622 851.179,-764.709"/>
<polygon fill="none" stroke="black" points="850.475,-761.271 841.011,-766.035 851.38,-768.212 850.475,-761.271"/>
</g>
<!-- \\Horde_Service_Weather_Period_Taf -->
<g id="node14" class="node"><title>\\Horde_Service_Weather_Period_Taf</title>
<polygon fill="none" stroke="black" points="1253.79,-691.521 1020.79,-691.521 1020.79,-655.521 1253.79,-655.521 1253.79,-691.521"/>
<text text-anchor="middle" x="1137.29" y="-670.721" font-family="Courier,monospace" font-size="11.00">Horde_Service_Weather_Period_Taf</text>
</g>
<!-- \\Horde_Service_Weather_Period_Taf&#45;&gt;\\Horde_Service_Weather_Period_Base -->
<g id="edge13" class="edge"><title>\\Horde_Service_Weather_Period_Taf&#45;&gt;\\Horde_Service_Weather_Period_Base</title>
<path fill="none" stroke="black" d="M1020.45,-689.407C1002.39,-692.621 984.013,-696.325 966.787,-700.521 901.21,-716.495 827.966,-741.79 778.893,-759.862"/>
<polygon fill="none" stroke="black" points="777.571,-756.619 769.41,-763.375 780.003,-763.183 777.571,-756.619"/>
</g>
<!-- \\Horde_Service_Weather_Period_Owm -->
<g id="node15" class="node"><title>\\Horde_Service_Weather_Period_Owm</title>
<polygon fill="none" stroke="black" points="1253.79,-907.521 1020.79,-907.521 1020.79,-871.521 1253.79,-871.521 1253.79,-907.521"/>
<text text-anchor="middle" x="1137.29" y="-886.721" font-family="Courier,monospace" font-size="11.00">Horde_Service_Weather_Period_Owm</text>
</g>
<!-- \\Horde_Service_Weather_Period_Owm&#45;&gt;\\Horde_Service_Weather_Period_Base -->
<g id="edge14" class="edge"><title>\\Horde_Service_Weather_Period_Owm&#45;&gt;\\Horde_Service_Weather_Period_Base</title>
<path fill="none" stroke="black" d="M1020.45,-873.636C1002.39,-870.421 984.013,-866.717 966.787,-862.521 901.21,-846.547 827.966,-821.252 778.893,-803.18"/>
<polygon fill="none" stroke="black" points="780.003,-799.859 769.41,-799.667 777.571,-806.423 780.003,-799.859"/>
</g>
<!-- \\Horde_Service_Weather_Metar -->
<g id="node17" class="node"><title>\\Horde_Service_Weather_Metar</title>
<polygon fill="none" stroke="black" points="1236.79,-961.521 1037.79,-961.521 1037.79,-925.521 1236.79,-925.521 1236.79,-961.521"/>
<text text-anchor="middle" x="1137.29" y="-940.721" font-family="Courier,monospace" font-size="11.00">Horde_Service_Weather_Metar</text>
</g>
<!-- \\Horde_Service_Weather_Metar&#45;&gt;\\Horde_Service_Weather_Base -->
<g id="edge15" class="edge"><title>\\Horde_Service_Weather_Metar&#45;&gt;\\Horde_Service_Weather_Base</title>
<path fill="none" stroke="black" d="M1037.65,-956.387C974.311,-964.648 892.121,-975.369 827.528,-983.794"/>
<polygon fill="none" stroke="black" points="826.782,-980.362 817.318,-985.126 827.687,-987.303 826.782,-980.362"/>
</g>
<!-- \\Horde_Service_Weather_Alerts_WeatherUnderground -->
<g id="node18" class="node"><title>\\Horde_Service_Weather_Alerts_WeatherUnderground</title>
<polygon fill="none" stroke="black" points="1304.29,-583.521 970.287,-583.521 970.287,-547.521 1304.29,-547.521 1304.29,-583.521"/>
<text text-anchor="middle" x="1137.29" y="-562.721" font-family="Courier,monospace" font-size="11.00">Horde_Service_Weather_Alerts_WeatherUnderground</text>
</g>
<!-- \\Horde_Service_Weather_Alerts_Base -->
<g id="node19" class="node"><title>\\Horde_Service_Weather_Alerts_Base</title>
<polygon fill="none" stroke="black" points="840.787,-529.521 601.787,-529.521 601.787,-493.521 840.787,-493.521 840.787,-529.521"/>
<text text-anchor="middle" x="721.287" y="-508.721" font-family="Courier,monospace" font-size="11.00">Horde_Service_Weather_Alerts_Base</text>
</g>
<!-- \\Horde_Service_Weather_Alerts_WeatherUnderground&#45;&gt;\\Horde_Service_Weather_Alerts_Base -->
<g id="edge16" class="edge"><title>\\Horde_Service_Weather_Alerts_WeatherUnderground&#45;&gt;\\Horde_Service_Weather_Alerts_Base</title>
<path fill="none" stroke="black" d="M998.143,-547.502C950.715,-541.316 897.844,-534.42 851.179,-528.333"/>
<polygon fill="none" stroke="black" points="851.38,-524.83 841.011,-527.007 850.475,-531.771 851.38,-524.83"/>
</g>
<!-- \\Horde_Service_Weather_Alerts_Base&#45;&gt;\\IteratorAggregate -->
<g id="edge17" class="edge"><title>\\Horde_Service_Weather_Alerts_Base&#45;&gt;\\IteratorAggregate</title>
<path fill="none" stroke="black" stroke-dasharray="1,5" d="M601.978,-493.359C581.504,-485.348 562.202,-473.888 547.787,-457.521 427.526,-320.985 615.298,-171.317 475.787,-54.5211 386.841,19.9417 306.824,16.0843 214.787,-54.5211 134.99,-115.737 91.073,-443.548 79.5119,-542.331"/>
<polygon fill="none" stroke="black" points="76.0139,-542.114 78.3479,-552.448 82.968,-542.914 76.0139,-542.114"/>
</g>
<!-- \\Horde_Service_Weather_Exception_InvalidProperty -->
<g id="node20" class="node"><title>\\Horde_Service_Weather_Exception_InvalidProperty</title>
<polygon fill="none" stroke="black" points="1304.29,-637.521 970.287,-637.521 970.287,-601.521 1304.29,-601.521 1304.29,-637.521"/>
<text text-anchor="middle" x="1137.29" y="-616.721" font-family="Courier,monospace" font-size="11.00">Horde_Service_Weather_Exception_InvalidProperty</text>
</g>
<!-- \\Horde_Service_Weather_Exception_InvalidProperty&#45;&gt;\\Horde_Service_Weather_Exception -->
<g id="edge18" class="edge"><title>\\Horde_Service_Weather_Exception_InvalidProperty&#45;&gt;\\Horde_Service_Weather_Exception</title>
<path fill="none" stroke="black" d="M970.282,-619.521C928.273,-619.521 883.917,-619.521 844.515,-619.521"/>
<polygon fill="none" stroke="black" points="844.342,-616.021 834.342,-619.521 844.342,-623.021 844.342,-616.021"/>
</g>
<!-- \\Horde_Service_Weather_Current_Wwo -->
<g id="node21" class="node"><title>\\Horde_Service_Weather_Current_Wwo</title>
<polygon fill="none" stroke="black" points="1256.79,-475.521 1017.79,-475.521 1017.79,-439.521 1256.79,-439.521 1256.79,-475.521"/>
<text text-anchor="middle" x="1137.29" y="-454.721" font-family="Courier,monospace" font-size="11.00">Horde_Service_Weather_Current_Wwo</text>
</g>
<!-- \\Horde_Service_Weather_Current_Base -->
<g id="node25" class="node"><title>\\Horde_Service_Weather_Current_Base</title>
<polygon fill="none" stroke="black" points="844.287,-448.521 598.287,-448.521 598.287,-412.521 844.287,-412.521 844.287,-448.521"/>
<text text-anchor="middle" x="721.287" y="-427.721" font-family="Courier,monospace" font-size="11.00">Horde_Service_Weather_Current_Base</text>
</g>
<!-- \\Horde_Service_Weather_Current_Wwo&#45;&gt;\\Horde_Service_Weather_Current_Base -->
<g id="edge19" class="edge"><title>\\Horde_Service_Weather_Current_Wwo&#45;&gt;\\Horde_Service_Weather_Current_Base</title>
<path fill="none" stroke="black" d="M1017.65,-449.784C966.696,-446.461 906.947,-442.564 854.569,-439.148"/>
<polygon fill="none" stroke="black" points="854.745,-435.652 844.538,-438.494 854.289,-442.638 854.745,-435.652"/>
</g>
<!-- \\Horde_Service_Weather_Current_WeatherUnderground -->
<g id="node22" class="node"><title>\\Horde_Service_Weather_Current_WeatherUnderground</title>
<polygon fill="none" stroke="black" points="1307.79,-421.521 966.787,-421.521 966.787,-385.521 1307.79,-385.521 1307.79,-421.521"/>
<text text-anchor="middle" x="1137.29" y="-400.721" font-family="Courier,monospace" font-size="11.00">Horde_Service_Weather_Current_WeatherUnderground</text>
</g>
<!-- \\Horde_Service_Weather_Current_WeatherUnderground&#45;&gt;\\Horde_Service_Weather_Current_Base -->
<g id="edge20" class="edge"><title>\\Horde_Service_Weather_Current_WeatherUnderground&#45;&gt;\\Horde_Service_Weather_Current_Base</title>
<path fill="none" stroke="black" d="M966.702,-414.581C929.408,-417.013 890.437,-419.555 854.851,-421.876"/>
<polygon fill="none" stroke="black" points="854.168,-418.413 844.417,-422.556 854.624,-425.398 854.168,-418.413"/>
</g>
<!-- \\Horde_Service_Weather_Current_Metar -->
<g id="node23" class="node"><title>\\Horde_Service_Weather_Current_Metar</title>
<polygon fill="none" stroke="black" points="1263.79,-367.521 1010.79,-367.521 1010.79,-331.521 1263.79,-331.521 1263.79,-367.521"/>
<text text-anchor="middle" x="1137.29" y="-346.721" font-family="Courier,monospace" font-size="11.00">Horde_Service_Weather_Current_Metar</text>
</g>
<!-- \\Horde_Service_Weather_Current_Metar&#45;&gt;\\Horde_Service_Weather_Current_Base -->
<g id="edge21" class="edge"><title>\\Horde_Service_Weather_Current_Metar&#45;&gt;\\Horde_Service_Weather_Current_Base</title>
<path fill="none" stroke="black" d="M1017.13,-367.586C1000.2,-370.419 983.034,-373.436 966.787,-376.521 913.857,-386.573 854.872,-399.548 808.1,-410.26"/>
<polygon fill="none" stroke="black" points="807.273,-406.859 798.311,-412.51 808.841,-413.681 807.273,-406.859"/>
</g>
<!-- \\Horde_Service_Weather_Current_Owm -->
<g id="node24" class="node"><title>\\Horde_Service_Weather_Current_Owm</title>
<polygon fill="none" stroke="black" points="1256.79,-529.521 1017.79,-529.521 1017.79,-493.521 1256.79,-493.521 1256.79,-529.521"/>
<text text-anchor="middle" x="1137.29" y="-508.721" font-family="Courier,monospace" font-size="11.00">Horde_Service_Weather_Current_Owm</text>
</g>
<!-- \\Horde_Service_Weather_Current_Owm&#45;&gt;\\Horde_Service_Weather_Current_Base -->
<g id="edge22" class="edge"><title>\\Horde_Service_Weather_Current_Owm&#45;&gt;\\Horde_Service_Weather_Current_Base</title>
<path fill="none" stroke="black" d="M1017.59,-493.532C1000.51,-490.678 983.181,-487.634 966.787,-484.521 913.857,-474.47 854.872,-461.494 808.1,-450.782"/>
<polygon fill="none" stroke="black" points="808.841,-447.361 798.311,-448.532 807.273,-454.183 808.841,-447.361"/>
</g>
<!-- \\Horde_Service_Weather_Owm -->
<g id="node26" class="node"><title>\\Horde_Service_Weather_Owm</title>
<polygon fill="none" stroke="black" points="1229.79,-1123.52 1044.79,-1123.52 1044.79,-1087.52 1229.79,-1087.52 1229.79,-1123.52"/>
<text text-anchor="middle" x="1137.29" y="-1102.72" font-family="Courier,monospace" font-size="11.00">Horde_Service_Weather_Owm</text>
</g>
<!-- \\Horde_Service_Weather_Owm&#45;&gt;\\Horde_Service_Weather_Base -->
<g id="edge23" class="edge"><title>\\Horde_Service_Weather_Owm&#45;&gt;\\Horde_Service_Weather_Base</title>
<path fill="none" stroke="black" d="M1044.74,-1099.18C1018.82,-1095.21 991.069,-1088.81 966.787,-1078.52 929.956,-1062.92 931.639,-1040.08 894.787,-1024.52 873.865,-1015.69 850.417,-1009.72 827.711,-1005.68"/>
<polygon fill="none" stroke="black" points="828.13,-1002.2 817.691,-1004.02 826.981,-1009.11 828.13,-1002.2"/>
</g>
<!-- \\Horde_Service_Weather_Station -->
<g id="node27" class="node"><title>\\Horde_Service_Weather_Station</title>
<polygon fill="none" stroke="black" points="1243.29,-313.521 1031.29,-313.521 1031.29,-277.521 1243.29,-277.521 1243.29,-313.521"/>
<text text-anchor="middle" x="1137.29" y="-292.721" font-family="Courier,monospace" font-size="11.00">Horde_Service_Weather_Station</text>
</g>
<!-- \\Horde_Service_Weather_Parser_Metar -->
<g id="node28" class="node"><title>\\Horde_Service_Weather_Parser_Metar</title>
<polygon fill="none" stroke="black" points="1260.29,-205.521 1014.29,-205.521 1014.29,-169.521 1260.29,-169.521 1260.29,-205.521"/>
<text text-anchor="middle" x="1137.29" y="-184.721" font-family="Courier,monospace" font-size="11.00">Horde_Service_Weather_Parser_Metar</text>
</g>
<!-- \\Horde_Service_Weather_Parser_Base -->
<g id="node30" class="node"><title>\\Horde_Service_Weather_Parser_Base</title>
<polygon fill="none" stroke="black" points="840.787,-232.521 601.787,-232.521 601.787,-196.521 840.787,-196.521 840.787,-232.521"/>
<text text-anchor="start" x="687.287" y="-217.721" font-family="Courier,monospace" font-size="11.00">«abstract»</text>
<text text-anchor="start" x="609.787" y="-205.721" font-family="Courier,monospace" font-size="11.00">Horde_Service_Weather_Parser_Base</text>
</g>
<!-- \\Horde_Service_Weather_Parser_Metar&#45;&gt;\\Horde_Service_Weather_Parser_Base -->
<g id="edge24" class="edge"><title>\\Horde_Service_Weather_Parser_Metar&#45;&gt;\\Horde_Service_Weather_Parser_Base</title>
<path fill="none" stroke="black" d="M1014.03,-195.494C962.835,-198.833 903.278,-202.717 851.373,-206.102"/>
<polygon fill="none" stroke="black" points="850.849,-202.629 841.098,-206.773 851.305,-209.614 850.849,-202.629"/>
</g>
<!-- \\Horde_Service_Weather_Parser_Taf -->
<g id="node29" class="node"><title>\\Horde_Service_Weather_Parser_Taf</title>
<polygon fill="none" stroke="black" points="1253.79,-259.521 1020.79,-259.521 1020.79,-223.521 1253.79,-223.521 1253.79,-259.521"/>
<text text-anchor="middle" x="1137.29" y="-238.721" font-family="Courier,monospace" font-size="11.00">Horde_Service_Weather_Parser_Taf</text>
</g>
<!-- \\Horde_Service_Weather_Parser_Taf&#45;&gt;\\Horde_Service_Weather_Parser_Base -->
<g id="edge25" class="edge"><title>\\Horde_Service_Weather_Parser_Taf&#45;&gt;\\Horde_Service_Weather_Parser_Base</title>
<path fill="none" stroke="black" d="M1020.69,-233.982C967.876,-230.538 905.13,-226.446 850.836,-222.905"/>
<polygon fill="none" stroke="black" points="851.007,-219.409 840.8,-222.25 850.551,-226.394 851.007,-219.409"/>
</g>
<!-- \\Horde_Service_Weather_Translation -->
<g id="node32" class="node"><title>\\Horde_Service_Weather_Translation</title>
<polygon fill="none" stroke="black" points="1256.79,-151.521 1017.79,-151.521 1017.79,-115.521 1256.79,-115.521 1256.79,-151.521"/>
<text text-anchor="middle" x="1137.29" y="-130.721" font-family="Courier,monospace" font-size="11.00">Horde_Service_Weather_Translation</text>
</g>
<!-- \\Horde_Translation_Autodetect -->
<g id="node35" class="node"><title>\\Horde_Translation_Autodetect</title>
<ellipse fill="none" stroke="black" cx="721.287" cy="-81.5211" rx="122.379" ry="18"/>
<text text-anchor="middle" x="721.287" y="-77.8211" font-family="Times,serif" font-size="14.00" fill="gray">\Horde_Translation_Autodetect</text>
</g>
<!-- \\Horde_Service_Weather_Translation&#45;&gt;\\Horde_Translation_Autodetect -->
<g id="edge26" class="edge"><title>\\Horde_Service_Weather_Translation&#45;&gt;\\Horde_Translation_Autodetect</title>
<path fill="none" stroke="black" d="M1017.65,-118.62C956.779,-110.974 883.356,-101.752 824.943,-94.4152"/>
<polygon fill="none" stroke="black" points="825.32,-90.9351 814.962,-93.1615 824.448,-97.8805 825.32,-90.9351"/>
</g>
</g>
</svg>
