<?xml version="1.0" encoding="UTF-8" standalone="no"?>
<!DOCTYPE svg PUBLIC "-//W3C//DTD SVG 1.1//EN"
 "http://www.w3.org/Graphics/SVG/1.1/DTD/svg11.dtd">
<!-- Generated by graphviz version 2.38.0 (20140413.2041)
 -->
<!-- Title: G Pages: 1 -->
<svg width="725pt" height="636pt"
 viewBox="0.00 0.00 725.17 636.00" xmlns="http://www.w3.org/2000/svg" xmlns:xlink="http://www.w3.org/1999/xlink">
<g id="graph0" class="graph" transform="scale(1 1) rotate(0) translate(4 632)">
<title>G</title>
<polygon fill="white" stroke="none" points="-4,4 -4,-632 721.167,-632 721.167,4 -4,4"/>
<g id="clust1" class="cluster"><title>cluster_Global</title>
<path fill="none" stroke="gray" d="M445.167,-8C445.167,-8 697.167,-8 697.167,-8 703.167,-8 709.167,-14 709.167,-20 709.167,-20 709.167,-608 709.167,-608 709.167,-614 703.167,-620 697.167,-620 697.167,-620 445.167,-620 445.167,-620 439.167,-620 433.167,-614 433.167,-608 433.167,-608 433.167,-20 433.167,-20 433.167,-14 439.167,-8 445.167,-8"/>
<text text-anchor="middle" x="571.167" y="-607.2" font-family="Times,serif" font-size="11.00" fill="gray">Global</text>
</g>
<!-- \\Gollem_LoginTasks_SystemTask_Upgrade -->
<g id="node1" class="node"><title>\\Gollem_LoginTasks_SystemTask_Upgrade</title>
<polygon fill="none" stroke="black" points="701.167,-592 441.167,-592 441.167,-556 701.167,-556 701.167,-592"/>
<text text-anchor="middle" x="571.167" y="-571.2" font-family="Courier,monospace" font-size="11.00">Gollem_LoginTasks_SystemTask_Upgrade</text>
</g>
<!-- \\Horde_Core_LoginTasks_SystemTask_Upgrade -->
<g id="node12" class="node"><title>\\Horde_Core_LoginTasks_SystemTask_Upgrade</title>
<ellipse fill="none" stroke="black" cx="184.584" cy="-574" rx="184.667" ry="18"/>
<text text-anchor="middle" x="184.584" y="-570.3" font-family="Times,serif" font-size="14.00" fill="gray">\Horde_Core_LoginTasks_SystemTask_Upgrade</text>
</g>
<!-- \\Gollem_LoginTasks_SystemTask_Upgrade&#45;&gt;\\Horde_Core_LoginTasks_SystemTask_Upgrade -->
<g id="edge1" class="edge"><title>\\Gollem_LoginTasks_SystemTask_Upgrade&#45;&gt;\\Horde_Core_LoginTasks_SystemTask_Upgrade</title>
<path fill="none" stroke="black" d="M441.037,-574C421.252,-574 400.465,-574 379.649,-574"/>
<polygon fill="none" stroke="black" points="379.433,-570.5 369.433,-574 379.433,-577.5 379.433,-570.5"/>
</g>
<!-- \\Gollem_Api -->
<g id="node2" class="node"><title>\\Gollem_Api</title>
<polygon fill="none" stroke="black" points="613.167,-538 529.167,-538 529.167,-502 613.167,-502 613.167,-538"/>
<text text-anchor="middle" x="571.167" y="-517.2" font-family="Courier,monospace" font-size="11.00">Gollem_Api</text>
</g>
<!-- \\Horde_Registry_Api -->
<g id="node13" class="node"><title>\\Horde_Registry_Api</title>
<ellipse fill="none" stroke="black" cx="184.584" cy="-520" rx="87.1846" ry="18"/>
<text text-anchor="middle" x="184.584" y="-516.3" font-family="Times,serif" font-size="14.00" fill="gray">\Horde_Registry_Api</text>
</g>
<!-- \\Gollem_Api&#45;&gt;\\Horde_Registry_Api -->
<g id="edge2" class="edge"><title>\\Gollem_Api&#45;&gt;\\Horde_Registry_Api</title>
<path fill="none" stroke="black" d="M529.01,-520C470.475,-520 361.464,-520 281.916,-520"/>
<polygon fill="none" stroke="black" points="281.877,-516.5 271.877,-520 281.877,-523.5 281.877,-516.5"/>
</g>
<!-- \\Gollem_Test -->
<g id="node3" class="node"><title>\\Gollem_Test</title>
<polygon fill="none" stroke="black" points="616.667,-484 525.667,-484 525.667,-448 616.667,-448 616.667,-484"/>
<text text-anchor="middle" x="571.167" y="-463.2" font-family="Courier,monospace" font-size="11.00">Gollem_Test</text>
</g>
<!-- \\Horde_Test -->
<g id="node14" class="node"><title>\\Horde_Test</title>
<ellipse fill="none" stroke="black" cx="184.584" cy="-466" rx="54.6905" ry="18"/>
<text text-anchor="middle" x="184.584" y="-462.3" font-family="Times,serif" font-size="14.00" fill="gray">\Horde_Test</text>
</g>
<!-- \\Gollem_Test&#45;&gt;\\Horde_Test -->
<g id="edge3" class="edge"><title>\\Gollem_Test&#45;&gt;\\Horde_Test</title>
<path fill="none" stroke="black" d="M525.298,-466C457.221,-466 327.536,-466 249.582,-466"/>
<polygon fill="none" stroke="black" points="249.405,-462.5 239.405,-466 249.405,-469.5 249.405,-462.5"/>
</g>
<!-- \\Gollem_Exception -->
<g id="node4" class="node"><title>\\Gollem_Exception</title>
<polygon fill="none" stroke="black" points="633.667,-430 508.667,-430 508.667,-394 633.667,-394 633.667,-430"/>
<text text-anchor="middle" x="571.167" y="-409.2" font-family="Courier,monospace" font-size="11.00">Gollem_Exception</text>
</g>
<!-- \\Horde_Exception_Wrapped -->
<g id="node15" class="node"><title>\\Horde_Exception_Wrapped</title>
<ellipse fill="none" stroke="black" cx="184.584" cy="-412" rx="112.38" ry="18"/>
<text text-anchor="middle" x="184.584" y="-408.3" font-family="Times,serif" font-size="14.00" fill="gray">\Horde_Exception_Wrapped</text>
</g>
<!-- \\Gollem_Exception&#45;&gt;\\Horde_Exception_Wrapped -->
<g id="edge4" class="edge"><title>\\Gollem_Exception&#45;&gt;\\Horde_Exception_Wrapped</title>
<path fill="none" stroke="black" d="M508.377,-412C454.352,-412 374.306,-412 307.443,-412"/>
<polygon fill="none" stroke="black" points="307.255,-408.5 297.255,-412 307.255,-415.5 307.255,-408.5"/>
</g>
<!-- \\Gollem_Application -->
<g id="node5" class="node"><title>\\Gollem_Application</title>
<polygon fill="none" stroke="black" points="640.167,-376 502.167,-376 502.167,-340 640.167,-340 640.167,-376"/>
<text text-anchor="middle" x="571.167" y="-355.2" font-family="Courier,monospace" font-size="11.00">Gollem_Application</text>
</g>
<!-- \\Horde_Registry_Application -->
<g id="node16" class="node"><title>\\Horde_Registry_Application</title>
<ellipse fill="none" stroke="black" cx="184.584" cy="-358" rx="115.08" ry="18"/>
<text text-anchor="middle" x="184.584" y="-354.3" font-family="Times,serif" font-size="14.00" fill="gray">\Horde_Registry_Application</text>
</g>
<!-- \\Gollem_Application&#45;&gt;\\Horde_Registry_Application -->
<g id="edge5" class="edge"><title>\\Gollem_Application&#45;&gt;\\Horde_Registry_Application</title>
<path fill="none" stroke="black" d="M501.855,-358C448.789,-358 373.764,-358 310.103,-358"/>
<polygon fill="none" stroke="black" points="309.988,-354.5 299.988,-358 309.988,-361.5 309.988,-354.5"/>
</g>
<!-- \\Gollem -->
<g id="node6" class="node"><title>\\Gollem</title>
<polygon fill="none" stroke="black" points="599.667,-322 542.667,-322 542.667,-286 599.667,-286 599.667,-322"/>
<text text-anchor="middle" x="571.167" y="-301.2" font-family="Courier,monospace" font-size="11.00">Gollem</text>
</g>
<!-- \\Gollem_Auth -->
<g id="node7" class="node"><title>\\Gollem_Auth</title>
<polygon fill="none" stroke="black" points="616.667,-268 525.667,-268 525.667,-232 616.667,-232 616.667,-268"/>
<text text-anchor="middle" x="571.167" y="-247.2" font-family="Courier,monospace" font-size="11.00">Gollem_Auth</text>
</g>
<!-- \\Gollem_Factory_Shares -->
<g id="node8" class="node"><title>\\Gollem_Factory_Shares</title>
<polygon fill="none" stroke="black" points="650.167,-160 492.167,-160 492.167,-124 650.167,-124 650.167,-160"/>
<text text-anchor="middle" x="571.167" y="-139.2" font-family="Courier,monospace" font-size="11.00">Gollem_Factory_Shares</text>
</g>
<!-- \\Horde_Core_Factory_Injector -->
<g id="node17" class="node"><title>\\Horde_Core_Factory_Injector</title>
<ellipse fill="none" stroke="black" cx="184.584" cy="-169" rx="119.679" ry="18"/>
<text text-anchor="middle" x="184.584" y="-165.3" font-family="Times,serif" font-size="14.00" fill="gray">\Horde_Core_Factory_Injector</text>
</g>
<!-- \\Gollem_Factory_Shares&#45;&gt;\\Horde_Core_Factory_Injector -->
<g id="edge6" class="edge"><title>\\Gollem_Factory_Shares&#45;&gt;\\Horde_Core_Factory_Injector</title>
<path fill="none" stroke="black" d="M491.877,-147.496C437.683,-151.301 364.58,-156.433 303.384,-160.73"/>
<polygon fill="none" stroke="black" points="303.01,-157.247 293.279,-161.439 303.5,-164.23 303.01,-157.247"/>
</g>
<!-- \\Gollem_Factory_Vfs -->
<g id="node9" class="node"><title>\\Gollem_Factory_Vfs</title>
<polygon fill="none" stroke="black" points="640.167,-106 502.167,-106 502.167,-70 640.167,-70 640.167,-106"/>
<text text-anchor="middle" x="571.167" y="-85.2" font-family="Courier,monospace" font-size="11.00">Gollem_Factory_Vfs</text>
</g>
<!-- \\Horde_Core_Factory_Base -->
<g id="node18" class="node"><title>\\Horde_Core_Factory_Base</title>
<ellipse fill="none" stroke="black" cx="184.584" cy="-88" rx="109.381" ry="18"/>
<text text-anchor="middle" x="184.584" y="-84.3" font-family="Times,serif" font-size="14.00" fill="gray">\Horde_Core_Factory_Base</text>
</g>
<!-- \\Gollem_Factory_Vfs&#45;&gt;\\Horde_Core_Factory_Base -->
<g id="edge7" class="edge"><title>\\Gollem_Factory_Vfs&#45;&gt;\\Horde_Core_Factory_Base</title>
<path fill="none" stroke="black" d="M501.855,-88C447.15,-88 369.108,-88 304.237,-88"/>
<polygon fill="none" stroke="black" points="303.944,-84.5001 293.944,-88 303.944,-91.5001 303.944,-84.5001"/>
</g>
<!-- \\Gollem_Factory_VfsDefault -->
<g id="node10" class="node"><title>\\Gollem_Factory_VfsDefault</title>
<polygon fill="none" stroke="black" points="663.667,-214 478.667,-214 478.667,-178 663.667,-178 663.667,-214"/>
<text text-anchor="middle" x="571.167" y="-193.2" font-family="Courier,monospace" font-size="11.00">Gollem_Factory_VfsDefault</text>
</g>
<!-- \\Gollem_Factory_VfsDefault&#45;&gt;\\Horde_Core_Factory_Injector -->
<g id="edge8" class="edge"><title>\\Gollem_Factory_VfsDefault&#45;&gt;\\Horde_Core_Factory_Injector</title>
<path fill="none" stroke="black" d="M478.538,-189.567C426.037,-185.881 359.592,-181.216 303.26,-177.262"/>
<polygon fill="none" stroke="black" points="303.448,-173.766 293.227,-176.557 302.958,-180.749 303.448,-173.766"/>
</g>
<!-- \\Gollem_Prefs_Special_Columnselect -->
<g id="node11" class="node"><title>\\Gollem_Prefs_Special_Columnselect</title>
<polygon fill="none" stroke="black" points="690.667,-52 451.667,-52 451.667,-16 690.667,-16 690.667,-52"/>
<text text-anchor="middle" x="571.167" y="-31.2" font-family="Courier,monospace" font-size="11.00">Gollem_Prefs_Special_Columnselect</text>
</g>
<!-- \\Horde_Core_Prefs_Ui_Special -->
<g id="node19" class="node"><title>\\Horde_Core_Prefs_Ui_Special</title>
<ellipse fill="none" stroke="black" cx="184.584" cy="-34" rx="122.379" ry="18"/>
<text text-anchor="middle" x="184.584" y="-30.3" font-family="Times,serif" font-size="14.00" fill="gray">\Horde_Core_Prefs_Ui_Special</text>
</g>
<!-- \\Gollem_Prefs_Special_Columnselect&#45;&gt;\\Horde_Core_Prefs_Ui_Special -->
<g id="edge9" class="edge"><title>\\Gollem_Prefs_Special_Columnselect&#45;&gt;\\Horde_Core_Prefs_Ui_Special</title>
<path fill="none" stroke="black" stroke-dasharray="1,5" d="M451.641,-34C409.053,-34 360.774,-34 317.143,-34"/>
<polygon fill="none" stroke="black" points="317.037,-30.5001 307.037,-34 317.037,-37.5001 317.037,-30.5001"/>
</g>
</g>
</svg>
