<?xml version="1.0" encoding="UTF-8" standalone="no"?>
<!DOCTYPE svg PUBLIC "-//W3C//DTD SVG 1.1//EN"
 "http://www.w3.org/Graphics/SVG/1.1/DTD/svg11.dtd">
<!-- Generated by graphviz version 2.38.0 (20140413.2041)
 -->
<!-- Title: G Pages: 1 -->
<svg width="549pt" height="150pt"
 viewBox="0.00 0.00 548.68 150.00" xmlns="http://www.w3.org/2000/svg" xmlns:xlink="http://www.w3.org/1999/xlink">
<g id="graph0" class="graph" transform="scale(1 1) rotate(0) translate(4 146)">
<title>G</title>
<polygon fill="white" stroke="none" points="-4,4 -4,-146 544.681,-146 544.681,4 -4,4"/>
<g id="clust1" class="cluster"><title>cluster_Global</title>
<path fill="none" stroke="gray" d="M295.681,-8C295.681,-8 520.681,-8 520.681,-8 526.681,-8 532.681,-14 532.681,-20 532.681,-20 532.681,-122 532.681,-122 532.681,-128 526.681,-134 520.681,-134 520.681,-134 295.681,-134 295.681,-134 289.681,-134 283.681,-128 283.681,-122 283.681,-122 283.681,-20 283.681,-20 283.681,-14 289.681,-8 295.681,-8"/>
<text text-anchor="middle" x="408.181" y="-121.2" font-family="Times,serif" font-size="11.00" fill="gray">Global</text>
</g>
<!-- \\Horde_Autoloader_Cache -->
<g id="node1" class="node"><title>\\Horde_Autoloader_Cache</title>
<polygon fill="none" stroke="black" points="490.681,-106 325.681,-106 325.681,-70 490.681,-70 490.681,-106"/>
<text text-anchor="middle" x="408.181" y="-85.2" font-family="Courier,monospace" font-size="11.00">Horde_Autoloader_Cache</text>
</g>
<!-- \\Horde_Autoloader_Default -->
<g id="node3" class="node"><title>\\Horde_Autoloader_Default</title>
<ellipse fill="none" stroke="black" cx="109.84" cy="-88" rx="109.681" ry="18"/>
<text text-anchor="middle" x="109.84" y="-84.3" font-family="Times,serif" font-size="14.00" fill="gray">\Horde_Autoloader_Default</text>
</g>
<!-- \\Horde_Autoloader_Cache&#45;&gt;\\Horde_Autoloader_Default -->
<g id="edge1" class="edge"><title>\\Horde_Autoloader_Cache&#45;&gt;\\Horde_Autoloader_Default</title>
<path fill="none" stroke="black" d="M325.42,-88C295.971,-88 262.109,-88 230.117,-88"/>
<polygon fill="none" stroke="black" points="229.803,-84.5001 219.803,-88 229.803,-91.5001 229.803,-84.5001"/>
</g>
<!-- \\Horde_Autoloader_Cache_Bootstrap -->
<g id="node2" class="node"><title>\\Horde_Autoloader_Cache_Bootstrap</title>
<polygon fill="none" stroke="black" points="524.681,-52 291.681,-52 291.681,-16 524.681,-16 524.681,-52"/>
<text text-anchor="middle" x="408.181" y="-31.2" font-family="Courier,monospace" font-size="11.00">Horde_Autoloader_Cache_Bootstrap</text>
</g>
</g>
</svg>
