<?xml version="1.0" encoding="UTF-8" standalone="no"?>
<!DOCTYPE svg PUBLIC "-//W3C//DTD SVG 1.1//EN"
 "http://www.w3.org/Graphics/SVG/1.1/DTD/svg11.dtd">
<!-- Generated by graphviz version 2.38.0 (20140413.2041)
 -->
<!-- Title: G Pages: 1 -->
<svg width="498pt" height="672pt"
 viewBox="0.00 0.00 498.08 672.00" xmlns="http://www.w3.org/2000/svg" xmlns:xlink="http://www.w3.org/1999/xlink">
<g id="graph0" class="graph" transform="scale(1 1) rotate(0) translate(4 668)">
<title>G</title>
<polygon fill="white" stroke="none" points="-4,4 -4,-668 494.08,-668 494.08,4 -4,4"/>
<g id="clust1" class="cluster"><title>cluster_Global</title>
<path fill="none" stroke="gray" d="M63.5398,-152C63.5398,-152 470.08,-152 470.08,-152 476.08,-152 482.08,-158 482.08,-164 482.08,-164 482.08,-644 482.08,-644 482.08,-650 476.08,-656 470.08,-656 470.08,-656 63.5398,-656 63.5398,-656 57.5398,-656 51.5398,-650 51.5398,-644 51.5398,-644 51.5398,-164 51.5398,-164 51.5398,-158 57.5398,-152 63.5398,-152"/>
<text text-anchor="middle" x="266.81" y="-643.2" font-family="Times,serif" font-size="11.00" fill="gray">Global</text>
</g>
<!-- \\Beatnik_Exception -->
<g id="node1" class="node"><title>\\Beatnik_Exception</title>
<polygon fill="none" stroke="black" points="453.58,-466 322.58,-466 322.58,-430 453.58,-430 453.58,-466"/>
<text text-anchor="middle" x="388.08" y="-445.2" font-family="Courier,monospace" font-size="11.00">Beatnik_Exception</text>
</g>
<!-- \\Horde_Exception_Wrapped -->
<g id="node11" class="node"><title>\\Horde_Exception_Wrapped</title>
<ellipse fill="none" stroke="black" cx="115.04" cy="-126" rx="112.38" ry="18"/>
<text text-anchor="middle" x="115.04" y="-122.3" font-family="Times,serif" font-size="14.00" fill="gray">\Horde_Exception_Wrapped</text>
</g>
<!-- \\Beatnik_Exception&#45;&gt;\\Horde_Exception_Wrapped -->
<g id="edge1" class="edge"><title>\\Beatnik_Exception&#45;&gt;\\Horde_Exception_Wrapped</title>
<path fill="none" stroke="black" d="M322.172,-435.207C314.694,-431.586 307.736,-426.945 302.08,-421 215.582,-330.093 321.743,-233.694 230.08,-148 227.059,-145.176 223.79,-142.663 220.333,-140.43"/>
<polygon fill="none" stroke="black" points="221.822,-137.253 211.384,-135.437 218.411,-143.366 221.822,-137.253"/>
</g>
<!-- \\Autogenerate -->
<g id="node2" class="node"><title>\\Autogenerate</title>
<polygon fill="none" stroke="black" points="437.08,-412 339.08,-412 339.08,-376 437.08,-376 437.08,-412"/>
<text text-anchor="middle" x="388.08" y="-391.2" font-family="Courier,monospace" font-size="11.00">Autogenerate</text>
</g>
<!-- \\Horde_Form -->
<g id="node12" class="node"><title>\\Horde_Form</title>
<ellipse fill="none" stroke="black" cx="115.04" cy="-72" rx="59.2899" ry="18"/>
<text text-anchor="middle" x="115.04" y="-68.3" font-family="Times,serif" font-size="14.00" fill="gray">\Horde_Form</text>
</g>
<!-- \\Autogenerate&#45;&gt;\\Horde_Form -->
<g id="edge2" class="edge"><title>\\Autogenerate&#45;&gt;\\Horde_Form</title>
<path fill="none" stroke="black" d="M338.799,-387.503C325.37,-383.541 311.816,-377.185 302.08,-367 216.858,-277.845 318.588,-184.894 230.08,-99 217.63,-86.9183 200.823,-79.8895 183.941,-75.8878"/>
<polygon fill="none" stroke="black" points="184.524,-72.4346 174.026,-73.8662 183.125,-79.2935 184.524,-72.4346"/>
</g>
<!-- \\EditRecord -->
<g id="node3" class="node"><title>\\EditRecord</title>
<polygon fill="none" stroke="black" points="430.08,-358 346.08,-358 346.08,-322 430.08,-322 430.08,-358"/>
<text text-anchor="middle" x="388.08" y="-337.2" font-family="Courier,monospace" font-size="11.00">EditRecord</text>
</g>
<!-- \\EditRecord&#45;&gt;\\Horde_Form -->
<g id="edge3" class="edge"><title>\\EditRecord&#45;&gt;\\Horde_Form</title>
<path fill="none" stroke="black" d="M345.785,-334.905C330.368,-331.113 313.783,-324.506 302.08,-313 230.521,-242.647 304.228,-166.617 230.08,-99 217.324,-87.3679 200.496,-80.4804 183.697,-76.4703"/>
<polygon fill="none" stroke="black" points="184.343,-73.0298 173.841,-74.4276 182.922,-79.8841 184.343,-73.0298"/>
</g>
<!-- \\DeleteRecord -->
<g id="node4" class="node"><title>\\DeleteRecord</title>
<polygon fill="none" stroke="black" points="437.08,-304 339.08,-304 339.08,-268 437.08,-268 437.08,-304"/>
<text text-anchor="middle" x="388.08" y="-283.2" font-family="Courier,monospace" font-size="11.00">DeleteRecord</text>
</g>
<!-- \\DeleteRecord&#45;&gt;\\Horde_Form -->
<g id="edge4" class="edge"><title>\\DeleteRecord&#45;&gt;\\Horde_Form</title>
<path fill="none" stroke="black" d="M338.893,-278.224C325.778,-274.223 312.369,-268.167 302.08,-259 243.855,-207.128 290.21,-148.649 230.08,-99 216.833,-88.0628 199.92,-81.403 183.2,-77.3889"/>
<polygon fill="none" stroke="black" points="183.914,-73.9627 173.407,-75.3189 182.467,-80.8114 183.914,-73.9627"/>
</g>
<!-- \\Beatnik_Application -->
<g id="node5" class="node"><title>\\Beatnik_Application</title>
<polygon fill="none" stroke="black" points="460.58,-250 315.58,-250 315.58,-214 460.58,-214 460.58,-250"/>
<text text-anchor="middle" x="388.08" y="-229.2" font-family="Courier,monospace" font-size="11.00">Beatnik_Application</text>
</g>
<!-- \\Horde_Registry_Application -->
<g id="node13" class="node"><title>\\Horde_Registry_Application</title>
<ellipse fill="none" stroke="black" cx="115.04" cy="-18" rx="115.08" ry="18"/>
<text text-anchor="middle" x="115.04" y="-14.3" font-family="Times,serif" font-size="14.00" fill="gray">\Horde_Registry_Application</text>
</g>
<!-- \\Beatnik_Application&#45;&gt;\\Horde_Registry_Application -->
<g id="edge5" class="edge"><title>\\Beatnik_Application&#45;&gt;\\Horde_Registry_Application</title>
<path fill="none" stroke="black" d="M315.458,-214.436C310.655,-211.729 306.126,-208.605 302.08,-205 243.855,-153.128 290.21,-94.6495 230.08,-45 224.756,-40.6047 218.841,-36.9001 212.584,-33.7805"/>
<polygon fill="none" stroke="black" points="213.761,-30.4738 203.201,-29.6161 210.921,-36.872 213.761,-30.4738"/>
</g>
<!-- \\Beatnik_Driver_sql -->
<g id="node6" class="node"><title>\\Beatnik_Driver_sql</title>
<polygon fill="none" stroke="black" points="457.08,-628 319.08,-628 319.08,-592 457.08,-592 457.08,-628"/>
<text text-anchor="middle" x="388.08" y="-607.2" font-family="Courier,monospace" font-size="11.00">Beatnik_Driver_sql</text>
</g>
<!-- \\Beatnik_Driver -->
<g id="node10" class="node"><title>\\Beatnik_Driver</title>
<polygon fill="none" stroke="black" points="170.54,-574 59.5398,-574 59.5398,-538 170.54,-538 170.54,-574"/>
<text text-anchor="middle" x="115.04" y="-553.2" font-family="Courier,monospace" font-size="11.00">Beatnik_Driver</text>
</g>
<!-- \\Beatnik_Driver_sql&#45;&gt;\\Beatnik_Driver -->
<g id="edge6" class="edge"><title>\\Beatnik_Driver_sql&#45;&gt;\\Beatnik_Driver</title>
<path fill="none" stroke="black" d="M319.035,-596.443C276.734,-588.015 222.657,-577.242 180.956,-568.933"/>
<polygon fill="none" stroke="black" points="181.398,-565.453 170.907,-566.931 180.03,-572.318 181.398,-565.453"/>
</g>
<!-- \\Beatnik_Driver_pdnsgsql -->
<g id="node7" class="node"><title>\\Beatnik_Driver_pdnsgsql</title>
<polygon fill="none" stroke="black" points="474.08,-574 302.08,-574 302.08,-538 474.08,-538 474.08,-574"/>
<text text-anchor="middle" x="388.08" y="-553.2" font-family="Courier,monospace" font-size="11.00">Beatnik_Driver_pdnsgsql</text>
</g>
<!-- \\Beatnik_Driver_pdnsgsql&#45;&gt;\\Beatnik_Driver -->
<g id="edge7" class="edge"><title>\\Beatnik_Driver_pdnsgsql&#45;&gt;\\Beatnik_Driver</title>
<path fill="none" stroke="black" d="M302.065,-556C263.066,-556 217.555,-556 181.311,-556"/>
<polygon fill="none" stroke="black" points="180.863,-552.5 170.863,-556 180.863,-559.5 180.863,-552.5"/>
</g>
<!-- \\Beatnik_Driver_ldap2dns -->
<g id="node8" class="node"><title>\\Beatnik_Driver_ldap2dns</title>
<polygon fill="none" stroke="black" points="474.08,-520 302.08,-520 302.08,-484 474.08,-484 474.08,-520"/>
<text text-anchor="middle" x="388.08" y="-499.2" font-family="Courier,monospace" font-size="11.00">Beatnik_Driver_ldap2dns</text>
</g>
<!-- \\Beatnik_Driver_ldap2dns&#45;&gt;\\Beatnik_Driver -->
<g id="edge8" class="edge"><title>\\Beatnik_Driver_ldap2dns&#45;&gt;\\Beatnik_Driver</title>
<path fill="none" stroke="black" d="M302.065,-518.938C262.898,-526.741 217.165,-535.853 180.844,-543.089"/>
<polygon fill="none" stroke="black" points="179.987,-539.691 170.863,-545.077 181.354,-546.556 179.987,-539.691"/>
</g>
<!-- \\Beatnik -->
<g id="node9" class="node"><title>\\Beatnik</title>
<polygon fill="none" stroke="black" points="420.08,-196 356.08,-196 356.08,-160 420.08,-160 420.08,-196"/>
<text text-anchor="middle" x="388.08" y="-175.2" font-family="Courier,monospace" font-size="11.00">Beatnik</text>
</g>
</g>
</svg>
