<?xml version="1.0" encoding="UTF-8" standalone="no"?>
<!DOCTYPE svg PUBLIC "-//W3C//DTD SVG 1.1//EN"
 "http://www.w3.org/Graphics/SVG/1.1/DTD/svg11.dtd">
<!-- Generated by graphviz version 2.38.0 (20140413.2041)
 -->
<!-- Title: G Pages: 1 -->
<svg width="514pt" height="1968pt"
 viewBox="0.00 0.00 514.18 1968.00" xmlns="http://www.w3.org/2000/svg" xmlns:xlink="http://www.w3.org/1999/xlink">
<g id="graph0" class="graph" transform="scale(1 1) rotate(0) translate(4 1964)">
<title>G</title>
<polygon fill="white" stroke="none" points="-4,4 -4,-1964 510.179,-1964 510.179,4 -4,4"/>
<g id="clust1" class="cluster"><title>cluster_Global</title>
<path fill="none" stroke="gray" d="M64.5894,-476C64.5894,-476 486.179,-476 486.179,-476 492.179,-476 498.179,-482 498.179,-488 498.179,-488 498.179,-1940 498.179,-1940 498.179,-1946 492.179,-1952 486.179,-1952 486.179,-1952 64.5894,-1952 64.5894,-1952 58.5894,-1952 52.5894,-1946 52.5894,-1940 52.5894,-1940 52.5894,-488 52.5894,-488 52.5894,-482 58.5894,-476 64.5894,-476"/>
<text text-anchor="middle" x="275.384" y="-1939.2" font-family="Times,serif" font-size="11.00" fill="gray">Global</text>
</g>
<!-- \\Jonah_Api -->
<g id="node1" class="node"><title>\\Jonah_Api</title>
<polygon fill="none" stroke="black" points="439.179,-1330 362.179,-1330 362.179,-1294 439.179,-1294 439.179,-1330"/>
<text text-anchor="middle" x="400.679" y="-1309.2" font-family="Courier,monospace" font-size="11.00">Jonah_Api</text>
</g>
<!-- \\Horde_Registry_Api -->
<g id="node30" class="node"><title>\\Horde_Registry_Api</title>
<ellipse fill="none" stroke="black" cx="119.589" cy="-450" rx="87.1846" ry="18"/>
<text text-anchor="middle" x="119.589" y="-446.3" font-family="Times,serif" font-size="14.00" fill="gray">\Horde_Registry_Api</text>
</g>
<!-- \\Jonah_Api&#45;&gt;\\Horde_Registry_Api -->
<g id="edge1" class="edge"><title>\\Jonah_Api&#45;&gt;\\Horde_Registry_Api</title>
<path fill="none" stroke="black" d="M362.018,-1309.99C343.864,-1306.95 323.423,-1300.1 311.179,-1285 196.92,-1144.14 361.189,-606.202 239.179,-472 232.645,-464.813 224.585,-459.508 215.767,-455.64"/>
<polygon fill="none" stroke="black" points="216.928,-452.337 206.335,-452.109 214.474,-458.893 216.928,-452.337"/>
</g>
<!-- \\Jonah_Test -->
<g id="node2" class="node"><title>\\Jonah_Test</title>
<polygon fill="none" stroke="black" points="442.679,-1276 358.679,-1276 358.679,-1240 442.679,-1240 442.679,-1276"/>
<text text-anchor="middle" x="400.679" y="-1255.2" font-family="Courier,monospace" font-size="11.00">Jonah_Test</text>
</g>
<!-- \\Horde_Test -->
<g id="node31" class="node"><title>\\Horde_Test</title>
<ellipse fill="none" stroke="black" cx="119.589" cy="-396" rx="54.6905" ry="18"/>
<text text-anchor="middle" x="119.589" y="-392.3" font-family="Times,serif" font-size="14.00" fill="gray">\Horde_Test</text>
</g>
<!-- \\Jonah_Test&#45;&gt;\\Horde_Test -->
<g id="edge2" class="edge"><title>\\Jonah_Test&#45;&gt;\\Horde_Test</title>
<path fill="none" stroke="black" d="M358.394,-1255.33C341.201,-1252.01 322.618,-1245.09 311.179,-1231 197.579,-1091.03 357.76,-558.774 239.179,-423 225.452,-407.283 204.65,-399.677 184.281,-396.262"/>
<polygon fill="none" stroke="black" points="184.731,-392.791 174.349,-394.905 183.783,-399.726 184.731,-392.791"/>
</g>
<!-- \\Jonah_FeedParser -->
<g id="node3" class="node"><title>\\Jonah_FeedParser</title>
<polygon fill="none" stroke="black" points="463.179,-1816 338.179,-1816 338.179,-1780 463.179,-1780 463.179,-1816"/>
<text text-anchor="middle" x="400.679" y="-1795.2" font-family="Courier,monospace" font-size="11.00">Jonah_FeedParser</text>
</g>
<!-- \\Jonah_Form_Feed -->
<g id="node4" class="node"><title>\\Jonah_Form_Feed</title>
<polygon fill="none" stroke="black" points="459.679,-1168 341.679,-1168 341.679,-1132 459.679,-1132 459.679,-1168"/>
<text text-anchor="middle" x="400.679" y="-1147.2" font-family="Courier,monospace" font-size="11.00">Jonah_Form_Feed</text>
</g>
<!-- \\Horde_Form -->
<g id="node32" class="node"><title>\\Horde_Form</title>
<ellipse fill="none" stroke="black" cx="119.589" cy="-342" rx="59.2899" ry="18"/>
<text text-anchor="middle" x="119.589" y="-338.3" font-family="Times,serif" font-size="14.00" fill="gray">\Horde_Form</text>
</g>
<!-- \\Jonah_Form_Feed&#45;&gt;\\Horde_Form -->
<g id="edge3" class="edge"><title>\\Jonah_Form_Feed&#45;&gt;\\Horde_Form</title>
<path fill="none" stroke="black" d="M341.402,-1142.75C329.84,-1138.68 318.902,-1132.45 311.179,-1123 204.696,-992.645 350.3,-495.424 239.179,-369 226.476,-354.548 207.791,-346.964 188.992,-343.189"/>
<polygon fill="none" stroke="black" points="189.318,-339.695 178.879,-341.505 188.169,-346.6 189.318,-339.695"/>
</g>
<!-- \\Jonah_Form_Story -->
<g id="node5" class="node"><title>\\Jonah_Form_Story</title>
<polygon fill="none" stroke="black" points="463.179,-1222 338.179,-1222 338.179,-1186 463.179,-1186 463.179,-1222"/>
<text text-anchor="middle" x="400.679" y="-1201.2" font-family="Courier,monospace" font-size="11.00">Jonah_Form_Story</text>
</g>
<!-- \\Jonah_Form_Story&#45;&gt;\\Horde_Form -->
<g id="edge4" class="edge"><title>\\Jonah_Form_Story&#45;&gt;\\Horde_Form</title>
<path fill="none" stroke="black" d="M337.731,-1195.43C327.533,-1191.36 318.062,-1185.48 311.179,-1177 197.579,-1037.03 357.76,-504.774 239.179,-369 226.522,-354.508 207.85,-346.912 189.049,-343.139"/>
<polygon fill="none" stroke="black" points="189.373,-339.645 178.934,-341.457 188.224,-346.55 189.373,-339.645"/>
</g>
<!-- \\Jonah_Exception -->
<g id="node6" class="node"><title>\\Jonah_Exception</title>
<polygon fill="none" stroke="black" points="459.679,-1114 341.679,-1114 341.679,-1078 459.679,-1078 459.679,-1114"/>
<text text-anchor="middle" x="400.679" y="-1093.2" font-family="Courier,monospace" font-size="11.00">Jonah_Exception</text>
</g>
<!-- \\Horde_Exception_Wrapped -->
<g id="node33" class="node"><title>\\Horde_Exception_Wrapped</title>
<ellipse fill="none" stroke="black" cx="119.589" cy="-288" rx="112.38" ry="18"/>
<text text-anchor="middle" x="119.589" y="-284.3" font-family="Times,serif" font-size="14.00" fill="gray">\Horde_Exception_Wrapped</text>
</g>
<!-- \\Jonah_Exception&#45;&gt;\\Horde_Exception_Wrapped -->
<g id="edge5" class="edge"><title>\\Jonah_Exception&#45;&gt;\\Horde_Exception_Wrapped</title>
<path fill="none" stroke="black" d="M341.402,-1088.75C329.84,-1084.68 318.902,-1078.45 311.179,-1069 204.696,-938.645 350.3,-441.424 239.179,-315 234.833,-310.056 229.788,-305.916 224.277,-302.457"/>
<polygon fill="none" stroke="black" points="225.727,-299.262 215.269,-297.565 222.386,-305.413 225.727,-299.262"/>
</g>
<!-- \\Jonah_Application -->
<g id="node7" class="node"><title>\\Jonah_Application</title>
<polygon fill="none" stroke="black" points="466.179,-1060 335.179,-1060 335.179,-1024 466.179,-1024 466.179,-1060"/>
<text text-anchor="middle" x="400.679" y="-1039.2" font-family="Courier,monospace" font-size="11.00">Jonah_Application</text>
</g>
<!-- \\Horde_Registry_Application -->
<g id="node34" class="node"><title>\\Horde_Registry_Application</title>
<ellipse fill="none" stroke="black" cx="119.589" cy="-234" rx="115.08" ry="18"/>
<text text-anchor="middle" x="119.589" y="-230.3" font-family="Times,serif" font-size="14.00" fill="gray">\Horde_Registry_Application</text>
</g>
<!-- \\Jonah_Application&#45;&gt;\\Horde_Registry_Application -->
<g id="edge6" class="edge"><title>\\Jonah_Application&#45;&gt;\\Horde_Registry_Application</title>
<path fill="none" stroke="black" d="M335.092,-1032.27C325.919,-1028.27 317.479,-1022.71 311.179,-1015 204.696,-884.645 350.3,-387.424 239.179,-261 235.071,-256.326 230.337,-252.371 225.176,-249.03"/>
<polygon fill="none" stroke="black" points="226.56,-245.794 216.123,-243.97 223.145,-251.904 226.56,-245.794"/>
</g>
<!-- \\Jonah_View_ChannelDelete -->
<g id="node8" class="node"><title>\\Jonah_View_ChannelDelete</title>
<polygon fill="none" stroke="black" points="490.179,-1924 311.179,-1924 311.179,-1888 490.179,-1888 490.179,-1924"/>
<text text-anchor="middle" x="400.679" y="-1903.2" font-family="Courier,monospace" font-size="11.00">Jonah_View_ChannelDelete</text>
</g>
<!-- \\Jonah_View_Base -->
<g id="node18" class="node"><title>\\Jonah_View_Base</title>
<polygon fill="none" stroke="black" points="178.589,-1654 60.5894,-1654 60.5894,-1618 178.589,-1618 178.589,-1654"/>
<text text-anchor="start" x="85.5894" y="-1639.2" font-family="Courier,monospace" font-size="11.00">«abstract»</text>
<text text-anchor="start" x="68.5894" y="-1627.2" font-family="Courier,monospace" font-size="11.00">Jonah_View_Base</text>
</g>
<!-- \\Jonah_View_ChannelDelete&#45;&gt;\\Jonah_View_Base -->
<g id="edge7" class="edge"><title>\\Jonah_View_ChannelDelete&#45;&gt;\\Jonah_View_Base</title>
<path fill="none" stroke="black" d="M326.954,-1887.91C321.415,-1885.31 316.081,-1882.36 311.179,-1879 226.217,-1820.76 161.438,-1713.08 134.399,-1662.96"/>
<polygon fill="none" stroke="black" points="137.429,-1661.21 129.646,-1654.02 131.248,-1664.49 137.429,-1661.21"/>
</g>
<!-- \\Jonah_View_StoryPdf -->
<g id="node9" class="node"><title>\\Jonah_View_StoryPdf</title>
<polygon fill="none" stroke="black" points="473.179,-1006 328.179,-1006 328.179,-970 473.179,-970 473.179,-1006"/>
<text text-anchor="middle" x="400.679" y="-985.2" font-family="Courier,monospace" font-size="11.00">Jonah_View_StoryPdf</text>
</g>
<!-- \\Jonah_View -->
<g id="node35" class="node"><title>\\Jonah_View</title>
<ellipse fill="none" stroke="black" cx="119.589" cy="-180" rx="57.3905" ry="18"/>
<text text-anchor="middle" x="119.589" y="-176.3" font-family="Times,serif" font-size="14.00" fill="gray">\Jonah_View</text>
</g>
<!-- \\Jonah_View_StoryPdf&#45;&gt;\\Jonah_View -->
<g id="edge8" class="edge"><title>\\Jonah_View_StoryPdf&#45;&gt;\\Jonah_View</title>
<path fill="none" stroke="black" d="M328.161,-974.855C321.706,-971.261 315.853,-966.723 311.179,-961 204.696,-830.645 350.3,-333.424 239.179,-207 226.002,-192.009 206.388,-184.407 186.888,-180.782"/>
<polygon fill="none" stroke="black" points="187.149,-177.281 176.735,-179.23 186.091,-184.201 187.149,-177.281"/>
</g>
<!-- \\Jonah_View_StoryEdit -->
<g id="node10" class="node"><title>\\Jonah_View_StoryEdit</title>
<polygon fill="none" stroke="black" points="476.679,-1870 324.679,-1870 324.679,-1834 476.679,-1834 476.679,-1870"/>
<text text-anchor="middle" x="400.679" y="-1849.2" font-family="Courier,monospace" font-size="11.00">Jonah_View_StoryEdit</text>
</g>
<!-- \\Jonah_View_StoryEdit&#45;&gt;\\Jonah_View_Base -->
<g id="edge9" class="edge"><title>\\Jonah_View_StoryEdit&#45;&gt;\\Jonah_View_Base</title>
<path fill="none" stroke="black" d="M328.765,-1833.81C322.647,-1831.22 316.694,-1828.3 311.179,-1825 237.797,-1781.15 171.715,-1703.09 140.153,-1662.37"/>
<polygon fill="none" stroke="black" points="142.811,-1660.08 133.952,-1654.27 137.254,-1664.34 142.811,-1660.08"/>
</g>
<!-- \\Jonah_View_ChannelEdit -->
<g id="node11" class="node"><title>\\Jonah_View_ChannelEdit</title>
<polygon fill="none" stroke="black" points="483.179,-1762 318.179,-1762 318.179,-1726 483.179,-1726 483.179,-1762"/>
<text text-anchor="middle" x="400.679" y="-1741.2" font-family="Courier,monospace" font-size="11.00">Jonah_View_ChannelEdit</text>
</g>
<!-- \\Jonah_View_ChannelEdit&#45;&gt;\\Jonah_View_Base -->
<g id="edge10" class="edge"><title>\\Jonah_View_ChannelEdit&#45;&gt;\\Jonah_View_Base</title>
<path fill="none" stroke="black" d="M337.509,-1725.94C328.622,-1723.1 319.632,-1720.08 311.179,-1717 262.124,-1699.15 207.405,-1675.49 169.227,-1658.36"/>
<polygon fill="none" stroke="black" points="170.445,-1655.07 159.89,-1654.15 167.569,-1661.45 170.445,-1655.07"/>
</g>
<!-- \\Jonah_View_StoryList -->
<g id="node12" class="node"><title>\\Jonah_View_StoryList</title>
<polygon fill="none" stroke="black" points="476.679,-1708 324.679,-1708 324.679,-1672 476.679,-1672 476.679,-1708"/>
<text text-anchor="middle" x="400.679" y="-1687.2" font-family="Courier,monospace" font-size="11.00">Jonah_View_StoryList</text>
</g>
<!-- \\Jonah_View_StoryList&#45;&gt;\\Jonah_View_Base -->
<g id="edge11" class="edge"><title>\\Jonah_View_StoryList&#45;&gt;\\Jonah_View_Base</title>
<path fill="none" stroke="black" d="M324.521,-1675.46C282.162,-1667.26 229.665,-1657.1 188.543,-1649.15"/>
<polygon fill="none" stroke="black" points="189.098,-1645.69 178.615,-1647.23 187.768,-1652.56 189.098,-1645.69"/>
</g>
<!-- \\Jonah_View_DeliveryHtml -->
<g id="node13" class="node"><title>\\Jonah_View_DeliveryHtml</title>
<polygon fill="none" stroke="black" points="486.679,-1654 314.679,-1654 314.679,-1618 486.679,-1618 486.679,-1654"/>
<text text-anchor="middle" x="400.679" y="-1633.2" font-family="Courier,monospace" font-size="11.00">Jonah_View_DeliveryHtml</text>
</g>
<!-- \\Jonah_View_DeliveryHtml&#45;&gt;\\Jonah_View_Base -->
<g id="edge12" class="edge"><title>\\Jonah_View_DeliveryHtml&#45;&gt;\\Jonah_View_Base</title>
<path fill="none" stroke="black" d="M314.426,-1636C274.278,-1636 227.026,-1636 189.227,-1636"/>
<polygon fill="none" stroke="black" points="188.83,-1632.5 178.83,-1636 188.83,-1639.5 188.83,-1632.5"/>
</g>
<!-- \\Jonah_View_StoryDelete -->
<g id="node14" class="node"><title>\\Jonah_View_StoryDelete</title>
<polygon fill="none" stroke="black" points="483.179,-1600 318.179,-1600 318.179,-1564 483.179,-1564 483.179,-1600"/>
<text text-anchor="middle" x="400.679" y="-1579.2" font-family="Courier,monospace" font-size="11.00">Jonah_View_StoryDelete</text>
</g>
<!-- \\Jonah_View_StoryDelete&#45;&gt;\\Jonah_View_Base -->
<g id="edge13" class="edge"><title>\\Jonah_View_StoryDelete&#45;&gt;\\Jonah_View_Base</title>
<path fill="none" stroke="black" d="M317.829,-1597.84C276.93,-1605.75 228.006,-1615.22 189.116,-1622.74"/>
<polygon fill="none" stroke="black" points="188.097,-1619.37 178.944,-1624.71 189.426,-1626.25 188.097,-1619.37"/>
</g>
<!-- \\Jonah_View_TagSearchList -->
<g id="node15" class="node"><title>\\Jonah_View_TagSearchList</title>
<polygon fill="none" stroke="black" points="490.179,-1546 311.179,-1546 311.179,-1510 490.179,-1510 490.179,-1546"/>
<text text-anchor="middle" x="400.679" y="-1525.2" font-family="Courier,monospace" font-size="11.00">Jonah_View_TagSearchList</text>
</g>
<!-- \\Jonah_View_TagSearchList&#45;&gt;\\Jonah_View_Base -->
<g id="edge14" class="edge"><title>\\Jonah_View_TagSearchList&#45;&gt;\\Jonah_View_Base</title>
<path fill="none" stroke="black" d="M337.509,-1546.06C328.622,-1548.9 319.632,-1551.92 311.179,-1555 262.124,-1572.85 207.405,-1596.51 169.227,-1613.64"/>
<polygon fill="none" stroke="black" points="167.569,-1610.55 159.89,-1617.85 170.445,-1616.93 167.569,-1610.55"/>
</g>
<!-- \\Jonah_View_ChannelList -->
<g id="node16" class="node"><title>\\Jonah_View_ChannelList</title>
<polygon fill="none" stroke="black" points="483.179,-1492 318.179,-1492 318.179,-1456 483.179,-1456 483.179,-1492"/>
<text text-anchor="middle" x="400.679" y="-1471.2" font-family="Courier,monospace" font-size="11.00">Jonah_View_ChannelList</text>
</g>
<!-- \\Jonah_View_ChannelList&#45;&gt;\\Jonah_View_Base -->
<g id="edge15" class="edge"><title>\\Jonah_View_ChannelList&#45;&gt;\\Jonah_View_Base</title>
<path fill="none" stroke="black" d="M332.116,-1492.13C324.92,-1494.79 317.812,-1497.74 311.179,-1501 249.171,-1531.43 185.298,-1581.14 149.496,-1610.99"/>
<polygon fill="none" stroke="black" points="146.84,-1608.65 141.443,-1617.77 151.347,-1614.01 146.84,-1608.65"/>
</g>
<!-- \\Jonah_View_StoryView -->
<g id="node17" class="node"><title>\\Jonah_View_StoryView</title>
<polygon fill="none" stroke="black" points="476.679,-1438 324.679,-1438 324.679,-1402 476.679,-1402 476.679,-1438"/>
<text text-anchor="middle" x="400.679" y="-1417.2" font-family="Courier,monospace" font-size="11.00">Jonah_View_StoryView</text>
</g>
<!-- \\Jonah_View_StoryView&#45;&gt;\\Jonah_View_Base -->
<g id="edge16" class="edge"><title>\\Jonah_View_StoryView&#45;&gt;\\Jonah_View_Base</title>
<path fill="none" stroke="black" d="M328.765,-1438.19C322.647,-1440.78 316.694,-1443.7 311.179,-1447 237.797,-1490.85 171.715,-1568.91 140.153,-1609.63"/>
<polygon fill="none" stroke="black" points="137.254,-1607.66 133.952,-1617.73 142.811,-1611.92 137.254,-1607.66"/>
</g>
<!-- \\Jonah_Driver_Sql -->
<g id="node19" class="node"><title>\\Jonah_Driver_Sql</title>
<polygon fill="none" stroke="black" points="463.179,-1384 338.179,-1384 338.179,-1348 463.179,-1348 463.179,-1384"/>
<text text-anchor="middle" x="400.679" y="-1363.2" font-family="Courier,monospace" font-size="11.00">Jonah_Driver_Sql</text>
</g>
<!-- \\Jonah_Driver -->
<g id="node20" class="node"><title>\\Jonah_Driver</title>
<polygon fill="none" stroke="black" points="168.589,-1384 70.5894,-1384 70.5894,-1348 168.589,-1348 168.589,-1384"/>
<text text-anchor="middle" x="119.589" y="-1363.2" font-family="Courier,monospace" font-size="11.00">Jonah_Driver</text>
</g>
<!-- \\Jonah_Driver_Sql&#45;&gt;\\Jonah_Driver -->
<g id="edge17" class="edge"><title>\\Jonah_Driver_Sql&#45;&gt;\\Jonah_Driver</title>
<path fill="none" stroke="black" d="M338.086,-1366C290.628,-1366 225.46,-1366 178.857,-1366"/>
<polygon fill="none" stroke="black" points="178.617,-1362.5 168.617,-1366 178.617,-1369.5 178.617,-1362.5"/>
</g>
<!-- \\Jonah_Tagger -->
<g id="node21" class="node"><title>\\Jonah_Tagger</title>
<polygon fill="none" stroke="black" points="449.679,-952 351.679,-952 351.679,-916 449.679,-916 449.679,-952"/>
<text text-anchor="middle" x="400.679" y="-931.2" font-family="Courier,monospace" font-size="11.00">Jonah_Tagger</text>
</g>
<!-- \\Horde_Core_Tagger -->
<g id="node36" class="node"><title>\\Horde_Core_Tagger</title>
<ellipse fill="none" stroke="black" cx="119.589" cy="-126" rx="85.5853" ry="18"/>
<text text-anchor="middle" x="119.589" y="-122.3" font-family="Times,serif" font-size="14.00" fill="gray">\Horde_Core_Tagger</text>
</g>
<!-- \\Jonah_Tagger&#45;&gt;\\Horde_Core_Tagger -->
<g id="edge18" class="edge"><title>\\Jonah_Tagger&#45;&gt;\\Horde_Core_Tagger</title>
<path fill="none" stroke="black" d="M351.538,-929.773C336.441,-926.006 321.138,-919.192 311.179,-907 204.696,-776.645 350.3,-279.424 239.179,-153 231.814,-144.622 222.44,-138.551 212.197,-134.193"/>
<polygon fill="none" stroke="black" points="213.174,-130.823 202.58,-130.656 210.757,-137.393 213.174,-130.823"/>
</g>
<!-- \\Jonah_Factory_Driver -->
<g id="node22" class="node"><title>\\Jonah_Factory_Driver</title>
<polygon fill="none" stroke="black" points="476.679,-898 324.679,-898 324.679,-862 476.679,-862 476.679,-898"/>
<text text-anchor="middle" x="400.679" y="-877.2" font-family="Courier,monospace" font-size="11.00">Jonah_Factory_Driver</text>
</g>
<!-- \\Horde_Core_Factory_Injector -->
<g id="node37" class="node"><title>\\Horde_Core_Factory_Injector</title>
<ellipse fill="none" stroke="black" cx="119.589" cy="-72" rx="119.679" ry="18"/>
<text text-anchor="middle" x="119.589" y="-68.3" font-family="Times,serif" font-size="14.00" fill="gray">\Horde_Core_Factory_Injector</text>
</g>
<!-- \\Jonah_Factory_Driver&#45;&gt;\\Horde_Core_Factory_Injector -->
<g id="edge19" class="edge"><title>\\Jonah_Factory_Driver&#45;&gt;\\Horde_Core_Factory_Injector</title>
<path fill="none" stroke="black" d="M324.446,-864.635C319.461,-861.44 314.939,-857.603 311.179,-853 204.696,-722.645 350.3,-225.424 239.179,-99 235.345,-94.6386 230.967,-90.9026 226.205,-87.7081"/>
<polygon fill="none" stroke="black" points="227.662,-84.5072 217.254,-82.5244 224.154,-90.5647 227.662,-84.5072"/>
</g>
<!-- \\Jonah -->
<g id="node23" class="node"><title>\\Jonah</title>
<polygon fill="none" stroke="black" points="427.679,-844 373.679,-844 373.679,-808 427.679,-808 427.679,-844"/>
<text text-anchor="middle" x="400.679" y="-823.2" font-family="Courier,monospace" font-size="11.00">Jonah</text>
</g>
<!-- \\Jonah_Block_Cloud -->
<g id="node24" class="node"><title>\\Jonah_Block_Cloud</title>
<polygon fill="none" stroke="black" points="466.179,-628 335.179,-628 335.179,-592 466.179,-592 466.179,-628"/>
<text text-anchor="middle" x="400.679" y="-607.2" font-family="Courier,monospace" font-size="11.00">Jonah_Block_Cloud</text>
</g>
<!-- \\Horde_Core_Block -->
<g id="node38" class="node"><title>\\Horde_Core_Block</title>
<ellipse fill="none" stroke="black" cx="119.589" cy="-18" rx="81.7856" ry="18"/>
<text text-anchor="middle" x="119.589" y="-14.3" font-family="Times,serif" font-size="14.00" fill="gray">\Horde_Core_Block</text>
</g>
<!-- \\Jonah_Block_Cloud&#45;&gt;\\Horde_Core_Block -->
<g id="edge20" class="edge"><title>\\Jonah_Block_Cloud&#45;&gt;\\Horde_Core_Block</title>
<path fill="none" stroke="black" d="M334.897,-599.871C325.864,-595.913 317.52,-590.47 311.179,-583 155.055,-399.089 401.844,-223.152 239.179,-45 231.003,-36.0461 220.529,-29.7506 209.198,-25.3713"/>
<polygon fill="none" stroke="black" points="210.105,-21.9839 199.511,-22.1272 207.882,-28.6216 210.105,-21.9839"/>
</g>
<!-- \\Jonah_Block_Delivery -->
<g id="node25" class="node"><title>\\Jonah_Block_Delivery</title>
<polygon fill="none" stroke="black" points="476.679,-574 324.679,-574 324.679,-538 476.679,-538 476.679,-574"/>
<text text-anchor="middle" x="400.679" y="-553.2" font-family="Courier,monospace" font-size="11.00">Jonah_Block_Delivery</text>
</g>
<!-- \\Jonah_Block_Delivery&#45;&gt;\\Horde_Core_Block -->
<g id="edge21" class="edge"><title>\\Jonah_Block_Delivery&#45;&gt;\\Horde_Core_Block</title>
<path fill="none" stroke="black" d="M324.3,-540.158C319.417,-537.064 314.953,-533.381 311.179,-529 169.225,-364.24 386.991,-204.525 239.179,-45 230.938,-36.1062 220.428,-29.8438 209.08,-25.4798"/>
<polygon fill="none" stroke="black" points="209.977,-22.0893 199.383,-22.2444 207.761,-28.7295 209.977,-22.0893"/>
</g>
<!-- \\Jonah_Block_NewsPopular -->
<g id="node26" class="node"><title>\\Jonah_Block_NewsPopular</title>
<polygon fill="none" stroke="black" points="486.679,-520 314.679,-520 314.679,-484 486.679,-484 486.679,-520"/>
<text text-anchor="middle" x="400.679" y="-499.2" font-family="Courier,monospace" font-size="11.00">Jonah_Block_NewsPopular</text>
</g>
<!-- \\Jonah_Block_NewsPopular&#45;&gt;\\Horde_Core_Block -->
<g id="edge22" class="edge"><title>\\Jonah_Block_NewsPopular&#45;&gt;\\Horde_Core_Block</title>
<path fill="none" stroke="black" d="M399.202,-483.803C396.36,-414.883 376.599,-167.598 239.179,-45 230.07,-36.8734 219.027,-31.0403 207.388,-26.8792"/>
<polygon fill="none" stroke="black" points="208.091,-23.4309 197.501,-23.7635 205.987,-30.1073 208.091,-23.4309"/>
</g>
<!-- \\Jonah_Block_News -->
<g id="node27" class="node"><title>\\Jonah_Block_News</title>
<polygon fill="none" stroke="black" points="463.179,-790 338.179,-790 338.179,-754 463.179,-754 463.179,-790"/>
<text text-anchor="middle" x="400.679" y="-769.2" font-family="Courier,monospace" font-size="11.00">Jonah_Block_News</text>
</g>
<!-- \\Jonah_Block_News&#45;&gt;\\Horde_Core_Block -->
<g id="edge23" class="edge"><title>\\Jonah_Block_News&#45;&gt;\\Horde_Core_Block</title>
<path fill="none" stroke="black" d="M337.825,-763.349C327.618,-759.293 318.12,-753.434 311.179,-745 112.441,-503.51 446.51,-279.154 239.179,-45 231.141,-35.9223 220.742,-29.5585 209.447,-25.1479"/>
<polygon fill="none" stroke="black" points="210.374,-21.7668 199.779,-21.8856 208.135,-28.3993 210.374,-21.7668"/>
</g>
<!-- \\Jonah_Block_Story -->
<g id="node28" class="node"><title>\\Jonah_Block_Story</title>
<polygon fill="none" stroke="black" points="466.179,-736 335.179,-736 335.179,-700 466.179,-700 466.179,-736"/>
<text text-anchor="middle" x="400.679" y="-715.2" font-family="Courier,monospace" font-size="11.00">Jonah_Block_Story</text>
</g>
<!-- \\Jonah_Block_Story&#45;&gt;\\Horde_Core_Block -->
<g id="edge24" class="edge"><title>\\Jonah_Block_Story&#45;&gt;\\Horde_Core_Block</title>
<path fill="none" stroke="black" d="M334.753,-707.992C325.738,-704.019 317.438,-698.54 311.179,-691 126.658,-468.719 431.607,-260.472 239.179,-45 231.102,-35.9566 220.683,-29.6116 209.377,-25.2097"/>
<polygon fill="none" stroke="black" points="210.298,-21.8268 199.704,-21.9524 208.064,-28.4608 210.298,-21.8268"/>
</g>
<!-- \\Jonah_Block_Latest -->
<g id="node29" class="node"><title>\\Jonah_Block_Latest</title>
<polygon fill="none" stroke="black" points="469.679,-682 331.679,-682 331.679,-646 469.679,-646 469.679,-682"/>
<text text-anchor="middle" x="400.679" y="-661.2" font-family="Courier,monospace" font-size="11.00">Jonah_Block_Latest</text>
</g>
<!-- \\Jonah_Block_Latest&#45;&gt;\\Horde_Core_Block -->
<g id="edge25" class="edge"><title>\\Jonah_Block_Latest&#45;&gt;\\Horde_Core_Block</title>
<path fill="none" stroke="black" d="M331.308,-652.298C323.648,-648.503 316.65,-643.523 311.179,-637 140.864,-433.913 416.718,-241.803 239.179,-45 231.057,-35.9972 220.613,-29.6747 209.296,-25.283"/>
<polygon fill="none" stroke="black" points="210.21,-21.898 199.616,-22.0317 207.981,-28.5337 210.21,-21.898"/>
</g>
</g>
</svg>
