<?xml version="1.0" encoding="UTF-8" standalone="no"?>
<!DOCTYPE svg PUBLIC "-//W3C//DTD SVG 1.1//EN"
 "http://www.w3.org/Graphics/SVG/1.1/DTD/svg11.dtd">
<!-- Generated by graphviz version 2.38.0 (20140413.2041)
 -->
<!-- Title: G Pages: 1 -->
<svg width="566pt" height="942pt"
 viewBox="0.00 0.00 566.38 942.00" xmlns="http://www.w3.org/2000/svg" xmlns:xlink="http://www.w3.org/1999/xlink">
<g id="graph0" class="graph" transform="scale(1 1) rotate(0) translate(4 938)">
<title>G</title>
<polygon fill="white" stroke="none" points="-4,4 -4,-938 562.378,-938 562.378,4 -4,4"/>
<g id="clust1" class="cluster"><title>cluster_Global</title>
<path fill="none" stroke="gray" d="M30.1892,-98C30.1892,-98 538.378,-98 538.378,-98 544.378,-98 550.378,-104 550.378,-110 550.378,-110 550.378,-914 550.378,-914 550.378,-920 544.378,-926 538.378,-926 538.378,-926 30.1892,-926 30.1892,-926 24.1892,-926 18.1892,-920 18.1892,-914 18.1892,-914 18.1892,-110 18.1892,-110 18.1892,-104 24.1892,-98 30.1892,-98"/>
<text text-anchor="middle" x="284.284" y="-913.2" font-family="Times,serif" font-size="11.00" fill="gray">Global</text>
</g>
<!-- \\Horde_Compress -->
<g id="node1" class="node"><title>\\Horde_Compress</title>
<polygon fill="none" stroke="black" points="484.878,-898 373.878,-898 373.878,-862 484.878,-862 484.878,-898"/>
<text text-anchor="middle" x="429.378" y="-877.2" font-family="Courier,monospace" font-size="11.00">Horde_Compress</text>
</g>
<!-- \\Horde_Compress_Tnef -->
<g id="node2" class="node"><title>\\Horde_Compress_Tnef</title>
<polygon fill="none" stroke="black" points="501.878,-844 356.878,-844 356.878,-808 501.878,-808 501.878,-844"/>
<text text-anchor="middle" x="429.378" y="-823.2" font-family="Courier,monospace" font-size="11.00">Horde_Compress_Tnef</text>
</g>
<!-- \\Horde_Compress_Base -->
<g id="node16" class="node"><title>\\Horde_Compress_Base</title>
<polygon fill="none" stroke="black" points="194.689,-709 49.6892,-709 49.6892,-673 194.689,-673 194.689,-709"/>
<text text-anchor="middle" x="122.189" y="-688.2" font-family="Courier,monospace" font-size="11.00">Horde_Compress_Base</text>
</g>
<!-- \\Horde_Compress_Tnef&#45;&gt;\\Horde_Compress_Base -->
<g id="edge1" class="edge"><title>\\Horde_Compress_Tnef&#45;&gt;\\Horde_Compress_Base</title>
<path fill="none" stroke="black" d="M356.676,-811.803C343.086,-808.25 329.136,-803.995 316.378,-799 258.244,-776.24 196.085,-738.868 158.426,-714.598"/>
<polygon fill="none" stroke="black" points="160.148,-711.543 149.856,-709.028 156.333,-717.413 160.148,-711.543"/>
</g>
<!-- \\Horde_Compress_Exception -->
<g id="node3" class="node"><title>\\Horde_Compress_Exception</title>
<polygon fill="none" stroke="black" points="518.878,-196 339.878,-196 339.878,-160 518.878,-160 518.878,-196"/>
<text text-anchor="middle" x="429.378" y="-175.2" font-family="Courier,monospace" font-size="11.00">Horde_Compress_Exception</text>
</g>
<!-- \\Horde_Exception_Wrapped -->
<g id="node18" class="node"><title>\\Horde_Exception_Wrapped</title>
<ellipse fill="none" stroke="black" cx="122.189" cy="-72" rx="112.38" ry="18"/>
<text text-anchor="middle" x="122.189" y="-68.3" font-family="Times,serif" font-size="14.00" fill="gray">\Horde_Exception_Wrapped</text>
</g>
<!-- \\Horde_Compress_Exception&#45;&gt;\\Horde_Exception_Wrapped -->
<g id="edge2" class="edge"><title>\\Horde_Compress_Exception&#45;&gt;\\Horde_Exception_Wrapped</title>
<path fill="none" stroke="black" d="M339.678,-160.452C331.636,-157.722 323.751,-154.59 316.378,-151 279.683,-133.134 281.568,-110.814 244.378,-94 237.254,-90.7791 229.693,-88.0295 221.965,-85.6822"/>
<polygon fill="none" stroke="black" points="222.681,-82.248 212.107,-82.919 220.791,-88.9882 222.681,-82.248"/>
</g>
<!-- \\Horde_Compress_Gzip -->
<g id="node4" class="node"><title>\\Horde_Compress_Gzip</title>
<polygon fill="none" stroke="black" points="501.878,-790 356.878,-790 356.878,-754 501.878,-754 501.878,-790"/>
<text text-anchor="middle" x="429.378" y="-769.2" font-family="Courier,monospace" font-size="11.00">Horde_Compress_Gzip</text>
</g>
<!-- \\Horde_Compress_Gzip&#45;&gt;\\Horde_Compress_Base -->
<g id="edge3" class="edge"><title>\\Horde_Compress_Gzip&#45;&gt;\\Horde_Compress_Base</title>
<path fill="none" stroke="black" d="M356.584,-755.098C343.2,-751.832 329.347,-748.375 316.378,-745 276.33,-734.579 231.836,-722.198 195.653,-711.921"/>
<polygon fill="none" stroke="black" points="196.255,-708.453 185.678,-709.082 194.338,-715.186 196.255,-708.453"/>
</g>
<!-- \\Horde_Compress_Dbx -->
<g id="node5" class="node"><title>\\Horde_Compress_Dbx</title>
<polygon fill="none" stroke="black" points="498.378,-736 360.378,-736 360.378,-700 498.378,-700 498.378,-736"/>
<text text-anchor="middle" x="429.378" y="-715.2" font-family="Courier,monospace" font-size="11.00">Horde_Compress_Dbx</text>
</g>
<!-- \\Horde_Compress_Dbx&#45;&gt;\\Horde_Compress_Base -->
<g id="edge4" class="edge"><title>\\Horde_Compress_Dbx&#45;&gt;\\Horde_Compress_Base</title>
<path fill="none" stroke="black" d="M360.268,-711.974C314.345,-707.911 253.515,-702.53 204.971,-698.235"/>
<polygon fill="none" stroke="black" points="205.078,-694.731 194.809,-697.336 204.461,-701.704 205.078,-694.731"/>
</g>
<!-- \\Horde_Compress_Zip -->
<g id="node6" class="node"><title>\\Horde_Compress_Zip</title>
<polygon fill="none" stroke="black" points="498.378,-682 360.378,-682 360.378,-646 498.378,-646 498.378,-682"/>
<text text-anchor="middle" x="429.378" y="-661.2" font-family="Courier,monospace" font-size="11.00">Horde_Compress_Zip</text>
</g>
<!-- \\Horde_Compress_Zip&#45;&gt;\\Horde_Compress_Base -->
<g id="edge5" class="edge"><title>\\Horde_Compress_Zip&#45;&gt;\\Horde_Compress_Base</title>
<path fill="none" stroke="black" d="M360.268,-670.026C314.345,-674.089 253.515,-679.47 204.971,-683.765"/>
<polygon fill="none" stroke="black" points="204.461,-680.296 194.809,-684.664 205.078,-687.269 204.461,-680.296"/>
</g>
<!-- \\Horde_Compress_Tar -->
<g id="node7" class="node"><title>\\Horde_Compress_Tar</title>
<polygon fill="none" stroke="black" points="498.378,-628 360.378,-628 360.378,-592 498.378,-592 498.378,-628"/>
<text text-anchor="middle" x="429.378" y="-607.2" font-family="Courier,monospace" font-size="11.00">Horde_Compress_Tar</text>
</g>
<!-- \\Horde_Compress_Tar&#45;&gt;\\Horde_Compress_Base -->
<g id="edge6" class="edge"><title>\\Horde_Compress_Tar&#45;&gt;\\Horde_Compress_Base</title>
<path fill="none" stroke="black" d="M360.168,-626.029C345.688,-629.548 330.509,-633.323 316.378,-637 276.33,-647.421 231.836,-659.802 195.653,-670.079"/>
<polygon fill="none" stroke="black" points="194.338,-666.814 185.678,-672.918 196.255,-673.547 194.338,-666.814"/>
</g>
<!-- \\Horde_Compress_Rar -->
<g id="node8" class="node"><title>\\Horde_Compress_Rar</title>
<polygon fill="none" stroke="black" points="498.378,-574 360.378,-574 360.378,-538 498.378,-538 498.378,-574"/>
<text text-anchor="middle" x="429.378" y="-553.2" font-family="Courier,monospace" font-size="11.00">Horde_Compress_Rar</text>
</g>
<!-- \\Horde_Compress_Rar&#45;&gt;\\Horde_Compress_Base -->
<g id="edge7" class="edge"><title>\\Horde_Compress_Rar&#45;&gt;\\Horde_Compress_Base</title>
<path fill="none" stroke="black" d="M360.238,-569.279C345.539,-573.011 330.254,-577.568 316.378,-583 258.244,-605.76 196.085,-643.132 158.426,-667.402"/>
<polygon fill="none" stroke="black" points="156.333,-664.587 149.856,-672.972 160.148,-670.457 156.333,-664.587"/>
</g>
<!-- \\Horde_Compress_Tnef_Date -->
<g id="node9" class="node"><title>\\Horde_Compress_Tnef_Date</title>
<polygon fill="none" stroke="black" points="518.878,-520 339.878,-520 339.878,-484 518.878,-484 518.878,-520"/>
<text text-anchor="middle" x="429.378" y="-499.2" font-family="Courier,monospace" font-size="11.00">Horde_Compress_Tnef_Date</text>
</g>
<!-- \\Horde_Compress_Tnef_Object -->
<g id="node12" class="node"><title>\\Horde_Compress_Tnef_Object</title>
<polygon fill="none" stroke="black" points="218.189,-385 26.1892,-385 26.1892,-349 218.189,-349 218.189,-385"/>
<text text-anchor="middle" x="122.189" y="-364.2" font-family="Courier,monospace" font-size="11.00">Horde_Compress_Tnef_Object</text>
</g>
<!-- \\Horde_Compress_Tnef_Date&#45;&gt;\\Horde_Compress_Tnef_Object -->
<g id="edge8" class="edge"><title>\\Horde_Compress_Tnef_Date&#45;&gt;\\Horde_Compress_Tnef_Object</title>
<path fill="none" stroke="black" d="M342.924,-483.985C333.853,-481.309 324.853,-478.318 316.378,-475 258.244,-452.24 196.085,-414.868 158.426,-390.598"/>
<polygon fill="none" stroke="black" points="160.148,-387.543 149.856,-385.028 156.333,-393.413 160.148,-387.543"/>
</g>
<!-- \\Horde_Compress_Tnef_Rtf -->
<g id="node10" class="node"><title>\\Horde_Compress_Tnef_Rtf</title>
<polygon fill="none" stroke="black" points="515.378,-466 343.378,-466 343.378,-430 515.378,-430 515.378,-466"/>
<text text-anchor="middle" x="429.378" y="-445.2" font-family="Courier,monospace" font-size="11.00">Horde_Compress_Tnef_Rtf</text>
</g>
<!-- \\Horde_Compress_Tnef_Rtf&#45;&gt;\\Horde_Compress_Tnef_Object -->
<g id="edge9" class="edge"><title>\\Horde_Compress_Tnef_Rtf&#45;&gt;\\Horde_Compress_Tnef_Object</title>
<path fill="none" stroke="black" d="M352.074,-429.995C340.109,-427.059 327.896,-423.997 316.378,-421 276.33,-410.579 231.836,-398.198 195.653,-387.921"/>
<polygon fill="none" stroke="black" points="196.255,-384.453 185.678,-385.082 194.338,-391.186 196.255,-384.453"/>
</g>
<!-- \\Horde_Compress_Tnef_MessageData -->
<g id="node11" class="node"><title>\\Horde_Compress_Tnef_MessageData</title>
<polygon fill="none" stroke="black" points="542.378,-412 316.378,-412 316.378,-376 542.378,-376 542.378,-412"/>
<text text-anchor="middle" x="429.378" y="-391.2" font-family="Courier,monospace" font-size="11.00">Horde_Compress_Tnef_MessageData</text>
</g>
<!-- \\Horde_Compress_Tnef_MessageData&#45;&gt;\\Horde_Compress_Tnef_Object -->
<g id="edge10" class="edge"><title>\\Horde_Compress_Tnef_MessageData&#45;&gt;\\Horde_Compress_Tnef_Object</title>
<path fill="none" stroke="black" d="M316.037,-384.061C287.428,-381.53 256.786,-378.819 228.54,-376.32"/>
<polygon fill="none" stroke="black" points="228.52,-372.805 218.25,-375.41 227.903,-379.778 228.52,-372.805"/>
</g>
<!-- \\Horde_Compress_Tnef_Icalendar -->
<g id="node13" class="node"><title>\\Horde_Compress_Tnef_Icalendar</title>
<polygon fill="none" stroke="black" points="535.378,-358 323.378,-358 323.378,-322 535.378,-322 535.378,-358"/>
<text text-anchor="middle" x="429.378" y="-337.2" font-family="Courier,monospace" font-size="11.00">Horde_Compress_Tnef_Icalendar</text>
</g>
<!-- \\Horde_Compress_Tnef_Icalendar&#45;&gt;\\Horde_Compress_Tnef_Object -->
<g id="edge11" class="edge"><title>\\Horde_Compress_Tnef_Icalendar&#45;&gt;\\Horde_Compress_Tnef_Object</title>
<path fill="none" stroke="black" d="M323.35,-349.292C292.755,-351.999 259.325,-354.956 228.701,-357.665"/>
<polygon fill="none" stroke="black" points="228.083,-354.206 218.431,-358.574 228.7,-361.179 228.083,-354.206"/>
</g>
<!-- \\Horde_Compress_Tnef_VTodo -->
<g id="node14" class="node"><title>\\Horde_Compress_Tnef_VTodo</title>
<polygon fill="none" stroke="black" points="521.878,-304 336.878,-304 336.878,-268 521.878,-268 521.878,-304"/>
<text text-anchor="middle" x="429.378" y="-283.2" font-family="Courier,monospace" font-size="11.00">Horde_Compress_Tnef_VTodo</text>
</g>
<!-- \\Horde_Compress_Tnef_VTodo&#45;&gt;\\Horde_Compress_Tnef_Object -->
<g id="edge12" class="edge"><title>\\Horde_Compress_Tnef_VTodo&#45;&gt;\\Horde_Compress_Tnef_Object</title>
<path fill="none" stroke="black" d="M352.074,-304.005C340.109,-306.941 327.896,-310.003 316.378,-313 276.33,-323.421 231.836,-335.802 195.653,-346.079"/>
<polygon fill="none" stroke="black" points="194.338,-342.814 185.678,-348.918 196.255,-349.547 194.338,-342.814"/>
</g>
<!-- \\Horde_Compress_Tnef_File -->
<g id="node15" class="node"><title>\\Horde_Compress_Tnef_File</title>
<polygon fill="none" stroke="black" points="518.878,-250 339.878,-250 339.878,-214 518.878,-214 518.878,-250"/>
<text text-anchor="middle" x="429.378" y="-229.2" font-family="Courier,monospace" font-size="11.00">Horde_Compress_Tnef_File</text>
</g>
<!-- \\Horde_Compress_Tnef_File&#45;&gt;\\Horde_Compress_Tnef_Object -->
<g id="edge13" class="edge"><title>\\Horde_Compress_Tnef_File&#45;&gt;\\Horde_Compress_Tnef_Object</title>
<path fill="none" stroke="black" d="M342.924,-250.015C333.853,-252.691 324.853,-255.682 316.378,-259 258.244,-281.76 196.085,-319.132 158.426,-343.402"/>
<polygon fill="none" stroke="black" points="156.333,-340.587 149.856,-348.972 160.148,-346.457 156.333,-340.587"/>
</g>
<!-- \\Horde_Compress_Translation -->
<g id="node17" class="node"><title>\\Horde_Compress_Translation</title>
<polygon fill="none" stroke="black" points="525.378,-142 333.378,-142 333.378,-106 525.378,-106 525.378,-142"/>
<text text-anchor="middle" x="429.378" y="-121.2" font-family="Courier,monospace" font-size="11.00">Horde_Compress_Translation</text>
</g>
<!-- \\Horde_Translation_Autodetect -->
<g id="node19" class="node"><title>\\Horde_Translation_Autodetect</title>
<ellipse fill="none" stroke="black" cx="122.189" cy="-18" rx="122.379" ry="18"/>
<text text-anchor="middle" x="122.189" y="-14.3" font-family="Times,serif" font-size="14.00" fill="gray">\Horde_Translation_Autodetect</text>
</g>
<!-- \\Horde_Compress_Translation&#45;&gt;\\Horde_Translation_Autodetect -->
<g id="edge14" class="edge"><title>\\Horde_Compress_Translation&#45;&gt;\\Horde_Translation_Autodetect</title>
<path fill="none" stroke="black" d="M391.802,-105.886C355.219,-88.3481 296.978,-61.9874 244.378,-45 232.563,-41.1841 219.929,-37.7185 207.443,-34.6387"/>
<polygon fill="none" stroke="black" points="208.02,-31.178 197.48,-32.2522 206.389,-37.9854 208.02,-31.178"/>
</g>
</g>
</svg>
