<?xml version="1.0" encoding="UTF-8" standalone="no"?>
<!DOCTYPE svg PUBLIC "-//W3C//DTD SVG 1.1//EN"
 "http://www.w3.org/Graphics/SVG/1.1/DTD/svg11.dtd">
<!-- Generated by graphviz version 2.38.0 (20140413.2041)
 -->
<!-- Title: G Pages: 1 -->
<svg width="630pt" height="672pt"
 viewBox="0.00 0.00 630.28 672.00" xmlns="http://www.w3.org/2000/svg" xmlns:xlink="http://www.w3.org/1999/xlink">
<g id="graph0" class="graph" transform="scale(1 1) rotate(0) translate(4 668)">
<title>G</title>
<polygon fill="white" stroke="none" points="-4,4 -4,-668 626.277,-668 626.277,4 -4,4"/>
<g id="clust1" class="cluster"><title>cluster_Global</title>
<path fill="none" stroke="gray" d="M31.6384,-98C31.6384,-98 602.277,-98 602.277,-98 608.277,-98 614.277,-104 614.277,-110 614.277,-110 614.277,-644 614.277,-644 614.277,-650 608.277,-656 602.277,-656 602.277,-656 31.6384,-656 31.6384,-656 25.6384,-656 19.6384,-650 19.6384,-644 19.6384,-644 19.6384,-110 19.6384,-110 19.6384,-104 25.6384,-98 31.6384,-98"/>
<text text-anchor="middle" x="316.958" y="-643.2" font-family="Times,serif" font-size="11.00" fill="gray">Global</text>
</g>
<!-- \\Horde_SessionHandler_Storage -->
<g id="node1" class="node"><title>\\Horde_SessionHandler_Storage</title>
<polygon fill="none" stroke="black" points="233.638,-439 27.6384,-439 27.6384,-403 233.638,-403 233.638,-439"/>
<text text-anchor="start" x="96.6384" y="-424.2" font-family="Courier,monospace" font-size="11.00">«abstract»</text>
<text text-anchor="start" x="35.6384" y="-412.2" font-family="Courier,monospace" font-size="11.00">Horde_SessionHandler_Storage</text>
</g>
<!-- \\Horde_SessionHandler_Exception -->
<g id="node2" class="node"><title>\\Horde_SessionHandler_Exception</title>
<polygon fill="none" stroke="black" points="579.277,-196 360.277,-196 360.277,-160 579.277,-160 579.277,-196"/>
<text text-anchor="middle" x="469.777" y="-175.2" font-family="Courier,monospace" font-size="11.00">Horde_SessionHandler_Exception</text>
</g>
<!-- \\Horde_Exception_Wrapped -->
<g id="node12" class="node"><title>\\Horde_Exception_Wrapped</title>
<ellipse fill="none" stroke="black" cx="130.638" cy="-18" rx="112.38" ry="18"/>
<text text-anchor="middle" x="130.638" y="-14.3" font-family="Times,serif" font-size="14.00" fill="gray">\Horde_Exception_Wrapped</text>
</g>
<!-- \\Horde_SessionHandler_Exception&#45;&gt;\\Horde_Exception_Wrapped -->
<g id="edge1" class="edge"><title>\\Horde_SessionHandler_Exception&#45;&gt;\\Horde_Exception_Wrapped</title>
<path fill="none" stroke="black" d="M359.935,-164.354C350.521,-160.82 341.474,-156.434 333.277,-151 285.809,-119.532 308.608,-76.673 261.277,-45 252.894,-39.3904 243.576,-34.9105 233.891,-31.3379"/>
<polygon fill="none" stroke="black" points="234.698,-27.9171 224.104,-28.0595 232.475,-34.5546 234.698,-27.9171"/>
</g>
<!-- \\Horde_SessionHandler_Storage_Hashtable -->
<g id="node3" class="node"><title>\\Horde_SessionHandler_Storage_Hashtable</title>
<polygon fill="none" stroke="black" points="606.277,-520 333.277,-520 333.277,-484 606.277,-484 606.277,-520"/>
<text text-anchor="middle" x="469.777" y="-499.2" font-family="Courier,monospace" font-size="11.00">Horde_SessionHandler_Storage_Hashtable</text>
</g>
<!-- \\Horde_SessionHandler_Storage_Hashtable&#45;&gt;\\Horde_SessionHandler_Storage -->
<g id="edge2" class="edge"><title>\\Horde_SessionHandler_Storage_Hashtable&#45;&gt;\\Horde_SessionHandler_Storage</title>
<path fill="none" stroke="black" d="M374.21,-483.974C360.448,-481.114 346.475,-478.079 333.277,-475 290.512,-465.024 243.056,-452.394 204.93,-441.857"/>
<polygon fill="none" stroke="black" points="205.515,-438.387 194.943,-439.086 203.643,-445.132 205.515,-438.387"/>
</g>
<!-- \\Horde_SessionHandler_Storage_External -->
<g id="node4" class="node"><title>\\Horde_SessionHandler_Storage_External</title>
<polygon fill="none" stroke="black" points="602.777,-466 336.777,-466 336.777,-430 602.777,-430 602.777,-466"/>
<text text-anchor="middle" x="469.777" y="-445.2" font-family="Courier,monospace" font-size="11.00">Horde_SessionHandler_Storage_External</text>
</g>
<!-- \\Horde_SessionHandler_Storage_External&#45;&gt;\\Horde_SessionHandler_Storage -->
<g id="edge3" class="edge"><title>\\Horde_SessionHandler_Storage_External&#45;&gt;\\Horde_SessionHandler_Storage</title>
<path fill="none" stroke="black" d="M336.498,-437.406C305.97,-434.961 273.774,-432.383 244.179,-430.013"/>
<polygon fill="none" stroke="black" points="244.073,-426.493 233.826,-429.184 243.514,-433.471 244.073,-426.493"/>
</g>
<!-- \\Horde_SessionHandler_Storage_Builtin -->
<g id="node5" class="node"><title>\\Horde_SessionHandler_Storage_Builtin</title>
<polygon fill="none" stroke="black" points="599.777,-412 339.777,-412 339.777,-376 599.777,-376 599.777,-412"/>
<text text-anchor="middle" x="469.777" y="-391.2" font-family="Courier,monospace" font-size="11.00">Horde_SessionHandler_Storage_Builtin</text>
</g>
<!-- \\Horde_SessionHandler_Storage_Builtin&#45;&gt;\\Horde_SessionHandler_Storage -->
<g id="edge4" class="edge"><title>\\Horde_SessionHandler_Storage_Builtin&#45;&gt;\\Horde_SessionHandler_Storage</title>
<path fill="none" stroke="black" d="M339.394,-404.362C307.946,-406.88 274.572,-409.553 243.986,-412.003"/>
<polygon fill="none" stroke="black" points="243.416,-408.537 233.727,-412.824 243.975,-415.515 243.416,-408.537"/>
</g>
<!-- \\Horde_SessionHandler_Storage_Sql -->
<g id="node6" class="node"><title>\\Horde_SessionHandler_Storage_Sql</title>
<polygon fill="none" stroke="black" points="586.277,-358 353.277,-358 353.277,-322 586.277,-322 586.277,-358"/>
<text text-anchor="middle" x="469.777" y="-337.2" font-family="Courier,monospace" font-size="11.00">Horde_SessionHandler_Storage_Sql</text>
</g>
<!-- \\Horde_SessionHandler_Storage_Sql&#45;&gt;\\Horde_SessionHandler_Storage -->
<g id="edge5" class="edge"><title>\\Horde_SessionHandler_Storage_Sql&#45;&gt;\\Horde_SessionHandler_Storage</title>
<path fill="none" stroke="black" d="M374.21,-358.026C360.448,-360.886 346.475,-363.921 333.277,-367 290.512,-376.976 243.056,-389.606 204.93,-400.143"/>
<polygon fill="none" stroke="black" points="203.643,-396.868 194.943,-402.914 205.515,-403.613 203.643,-396.868"/>
</g>
<!-- \\Horde_SessionHandler_Storage_Mongo -->
<g id="node7" class="node"><title>\\Horde_SessionHandler_Storage_Mongo</title>
<polygon fill="none" stroke="black" points="592.777,-250 346.777,-250 346.777,-214 592.777,-214 592.777,-250"/>
<text text-anchor="middle" x="469.777" y="-229.2" font-family="Courier,monospace" font-size="11.00">Horde_SessionHandler_Storage_Mongo</text>
</g>
<!-- \\Horde_SessionHandler_Storage_Mongo&#45;&gt;\\Horde_SessionHandler_Storage -->
<g id="edge6" class="edge"><title>\\Horde_SessionHandler_Storage_Mongo&#45;&gt;\\Horde_SessionHandler_Storage</title>
<path fill="none" stroke="black" d="M356.131,-250.031C348.254,-252.629 340.558,-255.601 333.277,-259 260.15,-293.137 190.323,-359.183 155.201,-395.513"/>
<polygon fill="none" stroke="black" points="152.623,-393.144 148.245,-402.792 157.684,-397.98 152.623,-393.144"/>
</g>
<!-- \\Horde_Mongo_Collection_Index -->
<g id="node13" class="node"><title>\\Horde_Mongo_Collection_Index</title>
<ellipse fill="none" stroke="black" cx="130.638" cy="-72" rx="130.777" ry="18"/>
<text text-anchor="middle" x="130.638" y="-68.3" font-family="Times,serif" font-size="14.00" fill="gray">\Horde_Mongo_Collection_Index</text>
</g>
<!-- \\Horde_SessionHandler_Storage_Mongo&#45;&gt;\\Horde_Mongo_Collection_Index -->
<g id="edge7" class="edge"><title>\\Horde_SessionHandler_Storage_Mongo&#45;&gt;\\Horde_Mongo_Collection_Index</title>
<path fill="none" stroke="black" stroke-dasharray="1,5" d="M349.023,-213.945C343.525,-211.333 338.24,-208.366 333.277,-205 284.613,-171.99 310.407,-126.311 261.277,-94 256.86,-91.0954 252.182,-88.5362 247.325,-86.2837"/>
<polygon fill="none" stroke="black" points="248.365,-82.9259 237.788,-82.3201 245.679,-89.3899 248.365,-82.9259"/>
</g>
<!-- \\Horde_SessionHandler_Storage_Stack -->
<g id="node8" class="node"><title>\\Horde_SessionHandler_Storage_Stack</title>
<polygon fill="none" stroke="black" points="592.777,-304 346.777,-304 346.777,-268 592.777,-268 592.777,-304"/>
<text text-anchor="middle" x="469.777" y="-283.2" font-family="Courier,monospace" font-size="11.00">Horde_SessionHandler_Storage_Stack</text>
</g>
<!-- \\Horde_SessionHandler_Storage_Stack&#45;&gt;\\Horde_SessionHandler_Storage -->
<g id="edge8" class="edge"><title>\\Horde_SessionHandler_Storage_Stack&#45;&gt;\\Horde_SessionHandler_Storage</title>
<path fill="none" stroke="black" d="M362.541,-304.026C352.541,-306.661 342.647,-309.641 333.277,-313 272.367,-334.835 207.308,-372.626 168.057,-397.216"/>
<polygon fill="none" stroke="black" points="165.711,-394.558 159.13,-402.861 169.452,-400.475 165.711,-394.558"/>
</g>
<!-- \\Horde_SessionHandler_Storage_File -->
<g id="node9" class="node"><title>\\Horde_SessionHandler_Storage_File</title>
<polygon fill="none" stroke="black" points="589.277,-628 350.277,-628 350.277,-592 589.277,-592 589.277,-628"/>
<text text-anchor="middle" x="469.777" y="-607.2" font-family="Courier,monospace" font-size="11.00">Horde_SessionHandler_Storage_File</text>
</g>
<!-- \\Horde_SessionHandler_Storage_File&#45;&gt;\\Horde_SessionHandler_Storage -->
<g id="edge9" class="edge"><title>\\Horde_SessionHandler_Storage_File&#45;&gt;\\Horde_SessionHandler_Storage</title>
<path fill="none" stroke="black" d="M356.131,-591.969C348.254,-589.371 340.558,-586.399 333.277,-583 260.15,-548.863 190.323,-482.817 155.201,-446.487"/>
<polygon fill="none" stroke="black" points="157.684,-444.02 148.245,-439.208 152.623,-448.856 157.684,-444.02"/>
</g>
<!-- \\Horde_SessionHandler_Storage_Memcache -->
<g id="node10" class="node"><title>\\Horde_SessionHandler_Storage_Memcache</title>
<polygon fill="none" stroke="black" points="602.777,-574 336.777,-574 336.777,-538 602.777,-538 602.777,-574"/>
<text text-anchor="middle" x="469.777" y="-553.2" font-family="Courier,monospace" font-size="11.00">Horde_SessionHandler_Storage_Memcache</text>
</g>
<!-- \\Horde_SessionHandler_Storage_Memcache&#45;&gt;\\Horde_SessionHandler_Storage -->
<g id="edge10" class="edge"><title>\\Horde_SessionHandler_Storage_Memcache&#45;&gt;\\Horde_SessionHandler_Storage</title>
<path fill="none" stroke="black" d="M362.541,-537.974C352.541,-535.339 342.647,-532.359 333.277,-529 272.367,-507.165 207.308,-469.374 168.057,-444.784"/>
<polygon fill="none" stroke="black" points="169.452,-441.525 159.13,-439.139 165.711,-447.442 169.452,-441.525"/>
</g>
<!-- \\Horde_SessionHandler -->
<g id="node11" class="node"><title>\\Horde_SessionHandler</title>
<polygon fill="none" stroke="black" points="545.777,-142 393.777,-142 393.777,-106 545.777,-106 545.777,-142"/>
<text text-anchor="middle" x="469.777" y="-121.2" font-family="Courier,monospace" font-size="11.00">Horde_SessionHandler</text>
</g>
</g>
</svg>
