<?xml version="1.0" encoding="UTF-8" standalone="no"?>
<!DOCTYPE svg PUBLIC "-//W3C//DTD SVG 1.1//EN"
 "http://www.w3.org/Graphics/SVG/1.1/DTD/svg11.dtd">
<!-- Generated by graphviz version 2.38.0 (20140413.2041)
 -->
<!-- Title: G Pages: 1 -->
<svg width="529pt" height="834pt"
 viewBox="0.00 0.00 529.28 834.00" xmlns="http://www.w3.org/2000/svg" xmlns:xlink="http://www.w3.org/1999/xlink">
<g id="graph0" class="graph" transform="scale(1 1) rotate(0) translate(4 830)">
<title>G</title>
<polygon fill="white" stroke="none" points="-4,4 -4,-830 525.278,-830 525.278,4 -4,4"/>
<g id="clust1" class="cluster"><title>cluster_Global</title>
<path fill="none" stroke="gray" d="M69.139,-368C69.139,-368 501.278,-368 501.278,-368 507.278,-368 513.278,-374 513.278,-380 513.278,-380 513.278,-806 513.278,-806 513.278,-812 507.278,-818 501.278,-818 501.278,-818 69.139,-818 69.139,-818 63.139,-818 57.139,-812 57.139,-806 57.139,-806 57.139,-380 57.139,-380 57.139,-374 63.139,-368 69.139,-368"/>
<text text-anchor="middle" x="285.208" y="-805.2" font-family="Times,serif" font-size="11.00" fill="gray">Global</text>
</g>
<!-- \\Skeleton_Api -->
<g id="node1" class="node"><title>\\Skeleton_Api</title>
<polygon fill="none" stroke="black" points="461.778,-736 363.778,-736 363.778,-700 461.778,-700 461.778,-736"/>
<text text-anchor="middle" x="412.778" y="-715.2" font-family="Courier,monospace" font-size="11.00">Skeleton_Api</text>
</g>
<!-- \\Horde_Registry_Api -->
<g id="node10" class="node"><title>\\Horde_Registry_Api</title>
<ellipse fill="none" stroke="black" cx="124.139" cy="-342" rx="87.1846" ry="18"/>
<text text-anchor="middle" x="124.139" y="-338.3" font-family="Times,serif" font-size="14.00" fill="gray">\Horde_Registry_Api</text>
</g>
<!-- \\Skeleton_Api&#45;&gt;\\Horde_Registry_Api -->
<g id="edge1" class="edge"><title>\\Skeleton_Api&#45;&gt;\\Horde_Registry_Api</title>
<path fill="none" stroke="black" d="M363.361,-713.524C347.675,-709.75 331.458,-702.994 320.278,-691 218.808,-582.144 355.586,-467.106 248.278,-364 240.365,-356.397 230.778,-350.938 220.486,-347.073"/>
<polygon fill="none" stroke="black" points="221.457,-343.709 210.865,-343.956 219.299,-350.368 221.457,-343.709"/>
</g>
<!-- \\Skeleton_Ajax_Application -->
<g id="node2" class="node"><title>\\Skeleton_Ajax_Application</title>
<polygon fill="none" stroke="black" points="505.278,-682 320.278,-682 320.278,-646 505.278,-646 505.278,-682"/>
<text text-anchor="middle" x="412.778" y="-661.2" font-family="Courier,monospace" font-size="11.00">Skeleton_Ajax_Application</text>
</g>
<!-- \\Horde_Core_Ajax_Application -->
<g id="node11" class="node"><title>\\Horde_Core_Ajax_Application</title>
<ellipse fill="none" stroke="black" cx="124.139" cy="-288" rx="124.278" ry="18"/>
<text text-anchor="middle" x="124.139" y="-284.3" font-family="Times,serif" font-size="14.00" fill="gray">\Horde_Core_Ajax_Application</text>
</g>
<!-- \\Skeleton_Ajax_Application&#45;&gt;\\Horde_Core_Ajax_Application -->
<g id="edge2" class="edge"><title>\\Skeleton_Ajax_Application&#45;&gt;\\Horde_Core_Ajax_Application</title>
<path fill="none" stroke="black" d="M330.86,-645.959C327.015,-643.356 323.446,-640.387 320.278,-637 220.113,-529.894 352.186,-418.479 248.278,-315 243.749,-310.49 238.651,-306.657 233.173,-303.407"/>
<polygon fill="none" stroke="black" points="234.763,-300.288 224.278,-298.763 231.523,-306.494 234.763,-300.288"/>
</g>
<!-- \\Skeleton_Test -->
<g id="node3" class="node"><title>\\Skeleton_Test</title>
<polygon fill="none" stroke="black" points="464.778,-628 360.778,-628 360.778,-592 464.778,-592 464.778,-628"/>
<text text-anchor="middle" x="412.778" y="-607.2" font-family="Courier,monospace" font-size="11.00">Skeleton_Test</text>
</g>
<!-- \\Horde_Test -->
<g id="node12" class="node"><title>\\Horde_Test</title>
<ellipse fill="none" stroke="black" cx="124.139" cy="-234" rx="54.6905" ry="18"/>
<text text-anchor="middle" x="124.139" y="-230.3" font-family="Times,serif" font-size="14.00" fill="gray">\Horde_Test</text>
</g>
<!-- \\Skeleton_Test&#45;&gt;\\Horde_Test -->
<g id="edge3" class="edge"><title>\\Skeleton_Test&#45;&gt;\\Horde_Test</title>
<path fill="none" stroke="black" d="M360.527,-604.784C345.751,-600.89 330.799,-594.25 320.278,-583 220.113,-475.894 352.186,-364.479 248.278,-261 232.681,-245.468 210.334,-237.972 188.948,-234.596"/>
<polygon fill="none" stroke="black" points="189.258,-231.107 178.89,-233.287 188.354,-238.049 189.258,-231.107"/>
</g>
<!-- \\Skeleton_Exception -->
<g id="node4" class="node"><title>\\Skeleton_Exception</title>
<polygon fill="none" stroke="black" points="481.778,-574 343.778,-574 343.778,-538 481.778,-538 481.778,-574"/>
<text text-anchor="middle" x="412.778" y="-553.2" font-family="Courier,monospace" font-size="11.00">Skeleton_Exception</text>
</g>
<!-- \\Horde_Exception_Wrapped -->
<g id="node13" class="node"><title>\\Horde_Exception_Wrapped</title>
<ellipse fill="none" stroke="black" cx="124.139" cy="-180" rx="112.38" ry="18"/>
<text text-anchor="middle" x="124.139" y="-176.3" font-family="Times,serif" font-size="14.00" fill="gray">\Horde_Exception_Wrapped</text>
</g>
<!-- \\Skeleton_Exception&#45;&gt;\\Horde_Exception_Wrapped -->
<g id="edge4" class="edge"><title>\\Skeleton_Exception&#45;&gt;\\Horde_Exception_Wrapped</title>
<path fill="none" stroke="black" d="M343.556,-544.919C334.839,-541.059 326.726,-535.895 320.278,-529 220.113,-421.894 352.186,-310.479 248.278,-207 242.947,-201.691 236.828,-197.321 230.228,-193.734"/>
<polygon fill="none" stroke="black" points="231.491,-190.459 220.958,-189.312 228.477,-196.777 231.491,-190.459"/>
</g>
<!-- \\Skeleton_Application -->
<g id="node5" class="node"><title>\\Skeleton_Application</title>
<polygon fill="none" stroke="black" points="488.778,-520 336.778,-520 336.778,-484 488.778,-484 488.778,-520"/>
<text text-anchor="middle" x="412.778" y="-499.2" font-family="Courier,monospace" font-size="11.00">Skeleton_Application</text>
</g>
<!-- \\Horde_Registry_Application -->
<g id="node14" class="node"><title>\\Horde_Registry_Application</title>
<ellipse fill="none" stroke="black" cx="124.139" cy="-126" rx="115.08" ry="18"/>
<text text-anchor="middle" x="124.139" y="-122.3" font-family="Times,serif" font-size="14.00" fill="gray">\Horde_Registry_Application</text>
</g>
<!-- \\Skeleton_Application&#45;&gt;\\Horde_Registry_Application -->
<g id="edge5" class="edge"><title>\\Skeleton_Application&#45;&gt;\\Horde_Registry_Application</title>
<path fill="none" stroke="black" d="M336.382,-487.351C330.416,-484.023 324.916,-479.96 320.278,-475 220.113,-367.894 352.186,-256.479 248.278,-153 243.225,-147.967 237.463,-143.779 231.254,-140.3"/>
<polygon fill="none" stroke="black" points="232.389,-136.958 221.869,-135.697 229.306,-143.243 232.389,-136.958"/>
</g>
<!-- \\Skeleton_Driver_Sql -->
<g id="node6" class="node"><title>\\Skeleton_Driver_Sql</title>
<polygon fill="none" stroke="black" points="485.278,-790 340.278,-790 340.278,-754 485.278,-754 485.278,-790"/>
<text text-anchor="middle" x="412.778" y="-769.2" font-family="Courier,monospace" font-size="11.00">Skeleton_Driver_Sql</text>
</g>
<!-- \\Skeleton_Driver -->
<g id="node7" class="node"><title>\\Skeleton_Driver</title>
<polygon fill="none" stroke="black" points="183.139,-790 65.139,-790 65.139,-754 183.139,-754 183.139,-790"/>
<text text-anchor="middle" x="124.139" y="-769.2" font-family="Courier,monospace" font-size="11.00">Skeleton_Driver</text>
</g>
<!-- \\Skeleton_Driver_Sql&#45;&gt;\\Skeleton_Driver -->
<g id="edge6" class="edge"><title>\\Skeleton_Driver_Sql&#45;&gt;\\Skeleton_Driver</title>
<path fill="none" stroke="black" d="M340.186,-772C295.266,-772 237.678,-772 193.404,-772"/>
<polygon fill="none" stroke="black" points="193.312,-768.5 183.312,-772 193.312,-775.5 193.312,-768.5"/>
</g>
<!-- \\Skeleton_Factory_Driver -->
<g id="node8" class="node"><title>\\Skeleton_Factory_Driver</title>
<polygon fill="none" stroke="black" points="498.778,-466 326.778,-466 326.778,-430 498.778,-430 498.778,-466"/>
<text text-anchor="middle" x="412.778" y="-445.2" font-family="Courier,monospace" font-size="11.00">Skeleton_Factory_Driver</text>
</g>
<!-- \\Horde_Core_Factory_Injector -->
<g id="node15" class="node"><title>\\Horde_Core_Factory_Injector</title>
<ellipse fill="none" stroke="black" cx="124.139" cy="-72" rx="119.679" ry="18"/>
<text text-anchor="middle" x="124.139" y="-68.3" font-family="Times,serif" font-size="14.00" fill="gray">\Horde_Core_Factory_Injector</text>
</g>
<!-- \\Skeleton_Factory_Driver&#45;&gt;\\Horde_Core_Factory_Injector -->
<g id="edge7" class="edge"><title>\\Skeleton_Factory_Driver&#45;&gt;\\Horde_Core_Factory_Injector</title>
<path fill="none" stroke="black" d="M330.86,-429.959C327.015,-427.356 323.446,-424.387 320.278,-421 220.113,-313.894 352.186,-202.479 248.278,-99 243.433,-94.175 237.937,-90.1256 232.02,-86.7343"/>
<polygon fill="none" stroke="black" points="233.582,-83.6022 223.077,-82.2228 230.429,-89.852 233.582,-83.6022"/>
</g>
<!-- \\Skeleton_Block_Example -->
<g id="node9" class="node"><title>\\Skeleton_Block_Example</title>
<polygon fill="none" stroke="black" points="495.278,-412 330.278,-412 330.278,-376 495.278,-376 495.278,-412"/>
<text text-anchor="middle" x="412.778" y="-391.2" font-family="Courier,monospace" font-size="11.00">Skeleton_Block_Example</text>
</g>
<!-- \\Horde_Core_Block -->
<g id="node16" class="node"><title>\\Horde_Core_Block</title>
<ellipse fill="none" stroke="black" cx="124.139" cy="-18" rx="81.7856" ry="18"/>
<text text-anchor="middle" x="124.139" y="-14.3" font-family="Times,serif" font-size="14.00" fill="gray">\Horde_Core_Block</text>
</g>
<!-- \\Skeleton_Block_Example&#45;&gt;\\Horde_Core_Block -->
<g id="edge8" class="edge"><title>\\Skeleton_Block_Example&#45;&gt;\\Horde_Core_Block</title>
<path fill="none" stroke="black" d="M408.982,-375.711C399.049,-317.352 359.869,-134.186 248.278,-45 237.616,-36.4787 224.841,-30.5067 211.615,-26.3478"/>
<polygon fill="none" stroke="black" points="212.503,-22.9617 201.929,-23.6294 210.611,-29.7014 212.503,-22.9617"/>
</g>
</g>
</svg>
