<?xml version="1.0" encoding="UTF-8" standalone="no"?>
<!DOCTYPE svg PUBLIC "-//W3C//DTD SVG 1.1//EN"
 "http://www.w3.org/Graphics/SVG/1.1/DTD/svg11.dtd">
<!-- Generated by graphviz version 2.38.0 (20140413.2041)
 -->
<!-- Title: G Pages: 1 -->
<svg width="474pt" height="312pt"
 viewBox="0.00 0.00 474.18 312.00" xmlns="http://www.w3.org/2000/svg" xmlns:xlink="http://www.w3.org/1999/xlink">
<g id="graph0" class="graph" transform="scale(1 1) rotate(0) translate(4 308)">
<title>G</title>
<polygon fill="white" stroke="none" points="-4,4 -4,-308 470.18,-308 470.18,4 -4,4"/>
<g id="clust1" class="cluster"><title>cluster_Global</title>
<path fill="none" stroke="gray" d="M302.18,-8C302.18,-8 446.18,-8 446.18,-8 452.18,-8 458.18,-14 458.18,-20 458.18,-20 458.18,-284 458.18,-284 458.18,-290 452.18,-296 446.18,-296 446.18,-296 302.18,-296 302.18,-296 296.18,-296 290.18,-290 290.18,-284 290.18,-284 290.18,-20 290.18,-20 290.18,-14 296.18,-8 302.18,-8"/>
<text text-anchor="middle" x="374.18" y="-283.2" font-family="Times,serif" font-size="11.00" fill="gray">Global</text>
</g>
<!-- \\Horde_Yaml -->
<g id="node1" class="node"><title>\\Horde_Yaml</title>
<polygon fill="none" stroke="black" points="416.18,-268 332.18,-268 332.18,-232 416.18,-232 416.18,-268"/>
<text text-anchor="middle" x="374.18" y="-247.2" font-family="Courier,monospace" font-size="11.00">Horde_Yaml</text>
</g>
<!-- \\Horde_Yaml_Dumper -->
<g id="node2" class="node"><title>\\Horde_Yaml_Dumper</title>
<polygon fill="none" stroke="black" points="439.68,-214 308.68,-214 308.68,-178 439.68,-178 439.68,-214"/>
<text text-anchor="middle" x="374.18" y="-193.2" font-family="Courier,monospace" font-size="11.00">Horde_Yaml_Dumper</text>
</g>
<!-- \\Horde_Yaml_Exception -->
<g id="node3" class="node"><title>\\Horde_Yaml_Exception</title>
<polygon fill="none" stroke="black" points="450.18,-160 298.18,-160 298.18,-124 450.18,-124 450.18,-160"/>
<text text-anchor="middle" x="374.18" y="-139.2" font-family="Courier,monospace" font-size="11.00">Horde_Yaml_Exception</text>
</g>
<!-- \\Horde_Exception_LastError -->
<g id="node6" class="node"><title>\\Horde_Exception_LastError</title>
<ellipse fill="none" stroke="black" cx="113.09" cy="-142" rx="113.18" ry="18"/>
<text text-anchor="middle" x="113.09" y="-138.3" font-family="Times,serif" font-size="14.00" fill="gray">\Horde_Exception_LastError</text>
</g>
<!-- \\Horde_Yaml_Exception&#45;&gt;\\Horde_Exception_LastError -->
<g id="edge1" class="edge"><title>\\Horde_Yaml_Exception&#45;&gt;\\Horde_Exception_LastError</title>
<path fill="none" stroke="black" d="M297.892,-142C278.633,-142 257.42,-142 236.459,-142"/>
<polygon fill="none" stroke="black" points="236.199,-138.5 226.199,-142 236.199,-145.5 236.199,-138.5"/>
</g>
<!-- \\Horde_Yaml_Loader -->
<g id="node4" class="node"><title>\\Horde_Yaml_Loader</title>
<polygon fill="none" stroke="black" points="439.68,-106 308.68,-106 308.68,-70 439.68,-70 439.68,-106"/>
<text text-anchor="middle" x="374.18" y="-85.2" font-family="Courier,monospace" font-size="11.00">Horde_Yaml_Loader</text>
</g>
<!-- \\Horde_Yaml_Node -->
<g id="node5" class="node"><title>\\Horde_Yaml_Node</title>
<polygon fill="none" stroke="black" points="433.18,-52 315.18,-52 315.18,-16 433.18,-16 433.18,-52"/>
<text text-anchor="middle" x="374.18" y="-31.2" font-family="Courier,monospace" font-size="11.00">Horde_Yaml_Node</text>
</g>
</g>
</svg>
