<?xml version="1.0" encoding="UTF-8" standalone="no"?>
<!DOCTYPE svg PUBLIC "-//W3C//DTD SVG 1.1//EN"
 "http://www.w3.org/Graphics/SVG/1.1/DTD/svg11.dtd">
<!-- Generated by graphviz version 2.38.0 (20140413.2041)
 -->
<!-- Title: G Pages: 1 -->
<svg width="686pt" height="1158pt"
 viewBox="0.00 0.00 686.00 1158.00" xmlns="http://www.w3.org/2000/svg" xmlns:xlink="http://www.w3.org/1999/xlink">
<g id="graph0" class="graph" transform="scale(1 1) rotate(0) translate(4 1154)">
<title>G</title>
<polygon fill="white" stroke="none" points="-4,4 -4,-1154 682,-1154 682,4 -4,4"/>
<g id="clust1" class="cluster"><title>cluster_Global</title>
<path fill="none" stroke="gray" d="M20,-152C20,-152 658,-152 658,-152 664,-152 670,-158 670,-164 670,-164 670,-1130 670,-1130 670,-1136 664,-1142 658,-1142 658,-1142 20,-1142 20,-1142 14,-1142 8,-1136 8,-1130 8,-1130 8,-164 8,-164 8,-158 14,-152 20,-152"/>
<text text-anchor="middle" x="339" y="-1129.2" font-family="Times,serif" font-size="11.00" fill="gray">Global</text>
</g>
<!-- \\Horde_Perms -->
<g id="node1" class="node"><title>\\Horde_Perms</title>
<polygon fill="none" stroke="black" points="550.5,-1114 459.5,-1114 459.5,-1078 550.5,-1078 550.5,-1114"/>
<text text-anchor="middle" x="505" y="-1093.2" font-family="Courier,monospace" font-size="11.00">Horde_Perms</text>
</g>
<!-- \\Horde_Perms_Null -->
<g id="node2" class="node"><title>\\Horde_Perms_Null</title>
<polygon fill="none" stroke="black" points="567.5,-1060 442.5,-1060 442.5,-1024 567.5,-1024 567.5,-1060"/>
<text text-anchor="middle" x="505" y="-1039.2" font-family="Courier,monospace" font-size="11.00">Horde_Perms_Null</text>
</g>
<!-- \\Horde_Perms_Base -->
<g id="node20" class="node"><title>\\Horde_Perms_Base</title>
<polygon fill="none" stroke="black" points="208.5,-1033 83.5,-1033 83.5,-997 208.5,-997 208.5,-1033"/>
<text text-anchor="start" x="112" y="-1018.2" font-family="Courier,monospace" font-size="11.00">«abstract»</text>
<text text-anchor="start" x="91.5" y="-1006.2" font-family="Courier,monospace" font-size="11.00">Horde_Perms_Base</text>
</g>
<!-- \\Horde_Perms_Null&#45;&gt;\\Horde_Perms_Base -->
<g id="edge1" class="edge"><title>\\Horde_Perms_Null&#45;&gt;\\Horde_Perms_Base</title>
<path fill="none" stroke="black" d="M442.223,-1037.33C380.089,-1032.63 284.355,-1025.39 218.86,-1020.43"/>
<polygon fill="none" stroke="black" points="218.854,-1016.92 208.618,-1019.66 218.326,-1023.9 218.854,-1016.92"/>
</g>
<!-- \\Horde_Perms_Exception -->
<g id="node3" class="node"><title>\\Horde_Perms_Exception</title>
<polygon fill="none" stroke="black" points="584,-412 426,-412 426,-376 584,-376 584,-412"/>
<text text-anchor="middle" x="505" y="-391.2" font-family="Courier,monospace" font-size="11.00">Horde_Perms_Exception</text>
</g>
<!-- \\Horde_Exception_Wrapped -->
<g id="node23" class="node"><title>\\Horde_Exception_Wrapped</title>
<ellipse fill="none" stroke="black" cx="146" cy="-126" rx="112.38" ry="18"/>
<text text-anchor="middle" x="146" y="-122.3" font-family="Times,serif" font-size="14.00" fill="gray">\Horde_Exception_Wrapped</text>
</g>
<!-- \\Horde_Perms_Exception&#45;&gt;\\Horde_Exception_Wrapped -->
<g id="edge2" class="edge"><title>\\Horde_Perms_Exception&#45;&gt;\\Horde_Exception_Wrapped</title>
<path fill="none" stroke="black" d="M425.999,-396.379C398.581,-393.409 369.324,-385.413 348,-367 270.451,-300.038 353.631,-214.867 276,-148 271.029,-143.719 265.539,-140.123 259.709,-137.114"/>
<polygon fill="none" stroke="black" points="260.848,-133.787 250.295,-132.852 257.961,-140.164 260.848,-133.787"/>
</g>
<!-- \\Horde_Perms_Permission -->
<g id="node4" class="node"><title>\\Horde_Perms_Permission</title>
<polygon fill="none" stroke="black" points="228.5,-925 63.5,-925 63.5,-889 228.5,-889 228.5,-925"/>
<text text-anchor="middle" x="146" y="-904.2" font-family="Courier,monospace" font-size="11.00">Horde_Perms_Permission</text>
</g>
<!-- \\Horde_Perms_Sql -->
<g id="node5" class="node"><title>\\Horde_Perms_Sql</title>
<polygon fill="none" stroke="black" points="564,-1006 446,-1006 446,-970 564,-970 564,-1006"/>
<text text-anchor="middle" x="505" y="-985.2" font-family="Courier,monospace" font-size="11.00">Horde_Perms_Sql</text>
</g>
<!-- \\Horde_Perms_Sql&#45;&gt;\\Horde_Perms_Base -->
<g id="edge3" class="edge"><title>\\Horde_Perms_Sql&#45;&gt;\\Horde_Perms_Base</title>
<path fill="none" stroke="black" d="M445.847,-992.398C383.83,-997.088 285.534,-1004.52 218.75,-1009.57"/>
<polygon fill="none" stroke="black" points="218.431,-1006.09 208.723,-1010.33 218.959,-1013.07 218.431,-1006.09"/>
</g>
<!-- \\Horde_Perms_Permission_Kolab -->
<g id="node6" class="node"><title>\\Horde_Perms_Permission_Kolab</title>
<polygon fill="none" stroke="black" points="608,-952 402,-952 402,-916 608,-916 608,-952"/>
<text text-anchor="middle" x="505" y="-931.2" font-family="Courier,monospace" font-size="11.00">Horde_Perms_Permission_Kolab</text>
</g>
<!-- \\Horde_Perms_Permission_Kolab&#45;&gt;\\Horde_Perms_Permission -->
<g id="edge4" class="edge"><title>\\Horde_Perms_Permission_Kolab&#45;&gt;\\Horde_Perms_Permission</title>
<path fill="none" stroke="black" d="M401.698,-926.263C350.327,-922.378 288.591,-917.709 238.766,-913.94"/>
<polygon fill="none" stroke="black" points="238.881,-910.439 228.645,-913.175 238.353,-917.419 238.881,-910.439"/>
</g>
<!-- \\Horde_Perms_Permission_Sql -->
<g id="node7" class="node"><title>\\Horde_Perms_Permission_Sql</title>
<polygon fill="none" stroke="black" points="601,-898 409,-898 409,-862 601,-862 601,-898"/>
<text text-anchor="middle" x="505" y="-877.2" font-family="Courier,monospace" font-size="11.00">Horde_Perms_Permission_Sql</text>
</g>
<!-- \\Horde_Perms_Permission_Sql&#45;&gt;\\Horde_Perms_Permission -->
<g id="edge5" class="edge"><title>\\Horde_Perms_Permission_Sql&#45;&gt;\\Horde_Perms_Permission</title>
<path fill="none" stroke="black" d="M408.8,-887.2C356.128,-891.184 290.983,-896.111 238.854,-900.053"/>
<polygon fill="none" stroke="black" points="238.317,-896.584 228.609,-900.828 238.845,-903.564 238.317,-896.584"/>
</g>
<!-- \\Horde_Perms_Permission_Kolab_Element -->
<g id="node8" class="node"><title>\\Horde_Perms_Permission_Kolab_Element</title>
<polygon fill="none" stroke="black" points="276,-547 16,-547 16,-511 276,-511 276,-547"/>
<text text-anchor="start" x="112" y="-532.2" font-family="Courier,monospace" font-size="11.00">«abstract»</text>
<text text-anchor="start" x="24" y="-520.2" font-family="Courier,monospace" font-size="11.00">Horde_Perms_Permission_Kolab_Element</text>
</g>
<!-- \\Horde_Perms_Permission_Kolab_Acl_Group -->
<g id="node9" class="node"><title>\\Horde_Perms_Permission_Kolab_Acl_Group</title>
<polygon fill="none" stroke="black" points="641.5,-844 368.5,-844 368.5,-808 641.5,-808 641.5,-844"/>
<text text-anchor="middle" x="505" y="-823.2" font-family="Courier,monospace" font-size="11.00">Horde_Perms_Permission_Kolab_Acl_Group</text>
</g>
<!-- \\Horde_Perms_Permission_Kolab_Acl -->
<g id="node17" class="node"><title>\\Horde_Perms_Permission_Kolab_Acl</title>
<polygon fill="none" stroke="black" points="262.5,-763 29.5,-763 29.5,-727 262.5,-727 262.5,-763"/>
<text text-anchor="start" x="112" y="-748.2" font-family="Courier,monospace" font-size="11.00">«abstract»</text>
<text text-anchor="start" x="37.5" y="-736.2" font-family="Courier,monospace" font-size="11.00">Horde_Perms_Permission_Kolab_Acl</text>
</g>
<!-- \\Horde_Perms_Permission_Kolab_Acl_Group&#45;&gt;\\Horde_Perms_Permission_Kolab_Acl -->
<g id="edge6" class="edge"><title>\\Horde_Perms_Permission_Kolab_Acl_Group&#45;&gt;\\Horde_Perms_Permission_Kolab_Acl</title>
<path fill="none" stroke="black" d="M392.548,-807.986C377.532,-805.186 362.36,-802.165 348,-799 304.595,-789.434 256.495,-776.594 218.234,-765.834"/>
<polygon fill="none" stroke="black" points="218.798,-762.356 208.223,-763.003 216.893,-769.092 218.798,-762.356"/>
</g>
<!-- \\Horde_Perms_Permission_Kolab_Acl_User -->
<g id="node10" class="node"><title>\\Horde_Perms_Permission_Kolab_Acl_User</title>
<polygon fill="none" stroke="black" points="638,-790 372,-790 372,-754 638,-754 638,-790"/>
<text text-anchor="middle" x="505" y="-769.2" font-family="Courier,monospace" font-size="11.00">Horde_Perms_Permission_Kolab_Acl_User</text>
</g>
<!-- \\Horde_Perms_Permission_Kolab_Acl_User&#45;&gt;\\Horde_Perms_Permission_Kolab_Acl -->
<g id="edge7" class="edge"><title>\\Horde_Perms_Permission_Kolab_Acl_User&#45;&gt;\\Horde_Perms_Permission_Kolab_Acl</title>
<path fill="none" stroke="black" d="M371.827,-762.004C339.492,-759.558 304.978,-756.948 272.943,-754.525"/>
<polygon fill="none" stroke="black" points="272.871,-751.01 262.635,-753.746 272.343,-757.99 272.871,-751.01"/>
</g>
<!-- \\Horde_Perms_Permission_Kolab_Acl_Anonymous -->
<g id="node11" class="node"><title>\\Horde_Perms_Permission_Kolab_Acl_Anonymous</title>
<polygon fill="none" stroke="black" points="655,-736 355,-736 355,-700 655,-700 655,-736"/>
<text text-anchor="middle" x="505" y="-715.2" font-family="Courier,monospace" font-size="11.00">Horde_Perms_Permission_Kolab_Acl_Anonymous</text>
</g>
<!-- \\Horde_Perms_Permission_Kolab_Acl_Anonymous&#45;&gt;\\Horde_Perms_Permission_Kolab_Acl -->
<g id="edge8" class="edge"><title>\\Horde_Perms_Permission_Kolab_Acl_Anonymous&#45;&gt;\\Horde_Perms_Permission_Kolab_Acl</title>
<path fill="none" stroke="black" d="M354.927,-729.274C327.547,-731.345 299.216,-733.488 272.61,-735.5"/>
<polygon fill="none" stroke="black" points="272.21,-732.02 262.502,-736.265 272.738,-739 272.21,-732.02"/>
</g>
<!-- \\Horde_Perms_Permission_Kolab_Acl_Anyone -->
<g id="node12" class="node"><title>\\Horde_Perms_Permission_Kolab_Acl_Anyone</title>
<polygon fill="none" stroke="black" points="645,-682 365,-682 365,-646 645,-646 645,-682"/>
<text text-anchor="middle" x="505" y="-661.2" font-family="Courier,monospace" font-size="11.00">Horde_Perms_Permission_Kolab_Acl_Anyone</text>
</g>
<!-- \\Horde_Perms_Permission_Kolab_Acl_Anyone&#45;&gt;\\Horde_Perms_Permission_Kolab_Acl -->
<g id="edge9" class="edge"><title>\\Horde_Perms_Permission_Kolab_Acl_Anyone&#45;&gt;\\Horde_Perms_Permission_Kolab_Acl</title>
<path fill="none" stroke="black" d="M392.548,-682.014C377.532,-684.814 362.36,-687.835 348,-691 304.595,-700.566 256.495,-713.406 218.234,-724.166"/>
<polygon fill="none" stroke="black" points="216.893,-720.908 208.223,-726.997 218.798,-727.644 216.893,-720.908"/>
</g>
<!-- \\Horde_Perms_Permission_Kolab_Element_Group -->
<g id="node13" class="node"><title>\\Horde_Perms_Permission_Kolab_Element_Group</title>
<polygon fill="none" stroke="black" points="655,-628 355,-628 355,-592 655,-592 655,-628"/>
<text text-anchor="middle" x="505" y="-607.2" font-family="Courier,monospace" font-size="11.00">Horde_Perms_Permission_Kolab_Element_Group</text>
</g>
<!-- \\Horde_Perms_Permission_Kolab_Element_Group&#45;&gt;\\Horde_Perms_Permission_Kolab_Element -->
<g id="edge10" class="edge"><title>\\Horde_Perms_Permission_Kolab_Element_Group&#45;&gt;\\Horde_Perms_Permission_Kolab_Element</title>
<path fill="none" stroke="black" d="M392.548,-591.986C377.532,-589.186 362.36,-586.165 348,-583 304.595,-573.434 256.495,-560.594 218.234,-549.834"/>
<polygon fill="none" stroke="black" points="218.798,-546.356 208.223,-547.003 216.893,-553.092 218.798,-546.356"/>
</g>
<!-- \\Horde_Perms_Permission_Kolab_Element_Guest -->
<g id="node14" class="node"><title>\\Horde_Perms_Permission_Kolab_Element_Guest</title>
<polygon fill="none" stroke="black" points="655,-574 355,-574 355,-538 655,-538 655,-574"/>
<text text-anchor="middle" x="505" y="-553.2" font-family="Courier,monospace" font-size="11.00">Horde_Perms_Permission_Kolab_Element_Guest</text>
</g>
<!-- \\Horde_Perms_Permission_Kolab_Element_Guest&#45;&gt;\\Horde_Perms_Permission_Kolab_Element -->
<g id="edge11" class="edge"><title>\\Horde_Perms_Permission_Kolab_Element_Guest&#45;&gt;\\Horde_Perms_Permission_Kolab_Element</title>
<path fill="none" stroke="black" d="M354.927,-544.726C332.212,-543.008 308.843,-541.24 286.347,-539.539"/>
<polygon fill="none" stroke="black" points="286.313,-536.026 276.078,-538.762 285.785,-543.006 286.313,-536.026"/>
</g>
<!-- \\Horde_Perms_Permission_Kolab_Element_User -->
<g id="node15" class="node"><title>\\Horde_Perms_Permission_Kolab_Element_User</title>
<polygon fill="none" stroke="black" points="651.5,-520 358.5,-520 358.5,-484 651.5,-484 651.5,-520"/>
<text text-anchor="middle" x="505" y="-499.2" font-family="Courier,monospace" font-size="11.00">Horde_Perms_Permission_Kolab_Element_User</text>
</g>
<!-- \\Horde_Perms_Permission_Kolab_Element_User&#45;&gt;\\Horde_Perms_Permission_Kolab_Element -->
<g id="edge12" class="edge"><title>\\Horde_Perms_Permission_Kolab_Element_User&#45;&gt;\\Horde_Perms_Permission_Kolab_Element</title>
<path fill="none" stroke="black" d="M358.28,-513.021C334.493,-514.82 309.902,-516.68 286.275,-518.467"/>
<polygon fill="none" stroke="black" points="285.921,-514.983 276.213,-519.228 286.449,-521.963 285.921,-514.983"/>
</g>
<!-- \\Horde_Perms_Permission_Kolab_Element_Default -->
<g id="node16" class="node"><title>\\Horde_Perms_Permission_Kolab_Element_Default</title>
<polygon fill="none" stroke="black" points="662,-466 348,-466 348,-430 662,-430 662,-466"/>
<text text-anchor="middle" x="505" y="-445.2" font-family="Courier,monospace" font-size="11.00">Horde_Perms_Permission_Kolab_Element_Default</text>
</g>
<!-- \\Horde_Perms_Permission_Kolab_Element_Default&#45;&gt;\\Horde_Perms_Permission_Kolab_Element -->
<g id="edge13" class="edge"><title>\\Horde_Perms_Permission_Kolab_Element_Default&#45;&gt;\\Horde_Perms_Permission_Kolab_Element</title>
<path fill="none" stroke="black" d="M392.548,-466.014C377.532,-468.814 362.36,-471.835 348,-475 304.595,-484.566 256.495,-497.406 218.234,-508.166"/>
<polygon fill="none" stroke="black" points="216.893,-504.908 208.223,-510.997 218.798,-511.644 216.893,-504.908"/>
</g>
<!-- \\Horde_Perms_Permission_Kolab_ElementIterator -->
<g id="node18" class="node"><title>\\Horde_Perms_Permission_Kolab_ElementIterator</title>
<polygon fill="none" stroke="black" points="662,-358 348,-358 348,-322 662,-322 662,-358"/>
<text text-anchor="middle" x="505" y="-337.2" font-family="Courier,monospace" font-size="11.00">Horde_Perms_Permission_Kolab_ElementIterator</text>
</g>
<!-- \\IteratorAggregate -->
<g id="node24" class="node"><title>\\IteratorAggregate</title>
<ellipse fill="none" stroke="black" cx="146" cy="-72" rx="75.2868" ry="18"/>
<text text-anchor="middle" x="146" y="-68.3" font-family="Times,serif" font-size="14.00" fill="gray">\IteratorAggregate</text>
</g>
<!-- \\Horde_Perms_Permission_Kolab_ElementIterator&#45;&gt;\\IteratorAggregate -->
<g id="edge14" class="edge"><title>\\Horde_Perms_Permission_Kolab_ElementIterator&#45;&gt;\\IteratorAggregate</title>
<path fill="none" stroke="black" stroke-dasharray="1,5" d="M360.293,-321.949C355.977,-319.282 351.86,-316.31 348,-313 271.821,-247.679 351.026,-165.642 276,-99 263.462,-87.8635 247.531,-80.8906 231.176,-76.61"/>
<polygon fill="none" stroke="black" points="231.493,-73.0923 220.965,-74.2795 229.935,-79.9169 231.493,-73.0923"/>
</g>
<!-- \\Horde_Perms_Permission_Kolab_AclIterator -->
<g id="node19" class="node"><title>\\Horde_Perms_Permission_Kolab_AclIterator</title>
<polygon fill="none" stroke="black" points="648.5,-304 361.5,-304 361.5,-268 648.5,-268 648.5,-304"/>
<text text-anchor="middle" x="505" y="-283.2" font-family="Courier,monospace" font-size="11.00">Horde_Perms_Permission_Kolab_AclIterator</text>
</g>
<!-- \\Horde_Perms_Permission_Kolab_AclIterator&#45;&gt;\\IteratorAggregate -->
<g id="edge15" class="edge"><title>\\Horde_Perms_Permission_Kolab_AclIterator&#45;&gt;\\IteratorAggregate</title>
<path fill="none" stroke="black" stroke-dasharray="1,5" d="M361.421,-267.856C356.73,-265.226 352.235,-262.285 348,-259 286.381,-211.21 336.775,-147.859 276,-99 263.004,-88.5523 246.954,-81.8649 230.641,-77.6436"/>
<polygon fill="none" stroke="black" points="231.003,-74.1363 220.475,-75.3223 229.445,-80.9606 231.003,-74.1363"/>
</g>
<!-- \\Horde_Perms_Translation -->
<g id="node21" class="node"><title>\\Horde_Perms_Translation</title>
<polygon fill="none" stroke="black" points="591,-250 419,-250 419,-214 591,-214 591,-250"/>
<text text-anchor="middle" x="505" y="-229.2" font-family="Courier,monospace" font-size="11.00">Horde_Perms_Translation</text>
</g>
<!-- \\Horde_Translation_Autodetect -->
<g id="node25" class="node"><title>\\Horde_Translation_Autodetect</title>
<ellipse fill="none" stroke="black" cx="146" cy="-18" rx="122.379" ry="18"/>
<text text-anchor="middle" x="146" y="-14.3" font-family="Times,serif" font-size="14.00" fill="gray">\Horde_Translation_Autodetect</text>
</g>
<!-- \\Horde_Perms_Translation&#45;&gt;\\Horde_Translation_Autodetect -->
<g id="edge16" class="edge"><title>\\Horde_Perms_Translation&#45;&gt;\\Horde_Translation_Autodetect</title>
<path fill="none" stroke="black" d="M418.968,-232.095C394.029,-228.428 368.09,-220.581 348,-205 286.381,-157.21 336.775,-93.8589 276,-45 269.731,-39.9598 262.75,-35.7948 255.373,-32.3596"/>
<polygon fill="none" stroke="black" points="256.416,-29.0026 245.839,-28.3877 253.724,-35.4642 256.416,-29.0026"/>
</g>
<!-- \\Horde_Perms_Permission_Kolab_Storage -->
<g id="node22" class="node"><title>\\Horde_Perms_Permission_Kolab_Storage</title>
<polygon fill="none" stroke="black" points="635,-196 375,-196 375,-160 635,-160 635,-196"/>
<text text-anchor="middle" x="505" y="-175.2" font-family="Courier,monospace" font-size="11.00">Horde_Perms_Permission_Kolab_Storage</text>
</g>
</g>
</svg>
