<?xml version="1.0" encoding="UTF-8" standalone="no"?>
<!DOCTYPE svg PUBLIC "-//W3C//DTD SVG 1.1//EN"
 "http://www.w3.org/Graphics/SVG/1.1/DTD/svg11.dtd">
<!-- Generated by graphviz version 2.38.0 (20140413.2041)
 -->
<!-- Title: G Pages: 1 -->
<svg width="867pt" height="780pt"
 viewBox="0.00 0.00 866.66 780.00" xmlns="http://www.w3.org/2000/svg" xmlns:xlink="http://www.w3.org/1999/xlink">
<g id="graph0" class="graph" transform="scale(1 1) rotate(0) translate(4 776)">
<title>G</title>
<polygon fill="white" stroke="none" points="-4,4 -4,-776 862.657,-776 862.657,4 -4,4"/>
<g id="clust1" class="cluster"><title>cluster_Global</title>
<path fill="none" stroke="gray" d="M350.968,-152C350.968,-152 838.657,-152 838.657,-152 844.657,-152 850.657,-158 850.657,-164 850.657,-164 850.657,-752 850.657,-752 850.657,-758 844.657,-764 838.657,-764 838.657,-764 350.968,-764 350.968,-764 344.968,-764 338.968,-758 338.968,-752 338.968,-752 338.968,-164 338.968,-164 338.968,-158 344.968,-152 350.968,-152"/>
<text text-anchor="middle" x="594.813" y="-751.2" font-family="Times,serif" font-size="11.00" fill="gray">Global</text>
</g>
<!-- \\Horde_Kolab_Cli_Exception -->
<g id="node1" class="node"><title>\\Horde_Kolab_Cli_Exception</title>
<polygon fill="none" stroke="black" points="825.657,-358 640.657,-358 640.657,-322 825.657,-322 825.657,-358"/>
<text text-anchor="middle" x="733.157" y="-337.2" font-family="Courier,monospace" font-size="11.00">Horde_Kolab_Cli_Exception</text>
</g>
<!-- \\Horde_Exception_Wrapped -->
<g id="node13" class="node"><title>\\Horde_Exception_Wrapped</title>
<ellipse fill="none" stroke="black" cx="429.468" cy="-126" rx="112.38" ry="18"/>
<text text-anchor="middle" x="429.468" y="-122.3" font-family="Times,serif" font-size="14.00" fill="gray">\Horde_Exception_Wrapped</text>
</g>
<!-- \\Horde_Kolab_Cli_Exception&#45;&gt;\\Horde_Exception_Wrapped -->
<g id="edge1" class="edge"><title>\\Horde_Kolab_Cli_Exception&#45;&gt;\\Horde_Exception_Wrapped</title>
<path fill="none" stroke="black" d="M640.526,-324.047C634.479,-320.97 628.773,-317.323 623.657,-313 562.545,-261.357 614.399,-197.652 551.657,-148 547.256,-144.517 542.483,-141.516 537.46,-138.937"/>
<polygon fill="none" stroke="black" points="538.731,-135.67 528.178,-134.734 535.844,-142.047 538.731,-135.67"/>
</g>
<!-- \\Horde_Kolab_Cli_Data_Ledger -->
<g id="node2" class="node"><title>\\Horde_Kolab_Cli_Data_Ledger</title>
<polygon fill="none" stroke="black" points="832.657,-304 633.657,-304 633.657,-268 832.657,-268 832.657,-304"/>
<text text-anchor="middle" x="733.157" y="-283.2" font-family="Courier,monospace" font-size="11.00">Horde_Kolab_Cli_Data_Ledger</text>
</g>
<!-- \\Countable -->
<g id="node14" class="node"><title>\\Countable</title>
<ellipse fill="none" stroke="black" cx="429.468" cy="-72" rx="49.2915" ry="18"/>
<text text-anchor="middle" x="429.468" y="-68.3" font-family="Times,serif" font-size="14.00" fill="gray">\Countable</text>
</g>
<!-- \\Horde_Kolab_Cli_Data_Ledger&#45;&gt;\\Countable -->
<g id="edge2" class="edge"><title>\\Horde_Kolab_Cli_Data_Ledger&#45;&gt;\\Countable</title>
<path fill="none" stroke="black" stroke-dasharray="1,5" d="M636.679,-267.904C632.061,-265.312 627.68,-262.36 623.657,-259 563.811,-209.008 612.116,-148.25 551.657,-99 534.128,-84.7206 510.619,-77.6098 488.972,-74.1904"/>
<polygon fill="none" stroke="black" points="489.237,-70.6946 478.859,-72.8298 488.303,-77.632 489.237,-70.6946"/>
</g>
<!-- \\Horde_Kolab_Cli_Translation -->
<g id="node3" class="node"><title>\\Horde_Kolab_Cli_Translation</title>
<polygon fill="none" stroke="black" points="832.657,-250 633.657,-250 633.657,-214 832.657,-214 832.657,-250"/>
<text text-anchor="middle" x="733.157" y="-229.2" font-family="Courier,monospace" font-size="11.00">Horde_Kolab_Cli_Translation</text>
</g>
<!-- \\Horde_Translation_Autodetect -->
<g id="node15" class="node"><title>\\Horde_Translation_Autodetect</title>
<ellipse fill="none" stroke="black" cx="429.468" cy="-18" rx="122.379" ry="18"/>
<text text-anchor="middle" x="429.468" y="-14.3" font-family="Times,serif" font-size="14.00" fill="gray">\Horde_Translation_Autodetect</text>
</g>
<!-- \\Horde_Kolab_Cli_Translation&#45;&gt;\\Horde_Translation_Autodetect -->
<g id="edge3" class="edge"><title>\\Horde_Kolab_Cli_Translation&#45;&gt;\\Horde_Translation_Autodetect</title>
<path fill="none" stroke="black" d="M636.679,-213.904C632.061,-211.312 627.68,-208.36 623.657,-205 563.811,-155.008 612.116,-94.2495 551.657,-45 546.212,-40.5638 540.188,-36.8195 533.823,-33.6628"/>
<polygon fill="none" stroke="black" points="534.842,-30.2865 524.281,-29.4462 532.013,-36.6893 534.842,-30.2865"/>
</g>
<!-- \\Horde_Kolab_Cli_Module_Data -->
<g id="node4" class="node"><title>\\Horde_Kolab_Cli_Module_Data</title>
<polygon fill="none" stroke="black" points="832.657,-736 633.657,-736 633.657,-700 832.657,-700 832.657,-736"/>
<text text-anchor="middle" x="733.157" y="-715.2" font-family="Courier,monospace" font-size="11.00">Horde_Kolab_Cli_Module_Data</text>
</g>
<!-- \\Horde_Kolab_Cli_Module -->
<g id="node12" class="node"><title>\\Horde_Kolab_Cli_Module</title>
<polygon fill="none" stroke="black" points="511.968,-574 346.968,-574 346.968,-538 511.968,-538 511.968,-574"/>
<text text-anchor="middle" x="429.468" y="-553.2" font-family="Courier,monospace" font-size="11.00">Horde_Kolab_Cli_Module</text>
</g>
<!-- \\Horde_Kolab_Cli_Module_Data&#45;&gt;\\Horde_Kolab_Cli_Module -->
<g id="edge4" class="edge"><title>\\Horde_Kolab_Cli_Module_Data&#45;&gt;\\Horde_Kolab_Cli_Module</title>
<path fill="none" stroke="black" stroke-dasharray="1,5" d="M646.731,-699.924C638.797,-697.299 630.99,-694.336 623.657,-691 559.599,-661.861 494.414,-610.94 458.531,-580.658"/>
<polygon fill="none" stroke="black" points="460.787,-577.982 450.906,-574.16 456.247,-583.31 460.787,-577.982"/>
</g>
<!-- \\Horde_Kolab_Cli_Module_Format -->
<g id="node5" class="node"><title>\\Horde_Kolab_Cli_Module_Format</title>
<polygon fill="none" stroke="black" points="839.157,-682 627.157,-682 627.157,-646 839.157,-646 839.157,-682"/>
<text text-anchor="middle" x="733.157" y="-661.2" font-family="Courier,monospace" font-size="11.00">Horde_Kolab_Cli_Module_Format</text>
</g>
<!-- \\Horde_Kolab_Cli_Module_Format&#45;&gt;\\Horde_Kolab_Cli_Module -->
<g id="edge5" class="edge"><title>\\Horde_Kolab_Cli_Module_Format&#45;&gt;\\Horde_Kolab_Cli_Module</title>
<path fill="none" stroke="black" stroke-dasharray="1,5" d="M653.519,-645.947C643.402,-643.181 633.237,-640.18 623.657,-637 572.904,-620.155 516.719,-595.939 478.087,-578.376"/>
<polygon fill="none" stroke="black" points="479.207,-575.039 468.657,-574.062 476.295,-581.405 479.207,-575.039"/>
</g>
<!-- \\Horde_Kolab_Cli_Module_Folder -->
<g id="node6" class="node"><title>\\Horde_Kolab_Cli_Module_Folder</title>
<polygon fill="none" stroke="black" points="839.157,-628 627.157,-628 627.157,-592 839.157,-592 839.157,-628"/>
<text text-anchor="middle" x="733.157" y="-607.2" font-family="Courier,monospace" font-size="11.00">Horde_Kolab_Cli_Module_Folder</text>
</g>
<!-- \\Horde_Kolab_Cli_Module_Folder&#45;&gt;\\Horde_Kolab_Cli_Module -->
<g id="edge6" class="edge"><title>\\Horde_Kolab_Cli_Module_Folder&#45;&gt;\\Horde_Kolab_Cli_Module</title>
<path fill="none" stroke="black" stroke-dasharray="1,5" d="M631.28,-591.944C596.045,-585.637 556.71,-578.596 522.256,-572.429"/>
<polygon fill="none" stroke="black" points="522.665,-568.947 512.204,-570.63 521.431,-575.837 522.665,-568.947"/>
</g>
<!-- \\Horde_Kolab_Cli_Module_List -->
<g id="node7" class="node"><title>\\Horde_Kolab_Cli_Module_List</title>
<polygon fill="none" stroke="black" points="832.657,-574 633.657,-574 633.657,-538 832.657,-538 832.657,-574"/>
<text text-anchor="middle" x="733.157" y="-553.2" font-family="Courier,monospace" font-size="11.00">Horde_Kolab_Cli_Module_List</text>
</g>
<!-- \\Horde_Kolab_Cli_Module_List&#45;&gt;\\Horde_Kolab_Cli_Module -->
<g id="edge7" class="edge"><title>\\Horde_Kolab_Cli_Module_List&#45;&gt;\\Horde_Kolab_Cli_Module</title>
<path fill="none" stroke="black" stroke-dasharray="1,5" d="M633.373,-556C597.712,-556 557.627,-556 522.562,-556"/>
<polygon fill="none" stroke="black" points="522.334,-552.5 512.333,-556 522.333,-559.5 522.334,-552.5"/>
</g>
<!-- \\Horde_Kolab_Cli_Module_Ledger -->
<g id="node8" class="node"><title>\\Horde_Kolab_Cli_Module_Ledger</title>
<polygon fill="none" stroke="black" points="839.157,-520 627.157,-520 627.157,-484 839.157,-484 839.157,-520"/>
<text text-anchor="middle" x="733.157" y="-499.2" font-family="Courier,monospace" font-size="11.00">Horde_Kolab_Cli_Module_Ledger</text>
</g>
<!-- \\Horde_Kolab_Cli_Module_Ledger&#45;&gt;\\Horde_Kolab_Cli_Module -->
<g id="edge8" class="edge"><title>\\Horde_Kolab_Cli_Module_Ledger&#45;&gt;\\Horde_Kolab_Cli_Module</title>
<path fill="none" stroke="black" stroke-dasharray="1,5" d="M631.28,-520.056C596.045,-526.363 556.71,-533.404 522.256,-539.571"/>
<polygon fill="none" stroke="black" points="521.431,-536.163 512.204,-541.37 522.665,-543.053 521.431,-536.163"/>
</g>
<!-- \\Horde_Kolab_Cli_Module_Account -->
<g id="node9" class="node"><title>\\Horde_Kolab_Cli_Module_Account</title>
<polygon fill="none" stroke="black" points="842.657,-466 623.657,-466 623.657,-430 842.657,-430 842.657,-466"/>
<text text-anchor="middle" x="733.157" y="-445.2" font-family="Courier,monospace" font-size="11.00">Horde_Kolab_Cli_Module_Account</text>
</g>
<!-- \\Horde_Kolab_Cli_Module_Account&#45;&gt;\\Horde_Kolab_Cli_Module -->
<g id="edge9" class="edge"><title>\\Horde_Kolab_Cli_Module_Account&#45;&gt;\\Horde_Kolab_Cli_Module</title>
<path fill="none" stroke="black" stroke-dasharray="1,5" d="M653.519,-466.053C643.402,-468.819 633.237,-471.82 623.657,-475 572.904,-491.845 516.719,-516.061 478.087,-533.624"/>
<polygon fill="none" stroke="black" points="476.295,-530.595 468.657,-537.938 479.207,-536.961 476.295,-530.595"/>
</g>
<!-- \\Horde_Kolab_Cli_Module_Base -->
<g id="node10" class="node"><title>\\Horde_Kolab_Cli_Module_Base</title>
<polygon fill="none" stroke="black" points="832.657,-412 633.657,-412 633.657,-376 832.657,-376 832.657,-412"/>
<text text-anchor="middle" x="733.157" y="-391.2" font-family="Courier,monospace" font-size="11.00">Horde_Kolab_Cli_Module_Base</text>
</g>
<!-- \\Horde_Kolab_Cli_Module_Base&#45;&gt;\\Horde_Kolab_Cli_Module -->
<g id="edge10" class="edge"><title>\\Horde_Kolab_Cli_Module_Base&#45;&gt;\\Horde_Kolab_Cli_Module</title>
<path fill="none" stroke="black" stroke-dasharray="1,5" d="M646.731,-412.076C638.797,-414.701 630.99,-417.664 623.657,-421 559.599,-450.139 494.414,-501.06 458.531,-531.342"/>
<polygon fill="none" stroke="black" points="456.247,-528.69 450.906,-537.84 460.787,-534.018 456.247,-528.69"/>
</g>
<!-- \\Horde_Kolab_Cli -->
<g id="node11" class="node"><title>\\Horde_Kolab_Cli</title>
<polygon fill="none" stroke="black" points="792.157,-196 674.157,-196 674.157,-160 792.157,-160 792.157,-196"/>
<text text-anchor="middle" x="733.157" y="-175.2" font-family="Courier,monospace" font-size="11.00">Horde_Kolab_Cli</text>
</g>
<!-- \\Horde_Cli_Modular_Module -->
<g id="node16" class="node"><title>\\Horde_Cli_Modular_Module</title>
<ellipse fill="none" stroke="black" cx="117.64" cy="-556" rx="117.779" ry="18"/>
<text text-anchor="middle" x="117.64" y="-552.3" font-family="Times,serif" font-size="14.00" fill="gray">\Horde_Cli_Modular_Module</text>
</g>
<!-- \\Horde_Kolab_Cli_Module&#45;&gt;\\Horde_Cli_Modular_Module -->
<g id="edge11" class="edge"><title>\\Horde_Kolab_Cli_Module&#45;&gt;\\Horde_Cli_Modular_Module</title>
<path fill="none" stroke="black" d="M346.659,-556C315.656,-556 279.583,-556 245.403,-556"/>
<polygon fill="none" stroke="black" points="245.343,-552.5 235.343,-556 245.343,-559.5 245.343,-552.5"/>
</g>
</g>
</svg>
