<?xml version="1.0" encoding="UTF-8" standalone="no"?>
<!DOCTYPE svg PUBLIC "-//W3C//DTD SVG 1.1//EN"
 "http://www.w3.org/Graphics/SVG/1.1/DTD/svg11.dtd">
<!-- Generated by graphviz version 2.38.0 (20140413.2041)
 -->
<!-- Title: G Pages: 1 -->
<svg width="697pt" height="566pt"
 viewBox="0.00 0.00 697.38 566.00" xmlns="http://www.w3.org/2000/svg" xmlns:xlink="http://www.w3.org/1999/xlink">
<g id="graph0" class="graph" transform="scale(1 1) rotate(0) translate(4 562)">
<title>G</title>
<polygon fill="white" stroke="none" points="-4,4 -4,-562 693.378,-562 693.378,4 -4,4"/>
<g id="clust1" class="cluster"><title>cluster_Global</title>
<path fill="none" stroke="gray" d="M20,-100C20,-100 669.378,-100 669.378,-100 675.378,-100 681.378,-106 681.378,-112 681.378,-112 681.378,-538 681.378,-538 681.378,-544 675.378,-550 669.378,-550 669.378,-550 20,-550 20,-550 14,-550 8,-544 8,-538 8,-538 8,-112 8,-112 8,-106 14,-100 20,-100"/>
<text text-anchor="middle" x="344.689" y="-537.2" font-family="Times,serif" font-size="11.00" fill="gray">Global</text>
</g>
<!-- \\Horde_Vfs -->
<g id="node1" class="node"><title>\\Horde_Vfs</title>
<polygon fill="none" stroke="black" points="632.878,-468 555.878,-468 555.878,-432 632.878,-432 632.878,-468"/>
<text text-anchor="middle" x="594.378" y="-447.2" font-family="Courier,monospace" font-size="11.00">Horde_Vfs</text>
</g>
<!-- \\Horde_Vfs_Horde -->
<g id="node2" class="node"><title>\\Horde_Vfs_Horde</title>
<polygon fill="none" stroke="black" points="380.189,-522 262.189,-522 262.189,-486 380.189,-486 380.189,-522"/>
<text text-anchor="middle" x="321.189" y="-501.2" font-family="Courier,monospace" font-size="11.00">Horde_Vfs_Horde</text>
</g>
<!-- \\Horde_Vfs_Base -->
<g id="node14" class="node"><title>\\Horde_Vfs_Base</title>
<polygon fill="none" stroke="black" points="127,-333 16,-333 16,-297 127,-297 127,-333"/>
<text text-anchor="start" x="37.5" y="-318.2" font-family="Courier,monospace" font-size="11.00">«abstract»</text>
<text text-anchor="start" x="24" y="-306.2" font-family="Courier,monospace" font-size="11.00">Horde_Vfs_Base</text>
</g>
<!-- \\Horde_Vfs_Horde&#45;&gt;\\Horde_Vfs_Base -->
<g id="edge1" class="edge"><title>\\Horde_Vfs_Horde&#45;&gt;\\Horde_Vfs_Base</title>
<path fill="none" stroke="black" d="M262.181,-499.304C241.053,-495.547 217.769,-488.86 199,-477 145.693,-443.317 105.705,-378.946 86.0475,-342.302"/>
<polygon fill="none" stroke="black" points="89.0114,-340.418 81.2697,-333.185 82.811,-343.667 89.0114,-340.418"/>
</g>
<!-- \\Horde_Vfs_Null -->
<g id="node3" class="node"><title>\\Horde_Vfs_Null</title>
<polygon fill="none" stroke="black" points="376.689,-468 265.689,-468 265.689,-432 376.689,-432 376.689,-468"/>
<text text-anchor="middle" x="321.189" y="-447.2" font-family="Courier,monospace" font-size="11.00">Horde_Vfs_Null</text>
</g>
<!-- \\Horde_Vfs_Null&#45;&gt;\\Horde_Vfs_Base -->
<g id="edge2" class="edge"><title>\\Horde_Vfs_Null&#45;&gt;\\Horde_Vfs_Base</title>
<path fill="none" stroke="black" d="M265.486,-443.62C243.965,-439.647 219.54,-433.252 199,-423 157.967,-402.52 119.161,-365.886 95.6108,-341.023"/>
<polygon fill="none" stroke="black" points="97.8916,-338.336 88.5171,-333.399 92.7669,-343.105 97.8916,-338.336"/>
</g>
<!-- \\Horde_Vfs_Exception -->
<g id="node4" class="node"><title>\\Horde_Vfs_Exception</title>
<polygon fill="none" stroke="black" points="666.878,-198 521.878,-198 521.878,-162 666.878,-162 666.878,-198"/>
<text text-anchor="middle" x="594.378" y="-177.2" font-family="Courier,monospace" font-size="11.00">Horde_Vfs_Exception</text>
</g>
<!-- \\Horde_Exception_Wrapped -->
<g id="node16" class="node"><title>\\Horde_Exception_Wrapped</title>
<ellipse fill="none" stroke="black" cx="321.189" cy="-72" rx="112.38" ry="18"/>
<text text-anchor="middle" x="321.189" y="-68.3" font-family="Times,serif" font-size="14.00" fill="gray">\Horde_Exception_Wrapped</text>
</g>
<!-- \\Horde_Vfs_Exception&#45;&gt;\\Horde_Exception_Wrapped -->
<g id="edge3" class="edge"><title>\\Horde_Vfs_Exception&#45;&gt;\\Horde_Exception_Wrapped</title>
<path fill="none" stroke="black" d="M534.11,-161.87C527.651,-159.196 521.284,-156.238 515.378,-153 479.589,-133.381 480.433,-113.11 443.378,-96 435.156,-92.2033 426.348,-89.0061 417.373,-86.3139"/>
<polygon fill="none" stroke="black" points="418.16,-82.8999 407.587,-83.5864 416.28,-89.6429 418.16,-82.8999"/>
</g>
<!-- \\Horde_Vfs_Gc -->
<g id="node5" class="node"><title>\\Horde_Vfs_Gc</title>
<polygon fill="none" stroke="black" points="643.378,-306 545.378,-306 545.378,-270 643.378,-270 643.378,-306"/>
<text text-anchor="middle" x="594.378" y="-285.2" font-family="Courier,monospace" font-size="11.00">Horde_Vfs_Gc</text>
</g>
<!-- \\Horde_Vfs_Smb -->
<g id="node6" class="node"><title>\\Horde_Vfs_Smb</title>
<polygon fill="none" stroke="black" points="373.189,-414 269.189,-414 269.189,-378 373.189,-378 373.189,-414"/>
<text text-anchor="middle" x="321.189" y="-393.2" font-family="Courier,monospace" font-size="11.00">Horde_Vfs_Smb</text>
</g>
<!-- \\Horde_Vfs_Smb&#45;&gt;\\Horde_Vfs_Base -->
<g id="edge4" class="edge"><title>\\Horde_Vfs_Smb&#45;&gt;\\Horde_Vfs_Base</title>
<path fill="none" stroke="black" d="M268.922,-386.759C247.121,-382.27 221.571,-376.263 199,-369 171.929,-360.289 142.669,-347.996 119.115,-337.339"/>
<polygon fill="none" stroke="black" points="120.274,-334.021 109.725,-333.042 117.361,-340.386 120.274,-334.021"/>
</g>
<!-- \\Horde_Vfs_Ssh2 -->
<g id="node7" class="node"><title>\\Horde_Vfs_Ssh2</title>
<polygon fill="none" stroke="black" points="376.689,-360 265.689,-360 265.689,-324 376.689,-324 376.689,-360"/>
<text text-anchor="middle" x="321.189" y="-339.2" font-family="Courier,monospace" font-size="11.00">Horde_Vfs_Ssh2</text>
</g>
<!-- \\Horde_Vfs_Ssh2&#45;&gt;\\Horde_Vfs_Base -->
<g id="edge5" class="edge"><title>\\Horde_Vfs_Ssh2&#45;&gt;\\Horde_Vfs_Base</title>
<path fill="none" stroke="black" d="M265.526,-336.041C227.651,-331.913 177.065,-326.398 137.18,-322.051"/>
<polygon fill="none" stroke="black" points="137.344,-318.548 127.023,-320.943 136.585,-325.507 137.344,-318.548"/>
</g>
<!-- \\Horde_Vfs_Sql -->
<g id="node8" class="node"><title>\\Horde_Vfs_Sql</title>
<polygon fill="none" stroke="black" points="373.189,-144 269.189,-144 269.189,-108 373.189,-108 373.189,-144"/>
<text text-anchor="middle" x="321.189" y="-123.2" font-family="Courier,monospace" font-size="11.00">Horde_Vfs_Sql</text>
</g>
<!-- \\Horde_Vfs_Sql&#45;&gt;\\Horde_Vfs_Base -->
<g id="edge6" class="edge"><title>\\Horde_Vfs_Sql&#45;&gt;\\Horde_Vfs_Base</title>
<path fill="none" stroke="black" d="M269.168,-129.544C246.309,-133.024 219.865,-139.816 199,-153 145.693,-186.683 105.705,-251.054 86.0475,-287.698"/>
<polygon fill="none" stroke="black" points="82.811,-286.333 81.2697,-296.815 89.0114,-289.582 82.811,-286.333"/>
</g>
<!-- \\Horde_Vfs_Mongo -->
<g id="node9" class="node"><title>\\Horde_Vfs_Mongo</title>
<polygon fill="none" stroke="black" points="380.189,-306 262.189,-306 262.189,-270 380.189,-270 380.189,-306"/>
<text text-anchor="middle" x="321.189" y="-285.2" font-family="Courier,monospace" font-size="11.00">Horde_Vfs_Mongo</text>
</g>
<!-- \\Horde_Vfs_Mongo&#45;&gt;\\Horde_Vfs_Base -->
<g id="edge7" class="edge"><title>\\Horde_Vfs_Mongo&#45;&gt;\\Horde_Vfs_Base</title>
<path fill="none" stroke="black" d="M262.117,-294.33C224.709,-298.408 176.021,-303.715 137.349,-307.931"/>
<polygon fill="none" stroke="black" points="136.798,-304.47 127.236,-309.033 137.557,-311.429 136.798,-304.47"/>
</g>
<!-- \\Horde_Vfs_SqlFile -->
<g id="node10" class="node"><title>\\Horde_Vfs_SqlFile</title>
<polygon fill="none" stroke="black" points="659.878,-360 528.878,-360 528.878,-324 659.878,-324 659.878,-360"/>
<text text-anchor="middle" x="594.378" y="-339.2" font-family="Courier,monospace" font-size="11.00">Horde_Vfs_SqlFile</text>
</g>
<!-- \\Horde_Vfs_File -->
<g id="node11" class="node"><title>\\Horde_Vfs_File</title>
<polygon fill="none" stroke="black" points="376.689,-252 265.689,-252 265.689,-216 376.689,-216 376.689,-252"/>
<text text-anchor="middle" x="321.189" y="-231.2" font-family="Courier,monospace" font-size="11.00">Horde_Vfs_File</text>
</g>
<!-- \\Horde_Vfs_SqlFile&#45;&gt;\\Horde_Vfs_File -->
<g id="edge8" class="edge"><title>\\Horde_Vfs_SqlFile&#45;&gt;\\Horde_Vfs_File</title>
<path fill="none" stroke="black" d="M534.607,-323.883C527.991,-321.194 521.453,-318.227 515.378,-315 480.054,-296.232 479.714,-277.724 443.378,-261 425.784,-252.902 405.612,-247.163 386.838,-243.123"/>
<polygon fill="none" stroke="black" points="387.37,-239.66 376.874,-241.107 385.981,-246.521 387.37,-239.66"/>
</g>
<!-- \\Horde_Vfs_File&#45;&gt;\\Horde_Vfs_Base -->
<g id="edge9" class="edge"><title>\\Horde_Vfs_File&#45;&gt;\\Horde_Vfs_Base</title>
<path fill="none" stroke="black" d="M265.624,-243.926C244.573,-248.334 220.443,-254.1 199,-261 171.929,-269.711 142.669,-282.004 119.115,-292.661"/>
<polygon fill="none" stroke="black" points="117.361,-289.614 109.725,-296.958 120.274,-295.979 117.361,-289.614"/>
</g>
<!-- \\Horde_Vfs_Ftp -->
<g id="node12" class="node"><title>\\Horde_Vfs_Ftp</title>
<polygon fill="none" stroke="black" points="373.189,-198 269.189,-198 269.189,-162 373.189,-162 373.189,-198"/>
<text text-anchor="middle" x="321.189" y="-177.2" font-family="Courier,monospace" font-size="11.00">Horde_Vfs_Ftp</text>
</g>
<!-- \\Horde_Vfs_Ftp&#45;&gt;\\Horde_Vfs_Base -->
<g id="edge10" class="edge"><title>\\Horde_Vfs_Ftp&#45;&gt;\\Horde_Vfs_Base</title>
<path fill="none" stroke="black" d="M269.095,-185.732C246.729,-189.645 220.698,-196.17 199,-207 157.967,-227.48 119.161,-264.114 95.6108,-288.977"/>
<polygon fill="none" stroke="black" points="92.7669,-286.895 88.5171,-296.601 97.8916,-291.664 92.7669,-286.895"/>
</g>
<!-- \\Horde_Vfs_Musql -->
<g id="node13" class="node"><title>\\Horde_Vfs_Musql</title>
<polygon fill="none" stroke="black" points="653.378,-252 535.378,-252 535.378,-216 653.378,-216 653.378,-252"/>
<text text-anchor="middle" x="594.378" y="-231.2" font-family="Courier,monospace" font-size="11.00">Horde_Vfs_Musql</text>
</g>
<!-- \\Horde_Vfs_Musql&#45;&gt;\\Horde_Vfs_Sql -->
<g id="edge11" class="edge"><title>\\Horde_Vfs_Musql&#45;&gt;\\Horde_Vfs_Sql</title>
<path fill="none" stroke="black" d="M535.02,-216.051C528.264,-213.317 521.579,-210.295 515.378,-207 480.054,-188.232 479.714,-169.724 443.378,-153 424.617,-144.365 402.924,-138.411 383.121,-134.342"/>
<polygon fill="none" stroke="black" points="383.752,-130.899 373.269,-132.437 382.422,-137.772 383.752,-130.899"/>
</g>
<!-- \\Horde_Vfs_Translation -->
<g id="node15" class="node"><title>\\Horde_Vfs_Translation</title>
<polygon fill="none" stroke="black" points="673.378,-144 515.378,-144 515.378,-108 673.378,-108 673.378,-144"/>
<text text-anchor="middle" x="594.378" y="-123.2" font-family="Courier,monospace" font-size="11.00">Horde_Vfs_Translation</text>
</g>
<!-- \\Horde_Translation_Autodetect -->
<g id="node17" class="node"><title>\\Horde_Translation_Autodetect</title>
<ellipse fill="none" stroke="black" cx="321.189" cy="-18" rx="122.379" ry="18"/>
<text text-anchor="middle" x="321.189" y="-14.3" font-family="Times,serif" font-size="14.00" fill="gray">\Horde_Translation_Autodetect</text>
</g>
<!-- \\Horde_Vfs_Translation&#45;&gt;\\Horde_Translation_Autodetect -->
<g id="edge12" class="edge"><title>\\Horde_Vfs_Translation&#45;&gt;\\Horde_Translation_Autodetect</title>
<path fill="none" stroke="black" d="M565.456,-107.868C536.137,-89.5743 488.159,-61.7113 443.378,-45 432.492,-40.9374 420.817,-37.3885 409.167,-34.3172"/>
<polygon fill="none" stroke="black" points="409.959,-30.9073 399.406,-31.8488 408.243,-37.6937 409.959,-30.9073"/>
</g>
</g>
</svg>
