<?xml version="1.0" encoding="UTF-8" standalone="no"?>
<!DOCTYPE svg PUBLIC "-//W3C//DTD SVG 1.1//EN"
 "http://www.w3.org/Graphics/SVG/1.1/DTD/svg11.dtd">
<!-- Generated by graphviz version 2.38.0 (20140413.2041)
 -->
<!-- Title: G Pages: 1 -->
<svg width="819pt" height="294pt"
 viewBox="0.00 0.00 819.38 294.00" xmlns="http://www.w3.org/2000/svg" xmlns:xlink="http://www.w3.org/1999/xlink">
<g id="graph0" class="graph" transform="scale(1 1) rotate(0) translate(4 290)">
<title>G</title>
<polygon fill="white" stroke="none" points="-4,4 -4,-290 815.378,-290 815.378,4 -4,4"/>
<g id="clust1" class="cluster"><title>cluster_Global</title>
<path fill="none" stroke="gray" d="M20,-98C20,-98 791.378,-98 791.378,-98 797.378,-98 803.378,-104 803.378,-110 803.378,-110 803.378,-266 803.378,-266 803.378,-272 797.378,-278 791.378,-278 791.378,-278 20,-278 20,-278 14,-278 8,-272 8,-266 8,-266 8,-110 8,-110 8,-104 14,-98 20,-98"/>
<text text-anchor="middle" x="405.689" y="-265.2" font-family="Times,serif" font-size="11.00" fill="gray">Global</text>
</g>
<!-- \\Horde_ListHeaders_Id -->
<g id="node1" class="node"><title>\\Horde_ListHeaders_Id</title>
<polygon fill="none" stroke="black" points="465.189,-250 313.189,-250 313.189,-214 465.189,-214 465.189,-250"/>
<text text-anchor="middle" x="389.189" y="-229.2" font-family="Courier,monospace" font-size="11.00">Horde_ListHeaders_Id</text>
</g>
<!-- \\Horde_ListHeaders_Object -->
<g id="node2" class="node"><title>\\Horde_ListHeaders_Object</title>
<polygon fill="none" stroke="black" points="195,-223 16,-223 16,-187 195,-187 195,-223"/>
<text text-anchor="middle" x="105.5" y="-202.2" font-family="Courier,monospace" font-size="11.00">Horde_ListHeaders_Object</text>
</g>
<!-- \\Horde_ListHeaders_Id&#45;&gt;\\Horde_ListHeaders_Object -->
<g id="edge1" class="edge"><title>\\Horde_ListHeaders_Id&#45;&gt;\\Horde_ListHeaders_Object</title>
<path fill="none" stroke="black" d="M313.072,-224.8C280.066,-221.636 240.854,-217.878 205.507,-214.49"/>
<polygon fill="none" stroke="black" points="205.451,-210.969 195.163,-213.498 204.783,-217.937 205.451,-210.969"/>
</g>
<!-- \\Horde_ListHeaders_NoPost -->
<g id="node3" class="node"><title>\\Horde_ListHeaders_NoPost</title>
<polygon fill="none" stroke="black" points="778.878,-250 599.878,-250 599.878,-214 778.878,-214 778.878,-250"/>
<text text-anchor="middle" x="689.378" y="-229.2" font-family="Courier,monospace" font-size="11.00">Horde_ListHeaders_NoPost</text>
</g>
<!-- \\Horde_ListHeaders_Base -->
<g id="node4" class="node"><title>\\Horde_ListHeaders_Base</title>
<polygon fill="none" stroke="black" points="471.689,-196 306.689,-196 306.689,-160 471.689,-160 471.689,-196"/>
<text text-anchor="middle" x="389.189" y="-175.2" font-family="Courier,monospace" font-size="11.00">Horde_ListHeaders_Base</text>
</g>
<!-- \\Horde_ListHeaders_NoPost&#45;&gt;\\Horde_ListHeaders_Base -->
<g id="edge2" class="edge"><title>\\Horde_ListHeaders_NoPost&#45;&gt;\\Horde_ListHeaders_Base</title>
<path fill="none" stroke="black" d="M599.719,-215.944C562.527,-209.209 519.296,-201.38 481.794,-194.589"/>
<polygon fill="none" stroke="black" points="482.35,-191.133 471.886,-192.795 481.103,-198.021 482.35,-191.133"/>
</g>
<!-- \\Horde_ListHeaders_Base&#45;&gt;\\Horde_ListHeaders_Object -->
<g id="edge3" class="edge"><title>\\Horde_ListHeaders_Base&#45;&gt;\\Horde_ListHeaders_Object</title>
<path fill="none" stroke="black" d="M306.335,-185.846C274.831,-188.865 238.522,-192.346 205.568,-195.504"/>
<polygon fill="none" stroke="black" points="205.078,-192.035 195.457,-196.473 205.746,-199.003 205.078,-192.035"/>
</g>
<!-- \\Horde_ListHeaders_Translation -->
<g id="node5" class="node"><title>\\Horde_ListHeaders_Translation</title>
<polygon fill="none" stroke="black" points="795.378,-196 583.378,-196 583.378,-160 795.378,-160 795.378,-196"/>
<text text-anchor="middle" x="689.378" y="-175.2" font-family="Courier,monospace" font-size="11.00">Horde_ListHeaders_Translation</text>
</g>
<!-- \\Horde_Translation_Autodetect -->
<g id="node7" class="node"><title>\\Horde_Translation_Autodetect</title>
<ellipse fill="none" stroke="black" cx="389.189" cy="-72" rx="122.379" ry="18"/>
<text text-anchor="middle" x="389.189" y="-68.3" font-family="Times,serif" font-size="14.00" fill="gray">\Horde_Translation_Autodetect</text>
</g>
<!-- \\Horde_ListHeaders_Translation&#45;&gt;\\Horde_Translation_Autodetect -->
<g id="edge4" class="edge"><title>\\Horde_ListHeaders_Translation&#45;&gt;\\Horde_Translation_Autodetect</title>
<path fill="none" stroke="black" d="M604.671,-159.92C597.322,-157.307 590.122,-154.347 583.378,-151 546.819,-132.856 548.568,-110.814 511.378,-94 505.225,-91.2182 498.746,-88.7879 492.115,-86.6648"/>
<polygon fill="none" stroke="black" points="492.894,-83.2452 482.312,-83.7687 490.911,-89.9585 492.894,-83.2452"/>
</g>
<!-- \\Horde_ListHeaders -->
<g id="node6" class="node"><title>\\Horde_ListHeaders</title>
<polygon fill="none" stroke="black" points="754.878,-142 623.878,-142 623.878,-106 754.878,-106 754.878,-142"/>
<text text-anchor="middle" x="689.378" y="-121.2" font-family="Courier,monospace" font-size="11.00">Horde_ListHeaders</text>
</g>
<!-- \\Horde_Mail_Rfc822 -->
<g id="node8" class="node"><title>\\Horde_Mail_Rfc822</title>
<ellipse fill="none" stroke="black" cx="389.189" cy="-18" rx="87.1846" ry="18"/>
<text text-anchor="middle" x="389.189" y="-14.3" font-family="Times,serif" font-size="14.00" fill="gray">\Horde_Mail_Rfc822</text>
</g>
<!-- \\Horde_ListHeaders&#45;&gt;\\Horde_Mail_Rfc822 -->
<g id="edge5" class="edge"><title>\\Horde_ListHeaders&#45;&gt;\\Horde_Mail_Rfc822</title>
<path fill="none" stroke="black" d="M653.61,-105.973C618.504,-88.3766 562.335,-61.8586 511.378,-45 496.605,-40.1125 480.528,-35.8345 465.055,-32.2109"/>
<polygon fill="none" stroke="black" points="465.522,-28.7279 454.995,-29.9244 463.971,-35.5538 465.522,-28.7279"/>
</g>
</g>
</svg>
