<?xml version="1.0" encoding="UTF-8" standalone="no"?>
<!DOCTYPE svg PUBLIC "-//W3C//DTD SVG 1.1//EN"
 "http://www.w3.org/Graphics/SVG/1.1/DTD/svg11.dtd">
<!-- Generated by graphviz version 2.38.0 (20140413.2041)
 -->
<!-- Title: G Pages: 1 -->
<svg width="1152pt" height="1680pt"
 viewBox="0.00 0.00 1151.88 1680.00" xmlns="http://www.w3.org/2000/svg" xmlns:xlink="http://www.w3.org/1999/xlink">
<g id="graph0" class="graph" transform="scale(1 1) rotate(0) translate(4 1676)">
<title>G</title>
<polygon fill="white" stroke="none" points="-4,4 -4,-1676 1147.88,-1676 1147.88,4 -4,4"/>
<g id="clust1" class="cluster"><title>cluster_Global</title>
<path fill="none" stroke="gray" d="M20,-152C20,-152 1123.88,-152 1123.88,-152 1129.88,-152 1135.88,-158 1135.88,-164 1135.88,-164 1135.88,-1616 1135.88,-1616 1135.88,-1622 1129.88,-1628 1123.88,-1628 1123.88,-1628 20,-1628 20,-1628 14,-1628 8,-1622 8,-1616 8,-1616 8,-164 8,-164 8,-158 14,-152 20,-152"/>
<text text-anchor="middle" x="571.94" y="-1615.2" font-family="Times,serif" font-size="11.00" fill="gray">Global</text>
</g>
<!-- \\Horde_Db_Exception -->
<g id="node1" class="node"><title>\\Horde_Db_Exception</title>
<polygon fill="none" stroke="black" points="711.88,-1600 573.88,-1600 573.88,-1564 711.88,-1564 711.88,-1600"/>
<text text-anchor="middle" x="642.88" y="-1579.2" font-family="Courier,monospace" font-size="11.00">Horde_Db_Exception</text>
</g>
<!-- \\Horde_Exception_Wrapped -->
<g id="node42" class="node"><title>\\Horde_Exception_Wrapped</title>
<ellipse fill="none" stroke="black" cx="325.44" cy="-1654" rx="112.38" ry="18"/>
<text text-anchor="middle" x="325.44" y="-1650.3" font-family="Times,serif" font-size="14.00" fill="gray">\Horde_Exception_Wrapped</text>
</g>
<!-- \\Horde_Db_Exception&#45;&gt;\\Horde_Exception_Wrapped -->
<g id="edge1" class="edge"><title>\\Horde_Db_Exception&#45;&gt;\\Horde_Exception_Wrapped</title>
<path fill="none" stroke="black" d="M573.596,-1599.56C534.056,-1609.52 483.276,-1621.96 437.88,-1632 428.349,-1634.11 418.337,-1636.22 408.386,-1638.26"/>
<polygon fill="none" stroke="black" points="407.58,-1634.86 398.477,-1640.28 408.973,-1641.72 407.58,-1634.86"/>
</g>
<!-- \\Horde_Db_Value_Lob -->
<g id="node2" class="node"><title>\\Horde_Db_Value_Lob</title>
<polygon fill="none" stroke="black" points="711.88,-1519 573.88,-1519 573.88,-1483 711.88,-1483 711.88,-1519"/>
<text text-anchor="start" x="608.88" y="-1504.2" font-family="Courier,monospace" font-size="11.00">«abstract»</text>
<text text-anchor="start" x="581.88" y="-1492.2" font-family="Courier,monospace" font-size="11.00">Horde_Db_Value_Lob</text>
</g>
<!-- \\Horde_Db_Value -->
<g id="node41" class="node"><title>\\Horde_Db_Value</title>
<polygon fill="none" stroke="black" points="380.94,-1519 269.94,-1519 269.94,-1483 380.94,-1483 380.94,-1519"/>
<text text-anchor="middle" x="325.44" y="-1498.2" font-family="Courier,monospace" font-size="11.00">Horde_Db_Value</text>
</g>
<!-- \\Horde_Db_Value_Lob&#45;&gt;\\Horde_Db_Value -->
<g id="edge2" class="edge"><title>\\Horde_Db_Value_Lob&#45;&gt;\\Horde_Db_Value</title>
<path fill="none" stroke="black" stroke-dasharray="1,5" d="M573.823,-1501C519.63,-1501 444.29,-1501 391.028,-1501"/>
<polygon fill="none" stroke="black" points="391.017,-1497.5 381.017,-1501 391.017,-1504.5 391.017,-1497.5"/>
</g>
<!-- \\Horde_Db_Value_Binary -->
<g id="node3" class="node"><title>\\Horde_Db_Value_Binary</title>
<polygon fill="none" stroke="black" points="1066.88,-1546 908.88,-1546 908.88,-1510 1066.88,-1510 1066.88,-1546"/>
<text text-anchor="middle" x="987.88" y="-1525.2" font-family="Courier,monospace" font-size="11.00">Horde_Db_Value_Binary</text>
</g>
<!-- \\Horde_Db_Value_Binary&#45;&gt;\\Horde_Db_Value_Lob -->
<g id="edge3" class="edge"><title>\\Horde_Db_Value_Binary&#45;&gt;\\Horde_Db_Value_Lob</title>
<path fill="none" stroke="black" d="M908.619,-1521.84C852.778,-1517.44 777.99,-1511.56 722.148,-1507.16"/>
<polygon fill="none" stroke="black" points="722.194,-1503.65 711.95,-1506.36 721.645,-1510.63 722.194,-1503.65"/>
</g>
<!-- \\Horde_Db_Value_Text -->
<g id="node4" class="node"><title>\\Horde_Db_Value_Text</title>
<polygon fill="none" stroke="black" points="1060.38,-1492 915.38,-1492 915.38,-1456 1060.38,-1456 1060.38,-1492"/>
<text text-anchor="middle" x="987.88" y="-1471.2" font-family="Courier,monospace" font-size="11.00">Horde_Db_Value_Text</text>
</g>
<!-- \\Horde_Db_Value_Text&#45;&gt;\\Horde_Db_Value_Lob -->
<g id="edge4" class="edge"><title>\\Horde_Db_Value_Text&#45;&gt;\\Horde_Db_Value_Lob</title>
<path fill="none" stroke="black" d="M914.976,-1479.66C858.547,-1484.1 780.104,-1490.28 722.111,-1494.84"/>
<polygon fill="none" stroke="black" points="721.589,-1491.37 711.895,-1495.65 722.139,-1498.35 721.589,-1491.37"/>
</g>
<!-- \\Horde_Db_StatementParser -->
<g id="node5" class="node"><title>\\Horde_Db_StatementParser</title>
<polygon fill="none" stroke="black" points="1077.38,-466 898.38,-466 898.38,-430 1077.38,-430 1077.38,-466"/>
<text text-anchor="middle" x="987.88" y="-445.2" font-family="Courier,monospace" font-size="11.00">Horde_Db_StatementParser</text>
</g>
<!-- \\Iterator -->
<g id="node43" class="node"><title>\\Iterator</title>
<ellipse fill="none" stroke="black" cx="325.44" cy="-126" rx="38.9931" ry="18"/>
<text text-anchor="middle" x="325.44" y="-122.3" font-family="Times,serif" font-size="14.00" fill="gray">\Iterator</text>
</g>
<!-- \\Horde_Db_StatementParser&#45;&gt;\\Iterator -->
<g id="edge5" class="edge"><title>\\Horde_Db_StatementParser&#45;&gt;\\Iterator</title>
<path fill="none" stroke="black" stroke-dasharray="1,5" d="M898.336,-445.804C879.805,-441.506 861.717,-433.917 847.88,-421 757.096,-336.252 872.224,-229.37 775.88,-151 715.51,-101.893 477.055,-114.063 374.142,-121.887"/>
<polygon fill="none" stroke="black" points="373.729,-118.409 364.031,-122.676 374.273,-125.388 373.729,-118.409"/>
</g>
<!-- \\Horde_Db_Adapter_Sqlite_Schema -->
<g id="node6" class="node"><title>\\Horde_Db_Adapter_Sqlite_Schema</title>
<polygon fill="none" stroke="black" points="1097.38,-1384 878.38,-1384 878.38,-1348 1097.38,-1348 1097.38,-1384"/>
<text text-anchor="middle" x="987.88" y="-1363.2" font-family="Courier,monospace" font-size="11.00">Horde_Db_Adapter_Sqlite_Schema</text>
</g>
<!-- \\Horde_Db_Adapter_Base_Schema -->
<g id="node13" class="node"><title>\\Horde_Db_Adapter_Base_Schema</title>
<polygon fill="none" stroke="black" points="745.88,-1303 539.88,-1303 539.88,-1267 745.88,-1267 745.88,-1303"/>
<text text-anchor="start" x="608.88" y="-1288.2" font-family="Courier,monospace" font-size="11.00">«abstract»</text>
<text text-anchor="start" x="547.88" y="-1276.2" font-family="Courier,monospace" font-size="11.00">Horde_Db_Adapter_Base_Schema</text>
</g>
<!-- \\Horde_Db_Adapter_Sqlite_Schema&#45;&gt;\\Horde_Db_Adapter_Base_Schema -->
<g id="edge6" class="edge"><title>\\Horde_Db_Adapter_Sqlite_Schema&#45;&gt;\\Horde_Db_Adapter_Base_Schema</title>
<path fill="none" stroke="black" d="M883.571,-1347.93C871.469,-1345.22 859.354,-1342.24 847.88,-1339 814.991,-1329.71 808.723,-1321.45 775.88,-1312 767.802,-1309.67 759.39,-1307.47 750.898,-1305.4"/>
<polygon fill="none" stroke="black" points="751.446,-1301.93 740.908,-1303.03 749.83,-1308.74 751.446,-1301.93"/>
</g>
<!-- \\Horde_Db_Adapter_Sqlite_Column -->
<g id="node7" class="node"><title>\\Horde_Db_Adapter_Sqlite_Column</title>
<polygon fill="none" stroke="black" points="1097.38,-952 878.38,-952 878.38,-916 1097.38,-916 1097.38,-952"/>
<text text-anchor="middle" x="987.88" y="-931.2" font-family="Courier,monospace" font-size="11.00">Horde_Db_Adapter_Sqlite_Column</text>
</g>
<!-- \\Horde_Db_Adapter_Base_Column -->
<g id="node19" class="node"><title>\\Horde_Db_Adapter_Base_Column</title>
<polygon fill="none" stroke="black" points="745.88,-1168 539.88,-1168 539.88,-1132 745.88,-1132 745.88,-1168"/>
<text text-anchor="middle" x="642.88" y="-1147.2" font-family="Courier,monospace" font-size="11.00">Horde_Db_Adapter_Base_Column</text>
</g>
<!-- \\Horde_Db_Adapter_Sqlite_Column&#45;&gt;\\Horde_Db_Adapter_Base_Column -->
<g id="edge7" class="edge"><title>\\Horde_Db_Adapter_Sqlite_Column&#45;&gt;\\Horde_Db_Adapter_Base_Column</title>
<path fill="none" stroke="black" d="M878.292,-944.217C867.327,-948.342 856.92,-953.805 847.88,-961 786.231,-1010.06 837.286,-1073.63 775.88,-1123 769.663,-1128 762.761,-1132.14 755.465,-1135.58"/>
<polygon fill="none" stroke="black" points="753.891,-1132.44 746.036,-1139.55 756.61,-1138.89 753.891,-1132.44"/>
</g>
<!-- \\Horde_Db_Adapter_Mysqli_Result -->
<g id="node8" class="node"><title>\\Horde_Db_Adapter_Mysqli_Result</title>
<polygon fill="none" stroke="black" points="1097.38,-574 878.38,-574 878.38,-538 1097.38,-538 1097.38,-574"/>
<text text-anchor="middle" x="987.88" y="-553.2" font-family="Courier,monospace" font-size="11.00">Horde_Db_Adapter_Mysqli_Result</text>
</g>
<!-- \\Horde_Db_Adapter_Base_Result -->
<g id="node14" class="node"><title>\\Horde_Db_Adapter_Base_Result</title>
<polygon fill="none" stroke="black" points="745.88,-628 539.88,-628 539.88,-592 745.88,-592 745.88,-628"/>
<text text-anchor="start" x="608.88" y="-613.2" font-family="Courier,monospace" font-size="11.00">«abstract»</text>
<text text-anchor="start" x="547.88" y="-601.2" font-family="Courier,monospace" font-size="11.00">Horde_Db_Adapter_Base_Result</text>
</g>
<!-- \\Horde_Db_Adapter_Mysqli_Result&#45;&gt;\\Horde_Db_Adapter_Base_Result -->
<g id="edge8" class="edge"><title>\\Horde_Db_Adapter_Mysqli_Result&#45;&gt;\\Horde_Db_Adapter_Base_Result</title>
<path fill="none" stroke="black" d="M878.353,-573.086C839.362,-579.224 795.328,-586.157 756.034,-592.343"/>
<polygon fill="none" stroke="black" points="755.487,-588.886 746.153,-593.899 756.575,-595.801 755.487,-588.886"/>
</g>
<!-- \\Horde_Db_Adapter_Mysqli -->
<g id="node9" class="node"><title>\\Horde_Db_Adapter_Mysqli</title>
<polygon fill="none" stroke="black" points="728.88,-1357 556.88,-1357 556.88,-1321 728.88,-1321 728.88,-1357"/>
<text text-anchor="middle" x="642.88" y="-1336.2" font-family="Courier,monospace" font-size="11.00">Horde_Db_Adapter_Mysqli</text>
</g>
<!-- \\Horde_Db_Adapter_Base -->
<g id="node26" class="node"><title>\\Horde_Db_Adapter_Base</title>
<polygon fill="none" stroke="black" points="404.44,-1235 246.44,-1235 246.44,-1199 404.44,-1199 404.44,-1235"/>
<text text-anchor="start" x="291.44" y="-1220.2" font-family="Courier,monospace" font-size="11.00">«abstract»</text>
<text text-anchor="start" x="254.44" y="-1208.2" font-family="Courier,monospace" font-size="11.00">Horde_Db_Adapter_Base</text>
</g>
<!-- \\Horde_Db_Adapter_Mysqli&#45;&gt;\\Horde_Db_Adapter_Base -->
<g id="edge9" class="edge"><title>\\Horde_Db_Adapter_Mysqli&#45;&gt;\\Horde_Db_Adapter_Base</title>
<path fill="none" stroke="black" d="M556.785,-1325.2C540.979,-1321.63 524.766,-1317.26 509.88,-1312 456.887,-1293.27 400.03,-1261.87 363.899,-1240.33"/>
<polygon fill="none" stroke="black" points="365.548,-1237.24 355.175,-1235.08 361.939,-1243.23 365.548,-1237.24"/>
</g>
<!-- \\Horde_Db_Adapter_Mysql_Schema -->
<g id="node10" class="node"><title>\\Horde_Db_Adapter_Mysql_Schema</title>
<polygon fill="none" stroke="black" points="1093.88,-1330 881.88,-1330 881.88,-1294 1093.88,-1294 1093.88,-1330"/>
<text text-anchor="middle" x="987.88" y="-1309.2" font-family="Courier,monospace" font-size="11.00">Horde_Db_Adapter_Mysql_Schema</text>
</g>
<!-- \\Horde_Db_Adapter_Mysql_Schema&#45;&gt;\\Horde_Db_Adapter_Base_Schema -->
<g id="edge10" class="edge"><title>\\Horde_Db_Adapter_Mysql_Schema&#45;&gt;\\Horde_Db_Adapter_Base_Schema</title>
<path fill="none" stroke="black" d="M881.638,-1303.72C841.88,-1300.59 796.509,-1297.01 756.132,-1293.84"/>
<polygon fill="none" stroke="black" points="756.225,-1290.33 745.981,-1293.04 755.676,-1297.31 756.225,-1290.33"/>
</g>
<!-- \\Horde_Db_Adapter_Mysql_Result -->
<g id="node11" class="node"><title>\\Horde_Db_Adapter_Mysql_Result</title>
<polygon fill="none" stroke="black" points="1093.88,-736 881.88,-736 881.88,-700 1093.88,-700 1093.88,-736"/>
<text text-anchor="middle" x="987.88" y="-715.2" font-family="Courier,monospace" font-size="11.00">Horde_Db_Adapter_Mysql_Result</text>
</g>
<!-- \\Horde_Db_Adapter_Mysql_Result&#45;&gt;\\Horde_Db_Adapter_Base_Result -->
<g id="edge11" class="edge"><title>\\Horde_Db_Adapter_Mysql_Result&#45;&gt;\\Horde_Db_Adapter_Base_Result</title>
<path fill="none" stroke="black" d="M882.761,-699.975C870.919,-697.276 859.086,-694.282 847.88,-691 793.257,-675.002 732.928,-650.098 692.147,-632.127"/>
<polygon fill="none" stroke="black" points="693.544,-628.918 682.984,-628.061 690.705,-635.316 693.544,-628.918"/>
</g>
<!-- \\Horde_Db_Adapter_Mysql_Column -->
<g id="node12" class="node"><title>\\Horde_Db_Adapter_Mysql_Column</title>
<polygon fill="none" stroke="black" points="1093.88,-1222 881.88,-1222 881.88,-1186 1093.88,-1186 1093.88,-1222"/>
<text text-anchor="middle" x="987.88" y="-1201.2" font-family="Courier,monospace" font-size="11.00">Horde_Db_Adapter_Mysql_Column</text>
</g>
<!-- \\Horde_Db_Adapter_Mysql_Column&#45;&gt;\\Horde_Db_Adapter_Base_Column -->
<g id="edge12" class="edge"><title>\\Horde_Db_Adapter_Mysql_Column&#45;&gt;\\Horde_Db_Adapter_Base_Column</title>
<path fill="none" stroke="black" d="M881.638,-1187.43C841.796,-1181.16 796.316,-1174 755.876,-1167.63"/>
<polygon fill="none" stroke="black" points="756.404,-1164.17 745.981,-1166.07 755.315,-1171.09 756.404,-1164.17"/>
</g>
<!-- \\Horde_Db_Adapter_Base_Result&#45;&gt;\\Iterator -->
<g id="edge13" class="edge"><title>\\Horde_Db_Adapter_Base_Result&#45;&gt;\\Iterator</title>
<path fill="none" stroke="black" stroke-dasharray="1,5" d="M639.785,-591.837C630.702,-521.942 588.139,-268.258 437.88,-148 420.216,-133.863 396.003,-127.978 374.658,-125.789"/>
<polygon fill="none" stroke="black" points="374.694,-122.281 364.451,-124.991 374.148,-129.26 374.694,-122.281"/>
</g>
<!-- \\Horde_Db_Adapter_Base_ColumnDefinition -->
<g id="node15" class="node"><title>\\Horde_Db_Adapter_Base_ColumnDefinition</title>
<polygon fill="none" stroke="black" points="1124.38,-1114 851.38,-1114 851.38,-1078 1124.38,-1078 1124.38,-1114"/>
<text text-anchor="middle" x="987.88" y="-1093.2" font-family="Courier,monospace" font-size="11.00">Horde_Db_Adapter_Base_ColumnDefinition</text>
</g>
<!-- \\Horde_Db_Adapter_Base_TableDefinition -->
<g id="node16" class="node"><title>\\Horde_Db_Adapter_Base_TableDefinition</title>
<polygon fill="none" stroke="black" points="775.88,-196 509.88,-196 509.88,-160 775.88,-160 775.88,-196"/>
<text text-anchor="middle" x="642.88" y="-175.2" font-family="Courier,monospace" font-size="11.00">Horde_Db_Adapter_Base_TableDefinition</text>
</g>
<!-- \\ArrayAccess -->
<g id="node44" class="node"><title>\\ArrayAccess</title>
<ellipse fill="none" stroke="black" cx="325.44" cy="-72" rx="58.4896" ry="18"/>
<text text-anchor="middle" x="325.44" y="-68.3" font-family="Times,serif" font-size="14.00" fill="gray">\ArrayAccess</text>
</g>
<!-- \\Horde_Db_Adapter_Base_TableDefinition&#45;&gt;\\ArrayAccess -->
<g id="edge14" class="edge"><title>\\Horde_Db_Adapter_Base_TableDefinition&#45;&gt;\\ArrayAccess</title>
<path fill="none" stroke="black" stroke-dasharray="1,5" d="M599.87,-159.856C559.023,-142.663 494.962,-116.882 437.88,-99 420.571,-93.5775 401.466,-88.5946 384.036,-84.4253"/>
<polygon fill="none" stroke="black" points="384.528,-80.9458 373.993,-82.0673 382.928,-87.7605 384.528,-80.9458"/>
</g>
<!-- \\IteratorAggregate -->
<g id="node45" class="node"><title>\\IteratorAggregate</title>
<ellipse fill="none" stroke="black" cx="325.44" cy="-18" rx="75.2868" ry="18"/>
<text text-anchor="middle" x="325.44" y="-14.3" font-family="Times,serif" font-size="14.00" fill="gray">\IteratorAggregate</text>
</g>
<!-- \\Horde_Db_Adapter_Base_TableDefinition&#45;&gt;\\IteratorAggregate -->
<g id="edge15" class="edge"><title>\\Horde_Db_Adapter_Base_TableDefinition&#45;&gt;\\IteratorAggregate</title>
<path fill="none" stroke="black" stroke-dasharray="1,5" d="M616.633,-159.983C570.76,-127.512 475.044,-61.0521 437.88,-45 424.939,-39.4103 410.631,-34.8471 396.701,-31.1702"/>
<polygon fill="none" stroke="black" points="397.202,-27.6874 386.651,-28.6475 395.498,-34.4768 397.202,-27.6874"/>
</g>
<!-- \\Horde_Db_Adapter_Base_Table -->
<g id="node17" class="node"><title>\\Horde_Db_Adapter_Base_Table</title>
<polygon fill="none" stroke="black" points="1087.38,-412 888.38,-412 888.38,-376 1087.38,-376 1087.38,-412"/>
<text text-anchor="middle" x="987.88" y="-391.2" font-family="Courier,monospace" font-size="11.00">Horde_Db_Adapter_Base_Table</text>
</g>
<!-- \\Horde_Db_Adapter_Base_Table&#45;&gt;\\ArrayAccess -->
<g id="edge16" class="edge"><title>\\Horde_Db_Adapter_Base_Table&#45;&gt;\\ArrayAccess</title>
<path fill="none" stroke="black" stroke-dasharray="1,5" d="M641.88,-72C557.432,-34.5012 447.278,-46.4316 381.985,-58.9247"/>
<polygon fill="none" stroke="black" points="381.029,-55.5462 371.902,-60.9271 382.392,-62.4121 381.029,-55.5462"/>
</g>
<!-- \\Horde_Db_Adapter_Base_Table&#45;&gt;\\IteratorAggregate -->
<g id="edge17" class="edge"><title>\\Horde_Db_Adapter_Base_Table&#45;&gt;\\IteratorAggregate</title>
<path fill="none" stroke="black" stroke-dasharray="1,5" d="M888.061,-388.881C873.251,-384.343 859.182,-377.408 847.88,-367 760.938,-286.935 858.905,-195.121 775.88,-111 732.908,-67.461 699.79,-96.8263 643.88,-72"/>
<path fill="none" stroke="black" stroke-dasharray="1,5" d="M641.88,-72C567.892,-39.146 475.941,-26.1974 410.443,-21.1384"/>
<polygon fill="none" stroke="black" points="410.392,-17.6256 400.165,-20.3923 409.885,-24.6072 410.392,-17.6256"/>
</g>
<!-- \\Horde_Db_Adapter_Base_Index -->
<g id="node18" class="node"><title>\\Horde_Db_Adapter_Base_Index</title>
<polygon fill="none" stroke="black" points="1087.38,-1006 888.38,-1006 888.38,-970 1087.38,-970 1087.38,-1006"/>
<text text-anchor="middle" x="987.88" y="-985.2" font-family="Courier,monospace" font-size="11.00">Horde_Db_Adapter_Base_Index</text>
</g>
<!-- \\Horde_Db_Adapter_SplitRead -->
<g id="node20" class="node"><title>\\Horde_Db_Adapter_SplitRead</title>
<polygon fill="none" stroke="black" points="421.44,-1181 229.44,-1181 229.44,-1145 421.44,-1145 421.44,-1181"/>
<text text-anchor="middle" x="325.44" y="-1160.2" font-family="Courier,monospace" font-size="11.00">Horde_Db_Adapter_SplitRead</text>
</g>
<!-- \\Horde_Db_Adapter -->
<g id="node40" class="node"><title>\\Horde_Db_Adapter</title>
<polygon fill="none" stroke="black" points="141,-1208 16,-1208 16,-1172 141,-1172 141,-1208"/>
<text text-anchor="middle" x="78.5" y="-1187.2" font-family="Courier,monospace" font-size="11.00">Horde_Db_Adapter</text>
</g>
<!-- \\Horde_Db_Adapter_SplitRead&#45;&gt;\\Horde_Db_Adapter -->
<g id="edge18" class="edge"><title>\\Horde_Db_Adapter_SplitRead&#45;&gt;\\Horde_Db_Adapter</title>
<path fill="none" stroke="black" stroke-dasharray="1,5" d="M229.389,-1173.48C203.503,-1176.33 175.894,-1179.37 151.517,-1182.06"/>
<polygon fill="none" stroke="black" points="150.838,-1178.62 141.282,-1183.19 151.605,-1185.57 150.838,-1178.62"/>
</g>
<!-- \\Horde_Db_Adapter_Oci8 -->
<g id="node21" class="node"><title>\\Horde_Db_Adapter_Oci8</title>
<polygon fill="none" stroke="black" points="721.88,-1114 563.88,-1114 563.88,-1078 721.88,-1078 721.88,-1114"/>
<text text-anchor="middle" x="642.88" y="-1093.2" font-family="Courier,monospace" font-size="11.00">Horde_Db_Adapter_Oci8</text>
</g>
<!-- \\Horde_Db_Adapter_Oci8&#45;&gt;\\Horde_Db_Adapter_Base -->
<g id="edge19" class="edge"><title>\\Horde_Db_Adapter_Oci8&#45;&gt;\\Horde_Db_Adapter_Base</title>
<path fill="none" stroke="black" d="M563.739,-1104.66C545.406,-1108.66 526.412,-1114.49 509.88,-1123 471.02,-1143.01 476.375,-1169.29 437.88,-1190 430.446,-1194 422.417,-1197.41 414.194,-1200.33"/>
<polygon fill="none" stroke="black" points="412.881,-1197.08 404.476,-1203.53 415.068,-1203.73 412.881,-1197.08"/>
</g>
<!-- \\Horde_Db_Adapter_Oracle_Schema -->
<g id="node22" class="node"><title>\\Horde_Db_Adapter_Oracle_Schema</title>
<polygon fill="none" stroke="black" points="1097.38,-1276 878.38,-1276 878.38,-1240 1097.38,-1240 1097.38,-1276"/>
<text text-anchor="middle" x="987.88" y="-1255.2" font-family="Courier,monospace" font-size="11.00">Horde_Db_Adapter_Oracle_Schema</text>
</g>
<!-- \\Horde_Db_Adapter_Oracle_Schema&#45;&gt;\\Horde_Db_Adapter_Base_Schema -->
<g id="edge20" class="edge"><title>\\Horde_Db_Adapter_Oracle_Schema&#45;&gt;\\Horde_Db_Adapter_Base_Schema</title>
<path fill="none" stroke="black" d="M878.353,-1266.54C839.444,-1269.61 795.514,-1273.06 756.284,-1276.15"/>
<polygon fill="none" stroke="black" points="755.847,-1272.68 746.153,-1276.95 756.397,-1279.65 755.847,-1272.68"/>
</g>
<!-- \\Horde_Db_Adapter_Oracle_Result -->
<g id="node23" class="node"><title>\\Horde_Db_Adapter_Oracle_Result</title>
<polygon fill="none" stroke="black" points="1097.38,-682 878.38,-682 878.38,-646 1097.38,-646 1097.38,-682"/>
<text text-anchor="middle" x="987.88" y="-661.2" font-family="Courier,monospace" font-size="11.00">Horde_Db_Adapter_Oracle_Result</text>
</g>
<!-- \\Horde_Db_Adapter_Oracle_Result&#45;&gt;\\Horde_Db_Adapter_Base_Result -->
<g id="edge21" class="edge"><title>\\Horde_Db_Adapter_Oracle_Result&#45;&gt;\\Horde_Db_Adapter_Base_Result</title>
<path fill="none" stroke="black" d="M878.353,-646.914C839.362,-640.776 795.328,-633.843 756.034,-627.657"/>
<polygon fill="none" stroke="black" points="756.575,-624.199 746.153,-626.101 755.487,-631.114 756.575,-624.199"/>
</g>
<!-- \\Horde_Db_Adapter_Oracle_TableDefinition -->
<g id="node24" class="node"><title>\\Horde_Db_Adapter_Oracle_TableDefinition</title>
<polygon fill="none" stroke="black" points="1127.88,-520 847.88,-520 847.88,-484 1127.88,-484 1127.88,-520"/>
<text text-anchor="middle" x="987.88" y="-499.2" font-family="Courier,monospace" font-size="11.00">Horde_Db_Adapter_Oracle_TableDefinition</text>
</g>
<!-- \\Horde_Db_Adapter_Oracle_TableDefinition&#45;&gt;\\Horde_Db_Adapter_Base_TableDefinition -->
<g id="edge22" class="edge"><title>\\Horde_Db_Adapter_Oracle_TableDefinition&#45;&gt;\\Horde_Db_Adapter_Base_TableDefinition</title>
<path fill="none" stroke="black" d="M864.152,-483.954C858.481,-481.339 853.019,-478.37 847.88,-475 744.035,-406.905 678.573,-265.825 654.411,-205.9"/>
<polygon fill="none" stroke="black" points="657.564,-204.357 650.632,-196.345 651.055,-206.931 657.564,-204.357"/>
</g>
<!-- \\Horde_Db_Adapter_Oracle_Column -->
<g id="node25" class="node"><title>\\Horde_Db_Adapter_Oracle_Column</title>
<polygon fill="none" stroke="black" points="1097.38,-1168 878.38,-1168 878.38,-1132 1097.38,-1132 1097.38,-1168"/>
<text text-anchor="middle" x="987.88" y="-1147.2" font-family="Courier,monospace" font-size="11.00">Horde_Db_Adapter_Oracle_Column</text>
</g>
<!-- \\Horde_Db_Adapter_Oracle_Column&#45;&gt;\\Horde_Db_Adapter_Base_Column -->
<g id="edge23" class="edge"><title>\\Horde_Db_Adapter_Oracle_Column&#45;&gt;\\Horde_Db_Adapter_Base_Column</title>
<path fill="none" stroke="black" d="M878.353,-1150C839.444,-1150 795.514,-1150 756.284,-1150"/>
<polygon fill="none" stroke="black" points="756.153,-1146.5 746.153,-1150 756.153,-1153.5 756.153,-1146.5"/>
</g>
<!-- \\Horde_Db_Adapter_Base&#45;&gt;\\Horde_Db_Adapter -->
<g id="edge24" class="edge"><title>\\Horde_Db_Adapter_Base&#45;&gt;\\Horde_Db_Adapter</title>
<path fill="none" stroke="black" stroke-dasharray="1,5" d="M246.266,-1208.38C215.833,-1205.03 181.182,-1201.21 151.38,-1197.92"/>
<polygon fill="none" stroke="black" points="151.379,-1194.4 141.055,-1196.79 150.612,-1201.36 151.379,-1194.4"/>
</g>
<!-- \\Horde_Db_Adapter_Postgresql_Schema -->
<g id="node27" class="node"><title>\\Horde_Db_Adapter_Postgresql_Schema</title>
<polygon fill="none" stroke="black" points="1110.88,-1438 864.88,-1438 864.88,-1402 1110.88,-1402 1110.88,-1438"/>
<text text-anchor="middle" x="987.88" y="-1417.2" font-family="Courier,monospace" font-size="11.00">Horde_Db_Adapter_Postgresql_Schema</text>
</g>
<!-- \\Horde_Db_Adapter_Postgresql_Schema&#45;&gt;\\Horde_Db_Adapter_Base_Schema -->
<g id="edge25" class="edge"><title>\\Horde_Db_Adapter_Postgresql_Schema&#45;&gt;\\Horde_Db_Adapter_Base_Schema</title>
<path fill="none" stroke="black" d="M866.385,-1401.87C859.969,-1399.29 853.753,-1396.35 847.88,-1393 806.033,-1369.15 817.609,-1336.06 775.88,-1312 769.541,-1308.35 762.78,-1305.18 755.795,-1302.44"/>
<polygon fill="none" stroke="black" points="756.745,-1299.06 746.15,-1298.96 754.37,-1305.65 756.745,-1299.06"/>
</g>
<!-- \\Horde_Db_Adapter_Postgresql_Column -->
<g id="node28" class="node"><title>\\Horde_Db_Adapter_Postgresql_Column</title>
<polygon fill="none" stroke="black" points="1110.88,-1060 864.88,-1060 864.88,-1024 1110.88,-1024 1110.88,-1060"/>
<text text-anchor="middle" x="987.88" y="-1039.2" font-family="Courier,monospace" font-size="11.00">Horde_Db_Adapter_Postgresql_Column</text>
</g>
<!-- \\Horde_Db_Adapter_Postgresql_Column&#45;&gt;\\Horde_Db_Adapter_Base_Column -->
<g id="edge26" class="edge"><title>\\Horde_Db_Adapter_Postgresql_Column&#45;&gt;\\Horde_Db_Adapter_Base_Column</title>
<path fill="none" stroke="black" d="M871.82,-1060.05C863.582,-1062.64 855.52,-1065.61 847.88,-1069 811.319,-1085.23 812.361,-1106.59 775.88,-1123 769.573,-1125.84 762.963,-1128.38 756.203,-1130.65"/>
<polygon fill="none" stroke="black" points="754.696,-1127.46 746.211,-1133.8 756.8,-1134.14 754.696,-1127.46"/>
</g>
<!-- \\Horde_Db_Adapter_Pdo_Pgsql -->
<g id="node29" class="node"><title>\\Horde_Db_Adapter_Pdo_Pgsql</title>
<polygon fill="none" stroke="black" points="1083.88,-898 891.88,-898 891.88,-862 1083.88,-862 1083.88,-898"/>
<text text-anchor="middle" x="987.88" y="-877.2" font-family="Courier,monospace" font-size="11.00">Horde_Db_Adapter_Pdo_Pgsql</text>
</g>
<!-- \\Horde_Db_Adapter_Pdo_Base -->
<g id="node32" class="node"><title>\\Horde_Db_Adapter_Pdo_Base</title>
<polygon fill="none" stroke="black" points="735.38,-871 550.38,-871 550.38,-835 735.38,-835 735.38,-871"/>
<text text-anchor="start" x="608.88" y="-856.2" font-family="Courier,monospace" font-size="11.00">«abstract»</text>
<text text-anchor="start" x="558.38" y="-844.2" font-family="Courier,monospace" font-size="11.00">Horde_Db_Adapter_Pdo_Base</text>
</g>
<!-- \\Horde_Db_Adapter_Pdo_Pgsql&#45;&gt;\\Horde_Db_Adapter_Pdo_Base -->
<g id="edge27" class="edge"><title>\\Horde_Db_Adapter_Pdo_Pgsql&#45;&gt;\\Horde_Db_Adapter_Pdo_Base</title>
<path fill="none" stroke="black" d="M891.791,-872.515C846.353,-868.938 791.92,-864.653 745.649,-861.011"/>
<polygon fill="none" stroke="black" points="745.846,-857.516 735.602,-860.22 745.297,-864.494 745.846,-857.516"/>
</g>
<!-- \\Horde_Db_Adapter_Pdo_Result -->
<g id="node30" class="node"><title>\\Horde_Db_Adapter_Pdo_Result</title>
<polygon fill="none" stroke="black" points="1087.38,-628 888.38,-628 888.38,-592 1087.38,-592 1087.38,-628"/>
<text text-anchor="middle" x="987.88" y="-607.2" font-family="Courier,monospace" font-size="11.00">Horde_Db_Adapter_Pdo_Result</text>
</g>
<!-- \\Horde_Db_Adapter_Pdo_Result&#45;&gt;\\Horde_Db_Adapter_Base_Result -->
<g id="edge28" class="edge"><title>\\Horde_Db_Adapter_Pdo_Result&#45;&gt;\\Horde_Db_Adapter_Base_Result</title>
<path fill="none" stroke="black" d="M888.13,-610C846.906,-610 798.797,-610 756.229,-610"/>
<polygon fill="none" stroke="black" points="756.105,-606.5 746.105,-610 756.105,-613.5 756.105,-606.5"/>
</g>
<!-- \\Horde_Db_Adapter_Pdo_Sqlite -->
<g id="node31" class="node"><title>\\Horde_Db_Adapter_Pdo_Sqlite</title>
<polygon fill="none" stroke="black" points="1087.38,-844 888.38,-844 888.38,-808 1087.38,-808 1087.38,-844"/>
<text text-anchor="middle" x="987.88" y="-823.2" font-family="Courier,monospace" font-size="11.00">Horde_Db_Adapter_Pdo_Sqlite</text>
</g>
<!-- \\Horde_Db_Adapter_Pdo_Sqlite&#45;&gt;\\Horde_Db_Adapter_Pdo_Base -->
<g id="edge29" class="edge"><title>\\Horde_Db_Adapter_Pdo_Sqlite&#45;&gt;\\Horde_Db_Adapter_Pdo_Base</title>
<path fill="none" stroke="black" d="M888.13,-833.773C843.42,-837.293 790.612,-841.45 745.557,-844.996"/>
<polygon fill="none" stroke="black" points="745.169,-841.516 735.475,-845.79 745.719,-848.494 745.169,-841.516"/>
</g>
<!-- \\Horde_Db_Adapter_Pdo_Base&#45;&gt;\\Horde_Db_Adapter_Base -->
<g id="edge30" class="edge"><title>\\Horde_Db_Adapter_Pdo_Base&#45;&gt;\\Horde_Db_Adapter_Base</title>
<path fill="none" stroke="black" d="M630.682,-871.162C607.833,-908.254 554.249,-995.425 509.88,-1069 477.564,-1122.59 488.228,-1152.84 437.88,-1190 430.723,-1195.28 422.67,-1199.54 414.251,-1202.98"/>
<polygon fill="none" stroke="black" points="412.798,-1199.78 404.618,-1206.52 415.212,-1206.35 412.798,-1199.78"/>
</g>
<!-- \\Horde_Db_Adapter_Pdo_Mysql -->
<g id="node33" class="node"><title>\\Horde_Db_Adapter_Pdo_Mysql</title>
<polygon fill="none" stroke="black" points="1083.88,-790 891.88,-790 891.88,-754 1083.88,-754 1083.88,-790"/>
<text text-anchor="middle" x="987.88" y="-769.2" font-family="Courier,monospace" font-size="11.00">Horde_Db_Adapter_Pdo_Mysql</text>
</g>
<!-- \\Horde_Db_Adapter_Pdo_Mysql&#45;&gt;\\Horde_Db_Adapter_Pdo_Base -->
<g id="edge31" class="edge"><title>\\Horde_Db_Adapter_Pdo_Mysql&#45;&gt;\\Horde_Db_Adapter_Pdo_Base</title>
<path fill="none" stroke="black" d="M891.742,-789.602C877.021,-792.579 862.017,-795.76 847.88,-799 804.445,-808.956 756.233,-821.641 717.588,-832.215"/>
<polygon fill="none" stroke="black" points="716.183,-828.971 707.467,-834.995 718.037,-835.721 716.183,-828.971"/>
</g>
<!-- \\Horde_Db_Adapter_Mysql -->
<g id="node34" class="node"><title>\\Horde_Db_Adapter_Mysql</title>
<polygon fill="none" stroke="black" points="725.38,-1411 560.38,-1411 560.38,-1375 725.38,-1375 725.38,-1411"/>
<text text-anchor="middle" x="642.88" y="-1390.2" font-family="Courier,monospace" font-size="11.00">Horde_Db_Adapter_Mysql</text>
</g>
<!-- \\Horde_Db_Adapter_Mysql&#45;&gt;\\Horde_Db_Adapter_Base -->
<g id="edge32" class="edge"><title>\\Horde_Db_Adapter_Mysql&#45;&gt;\\Horde_Db_Adapter_Base</title>
<path fill="none" stroke="black" d="M560.317,-1382.69C543.157,-1378.78 525.526,-1373.4 509.88,-1366 444.816,-1335.21 382.78,-1276.65 350.177,-1242.84"/>
<polygon fill="none" stroke="black" points="352.346,-1240.04 342.917,-1235.21 347.276,-1244.86 352.346,-1240.04"/>
</g>
<!-- \\Horde_Db_Migration_Exception -->
<g id="node35" class="node"><title>\\Horde_Db_Migration_Exception</title>
<polygon fill="none" stroke="black" points="1090.88,-1600 884.88,-1600 884.88,-1564 1090.88,-1564 1090.88,-1600"/>
<text text-anchor="middle" x="987.88" y="-1579.2" font-family="Courier,monospace" font-size="11.00">Horde_Db_Migration_Exception</text>
</g>
<!-- \\Horde_Db_Migration_Exception&#45;&gt;\\Horde_Db_Exception -->
<g id="edge33" class="edge"><title>\\Horde_Db_Migration_Exception&#45;&gt;\\Horde_Db_Exception</title>
<path fill="none" stroke="black" d="M884.433,-1582C832.37,-1582 770.114,-1582 721.982,-1582"/>
<polygon fill="none" stroke="black" points="721.934,-1578.5 711.934,-1582 721.934,-1585.5 721.934,-1578.5"/>
</g>
<!-- \\Horde_Db_Migration_Migrator -->
<g id="node36" class="node"><title>\\Horde_Db_Migration_Migrator</title>
<polygon fill="none" stroke="black" points="1087.38,-358 888.38,-358 888.38,-322 1087.38,-322 1087.38,-358"/>
<text text-anchor="middle" x="987.88" y="-337.2" font-family="Courier,monospace" font-size="11.00">Horde_Db_Migration_Migrator</text>
</g>
<!-- \\Horde_Db_Migration_Base -->
<g id="node37" class="node"><title>\\Horde_Db_Migration_Base</title>
<polygon fill="none" stroke="black" points="1073.88,-304 901.88,-304 901.88,-268 1073.88,-268 1073.88,-304"/>
<text text-anchor="middle" x="987.88" y="-283.2" font-family="Courier,monospace" font-size="11.00">Horde_Db_Migration_Base</text>
</g>
<!-- \\Horde_Db_SearchParser -->
<g id="node38" class="node"><title>\\Horde_Db_SearchParser</title>
<polygon fill="none" stroke="black" points="1066.88,-250 908.88,-250 908.88,-214 1066.88,-214 1066.88,-250"/>
<text text-anchor="middle" x="987.88" y="-229.2" font-family="Courier,monospace" font-size="11.00">Horde_Db_SearchParser</text>
</g>
<!-- \\Horde_Db -->
<g id="node39" class="node"><title>\\Horde_Db</title>
<polygon fill="none" stroke="black" points="1023.38,-196 952.38,-196 952.38,-160 1023.38,-160 1023.38,-196"/>
<text text-anchor="middle" x="987.88" y="-175.2" font-family="Courier,monospace" font-size="11.00">Horde_Db</text>
</g>
</g>
</svg>
