<?xml version="1.0" encoding="UTF-8" standalone="no"?>
<!DOCTYPE svg PUBLIC "-//W3C//DTD SVG 1.1//EN"
 "http://www.w3.org/Graphics/SVG/1.1/DTD/svg11.dtd">
<!-- Generated by graphviz version 2.38.0 (20140413.2041)
 -->
<!-- Title: G Pages: 1 -->
<svg width="720pt" height="2616pt"
 viewBox="0.00 0.00 719.75 2616.00" xmlns="http://www.w3.org/2000/svg" xmlns:xlink="http://www.w3.org/1999/xlink">
<g id="graph0" class="graph" transform="scale(1 1) rotate(0) translate(4 2612)">
<title>G</title>
<polygon fill="white" stroke="none" points="-4,4 -4,-2612 715.746,-2612 715.746,4 -4,4"/>
<g id="clust1" class="cluster"><title>cluster_Global</title>
<path fill="none" stroke="gray" d="M20,-44C20,-44 691.746,-44 691.746,-44 697.746,-44 703.746,-50 703.746,-56 703.746,-56 703.746,-2588 703.746,-2588 703.746,-2594 697.746,-2600 691.746,-2600 691.746,-2600 20,-2600 20,-2600 14,-2600 8,-2594 8,-2588 8,-2588 8,-56 8,-56 8,-50 14,-44 20,-44"/>
<text text-anchor="middle" x="355.873" y="-2587.2" font-family="Times,serif" font-size="11.00" fill="gray">Global</text>
</g>
<!-- \\TType -->
<g id="node1" class="node"><title>\\TType</title>
<polygon fill="none" stroke="black" points="569.246,-2572 515.246,-2572 515.246,-2536 569.246,-2536 569.246,-2572"/>
<text text-anchor="middle" x="542.246" y="-2551.2" font-family="Courier,monospace" font-size="11.00">TType</text>
</g>
<!-- \\TMessageType -->
<g id="node2" class="node"><title>\\TMessageType</title>
<polygon fill="none" stroke="black" points="591.246,-2518 493.246,-2518 493.246,-2482 591.246,-2482 591.246,-2518"/>
<text text-anchor="middle" x="542.246" y="-2497.2" font-family="Courier,monospace" font-size="11.00">TMessageType</text>
</g>
<!-- \\TException -->
<g id="node3" class="node"><title>\\TException</title>
<polygon fill="none" stroke="black" points="289.746,-169 205.746,-169 205.746,-133 289.746,-133 289.746,-169"/>
<text text-anchor="middle" x="247.746" y="-148.2" font-family="Courier,monospace" font-size="11.00">TException</text>
</g>
<!-- \\Exception -->
<g id="node61" class="node"><title>\\Exception</title>
<ellipse fill="none" stroke="black" cx="58" cy="-18" rx="48.9926" ry="18"/>
<text text-anchor="middle" x="58" y="-14.3" font-family="Times,serif" font-size="14.00" fill="gray">\Exception</text>
</g>
<!-- \\TException&#45;&gt;\\Exception -->
<g id="edge1" class="edge"><title>\\TException&#45;&gt;\\Exception</title>
<path fill="none" stroke="black" d="M227.009,-132.828C200.879,-109.383 152.727,-68.2597 106.746,-40 104.568,-38.6619 102.296,-37.3534 99.9762,-36.0839"/>
<polygon fill="none" stroke="black" points="101.38,-32.8701 90.8877,-31.4014 98.1742,-39.0928 101.38,-32.8701"/>
</g>
<!-- \\TBase -->
<g id="node4" class="node"><title>\\TBase</title>
<polygon fill="none" stroke="black" points="584.246,-2464 500.246,-2464 500.246,-2428 584.246,-2428 584.246,-2464"/>
<text text-anchor="start" x="508.246" y="-2449.2" font-family="Courier,monospace" font-size="11.00">«abstract»</text>
<text text-anchor="start" x="525.246" y="-2437.2" font-family="Courier,monospace" font-size="11.00">TBase</text>
</g>
<!-- \\TApplicationException -->
<g id="node5" class="node"><title>\\TApplicationException</title>
<polygon fill="none" stroke="black" points="621.246,-250 463.246,-250 463.246,-214 621.246,-214 621.246,-250"/>
<text text-anchor="middle" x="542.246" y="-229.2" font-family="Courier,monospace" font-size="11.00">TApplicationException</text>
</g>
<!-- \\TApplicationException&#45;&gt;\\TException -->
<g id="edge2" class="edge"><title>\\TApplicationException&#45;&gt;\\TException</title>
<path fill="none" stroke="black" d="M463.014,-221.128C438.972,-216.992 412.575,-211.638 388.746,-205 358.237,-196.501 325.133,-183.897 298.778,-173.002"/>
<polygon fill="none" stroke="black" points="299.967,-169.706 289.391,-169.077 297.266,-176.164 299.967,-169.706"/>
</g>
<!-- \\TMemoryBuffer -->
<g id="node6" class="node"><title>\\TMemoryBuffer</title>
<polygon fill="none" stroke="black" points="299.746,-2356 195.746,-2356 195.746,-2320 299.746,-2320 299.746,-2356"/>
<text text-anchor="middle" x="247.746" y="-2335.2" font-family="Courier,monospace" font-size="11.00">TMemoryBuffer</text>
</g>
<!-- \\TTransport -->
<g id="node10" class="node"><title>\\TTransport</title>
<polygon fill="none" stroke="black" points="100,-2410 16,-2410 16,-2374 100,-2374 100,-2410"/>
<text text-anchor="start" x="24" y="-2395.2" font-family="Courier,monospace" font-size="11.00">«abstract»</text>
<text text-anchor="start" x="24" y="-2383.2" font-family="Courier,monospace" font-size="11.00">TTransport</text>
</g>
<!-- \\TMemoryBuffer&#45;&gt;\\TTransport -->
<g id="edge3" class="edge"><title>\\TMemoryBuffer&#45;&gt;\\TTransport</title>
<path fill="none" stroke="black" d="M195.443,-2352.76C168.872,-2360.4 136.528,-2369.7 110.001,-2377.33"/>
<polygon fill="none" stroke="black" points="108.786,-2374.04 100.144,-2380.17 110.721,-2380.77 108.786,-2374.04"/>
</g>
<!-- \\TFramedTransport -->
<g id="node7" class="node"><title>\\TFramedTransport</title>
<polygon fill="none" stroke="black" points="310.246,-2302 185.246,-2302 185.246,-2266 310.246,-2266 310.246,-2302"/>
<text text-anchor="middle" x="247.746" y="-2281.2" font-family="Courier,monospace" font-size="11.00">TFramedTransport</text>
</g>
<!-- \\TFramedTransport&#45;&gt;\\TTransport -->
<g id="edge4" class="edge"><title>\\TFramedTransport&#45;&gt;\\TTransport</title>
<path fill="none" stroke="black" d="M197.51,-2302.07C191.099,-2304.85 184.697,-2307.85 178.746,-2311 147.325,-2327.61 114.025,-2350.63 90.5392,-2367.89"/>
<polygon fill="none" stroke="black" points="88.2982,-2365.19 82.3522,-2373.96 92.4688,-2370.81 88.2982,-2365.19"/>
</g>
<!-- \\TNullTransport -->
<g id="node8" class="node"><title>\\TNullTransport</title>
<polygon fill="none" stroke="black" points="303.246,-2248 192.246,-2248 192.246,-2212 303.246,-2212 303.246,-2248"/>
<text text-anchor="middle" x="247.746" y="-2227.2" font-family="Courier,monospace" font-size="11.00">TNullTransport</text>
</g>
<!-- \\TNullTransport&#45;&gt;\\TTransport -->
<g id="edge5" class="edge"><title>\\TNullTransport&#45;&gt;\\TTransport</title>
<path fill="none" stroke="black" d="M193.848,-2248.1C188.561,-2250.76 183.426,-2253.72 178.746,-2257 135.79,-2287.12 97.7905,-2335.61 76.6458,-2365.54"/>
<polygon fill="none" stroke="black" points="73.7204,-2363.62 70.8882,-2373.82 79.4688,-2367.61 73.7204,-2363.62"/>
</g>
<!-- \\TTransportException -->
<g id="node9" class="node"><title>\\TTransportException</title>
<polygon fill="none" stroke="black" points="614.746,-196 469.746,-196 469.746,-160 614.746,-160 614.746,-196"/>
<text text-anchor="middle" x="542.246" y="-175.2" font-family="Courier,monospace" font-size="11.00">TTransportException</text>
</g>
<!-- \\TTransportException&#45;&gt;\\TException -->
<g id="edge6" class="edge"><title>\\TTransportException&#45;&gt;\\TException</title>
<path fill="none" stroke="black" d="M469.692,-171.395C417.064,-166.537 346.797,-160.051 299.769,-155.71"/>
<polygon fill="none" stroke="black" points="300.088,-152.225 289.809,-154.79 299.445,-159.195 300.088,-152.225"/>
</g>
<!-- \\TBufferedTransport -->
<g id="node11" class="node"><title>\\TBufferedTransport</title>
<polygon fill="none" stroke="black" points="316.746,-2572 178.746,-2572 178.746,-2536 316.746,-2536 316.746,-2572"/>
<text text-anchor="middle" x="247.746" y="-2551.2" font-family="Courier,monospace" font-size="11.00">TBufferedTransport</text>
</g>
<!-- \\TBufferedTransport&#45;&gt;\\TTransport -->
<g id="edge7" class="edge"><title>\\TBufferedTransport&#45;&gt;\\TTransport</title>
<path fill="none" stroke="black" d="M193.848,-2535.9C188.561,-2533.24 183.426,-2530.28 178.746,-2527 135.79,-2496.88 97.7905,-2448.39 76.6458,-2418.46"/>
<polygon fill="none" stroke="black" points="79.4688,-2416.39 70.8882,-2410.18 73.7204,-2420.38 79.4688,-2416.39"/>
</g>
<!-- \\THttpClient -->
<g id="node12" class="node"><title>\\THttpClient</title>
<polygon fill="none" stroke="black" points="293.246,-2518 202.246,-2518 202.246,-2482 293.246,-2482 293.246,-2518"/>
<text text-anchor="middle" x="247.746" y="-2497.2" font-family="Courier,monospace" font-size="11.00">THttpClient</text>
</g>
<!-- \\THttpClient&#45;&gt;\\TTransport -->
<g id="edge8" class="edge"><title>\\THttpClient&#45;&gt;\\TTransport</title>
<path fill="none" stroke="black" d="M202.222,-2483.93C194.267,-2480.61 186.157,-2476.92 178.746,-2473 147.325,-2456.39 114.025,-2433.37 90.5392,-2416.11"/>
<polygon fill="none" stroke="black" points="92.4688,-2413.19 82.3522,-2410.04 88.2982,-2418.81 92.4688,-2413.19"/>
</g>
<!-- \\TSocketPool -->
<g id="node13" class="node"><title>\\TSocketPool</title>
<polygon fill="none" stroke="black" points="587.746,-2410 496.746,-2410 496.746,-2374 587.746,-2374 587.746,-2410"/>
<text text-anchor="middle" x="542.246" y="-2389.2" font-family="Courier,monospace" font-size="11.00">TSocketPool</text>
</g>
<!-- \\TSocket -->
<g id="node14" class="node"><title>\\TSocket</title>
<polygon fill="none" stroke="black" points="279.746,-2410 215.746,-2410 215.746,-2374 279.746,-2374 279.746,-2410"/>
<text text-anchor="middle" x="247.746" y="-2389.2" font-family="Courier,monospace" font-size="11.00">TSocket</text>
</g>
<!-- \\TSocketPool&#45;&gt;\\TSocket -->
<g id="edge9" class="edge"><title>\\TSocketPool&#45;&gt;\\TSocket</title>
<path fill="none" stroke="black" d="M496.503,-2392C440.274,-2392 344.542,-2392 290.005,-2392"/>
<polygon fill="none" stroke="black" points="289.995,-2388.5 279.995,-2392 289.995,-2395.5 289.995,-2388.5"/>
</g>
<!-- \\TSocket&#45;&gt;\\TTransport -->
<g id="edge10" class="edge"><title>\\TSocket&#45;&gt;\\TTransport</title>
<path fill="none" stroke="black" d="M215.743,-2392C187.144,-2392 144.137,-2392 110.402,-2392"/>
<polygon fill="none" stroke="black" points="110.256,-2388.5 100.256,-2392 110.256,-2395.5 110.256,-2388.5"/>
</g>
<!-- \\TPhpStream -->
<g id="node15" class="node"><title>\\TPhpStream</title>
<polygon fill="none" stroke="black" points="289.746,-2464 205.746,-2464 205.746,-2428 289.746,-2428 289.746,-2464"/>
<text text-anchor="middle" x="247.746" y="-2443.2" font-family="Courier,monospace" font-size="11.00">TPhpStream</text>
</g>
<!-- \\TPhpStream&#45;&gt;\\TTransport -->
<g id="edge11" class="edge"><title>\\TPhpStream&#45;&gt;\\TTransport</title>
<path fill="none" stroke="black" d="M205.544,-2434.15C177.42,-2426.06 139.971,-2415.29 109.97,-2406.66"/>
<polygon fill="none" stroke="black" points="110.683,-2403.22 100.105,-2403.82 108.748,-2409.95 110.683,-2403.22"/>
</g>
<!-- \\TTypeTag -->
<g id="node16" class="node"><title>\\TTypeTag</title>
<polygon fill="none" stroke="black" points="577.746,-2248 506.746,-2248 506.746,-2212 577.746,-2212 577.746,-2248"/>
<text text-anchor="middle" x="542.246" y="-2227.2" font-family="Courier,monospace" font-size="11.00">TTypeTag</text>
</g>
<!-- \\SimpleType -->
<g id="node17" class="node"><title>\\SimpleType</title>
<polygon fill="none" stroke="black" points="584.246,-2194 500.246,-2194 500.246,-2158 584.246,-2158 584.246,-2194"/>
<text text-anchor="middle" x="542.246" y="-2173.2" font-family="Courier,monospace" font-size="11.00">SimpleType</text>
</g>
<!-- \\ContainerType -->
<g id="node18" class="node"><title>\\ContainerType</title>
<polygon fill="none" stroke="black" points="594.246,-2140 490.246,-2140 490.246,-2104 594.246,-2104 594.246,-2140"/>
<text text-anchor="middle" x="542.246" y="-2119.2" font-family="Courier,monospace" font-size="11.00">ContainerType</text>
</g>
<!-- \\ThriftType -->
<g id="node19" class="node"><title>\\ThriftType</title>
<polygon fill="none" stroke="black" points="584.246,-2086 500.246,-2086 500.246,-2050 584.246,-2050 584.246,-2086"/>
<text text-anchor="middle" x="542.246" y="-2065.2" font-family="Courier,monospace" font-size="11.00">ThriftType</text>
</g>
<!-- \\Argument -->
<g id="node20" class="node"><title>\\Argument</title>
<polygon fill="none" stroke="black" points="577.746,-2032 506.746,-2032 506.746,-1996 577.746,-1996 577.746,-2032"/>
<text text-anchor="middle" x="542.246" y="-2011.2" font-family="Courier,monospace" font-size="11.00">Argument</text>
</g>
<!-- \\Method -->
<g id="node21" class="node"><title>\\Method</title>
<polygon fill="none" stroke="black" points="570.746,-1978 513.746,-1978 513.746,-1942 570.746,-1942 570.746,-1978"/>
<text text-anchor="middle" x="542.246" y="-1957.2" font-family="Courier,monospace" font-size="11.00">Method</text>
</g>
<!-- \\Service -->
<g id="node22" class="node"><title>\\Service</title>
<polygon fill="none" stroke="black" points="574.246,-1924 510.246,-1924 510.246,-1888 574.246,-1888 574.246,-1924"/>
<text text-anchor="middle" x="542.246" y="-1903.2" font-family="Courier,monospace" font-size="11.00">Service</text>
</g>
<!-- \\FacebookServiceClient -->
<g id="node23" class="node"><title>\\FacebookServiceClient</title>
<polygon fill="none" stroke="black" points="621.246,-2302 463.246,-2302 463.246,-2266 621.246,-2266 621.246,-2302"/>
<text text-anchor="middle" x="542.246" y="-2281.2" font-family="Courier,monospace" font-size="11.00">FacebookServiceClient</text>
</g>
<!-- \\FacebookServiceIf -->
<g id="node59" class="node"><title>\\FacebookServiceIf</title>
<polygon fill="none" stroke="black" points="313.246,-2005 182.246,-2005 182.246,-1969 313.246,-1969 313.246,-2005"/>
<text text-anchor="middle" x="247.746" y="-1984.2" font-family="Courier,monospace" font-size="11.00">FacebookServiceIf</text>
</g>
<!-- \\FacebookServiceClient&#45;&gt;\\FacebookServiceIf -->
<g id="edge12" class="edge"><title>\\FacebookServiceClient&#45;&gt;\\FacebookServiceIf</title>
<path fill="none" stroke="black" stroke-dasharray="1,5" d="M462.942,-2283.67C437.302,-2280.22 409.977,-2272.61 388.746,-2257 346.026,-2225.6 284.178,-2077.31 259.501,-2014.85"/>
<polygon fill="none" stroke="black" points="262.645,-2013.28 255.734,-2005.25 256.128,-2015.84 262.645,-2013.28"/>
</g>
<!-- \\FacebookService_getName_args -->
<g id="node24" class="node"><title>\\FacebookService_getName_args</title>
<polygon fill="none" stroke="black" points="645.246,-1816 439.246,-1816 439.246,-1780 645.246,-1780 645.246,-1816"/>
<text text-anchor="middle" x="542.246" y="-1795.2" font-family="Courier,monospace" font-size="11.00">FacebookService_getName_args</text>
</g>
<!-- \\FacebookService_getName_result -->
<g id="node25" class="node"><title>\\FacebookService_getName_result</title>
<polygon fill="none" stroke="black" points="651.746,-1762 432.746,-1762 432.746,-1726 651.746,-1726 651.746,-1762"/>
<text text-anchor="middle" x="542.246" y="-1741.2" font-family="Courier,monospace" font-size="11.00">FacebookService_getName_result</text>
</g>
<!-- \\FacebookService_getVersion_args -->
<g id="node26" class="node"><title>\\FacebookService_getVersion_args</title>
<polygon fill="none" stroke="black" points="655.246,-1708 429.246,-1708 429.246,-1672 655.246,-1672 655.246,-1708"/>
<text text-anchor="middle" x="542.246" y="-1687.2" font-family="Courier,monospace" font-size="11.00">FacebookService_getVersion_args</text>
</g>
<!-- \\FacebookService_getVersion_result -->
<g id="node27" class="node"><title>\\FacebookService_getVersion_result</title>
<polygon fill="none" stroke="black" points="661.746,-1654 422.746,-1654 422.746,-1618 661.746,-1618 661.746,-1654"/>
<text text-anchor="middle" x="542.246" y="-1633.2" font-family="Courier,monospace" font-size="11.00">FacebookService_getVersion_result</text>
</g>
<!-- \\FacebookService_getStatus_args -->
<g id="node28" class="node"><title>\\FacebookService_getStatus_args</title>
<polygon fill="none" stroke="black" points="651.746,-1600 432.746,-1600 432.746,-1564 651.746,-1564 651.746,-1600"/>
<text text-anchor="middle" x="542.246" y="-1579.2" font-family="Courier,monospace" font-size="11.00">FacebookService_getStatus_args</text>
</g>
<!-- \\FacebookService_getStatus_result -->
<g id="node29" class="node"><title>\\FacebookService_getStatus_result</title>
<polygon fill="none" stroke="black" points="658.746,-1546 425.746,-1546 425.746,-1510 658.746,-1510 658.746,-1546"/>
<text text-anchor="middle" x="542.246" y="-1525.2" font-family="Courier,monospace" font-size="11.00">FacebookService_getStatus_result</text>
</g>
<!-- \\FacebookService_getStatusDetails_args -->
<g id="node30" class="node"><title>\\FacebookService_getStatusDetails_args</title>
<polygon fill="none" stroke="black" points="675.246,-1492 409.246,-1492 409.246,-1456 675.246,-1456 675.246,-1492"/>
<text text-anchor="middle" x="542.246" y="-1471.2" font-family="Courier,monospace" font-size="11.00">FacebookService_getStatusDetails_args</text>
</g>
<!-- \\FacebookService_getStatusDetails_result -->
<g id="node31" class="node"><title>\\FacebookService_getStatusDetails_result</title>
<polygon fill="none" stroke="black" points="682.246,-1438 402.246,-1438 402.246,-1402 682.246,-1402 682.246,-1438"/>
<text text-anchor="middle" x="542.246" y="-1417.2" font-family="Courier,monospace" font-size="11.00">FacebookService_getStatusDetails_result</text>
</g>
<!-- \\FacebookService_getCounters_args -->
<g id="node32" class="node"><title>\\FacebookService_getCounters_args</title>
<polygon fill="none" stroke="black" points="658.746,-1384 425.746,-1384 425.746,-1348 658.746,-1348 658.746,-1384"/>
<text text-anchor="middle" x="542.246" y="-1363.2" font-family="Courier,monospace" font-size="11.00">FacebookService_getCounters_args</text>
</g>
<!-- \\FacebookService_getCounters_result -->
<g id="node33" class="node"><title>\\FacebookService_getCounters_result</title>
<polygon fill="none" stroke="black" points="665.246,-1330 419.246,-1330 419.246,-1294 665.246,-1294 665.246,-1330"/>
<text text-anchor="middle" x="542.246" y="-1309.2" font-family="Courier,monospace" font-size="11.00">FacebookService_getCounters_result</text>
</g>
<!-- \\FacebookService_getCounter_args -->
<g id="node34" class="node"><title>\\FacebookService_getCounter_args</title>
<polygon fill="none" stroke="black" points="655.246,-1276 429.246,-1276 429.246,-1240 655.246,-1240 655.246,-1276"/>
<text text-anchor="middle" x="542.246" y="-1255.2" font-family="Courier,monospace" font-size="11.00">FacebookService_getCounter_args</text>
</g>
<!-- \\FacebookService_getCounter_result -->
<g id="node35" class="node"><title>\\FacebookService_getCounter_result</title>
<polygon fill="none" stroke="black" points="661.746,-1222 422.746,-1222 422.746,-1186 661.746,-1186 661.746,-1222"/>
<text text-anchor="middle" x="542.246" y="-1201.2" font-family="Courier,monospace" font-size="11.00">FacebookService_getCounter_result</text>
</g>
<!-- \\FacebookService_setOption_args -->
<g id="node36" class="node"><title>\\FacebookService_setOption_args</title>
<polygon fill="none" stroke="black" points="651.746,-1168 432.746,-1168 432.746,-1132 651.746,-1132 651.746,-1168"/>
<text text-anchor="middle" x="542.246" y="-1147.2" font-family="Courier,monospace" font-size="11.00">FacebookService_setOption_args</text>
</g>
<!-- \\FacebookService_setOption_result -->
<g id="node37" class="node"><title>\\FacebookService_setOption_result</title>
<polygon fill="none" stroke="black" points="658.746,-1114 425.746,-1114 425.746,-1078 658.746,-1078 658.746,-1114"/>
<text text-anchor="middle" x="542.246" y="-1093.2" font-family="Courier,monospace" font-size="11.00">FacebookService_setOption_result</text>
</g>
<!-- \\FacebookService_getOption_args -->
<g id="node38" class="node"><title>\\FacebookService_getOption_args</title>
<polygon fill="none" stroke="black" points="651.746,-1060 432.746,-1060 432.746,-1024 651.746,-1024 651.746,-1060"/>
<text text-anchor="middle" x="542.246" y="-1039.2" font-family="Courier,monospace" font-size="11.00">FacebookService_getOption_args</text>
</g>
<!-- \\FacebookService_getOption_result -->
<g id="node39" class="node"><title>\\FacebookService_getOption_result</title>
<polygon fill="none" stroke="black" points="658.746,-1006 425.746,-1006 425.746,-970 658.746,-970 658.746,-1006"/>
<text text-anchor="middle" x="542.246" y="-985.2" font-family="Courier,monospace" font-size="11.00">FacebookService_getOption_result</text>
</g>
<!-- \\FacebookService_getOptions_args -->
<g id="node40" class="node"><title>\\FacebookService_getOptions_args</title>
<polygon fill="none" stroke="black" points="655.246,-952 429.246,-952 429.246,-916 655.246,-916 655.246,-952"/>
<text text-anchor="middle" x="542.246" y="-931.2" font-family="Courier,monospace" font-size="11.00">FacebookService_getOptions_args</text>
</g>
<!-- \\FacebookService_getOptions_result -->
<g id="node41" class="node"><title>\\FacebookService_getOptions_result</title>
<polygon fill="none" stroke="black" points="661.746,-898 422.746,-898 422.746,-862 661.746,-862 661.746,-898"/>
<text text-anchor="middle" x="542.246" y="-877.2" font-family="Courier,monospace" font-size="11.00">FacebookService_getOptions_result</text>
</g>
<!-- \\FacebookService_getCpuProfile_args -->
<g id="node42" class="node"><title>\\FacebookService_getCpuProfile_args</title>
<polygon fill="none" stroke="black" points="665.246,-844 419.246,-844 419.246,-808 665.246,-808 665.246,-844"/>
<text text-anchor="middle" x="542.246" y="-823.2" font-family="Courier,monospace" font-size="11.00">FacebookService_getCpuProfile_args</text>
</g>
<!-- \\FacebookService_getCpuProfile_result -->
<g id="node43" class="node"><title>\\FacebookService_getCpuProfile_result</title>
<polygon fill="none" stroke="black" points="672.246,-790 412.246,-790 412.246,-754 672.246,-754 672.246,-790"/>
<text text-anchor="middle" x="542.246" y="-769.2" font-family="Courier,monospace" font-size="11.00">FacebookService_getCpuProfile_result</text>
</g>
<!-- \\FacebookService_aliveSince_args -->
<g id="node44" class="node"><title>\\FacebookService_aliveSince_args</title>
<polygon fill="none" stroke="black" points="655.246,-736 429.246,-736 429.246,-700 655.246,-700 655.246,-736"/>
<text text-anchor="middle" x="542.246" y="-715.2" font-family="Courier,monospace" font-size="11.00">FacebookService_aliveSince_args</text>
</g>
<!-- \\FacebookService_aliveSince_result -->
<g id="node45" class="node"><title>\\FacebookService_aliveSince_result</title>
<polygon fill="none" stroke="black" points="661.746,-682 422.746,-682 422.746,-646 661.746,-646 661.746,-682"/>
<text text-anchor="middle" x="542.246" y="-661.2" font-family="Courier,monospace" font-size="11.00">FacebookService_aliveSince_result</text>
</g>
<!-- \\FacebookService_getLimitedReflection_args -->
<g id="node46" class="node"><title>\\FacebookService_getLimitedReflection_args</title>
<polygon fill="none" stroke="black" points="688.746,-628 395.746,-628 395.746,-592 688.746,-592 688.746,-628"/>
<text text-anchor="middle" x="542.246" y="-607.2" font-family="Courier,monospace" font-size="11.00">FacebookService_getLimitedReflection_args</text>
</g>
<!-- \\FacebookService_getLimitedReflection_result -->
<g id="node47" class="node"><title>\\FacebookService_getLimitedReflection_result</title>
<polygon fill="none" stroke="black" points="695.746,-574 388.746,-574 388.746,-538 695.746,-538 695.746,-574"/>
<text text-anchor="middle" x="542.246" y="-553.2" font-family="Courier,monospace" font-size="11.00">FacebookService_getLimitedReflection_result</text>
</g>
<!-- \\FacebookService_reinitialize_args -->
<g id="node48" class="node"><title>\\FacebookService_reinitialize_args</title>
<polygon fill="none" stroke="black" points="661.746,-520 422.746,-520 422.746,-484 661.746,-484 661.746,-520"/>
<text text-anchor="middle" x="542.246" y="-499.2" font-family="Courier,monospace" font-size="11.00">FacebookService_reinitialize_args</text>
</g>
<!-- \\FacebookService_shutdown_args -->
<g id="node49" class="node"><title>\\FacebookService_shutdown_args</title>
<polygon fill="none" stroke="black" points="648.246,-466 436.246,-466 436.246,-430 648.246,-430 648.246,-466"/>
<text text-anchor="middle" x="542.246" y="-445.2" font-family="Courier,monospace" font-size="11.00">FacebookService_shutdown_args</text>
</g>
<!-- \\FacebookServiceProcessor -->
<g id="node50" class="node"><title>\\FacebookServiceProcessor</title>
<polygon fill="none" stroke="black" points="631.746,-412 452.746,-412 452.746,-376 631.746,-376 631.746,-412"/>
<text text-anchor="middle" x="542.246" y="-391.2" font-family="Courier,monospace" font-size="11.00">FacebookServiceProcessor</text>
</g>
<!-- \\fb_status -->
<g id="node51" class="node"><title>\\fb_status</title>
<polygon fill="none" stroke="black" points="580.746,-358 503.746,-358 503.746,-322 580.746,-322 580.746,-358"/>
<text text-anchor="middle" x="542.246" y="-337.2" font-family="Courier,monospace" font-size="11.00">fb_status</text>
</g>
<!-- \\FacebookBase -->
<g id="node52" class="node"><title>\\FacebookBase</title>
<polygon fill="none" stroke="black" points="591.246,-1870 493.246,-1870 493.246,-1834 591.246,-1834 591.246,-1870"/>
<text text-anchor="middle" x="542.246" y="-1849.2" font-family="Courier,monospace" font-size="11.00">FacebookBase</text>
</g>
<!-- \\FacebookBase&#45;&gt;\\FacebookServiceIf -->
<g id="edge13" class="edge"><title>\\FacebookBase&#45;&gt;\\FacebookServiceIf</title>
<path fill="none" stroke="black" stroke-dasharray="1,5" d="M493.151,-1854.59C462.238,-1857.67 421.823,-1864.38 388.746,-1879 343.514,-1898.99 299.769,-1936.59 273.552,-1961.72"/>
<polygon fill="none" stroke="black" points="271.037,-1959.28 266.316,-1968.77 275.922,-1964.3 271.037,-1959.28"/>
</g>
<!-- \\TBinaryProtocol -->
<g id="node53" class="node"><title>\\TBinaryProtocol</title>
<polygon fill="none" stroke="black" points="306.746,-2194 188.746,-2194 188.746,-2158 306.746,-2158 306.746,-2194"/>
<text text-anchor="middle" x="247.746" y="-2173.2" font-family="Courier,monospace" font-size="11.00">TBinaryProtocol</text>
</g>
<!-- \\TProtocol -->
<g id="node57" class="node"><title>\\TProtocol</title>
<polygon fill="none" stroke="black" points="100,-2194 16,-2194 16,-2158 100,-2158 100,-2194"/>
<text text-anchor="start" x="24" y="-2179.2" font-family="Courier,monospace" font-size="11.00">«abstract»</text>
<text text-anchor="start" x="27.5" y="-2167.2" font-family="Courier,monospace" font-size="11.00">TProtocol</text>
</g>
<!-- \\TBinaryProtocol&#45;&gt;\\TProtocol -->
<g id="edge14" class="edge"><title>\\TBinaryProtocol&#45;&gt;\\TProtocol</title>
<path fill="none" stroke="black" d="M188.628,-2176C163.562,-2176 134.498,-2176 110.25,-2176"/>
<polygon fill="none" stroke="black" points="110.179,-2172.5 100.179,-2176 110.179,-2179.5 110.179,-2172.5"/>
</g>
<!-- \\TBinaryProtocolFactory -->
<g id="node54" class="node"><title>\\TBinaryProtocolFactory</title>
<polygon fill="none" stroke="black" points="624.746,-304 459.746,-304 459.746,-268 624.746,-268 624.746,-304"/>
<text text-anchor="middle" x="542.246" y="-283.2" font-family="Courier,monospace" font-size="11.00">TBinaryProtocolFactory</text>
</g>
<!-- \\TProtocolFactory -->
<g id="node60" class="node"><title>\\TProtocolFactory</title>
<polygon fill="none" stroke="black" points="310.246,-304 185.246,-304 185.246,-268 310.246,-268 310.246,-304"/>
<text text-anchor="middle" x="247.746" y="-283.2" font-family="Courier,monospace" font-size="11.00">TProtocolFactory</text>
</g>
<!-- \\TBinaryProtocolFactory&#45;&gt;\\TProtocolFactory -->
<g id="edge15" class="edge"><title>\\TBinaryProtocolFactory&#45;&gt;\\TProtocolFactory</title>
<path fill="none" stroke="black" stroke-dasharray="1,5" d="M459.379,-286C415.818,-286 362.735,-286 320.757,-286"/>
<polygon fill="none" stroke="black" points="320.612,-282.5 310.612,-286 320.612,-289.5 320.612,-282.5"/>
</g>
<!-- \\TBinaryProtocolAccelerated -->
<g id="node55" class="node"><title>\\TBinaryProtocolAccelerated</title>
<polygon fill="none" stroke="black" points="638.246,-2356 446.246,-2356 446.246,-2320 638.246,-2320 638.246,-2356"/>
<text text-anchor="middle" x="542.246" y="-2335.2" font-family="Courier,monospace" font-size="11.00">TBinaryProtocolAccelerated</text>
</g>
<!-- \\TBinaryProtocolAccelerated&#45;&gt;\\TBinaryProtocol -->
<g id="edge16" class="edge"><title>\\TBinaryProtocolAccelerated&#45;&gt;\\TBinaryProtocol</title>
<path fill="none" stroke="black" d="M446.055,-2333.23C425.97,-2329.01 405.737,-2322.11 388.746,-2311 340.46,-2279.43 361.589,-2239.29 316.746,-2203 315.191,-2201.74 313.569,-2200.54 311.896,-2199.38"/>
<polygon fill="none" stroke="black" points="313.516,-2196.27 303.162,-2194.02 309.856,-2202.23 313.516,-2196.27"/>
</g>
<!-- \\TProtocolException -->
<g id="node56" class="node"><title>\\TProtocolException</title>
<polygon fill="none" stroke="black" points="611.246,-142 473.246,-142 473.246,-106 611.246,-106 611.246,-142"/>
<text text-anchor="middle" x="542.246" y="-121.2" font-family="Courier,monospace" font-size="11.00">TProtocolException</text>
</g>
<!-- \\TProtocolException&#45;&gt;\\TException -->
<g id="edge17" class="edge"><title>\\TProtocolException&#45;&gt;\\TException</title>
<path fill="none" stroke="black" d="M473.037,-130.296C420.193,-135.174 348.126,-141.826 300.095,-146.26"/>
<polygon fill="none" stroke="black" points="299.563,-142.794 289.927,-147.199 300.207,-149.765 299.563,-142.794"/>
</g>
<!-- \\Horde_Thrift -->
<g id="node58" class="node"><title>\\Horde_Thrift</title>
<polygon fill="none" stroke="black" points="591.246,-88 493.246,-88 493.246,-52 591.246,-52 591.246,-88"/>
<text text-anchor="middle" x="542.246" y="-67.2" font-family="Courier,monospace" font-size="11.00">Horde_Thrift</text>
</g>
</g>
</svg>
