<?xml version="1.0" encoding="UTF-8" standalone="no"?>
<!DOCTYPE svg PUBLIC "-//W3C//DTD SVG 1.1//EN"
 "http://www.w3.org/Graphics/SVG/1.1/DTD/svg11.dtd">
<!-- Generated by graphviz version 2.38.0 (20140413.2041)
 -->
<!-- Title: G Pages: 1 -->
<svg width="567pt" height="618pt"
 viewBox="0.00 0.00 566.94 618.00" xmlns="http://www.w3.org/2000/svg" xmlns:xlink="http://www.w3.org/1999/xlink">
<g id="graph0" class="graph" transform="scale(1 1) rotate(0) translate(4 614)">
<title>G</title>
<polygon fill="white" stroke="none" points="-4,4 -4,-614 562.94,-614 562.94,4 -4,4"/>
<g id="clust1" class="cluster"><title>cluster_Global</title>
<path fill="none" stroke="gray" d="M20,-44C20,-44 538.94,-44 538.94,-44 544.94,-44 550.94,-50 550.94,-56 550.94,-56 550.94,-590 550.94,-590 550.94,-596 544.94,-602 538.94,-602 538.94,-602 20,-602 20,-602 14,-602 8,-596 8,-590 8,-590 8,-56 8,-56 8,-50 14,-44 20,-44"/>
<text text-anchor="middle" x="279.47" y="-589.2" font-family="Times,serif" font-size="11.00" fill="gray">Global</text>
</g>
<!-- \\Horde_Xml_Wbxml_Exception -->
<g id="node1" class="node"><title>\\Horde_Xml_Wbxml_Exception</title>
<polygon fill="none" stroke="black" points="518.94,-142 333.94,-142 333.94,-106 518.94,-106 518.94,-142"/>
<text text-anchor="middle" x="426.44" y="-121.2" font-family="Courier,monospace" font-size="11.00">Horde_Xml_Wbxml_Exception</text>
</g>
<!-- \\Horde_Exception_Wrapped -->
<g id="node13" class="node"><title>\\Horde_Exception_Wrapped</title>
<ellipse fill="none" stroke="black" cx="125.5" cy="-18" rx="112.38" ry="18"/>
<text text-anchor="middle" x="125.5" y="-14.3" font-family="Times,serif" font-size="14.00" fill="gray">\Horde_Exception_Wrapped</text>
</g>
<!-- \\Horde_Xml_Wbxml_Exception&#45;&gt;\\Horde_Exception_Wrapped -->
<g id="edge1" class="edge"><title>\\Horde_Xml_Wbxml_Exception&#45;&gt;\\Horde_Exception_Wrapped</title>
<path fill="none" stroke="black" d="M333.665,-106.52C325.476,-103.779 317.451,-100.625 309.94,-97 273.183,-79.2605 275,-57.0985 237.94,-40 232.182,-37.3433 226.112,-35.007 219.9,-32.9524"/>
<polygon fill="none" stroke="black" points="220.63,-29.5162 210.044,-29.9501 218.59,-36.2124 220.63,-29.5162"/>
</g>
<!-- \\Horde_Xml_Wbxml_Dtd -->
<g id="node2" class="node"><title>\\Horde_Xml_Wbxml_Dtd</title>
<polygon fill="none" stroke="black" points="198,-250 53,-250 53,-214 198,-214 198,-250"/>
<text text-anchor="middle" x="125.5" y="-229.2" font-family="Courier,monospace" font-size="11.00">Horde_Xml_Wbxml_Dtd</text>
</g>
<!-- \\Horde_Xml_Wbxml_Encoder -->
<g id="node3" class="node"><title>\\Horde_Xml_Wbxml_Encoder</title>
<polygon fill="none" stroke="black" points="512.44,-574 340.44,-574 340.44,-538 512.44,-538 512.44,-574"/>
<text text-anchor="middle" x="426.44" y="-553.2" font-family="Courier,monospace" font-size="11.00">Horde_Xml_Wbxml_Encoder</text>
</g>
<!-- \\Horde_Xml_Wbxml_ContentHandler -->
<g id="node8" class="node"><title>\\Horde_Xml_Wbxml_ContentHandler</title>
<polygon fill="none" stroke="black" points="235,-547 16,-547 16,-511 235,-511 235,-547"/>
<text text-anchor="middle" x="125.5" y="-526.2" font-family="Courier,monospace" font-size="11.00">Horde_Xml_Wbxml_ContentHandler</text>
</g>
<!-- \\Horde_Xml_Wbxml_Encoder&#45;&gt;\\Horde_Xml_Wbxml_ContentHandler -->
<g id="edge2" class="edge"><title>\\Horde_Xml_Wbxml_Encoder&#45;&gt;\\Horde_Xml_Wbxml_ContentHandler</title>
<path fill="none" stroke="black" d="M340.176,-548.299C310.667,-545.634 277.035,-542.596 245.326,-539.732"/>
<polygon fill="none" stroke="black" points="245.38,-536.223 235.106,-538.809 244.75,-543.195 245.38,-536.223"/>
</g>
<!-- \\Horde_Xml_Wbxml_DtdManager -->
<g id="node4" class="node"><title>\\Horde_Xml_Wbxml_DtdManager</title>
<polygon fill="none" stroke="black" points="522.44,-466 330.44,-466 330.44,-430 522.44,-430 522.44,-466"/>
<text text-anchor="middle" x="426.44" y="-445.2" font-family="Courier,monospace" font-size="11.00">Horde_Xml_Wbxml_DtdManager</text>
</g>
<!-- \\Horde_Xml_Wbxml_HashTable -->
<g id="node5" class="node"><title>\\Horde_Xml_Wbxml_HashTable</title>
<polygon fill="none" stroke="black" points="518.94,-412 333.94,-412 333.94,-376 518.94,-376 518.94,-412"/>
<text text-anchor="middle" x="426.44" y="-391.2" font-family="Courier,monospace" font-size="11.00">Horde_Xml_Wbxml_HashTable</text>
</g>
<!-- \\Horde_Xml_Wbxml_LifoQueue -->
<g id="node6" class="node"><title>\\Horde_Xml_Wbxml_LifoQueue</title>
<polygon fill="none" stroke="black" points="518.94,-358 333.94,-358 333.94,-322 518.94,-322 518.94,-358"/>
<text text-anchor="middle" x="426.44" y="-337.2" font-family="Courier,monospace" font-size="11.00">Horde_Xml_Wbxml_LifoQueue</text>
</g>
<!-- \\Horde_Xml_Wbxml_Decoder -->
<g id="node7" class="node"><title>\\Horde_Xml_Wbxml_Decoder</title>
<polygon fill="none" stroke="black" points="512.44,-520 340.44,-520 340.44,-484 512.44,-484 512.44,-520"/>
<text text-anchor="middle" x="426.44" y="-499.2" font-family="Courier,monospace" font-size="11.00">Horde_Xml_Wbxml_Decoder</text>
</g>
<!-- \\Horde_Xml_Wbxml_Decoder&#45;&gt;\\Horde_Xml_Wbxml_ContentHandler -->
<g id="edge3" class="edge"><title>\\Horde_Xml_Wbxml_Decoder&#45;&gt;\\Horde_Xml_Wbxml_ContentHandler</title>
<path fill="none" stroke="black" d="M340.176,-509.701C310.667,-512.366 277.035,-515.404 245.326,-518.268"/>
<polygon fill="none" stroke="black" points="244.75,-514.805 235.106,-519.191 245.38,-521.777 244.75,-514.805"/>
</g>
<!-- \\Horde_Xml_Wbxml_Dtd_SyncMlMetInf -->
<g id="node9" class="node"><title>\\Horde_Xml_Wbxml_Dtd_SyncMlMetInf</title>
<polygon fill="none" stroke="black" points="542.94,-250 309.94,-250 309.94,-214 542.94,-214 542.94,-250"/>
<text text-anchor="middle" x="426.44" y="-229.2" font-family="Courier,monospace" font-size="11.00">Horde_Xml_Wbxml_Dtd_SyncMlMetInf</text>
</g>
<!-- \\Horde_Xml_Wbxml_Dtd_SyncMlMetInf&#45;&gt;\\Horde_Xml_Wbxml_Dtd -->
<g id="edge4" class="edge"><title>\\Horde_Xml_Wbxml_Dtd_SyncMlMetInf&#45;&gt;\\Horde_Xml_Wbxml_Dtd</title>
<path fill="none" stroke="black" d="M309.862,-232C276.059,-232 239.814,-232 208.548,-232"/>
<polygon fill="none" stroke="black" points="208.147,-228.5 198.147,-232 208.147,-235.5 208.147,-228.5"/>
</g>
<!-- \\Horde_Xml_Wbxml_Dtd_SyncMlDevInf -->
<g id="node10" class="node"><title>\\Horde_Xml_Wbxml_Dtd_SyncMlDevInf</title>
<polygon fill="none" stroke="black" points="542.94,-196 309.94,-196 309.94,-160 542.94,-160 542.94,-196"/>
<text text-anchor="middle" x="426.44" y="-175.2" font-family="Courier,monospace" font-size="11.00">Horde_Xml_Wbxml_Dtd_SyncMlDevInf</text>
</g>
<!-- \\Horde_Xml_Wbxml_Dtd_SyncMlDevInf&#45;&gt;\\Horde_Xml_Wbxml_Dtd -->
<g id="edge5" class="edge"><title>\\Horde_Xml_Wbxml_Dtd_SyncMlDevInf&#45;&gt;\\Horde_Xml_Wbxml_Dtd</title>
<path fill="none" stroke="black" d="M325.482,-196.056C287.315,-202.951 244.294,-210.722 208.043,-217.27"/>
<polygon fill="none" stroke="black" points="207.226,-213.861 198.007,-219.083 208.47,-220.75 207.226,-213.861"/>
</g>
<!-- \\Horde_Xml_Wbxml_Dtd_SyncMl -->
<g id="node11" class="node"><title>\\Horde_Xml_Wbxml_Dtd_SyncMl</title>
<polygon fill="none" stroke="black" points="522.44,-304 330.44,-304 330.44,-268 522.44,-268 522.44,-304"/>
<text text-anchor="middle" x="426.44" y="-283.2" font-family="Courier,monospace" font-size="11.00">Horde_Xml_Wbxml_Dtd_SyncMl</text>
</g>
<!-- \\Horde_Xml_Wbxml_Dtd_SyncMl&#45;&gt;\\Horde_Xml_Wbxml_Dtd -->
<g id="edge6" class="edge"><title>\\Horde_Xml_Wbxml_Dtd_SyncMl&#45;&gt;\\Horde_Xml_Wbxml_Dtd</title>
<path fill="none" stroke="black" d="M330.032,-268.766C290.818,-261.682 245.866,-253.562 208.199,-246.758"/>
<polygon fill="none" stroke="black" points="208.748,-243.301 198.285,-244.967 207.503,-250.189 208.748,-243.301"/>
</g>
<!-- \\Horde_Xml_Wbxml -->
<g id="node12" class="node"><title>\\Horde_Xml_Wbxml</title>
<polygon fill="none" stroke="black" points="485.44,-88 367.44,-88 367.44,-52 485.44,-52 485.44,-88"/>
<text text-anchor="middle" x="426.44" y="-67.2" font-family="Courier,monospace" font-size="11.00">Horde_Xml_Wbxml</text>
</g>
</g>
</svg>
