<?xml version="1.0" encoding="UTF-8" standalone="no"?>
<!DOCTYPE svg PUBLIC "-//W3C//DTD SVG 1.1//EN"
 "http://www.w3.org/Graphics/SVG/1.1/DTD/svg11.dtd">
<!-- Generated by graphviz version 2.38.0 (20140413.2041)
 -->
<!-- Title: G Pages: 1 -->
<svg width="527pt" height="186pt"
 viewBox="0.00 0.00 526.88 186.00" xmlns="http://www.w3.org/2000/svg" xmlns:xlink="http://www.w3.org/1999/xlink">
<g id="graph0" class="graph" transform="scale(1 1) rotate(0) translate(4 182)">
<title>G</title>
<polygon fill="white" stroke="none" points="-4,4 -4,-182 522.88,-182 522.88,4 -4,4"/>
<g id="clust1" class="cluster"><title>cluster_Global</title>
<path fill="none" stroke="gray" d="M47.44,-44C47.44,-44 498.88,-44 498.88,-44 504.88,-44 510.88,-50 510.88,-56 510.88,-56 510.88,-158 510.88,-158 510.88,-164 504.88,-170 498.88,-170 498.88,-170 47.44,-170 47.44,-170 41.44,-170 35.44,-164 35.44,-158 35.44,-158 35.44,-56 35.44,-56 35.44,-50 41.44,-44 47.44,-44"/>
<text text-anchor="middle" x="273.16" y="-157.2" font-family="Times,serif" font-size="11.00" fill="gray">Global</text>
</g>
<!-- \\Horde_SpellChecker_Aspell -->
<g id="node1" class="node"><title>\\Horde_SpellChecker_Aspell</title>
<polygon fill="none" stroke="black" points="492.38,-142 307.38,-142 307.38,-106 492.38,-106 492.38,-142"/>
<text text-anchor="middle" x="399.88" y="-121.2" font-family="Courier,monospace" font-size="11.00">Horde_SpellChecker_Aspell</text>
</g>
<!-- \\Horde_SpellChecker -->
<g id="node3" class="node"><title>\\Horde_SpellChecker</title>
<polygon fill="none" stroke="black" points="181.44,-142 43.44,-142 43.44,-106 181.44,-106 181.44,-142"/>
<text text-anchor="start" x="78.44" y="-127.2" font-family="Courier,monospace" font-size="11.00">«abstract»</text>
<text text-anchor="start" x="51.44" y="-115.2" font-family="Courier,monospace" font-size="11.00">Horde_SpellChecker</text>
</g>
<!-- \\Horde_SpellChecker_Aspell&#45;&gt;\\Horde_SpellChecker -->
<g id="edge1" class="edge"><title>\\Horde_SpellChecker_Aspell&#45;&gt;\\Horde_SpellChecker</title>
<path fill="none" stroke="black" d="M306.994,-124C269.911,-124 227.561,-124 191.949,-124"/>
<polygon fill="none" stroke="black" points="191.612,-120.5 181.612,-124 191.612,-127.5 191.612,-120.5"/>
</g>
<!-- \\Horde_SpellChecker_Exception -->
<g id="node2" class="node"><title>\\Horde_SpellChecker_Exception</title>
<polygon fill="none" stroke="black" points="502.88,-88 296.88,-88 296.88,-52 502.88,-52 502.88,-88"/>
<text text-anchor="middle" x="399.88" y="-67.2" font-family="Courier,monospace" font-size="11.00">Horde_SpellChecker_Exception</text>
</g>
<!-- \\Horde_Exception_Wrapped -->
<g id="node4" class="node"><title>\\Horde_Exception_Wrapped</title>
<ellipse fill="none" stroke="black" cx="112.44" cy="-18" rx="112.38" ry="18"/>
<text text-anchor="middle" x="112.44" y="-14.3" font-family="Times,serif" font-size="14.00" fill="gray">\Horde_Exception_Wrapped</text>
</g>
<!-- \\Horde_SpellChecker_Exception&#45;&gt;\\Horde_Exception_Wrapped -->
<g id="edge2" class="edge"><title>\\Horde_SpellChecker_Exception&#45;&gt;\\Horde_Exception_Wrapped</title>
<path fill="none" stroke="black" d="M299.848,-51.9589C266.576,-45.8974 229.797,-39.1973 197.762,-33.3614"/>
<polygon fill="none" stroke="black" points="198.004,-29.8479 187.538,-31.4989 196.749,-36.7345 198.004,-29.8479"/>
</g>
</g>
</svg>
