<?xml version="1.0" encoding="UTF-8" standalone="no"?>
<!DOCTYPE svg PUBLIC "-//W3C//DTD SVG 1.1//EN"
 "http://www.w3.org/Graphics/SVG/1.1/DTD/svg11.dtd">
<!-- Generated by graphviz version 2.38.0 (20140413.2041)
 -->
<!-- Title: G Pages: 1 -->
<svg width="715pt" height="456pt"
 viewBox="0.00 0.00 715.37 456.00" xmlns="http://www.w3.org/2000/svg" xmlns:xlink="http://www.w3.org/1999/xlink">
<g id="graph0" class="graph" transform="scale(1 1) rotate(0) translate(4 452)">
<title>G</title>
<polygon fill="white" stroke="none" points="-4,4 -4,-452 711.369,-452 711.369,4 -4,4"/>
<g id="clust1" class="cluster"><title>cluster_Global</title>
<path fill="none" stroke="gray" d="M250.329,-98C250.329,-98 687.369,-98 687.369,-98 693.369,-98 699.369,-104 699.369,-110 699.369,-110 699.369,-428 699.369,-428 699.369,-434 693.369,-440 687.369,-440 687.369,-440 250.329,-440 250.329,-440 244.329,-440 238.329,-434 238.329,-428 238.329,-428 238.329,-110 238.329,-110 238.329,-104 244.329,-98 250.329,-98"/>
<text text-anchor="middle" x="468.849" y="-427.2" font-family="Times,serif" font-size="11.00" fill="gray">Global</text>
</g>
<!-- \\SearchCDRForm -->
<g id="node1" class="node"><title>\\SearchCDRForm</title>
<polygon fill="none" stroke="black" points="357.329,-385 253.329,-385 253.329,-349 357.329,-349 357.329,-385"/>
<text text-anchor="middle" x="305.329" y="-364.2" font-family="Courier,monospace" font-size="11.00">SearchCDRForm</text>
</g>
<!-- \\Horde_Form -->
<g id="node9" class="node"><title>\\Horde_Form</title>
<ellipse fill="none" stroke="black" cx="59.1448" cy="-367" rx="59.2899" ry="18"/>
<text text-anchor="middle" x="59.1448" y="-363.3" font-family="Times,serif" font-size="14.00" fill="gray">\Horde_Form</text>
</g>
<!-- \\SearchCDRForm&#45;&gt;\\Horde_Form -->
<g id="edge1" class="edge"><title>\\SearchCDRForm&#45;&gt;\\Horde_Form</title>
<path fill="none" stroke="black" d="M253.14,-367C216.989,-367 168.147,-367 128.644,-367"/>
<polygon fill="none" stroke="black" points="128.554,-363.5 118.554,-367 128.554,-370.5 128.554,-363.5"/>
</g>
<!-- \\GraphCDRForm -->
<g id="node2" class="node"><title>\\GraphCDRForm</title>
<polygon fill="none" stroke="black" points="640.869,-412 542.869,-412 542.869,-376 640.869,-376 640.869,-412"/>
<text text-anchor="middle" x="591.869" y="-391.2" font-family="Courier,monospace" font-size="11.00">GraphCDRForm</text>
</g>
<!-- \\GraphCDRForm&#45;&gt;\\SearchCDRForm -->
<g id="edge2" class="edge"><title>\\GraphCDRForm&#45;&gt;\\SearchCDRForm</title>
<path fill="none" stroke="black" d="M542.601,-389.42C494.44,-384.85 420.265,-377.811 367.893,-372.842"/>
<polygon fill="none" stroke="black" points="368.009,-369.337 357.723,-371.877 367.348,-376.306 368.009,-369.337"/>
</g>
<!-- \\ExportCDRForm -->
<g id="node3" class="node"><title>\\ExportCDRForm</title>
<polygon fill="none" stroke="black" points="643.869,-358 539.869,-358 539.869,-322 643.869,-322 643.869,-358"/>
<text text-anchor="middle" x="591.869" y="-337.2" font-family="Courier,monospace" font-size="11.00">ExportCDRForm</text>
</g>
<!-- \\ExportCDRForm&#45;&gt;\\SearchCDRForm -->
<g id="edge3" class="edge"><title>\\ExportCDRForm&#45;&gt;\\SearchCDRForm</title>
<path fill="none" stroke="black" d="M539.67,-344.858C491.37,-349.441 418.91,-356.317 367.569,-361.189"/>
<polygon fill="none" stroke="black" points="367.221,-357.706 357.596,-362.135 367.882,-364.675 367.221,-357.706"/>
</g>
<!-- \\Operator_Exception -->
<g id="node4" class="node"><title>\\Operator_Exception</title>
<polygon fill="none" stroke="black" points="660.869,-250 522.869,-250 522.869,-214 660.869,-214 660.869,-250"/>
<text text-anchor="middle" x="591.869" y="-229.2" font-family="Courier,monospace" font-size="11.00">Operator_Exception</text>
</g>
<!-- \\Horde_Exception_Wrapped -->
<g id="node10" class="node"><title>\\Horde_Exception_Wrapped</title>
<ellipse fill="none" stroke="black" cx="305.329" cy="-72" rx="112.38" ry="18"/>
<text text-anchor="middle" x="305.329" y="-68.3" font-family="Times,serif" font-size="14.00" fill="gray">\Horde_Exception_Wrapped</text>
</g>
<!-- \\Operator_Exception&#45;&gt;\\Horde_Exception_Wrapped -->
<g id="edge4" class="edge"><title>\\Operator_Exception&#45;&gt;\\Horde_Exception_Wrapped</title>
<path fill="none" stroke="black" d="M522.704,-220.345C511.93,-216.578 501.386,-211.594 492.369,-205 444.905,-170.287 469.133,-126.861 420.369,-94 416.039,-91.0818 411.417,-88.5288 406.608,-86.2971"/>
<polygon fill="none" stroke="black" points="407.734,-82.9753 397.155,-82.3898 405.06,-89.4444 407.734,-82.9753"/>
</g>
<!-- \\Operator_Application -->
<g id="node5" class="node"><title>\\Operator_Application</title>
<polygon fill="none" stroke="black" points="667.869,-196 515.869,-196 515.869,-160 667.869,-160 667.869,-196"/>
<text text-anchor="middle" x="591.869" y="-175.2" font-family="Courier,monospace" font-size="11.00">Operator_Application</text>
</g>
<!-- \\Horde_Registry_Application -->
<g id="node11" class="node"><title>\\Horde_Registry_Application</title>
<ellipse fill="none" stroke="black" cx="305.329" cy="-18" rx="115.08" ry="18"/>
<text text-anchor="middle" x="305.329" y="-14.3" font-family="Times,serif" font-size="14.00" fill="gray">\Horde_Registry_Application</text>
</g>
<!-- \\Operator_Application&#45;&gt;\\Horde_Registry_Application -->
<g id="edge5" class="edge"><title>\\Operator_Application&#45;&gt;\\Horde_Registry_Application</title>
<path fill="none" stroke="black" d="M515.676,-163.503C507.407,-160.163 499.436,-156.054 492.369,-151 446.045,-117.87 467.266,-77.3124 420.369,-45 414.008,-40.617 407.025,-36.9402 399.745,-33.8566"/>
<polygon fill="none" stroke="black" points="400.978,-30.5812 390.388,-30.2593 398.466,-37.1149 400.978,-30.5812"/>
</g>
<!-- \\Operator_Driver_asterisksql -->
<g id="node6" class="node"><title>\\Operator_Driver_asterisksql</title>
<polygon fill="none" stroke="black" points="691.369,-304 492.369,-304 492.369,-268 691.369,-268 691.369,-304"/>
<text text-anchor="middle" x="591.869" y="-283.2" font-family="Courier,monospace" font-size="11.00">Operator_Driver_asterisksql</text>
</g>
<!-- \\Operator_Driver -->
<g id="node7" class="node"><title>\\Operator_Driver</title>
<polygon fill="none" stroke="black" points="364.329,-304 246.329,-304 246.329,-268 364.329,-268 364.329,-304"/>
<text text-anchor="middle" x="305.329" y="-283.2" font-family="Courier,monospace" font-size="11.00">Operator_Driver</text>
</g>
<!-- \\Operator_Driver_asterisksql&#45;&gt;\\Operator_Driver -->
<g id="edge6" class="edge"><title>\\Operator_Driver_asterisksql&#45;&gt;\\Operator_Driver</title>
<path fill="none" stroke="black" d="M492.149,-286C453.435,-286 409.96,-286 374.8,-286"/>
<polygon fill="none" stroke="black" points="374.644,-282.5 364.644,-286 374.644,-289.5 374.644,-282.5"/>
</g>
<!-- \\Operator -->
<g id="node8" class="node"><title>\\Operator</title>
<polygon fill="none" stroke="black" points="627.369,-142 556.369,-142 556.369,-106 627.369,-106 627.369,-142"/>
<text text-anchor="middle" x="591.869" y="-121.2" font-family="Courier,monospace" font-size="11.00">Operator</text>
</g>
</g>
</svg>
