<?xml version="1.0" encoding="UTF-8" standalone="no"?>
<!DOCTYPE svg PUBLIC "-//W3C//DTD SVG 1.1//EN"
 "http://www.w3.org/Graphics/SVG/1.1/DTD/svg11.dtd">
<!-- Generated by graphviz version 2.38.0 (20140413.2041)
 -->
<!-- Title: G Pages: 1 -->
<svg width="705pt" height="618pt"
 viewBox="0.00 0.00 705.00 618.00" xmlns="http://www.w3.org/2000/svg" xmlns:xlink="http://www.w3.org/1999/xlink">
<g id="graph0" class="graph" transform="scale(1 1) rotate(0) translate(4 614)">
<title>G</title>
<polygon fill="white" stroke="none" points="-4,4 -4,-614 701,-614 701,4 -4,4"/>
<g id="clust1" class="cluster"><title>cluster_Global</title>
<path fill="none" stroke="gray" d="M20,-44C20,-44 677,-44 677,-44 683,-44 689,-50 689,-56 689,-56 689,-590 689,-590 689,-596 683,-602 677,-602 677,-602 20,-602 20,-602 14,-602 8,-596 8,-590 8,-590 8,-56 8,-56 8,-50 14,-44 20,-44"/>
<text text-anchor="middle" x="348.5" y="-589.2" font-family="Times,serif" font-size="11.00" fill="gray">Global</text>
</g>
<!-- \\Horde_Notification_Handler_Decorator_Alarm -->
<g id="node1" class="node"><title>\\Horde_Notification_Handler_Decorator_Alarm</title>
<polygon fill="none" stroke="black" points="681,-574 381,-574 381,-538 681,-538 681,-574"/>
<text text-anchor="middle" x="531" y="-553.2" font-family="Courier,monospace" font-size="11.00">Horde_Notification_Handler_Decorator_Alarm</text>
</g>
<!-- \\Horde_Notification_Handler_Decorator_Base -->
<g id="node3" class="node"><title>\\Horde_Notification_Handler_Decorator_Base</title>
<polygon fill="none" stroke="black" points="309,-547 16,-547 16,-511 309,-511 309,-547"/>
<text text-anchor="middle" x="162.5" y="-526.2" font-family="Courier,monospace" font-size="11.00">Horde_Notification_Handler_Decorator_Base</text>
</g>
<!-- \\Horde_Notification_Handler_Decorator_Alarm&#45;&gt;\\Horde_Notification_Handler_Decorator_Base -->
<g id="edge1" class="edge"><title>\\Horde_Notification_Handler_Decorator_Alarm&#45;&gt;\\Horde_Notification_Handler_Decorator_Base</title>
<path fill="none" stroke="black" d="M380.93,-545.018C360.578,-543.519 339.643,-541.976 319.178,-540.469"/>
<polygon fill="none" stroke="black" points="319.403,-536.976 309.173,-539.732 318.889,-543.957 319.403,-536.976"/>
</g>
<!-- \\Horde_Notification_Handler_Decorator_Log -->
<g id="node2" class="node"><title>\\Horde_Notification_Handler_Decorator_Log</title>
<polygon fill="none" stroke="black" points="674.5,-520 387.5,-520 387.5,-484 674.5,-484 674.5,-520"/>
<text text-anchor="middle" x="531" y="-499.2" font-family="Courier,monospace" font-size="11.00">Horde_Notification_Handler_Decorator_Log</text>
</g>
<!-- \\Horde_Notification_Handler_Decorator_Log&#45;&gt;\\Horde_Notification_Handler_Decorator_Base -->
<g id="edge2" class="edge"><title>\\Horde_Notification_Handler_Decorator_Log&#45;&gt;\\Horde_Notification_Handler_Decorator_Base</title>
<path fill="none" stroke="black" d="M387.252,-512.516C364.929,-514.161 341.762,-515.867 319.168,-517.532"/>
<polygon fill="none" stroke="black" points="318.895,-514.042 309.179,-518.268 319.409,-521.024 318.895,-514.042"/>
</g>
<!-- \\Horde_Notification_Event -->
<g id="node4" class="node"><title>\\Horde_Notification_Event</title>
<polygon fill="none" stroke="black" points="252,-466 73,-466 73,-430 252,-430 252,-466"/>
<text text-anchor="middle" x="162.5" y="-445.2" font-family="Courier,monospace" font-size="11.00">Horde_Notification_Event</text>
</g>
<!-- \\Horde_Notification_Exception -->
<g id="node5" class="node"><title>\\Horde_Notification_Exception</title>
<polygon fill="none" stroke="black" points="634,-142 428,-142 428,-106 634,-106 634,-142"/>
<text text-anchor="middle" x="531" y="-121.2" font-family="Courier,monospace" font-size="11.00">Horde_Notification_Exception</text>
</g>
<!-- \\Horde_Exception_Wrapped -->
<g id="node15" class="node"><title>\\Horde_Exception_Wrapped</title>
<ellipse fill="none" stroke="black" cx="162.5" cy="-18" rx="112.38" ry="18"/>
<text text-anchor="middle" x="162.5" y="-14.3" font-family="Times,serif" font-size="14.00" fill="gray">\Horde_Exception_Wrapped</text>
</g>
<!-- \\Horde_Notification_Exception&#45;&gt;\\Horde_Exception_Wrapped -->
<g id="edge3" class="edge"><title>\\Horde_Notification_Exception&#45;&gt;\\Horde_Exception_Wrapped</title>
<path fill="none" stroke="black" d="M427.785,-112.364C411.723,-108.594 395.613,-103.604 381,-97 343.808,-80.192 346.434,-56.2633 309,-40 297.722,-35.1001 285.541,-31.265 273.196,-28.2675"/>
<polygon fill="none" stroke="black" points="273.798,-24.8156 263.274,-26.0388 272.264,-31.6454 273.798,-24.8156"/>
</g>
<!-- \\Horde_Notification_Event_Status -->
<g id="node6" class="node"><title>\\Horde_Notification_Event_Status</title>
<polygon fill="none" stroke="black" points="644,-466 418,-466 418,-430 644,-430 644,-466"/>
<text text-anchor="middle" x="531" y="-445.2" font-family="Courier,monospace" font-size="11.00">Horde_Notification_Event_Status</text>
</g>
<!-- \\Horde_Notification_Event_Status&#45;&gt;\\Horde_Notification_Event -->
<g id="edge4" class="edge"><title>\\Horde_Notification_Event_Status&#45;&gt;\\Horde_Notification_Event</title>
<path fill="none" stroke="black" d="M417.547,-448C367.945,-448 310.164,-448 262.251,-448"/>
<polygon fill="none" stroke="black" points="262.183,-444.5 252.183,-448 262.183,-451.5 262.183,-444.5"/>
</g>
<!-- \\Horde_Notification_Listener -->
<g id="node7" class="node"><title>\\Horde_Notification_Listener</title>
<polygon fill="none" stroke="black" points="262,-385 63,-385 63,-349 262,-349 262,-385"/>
<text text-anchor="start" x="128.5" y="-370.2" font-family="Courier,monospace" font-size="11.00">«abstract»</text>
<text text-anchor="start" x="71" y="-358.2" font-family="Courier,monospace" font-size="11.00">Horde_Notification_Listener</text>
</g>
<!-- \\Horde_Notification_Listener_Audio -->
<g id="node8" class="node"><title>\\Horde_Notification_Listener_Audio</title>
<polygon fill="none" stroke="black" points="650.5,-412 411.5,-412 411.5,-376 650.5,-376 650.5,-412"/>
<text text-anchor="middle" x="531" y="-391.2" font-family="Courier,monospace" font-size="11.00">Horde_Notification_Listener_Audio</text>
</g>
<!-- \\Horde_Notification_Listener_Audio&#45;&gt;\\Horde_Notification_Listener -->
<g id="edge5" class="edge"><title>\\Horde_Notification_Listener_Audio&#45;&gt;\\Horde_Notification_Listener</title>
<path fill="none" stroke="black" d="M411.261,-385.253C366.552,-381.959 315.969,-378.232 272.219,-375.009"/>
<polygon fill="none" stroke="black" points="272.356,-371.51 262.126,-374.266 271.841,-378.491 272.356,-371.51"/>
</g>
<!-- \\Horde_Notification_Listener_Status -->
<g id="node9" class="node"><title>\\Horde_Notification_Listener_Status</title>
<polygon fill="none" stroke="black" points="654,-358 408,-358 408,-322 654,-322 654,-358"/>
<text text-anchor="middle" x="531" y="-337.2" font-family="Courier,monospace" font-size="11.00">Horde_Notification_Listener_Status</text>
</g>
<!-- \\Horde_Notification_Listener_Status&#45;&gt;\\Horde_Notification_Listener -->
<g id="edge6" class="edge"><title>\\Horde_Notification_Listener_Status&#45;&gt;\\Horde_Notification_Listener</title>
<path fill="none" stroke="black" d="M407.961,-348.991C364.104,-352.222 314.962,-355.842 272.305,-358.984"/>
<polygon fill="none" stroke="black" points="271.892,-355.505 262.177,-359.731 272.407,-362.486 271.892,-355.505"/>
</g>
<!-- \\Horde_Notification_Handler -->
<g id="node10" class="node"><title>\\Horde_Notification_Handler</title>
<polygon fill="none" stroke="black" points="627,-250 435,-250 435,-214 627,-214 627,-250"/>
<text text-anchor="middle" x="531" y="-229.2" font-family="Courier,monospace" font-size="11.00">Horde_Notification_Handler</text>
</g>
<!-- \\Horde_Notification_Storage_Object -->
<g id="node11" class="node"><title>\\Horde_Notification_Storage_Object</title>
<polygon fill="none" stroke="black" points="650.5,-304 411.5,-304 411.5,-268 650.5,-268 650.5,-304"/>
<text text-anchor="middle" x="531" y="-283.2" font-family="Courier,monospace" font-size="11.00">Horde_Notification_Storage_Object</text>
</g>
<!-- \\Horde_Notification_Storage_Interface -->
<g id="node14" class="node"><title>\\Horde_Notification_Storage_Interface</title>
<polygon fill="none" stroke="black" points="292.5,-250 32.5,-250 32.5,-214 292.5,-214 292.5,-250"/>
<text text-anchor="middle" x="162.5" y="-229.2" font-family="Courier,monospace" font-size="11.00">Horde_Notification_Storage_Interface</text>
</g>
<!-- \\Horde_Notification_Storage_Object&#45;&gt;\\Horde_Notification_Storage_Interface -->
<g id="edge7" class="edge"><title>\\Horde_Notification_Storage_Object&#45;&gt;\\Horde_Notification_Storage_Interface</title>
<path fill="none" stroke="black" stroke-dasharray="1,5" d="M411.261,-268.505C374.411,-263.076 333.572,-257.058 295.857,-251.501"/>
<polygon fill="none" stroke="black" points="296.229,-248.019 285.826,-250.023 295.209,-254.944 296.229,-248.019"/>
</g>
<!-- \\Horde_Notification_Storage_Session -->
<g id="node12" class="node"><title>\\Horde_Notification_Storage_Session</title>
<polygon fill="none" stroke="black" points="654,-196 408,-196 408,-160 654,-160 654,-196"/>
<text text-anchor="middle" x="531" y="-175.2" font-family="Courier,monospace" font-size="11.00">Horde_Notification_Storage_Session</text>
</g>
<!-- \\Horde_Notification_Storage_Session&#45;&gt;\\Horde_Notification_Storage_Interface -->
<g id="edge8" class="edge"><title>\\Horde_Notification_Storage_Session&#45;&gt;\\Horde_Notification_Storage_Interface</title>
<path fill="none" stroke="black" stroke-dasharray="1,5" d="M407.961,-195.981C372.082,-201.268 332.667,-207.075 296.158,-212.454"/>
<polygon fill="none" stroke="black" points="295.326,-209.039 285.943,-213.959 296.347,-215.964 295.326,-209.039"/>
</g>
<!-- \\Horde_Notification -->
<g id="node13" class="node"><title>\\Horde_Notification</title>
<polygon fill="none" stroke="black" points="600,-88 462,-88 462,-52 600,-52 600,-88"/>
<text text-anchor="middle" x="531" y="-67.2" font-family="Courier,monospace" font-size="11.00">Horde_Notification</text>
</g>
</g>
</svg>
