<?xml version="1.0" encoding="UTF-8" standalone="no"?>
<!DOCTYPE svg PUBLIC "-//W3C//DTD SVG 1.1//EN"
 "http://www.w3.org/Graphics/SVG/1.1/DTD/svg11.dtd">
<!-- Generated by graphviz version 2.38.0 (20140413.2041)
 -->
<!-- Title: G Pages: 1 -->
<svg width="478pt" height="456pt"
 viewBox="0.00 0.00 478.08 456.00" xmlns="http://www.w3.org/2000/svg" xmlns:xlink="http://www.w3.org/1999/xlink">
<g id="graph0" class="graph" transform="scale(1 1) rotate(0) translate(4 452)">
<title>G</title>
<polygon fill="white" stroke="none" points="-4,4 -4,-452 474.08,-452 474.08,4 -4,4"/>
<g id="clust1" class="cluster"><title>cluster_Global</title>
<path fill="none" stroke="gray" d="M67.0398,-44C67.0398,-44 450.08,-44 450.08,-44 456.08,-44 462.08,-50 462.08,-56 462.08,-56 462.08,-428 462.08,-428 462.08,-434 456.08,-440 450.08,-440 450.08,-440 67.0398,-440 67.0398,-440 61.0398,-440 55.0398,-434 55.0398,-428 55.0398,-428 55.0398,-56 55.0398,-56 55.0398,-50 61.0398,-44 67.0398,-44"/>
<text text-anchor="middle" x="258.56" y="-427.2" font-family="Times,serif" font-size="11.00" fill="gray">Global</text>
</g>
<!-- \\Hylax_Storage -->
<g id="node1" class="node"><title>\\Hylax_Storage</title>
<polygon fill="none" stroke="black" points="167.04,-304 63.0398,-304 63.0398,-268 167.04,-268 167.04,-304"/>
<text text-anchor="middle" x="115.04" y="-283.2" font-family="Courier,monospace" font-size="11.00">Hylax_Storage</text>
</g>
<!-- \\Hylax_Application -->
<g id="node2" class="node"><title>\\Hylax_Application</title>
<polygon fill="none" stroke="black" points="443.58,-88 312.58,-88 312.58,-52 443.58,-52 443.58,-88"/>
<text text-anchor="middle" x="378.08" y="-67.2" font-family="Courier,monospace" font-size="11.00">Hylax_Application</text>
</g>
<!-- \\Horde_Registry_Application -->
<g id="node10" class="node"><title>\\Horde_Registry_Application</title>
<ellipse fill="none" stroke="black" cx="115.04" cy="-18" rx="115.08" ry="18"/>
<text text-anchor="middle" x="115.04" y="-14.3" font-family="Times,serif" font-size="14.00" fill="gray">\Horde_Registry_Application</text>
</g>
<!-- \\Hylax_Application&#45;&gt;\\Horde_Registry_Application -->
<g id="edge1" class="edge"><title>\\Hylax_Application&#45;&gt;\\Horde_Registry_Application</title>
<path fill="none" stroke="black" d="M312.346,-56.6329C286.737,-51.3856 257.033,-45.3501 230.08,-40 219.963,-37.9919 209.336,-35.9079 198.807,-33.8586"/>
<polygon fill="none" stroke="black" points="199.245,-30.3784 188.761,-31.9079 197.911,-37.2501 199.245,-30.3784"/>
</g>
<!-- \\Hylax_Driver_spandsp -->
<g id="node3" class="node"><title>\\Hylax_Driver_spandsp</title>
<polygon fill="none" stroke="black" points="454.08,-358 302.08,-358 302.08,-322 454.08,-322 454.08,-358"/>
<text text-anchor="middle" x="378.08" y="-337.2" font-family="Courier,monospace" font-size="11.00">Hylax_Driver_spandsp</text>
</g>
<!-- \\Hylax_Driver -->
<g id="node5" class="node"><title>\\Hylax_Driver</title>
<polygon fill="none" stroke="black" points="164.04,-385 66.0398,-385 66.0398,-349 164.04,-349 164.04,-385"/>
<text text-anchor="middle" x="115.04" y="-364.2" font-family="Courier,monospace" font-size="11.00">Hylax_Driver</text>
</g>
<!-- \\Hylax_Driver_spandsp&#45;&gt;\\Hylax_Driver -->
<g id="edge2" class="edge"><title>\\Hylax_Driver_spandsp&#45;&gt;\\Hylax_Driver</title>
<path fill="none" stroke="black" d="M301.926,-347.773C261.45,-351.96 212.254,-357.048 174.642,-360.939"/>
<polygon fill="none" stroke="black" points="173.944,-357.492 164.357,-362.002 174.664,-364.455 173.944,-357.492"/>
</g>
<!-- \\Hylax_Driver_hylafax -->
<g id="node4" class="node"><title>\\Hylax_Driver_hylafax</title>
<polygon fill="none" stroke="black" points="454.08,-412 302.08,-412 302.08,-376 454.08,-376 454.08,-412"/>
<text text-anchor="middle" x="378.08" y="-391.2" font-family="Courier,monospace" font-size="11.00">Hylax_Driver_hylafax</text>
</g>
<!-- \\Hylax_Driver_hylafax&#45;&gt;\\Hylax_Driver -->
<g id="edge3" class="edge"><title>\\Hylax_Driver_hylafax&#45;&gt;\\Hylax_Driver</title>
<path fill="none" stroke="black" d="M301.926,-386.227C261.45,-382.04 212.254,-376.952 174.642,-373.061"/>
<polygon fill="none" stroke="black" points="174.664,-369.545 164.357,-371.998 173.944,-376.508 174.664,-369.545"/>
</g>
<!-- \\Hylax_Image -->
<g id="node6" class="node"><title>\\Hylax_Image</title>
<polygon fill="none" stroke="black" points="423.58,-250 332.58,-250 332.58,-214 423.58,-214 423.58,-250"/>
<text text-anchor="middle" x="378.08" y="-229.2" font-family="Courier,monospace" font-size="11.00">Hylax_Image</text>
</g>
<!-- \\Hylax -->
<g id="node7" class="node"><title>\\Hylax</title>
<polygon fill="none" stroke="black" points="405.08,-196 351.08,-196 351.08,-160 405.08,-160 405.08,-196"/>
<text text-anchor="middle" x="378.08" y="-175.2" font-family="Courier,monospace" font-size="11.00">Hylax</text>
</g>
<!-- \\Hylax_SQL_Attributes -->
<g id="node8" class="node"><title>\\Hylax_SQL_Attributes</title>
<polygon fill="none" stroke="black" points="454.08,-142 302.08,-142 302.08,-106 454.08,-106 454.08,-142"/>
<text text-anchor="middle" x="378.08" y="-121.2" font-family="Courier,monospace" font-size="11.00">Hylax_SQL_Attributes</text>
</g>
<!-- \\Hylax_Storage_sql -->
<g id="node9" class="node"><title>\\Hylax_Storage_sql</title>
<polygon fill="none" stroke="black" points="443.58,-304 312.58,-304 312.58,-268 443.58,-268 443.58,-304"/>
<text text-anchor="middle" x="378.08" y="-283.2" font-family="Courier,monospace" font-size="11.00">Hylax_Storage_sql</text>
</g>
<!-- \\Hylax_Storage_sql&#45;&gt;\\Hylax_Storage -->
<g id="edge4" class="edge"><title>\\Hylax_Storage_sql&#45;&gt;\\Hylax_Storage</title>
<path fill="none" stroke="black" d="M312.553,-286C271.215,-286 217.893,-286 177.224,-286"/>
<polygon fill="none" stroke="black" points="177.173,-282.5 167.173,-286 177.173,-289.5 177.173,-282.5"/>
</g>
</g>
</svg>
