<?xml version="1.0" encoding="UTF-8" standalone="no"?>
<!DOCTYPE svg PUBLIC "-//W3C//DTD SVG 1.1//EN"
 "http://www.w3.org/Graphics/SVG/1.1/DTD/svg11.dtd">
<!-- Generated by graphviz version 2.38.0 (20140413.2041)
 -->
<!-- Title: G Pages: 1 -->
<svg width="781pt" height="240pt"
 viewBox="0.00 0.00 781.00 240.00" xmlns="http://www.w3.org/2000/svg" xmlns:xlink="http://www.w3.org/1999/xlink">
<g id="graph0" class="graph" transform="scale(1 1) rotate(0) translate(4 236)">
<title>G</title>
<polygon fill="white" stroke="none" points="-4,4 -4,-236 777,-236 777,4 -4,4"/>
<g id="clust1" class="cluster"><title>cluster_Global</title>
<path fill="none" stroke="gray" d="M20,-44C20,-44 753,-44 753,-44 759,-44 765,-50 765,-56 765,-56 765,-212 765,-212 765,-218 759,-224 753,-224 753,-224 20,-224 20,-224 14,-224 8,-218 8,-212 8,-212 8,-56 8,-56 8,-50 14,-44 20,-44"/>
<text text-anchor="middle" x="386.5" y="-211.2" font-family="Times,serif" font-size="11.00" fill="gray">Global</text>
</g>
<!-- \\Horde_OpenXchange_Exception -->
<g id="node1" class="node"><title>\\Horde_OpenXchange_Exception</title>
<polygon fill="none" stroke="black" points="757,-88 558,-88 558,-52 757,-52 757,-88"/>
<text text-anchor="middle" x="657.5" y="-67.2" font-family="Courier,monospace" font-size="11.00">Horde_OpenXchange_Exception</text>
</g>
<!-- \\Horde_Exception_Wrapped -->
<g id="node7" class="node"><title>\\Horde_Exception_Wrapped</title>
<ellipse fill="none" stroke="black" cx="369.5" cy="-18" rx="112.38" ry="18"/>
<text text-anchor="middle" x="369.5" y="-14.3" font-family="Times,serif" font-size="14.00" fill="gray">\Horde_Exception_Wrapped</text>
</g>
<!-- \\Horde_OpenXchange_Exception&#45;&gt;\\Horde_Exception_Wrapped -->
<g id="edge1" class="edge"><title>\\Horde_OpenXchange_Exception&#45;&gt;\\Horde_Exception_Wrapped</title>
<path fill="none" stroke="black" d="M557.675,-52.0317C524.02,-45.9128 486.747,-39.1357 454.378,-33.2505"/>
<polygon fill="none" stroke="black" points="454.964,-29.7998 444.499,-31.4544 453.712,-36.6869 454.964,-29.7998"/>
</g>
<!-- \\Horde_OpenXchange_Contacts -->
<g id="node2" class="node"><title>\\Horde_OpenXchange_Contacts</title>
<polygon fill="none" stroke="black" points="465.5,-196 273.5,-196 273.5,-160 465.5,-160 465.5,-196"/>
<text text-anchor="middle" x="369.5" y="-175.2" font-family="Courier,monospace" font-size="11.00">Horde_OpenXchange_Contacts</text>
</g>
<!-- \\Horde_OpenXchange_Base -->
<g id="node6" class="node"><title>\\Horde_OpenXchange_Base</title>
<polygon fill="none" stroke="black" points="181,-169 16,-169 16,-133 181,-133 181,-169"/>
<text text-anchor="start" x="64.5" y="-154.2" font-family="Courier,monospace" font-size="11.00">«abstract»</text>
<text text-anchor="start" x="24" y="-142.2" font-family="Courier,monospace" font-size="11.00">Horde_OpenXchange_Base</text>
</g>
<!-- \\Horde_OpenXchange_Contacts&#45;&gt;\\Horde_OpenXchange_Base -->
<g id="edge2" class="edge"><title>\\Horde_OpenXchange_Contacts&#45;&gt;\\Horde_OpenXchange_Base</title>
<path fill="none" stroke="black" d="M273.282,-168.443C246.613,-165.766 217.684,-162.862 191.222,-160.206"/>
<polygon fill="none" stroke="black" points="191.51,-156.718 181.211,-159.201 190.811,-163.683 191.51,-156.718"/>
</g>
<!-- \\Horde_OpenXchange_Events -->
<g id="node3" class="node"><title>\\Horde_OpenXchange_Events</title>
<polygon fill="none" stroke="black" points="747,-196 568,-196 568,-160 747,-160 747,-196"/>
<text text-anchor="middle" x="657.5" y="-175.2" font-family="Courier,monospace" font-size="11.00">Horde_OpenXchange_Events</text>
</g>
<!-- \\Horde_OpenXchange_EventsAndTasks -->
<g id="node4" class="node"><title>\\Horde_OpenXchange_EventsAndTasks</title>
<polygon fill="none" stroke="black" points="486,-142 253,-142 253,-106 486,-106 486,-142"/>
<text text-anchor="start" x="335.5" y="-127.2" font-family="Courier,monospace" font-size="11.00">«abstract»</text>
<text text-anchor="start" x="261" y="-115.2" font-family="Courier,monospace" font-size="11.00">Horde_OpenXchange_EventsAndTasks</text>
</g>
<!-- \\Horde_OpenXchange_Events&#45;&gt;\\Horde_OpenXchange_EventsAndTasks -->
<g id="edge3" class="edge"><title>\\Horde_OpenXchange_Events&#45;&gt;\\Horde_OpenXchange_EventsAndTasks</title>
<path fill="none" stroke="black" d="M567.966,-161.284C538.93,-155.802 506.372,-149.654 476.196,-143.957"/>
<polygon fill="none" stroke="black" points="476.538,-140.459 466.062,-142.043 475.239,-147.338 476.538,-140.459"/>
</g>
<!-- \\Horde_OpenXchange_EventsAndTasks&#45;&gt;\\Horde_OpenXchange_Base -->
<g id="edge4" class="edge"><title>\\Horde_OpenXchange_EventsAndTasks&#45;&gt;\\Horde_OpenXchange_Base</title>
<path fill="none" stroke="black" d="M252.859,-135.607C232.365,-137.664 211.276,-139.781 191.545,-141.761"/>
<polygon fill="none" stroke="black" points="190.962,-138.302 181.362,-142.783 191.661,-145.267 190.962,-138.302"/>
</g>
<!-- \\Horde_OpenXchange_Tasks -->
<g id="node5" class="node"><title>\\Horde_OpenXchange_Tasks</title>
<polygon fill="none" stroke="black" points="743.5,-142 571.5,-142 571.5,-106 743.5,-106 743.5,-142"/>
<text text-anchor="middle" x="657.5" y="-121.2" font-family="Courier,monospace" font-size="11.00">Horde_OpenXchange_Tasks</text>
</g>
<!-- \\Horde_OpenXchange_Tasks&#45;&gt;\\Horde_OpenXchange_EventsAndTasks -->
<g id="edge5" class="edge"><title>\\Horde_OpenXchange_Tasks&#45;&gt;\\Horde_OpenXchange_EventsAndTasks</title>
<path fill="none" stroke="black" d="M571.465,-124C547.844,-124 521.682,-124 496.258,-124"/>
<polygon fill="none" stroke="black" points="496.181,-120.5 486.181,-124 496.181,-127.5 496.181,-120.5"/>
</g>
</g>
</svg>
