<?xml version="1.0" encoding="UTF-8" standalone="no"?>
<!DOCTYPE svg PUBLIC "-//W3C//DTD SVG 1.1//EN"
 "http://www.w3.org/Graphics/SVG/1.1/DTD/svg11.dtd">
<!-- Generated by graphviz version 2.38.0 (20140413.2041)
 -->
<!-- Title: G Pages: 1 -->
<svg width="546pt" height="366pt"
 viewBox="0.00 0.00 546.38 366.00" xmlns="http://www.w3.org/2000/svg" xmlns:xlink="http://www.w3.org/1999/xlink">
<g id="graph0" class="graph" transform="scale(1 1) rotate(0) translate(4 362)">
<title>G</title>
<polygon fill="white" stroke="none" points="-4,4 -4,-362 542.378,-362 542.378,4 -4,4"/>
<g id="clust1" class="cluster"><title>cluster_Global</title>
<path fill="none" stroke="gray" d="M320.378,-8C320.378,-8 518.378,-8 518.378,-8 524.378,-8 530.378,-14 530.378,-20 530.378,-20 530.378,-338 530.378,-338 530.378,-344 524.378,-350 518.378,-350 518.378,-350 320.378,-350 320.378,-350 314.378,-350 308.378,-344 308.378,-338 308.378,-338 308.378,-20 308.378,-20 308.378,-14 314.378,-8 320.378,-8"/>
<text text-anchor="middle" x="419.378" y="-337.2" font-family="Times,serif" font-size="11.00" fill="gray">Global</text>
</g>
<!-- \\Horde_LoginTasks_Task -->
<g id="node1" class="node"><title>\\Horde_LoginTasks_Task</title>
<polygon fill="none" stroke="black" points="498.378,-322 340.378,-322 340.378,-286 498.378,-286 498.378,-322"/>
<text text-anchor="start" x="385.378" y="-307.2" font-family="Courier,monospace" font-size="11.00">«abstract»</text>
<text text-anchor="start" x="348.378" y="-295.2" font-family="Courier,monospace" font-size="11.00">Horde_LoginTasks_Task</text>
</g>
<!-- \\Horde_LoginTasks_Backend -->
<g id="node2" class="node"><title>\\Horde_LoginTasks_Backend</title>
<polygon fill="none" stroke="black" points="508.878,-268 329.878,-268 329.878,-232 508.878,-232 508.878,-268"/>
<text text-anchor="start" x="385.378" y="-253.2" font-family="Courier,monospace" font-size="11.00">«abstract»</text>
<text text-anchor="start" x="337.878" y="-241.2" font-family="Courier,monospace" font-size="11.00">Horde_LoginTasks_Backend</text>
</g>
<!-- \\Horde_LoginTasks_SystemTask -->
<g id="node3" class="node"><title>\\Horde_LoginTasks_SystemTask</title>
<polygon fill="none" stroke="black" points="518.878,-214 319.878,-214 319.878,-178 518.878,-178 518.878,-214"/>
<text text-anchor="start" x="385.378" y="-199.2" font-family="Courier,monospace" font-size="11.00">«abstract»</text>
<text text-anchor="start" x="327.878" y="-187.2" font-family="Courier,monospace" font-size="11.00">Horde_LoginTasks_SystemTask</text>
</g>
<!-- \\Horde_LoginTasks_Translation -->
<g id="node4" class="node"><title>\\Horde_LoginTasks_Translation</title>
<polygon fill="none" stroke="black" points="522.378,-160 316.378,-160 316.378,-124 522.378,-124 522.378,-160"/>
<text text-anchor="middle" x="419.378" y="-139.2" font-family="Courier,monospace" font-size="11.00">Horde_LoginTasks_Translation</text>
</g>
<!-- \\Horde_Translation_Autodetect -->
<g id="node7" class="node"><title>\\Horde_Translation_Autodetect</title>
<ellipse fill="none" stroke="black" cx="122.189" cy="-142" rx="122.379" ry="18"/>
<text text-anchor="middle" x="122.189" y="-138.3" font-family="Times,serif" font-size="14.00" fill="gray">\Horde_Translation_Autodetect</text>
</g>
<!-- \\Horde_LoginTasks_Translation&#45;&gt;\\Horde_Translation_Autodetect -->
<g id="edge1" class="edge"><title>\\Horde_LoginTasks_Translation&#45;&gt;\\Horde_Translation_Autodetect</title>
<path fill="none" stroke="black" d="M316.378,-142C296.471,-142 275.338,-142 254.633,-142"/>
<polygon fill="none" stroke="black" points="254.511,-138.5 244.511,-142 254.511,-145.5 254.511,-138.5"/>
</g>
<!-- \\Horde_LoginTasks_Tasklist -->
<g id="node5" class="node"><title>\\Horde_LoginTasks_Tasklist</title>
<polygon fill="none" stroke="black" points="511.878,-106 326.878,-106 326.878,-70 511.878,-70 511.878,-106"/>
<text text-anchor="middle" x="419.378" y="-85.2" font-family="Courier,monospace" font-size="11.00">Horde_LoginTasks_Tasklist</text>
</g>
<!-- \\Horde_LoginTasks -->
<g id="node6" class="node"><title>\\Horde_LoginTasks</title>
<polygon fill="none" stroke="black" points="481.878,-52 356.878,-52 356.878,-16 481.878,-16 481.878,-52"/>
<text text-anchor="middle" x="419.378" y="-31.2" font-family="Courier,monospace" font-size="11.00">Horde_LoginTasks</text>
</g>
</g>
</svg>
