<?xml version="1.0" encoding="UTF-8" standalone="no"?>
<!DOCTYPE svg PUBLIC "-//W3C//DTD SVG 1.1//EN"
 "http://www.w3.org/Graphics/SVG/1.1/DTD/svg11.dtd">
<!-- Generated by graphviz version 2.38.0 (20140413.2041)
 -->
<!-- Title: G Pages: 1 -->
<svg width="539pt" height="564pt"
 viewBox="0.00 0.00 539.38 564.00" xmlns="http://www.w3.org/2000/svg" xmlns:xlink="http://www.w3.org/1999/xlink">
<g id="graph0" class="graph" transform="scale(1 1) rotate(0) translate(4 560)">
<title>G</title>
<polygon fill="white" stroke="none" points="-4,4 -4,-560 535.378,-560 535.378,4 -4,4"/>
<g id="clust1" class="cluster"><title>cluster_Global</title>
<path fill="none" stroke="gray" d="M53.6892,-98C53.6892,-98 511.378,-98 511.378,-98 517.378,-98 523.378,-104 523.378,-110 523.378,-110 523.378,-536 523.378,-536 523.378,-542 517.378,-548 511.378,-548 511.378,-548 53.6892,-548 53.6892,-548 47.6892,-548 41.6892,-542 41.6892,-536 41.6892,-536 41.6892,-110 41.6892,-110 41.6892,-104 47.6892,-98 53.6892,-98"/>
<text text-anchor="middle" x="282.534" y="-535.2" font-family="Times,serif" font-size="11.00" fill="gray">Global</text>
</g>
<!-- \\Horde_Alarm -->
<g id="node1" class="node"><title>\\Horde_Alarm</title>
<polygon fill="none" stroke="black" points="167.689,-304 76.6892,-304 76.6892,-268 167.689,-268 167.689,-304"/>
<text text-anchor="start" x="88.1892" y="-289.2" font-family="Courier,monospace" font-size="11.00">«abstract»</text>
<text text-anchor="start" x="84.6892" y="-277.2" font-family="Courier,monospace" font-size="11.00">Horde_Alarm</text>
</g>
<!-- \\Horde_Alarm_Null -->
<g id="node2" class="node"><title>\\Horde_Alarm_Null</title>
<polygon fill="none" stroke="black" points="478.378,-358 353.378,-358 353.378,-322 478.378,-322 478.378,-358"/>
<text text-anchor="middle" x="415.878" y="-337.2" font-family="Courier,monospace" font-size="11.00">Horde_Alarm_Null</text>
</g>
<!-- \\Horde_Alarm_Null&#45;&gt;\\Horde_Alarm -->
<g id="edge1" class="edge"><title>\\Horde_Alarm_Null&#45;&gt;\\Horde_Alarm</title>
<path fill="none" stroke="black" d="M353.375,-328.614C301.459,-319.003 227.82,-305.37 177.92,-296.132"/>
<polygon fill="none" stroke="black" points="178.43,-292.667 167.96,-294.288 177.155,-299.55 178.43,-292.667"/>
</g>
<!-- \\Horde_Alarm_Handler_Desktop -->
<g id="node3" class="node"><title>\\Horde_Alarm_Handler_Desktop</title>
<polygon fill="none" stroke="black" points="515.378,-520 316.378,-520 316.378,-484 515.378,-484 515.378,-520"/>
<text text-anchor="middle" x="415.878" y="-499.2" font-family="Courier,monospace" font-size="11.00">Horde_Alarm_Handler_Desktop</text>
</g>
<!-- \\Horde_Alarm_Handler -->
<g id="node8" class="node"><title>\\Horde_Alarm_Handler</title>
<polygon fill="none" stroke="black" points="194.689,-466 49.6892,-466 49.6892,-430 194.689,-430 194.689,-466"/>
<text text-anchor="start" x="88.1892" y="-451.2" font-family="Courier,monospace" font-size="11.00">«abstract»</text>
<text text-anchor="start" x="57.6892" y="-439.2" font-family="Courier,monospace" font-size="11.00">Horde_Alarm_Handler</text>
</g>
<!-- \\Horde_Alarm_Handler_Desktop&#45;&gt;\\Horde_Alarm_Handler -->
<g id="edge2" class="edge"><title>\\Horde_Alarm_Handler_Desktop&#45;&gt;\\Horde_Alarm_Handler</title>
<path fill="none" stroke="black" d="M317.345,-483.944C280.866,-477.19 239.842,-469.596 204.934,-463.133"/>
<polygon fill="none" stroke="black" points="205.255,-459.633 194.785,-461.254 203.981,-466.516 205.255,-459.633"/>
</g>
<!-- \\Horde_Alarm_Handler_Mail -->
<g id="node4" class="node"><title>\\Horde_Alarm_Handler_Mail</title>
<polygon fill="none" stroke="black" points="505.378,-466 326.378,-466 326.378,-430 505.378,-430 505.378,-466"/>
<text text-anchor="middle" x="415.878" y="-445.2" font-family="Courier,monospace" font-size="11.00">Horde_Alarm_Handler_Mail</text>
</g>
<!-- \\Horde_Alarm_Handler_Mail&#45;&gt;\\Horde_Alarm_Handler -->
<g id="edge3" class="edge"><title>\\Horde_Alarm_Handler_Mail&#45;&gt;\\Horde_Alarm_Handler</title>
<path fill="none" stroke="black" d="M326.174,-448C287.719,-448 242.969,-448 205.287,-448"/>
<polygon fill="none" stroke="black" points="204.857,-444.5 194.857,-448 204.857,-451.5 204.857,-444.5"/>
</g>
<!-- \\Horde_Alarm_Handler_Notify -->
<g id="node5" class="node"><title>\\Horde_Alarm_Handler_Notify</title>
<polygon fill="none" stroke="black" points="511.878,-412 319.878,-412 319.878,-376 511.878,-376 511.878,-412"/>
<text text-anchor="middle" x="415.878" y="-391.2" font-family="Courier,monospace" font-size="11.00">Horde_Alarm_Handler_Notify</text>
</g>
<!-- \\Horde_Alarm_Handler_Notify&#45;&gt;\\Horde_Alarm_Handler -->
<g id="edge4" class="edge"><title>\\Horde_Alarm_Handler_Notify&#45;&gt;\\Horde_Alarm_Handler</title>
<path fill="none" stroke="black" d="M319.772,-411.607C282.693,-418.471 240.615,-426.261 204.93,-432.867"/>
<polygon fill="none" stroke="black" points="204.239,-429.436 195.044,-434.698 205.514,-436.319 204.239,-429.436"/>
</g>
<!-- \\Horde_Alarm_Object -->
<g id="node6" class="node"><title>\\Horde_Alarm_Object</title>
<polygon fill="none" stroke="black" points="484.878,-304 346.878,-304 346.878,-268 484.878,-268 484.878,-304"/>
<text text-anchor="middle" x="415.878" y="-283.2" font-family="Courier,monospace" font-size="11.00">Horde_Alarm_Object</text>
</g>
<!-- \\Horde_Alarm_Object&#45;&gt;\\Horde_Alarm -->
<g id="edge5" class="edge"><title>\\Horde_Alarm_Object&#45;&gt;\\Horde_Alarm</title>
<path fill="none" stroke="black" d="M346.858,-286C295.416,-286 225.706,-286 177.857,-286"/>
<polygon fill="none" stroke="black" points="177.694,-282.5 167.694,-286 177.694,-289.5 177.694,-282.5"/>
</g>
<!-- \\Horde_Alarm_Exception -->
<g id="node7" class="node"><title>\\Horde_Alarm_Exception</title>
<polygon fill="none" stroke="black" points="494.878,-196 336.878,-196 336.878,-160 494.878,-160 494.878,-196"/>
<text text-anchor="middle" x="415.878" y="-175.2" font-family="Courier,monospace" font-size="11.00">Horde_Alarm_Exception</text>
</g>
<!-- \\Horde_Exception_Wrapped -->
<g id="node11" class="node"><title>\\Horde_Exception_Wrapped</title>
<ellipse fill="none" stroke="black" cx="122.189" cy="-72" rx="112.38" ry="18"/>
<text text-anchor="middle" x="122.189" y="-68.3" font-family="Times,serif" font-size="14.00" fill="gray">\Horde_Exception_Wrapped</text>
</g>
<!-- \\Horde_Alarm_Exception&#45;&gt;\\Horde_Exception_Wrapped -->
<g id="edge6" class="edge"><title>\\Horde_Alarm_Exception&#45;&gt;\\Horde_Exception_Wrapped</title>
<path fill="none" stroke="black" d="M337.391,-159.993C330.138,-157.35 323.023,-154.363 316.378,-151 279.964,-132.567 281.568,-110.814 244.378,-94 237.254,-90.7791 229.693,-88.0295 221.965,-85.6822"/>
<polygon fill="none" stroke="black" points="222.681,-82.248 212.107,-82.919 220.791,-88.9882 222.681,-82.248"/>
</g>
<!-- \\Horde_Alarm_Sql -->
<g id="node9" class="node"><title>\\Horde_Alarm_Sql</title>
<polygon fill="none" stroke="black" points="474.878,-250 356.878,-250 356.878,-214 474.878,-214 474.878,-250"/>
<text text-anchor="middle" x="415.878" y="-229.2" font-family="Courier,monospace" font-size="11.00">Horde_Alarm_Sql</text>
</g>
<!-- \\Horde_Alarm_Sql&#45;&gt;\\Horde_Alarm -->
<g id="edge7" class="edge"><title>\\Horde_Alarm_Sql&#45;&gt;\\Horde_Alarm</title>
<path fill="none" stroke="black" d="M356.552,-242.798C304.493,-252.435 228.827,-266.443 177.9,-275.871"/>
<polygon fill="none" stroke="black" points="177.255,-272.431 168.059,-277.693 178.529,-279.314 177.255,-272.431"/>
</g>
<!-- \\Horde_Alarm_Translation -->
<g id="node10" class="node"><title>\\Horde_Alarm_Translation</title>
<polygon fill="none" stroke="black" points="501.878,-142 329.878,-142 329.878,-106 501.878,-106 501.878,-142"/>
<text text-anchor="middle" x="415.878" y="-121.2" font-family="Courier,monospace" font-size="11.00">Horde_Alarm_Translation</text>
</g>
<!-- \\Horde_Translation_Autodetect -->
<g id="node12" class="node"><title>\\Horde_Translation_Autodetect</title>
<ellipse fill="none" stroke="black" cx="122.189" cy="-18" rx="122.379" ry="18"/>
<text text-anchor="middle" x="122.189" y="-14.3" font-family="Times,serif" font-size="14.00" fill="gray">\Horde_Translation_Autodetect</text>
</g>
<!-- \\Horde_Alarm_Translation&#45;&gt;\\Horde_Translation_Autodetect -->
<g id="edge8" class="edge"><title>\\Horde_Alarm_Translation&#45;&gt;\\Horde_Translation_Autodetect</title>
<path fill="none" stroke="black" d="M381.472,-105.902C347.721,-88.2508 293.663,-61.6918 244.378,-45 232.86,-41.0989 220.532,-37.6059 208.312,-34.5307"/>
<polygon fill="none" stroke="black" points="209.096,-31.1194 198.551,-32.1541 207.44,-37.9206 209.096,-31.1194"/>
</g>
</g>
</svg>
