<?xml version="1.0" encoding="UTF-8" standalone="no"?>
<!DOCTYPE svg PUBLIC "-//W3C//DTD SVG 1.1//EN"
 "http://www.w3.org/Graphics/SVG/1.1/DTD/svg11.dtd">
<!-- Generated by graphviz version 2.38.0 (20140413.2041)
 -->
<!-- Title: G Pages: 1 -->
<svg width="789pt" height="618pt"
 viewBox="0.00 0.00 789.16 618.00" xmlns="http://www.w3.org/2000/svg" xmlns:xlink="http://www.w3.org/1999/xlink">
<g id="graph0" class="graph" transform="scale(1 1) rotate(0) translate(4 614)">
<title>G</title>
<polygon fill="white" stroke="none" points="-4,4 -4,-614 785.165,-614 785.165,4 -4,4"/>
<g id="clust1" class="cluster"><title>cluster_Global</title>
<path fill="none" stroke="gray" d="M272.976,-152C272.976,-152 761.165,-152 761.165,-152 767.165,-152 773.165,-158 773.165,-164 773.165,-164 773.165,-590 773.165,-590 773.165,-596 767.165,-602 761.165,-602 761.165,-602 272.976,-602 272.976,-602 266.976,-602 260.976,-596 260.976,-590 260.976,-590 260.976,-164 260.976,-164 260.976,-158 266.976,-152 272.976,-152"/>
<text text-anchor="middle" x="517.07" y="-589.2" font-family="Times,serif" font-size="11.00" fill="gray">Global</text>
</g>
<!-- \\Horde_Smtp -->
<g id="node1" class="node"><title>\\Horde_Smtp</title>
<polygon fill="none" stroke="black" points="386.976,-520 302.976,-520 302.976,-484 386.976,-484 386.976,-520"/>
<text text-anchor="middle" x="344.976" y="-499.2" font-family="Courier,monospace" font-size="11.00">Horde_Smtp</text>
</g>
<!-- \\Serializable -->
<g id="node12" class="node"><title>\\Serializable</title>
<ellipse fill="none" stroke="black" cx="75.3933" cy="-502" rx="54.6905" ry="18"/>
<text text-anchor="middle" x="75.3933" y="-498.3" font-family="Times,serif" font-size="14.00" fill="gray">\Serializable</text>
</g>
<!-- \\Horde_Smtp&#45;&gt;\\Serializable -->
<g id="edge1" class="edge"><title>\\Horde_Smtp&#45;&gt;\\Serializable</title>
<path fill="none" stroke="black" stroke-dasharray="1,5" d="M302.752,-502C259.413,-502 190.654,-502 140.281,-502"/>
<polygon fill="none" stroke="black" points="140.145,-498.5 130.145,-502 140.145,-505.5 140.145,-498.5"/>
</g>
<!-- \\Horde_Smtp_Exception -->
<g id="node2" class="node"><title>\\Horde_Smtp_Exception</title>
<polygon fill="none" stroke="black" points="420.976,-412 268.976,-412 268.976,-376 420.976,-376 420.976,-412"/>
<text text-anchor="middle" x="344.976" y="-391.2" font-family="Courier,monospace" font-size="11.00">Horde_Smtp_Exception</text>
</g>
<!-- \\Horde_Exception -->
<g id="node13" class="node"><title>\\Horde_Exception</title>
<ellipse fill="none" stroke="black" cx="75.3933" cy="-394" rx="75.2868" ry="18"/>
<text text-anchor="middle" x="75.3933" y="-390.3" font-family="Times,serif" font-size="14.00" fill="gray">\Horde_Exception</text>
</g>
<!-- \\Horde_Smtp_Exception&#45;&gt;\\Horde_Exception -->
<g id="edge2" class="edge"><title>\\Horde_Smtp_Exception&#45;&gt;\\Horde_Exception</title>
<path fill="none" stroke="black" d="M268.727,-394C235.243,-394 195.664,-394 161.142,-394"/>
<polygon fill="none" stroke="black" points="161.077,-390.5 151.077,-394 161.077,-397.5 161.077,-390.5"/>
</g>
<!-- \\Horde_Smtp_Debug -->
<g id="node3" class="node"><title>\\Horde_Smtp_Debug</title>
<polygon fill="none" stroke="black" points="714.665,-574 589.665,-574 589.665,-538 714.665,-538 714.665,-574"/>
<text text-anchor="middle" x="652.165" y="-553.2" font-family="Courier,monospace" font-size="11.00">Horde_Smtp_Debug</text>
</g>
<!-- \\Horde_Smtp_Exception_Recipients -->
<g id="node4" class="node"><title>\\Horde_Smtp_Exception_Recipients</title>
<polygon fill="none" stroke="black" points="765.165,-412 539.165,-412 539.165,-376 765.165,-376 765.165,-412"/>
<text text-anchor="middle" x="652.165" y="-391.2" font-family="Courier,monospace" font-size="11.00">Horde_Smtp_Exception_Recipients</text>
</g>
<!-- \\Horde_Smtp_Exception_Recipients&#45;&gt;\\Horde_Smtp_Exception -->
<g id="edge3" class="edge"><title>\\Horde_Smtp_Exception_Recipients&#45;&gt;\\Horde_Smtp_Exception</title>
<path fill="none" stroke="black" d="M538.824,-394C503.244,-394 464.519,-394 431.17,-394"/>
<polygon fill="none" stroke="black" points="431.002,-390.5 421.002,-394 431.002,-397.5 431.002,-390.5"/>
</g>
<!-- \\Horde_Smtp_Password_Xoauth2 -->
<g id="node5" class="node"><title>\\Horde_Smtp_Password_Xoauth2</title>
<polygon fill="none" stroke="black" points="751.665,-466 552.665,-466 552.665,-430 751.665,-430 751.665,-466"/>
<text text-anchor="middle" x="652.165" y="-445.2" font-family="Courier,monospace" font-size="11.00">Horde_Smtp_Password_Xoauth2</text>
</g>
<!-- \\Horde_Smtp_Password -->
<g id="node11" class="node"><title>\\Horde_Smtp_Password</title>
<polygon fill="none" stroke="black" points="417.476,-466 272.476,-466 272.476,-430 417.476,-430 417.476,-466"/>
<text text-anchor="middle" x="344.976" y="-445.2" font-family="Courier,monospace" font-size="11.00">Horde_Smtp_Password</text>
</g>
<!-- \\Horde_Smtp_Password_Xoauth2&#45;&gt;\\Horde_Smtp_Password -->
<g id="edge4" class="edge"><title>\\Horde_Smtp_Password_Xoauth2&#45;&gt;\\Horde_Smtp_Password</title>
<path fill="none" stroke="black" stroke-dasharray="1,5" d="M552.5,-448C512.214,-448 466.173,-448 427.801,-448"/>
<polygon fill="none" stroke="black" points="427.707,-444.5 417.707,-448 427.707,-451.5 427.707,-444.5"/>
</g>
<!-- \\Horde_Smtp_Filter_Data -->
<g id="node6" class="node"><title>\\Horde_Smtp_Filter_Data</title>
<polygon fill="none" stroke="black" points="734.665,-358 569.665,-358 569.665,-322 734.665,-322 734.665,-358"/>
<text text-anchor="middle" x="652.165" y="-337.2" font-family="Courier,monospace" font-size="11.00">Horde_Smtp_Filter_Data</text>
</g>
<!-- \\php_user_filter -->
<g id="node14" class="node"><title>\\php_user_filter</title>
<ellipse fill="none" stroke="black" cx="344.976" cy="-126" rx="66.8882" ry="18"/>
<text text-anchor="middle" x="344.976" y="-122.3" font-family="Times,serif" font-size="14.00" fill="gray">\php_user_filter</text>
</g>
<!-- \\Horde_Smtp_Filter_Data&#45;&gt;\\php_user_filter -->
<g id="edge5" class="edge"><title>\\Horde_Smtp_Filter_Data&#45;&gt;\\php_user_filter</title>
<path fill="none" stroke="black" d="M569.471,-329.806C558.48,-325.824 547.976,-320.391 539.165,-313 477.863,-261.581 529.906,-197.652 467.165,-148 454.32,-137.835 438.312,-131.784 422.183,-128.294"/>
<polygon fill="none" stroke="black" points="422.622,-124.816 412.152,-126.438 421.348,-131.699 422.622,-124.816"/>
</g>
<!-- \\Horde_Smtp_Filter_Body -->
<g id="node7" class="node"><title>\\Horde_Smtp_Filter_Body</title>
<polygon fill="none" stroke="black" points="734.665,-304 569.665,-304 569.665,-268 734.665,-268 734.665,-304"/>
<text text-anchor="middle" x="652.165" y="-283.2" font-family="Courier,monospace" font-size="11.00">Horde_Smtp_Filter_Body</text>
</g>
<!-- \\Horde_Smtp_Filter_Body&#45;&gt;\\php_user_filter -->
<g id="edge6" class="edge"><title>\\Horde_Smtp_Filter_Body&#45;&gt;\\php_user_filter</title>
<path fill="none" stroke="black" d="M569.638,-274.16C558.809,-270.403 548.307,-265.471 539.165,-259 491.169,-225.027 516.109,-180.592 467.165,-148 453.678,-139.019 437.558,-133.427 421.545,-130.005"/>
<polygon fill="none" stroke="black" points="422.086,-126.546 411.613,-128.144 420.797,-133.426 422.086,-126.546"/>
</g>
<!-- \\Horde_Smtp_Connection -->
<g id="node8" class="node"><title>\\Horde_Smtp_Connection</title>
<polygon fill="none" stroke="black" points="731.165,-250 573.165,-250 573.165,-214 731.165,-214 731.165,-250"/>
<text text-anchor="middle" x="652.165" y="-229.2" font-family="Courier,monospace" font-size="11.00">Horde_Smtp_Connection</text>
</g>
<!-- \\Horde\\Socket\\Client -->
<g id="node15" class="node"><title>\\Horde\\Socket\\Client</title>
<ellipse fill="none" stroke="black" cx="344.976" cy="-72" rx="85.2851" ry="18"/>
<text text-anchor="middle" x="344.976" y="-68.3" font-family="Times,serif" font-size="14.00" fill="gray">\Horde\Socket\Client</text>
</g>
<!-- \\Horde_Smtp_Connection&#45;&gt;\\Horde\\Socket\\Client -->
<g id="edge7" class="edge"><title>\\Horde_Smtp_Connection&#45;&gt;\\Horde\\Socket\\Client</title>
<path fill="none" stroke="black" d="M572.967,-221.048C560.999,-217.195 549.28,-212 539.165,-205 492.334,-172.592 514.276,-131.001 467.165,-99 456.508,-91.7612 444.222,-86.4307 431.648,-82.5121"/>
<polygon fill="none" stroke="black" points="432.574,-79.1368 421.999,-79.7825 430.669,-85.8725 432.574,-79.1368"/>
</g>
<!-- \\Horde_Smtp_Translation -->
<g id="node9" class="node"><title>\\Horde_Smtp_Translation</title>
<polygon fill="none" stroke="black" points="734.665,-196 569.665,-196 569.665,-160 734.665,-160 734.665,-196"/>
<text text-anchor="middle" x="652.165" y="-175.2" font-family="Courier,monospace" font-size="11.00">Horde_Smtp_Translation</text>
</g>
<!-- \\Horde_Translation_Autodetect -->
<g id="node16" class="node"><title>\\Horde_Translation_Autodetect</title>
<ellipse fill="none" stroke="black" cx="344.976" cy="-18" rx="122.379" ry="18"/>
<text text-anchor="middle" x="344.976" y="-14.3" font-family="Times,serif" font-size="14.00" fill="gray">\Horde_Translation_Autodetect</text>
</g>
<!-- \\Horde_Smtp_Translation&#45;&gt;\\Horde_Translation_Autodetect -->
<g id="edge8" class="edge"><title>\\Horde_Smtp_Translation&#45;&gt;\\Horde_Translation_Autodetect</title>
<path fill="none" stroke="black" d="M631.903,-159.884C600.146,-131.044 533.671,-74.9031 467.165,-45 457.704,-40.7463 447.519,-37.1377 437.214,-34.082"/>
<polygon fill="none" stroke="black" points="437.891,-30.6372 427.318,-31.3188 436.008,-37.3793 437.891,-30.6372"/>
</g>
<!-- \\Horde_Smtp_Lmtp -->
<g id="node10" class="node"><title>\\Horde_Smtp_Lmtp</title>
<polygon fill="none" stroke="black" points="711.165,-520 593.165,-520 593.165,-484 711.165,-484 711.165,-520"/>
<text text-anchor="middle" x="652.165" y="-499.2" font-family="Courier,monospace" font-size="11.00">Horde_Smtp_Lmtp</text>
</g>
<!-- \\Horde_Smtp_Lmtp&#45;&gt;\\Horde_Smtp -->
<g id="edge9" class="edge"><title>\\Horde_Smtp_Lmtp&#45;&gt;\\Horde_Smtp</title>
<path fill="none" stroke="black" d="M593.043,-502C536.502,-502 451.432,-502 397.32,-502"/>
<polygon fill="none" stroke="black" points="397.259,-498.5 387.259,-502 397.259,-505.5 397.259,-498.5"/>
</g>
</g>
</svg>
