<?xml version="1.0" encoding="UTF-8" standalone="no"?>
<!DOCTYPE svg PUBLIC "-//W3C//DTD SVG 1.1//EN"
 "http://www.w3.org/Graphics/SVG/1.1/DTD/svg11.dtd">
<!-- Generated by graphviz version 2.38.0 (20140413.2041)
 -->
<!-- Title: G Pages: 1 -->
<svg width="665pt" height="312pt"
 viewBox="0.00 0.00 665.00 312.00" xmlns="http://www.w3.org/2000/svg" xmlns:xlink="http://www.w3.org/1999/xlink">
<g id="graph0" class="graph" transform="scale(1 1) rotate(0) translate(4 308)">
<title>G</title>
<polygon fill="white" stroke="none" points="-4,4 -4,-308 661,-308 661,4 -4,4"/>
<g id="clust1" class="cluster"><title>cluster_Global</title>
<path fill="none" stroke="gray" d="M20,-8C20,-8 637,-8 637,-8 643,-8 649,-14 649,-20 649,-20 649,-284 649,-284 649,-290 643,-296 637,-296 637,-296 20,-296 20,-296 14,-296 8,-290 8,-284 8,-284 8,-20 8,-20 8,-14 14,-8 20,-8"/>
<text text-anchor="middle" x="328.5" y="-283.2" font-family="Times,serif" font-size="11.00" fill="gray">Global</text>
</g>
<!-- \\Horde_Autoloader -->
<g id="node1" class="node"><title>\\Horde_Autoloader</title>
<polygon fill="none" stroke="black" points="195,-268 70,-268 70,-232 195,-232 195,-268"/>
<text text-anchor="middle" x="132.5" y="-247.2" font-family="Courier,monospace" font-size="11.00">Horde_Autoloader</text>
</g>
<!-- \\Horde_Autoloader_Default -->
<g id="node2" class="node"><title>\\Horde_Autoloader_Default</title>
<polygon fill="none" stroke="black" points="570.5,-268 391.5,-268 391.5,-232 570.5,-232 570.5,-268"/>
<text text-anchor="middle" x="481" y="-247.2" font-family="Courier,monospace" font-size="11.00">Horde_Autoloader_Default</text>
</g>
<!-- \\Horde_Autoloader_Default&#45;&gt;\\Horde_Autoloader -->
<g id="edge1" class="edge"><title>\\Horde_Autoloader_Default&#45;&gt;\\Horde_Autoloader</title>
<path fill="none" stroke="black" d="M391.218,-250C333.481,-250 259.174,-250 205.196,-250"/>
<polygon fill="none" stroke="black" points="205.023,-246.5 195.023,-250 205.023,-253.5 205.023,-246.5"/>
</g>
<!-- \\Horde_Autoloader_ClassPathMapper_PrefixString -->
<g id="node3" class="node"><title>\\Horde_Autoloader_ClassPathMapper_PrefixString</title>
<polygon fill="none" stroke="black" points="641,-214 321,-214 321,-178 641,-178 641,-214"/>
<text text-anchor="middle" x="481" y="-193.2" font-family="Courier,monospace" font-size="11.00">Horde_Autoloader_ClassPathMapper_PrefixString</text>
</g>
<!-- \\Horde_Autoloader_ClassPathMapper -->
<g id="node7" class="node"><title>\\Horde_Autoloader_ClassPathMapper</title>
<polygon fill="none" stroke="black" points="249,-133 16,-133 16,-97 249,-97 249,-133"/>
<text text-anchor="middle" x="132.5" y="-112.2" font-family="Courier,monospace" font-size="11.00">Horde_Autoloader_ClassPathMapper</text>
</g>
<!-- \\Horde_Autoloader_ClassPathMapper_PrefixString&#45;&gt;\\Horde_Autoloader_ClassPathMapper -->
<g id="edge2" class="edge"><title>\\Horde_Autoloader_ClassPathMapper_PrefixString&#45;&gt;\\Horde_Autoloader_ClassPathMapper</title>
<path fill="none" stroke="black" stroke-dasharray="1,5" d="M364.628,-177.979C349.895,-175.217 335.058,-172.207 321,-169 280.397,-159.736 235.549,-146.916 199.898,-136.092"/>
<polygon fill="none" stroke="black" points="200.684,-132.672 190.097,-133.097 198.637,-139.367 200.684,-132.672"/>
</g>
<!-- \\Horde_Autoloader_ClassPathMapper_Default -->
<g id="node4" class="node"><title>\\Horde_Autoloader_ClassPathMapper_Default</title>
<polygon fill="none" stroke="black" points="624.5,-160 337.5,-160 337.5,-124 624.5,-124 624.5,-160"/>
<text text-anchor="middle" x="481" y="-139.2" font-family="Courier,monospace" font-size="11.00">Horde_Autoloader_ClassPathMapper_Default</text>
</g>
<!-- \\Horde_Autoloader_ClassPathMapper_Default&#45;&gt;\\Horde_Autoloader_ClassPathMapper -->
<g id="edge3" class="edge"><title>\\Horde_Autoloader_ClassPathMapper_Default&#45;&gt;\\Horde_Autoloader_ClassPathMapper</title>
<path fill="none" stroke="black" stroke-dasharray="1,5" d="M337.315,-130.882C311.378,-128.861 284.497,-126.766 259.098,-124.787"/>
<polygon fill="none" stroke="black" points="259.309,-121.293 249.067,-124.005 258.765,-128.272 259.309,-121.293"/>
</g>
<!-- \\Horde_Autoloader_ClassPathMapper_Application -->
<g id="node5" class="node"><title>\\Horde_Autoloader_ClassPathMapper_Application</title>
<polygon fill="none" stroke="black" points="638,-106 324,-106 324,-70 638,-70 638,-106"/>
<text text-anchor="middle" x="481" y="-85.2" font-family="Courier,monospace" font-size="11.00">Horde_Autoloader_ClassPathMapper_Application</text>
</g>
<!-- \\Horde_Autoloader_ClassPathMapper_Application&#45;&gt;\\Horde_Autoloader_ClassPathMapper -->
<g id="edge4" class="edge"><title>\\Horde_Autoloader_ClassPathMapper_Application&#45;&gt;\\Horde_Autoloader_ClassPathMapper</title>
<path fill="none" stroke="black" stroke-dasharray="1,5" d="M323.982,-100.157C302.37,-101.841 280.397,-103.553 259.427,-105.188"/>
<polygon fill="none" stroke="black" points="258.916,-101.717 249.218,-105.983 259.46,-108.695 258.916,-101.717"/>
</g>
<!-- \\Horde_Autoloader_ClassPathMapper_Prefix -->
<g id="node6" class="node"><title>\\Horde_Autoloader_ClassPathMapper_Prefix</title>
<polygon fill="none" stroke="black" points="621,-52 341,-52 341,-16 621,-16 621,-52"/>
<text text-anchor="middle" x="481" y="-31.2" font-family="Courier,monospace" font-size="11.00">Horde_Autoloader_ClassPathMapper_Prefix</text>
</g>
<!-- \\Horde_Autoloader_ClassPathMapper_Prefix&#45;&gt;\\Horde_Autoloader_ClassPathMapper -->
<g id="edge5" class="edge"><title>\\Horde_Autoloader_ClassPathMapper_Prefix&#45;&gt;\\Horde_Autoloader_ClassPathMapper</title>
<path fill="none" stroke="black" stroke-dasharray="1,5" d="M364.628,-52.0214C349.895,-54.783 335.058,-57.7926 321,-61 280.397,-70.2636 235.549,-83.0837 199.898,-93.9079"/>
<polygon fill="none" stroke="black" points="198.637,-90.6332 190.097,-96.9034 200.684,-97.3275 198.637,-90.6332"/>
</g>
</g>
</svg>
