<?xml version="1.0" encoding="UTF-8" standalone="no"?>
<!DOCTYPE svg PUBLIC "-//W3C//DTD SVG 1.1//EN"
 "http://www.w3.org/Graphics/SVG/1.1/DTD/svg11.dtd">
<!-- Generated by graphviz version 2.38.0 (20140413.2041)
 -->
<!-- Title: G Pages: 1 -->
<svg width="819pt" height="1104pt"
 viewBox="0.00 0.00 819.38 1104.00" xmlns="http://www.w3.org/2000/svg" xmlns:xlink="http://www.w3.org/1999/xlink">
<g id="graph0" class="graph" transform="scale(1 1) rotate(0) translate(4 1100)">
<title>G</title>
<polygon fill="white" stroke="none" points="-4,4 -4,-1100 815.378,-1100 815.378,4 -4,4"/>
<g id="clust1" class="cluster"><title>cluster_Global</title>
<path fill="none" stroke="gray" d="M20,-44C20,-44 791.378,-44 791.378,-44 797.378,-44 803.378,-50 803.378,-56 803.378,-56 803.378,-1076 803.378,-1076 803.378,-1082 797.378,-1088 791.378,-1088 791.378,-1088 20,-1088 20,-1088 14,-1088 8,-1082 8,-1076 8,-1076 8,-56 8,-56 8,-50 14,-44 20,-44"/>
<text text-anchor="middle" x="405.689" y="-1075.2" font-family="Times,serif" font-size="11.00" fill="gray">Global</text>
</g>
<!-- \\Horde_SyncMl -->
<g id="node1" class="node"><title>\\Horde_SyncMl</title>
<polygon fill="none" stroke="black" points="724.878,-1060 626.878,-1060 626.878,-1024 724.878,-1024 724.878,-1060"/>
<text text-anchor="middle" x="675.878" y="-1039.2" font-family="Courier,monospace" font-size="11.00">Horde_SyncMl</text>
</g>
<!-- \\Horde_SyncMl_SyncElement -->
<g id="node2" class="node"><title>\\Horde_SyncMl_SyncElement</title>
<polygon fill="none" stroke="black" points="765.378,-1006 586.378,-1006 586.378,-970 765.378,-970 765.378,-1006"/>
<text text-anchor="middle" x="675.878" y="-985.2" font-family="Courier,monospace" font-size="11.00">Horde_SyncMl_SyncElement</text>
</g>
<!-- \\Horde_SyncMl_XmlOutput -->
<g id="node3" class="node"><title>\\Horde_SyncMl_XmlOutput</title>
<polygon fill="none" stroke="black" points="758.378,-952 593.378,-952 593.378,-916 758.378,-916 758.378,-952"/>
<text text-anchor="middle" x="675.878" y="-931.2" font-family="Courier,monospace" font-size="11.00">Horde_SyncMl_XmlOutput</text>
</g>
<!-- \\Horde_SyncMl_Command -->
<g id="node4" class="node"><title>\\Horde_SyncMl_Command</title>
<polygon fill="none" stroke="black" points="168,-844 16,-844 16,-808 168,-808 168,-844"/>
<text text-anchor="middle" x="92" y="-823.2" font-family="Courier,monospace" font-size="11.00">Horde_SyncMl_Command</text>
</g>
<!-- \\Horde_SyncMl_DeviceInfo -->
<g id="node5" class="node"><title>\\Horde_SyncMl_DeviceInfo</title>
<polygon fill="none" stroke="black" points="761.878,-898 589.878,-898 589.878,-862 761.878,-862 761.878,-898"/>
<text text-anchor="middle" x="675.878" y="-877.2" font-family="Courier,monospace" font-size="11.00">Horde_SyncMl_DeviceInfo</text>
</g>
<!-- \\Horde_SyncMl_Sync -->
<g id="node6" class="node"><title>\\Horde_SyncMl_Sync</title>
<polygon fill="none" stroke="black" points="741.378,-844 610.378,-844 610.378,-808 741.378,-808 741.378,-844"/>
<text text-anchor="middle" x="675.878" y="-823.2" font-family="Courier,monospace" font-size="11.00">Horde_SyncMl_Sync</text>
</g>
<!-- \\Horde_SyncMl_DataStore -->
<g id="node7" class="node"><title>\\Horde_SyncMl_DataStore</title>
<polygon fill="none" stroke="black" points="758.378,-790 593.378,-790 593.378,-754 758.378,-754 758.378,-790"/>
<text text-anchor="middle" x="675.878" y="-769.2" font-family="Courier,monospace" font-size="11.00">Horde_SyncMl_DataStore</text>
</g>
<!-- \\Horde_SyncMl_Command_Get -->
<g id="node8" class="node"><title>\\Horde_SyncMl_Command_Get</title>
<polygon fill="none" stroke="black" points="451.689,-1060 272.689,-1060 272.689,-1024 451.689,-1024 451.689,-1060"/>
<text text-anchor="middle" x="362.189" y="-1039.2" font-family="Courier,monospace" font-size="11.00">Horde_SyncMl_Command_Get</text>
</g>
<!-- \\Horde_SyncMl_Command_Get&#45;&gt;\\Horde_SyncMl_Command -->
<g id="edge1" class="edge"><title>\\Horde_SyncMl_Command_Get&#45;&gt;\\Horde_SyncMl_Command</title>
<path fill="none" stroke="black" d="M272.587,-1029.83C261.117,-1026.12 249.925,-1021.28 240,-1015 175.65,-974.253 128.111,-895.014 106.283,-853.257"/>
<polygon fill="none" stroke="black" points="109.327,-851.523 101.654,-844.217 103.097,-854.713 109.327,-851.523"/>
</g>
<!-- \\Horde_SyncMl_Command_Map -->
<g id="node9" class="node"><title>\\Horde_SyncMl_Command_Map</title>
<polygon fill="none" stroke="black" points="451.689,-1006 272.689,-1006 272.689,-970 451.689,-970 451.689,-1006"/>
<text text-anchor="middle" x="362.189" y="-985.2" font-family="Courier,monospace" font-size="11.00">Horde_SyncMl_Command_Map</text>
</g>
<!-- \\Horde_SyncMl_Command_Map&#45;&gt;\\Horde_SyncMl_Command -->
<g id="edge2" class="edge"><title>\\Horde_SyncMl_Command_Map&#45;&gt;\\Horde_SyncMl_Command</title>
<path fill="none" stroke="black" d="M272.538,-973.964C261.257,-970.541 250.128,-966.286 240,-961 187.552,-933.625 139.674,-882.713 113.601,-851.838"/>
<polygon fill="none" stroke="black" points="116.23,-849.525 107.146,-844.072 110.847,-854 116.23,-849.525"/>
</g>
<!-- \\Horde_SyncMl_Command_Replace -->
<g id="node10" class="node"><title>\\Horde_SyncMl_Command_Replace</title>
<polygon fill="none" stroke="black" points="465.189,-952 259.189,-952 259.189,-916 465.189,-916 465.189,-952"/>
<text text-anchor="middle" x="362.189" y="-931.2" font-family="Courier,monospace" font-size="11.00">Horde_SyncMl_Command_Replace</text>
</g>
<!-- \\Horde_SyncMl_Command_Replace&#45;&gt;\\Horde_SyncMl_Command -->
<g id="edge3" class="edge"><title>\\Horde_SyncMl_Command_Replace&#45;&gt;\\Horde_SyncMl_Command</title>
<path fill="none" stroke="black" d="M267.439,-915.927C258.06,-913.284 248.771,-910.316 240,-907 200.108,-891.92 157.781,-867.607 128.843,-849.548"/>
<polygon fill="none" stroke="black" points="130.634,-846.539 120.31,-844.161 126.898,-852.459 130.634,-846.539"/>
</g>
<!-- \\Horde_SyncMl_Command_Status -->
<g id="node11" class="node"><title>\\Horde_SyncMl_Command_Status</title>
<polygon fill="none" stroke="black" points="461.689,-898 262.689,-898 262.689,-862 461.689,-862 461.689,-898"/>
<text text-anchor="middle" x="362.189" y="-877.2" font-family="Courier,monospace" font-size="11.00">Horde_SyncMl_Command_Status</text>
</g>
<!-- \\Horde_SyncMl_Command_Status&#45;&gt;\\Horde_SyncMl_Command -->
<g id="edge4" class="edge"><title>\\Horde_SyncMl_Command_Status&#45;&gt;\\Horde_SyncMl_Command</title>
<path fill="none" stroke="black" d="M271.513,-861.944C241.415,-855.883 207.951,-849.146 178.206,-843.156"/>
<polygon fill="none" stroke="black" points="178.766,-839.699 168.271,-841.156 177.384,-846.561 178.766,-839.699"/>
</g>
<!-- \\Horde_SyncMl_Command_SyncHdr -->
<g id="node12" class="node"><title>\\Horde_SyncMl_Command_SyncHdr</title>
<polygon fill="none" stroke="black" points="465.189,-844 259.189,-844 259.189,-808 465.189,-808 465.189,-844"/>
<text text-anchor="middle" x="362.189" y="-823.2" font-family="Courier,monospace" font-size="11.00">Horde_SyncMl_Command_SyncHdr</text>
</g>
<!-- \\Horde_SyncMl_Command_SyncHdr&#45;&gt;\\Horde_SyncMl_Command -->
<g id="edge5" class="edge"><title>\\Horde_SyncMl_Command_SyncHdr&#45;&gt;\\Horde_SyncMl_Command</title>
<path fill="none" stroke="black" d="M259.033,-826C232.374,-826 203.927,-826 178.248,-826"/>
<polygon fill="none" stroke="black" points="178.179,-822.5 168.179,-826 178.179,-829.5 178.179,-822.5"/>
</g>
<!-- \\Horde_SyncMl_Command_Sync -->
<g id="node13" class="node"><title>\\Horde_SyncMl_Command_Sync</title>
<polygon fill="none" stroke="black" points="454.689,-790 269.689,-790 269.689,-754 454.689,-754 454.689,-790"/>
<text text-anchor="middle" x="362.189" y="-769.2" font-family="Courier,monospace" font-size="11.00">Horde_SyncMl_Command_Sync</text>
</g>
<!-- \\Horde_SyncMl_Command_Sync&#45;&gt;\\Horde_SyncMl_Command -->
<g id="edge6" class="edge"><title>\\Horde_SyncMl_Command_Sync&#45;&gt;\\Horde_SyncMl_Command</title>
<path fill="none" stroke="black" d="M271.513,-790.056C241.415,-796.117 207.951,-802.854 178.206,-808.844"/>
<polygon fill="none" stroke="black" points="177.384,-805.439 168.271,-810.844 178.766,-812.301 177.384,-805.439"/>
</g>
<!-- \\Horde_SyncMl_Command_Final -->
<g id="node14" class="node"><title>\\Horde_SyncMl_Command_Final</title>
<polygon fill="none" stroke="black" points="458.189,-736 266.189,-736 266.189,-700 458.189,-700 458.189,-736"/>
<text text-anchor="middle" x="362.189" y="-715.2" font-family="Courier,monospace" font-size="11.00">Horde_SyncMl_Command_Final</text>
</g>
<!-- \\Horde_SyncMl_Command_Final&#45;&gt;\\Horde_SyncMl_Command -->
<g id="edge7" class="edge"><title>\\Horde_SyncMl_Command_Final&#45;&gt;\\Horde_SyncMl_Command</title>
<path fill="none" stroke="black" d="M267.439,-736.073C258.06,-738.716 248.771,-741.684 240,-745 200.108,-760.08 157.781,-784.393 128.843,-802.452"/>
<polygon fill="none" stroke="black" points="126.898,-799.541 120.31,-807.839 130.634,-805.461 126.898,-799.541"/>
</g>
<!-- \\Horde_SyncMl_Command_Put -->
<g id="node15" class="node"><title>\\Horde_SyncMl_Command_Put</title>
<polygon fill="none" stroke="black" points="451.689,-628 272.689,-628 272.689,-592 451.689,-592 451.689,-628"/>
<text text-anchor="middle" x="362.189" y="-607.2" font-family="Courier,monospace" font-size="11.00">Horde_SyncMl_Command_Put</text>
</g>
<!-- \\Horde_SyncMl_Command_Put&#45;&gt;\\Horde_SyncMl_Command -->
<g id="edge8" class="edge"><title>\\Horde_SyncMl_Command_Put&#45;&gt;\\Horde_SyncMl_Command</title>
<path fill="none" stroke="black" d="M272.587,-622.169C261.117,-625.883 249.925,-630.715 240,-637 175.65,-677.747 128.111,-756.986 106.283,-798.743"/>
<polygon fill="none" stroke="black" points="103.097,-797.287 101.654,-807.783 109.327,-800.477 103.097,-797.287"/>
</g>
<!-- \\Horde_SyncMl_Command_Alert -->
<g id="node16" class="node"><title>\\Horde_SyncMl_Command_Alert</title>
<polygon fill="none" stroke="black" points="458.189,-682 266.189,-682 266.189,-646 458.189,-646 458.189,-682"/>
<text text-anchor="middle" x="362.189" y="-661.2" font-family="Courier,monospace" font-size="11.00">Horde_SyncMl_Command_Alert</text>
</g>
<!-- \\Horde_SyncMl_Command_Alert&#45;&gt;\\Horde_SyncMl_Command -->
<g id="edge9" class="edge"><title>\\Horde_SyncMl_Command_Alert&#45;&gt;\\Horde_SyncMl_Command</title>
<path fill="none" stroke="black" d="M266.174,-680.064C257.093,-683.101 248.217,-686.711 240,-691 187.552,-718.375 139.674,-769.287 113.601,-800.162"/>
<polygon fill="none" stroke="black" points="110.847,-798 107.146,-807.928 116.23,-802.475 110.847,-798"/>
</g>
<!-- \\Horde_SyncMl_Command_Results -->
<g id="node17" class="node"><title>\\Horde_SyncMl_Command_Results</title>
<polygon fill="none" stroke="black" points="778.878,-736 572.878,-736 572.878,-700 778.878,-700 778.878,-736"/>
<text text-anchor="middle" x="675.878" y="-715.2" font-family="Courier,monospace" font-size="11.00">Horde_SyncMl_Command_Results</text>
</g>
<!-- \\Horde_SyncMl_Command_Results&#45;&gt;\\Horde_SyncMl_Command_Put -->
<g id="edge10" class="edge"><title>\\Horde_SyncMl_Command_Results&#45;&gt;\\Horde_SyncMl_Command_Put</title>
<path fill="none" stroke="black" d="M579.264,-699.939C571.38,-697.334 563.654,-694.37 556.378,-691 520.083,-674.188 520.714,-653.724 484.378,-637 477.07,-633.636 469.316,-630.679 461.403,-628.082"/>
<polygon fill="none" stroke="black" points="462.278,-624.689 451.69,-625.09 460.216,-631.379 462.278,-624.689"/>
</g>
<!-- \\Horde_SyncMl_PropertyParameter -->
<g id="node18" class="node"><title>\\Horde_SyncMl_PropertyParameter</title>
<polygon fill="none" stroke="black" points="785.378,-682 566.378,-682 566.378,-646 785.378,-646 785.378,-682"/>
<text text-anchor="middle" x="675.878" y="-661.2" font-family="Courier,monospace" font-size="11.00">Horde_SyncMl_PropertyParameter</text>
</g>
<!-- \\Horde_SyncMl_Property -->
<g id="node19" class="node"><title>\\Horde_SyncMl_Property</title>
<polygon fill="none" stroke="black" points="754.878,-628 596.878,-628 596.878,-592 754.878,-592 754.878,-628"/>
<text text-anchor="middle" x="675.878" y="-607.2" font-family="Courier,monospace" font-size="11.00">Horde_SyncMl_Property</text>
</g>
<!-- \\Horde_SyncMl_Device -->
<g id="node20" class="node"><title>\\Horde_SyncMl_Device</title>
<polygon fill="none" stroke="black" points="434.689,-250 289.689,-250 289.689,-214 434.689,-214 434.689,-250"/>
<text text-anchor="middle" x="362.189" y="-229.2" font-family="Courier,monospace" font-size="11.00">Horde_SyncMl_Device</text>
</g>
<!-- \\Horde_SyncMl_Backend -->
<g id="node21" class="node"><title>\\Horde_SyncMl_Backend</title>
<polygon fill="none" stroke="black" points="438.189,-439 286.189,-439 286.189,-403 438.189,-403 438.189,-439"/>
<text text-anchor="middle" x="362.189" y="-418.2" font-family="Courier,monospace" font-size="11.00">Horde_SyncMl_Backend</text>
</g>
<!-- \\Horde_SyncMl_ContentHandler -->
<g id="node22" class="node"><title>\\Horde_SyncMl_ContentHandler</title>
<polygon fill="none" stroke="black" points="775.378,-574 576.378,-574 576.378,-538 775.378,-538 775.378,-574"/>
<text text-anchor="middle" x="675.878" y="-553.2" font-family="Courier,monospace" font-size="11.00">Horde_SyncMl_ContentHandler</text>
</g>
<!-- \\Horde_SyncMl_State -->
<g id="node23" class="node"><title>\\Horde_SyncMl_State</title>
<polygon fill="none" stroke="black" points="744.878,-520 606.878,-520 606.878,-484 744.878,-484 744.878,-520"/>
<text text-anchor="middle" x="675.878" y="-499.2" font-family="Courier,monospace" font-size="11.00">Horde_SyncMl_State</text>
</g>
<!-- \\Horde_SyncMl_Backend_Horde -->
<g id="node24" class="node"><title>\\Horde_SyncMl_Backend_Horde</title>
<polygon fill="none" stroke="black" points="771.878,-466 579.878,-466 579.878,-430 771.878,-430 771.878,-466"/>
<text text-anchor="middle" x="675.878" y="-445.2" font-family="Courier,monospace" font-size="11.00">Horde_SyncMl_Backend_Horde</text>
</g>
<!-- \\Horde_SyncMl_Backend_Horde&#45;&gt;\\Horde_SyncMl_Backend -->
<g id="edge11" class="edge"><title>\\Horde_SyncMl_Backend_Horde&#45;&gt;\\Horde_SyncMl_Backend</title>
<path fill="none" stroke="black" d="M579.668,-439.752C537.83,-436.128 489.085,-431.906 448.454,-428.386"/>
<polygon fill="none" stroke="black" points="448.573,-424.883 438.308,-427.507 447.969,-431.857 448.573,-424.883"/>
</g>
<!-- \\Horde_SyncMl_Backend_Sql -->
<g id="node25" class="node"><title>\\Horde_SyncMl_Backend_Sql</title>
<polygon fill="none" stroke="black" points="765.378,-412 586.378,-412 586.378,-376 765.378,-376 765.378,-412"/>
<text text-anchor="middle" x="675.878" y="-391.2" font-family="Courier,monospace" font-size="11.00">Horde_SyncMl_Backend_Sql</text>
</g>
<!-- \\Horde_SyncMl_Backend_Sql&#45;&gt;\\Horde_SyncMl_Backend -->
<g id="edge12" class="edge"><title>\\Horde_SyncMl_Backend_Sql&#45;&gt;\\Horde_SyncMl_Backend</title>
<path fill="none" stroke="black" d="M585.978,-401.701C542.75,-405.446 491.038,-409.925 448.322,-413.625"/>
<polygon fill="none" stroke="black" points="447.891,-410.15 438.23,-414.5 448.495,-417.123 447.891,-410.15"/>
</g>
<!-- \\Horde_SyncMl_Device_Synthesis -->
<g id="node26" class="node"><title>\\Horde_SyncMl_Device_Synthesis</title>
<polygon fill="none" stroke="black" points="781.878,-358 569.878,-358 569.878,-322 781.878,-322 781.878,-358"/>
<text text-anchor="middle" x="675.878" y="-337.2" font-family="Courier,monospace" font-size="11.00">Horde_SyncMl_Device_Synthesis</text>
</g>
<!-- \\Horde_SyncMl_Device_Synthesis&#45;&gt;\\Horde_SyncMl_Device -->
<g id="edge13" class="edge"><title>\\Horde_SyncMl_Device_Synthesis&#45;&gt;\\Horde_SyncMl_Device</title>
<path fill="none" stroke="black" d="M587.688,-321.95C577.066,-319.218 566.424,-316.224 556.378,-313 505.3,-296.609 448.948,-272.216 410.356,-254.484"/>
<polygon fill="none" stroke="black" points="411.486,-251.15 400.941,-250.128 408.547,-257.503 411.486,-251.15"/>
</g>
<!-- \\Horde_SyncMl_Device_Sync4JMozilla -->
<g id="node27" class="node"><title>\\Horde_SyncMl_Device_Sync4JMozilla</title>
<polygon fill="none" stroke="black" points="795.378,-304 556.378,-304 556.378,-268 795.378,-268 795.378,-304"/>
<text text-anchor="middle" x="675.878" y="-283.2" font-family="Courier,monospace" font-size="11.00">Horde_SyncMl_Device_Sync4JMozilla</text>
</g>
<!-- \\Horde_SyncMl_Device_Sync4JMozilla&#45;&gt;\\Horde_SyncMl_Device -->
<g id="edge14" class="edge"><title>\\Horde_SyncMl_Device_Sync4JMozilla&#45;&gt;\\Horde_SyncMl_Device</title>
<path fill="none" stroke="black" d="M570.657,-267.944C529.718,-260.851 483.421,-252.83 444.965,-246.168"/>
<polygon fill="none" stroke="black" points="445.304,-242.674 434.853,-244.416 444.109,-249.571 445.304,-242.674"/>
</g>
<!-- \\Horde_SyncMl_Device_Nokia -->
<g id="node28" class="node"><title>\\Horde_SyncMl_Device_Nokia</title>
<polygon fill="none" stroke="black" points="768.378,-250 583.378,-250 583.378,-214 768.378,-214 768.378,-250"/>
<text text-anchor="middle" x="675.878" y="-229.2" font-family="Courier,monospace" font-size="11.00">Horde_SyncMl_Device_Nokia</text>
</g>
<!-- \\Horde_SyncMl_Device_Nokia&#45;&gt;\\Horde_SyncMl_Device -->
<g id="edge15" class="edge"><title>\\Horde_SyncMl_Device_Nokia&#45;&gt;\\Horde_SyncMl_Device</title>
<path fill="none" stroke="black" d="M583.047,-232C539.242,-232 487.27,-232 444.857,-232"/>
<polygon fill="none" stroke="black" points="444.85,-228.5 434.85,-232 444.85,-235.5 444.85,-228.5"/>
</g>
<!-- \\Horde_SyncMl_Device_sync4j -->
<g id="node29" class="node"><title>\\Horde_SyncMl_Device_sync4j</title>
<polygon fill="none" stroke="black" points="771.878,-196 579.878,-196 579.878,-160 771.878,-160 771.878,-196"/>
<text text-anchor="middle" x="675.878" y="-175.2" font-family="Courier,monospace" font-size="11.00">Horde_SyncMl_Device_sync4j</text>
</g>
<!-- \\Horde_SyncMl_Device_sync4j&#45;&gt;\\Horde_SyncMl_Device -->
<g id="edge16" class="edge"><title>\\Horde_SyncMl_Device_sync4j&#45;&gt;\\Horde_SyncMl_Device</title>
<path fill="none" stroke="black" d="M579.668,-194.495C536.666,-201.945 486.368,-210.659 445.083,-217.812"/>
<polygon fill="none" stroke="black" points="444.32,-214.392 435.064,-219.548 445.515,-221.289 444.32,-214.392"/>
</g>
<!-- \\Horde_SyncMl_Device_P800 -->
<g id="node30" class="node"><title>\\Horde_SyncMl_Device_P800</title>
<polygon fill="none" stroke="black" points="765.378,-142 586.378,-142 586.378,-106 765.378,-106 765.378,-142"/>
<text text-anchor="middle" x="675.878" y="-121.2" font-family="Courier,monospace" font-size="11.00">Horde_SyncMl_Device_P800</text>
</g>
<!-- \\Horde_SyncMl_Device_P800&#45;&gt;\\Horde_SyncMl_Device -->
<g id="edge17" class="edge"><title>\\Horde_SyncMl_Device_P800&#45;&gt;\\Horde_SyncMl_Device</title>
<path fill="none" stroke="black" d="M587.688,-142.05C577.066,-144.782 566.424,-147.776 556.378,-151 505.3,-167.391 448.948,-191.784 410.356,-209.516"/>
<polygon fill="none" stroke="black" points="408.547,-206.497 400.941,-213.872 411.486,-212.85 408.547,-206.497"/>
</g>
<!-- \\Horde_SyncMl_Translation -->
<g id="node31" class="node"><title>\\Horde_SyncMl_Translation</title>
<polygon fill="none" stroke="black" points="765.378,-88 586.378,-88 586.378,-52 765.378,-52 765.378,-88"/>
<text text-anchor="middle" x="675.878" y="-67.2" font-family="Courier,monospace" font-size="11.00">Horde_SyncMl_Translation</text>
</g>
<!-- \\Horde_Translation_Autodetect -->
<g id="node32" class="node"><title>\\Horde_Translation_Autodetect</title>
<ellipse fill="none" stroke="black" cx="362.189" cy="-18" rx="122.379" ry="18"/>
<text text-anchor="middle" x="362.189" y="-14.3" font-family="Times,serif" font-size="14.00" fill="gray">\Horde_Translation_Autodetect</text>
</g>
<!-- \\Horde_SyncMl_Translation&#45;&gt;\\Horde_Translation_Autodetect -->
<g id="edge18" class="edge"><title>\\Horde_SyncMl_Translation&#45;&gt;\\Horde_Translation_Autodetect</title>
<path fill="none" stroke="black" d="M585.978,-55.1685C544.499,-48.2485 495.209,-40.0253 453.55,-33.0751"/>
<polygon fill="none" stroke="black" points="454.125,-29.6228 443.686,-31.4295 452.973,-36.5274 454.125,-29.6228"/>
</g>
</g>
</svg>
