<?xml version="1.0" encoding="UTF-8" standalone="no"?>
<!DOCTYPE svg PUBLIC "-//W3C//DTD SVG 1.1//EN"
 "http://www.w3.org/Graphics/SVG/1.1/DTD/svg11.dtd">
<!-- Generated by graphviz version 2.38.0 (20140413.2041)
 -->
<!-- Title: G Pages: 1 -->
<svg width="464pt" height="618pt"
 viewBox="0.00 0.00 464.08 618.00" xmlns="http://www.w3.org/2000/svg" xmlns:xlink="http://www.w3.org/1999/xlink">
<g id="graph0" class="graph" transform="scale(1 1) rotate(0) translate(4 614)">
<title>G</title>
<polygon fill="white" stroke="none" points="-4,4 -4,-614 460.08,-614 460.08,4 -4,4"/>
<g id="clust1" class="cluster"><title>cluster_Global</title>
<path fill="none" stroke="gray" d="M70.0398,-98C70.0398,-98 436.08,-98 436.08,-98 442.08,-98 448.08,-104 448.08,-110 448.08,-110 448.08,-590 448.08,-590 448.08,-596 442.08,-602 436.08,-602 436.08,-602 70.0398,-602 70.0398,-602 64.0398,-602 58.0398,-596 58.0398,-590 58.0398,-590 58.0398,-110 58.0398,-110 58.0398,-104 64.0398,-98 70.0398,-98"/>
<text text-anchor="middle" x="253.06" y="-589.2" font-family="Times,serif" font-size="11.00" fill="gray">Global</text>
</g>
<!-- \\Klutz -->
<g id="node1" class="node"><title>\\Klutz</title>
<polygon fill="none" stroke="black" points="398.08,-574 344.08,-574 344.08,-538 398.08,-538 398.08,-574"/>
<text text-anchor="middle" x="371.08" y="-553.2" font-family="Courier,monospace" font-size="11.00">Klutz</text>
</g>
<!-- \\Klutz_Comic_Direct -->
<g id="node2" class="node"><title>\\Klutz_Comic_Direct</title>
<polygon fill="none" stroke="black" points="440.08,-520 302.08,-520 302.08,-484 440.08,-484 440.08,-520"/>
<text text-anchor="middle" x="371.08" y="-499.2" font-family="Courier,monospace" font-size="11.00">Klutz_Comic_Direct</text>
</g>
<!-- \\Klutz_Comic -->
<g id="node9" class="node"><title>\\Klutz_Comic</title>
<polygon fill="none" stroke="black" points="160.54,-466 69.5398,-466 69.5398,-430 160.54,-430 160.54,-466"/>
<text text-anchor="middle" x="115.04" y="-445.2" font-family="Courier,monospace" font-size="11.00">Klutz_Comic</text>
</g>
<!-- \\Klutz_Comic_Direct&#45;&gt;\\Klutz_Comic -->
<g id="edge1" class="edge"><title>\\Klutz_Comic_Direct&#45;&gt;\\Klutz_Comic</title>
<path fill="none" stroke="black" d="M302.002,-487.529C260.852,-478.782 209.099,-467.781 170.643,-459.607"/>
<polygon fill="none" stroke="black" points="171.179,-456.142 160.67,-457.487 169.723,-462.99 171.179,-456.142"/>
</g>
<!-- \\Klutz_Comic_Bysize -->
<g id="node3" class="node"><title>\\Klutz_Comic_Bysize</title>
<polygon fill="none" stroke="black" points="440.08,-466 302.08,-466 302.08,-430 440.08,-430 440.08,-466"/>
<text text-anchor="middle" x="371.08" y="-445.2" font-family="Courier,monospace" font-size="11.00">Klutz_Comic_Bysize</text>
</g>
<!-- \\Klutz_Comic_Bysize&#45;&gt;\\Klutz_Comic -->
<g id="edge2" class="edge"><title>\\Klutz_Comic_Bysize&#45;&gt;\\Klutz_Comic</title>
<path fill="none" stroke="black" d="M302.002,-448C261.027,-448 209.539,-448 171.135,-448"/>
<polygon fill="none" stroke="black" points="170.67,-444.5 160.67,-448 170.67,-451.5 170.67,-444.5"/>
</g>
<!-- \\Klutz_Comic_Search -->
<g id="node4" class="node"><title>\\Klutz_Comic_Search</title>
<polygon fill="none" stroke="black" points="440.08,-412 302.08,-412 302.08,-376 440.08,-376 440.08,-412"/>
<text text-anchor="middle" x="371.08" y="-391.2" font-family="Courier,monospace" font-size="11.00">Klutz_Comic_Search</text>
</g>
<!-- \\Klutz_Comic_Search&#45;&gt;\\Klutz_Comic -->
<g id="edge3" class="edge"><title>\\Klutz_Comic_Search&#45;&gt;\\Klutz_Comic</title>
<path fill="none" stroke="black" d="M302.002,-408.471C260.852,-417.218 209.099,-428.219 170.643,-436.393"/>
<polygon fill="none" stroke="black" points="169.723,-433.01 160.67,-438.513 171.179,-439.858 169.723,-433.01"/>
</g>
<!-- \\Klutz_Application -->
<g id="node5" class="node"><title>\\Klutz_Application</title>
<polygon fill="none" stroke="black" points="436.58,-250 305.58,-250 305.58,-214 436.58,-214 436.58,-250"/>
<text text-anchor="middle" x="371.08" y="-229.2" font-family="Courier,monospace" font-size="11.00">Klutz_Application</text>
</g>
<!-- \\Horde_Registry_Application -->
<g id="node12" class="node"><title>\\Horde_Registry_Application</title>
<ellipse fill="none" stroke="black" cx="115.04" cy="-72" rx="115.08" ry="18"/>
<text text-anchor="middle" x="115.04" y="-68.3" font-family="Times,serif" font-size="14.00" fill="gray">\Horde_Registry_Application</text>
</g>
<!-- \\Klutz_Application&#45;&gt;\\Horde_Registry_Application -->
<g id="edge4" class="edge"><title>\\Klutz_Application&#45;&gt;\\Horde_Registry_Application</title>
<path fill="none" stroke="black" d="M315.276,-213.842C310.589,-211.238 306.107,-208.302 302.08,-205 256.604,-167.721 278.844,-126.861 230.08,-94 226.009,-91.2569 221.681,-88.8366 217.182,-86.7025"/>
<polygon fill="none" stroke="black" points="218.308,-83.3787 207.734,-82.7121 215.585,-89.8271 218.308,-83.3787"/>
</g>
<!-- \\Klutz_Driver_Sql -->
<g id="node6" class="node"><title>\\Klutz_Driver_Sql</title>
<polygon fill="none" stroke="black" points="433.58,-358 308.58,-358 308.58,-322 433.58,-322 433.58,-358"/>
<text text-anchor="middle" x="371.08" y="-337.2" font-family="Courier,monospace" font-size="11.00">Klutz_Driver_Sql</text>
</g>
<!-- \\Klutz_Driver -->
<g id="node8" class="node"><title>\\Klutz_Driver</title>
<polygon fill="none" stroke="black" points="164.04,-331 66.0398,-331 66.0398,-295 164.04,-295 164.04,-331"/>
<text text-anchor="middle" x="115.04" y="-310.2" font-family="Courier,monospace" font-size="11.00">Klutz_Driver</text>
</g>
<!-- \\Klutz_Driver_Sql&#45;&gt;\\Klutz_Driver -->
<g id="edge5" class="edge"><title>\\Klutz_Driver_Sql&#45;&gt;\\Klutz_Driver</title>
<path fill="none" stroke="black" d="M308.259,-333.43C267.457,-329.093 214.34,-323.448 174.285,-319.19"/>
<polygon fill="none" stroke="black" points="174.453,-315.689 164.139,-318.112 173.713,-322.649 174.453,-315.689"/>
</g>
<!-- \\Klutz_Driver_File -->
<g id="node7" class="node"><title>\\Klutz_Driver_File</title>
<polygon fill="none" stroke="black" points="436.58,-304 305.58,-304 305.58,-268 436.58,-268 436.58,-304"/>
<text text-anchor="middle" x="371.08" y="-283.2" font-family="Courier,monospace" font-size="11.00">Klutz_Driver_File</text>
</g>
<!-- \\Klutz_Driver_File&#45;&gt;\\Klutz_Driver -->
<g id="edge6" class="edge"><title>\\Klutz_Driver_File&#45;&gt;\\Klutz_Driver</title>
<path fill="none" stroke="black" d="M305.317,-292.883C264.969,-297.171 213.486,-302.643 174.401,-306.797"/>
<polygon fill="none" stroke="black" points="173.811,-303.34 164.237,-307.877 174.551,-310.301 173.811,-303.34"/>
</g>
<!-- \\Klutz_Image -->
<g id="node10" class="node"><title>\\Klutz_Image</title>
<polygon fill="none" stroke="black" points="416.58,-196 325.58,-196 325.58,-160 416.58,-160 416.58,-196"/>
<text text-anchor="middle" x="371.08" y="-175.2" font-family="Courier,monospace" font-size="11.00">Klutz_Image</text>
</g>
<!-- \\Klutz_Block_Comics -->
<g id="node11" class="node"><title>\\Klutz_Block_Comics</title>
<polygon fill="none" stroke="black" points="440.08,-142 302.08,-142 302.08,-106 440.08,-106 440.08,-142"/>
<text text-anchor="middle" x="371.08" y="-121.2" font-family="Courier,monospace" font-size="11.00">Klutz_Block_Comics</text>
</g>
<!-- \\Horde_Core_Block -->
<g id="node13" class="node"><title>\\Horde_Core_Block</title>
<ellipse fill="none" stroke="black" cx="115.04" cy="-18" rx="81.7856" ry="18"/>
<text text-anchor="middle" x="115.04" y="-14.3" font-family="Times,serif" font-size="14.00" fill="gray">\Horde_Core_Block</text>
</g>
<!-- \\Klutz_Block_Comics&#45;&gt;\\Horde_Core_Block -->
<g id="edge7" class="edge"><title>\\Klutz_Block_Comics&#45;&gt;\\Horde_Core_Block</title>
<path fill="none" stroke="black" d="M343.325,-105.871C315.953,-88.0669 271.66,-61.2767 230.08,-45 216.968,-39.8676 202.612,-35.537 188.642,-31.9498"/>
<polygon fill="none" stroke="black" points="189.108,-28.4601 178.562,-29.4683 187.435,-35.2572 189.108,-28.4601"/>
</g>
</g>
</svg>
