<?xml version="1.0" encoding="UTF-8" standalone="no"?>
<!DOCTYPE svg PUBLIC "-//W3C//DTD SVG 1.1//EN"
 "http://www.w3.org/Graphics/SVG/1.1/DTD/svg11.dtd">
<!-- Generated by graphviz version 2.38.0 (20140413.2041)
 -->
<!-- Title: G Pages: 1 -->
<svg width="473pt" height="294pt"
 viewBox="0.00 0.00 472.88 294.00" xmlns="http://www.w3.org/2000/svg" xmlns:xlink="http://www.w3.org/1999/xlink">
<g id="graph0" class="graph" transform="scale(1 1) rotate(0) translate(4 290)">
<title>G</title>
<polygon fill="white" stroke="none" points="-4,4 -4,-290 468.88,-290 468.88,4 -4,4"/>
<g id="clust1" class="cluster"><title>cluster_Global</title>
<path fill="none" stroke="gray" d="M74.44,-44C74.44,-44 444.88,-44 444.88,-44 450.88,-44 456.88,-50 456.88,-56 456.88,-56 456.88,-266 456.88,-266 456.88,-272 450.88,-278 444.88,-278 444.88,-278 74.44,-278 74.44,-278 68.44,-278 62.44,-272 62.44,-266 62.44,-266 62.44,-56 62.44,-56 62.44,-50 68.44,-44 74.44,-44"/>
<text text-anchor="middle" x="259.66" y="-265.2" font-family="Times,serif" font-size="11.00" fill="gray">Global</text>
</g>
<!-- \\Horde_Lock_Null -->
<g id="node1" class="node"><title>\\Horde_Lock_Null</title>
<polygon fill="none" stroke="black" points="431.88,-250 313.88,-250 313.88,-214 431.88,-214 431.88,-250"/>
<text text-anchor="middle" x="372.88" y="-229.2" font-family="Courier,monospace" font-size="11.00">Horde_Lock_Null</text>
</g>
<!-- \\Horde_Lock -->
<g id="node5" class="node"><title>\\Horde_Lock</title>
<polygon fill="none" stroke="black" points="154.44,-196 70.44,-196 70.44,-160 154.44,-160 154.44,-196"/>
<text text-anchor="start" x="78.44" y="-181.2" font-family="Courier,monospace" font-size="11.00">«abstract»</text>
<text text-anchor="start" x="78.44" y="-169.2" font-family="Courier,monospace" font-size="11.00">Horde_Lock</text>
</g>
<!-- \\Horde_Lock_Null&#45;&gt;\\Horde_Lock -->
<g id="edge1" class="edge"><title>\\Horde_Lock_Null&#45;&gt;\\Horde_Lock</title>
<path fill="none" stroke="black" d="M313.559,-219.814C268.765,-210.455 207.51,-197.655 164.609,-188.691"/>
<polygon fill="none" stroke="black" points="165.167,-185.233 154.662,-186.613 163.735,-192.085 165.167,-185.233"/>
</g>
<!-- \\Horde_Lock_Exception -->
<g id="node2" class="node"><title>\\Horde_Lock_Exception</title>
<polygon fill="none" stroke="black" points="448.88,-88 296.88,-88 296.88,-52 448.88,-52 448.88,-88"/>
<text text-anchor="middle" x="372.88" y="-67.2" font-family="Courier,monospace" font-size="11.00">Horde_Lock_Exception</text>
</g>
<!-- \\Horde_Exception_Wrapped -->
<g id="node6" class="node"><title>\\Horde_Exception_Wrapped</title>
<ellipse fill="none" stroke="black" cx="112.44" cy="-18" rx="112.38" ry="18"/>
<text text-anchor="middle" x="112.44" y="-14.3" font-family="Times,serif" font-size="14.00" fill="gray">\Horde_Exception_Wrapped</text>
</g>
<!-- \\Horde_Lock_Exception&#45;&gt;\\Horde_Exception_Wrapped -->
<g id="edge2" class="edge"><title>\\Horde_Lock_Exception&#45;&gt;\\Horde_Exception_Wrapped</title>
<path fill="none" stroke="black" d="M296.739,-54.5685C273.689,-49.8609 248.247,-44.6908 224.88,-40 214.917,-37.9999 204.449,-35.9135 194.083,-33.8568"/>
<polygon fill="none" stroke="black" points="194.686,-30.4082 184.197,-31.8976 193.326,-37.2747 194.686,-30.4082"/>
</g>
<!-- \\Horde_Lock_Sql -->
<g id="node3" class="node"><title>\\Horde_Lock_Sql</title>
<polygon fill="none" stroke="black" points="428.38,-196 317.38,-196 317.38,-160 428.38,-160 428.38,-196"/>
<text text-anchor="middle" x="372.88" y="-175.2" font-family="Courier,monospace" font-size="11.00">Horde_Lock_Sql</text>
</g>
<!-- \\Horde_Lock_Sql&#45;&gt;\\Horde_Lock -->
<g id="edge3" class="edge"><title>\\Horde_Lock_Sql&#45;&gt;\\Horde_Lock</title>
<path fill="none" stroke="black" d="M317.072,-178C272.079,-178 208.829,-178 164.803,-178"/>
<polygon fill="none" stroke="black" points="164.605,-174.5 154.605,-178 164.605,-181.5 164.605,-174.5"/>
</g>
<!-- \\Horde_Lock_Mongo -->
<g id="node4" class="node"><title>\\Horde_Lock_Mongo</title>
<polygon fill="none" stroke="black" points="435.38,-142 310.38,-142 310.38,-106 435.38,-106 435.38,-142"/>
<text text-anchor="middle" x="372.88" y="-121.2" font-family="Courier,monospace" font-size="11.00">Horde_Lock_Mongo</text>
</g>
<!-- \\Horde_Lock_Mongo&#45;&gt;\\Horde_Lock -->
<g id="edge4" class="edge"><title>\\Horde_Lock_Mongo&#45;&gt;\\Horde_Lock</title>
<path fill="none" stroke="black" d="M310.306,-136.866C265.893,-146.146 206.634,-158.528 164.771,-167.275"/>
<polygon fill="none" stroke="black" points="163.862,-163.889 154.789,-169.36 165.294,-170.741 163.862,-163.889"/>
</g>
</g>
</svg>
