<?xml version="1.0" encoding="UTF-8" standalone="no"?>
<!DOCTYPE svg PUBLIC "-//W3C//DTD SVG 1.1//EN"
 "http://www.w3.org/Graphics/SVG/1.1/DTD/svg11.dtd">
<!-- Generated by graphviz version 2.38.0 (20140413.2041)
 -->
<!-- Title: G Pages: 1 -->
<svg width="1562pt" height="1602pt"
 viewBox="0.00 0.00 1561.79 1602.26" xmlns="http://www.w3.org/2000/svg" xmlns:xlink="http://www.w3.org/1999/xlink">
<g id="graph0" class="graph" transform="scale(1 1) rotate(0) translate(4 1598.26)">
<title>G</title>
<polygon fill="white" stroke="none" points="-4,4 -4,-1598.26 1557.79,-1598.26 1557.79,4 -4,4"/>
<g id="clust1" class="cluster"><title>cluster_Global</title>
<path fill="none" stroke="gray" d="M226.787,-174C226.787,-174 1533.79,-174 1533.79,-174 1539.79,-174 1545.79,-180 1545.79,-186 1545.79,-186 1545.79,-1260 1545.79,-1260 1545.79,-1266 1539.79,-1272 1533.79,-1272 1533.79,-1272 226.787,-1272 226.787,-1272 220.787,-1272 214.787,-1266 214.787,-1260 214.787,-1260 214.787,-186 214.787,-186 214.787,-180 220.787,-174 226.787,-174"/>
<text text-anchor="middle" x="880.287" y="-1259.2" font-family="Times,serif" font-size="11.00" fill="gray">Global</text>
</g>
<!-- \\Horde_Mime -->
<g id="node1" class="node"><title>\\Horde_Mime</title>
<polygon fill="none" stroke="black" points="1402.79,-1244 1318.79,-1244 1318.79,-1208 1402.79,-1208 1402.79,-1244"/>
<text text-anchor="middle" x="1360.79" y="-1223.2" font-family="Courier,monospace" font-size="11.00">Horde_Mime</text>
</g>
<!-- \\Horde_Mime_Uudecode -->
<g id="node2" class="node"><title>\\Horde_Mime_Uudecode</title>
<polygon fill="none" stroke="black" points="1433.29,-1190 1288.29,-1190 1288.29,-1154 1433.29,-1154 1433.29,-1190"/>
<text text-anchor="middle" x="1360.79" y="-1169.2" font-family="Courier,monospace" font-size="11.00">Horde_Mime_Uudecode</text>
</g>
<!-- \\Countable -->
<g id="node40" class="node"><title>\\Countable</title>
<ellipse fill="none" stroke="black" cx="961.787" cy="-1514" rx="49.2915" ry="18"/>
<text text-anchor="middle" x="961.787" y="-1510.3" font-family="Times,serif" font-size="14.00" fill="gray">\Countable</text>
</g>
<!-- \\Horde_Mime_Uudecode&#45;&gt;\\Countable -->
<g id="edge1" class="edge"><title>\\Horde_Mime_Uudecode&#45;&gt;\\Countable</title>
<path fill="none" stroke="black" stroke-dasharray="1,5" d="M1288.08,-1165.58C1252.6,-1166.33 1211.55,-1173.7 1183.79,-1199 1086.27,-1287.87 1208.1,-1396.82 1111.79,-1487 1087.65,-1509.6 1051.26,-1516.51 1020.49,-1517.69"/>
<polygon fill="none" stroke="black" points="1020.22,-1514.2 1010.29,-1517.89 1020.36,-1521.2 1020.22,-1514.2"/>
</g>
<!-- \\IteratorAggregate -->
<g id="node41" class="node"><title>\\IteratorAggregate</title>
<ellipse fill="none" stroke="black" cx="75.3933" cy="-418" rx="75.2868" ry="18"/>
<text text-anchor="middle" x="75.3933" y="-414.3" font-family="Times,serif" font-size="14.00" fill="gray">\IteratorAggregate</text>
</g>
<!-- \\Horde_Mime_Uudecode&#45;&gt;\\IteratorAggregate -->
<g id="edge2" class="edge"><title>\\Horde_Mime_Uudecode&#45;&gt;\\IteratorAggregate</title>
<path fill="none" stroke="black" stroke-dasharray="1,5" d="M1288.12,-1165.14C1252.44,-1165.73 1211.18,-1173.08 1183.79,-1199 1070.96,-1305.76 1225.96,-1435.68 1111.79,-1541 1062.72,-1586.26 1025.68,-1537.6 962.787,-1560"/>
</g>
<!-- \\Horde_Mime_Id -->
<g id="node3" class="node"><title>\\Horde_Mime_Id</title>
<polygon fill="none" stroke="black" points="1412.79,-1136 1308.79,-1136 1308.79,-1100 1412.79,-1100 1412.79,-1136"/>
<text text-anchor="middle" x="1360.79" y="-1115.2" font-family="Courier,monospace" font-size="11.00">Horde_Mime_Id</text>
</g>
<!-- \\Horde_Mime_Headers_Element -->
<g id="node4" class="node"><title>\\Horde_Mime_Headers_Element</title>
<polygon fill="none" stroke="black" points="414.787,-436 222.787,-436 222.787,-400 414.787,-400 414.787,-436"/>
<text text-anchor="start" x="284.787" y="-421.2" font-family="Courier,monospace" font-size="11.00">«abstract»</text>
<text text-anchor="start" x="230.787" y="-409.2" font-family="Courier,monospace" font-size="11.00">Horde_Mime_Headers_Element</text>
</g>
<!-- \\Horde_Mime_Headers_Element&#45;&gt;\\IteratorAggregate -->
<g id="edge3" class="edge"><title>\\Horde_Mime_Headers_Element&#45;&gt;\\IteratorAggregate</title>
<path fill="none" stroke="black" stroke-dasharray="1,5" d="M222.728,-418C202.393,-418 181.039,-418 161.123,-418"/>
<polygon fill="none" stroke="black" points="160.853,-414.5 150.853,-418 160.853,-421.5 160.853,-414.5"/>
</g>
<!-- \\Horde_Mime_Headers_UserAgent -->
<g id="node5" class="node"><title>\\Horde_Mime_Headers_UserAgent</title>
<polygon fill="none" stroke="black" points="1064.79,-814 858.787,-814 858.787,-778 1064.79,-778 1064.79,-814"/>
<text text-anchor="middle" x="961.787" y="-793.2" font-family="Courier,monospace" font-size="11.00">Horde_Mime_Headers_UserAgent</text>
</g>
<!-- \\Horde_Mime_Headers_Element_Single -->
<g id="node8" class="node"><title>\\Horde_Mime_Headers_Element_Single</title>
<polygon fill="none" stroke="black" points="732.787,-598 493.787,-598 493.787,-562 732.787,-562 732.787,-598"/>
<text text-anchor="middle" x="613.287" y="-577.2" font-family="Courier,monospace" font-size="11.00">Horde_Mime_Headers_Element_Single</text>
</g>
<!-- \\Horde_Mime_Headers_UserAgent&#45;&gt;\\Horde_Mime_Headers_Element_Single -->
<g id="edge4" class="edge"><title>\\Horde_Mime_Headers_UserAgent&#45;&gt;\\Horde_Mime_Headers_Element_Single</title>
<path fill="none" stroke="black" d="M858.398,-785.64C842.275,-781.714 826.192,-776.341 811.787,-769 733.46,-729.081 665.079,-647.976 633.261,-606.188"/>
<polygon fill="none" stroke="black" points="636.018,-604.031 627.214,-598.138 630.421,-608.236 636.018,-604.031"/>
</g>
<!-- \\Horde_Mime_Headers_Date -->
<g id="node6" class="node"><title>\\Horde_Mime_Headers_Date</title>
<polygon fill="none" stroke="black" points="1047.79,-760 875.787,-760 875.787,-724 1047.79,-724 1047.79,-760"/>
<text text-anchor="middle" x="961.787" y="-739.2" font-family="Courier,monospace" font-size="11.00">Horde_Mime_Headers_Date</text>
</g>
<!-- \\Horde_Mime_Headers_Date&#45;&gt;\\Horde_Mime_Headers_Element_Single -->
<g id="edge5" class="edge"><title>\\Horde_Mime_Headers_Date&#45;&gt;\\Horde_Mime_Headers_Element_Single</title>
<path fill="none" stroke="black" d="M875.495,-732.879C854.184,-728.896 831.73,-723.184 811.787,-715 745.344,-687.733 678.549,-635.706 642.194,-604.81"/>
<polygon fill="none" stroke="black" points="644.346,-602.045 634.481,-598.182 639.784,-607.354 644.346,-602.045"/>
</g>
<!-- \\Horde_Mime_Headers_ContentId -->
<g id="node7" class="node"><title>\\Horde_Mime_Headers_ContentId</title>
<polygon fill="none" stroke="black" points="1064.79,-382 858.787,-382 858.787,-346 1064.79,-346 1064.79,-382"/>
<text text-anchor="middle" x="961.787" y="-361.2" font-family="Courier,monospace" font-size="11.00">Horde_Mime_Headers_ContentId</text>
</g>
<!-- \\Horde_Mime_Headers_ContentId&#45;&gt;\\Horde_Mime_Headers_Element_Single -->
<g id="edge6" class="edge"><title>\\Horde_Mime_Headers_ContentId&#45;&gt;\\Horde_Mime_Headers_Element_Single</title>
<path fill="none" stroke="black" d="M858.552,-368.93C841.693,-373.4 825.327,-380.362 811.787,-391 749.829,-439.675 800.941,-503.32 739.787,-553 738.23,-554.265 736.627,-555.474 734.984,-556.63"/>
<polygon fill="none" stroke="black" points="733.069,-553.7 726.456,-561.977 736.787,-559.631 733.069,-553.7"/>
</g>
<!-- \\Horde_Mime_Headers_Extension_Mime -->
<g id="node38" class="node"><title>\\Horde_Mime_Headers_Extension_Mime</title>
<polygon fill="none" stroke="black" points="732.787,-544 493.787,-544 493.787,-508 732.787,-508 732.787,-544"/>
<text text-anchor="middle" x="613.287" y="-523.2" font-family="Courier,monospace" font-size="11.00">Horde_Mime_Headers_Extension_Mime</text>
</g>
<!-- \\Horde_Mime_Headers_ContentId&#45;&gt;\\Horde_Mime_Headers_Extension_Mime -->
<g id="edge7" class="edge"><title>\\Horde_Mime_Headers_ContentId&#45;&gt;\\Horde_Mime_Headers_Extension_Mime</title>
<path fill="none" stroke="black" stroke-dasharray="1,5" d="M858.562,-376.624C842.582,-380.269 826.501,-384.961 811.787,-391 745.344,-418.267 678.549,-470.294 642.194,-501.19"/>
<polygon fill="none" stroke="black" points="639.784,-498.646 634.481,-507.818 644.346,-503.955 639.784,-498.646"/>
</g>
<!-- \\Horde_Mime_Headers_Element_Single&#45;&gt;\\Horde_Mime_Headers_Element -->
<g id="edge8" class="edge"><title>\\Horde_Mime_Headers_Element_Single&#45;&gt;\\Horde_Mime_Headers_Element</title>
<path fill="none" stroke="black" d="M508.917,-561.897C501.284,-559.313 493.824,-556.364 486.787,-553 429.11,-525.432 373.776,-474.229 343.521,-443.42"/>
<polygon fill="none" stroke="black" points="345.856,-440.8 336.384,-436.053 340.829,-445.671 345.856,-440.8"/>
</g>
<!-- \\Horde_Mime_Headers_Element_Multiple -->
<g id="node9" class="node"><title>\\Horde_Mime_Headers_Element_Multiple</title>
<polygon fill="none" stroke="black" points="739.787,-274 486.787,-274 486.787,-238 739.787,-238 739.787,-274"/>
<text text-anchor="middle" x="613.287" y="-253.2" font-family="Courier,monospace" font-size="11.00">Horde_Mime_Headers_Element_Multiple</text>
</g>
<!-- \\Horde_Mime_Headers_Element_Multiple&#45;&gt;\\Horde_Mime_Headers_Element -->
<g id="edge9" class="edge"><title>\\Horde_Mime_Headers_Element_Multiple&#45;&gt;\\Horde_Mime_Headers_Element</title>
<path fill="none" stroke="black" d="M508.917,-274.103C501.284,-276.687 493.824,-279.636 486.787,-283 429.11,-310.568 373.776,-361.771 343.521,-392.58"/>
<polygon fill="none" stroke="black" points="340.829,-390.329 336.384,-399.947 345.856,-395.2 340.829,-390.329"/>
</g>
<!-- \\Horde_Mime_Headers_Deprecated -->
<g id="node10" class="node"><title>\\Horde_Mime_Headers_Deprecated</title>
<polygon fill="none" stroke="black" points="1466.79,-1082 1254.79,-1082 1254.79,-1046 1466.79,-1046 1466.79,-1082"/>
<text text-anchor="middle" x="1360.79" y="-1061.2" font-family="Courier,monospace" font-size="11.00">Horde_Mime_Headers_Deprecated</text>
</g>
<!-- \\Horde_Mime_Headers_ContentDescription -->
<g id="node11" class="node"><title>\\Horde_Mime_Headers_ContentDescription</title>
<polygon fill="none" stroke="black" points="1094.79,-652 828.787,-652 828.787,-616 1094.79,-616 1094.79,-652"/>
<text text-anchor="middle" x="961.787" y="-631.2" font-family="Courier,monospace" font-size="11.00">Horde_Mime_Headers_ContentDescription</text>
</g>
<!-- \\Horde_Mime_Headers_ContentDescription&#45;&gt;\\Horde_Mime_Headers_Element_Single -->
<g id="edge10" class="edge"><title>\\Horde_Mime_Headers_ContentDescription&#45;&gt;\\Horde_Mime_Headers_Element_Single</title>
<path fill="none" stroke="black" d="M844.925,-615.944C811.262,-610.697 774.339,-604.943 740.095,-599.607"/>
<polygon fill="none" stroke="black" points="740.458,-596.121 730.039,-598.039 739.38,-603.037 740.458,-596.121"/>
</g>
<!-- \\Horde_Mime_Headers_ContentDescription&#45;&gt;\\Horde_Mime_Headers_Extension_Mime -->
<g id="edge11" class="edge"><title>\\Horde_Mime_Headers_ContentDescription&#45;&gt;\\Horde_Mime_Headers_Extension_Mime</title>
<path fill="none" stroke="black" stroke-dasharray="1,5" d="M835.9,-615.887C827.608,-613.309 819.497,-610.364 811.787,-607 775.124,-591.005 776.183,-569.591 739.787,-553 735.392,-550.997 730.842,-549.139 726.194,-547.417"/>
<polygon fill="none" stroke="black" points="727.13,-544.037 716.535,-544.068 724.837,-550.651 727.13,-544.037"/>
</g>
<!-- \\Horde_Mime_Headers_AddressesMulti -->
<g id="node12" class="node"><title>\\Horde_Mime_Headers_AddressesMulti</title>
<polygon fill="none" stroke="black" points="1081.29,-274 842.287,-274 842.287,-238 1081.29,-238 1081.29,-274"/>
<text text-anchor="middle" x="961.787" y="-253.2" font-family="Courier,monospace" font-size="11.00">Horde_Mime_Headers_AddressesMulti</text>
</g>
<!-- \\Horde_Mime_Headers_AddressesMulti&#45;&gt;\\Horde_Mime_Headers_Element_Multiple -->
<g id="edge12" class="edge"><title>\\Horde_Mime_Headers_AddressesMulti&#45;&gt;\\Horde_Mime_Headers_Element_Multiple</title>
<path fill="none" stroke="black" d="M842.026,-256C812.456,-256 780.528,-256 750.203,-256"/>
<polygon fill="none" stroke="black" points="749.986,-252.5 739.986,-256 749.986,-259.5 749.986,-252.5"/>
</g>
<!-- \\Horde_Mime_Headers_Element_Address -->
<g id="node39" class="node"><title>\\Horde_Mime_Headers_Element_Address</title>
<polygon fill="none" stroke="black" points="736.287,-328 490.287,-328 490.287,-292 736.287,-292 736.287,-328"/>
<text text-anchor="middle" x="613.287" y="-307.2" font-family="Courier,monospace" font-size="11.00">Horde_Mime_Headers_Element_Address</text>
</g>
<!-- \\Horde_Mime_Headers_AddressesMulti&#45;&gt;\\Horde_Mime_Headers_Element_Address -->
<g id="edge13" class="edge"><title>\\Horde_Mime_Headers_AddressesMulti&#45;&gt;\\Horde_Mime_Headers_Element_Address</title>
<path fill="none" stroke="black" stroke-dasharray="1,5" d="M844.925,-274.056C811.262,-279.303 774.339,-285.057 740.095,-290.393"/>
<polygon fill="none" stroke="black" points="739.38,-286.963 730.039,-291.961 740.458,-293.879 739.38,-286.963"/>
</g>
<!-- \\Horde_Mime_Headers_MimeVersion -->
<g id="node13" class="node"><title>\\Horde_Mime_Headers_MimeVersion</title>
<polygon fill="none" stroke="black" points="1071.29,-598 852.287,-598 852.287,-562 1071.29,-562 1071.29,-598"/>
<text text-anchor="middle" x="961.787" y="-577.2" font-family="Courier,monospace" font-size="11.00">Horde_Mime_Headers_MimeVersion</text>
</g>
<!-- \\Horde_Mime_Headers_MimeVersion&#45;&gt;\\Horde_Mime_Headers_Element_Single -->
<g id="edge14" class="edge"><title>\\Horde_Mime_Headers_MimeVersion&#45;&gt;\\Horde_Mime_Headers_Element_Single</title>
<path fill="none" stroke="black" d="M852.103,-580C817.452,-580 778.781,-580 742.86,-580"/>
<polygon fill="none" stroke="black" points="742.807,-576.5 732.807,-580 742.807,-583.5 742.807,-576.5"/>
</g>
<!-- \\Horde_Mime_Headers_MimeVersion&#45;&gt;\\Horde_Mime_Headers_Extension_Mime -->
<g id="edge15" class="edge"><title>\\Horde_Mime_Headers_MimeVersion&#45;&gt;\\Horde_Mime_Headers_Extension_Mime</title>
<path fill="none" stroke="black" stroke-dasharray="1,5" d="M852.103,-563.062C816.636,-557.535 776.957,-551.351 740.326,-545.642"/>
<polygon fill="none" stroke="black" points="740.501,-542.128 730.081,-544.046 739.423,-549.044 740.501,-542.128"/>
</g>
<!-- \\Horde_Mime_Headers_Subject -->
<g id="node14" class="node"><title>\\Horde_Mime_Headers_Subject</title>
<polygon fill="none" stroke="black" points="1057.79,-922 865.787,-922 865.787,-886 1057.79,-886 1057.79,-922"/>
<text text-anchor="middle" x="961.787" y="-901.2" font-family="Courier,monospace" font-size="11.00">Horde_Mime_Headers_Subject</text>
</g>
<!-- \\Horde_Mime_Headers_Subject&#45;&gt;\\Horde_Mime_Headers_Element_Single -->
<g id="edge16" class="edge"><title>\\Horde_Mime_Headers_Subject&#45;&gt;\\Horde_Mime_Headers_Element_Single</title>
<path fill="none" stroke="black" d="M865.417,-898.41C846.568,-894.177 827.713,-887.471 811.787,-877 708.828,-809.308 646.601,-667.404 623.99,-607.558"/>
<polygon fill="none" stroke="black" points="627.216,-606.189 620.464,-598.025 620.651,-608.618 627.216,-606.189"/>
</g>
<!-- \\Horde_Mime_Headers_ContentTransferEncoding -->
<g id="node15" class="node"><title>\\Horde_Mime_Headers_ContentTransferEncoding</title>
<polygon fill="none" stroke="black" points="1111.79,-436 811.787,-436 811.787,-400 1111.79,-400 1111.79,-436"/>
<text text-anchor="middle" x="961.787" y="-415.2" font-family="Courier,monospace" font-size="11.00">Horde_Mime_Headers_ContentTransferEncoding</text>
</g>
<!-- \\Horde_Mime_Headers_ContentTransferEncoding&#45;&gt;\\Horde_Mime_Headers_Element_Single -->
<g id="edge17" class="edge"><title>\\Horde_Mime_Headers_ContentTransferEncoding&#45;&gt;\\Horde_Mime_Headers_Element_Single</title>
<path fill="none" stroke="black" d="M827.739,-436.137C822.19,-438.741 816.841,-441.681 811.787,-445 763.565,-476.664 787.485,-520.553 739.787,-553 737.61,-554.481 735.367,-555.882 733.068,-557.209"/>
<polygon fill="none" stroke="black" points="731.199,-554.236 723.949,-561.962 734.435,-560.443 731.199,-554.236"/>
</g>
<!-- \\Horde_Mime_Headers_ContentTransferEncoding&#45;&gt;\\Horde_Mime_Headers_Extension_Mime -->
<g id="edge18" class="edge"><title>\\Horde_Mime_Headers_ContentTransferEncoding&#45;&gt;\\Horde_Mime_Headers_Extension_Mime</title>
<path fill="none" stroke="black" stroke-dasharray="1,5" d="M847.123,-436.029C835.109,-438.697 823.142,-441.683 811.787,-445 758.6,-460.538 700.172,-485.556 660.767,-503.68"/>
<polygon fill="none" stroke="black" points="659.27,-500.516 651.669,-507.898 662.214,-506.867 659.27,-500.516"/>
</g>
<!-- \\Horde_Mime_Headers_Mime -->
<g id="node16" class="node"><title>\\Horde_Mime_Headers_Mime</title>
<polygon fill="none" stroke="black" points="1047.79,-544 875.787,-544 875.787,-508 1047.79,-508 1047.79,-544"/>
<text text-anchor="middle" x="961.787" y="-523.2" font-family="Courier,monospace" font-size="11.00">Horde_Mime_Headers_Mime</text>
</g>
<!-- \\Horde_Mime_Headers_Mime&#45;&gt;\\Horde_Mime_Headers_Element_Single -->
<g id="edge19" class="edge"><title>\\Horde_Mime_Headers_Mime&#45;&gt;\\Horde_Mime_Headers_Element_Single</title>
<path fill="none" stroke="black" d="M875.579,-539.279C834.781,-545.637 785.112,-553.378 740.078,-560.396"/>
<polygon fill="none" stroke="black" points="739.287,-556.977 729.945,-561.975 740.365,-563.894 739.287,-556.977"/>
</g>
<!-- \\Horde_Mime_Headers_Mime&#45;&gt;\\Horde_Mime_Headers_Extension_Mime -->
<g id="edge20" class="edge"><title>\\Horde_Mime_Headers_Mime&#45;&gt;\\Horde_Mime_Headers_Extension_Mime</title>
<path fill="none" stroke="black" stroke-dasharray="1,5" d="M875.579,-526C835.704,-526 787.353,-526 743.139,-526"/>
<polygon fill="none" stroke="black" points="742.888,-522.5 732.888,-526 742.888,-529.5 742.888,-522.5"/>
</g>
<!-- \\Horde_Mime_Headers_ContentLanguage -->
<g id="node17" class="node"><title>\\Horde_Mime_Headers_ContentLanguage</title>
<polygon fill="none" stroke="black" points="1084.79,-706 838.787,-706 838.787,-670 1084.79,-670 1084.79,-706"/>
<text text-anchor="middle" x="961.787" y="-685.2" font-family="Courier,monospace" font-size="11.00">Horde_Mime_Headers_ContentLanguage</text>
</g>
<!-- \\Horde_Mime_Headers_ContentLanguage&#45;&gt;\\Horde_Mime_Headers_Element_Single -->
<g id="edge21" class="edge"><title>\\Horde_Mime_Headers_ContentLanguage&#45;&gt;\\Horde_Mime_Headers_Element_Single</title>
<path fill="none" stroke="black" d="M847.123,-669.971C835.109,-667.303 823.142,-664.317 811.787,-661 758.6,-645.462 700.172,-620.444 660.767,-602.32"/>
<polygon fill="none" stroke="black" points="662.214,-599.133 651.669,-598.102 659.27,-605.484 662.214,-599.133"/>
</g>
<!-- \\Horde_Mime_Headers_ContentLanguage&#45;&gt;\\Horde_Mime_Headers_Extension_Mime -->
<g id="edge22" class="edge"><title>\\Horde_Mime_Headers_ContentLanguage&#45;&gt;\\Horde_Mime_Headers_Extension_Mime</title>
<path fill="none" stroke="black" stroke-dasharray="1,5" d="M838.451,-674.394C829.051,-670.816 820.027,-666.411 811.787,-661 763.565,-629.336 787.485,-585.447 739.787,-553 737.61,-551.519 735.367,-550.118 733.068,-548.791"/>
<polygon fill="none" stroke="black" points="734.435,-545.557 723.949,-544.038 731.199,-551.764 734.435,-545.557"/>
</g>
<!-- \\Horde_Mime_Headers_ContentParam_ContentDisposition -->
<g id="node18" class="node"><title>\\Horde_Mime_Headers_ContentParam_ContentDisposition</title>
<polygon fill="none" stroke="black" points="1537.79,-434 1183.79,-434 1183.79,-398 1537.79,-398 1537.79,-434"/>
<text text-anchor="middle" x="1360.79" y="-413.2" font-family="Courier,monospace" font-size="11.00">Horde_Mime_Headers_ContentParam_ContentDisposition</text>
</g>
<!-- \\Horde_Mime_Headers_ContentParam -->
<g id="node24" class="node"><title>\\Horde_Mime_Headers_ContentParam</title>
<polygon fill="none" stroke="black" points="1074.79,-490 848.787,-490 848.787,-454 1074.79,-454 1074.79,-490"/>
<text text-anchor="middle" x="961.787" y="-469.2" font-family="Courier,monospace" font-size="11.00">Horde_Mime_Headers_ContentParam</text>
</g>
<!-- \\Horde_Mime_Headers_ContentParam_ContentDisposition&#45;&gt;\\Horde_Mime_Headers_ContentParam -->
<g id="edge23" class="edge"><title>\\Horde_Mime_Headers_ContentParam_ContentDisposition&#45;&gt;\\Horde_Mime_Headers_ContentParam</title>
<path fill="none" stroke="black" d="M1231.99,-434.027C1184.9,-440.67 1131.7,-448.174 1085.1,-454.747"/>
<polygon fill="none" stroke="black" points="1084.37,-451.315 1074.95,-456.178 1085.35,-458.247 1084.37,-451.315"/>
</g>
<!-- \\Horde_Mime_Headers_ContentParam_ContentType -->
<g id="node19" class="node"><title>\\Horde_Mime_Headers_ContentParam_ContentType</title>
<polygon fill="none" stroke="black" points="1514.29,-488 1207.29,-488 1207.29,-452 1514.29,-452 1514.29,-488"/>
<text text-anchor="middle" x="1360.79" y="-467.2" font-family="Courier,monospace" font-size="11.00">Horde_Mime_Headers_ContentParam_ContentType</text>
</g>
<!-- \\Horde_Mime_Headers_ContentParam_ContentType&#45;&gt;\\Horde_Mime_Headers_ContentParam -->
<g id="edge24" class="edge"><title>\\Horde_Mime_Headers_ContentParam_ContentType&#45;&gt;\\Horde_Mime_Headers_ContentParam</title>
<path fill="none" stroke="black" d="M1207.15,-470.769C1166.72,-470.973 1123.61,-471.19 1085.04,-471.384"/>
<polygon fill="none" stroke="black" points="1084.79,-467.885 1074.81,-471.436 1084.82,-474.885 1084.79,-467.885"/>
</g>
<!-- \\Horde_Mime_Headers_Received -->
<g id="node20" class="node"><title>\\Horde_Mime_Headers_Received</title>
<polygon fill="none" stroke="black" points="1061.29,-220 862.287,-220 862.287,-184 1061.29,-184 1061.29,-220"/>
<text text-anchor="middle" x="961.787" y="-199.2" font-family="Courier,monospace" font-size="11.00">Horde_Mime_Headers_Received</text>
</g>
<!-- \\Horde_Mime_Headers_Received&#45;&gt;\\Horde_Mime_Headers_Element_Multiple -->
<g id="edge25" class="edge"><title>\\Horde_Mime_Headers_Received&#45;&gt;\\Horde_Mime_Headers_Element_Multiple</title>
<path fill="none" stroke="black" d="M861.957,-217.402C824.062,-223.308 780.302,-230.127 740.206,-236.376"/>
<polygon fill="none" stroke="black" points="739.438,-232.954 730.097,-237.952 740.516,-239.87 739.438,-232.954"/>
</g>
<!-- \\Horde_Mime_Headers_Addresses -->
<g id="node21" class="node"><title>\\Horde_Mime_Headers_Addresses</title>
<polygon fill="none" stroke="black" points="1064.79,-328 858.787,-328 858.787,-292 1064.79,-292 1064.79,-328"/>
<text text-anchor="middle" x="961.787" y="-307.2" font-family="Courier,monospace" font-size="11.00">Horde_Mime_Headers_Addresses</text>
</g>
<!-- \\Horde_Mime_Headers_Addresses&#45;&gt;\\Horde_Mime_Headers_Element_Single -->
<g id="edge26" class="edge"><title>\\Horde_Mime_Headers_Addresses&#45;&gt;\\Horde_Mime_Headers_Element_Single</title>
<path fill="none" stroke="black" d="M858.442,-313.658C841.399,-318.226 824.997,-325.549 811.787,-337 735.32,-403.279 815.161,-485.482 739.787,-553 738.619,-554.046 737.422,-555.054 736.196,-556.027"/>
<polygon fill="none" stroke="black" points="733.922,-553.345 727.727,-561.94 737.93,-559.085 733.922,-553.345"/>
</g>
<!-- \\Horde_Mime_Headers_Addresses&#45;&gt;\\Horde_Mime_Headers_Element_Address -->
<g id="edge27" class="edge"><title>\\Horde_Mime_Headers_Addresses&#45;&gt;\\Horde_Mime_Headers_Element_Address</title>
<path fill="none" stroke="black" stroke-dasharray="1,5" d="M858.699,-310C823.665,-310 783.931,-310 746.836,-310"/>
<polygon fill="none" stroke="black" points="746.45,-306.5 736.45,-310 746.45,-313.5 746.45,-306.5"/>
</g>
<!-- \\Horde_Mime_Headers_Identification -->
<g id="node22" class="node"><title>\\Horde_Mime_Headers_Identification</title>
<polygon fill="none" stroke="black" points="1081.29,-868 842.287,-868 842.287,-832 1081.29,-832 1081.29,-868"/>
<text text-anchor="middle" x="961.787" y="-847.2" font-family="Courier,monospace" font-size="11.00">Horde_Mime_Headers_Identification</text>
</g>
<!-- \\Horde_Mime_Headers_Identification&#45;&gt;\\Horde_Mime_Headers_Element_Single -->
<g id="edge28" class="edge"><title>\\Horde_Mime_Headers_Identification&#45;&gt;\\Horde_Mime_Headers_Element_Single</title>
<path fill="none" stroke="black" d="M842.046,-836.59C831.442,-833.012 821.179,-828.551 811.787,-823 721.433,-769.599 655.036,-658.543 627.847,-607.161"/>
<polygon fill="none" stroke="black" points="630.803,-605.258 623.083,-598.002 624.592,-608.488 630.803,-605.258"/>
</g>
<!-- \\Horde_Mime_Headers_MessageId -->
<g id="node23" class="node"><title>\\Horde_Mime_Headers_MessageId</title>
<polygon fill="none" stroke="black" points="1463.79,-758 1257.79,-758 1257.79,-722 1463.79,-722 1463.79,-758"/>
<text text-anchor="middle" x="1360.79" y="-737.2" font-family="Courier,monospace" font-size="11.00">Horde_Mime_Headers_MessageId</text>
</g>
<!-- \\Horde_Mime_Headers_MessageId&#45;&gt;\\Horde_Mime_Headers_Identification -->
<g id="edge29" class="edge"><title>\\Horde_Mime_Headers_MessageId&#45;&gt;\\Horde_Mime_Headers_Identification</title>
<path fill="none" stroke="black" d="M1257.74,-746.717C1232.85,-750.757 1206.78,-757.096 1183.79,-767 1146.55,-783.034 1148.8,-806.464 1111.79,-823 1105.19,-825.949 1098.28,-828.576 1091.22,-830.916"/>
<polygon fill="none" stroke="black" points="1090.02,-827.625 1081.5,-833.933 1092.09,-834.31 1090.02,-827.625"/>
</g>
<!-- \\Horde_Mime_Headers_ContentParam&#45;&gt;\\Horde_Mime_Headers_Element_Single -->
<g id="edge30" class="edge"><title>\\Horde_Mime_Headers_ContentParam&#45;&gt;\\Horde_Mime_Headers_Element_Single</title>
<path fill="none" stroke="black" d="M848.443,-486.515C835.82,-489.851 823.353,-493.954 811.787,-499 775.124,-514.995 776.183,-536.409 739.787,-553 735.392,-555.003 730.842,-556.861 726.194,-558.583"/>
<polygon fill="none" stroke="black" points="724.837,-555.349 716.535,-561.932 727.13,-561.963 724.837,-555.349"/>
</g>
<!-- \\Horde_Mime_Headers_ContentParam&#45;&gt;\\Horde_Mime_Headers_Extension_Mime -->
<g id="edge32" class="edge"><title>\\Horde_Mime_Headers_ContentParam&#45;&gt;\\Horde_Mime_Headers_Extension_Mime</title>
<path fill="none" stroke="black" stroke-dasharray="1,5" d="M848.767,-489.458C813.975,-494.88 775.404,-500.891 739.759,-506.446"/>
<polygon fill="none" stroke="black" points="739.131,-503.001 729.789,-508 740.209,-509.918 739.131,-503.001"/>
</g>
<!-- \\ArrayAccess -->
<g id="node42" class="node"><title>\\ArrayAccess</title>
<ellipse fill="none" stroke="black" cx="613.287" cy="-1298" rx="58.4896" ry="18"/>
<text text-anchor="middle" x="613.287" y="-1294.3" font-family="Times,serif" font-size="14.00" fill="gray">\ArrayAccess</text>
</g>
<!-- \\Horde_Mime_Headers_ContentParam&#45;&gt;\\ArrayAccess -->
<g id="edge31" class="edge"><title>\\Horde_Mime_Headers_ContentParam&#45;&gt;\\ArrayAccess</title>
<path fill="none" stroke="black" stroke-dasharray="1,5" d="M848.643,-475.687C834.688,-480.62 821.824,-488.051 811.787,-499 694.609,-626.825 857.33,-1148.51 739.787,-1276 724.703,-1292.36 702.096,-1299.26 680.207,-1301.61"/>
<polygon fill="none" stroke="black" points="679.928,-1298.12 670.229,-1302.38 680.471,-1305.1 679.928,-1298.12"/>
</g>
<!-- \\Serializable -->
<g id="node43" class="node"><title>\\Serializable</title>
<ellipse fill="none" stroke="black" cx="613.287" cy="-110" rx="54.6905" ry="18"/>
<text text-anchor="middle" x="613.287" y="-106.3" font-family="Times,serif" font-size="14.00" fill="gray">\Serializable</text>
</g>
<!-- \\Horde_Mime_Headers_ContentParam&#45;&gt;\\Serializable -->
<g id="edge33" class="edge"><title>\\Horde_Mime_Headers_ContentParam&#45;&gt;\\Serializable</title>
<path fill="none" stroke="black" stroke-dasharray="1,5" d="M848.71,-466.243C835.089,-461.548 822.299,-454.735 811.787,-445 719.085,-359.159 820.252,-267.404 739.787,-170 721.306,-147.629 692.528,-133.041 667.189,-123.857"/>
<polygon fill="none" stroke="black" points="668.27,-120.528 657.675,-120.597 666.001,-127.15 668.27,-120.528"/>
</g>
<!-- \\Horde_Mime_Related -->
<g id="node25" class="node"><title>\\Horde_Mime_Related</title>
<polygon fill="none" stroke="black" points="1429.79,-1028 1291.79,-1028 1291.79,-992 1429.79,-992 1429.79,-1028"/>
<text text-anchor="middle" x="1360.79" y="-1007.2" font-family="Courier,monospace" font-size="11.00">Horde_Mime_Related</text>
</g>
<!-- \\Horde_Mime_Related&#45;&gt;\\IteratorAggregate -->
<g id="edge34" class="edge"><title>\\Horde_Mime_Related&#45;&gt;\\IteratorAggregate</title>
<path fill="none" stroke="black" stroke-dasharray="1,5" d="M1291.36,-1002.4C1254.59,-1002.29 1211.29,-1009.21 1183.79,-1037 1024.61,-1197.82 1272.99,-1382.21 1111.79,-1541 1064.23,-1587.85 1023.39,-1531.99 962.787,-1560"/>
<path fill="none" stroke="black" stroke-dasharray="1,5" d="M960.787,-1560C426.861,-1806.77 128.895,-642.615 82.7292,-445.883"/>
<polygon fill="none" stroke="black" points="86.1102,-444.969 80.4369,-436.021 79.292,-446.554 86.1102,-444.969"/>
</g>
<!-- \\Horde_Mime_Exception -->
<g id="node26" class="node"><title>\\Horde_Mime_Exception</title>
<polygon fill="none" stroke="black" points="1436.79,-920 1284.79,-920 1284.79,-884 1436.79,-884 1436.79,-920"/>
<text text-anchor="middle" x="1360.79" y="-899.2" font-family="Courier,monospace" font-size="11.00">Horde_Mime_Exception</text>
</g>
<!-- \\Horde_Exception_Wrapped -->
<g id="node44" class="node"><title>\\Horde_Exception_Wrapped</title>
<ellipse fill="none" stroke="black" cx="961.787" cy="-1406" rx="112.38" ry="18"/>
<text text-anchor="middle" x="961.787" y="-1402.3" font-family="Times,serif" font-size="14.00" fill="gray">\Horde_Exception_Wrapped</text>
</g>
<!-- \\Horde_Mime_Exception&#45;&gt;\\Horde_Exception_Wrapped -->
<g id="edge35" class="edge"><title>\\Horde_Mime_Exception&#45;&gt;\\Horde_Exception_Wrapped</title>
<path fill="none" stroke="black" d="M1284.5,-894.655C1249.41,-895.479 1209.77,-903.181 1183.79,-929 1040.11,-1071.76 1253.52,-1234.31 1111.79,-1379 1103.23,-1387.73 1092.88,-1394.18 1081.65,-1398.89"/>
<polygon fill="none" stroke="black" points="1080.2,-1395.69 1072.03,-1402.45 1082.63,-1402.26 1080.2,-1395.69"/>
</g>
<!-- \\Horde_Mime_Part_Iterator -->
<g id="node27" class="node"><title>\\Horde_Mime_Part_Iterator</title>
<polygon fill="none" stroke="black" points="1450.29,-974 1271.29,-974 1271.29,-938 1450.29,-938 1450.29,-974"/>
<text text-anchor="middle" x="1360.79" y="-953.2" font-family="Courier,monospace" font-size="11.00">Horde_Mime_Part_Iterator</text>
</g>
<!-- \\Horde_Mime_Part_Iterator&#45;&gt;\\Countable -->
<g id="edge36" class="edge"><title>\\Horde_Mime_Part_Iterator&#45;&gt;\\Countable</title>
<path fill="none" stroke="black" stroke-dasharray="1,5" d="M1271.25,-949.086C1239.69,-951.409 1206.4,-960.15 1183.79,-983 1024.61,-1143.82 1268.77,-1324.04 1111.79,-1487 1088.52,-1511.15 1051.44,-1517.94 1020.09,-1518.67"/>
<polygon fill="none" stroke="black" points="1019.69,-1515.17 1009.71,-1518.7 1019.72,-1522.17 1019.69,-1515.17"/>
</g>
<!-- \\Iterator -->
<g id="node45" class="node"><title>\\Iterator</title>
<ellipse fill="none" stroke="black" cx="961.787" cy="-1460" rx="38.9931" ry="18"/>
<text text-anchor="middle" x="961.787" y="-1456.3" font-family="Times,serif" font-size="14.00" fill="gray">\Iterator</text>
</g>
<!-- \\Horde_Mime_Part_Iterator&#45;&gt;\\Iterator -->
<g id="edge37" class="edge"><title>\\Horde_Mime_Part_Iterator&#45;&gt;\\Iterator</title>
<path fill="none" stroke="black" stroke-dasharray="1,5" d="M1270.99,-949.321C1239.6,-951.719 1206.48,-960.449 1183.79,-983 1040.11,-1125.76 1253.52,-1288.31 1111.79,-1433 1085.81,-1459.52 1043.15,-1465 1010.12,-1464.58"/>
<polygon fill="none" stroke="black" points="1009.87,-1461.07 999.768,-1464.25 1009.65,-1468.07 1009.87,-1461.07"/>
</g>
<!-- \\Horde_Mime_Part_Upgrade_V1 -->
<g id="node28" class="node"><title>\\Horde_Mime_Part_Upgrade_V1</title>
<polygon fill="none" stroke="black" points="1456.79,-704 1264.79,-704 1264.79,-668 1456.79,-668 1456.79,-704"/>
<text text-anchor="middle" x="1360.79" y="-683.2" font-family="Courier,monospace" font-size="11.00">Horde_Mime_Part_Upgrade_V1</text>
</g>
<!-- \\Horde_Mime_Magic -->
<g id="node29" class="node"><title>\\Horde_Mime_Magic</title>
<polygon fill="none" stroke="black" points="1423.29,-650 1298.29,-650 1298.29,-614 1423.29,-614 1423.29,-650"/>
<text text-anchor="middle" x="1360.79" y="-629.2" font-family="Courier,monospace" font-size="11.00">Horde_Mime_Magic</text>
</g>
<!-- \\Horde_Mime_Mdn -->
<g id="node30" class="node"><title>\\Horde_Mime_Mdn</title>
<polygon fill="none" stroke="black" points="1416.29,-596 1305.29,-596 1305.29,-560 1416.29,-560 1416.29,-596"/>
<text text-anchor="middle" x="1360.79" y="-575.2" font-family="Courier,monospace" font-size="11.00">Horde_Mime_Mdn</text>
</g>
<!-- \\Horde_Mime_ContentParam_Decode -->
<g id="node31" class="node"><title>\\Horde_Mime_ContentParam_Decode</title>
<polygon fill="none" stroke="black" points="1470.29,-866 1251.29,-866 1251.29,-830 1470.29,-830 1470.29,-866"/>
<text text-anchor="middle" x="1360.79" y="-845.2" font-family="Courier,monospace" font-size="11.00">Horde_Mime_ContentParam_Decode</text>
</g>
<!-- \\Horde_Mail_Rfc822 -->
<g id="node46" class="node"><title>\\Horde_Mail_Rfc822</title>
<ellipse fill="none" stroke="black" cx="961.787" cy="-1352" rx="87.1846" ry="18"/>
<text text-anchor="middle" x="961.787" y="-1348.3" font-family="Times,serif" font-size="14.00" fill="gray">\Horde_Mail_Rfc822</text>
</g>
<!-- \\Horde_Mime_ContentParam_Decode&#45;&gt;\\Horde_Mail_Rfc822 -->
<g id="edge38" class="edge"><title>\\Horde_Mime_ContentParam_Decode&#45;&gt;\\Horde_Mail_Rfc822</title>
<path fill="none" stroke="black" d="M1250.86,-843.781C1225.99,-848.055 1201.66,-857.242 1183.79,-875 1040.11,-1017.76 1253.52,-1180.31 1111.79,-1325 1097.62,-1339.46 1078.5,-1347.66 1058.68,-1352.07"/>
<polygon fill="none" stroke="black" points="1057.77,-1348.68 1048.6,-1353.99 1059.08,-1355.55 1057.77,-1348.68"/>
</g>
<!-- \\Horde_Mime_Filter_Encoding -->
<g id="node32" class="node"><title>\\Horde_Mime_Filter_Encoding</title>
<polygon fill="none" stroke="black" points="1456.79,-812 1264.79,-812 1264.79,-776 1456.79,-776 1456.79,-812"/>
<text text-anchor="middle" x="1360.79" y="-791.2" font-family="Courier,monospace" font-size="11.00">Horde_Mime_Filter_Encoding</text>
</g>
<!-- \\php_user_filter -->
<g id="node47" class="node"><title>\\php_user_filter</title>
<ellipse fill="none" stroke="black" cx="961.787" cy="-1298" rx="66.8882" ry="18"/>
<text text-anchor="middle" x="961.787" y="-1294.3" font-family="Times,serif" font-size="14.00" fill="gray">\php_user_filter</text>
</g>
<!-- \\Horde_Mime_Filter_Encoding&#45;&gt;\\php_user_filter -->
<g id="edge39" class="edge"><title>\\Horde_Mime_Filter_Encoding&#45;&gt;\\php_user_filter</title>
<path fill="none" stroke="black" d="M1264.58,-787.876C1235.14,-790.941 1204.93,-799.956 1183.79,-821 1038.67,-965.43 1257.31,-1131.98 1111.79,-1276 1091.68,-1295.9 1061.94,-1302.91 1034.32,-1304.37"/>
<polygon fill="none" stroke="black" points="1034.15,-1300.87 1024.26,-1304.67 1034.36,-1307.87 1034.15,-1300.87"/>
</g>
<!-- \\Horde_Mime_Part -->
<g id="node33" class="node"><title>\\Horde_Mime_Part</title>
<polygon fill="none" stroke="black" points="1419.79,-542 1301.79,-542 1301.79,-506 1419.79,-506 1419.79,-542"/>
<text text-anchor="middle" x="1360.79" y="-521.2" font-family="Courier,monospace" font-size="11.00">Horde_Mime_Part</text>
</g>
<!-- \\Horde_Mime_Part&#45;&gt;\\Countable -->
<g id="edge41" class="edge"><title>\\Horde_Mime_Part&#45;&gt;\\Countable</title>
<path fill="none" stroke="black" stroke-dasharray="1,5" d="M1301.41,-516.02C1262.38,-514.24 1213,-519.492 1183.79,-551 1041.94,-703.971 1251.55,-1332.12 1111.79,-1487 1088.98,-1512.27 1051.13,-1518.89 1019.28,-1519.25"/>
<polygon fill="none" stroke="black" points="1019.21,-1515.75 1009.18,-1519.17 1019.15,-1522.75 1019.21,-1515.75"/>
</g>
<!-- \\Horde_Mime_Part&#45;&gt;\\ArrayAccess -->
<g id="edge40" class="edge"><title>\\Horde_Mime_Part&#45;&gt;\\ArrayAccess</title>
<path fill="none" stroke="black" stroke-dasharray="1,5" d="M1301.64,-517.034C1263.22,-515.837 1214.48,-521.368 1183.79,-551 1060.13,-670.4 1236.95,-813.18 1111.79,-931 1063.18,-976.758 1005.9,-899.034 962.787,-950"/>
</g>
<!-- \\Horde_Mime_Part&#45;&gt;\\Serializable -->
<g id="edge43" class="edge"><title>\\Horde_Mime_Part&#45;&gt;\\Serializable</title>
<path fill="none" stroke="black" stroke-dasharray="1,5" d="M1301.66,-530.947C1263.25,-532.136 1214.5,-526.602 1183.79,-497 1061.27,-378.932 1241.72,-230.853 1111.79,-121 1047.44,-66.5985 792.306,-88.7152 674.492,-102.326"/>
<polygon fill="none" stroke="black" points="674.073,-98.8513 664.549,-103.493 674.889,-105.804 674.073,-98.8513"/>
</g>
<!-- \\RecursiveIterator -->
<g id="node48" class="node"><title>\\RecursiveIterator</title>
<ellipse fill="none" stroke="black" cx="961.787" cy="-148" rx="74.187" ry="18"/>
<text text-anchor="middle" x="961.787" y="-144.3" font-family="Times,serif" font-size="14.00" fill="gray">\RecursiveIterator</text>
</g>
<!-- \\Horde_Mime_Part&#45;&gt;\\RecursiveIterator -->
<g id="edge42" class="edge"><title>\\Horde_Mime_Part&#45;&gt;\\RecursiveIterator</title>
<path fill="none" stroke="black" stroke-dasharray="1,5" d="M1301.5,-530.687C1263.27,-531.703 1214.8,-526.071 1183.79,-497 1075.22,-395.22 1220.64,-271.474 1111.79,-170 1093.21,-152.683 1067.28,-145.339 1042.26,-142.894"/>
<polygon fill="none" stroke="black" points="1042.22,-139.381 1031.99,-142.148 1041.71,-146.363 1042.22,-139.381"/>
</g>
<!-- \\Horde_Mime_QuotedPrintable -->
<g id="node34" class="node"><title>\\Horde_Mime_QuotedPrintable</title>
<polygon fill="none" stroke="black" points="1456.79,-380 1264.79,-380 1264.79,-344 1456.79,-344 1456.79,-380"/>
<text text-anchor="middle" x="1360.79" y="-359.2" font-family="Courier,monospace" font-size="11.00">Horde_Mime_QuotedPrintable</text>
</g>
<!-- \\Horde_Mime_Mail -->
<g id="node35" class="node"><title>\\Horde_Mime_Mail</title>
<polygon fill="none" stroke="black" points="1419.79,-326 1301.79,-326 1301.79,-290 1419.79,-290 1419.79,-326"/>
<text text-anchor="middle" x="1360.79" y="-305.2" font-family="Courier,monospace" font-size="11.00">Horde_Mime_Mail</text>
</g>
<!-- \\Horde_Mime_Headers -->
<g id="node36" class="node"><title>\\Horde_Mime_Headers</title>
<polygon fill="none" stroke="black" points="1429.79,-272 1291.79,-272 1291.79,-236 1429.79,-236 1429.79,-272"/>
<text text-anchor="middle" x="1360.79" y="-251.2" font-family="Courier,monospace" font-size="11.00">Horde_Mime_Headers</text>
</g>
<!-- \\Horde_Mime_Headers&#45;&gt;\\IteratorAggregate -->
<g id="edge45" class="edge"><title>\\Horde_Mime_Headers&#45;&gt;\\IteratorAggregate</title>
<path fill="none" stroke="black" stroke-dasharray="1,5" d="M1291.52,-257.841C1256.35,-256.499 1214.52,-249.391 1183.79,-227 1125.96,-184.862 1170.15,-124.4 1111.79,-83 1057.34,-44.3747 1028.35,-76.5593 962.787,-64"/>
<path fill="none" stroke="black" stroke-dasharray="1,5" d="M960.787,-64C857.251,-44.1676 585.36,-45.6343 486.787,-83 309.88,-150.059 152.3,-325.644 97.2078,-392.052"/>
<polygon fill="none" stroke="black" points="94.3559,-390.009 90.7079,-399.956 99.7627,-394.455 94.3559,-390.009"/>
</g>
<!-- \\Horde_Mime_Headers&#45;&gt;\\ArrayAccess -->
<g id="edge44" class="edge"><title>\\Horde_Mime_Headers&#45;&gt;\\ArrayAccess</title>
<path fill="none" stroke="black" stroke-dasharray="1,5" d="M1291.45,-246.073C1254.49,-245.798 1210.96,-252.664 1183.79,-281 982.613,-490.785 1315.61,-723.785 1111.79,-931 1064.97,-978.593 1005.9,-899.034 962.787,-950"/>
<path fill="none" stroke="black" stroke-dasharray="1,5" d="M960.787,-950C847.73,-1083.64 886.75,-1180.91 739.787,-1276 722.707,-1287.05 701.704,-1293 681.799,-1296.09"/>
<polygon fill="none" stroke="black" points="681.278,-1292.63 671.829,-1297.42 682.204,-1299.57 681.278,-1292.63"/>
</g>
<!-- \\Horde_Mime_Headers&#45;&gt;\\Serializable -->
<g id="edge46" class="edge"><title>\\Horde_Mime_Headers&#45;&gt;\\Serializable</title>
<path fill="none" stroke="black" stroke-dasharray="1,5" d="M960.787,-64C906.29,-53.5611 752.837,-81.5095 669.615,-98.3285"/>
<polygon fill="none" stroke="black" points="668.681,-94.9467 659.58,-100.371 670.077,-101.806 668.681,-94.9467"/>
</g>
<!-- \\Horde_Mime_Translation -->
<g id="node37" class="node"><title>\\Horde_Mime_Translation</title>
<polygon fill="none" stroke="black" points="1443.29,-218 1278.29,-218 1278.29,-182 1443.29,-182 1443.29,-218"/>
<text text-anchor="middle" x="1360.79" y="-197.2" font-family="Courier,monospace" font-size="11.00">Horde_Mime_Translation</text>
</g>
<!-- \\Horde_Translation_Autodetect -->
<g id="node49" class="node"><title>\\Horde_Translation_Autodetect</title>
<ellipse fill="none" stroke="black" cx="961.787" cy="-18" rx="122.379" ry="18"/>
<text text-anchor="middle" x="961.787" y="-14.3" font-family="Times,serif" font-size="14.00" fill="gray">\Horde_Translation_Autodetect</text>
</g>
<!-- \\Horde_Mime_Translation&#45;&gt;\\Horde_Translation_Autodetect -->
<g id="edge47" class="edge"><title>\\Horde_Mime_Translation&#45;&gt;\\Horde_Translation_Autodetect</title>
<path fill="none" stroke="black" d="M1335.88,-181.763C1293.23,-150.12 1200.18,-85.0774 1111.79,-50 1094.48,-43.1342 1075.44,-37.6253 1056.91,-33.246"/>
<polygon fill="none" stroke="black" points="1057.52,-29.7938 1046.99,-30.9929 1055.97,-36.6201 1057.52,-29.7938"/>
</g>
</g>
</svg>
