<?xml version="1.0" encoding="UTF-8" standalone="no"?>
<!DOCTYPE svg PUBLIC "-//W3C//DTD SVG 1.1//EN"
 "http://www.w3.org/Graphics/SVG/1.1/DTD/svg11.dtd">
<!-- Generated by graphviz version 2.38.0 (20140413.2041)
 -->
<!-- Title: G Pages: 1 -->
<svg width="486pt" height="150pt"
 viewBox="0.00 0.00 485.88 150.00" xmlns="http://www.w3.org/2000/svg" xmlns:xlink="http://www.w3.org/1999/xlink">
<g id="graph0" class="graph" transform="scale(1 1) rotate(0) translate(4 146)">
<title>G</title>
<polygon fill="white" stroke="none" points="-4,4 -4,-146 481.88,-146 481.88,4 -4,4"/>
<g id="clust1" class="cluster"><title>cluster_Global</title>
<path fill="none" stroke="gray" d="M300.88,-8C300.88,-8 457.88,-8 457.88,-8 463.88,-8 469.88,-14 469.88,-20 469.88,-20 469.88,-122 469.88,-122 469.88,-128 463.88,-134 457.88,-134 457.88,-134 300.88,-134 300.88,-134 294.88,-134 288.88,-128 288.88,-122 288.88,-122 288.88,-20 288.88,-20 288.88,-14 294.88,-8 300.88,-8"/>
<text text-anchor="middle" x="379.38" y="-121.2" font-family="Times,serif" font-size="11.00" fill="gray">Global</text>
</g>
<!-- \\Horde_Secret -->
<g id="node1" class="node"><title>\\Horde_Secret</title>
<polygon fill="none" stroke="black" points="428.38,-106 330.38,-106 330.38,-70 428.38,-70 428.38,-106"/>
<text text-anchor="middle" x="379.38" y="-85.2" font-family="Courier,monospace" font-size="11.00">Horde_Secret</text>
</g>
<!-- \\Horde_Secret_Exception -->
<g id="node2" class="node"><title>\\Horde_Secret_Exception</title>
<polygon fill="none" stroke="black" points="461.88,-52 296.88,-52 296.88,-16 461.88,-16 461.88,-52"/>
<text text-anchor="middle" x="379.38" y="-31.2" font-family="Courier,monospace" font-size="11.00">Horde_Secret_Exception</text>
</g>
<!-- \\Horde_Exception_Wrapped -->
<g id="node3" class="node"><title>\\Horde_Exception_Wrapped</title>
<ellipse fill="none" stroke="black" cx="112.44" cy="-34" rx="112.38" ry="18"/>
<text text-anchor="middle" x="112.44" y="-30.3" font-family="Times,serif" font-size="14.00" fill="gray">\Horde_Exception_Wrapped</text>
</g>
<!-- \\Horde_Secret_Exception&#45;&gt;\\Horde_Exception_Wrapped -->
<g id="edge1" class="edge"><title>\\Horde_Secret_Exception&#45;&gt;\\Horde_Exception_Wrapped</title>
<path fill="none" stroke="black" d="M296.727,-34C277.259,-34 256.064,-34 235.225,-34"/>
<polygon fill="none" stroke="black" points="235.032,-30.5001 225.032,-34 235.032,-37.5001 235.032,-30.5001"/>
</g>
</g>
</svg>
