<?xml version="1.0" encoding="UTF-8" standalone="no"?>
<!DOCTYPE svg PUBLIC "-//W3C//DTD SVG 1.1//EN"
 "http://www.w3.org/Graphics/SVG/1.1/DTD/svg11.dtd">
<!-- Generated by graphviz version 2.38.0 (20140413.2041)
 -->
<!-- Title: G Pages: 1 -->
<svg width="710pt" height="294pt"
 viewBox="0.00 0.00 710.17 294.00" xmlns="http://www.w3.org/2000/svg" xmlns:xlink="http://www.w3.org/1999/xlink">
<g id="graph0" class="graph" transform="scale(1 1) rotate(0) translate(4 290)">
<title>G</title>
<polygon fill="white" stroke="none" points="-4,4 -4,-290 706.17,-290 706.17,4 -4,4"/>
<g id="clust1" class="cluster"><title>cluster_Global</title>
<path fill="none" stroke="gray" d="M240.58,-152C240.58,-152 682.17,-152 682.17,-152 688.17,-152 694.17,-158 694.17,-164 694.17,-164 694.17,-266 694.17,-266 694.17,-272 688.17,-278 682.17,-278 682.17,-278 240.58,-278 240.58,-278 234.58,-278 228.58,-272 228.58,-266 228.58,-266 228.58,-164 228.58,-164 228.58,-158 234.58,-152 240.58,-152"/>
<text text-anchor="middle" x="461.375" y="-265.2" font-family="Times,serif" font-size="11.00" fill="gray">Global</text>
</g>
<!-- \\Horde_Xml_Element -->
<g id="node1" class="node"><title>\\Horde_Xml_Element</title>
<polygon fill="none" stroke="black" points="367.58,-198 236.58,-198 236.58,-162 367.58,-162 367.58,-198"/>
<text text-anchor="middle" x="302.08" y="-177.2" font-family="Courier,monospace" font-size="11.00">Horde_Xml_Element</text>
</g>
<!-- \\ArrayAccess -->
<g id="node4" class="node"><title>\\ArrayAccess</title>
<ellipse fill="none" stroke="black" cx="58.4948" cy="-180" rx="58.4896" ry="18"/>
<text text-anchor="middle" x="58.4948" y="-176.3" font-family="Times,serif" font-size="14.00" fill="gray">\ArrayAccess</text>
</g>
<!-- \\Horde_Xml_Element&#45;&gt;\\ArrayAccess -->
<g id="edge1" class="edge"><title>\\Horde_Xml_Element&#45;&gt;\\ArrayAccess</title>
<path fill="none" stroke="black" stroke-dasharray="1,5" d="M236.339,-180C202.647,-180 161.479,-180 127.343,-180"/>
<polygon fill="none" stroke="black" points="126.991,-176.5 116.991,-180 126.991,-183.5 126.991,-176.5"/>
</g>
<!-- \\Horde_Xml_Element_Exception -->
<g id="node2" class="node"><title>\\Horde_Xml_Element_Exception</title>
<polygon fill="none" stroke="black" points="686.17,-250 487.17,-250 487.17,-214 686.17,-214 686.17,-250"/>
<text text-anchor="middle" x="586.67" y="-229.2" font-family="Courier,monospace" font-size="11.00">Horde_Xml_Element_Exception</text>
</g>
<!-- \\Horde_Exception_LastError -->
<g id="node5" class="node"><title>\\Horde_Exception_LastError</title>
<ellipse fill="none" stroke="black" cx="302.08" cy="-126" rx="113.18" ry="18"/>
<text text-anchor="middle" x="302.08" y="-122.3" font-family="Times,serif" font-size="14.00" fill="gray">\Horde_Exception_LastError</text>
</g>
<!-- \\Horde_Xml_Element_Exception&#45;&gt;\\Horde_Exception_LastError -->
<g id="edge2" class="edge"><title>\\Horde_Xml_Element_Exception&#45;&gt;\\Horde_Exception_LastError</title>
<path fill="none" stroke="black" d="M508.183,-213.993C500.93,-211.35 493.814,-208.363 487.17,-205 450.755,-186.567 452.239,-165.078 415.17,-148 409.378,-145.332 403.272,-142.986 397.023,-140.925"/>
<polygon fill="none" stroke="black" points="397.696,-137.472 387.11,-137.915 395.662,-144.17 397.696,-137.472"/>
</g>
<!-- \\Horde_Xml_Element_List -->
<g id="node3" class="node"><title>\\Horde_Xml_Element_List</title>
<polygon fill="none" stroke="black" points="669.17,-196 504.17,-196 504.17,-160 669.17,-160 669.17,-196"/>
<text text-anchor="start" x="552.67" y="-181.2" font-family="Courier,monospace" font-size="11.00">«abstract»</text>
<text text-anchor="start" x="512.17" y="-169.2" font-family="Courier,monospace" font-size="11.00">Horde_Xml_Element_List</text>
</g>
<!-- \\Horde_Xml_Element_List&#45;&gt;\\Horde_Xml_Element -->
<g id="edge3" class="edge"><title>\\Horde_Xml_Element_List&#45;&gt;\\Horde_Xml_Element</title>
<path fill="none" stroke="black" d="M503.933,-178.578C464.13,-178.86 416.609,-179.197 377.784,-179.471"/>
<polygon fill="none" stroke="black" points="377.571,-175.973 367.596,-179.543 377.62,-182.972 377.571,-175.973"/>
</g>
<!-- \\Countable -->
<g id="node6" class="node"><title>\\Countable</title>
<ellipse fill="none" stroke="black" cx="302.08" cy="-72" rx="49.2915" ry="18"/>
<text text-anchor="middle" x="302.08" y="-68.3" font-family="Times,serif" font-size="14.00" fill="gray">\Countable</text>
</g>
<!-- \\Horde_Xml_Element_List&#45;&gt;\\Countable -->
<g id="edge4" class="edge"><title>\\Horde_Xml_Element_List&#45;&gt;\\Countable</title>
<path fill="none" stroke="black" stroke-dasharray="1,5" d="M551.882,-159.917C518.063,-142.403 464.156,-116.06 415.17,-99 396.262,-92.415 375.018,-86.854 356.149,-82.522"/>
<polygon fill="none" stroke="black" points="356.756,-79.0713 346.234,-80.3066 355.23,-85.9029 356.756,-79.0713"/>
</g>
<!-- \\Iterator -->
<g id="node7" class="node"><title>\\Iterator</title>
<ellipse fill="none" stroke="black" cx="302.08" cy="-18" rx="38.9931" ry="18"/>
<text text-anchor="middle" x="302.08" y="-14.3" font-family="Times,serif" font-size="14.00" fill="gray">\Iterator</text>
</g>
<!-- \\Horde_Xml_Element_List&#45;&gt;\\Iterator -->
<g id="edge5" class="edge"><title>\\Horde_Xml_Element_List&#45;&gt;\\Iterator</title>
<path fill="none" stroke="black" stroke-dasharray="1,5" d="M568.035,-159.946C538.909,-131.193 477.725,-75.1728 415.17,-45 394.718,-35.1354 370.382,-28.7116 349.62,-24.6162"/>
<polygon fill="none" stroke="black" points="350.218,-21.1675 339.748,-22.7879 348.943,-28.0504 350.218,-21.1675"/>
</g>
</g>
</svg>
