<?xml version="1.0" encoding="UTF-8" standalone="no"?>
<!DOCTYPE svg PUBLIC "-//W3C//DTD SVG 1.1//EN"
 "http://www.w3.org/Graphics/SVG/1.1/DTD/svg11.dtd">
<!-- Generated by graphviz version 2.38.0 (20140413.2041)
 -->
<!-- Title: G Pages: 1 -->
<svg width="473pt" height="528pt"
 viewBox="0.00 0.00 472.88 528.00" xmlns="http://www.w3.org/2000/svg" xmlns:xlink="http://www.w3.org/1999/xlink">
<g id="graph0" class="graph" transform="scale(1 1) rotate(0) translate(4 524)">
<title>G</title>
<polygon fill="white" stroke="none" points="-4,4 -4,-524 468.88,-524 468.88,4 -4,4"/>
<g id="clust1" class="cluster"><title>cluster_Global</title>
<path fill="none" stroke="gray" d="M300.88,-8C300.88,-8 444.88,-8 444.88,-8 450.88,-8 456.88,-14 456.88,-20 456.88,-20 456.88,-500 456.88,-500 456.88,-506 450.88,-512 444.88,-512 444.88,-512 300.88,-512 300.88,-512 294.88,-512 288.88,-506 288.88,-500 288.88,-500 288.88,-20 288.88,-20 288.88,-14 294.88,-8 300.88,-8"/>
<text text-anchor="middle" x="372.88" y="-499.2" font-family="Times,serif" font-size="11.00" fill="gray">Global</text>
</g>
<!-- \\Horde_Ldap_Entry -->
<g id="node1" class="node"><title>\\Horde_Ldap_Entry</title>
<polygon fill="none" stroke="black" points="435.38,-484 310.38,-484 310.38,-448 435.38,-448 435.38,-484"/>
<text text-anchor="middle" x="372.88" y="-463.2" font-family="Courier,monospace" font-size="11.00">Horde_Ldap_Entry</text>
</g>
<!-- \\Horde_Ldap_Schema -->
<g id="node2" class="node"><title>\\Horde_Ldap_Schema</title>
<polygon fill="none" stroke="black" points="438.38,-430 307.38,-430 307.38,-394 438.38,-394 438.38,-430"/>
<text text-anchor="middle" x="372.88" y="-409.2" font-family="Courier,monospace" font-size="11.00">Horde_Ldap_Schema</text>
</g>
<!-- \\Horde_Ldap_Util -->
<g id="node3" class="node"><title>\\Horde_Ldap_Util</title>
<polygon fill="none" stroke="black" points="431.88,-376 313.88,-376 313.88,-340 431.88,-340 431.88,-376"/>
<text text-anchor="middle" x="372.88" y="-355.2" font-family="Courier,monospace" font-size="11.00">Horde_Ldap_Util</text>
</g>
<!-- \\Horde_Ldap_Exception -->
<g id="node4" class="node"><title>\\Horde_Ldap_Exception</title>
<polygon fill="none" stroke="black" points="448.88,-322 296.88,-322 296.88,-286 448.88,-286 448.88,-322"/>
<text text-anchor="middle" x="372.88" y="-301.2" font-family="Courier,monospace" font-size="11.00">Horde_Ldap_Exception</text>
</g>
<!-- \\Horde_Exception_Wrapped -->
<g id="node10" class="node"><title>\\Horde_Exception_Wrapped</title>
<ellipse fill="none" stroke="black" cx="112.44" cy="-304" rx="112.38" ry="18"/>
<text text-anchor="middle" x="112.44" y="-300.3" font-family="Times,serif" font-size="14.00" fill="gray">\Horde_Exception_Wrapped</text>
</g>
<!-- \\Horde_Ldap_Exception&#45;&gt;\\Horde_Exception_Wrapped -->
<g id="edge1" class="edge"><title>\\Horde_Ldap_Exception&#45;&gt;\\Horde_Exception_Wrapped</title>
<path fill="none" stroke="black" d="M296.781,-304C277.57,-304 256.411,-304 235.502,-304"/>
<polygon fill="none" stroke="black" points="235.268,-300.5 225.268,-304 235.268,-307.5 235.268,-300.5"/>
</g>
<!-- \\Horde_Ldap_Search -->
<g id="node5" class="node"><title>\\Horde_Ldap_Search</title>
<polygon fill="none" stroke="black" points="438.38,-268 307.38,-268 307.38,-232 438.38,-232 438.38,-268"/>
<text text-anchor="middle" x="372.88" y="-247.2" font-family="Courier,monospace" font-size="11.00">Horde_Ldap_Search</text>
</g>
<!-- \\Iterator -->
<g id="node11" class="node"><title>\\Iterator</title>
<ellipse fill="none" stroke="black" cx="112.44" cy="-250" rx="38.9931" ry="18"/>
<text text-anchor="middle" x="112.44" y="-246.3" font-family="Times,serif" font-size="14.00" fill="gray">\Iterator</text>
</g>
<!-- \\Horde_Ldap_Search&#45;&gt;\\Iterator -->
<g id="edge2" class="edge"><title>\\Horde_Ldap_Search&#45;&gt;\\Iterator</title>
<path fill="none" stroke="black" stroke-dasharray="1,5" d="M307.331,-250C262.124,-250 202.688,-250 161.597,-250"/>
<polygon fill="none" stroke="black" points="161.565,-246.5 151.565,-250 161.565,-253.5 161.565,-246.5"/>
</g>
<!-- \\Horde_Ldap_RootDse -->
<g id="node6" class="node"><title>\\Horde_Ldap_RootDse</title>
<polygon fill="none" stroke="black" points="441.88,-214 303.88,-214 303.88,-178 441.88,-178 441.88,-214"/>
<text text-anchor="middle" x="372.88" y="-193.2" font-family="Courier,monospace" font-size="11.00">Horde_Ldap_RootDse</text>
</g>
<!-- \\Serializable -->
<g id="node12" class="node"><title>\\Serializable</title>
<ellipse fill="none" stroke="black" cx="112.44" cy="-196" rx="54.6905" ry="18"/>
<text text-anchor="middle" x="112.44" y="-192.3" font-family="Times,serif" font-size="14.00" fill="gray">\Serializable</text>
</g>
<!-- \\Horde_Ldap_RootDse&#45;&gt;\\Serializable -->
<g id="edge3" class="edge"><title>\\Horde_Ldap_RootDse&#45;&gt;\\Serializable</title>
<path fill="none" stroke="black" stroke-dasharray="1,5" d="M303.64,-196C264.515,-196 215.713,-196 177.339,-196"/>
<polygon fill="none" stroke="black" points="177.316,-192.5 167.316,-196 177.316,-199.5 177.316,-192.5"/>
</g>
<!-- \\Horde_Ldap_Ldif -->
<g id="node7" class="node"><title>\\Horde_Ldap_Ldif</title>
<polygon fill="none" stroke="black" points="431.88,-160 313.88,-160 313.88,-124 431.88,-124 431.88,-160"/>
<text text-anchor="middle" x="372.88" y="-139.2" font-family="Courier,monospace" font-size="11.00">Horde_Ldap_Ldif</text>
</g>
<!-- \\Horde_Ldap_Filter -->
<g id="node8" class="node"><title>\\Horde_Ldap_Filter</title>
<polygon fill="none" stroke="black" points="438.38,-106 307.38,-106 307.38,-70 438.38,-70 438.38,-106"/>
<text text-anchor="middle" x="372.88" y="-85.2" font-family="Courier,monospace" font-size="11.00">Horde_Ldap_Filter</text>
</g>
<!-- \\Horde_Ldap -->
<g id="node9" class="node"><title>\\Horde_Ldap</title>
<polygon fill="none" stroke="black" points="414.88,-52 330.88,-52 330.88,-16 414.88,-16 414.88,-52"/>
<text text-anchor="middle" x="372.88" y="-31.2" font-family="Courier,monospace" font-size="11.00">Horde_Ldap</text>
</g>
</g>
</svg>
