<?xml version="1.0" encoding="UTF-8" standalone="no"?>
<!DOCTYPE svg PUBLIC "-//W3C//DTD SVG 1.1//EN"
 "http://www.w3.org/Graphics/SVG/1.1/DTD/svg11.dtd">
<!-- Generated by graphviz version 2.38.0 (20140413.2041)
 -->
<!-- Title: G Pages: 1 -->
<svg width="765pt" height="834pt"
 viewBox="0.00 0.00 765.38 834.00" xmlns="http://www.w3.org/2000/svg" xmlns:xlink="http://www.w3.org/1999/xlink">
<g id="graph0" class="graph" transform="scale(1 1) rotate(0) translate(4 830)">
<title>G</title>
<polygon fill="white" stroke="none" points="-4,4 -4,-830 761.378,-830 761.378,4 -4,4"/>
<g id="clust1" class="cluster"><title>cluster_Global</title>
<path fill="none" stroke="gray" d="M20,-206C20,-206 737.378,-206 737.378,-206 743.378,-206 749.378,-212 749.378,-218 749.378,-218 749.378,-806 749.378,-806 749.378,-812 743.378,-818 737.378,-818 737.378,-818 20,-818 20,-818 14,-818 8,-812 8,-806 8,-806 8,-218 8,-218 8,-212 14,-206 20,-206"/>
<text text-anchor="middle" x="378.689" y="-805.2" font-family="Times,serif" font-size="11.00" fill="gray">Global</text>
</g>
<!-- \\Horde_Pgp -->
<g id="node1" class="node"><title>\\Horde_Pgp</title>
<polygon fill="none" stroke="black" points="379.689,-520 302.689,-520 302.689,-484 379.689,-484 379.689,-520"/>
<text text-anchor="middle" x="341.189" y="-499.2" font-family="Courier,monospace" font-size="11.00">Horde_Pgp</text>
</g>
<!-- \\Horde_Pgp_Element -->
<g id="node2" class="node"><title>\\Horde_Pgp_Element</title>
<polygon fill="none" stroke="black" points="147,-682 16,-682 16,-646 147,-646 147,-682"/>
<text text-anchor="start" x="47.5" y="-667.2" font-family="Courier,monospace" font-size="11.00">«abstract»</text>
<text text-anchor="start" x="24" y="-655.2" font-family="Courier,monospace" font-size="11.00">Horde_Pgp_Element</text>
</g>
<!-- \\Horde_Pgp_Exception -->
<g id="node3" class="node"><title>\\Horde_Pgp_Exception</title>
<polygon fill="none" stroke="black" points="710.878,-520 565.878,-520 565.878,-484 710.878,-484 710.878,-520"/>
<text text-anchor="middle" x="638.378" y="-499.2" font-family="Courier,monospace" font-size="11.00">Horde_Pgp_Exception</text>
</g>
<!-- \\Horde_Exception_Wrapped -->
<g id="node20" class="node"><title>\\Horde_Exception_Wrapped</title>
<ellipse fill="none" stroke="black" cx="341.189" cy="-180" rx="112.38" ry="18"/>
<text text-anchor="middle" x="341.189" y="-176.3" font-family="Times,serif" font-size="14.00" fill="gray">\Horde_Exception_Wrapped</text>
</g>
<!-- \\Horde_Pgp_Exception&#45;&gt;\\Horde_Exception_Wrapped -->
<g id="edge1" class="edge"><title>\\Horde_Pgp_Exception&#45;&gt;\\Horde_Exception_Wrapped</title>
<path fill="none" stroke="black" d="M565.82,-493.405C554.512,-489.31 543.794,-483.423 535.378,-475 446.689,-386.23 555.512,-287.189 463.378,-202 459.649,-198.552 455.569,-195.555 451.235,-192.954"/>
<polygon fill="none" stroke="black" points="452.5,-189.666 442.014,-188.154 449.269,-195.876 452.5,-189.666"/>
</g>
<!-- \\Horde_Pgp_Element_Key -->
<g id="node4" class="node"><title>\\Horde_Pgp_Element_Key</title>
<polygon fill="none" stroke="black" points="420.189,-790 262.189,-790 262.189,-754 420.189,-754 420.189,-790"/>
<text text-anchor="start" x="307.189" y="-775.2" font-family="Courier,monospace" font-size="11.00">«abstract»</text>
<text text-anchor="start" x="270.189" y="-763.2" font-family="Courier,monospace" font-size="11.00">Horde_Pgp_Element_Key</text>
</g>
<!-- \\Horde_Pgp_Element_Key&#45;&gt;\\Horde_Pgp_Element -->
<g id="edge2" class="edge"><title>\\Horde_Pgp_Element_Key&#45;&gt;\\Horde_Pgp_Element</title>
<path fill="none" stroke="black" d="M262.156,-758.442C247.564,-754.838 232.626,-750.401 219,-745 181.715,-730.221 142.704,-706.064 115.981,-687.971"/>
<polygon fill="none" stroke="black" points="117.636,-684.861 107.41,-682.089 113.676,-690.633 117.636,-684.861"/>
</g>
<!-- \\Horde_Pgp_Element_SignedMessage -->
<g id="node5" class="node"><title>\\Horde_Pgp_Element_SignedMessage</title>
<polygon fill="none" stroke="black" points="454.189,-682 228.189,-682 228.189,-646 454.189,-646 454.189,-682"/>
<text text-anchor="middle" x="341.189" y="-661.2" font-family="Courier,monospace" font-size="11.00">Horde_Pgp_Element_SignedMessage</text>
</g>
<!-- \\Horde_Pgp_Element_SignedMessage&#45;&gt;\\Horde_Pgp_Element -->
<g id="edge3" class="edge"><title>\\Horde_Pgp_Element_SignedMessage&#45;&gt;\\Horde_Pgp_Element</title>
<path fill="none" stroke="black" d="M227.913,-664C204.027,-664 179.369,-664 157.296,-664"/>
<polygon fill="none" stroke="black" points="157.017,-660.5 147.017,-664 157.017,-667.5 157.017,-660.5"/>
</g>
<!-- \\Horde_Pgp_Element_Text -->
<g id="node6" class="node"><title>\\Horde_Pgp_Element_Text</title>
<polygon fill="none" stroke="black" points="423.689,-628 258.689,-628 258.689,-592 423.689,-592 423.689,-628"/>
<text text-anchor="middle" x="341.189" y="-607.2" font-family="Courier,monospace" font-size="11.00">Horde_Pgp_Element_Text</text>
</g>
<!-- \\Horde_Pgp_Element_Text&#45;&gt;\\Horde_Pgp_Element -->
<g id="edge4" class="edge"><title>\\Horde_Pgp_Element_Text&#45;&gt;\\Horde_Pgp_Element</title>
<path fill="none" stroke="black" d="M258.655,-627.086C226.19,-633.889 189.072,-641.667 157.306,-648.324"/>
<polygon fill="none" stroke="black" points="156.263,-644.967 147.193,-650.443 157.699,-651.818 156.263,-644.967"/>
</g>
<!-- \\Horde_Pgp_Element_PrivateKey -->
<g id="node7" class="node"><title>\\Horde_Pgp_Element_PrivateKey</title>
<polygon fill="none" stroke="black" points="741.378,-736 535.378,-736 535.378,-700 741.378,-700 741.378,-736"/>
<text text-anchor="middle" x="638.378" y="-715.2" font-family="Courier,monospace" font-size="11.00">Horde_Pgp_Element_PrivateKey</text>
</g>
<!-- \\Horde_Pgp_Element_PrivateKey&#45;&gt;\\Horde_Pgp_Element_Key -->
<g id="edge5" class="edge"><title>\\Horde_Pgp_Element_PrivateKey&#45;&gt;\\Horde_Pgp_Element_Key</title>
<path fill="none" stroke="black" d="M538.674,-736.056C503.589,-742.475 464.347,-749.653 430.214,-755.897"/>
<polygon fill="none" stroke="black" points="429.471,-752.475 420.264,-757.717 430.731,-759.361 429.471,-752.475"/>
</g>
<!-- \\Horde_Pgp_Element_Signature -->
<g id="node8" class="node"><title>\\Horde_Pgp_Element_Signature</title>
<polygon fill="none" stroke="black" points="440.689,-574 241.689,-574 241.689,-538 440.689,-538 440.689,-574"/>
<text text-anchor="middle" x="341.189" y="-553.2" font-family="Courier,monospace" font-size="11.00">Horde_Pgp_Element_Signature</text>
</g>
<!-- \\Horde_Pgp_Element_Signature&#45;&gt;\\Horde_Pgp_Element -->
<g id="edge6" class="edge"><title>\\Horde_Pgp_Element_Signature&#45;&gt;\\Horde_Pgp_Element</title>
<path fill="none" stroke="black" d="M245.359,-574.065C236.333,-576.696 227.416,-579.664 219,-583 181.715,-597.779 142.704,-621.936 115.981,-640.029"/>
<polygon fill="none" stroke="black" points="113.676,-637.367 107.41,-645.911 117.636,-643.139 113.676,-637.367"/>
</g>
<!-- \\Horde_Pgp_Element_PublicKey -->
<g id="node9" class="node"><title>\\Horde_Pgp_Element_PublicKey</title>
<polygon fill="none" stroke="black" points="737.878,-790 538.878,-790 538.878,-754 737.878,-754 737.878,-790"/>
<text text-anchor="middle" x="638.378" y="-769.2" font-family="Courier,monospace" font-size="11.00">Horde_Pgp_Element_PublicKey</text>
</g>
<!-- \\Horde_Pgp_Element_PublicKey&#45;&gt;\\Horde_Pgp_Element_Key -->
<g id="edge7" class="edge"><title>\\Horde_Pgp_Element_PublicKey&#45;&gt;\\Horde_Pgp_Element_Key</title>
<path fill="none" stroke="black" d="M538.674,-772C503.739,-772 464.684,-772 430.654,-772"/>
<polygon fill="none" stroke="black" points="430.264,-768.5 420.264,-772 430.264,-775.5 430.264,-768.5"/>
</g>
<!-- \\Horde_Pgp_Element_Message -->
<g id="node10" class="node"><title>\\Horde_Pgp_Element_Message</title>
<polygon fill="none" stroke="black" points="433.689,-736 248.689,-736 248.689,-700 433.689,-700 433.689,-736"/>
<text text-anchor="middle" x="341.189" y="-715.2" font-family="Courier,monospace" font-size="11.00">Horde_Pgp_Element_Message</text>
</g>
<!-- \\Horde_Pgp_Element_Message&#45;&gt;\\Horde_Pgp_Element -->
<g id="edge8" class="edge"><title>\\Horde_Pgp_Element_Message&#45;&gt;\\Horde_Pgp_Element</title>
<path fill="none" stroke="black" d="M254.024,-699.944C222.738,-693.388 187.668,-686.038 157.43,-679.702"/>
<polygon fill="none" stroke="black" points="157.879,-676.22 147.374,-677.595 156.443,-683.071 157.879,-676.22"/>
</g>
<!-- \\Horde_Pgp_Keyserver -->
<g id="node11" class="node"><title>\\Horde_Pgp_Keyserver</title>
<polygon fill="none" stroke="black" points="710.878,-628 565.878,-628 565.878,-592 710.878,-592 710.878,-628"/>
<text text-anchor="middle" x="638.378" y="-607.2" font-family="Courier,monospace" font-size="11.00">Horde_Pgp_Keyserver</text>
</g>
<!-- \\Horde_Pgp_Armor -->
<g id="node12" class="node"><title>\\Horde_Pgp_Armor</title>
<polygon fill="none" stroke="black" points="697.378,-304 579.378,-304 579.378,-268 697.378,-268 697.378,-304"/>
<text text-anchor="middle" x="638.378" y="-283.2" font-family="Courier,monospace" font-size="11.00">Horde_Pgp_Armor</text>
</g>
<!-- \\Countable -->
<g id="node21" class="node"><title>\\Countable</title>
<ellipse fill="none" stroke="black" cx="341.189" cy="-126" rx="49.2915" ry="18"/>
<text text-anchor="middle" x="341.189" y="-122.3" font-family="Times,serif" font-size="14.00" fill="gray">\Countable</text>
</g>
<!-- \\Horde_Pgp_Armor&#45;&gt;\\Countable -->
<g id="edge9" class="edge"><title>\\Horde_Pgp_Armor&#45;&gt;\\Countable</title>
<path fill="none" stroke="black" stroke-dasharray="1,5" d="M579.183,-278.143C563.961,-274.144 548.232,-268.108 535.378,-259 488.91,-226.074 510.489,-185.001 463.378,-153 444.907,-140.453 421.539,-133.639 400.264,-129.973"/>
<polygon fill="none" stroke="black" points="400.754,-126.508 390.34,-128.458 399.698,-133.427 400.754,-126.508"/>
</g>
<!-- \\SeekableIterator -->
<g id="node22" class="node"><title>\\SeekableIterator</title>
<ellipse fill="none" stroke="black" cx="341.189" cy="-72" rx="70.6878" ry="18"/>
<text text-anchor="middle" x="341.189" y="-68.3" font-family="Times,serif" font-size="14.00" fill="gray">\SeekableIterator</text>
</g>
<!-- \\Horde_Pgp_Armor&#45;&gt;\\SeekableIterator -->
<g id="edge10" class="edge"><title>\\Horde_Pgp_Armor&#45;&gt;\\SeekableIterator</title>
<path fill="none" stroke="black" stroke-dasharray="1,5" d="M579.134,-279.848C563.567,-275.875 547.673,-269.426 535.378,-259 475.905,-208.564 523.837,-148.25 463.378,-99 451.108,-89.005 435.909,-82.5221 420.469,-78.3591"/>
<polygon fill="none" stroke="black" points="420.855,-74.8534 410.316,-75.9448 419.235,-81.6634 420.855,-74.8534"/>
</g>
<!-- \\Horde_Pgp_Mime -->
<g id="node13" class="node"><title>\\Horde_Pgp_Mime</title>
<polygon fill="none" stroke="black" points="693.878,-682 582.878,-682 582.878,-646 693.878,-646 693.878,-682"/>
<text text-anchor="middle" x="638.378" y="-661.2" font-family="Courier,monospace" font-size="11.00">Horde_Pgp_Mime</text>
</g>
<!-- \\Horde_Pgp_Mime&#45;&gt;\\Horde_Pgp -->
<g id="edge11" class="edge"><title>\\Horde_Pgp_Mime&#45;&gt;\\Horde_Pgp</title>
<path fill="none" stroke="black" d="M582.836,-657.153C566.486,-653.182 549.236,-646.909 535.378,-637 488.453,-603.444 510.958,-561.621 463.378,-529 441.929,-514.294 413.781,-507.453 390.011,-504.329"/>
<polygon fill="none" stroke="black" points="390.112,-500.818 379.783,-503.173 389.326,-507.774 390.112,-500.818"/>
</g>
<!-- \\Horde_Pgp_Backend -->
<g id="node14" class="node"><title>\\Horde_Pgp_Backend</title>
<polygon fill="none" stroke="black" points="406.689,-466 275.689,-466 275.689,-430 406.689,-430 406.689,-466"/>
<text text-anchor="middle" x="341.189" y="-445.2" font-family="Courier,monospace" font-size="11.00">Horde_Pgp_Backend</text>
</g>
<!-- \\Horde_Pgp_Crypt_Cast128 -->
<g id="node15" class="node"><title>\\Horde_Pgp_Crypt_Cast128</title>
<polygon fill="none" stroke="black" points="724.378,-466 552.378,-466 552.378,-430 724.378,-430 724.378,-466"/>
<text text-anchor="middle" x="638.378" y="-445.2" font-family="Courier,monospace" font-size="11.00">Horde_Pgp_Crypt_Cast128</text>
</g>
<!-- \\Horde_Pgp_Crypt_DSA -->
<g id="node16" class="node"><title>\\Horde_Pgp_Crypt_DSA</title>
<polygon fill="none" stroke="black" points="710.878,-412 565.878,-412 565.878,-376 710.878,-376 710.878,-412"/>
<text text-anchor="middle" x="638.378" y="-391.2" font-family="Courier,monospace" font-size="11.00">Horde_Pgp_Crypt_DSA</text>
</g>
<!-- \\Horde_Pgp_Crypt_Elgamal -->
<g id="node17" class="node"><title>\\Horde_Pgp_Crypt_Elgamal</title>
<polygon fill="none" stroke="black" points="724.378,-358 552.378,-358 552.378,-322 724.378,-322 724.378,-358"/>
<text text-anchor="middle" x="638.378" y="-337.2" font-family="Courier,monospace" font-size="11.00">Horde_Pgp_Crypt_Elgamal</text>
</g>
<!-- \\Horde_Pgp_Backend_Openpgp -->
<g id="node18" class="node"><title>\\Horde_Pgp_Backend_Openpgp</title>
<polygon fill="none" stroke="black" points="730.878,-574 545.878,-574 545.878,-538 730.878,-538 730.878,-574"/>
<text text-anchor="middle" x="638.378" y="-553.2" font-family="Courier,monospace" font-size="11.00">Horde_Pgp_Backend_Openpgp</text>
</g>
<!-- \\Horde_Pgp_Backend_Openpgp&#45;&gt;\\Horde_Pgp_Backend -->
<g id="edge12" class="edge"><title>\\Horde_Pgp_Backend_Openpgp&#45;&gt;\\Horde_Pgp_Backend</title>
<path fill="none" stroke="black" d="M557.229,-537.974C549.7,-535.335 542.302,-532.354 535.378,-529 499.38,-511.56 499.714,-491.724 463.378,-475 448.784,-468.283 432.416,-463.188 416.543,-459.341"/>
<polygon fill="none" stroke="black" points="417.273,-455.918 406.745,-457.103 415.714,-462.742 417.273,-455.918"/>
</g>
<!-- \\Horde_Pgp_Translation -->
<g id="node19" class="node"><title>\\Horde_Pgp_Translation</title>
<polygon fill="none" stroke="black" points="717.378,-250 559.378,-250 559.378,-214 717.378,-214 717.378,-250"/>
<text text-anchor="middle" x="638.378" y="-229.2" font-family="Courier,monospace" font-size="11.00">Horde_Pgp_Translation</text>
</g>
<!-- \\Horde_Translation_Autodetect -->
<g id="node23" class="node"><title>\\Horde_Translation_Autodetect</title>
<ellipse fill="none" stroke="black" cx="341.189" cy="-18" rx="122.379" ry="18"/>
<text text-anchor="middle" x="341.189" y="-14.3" font-family="Times,serif" font-size="14.00" fill="gray">\Horde_Translation_Autodetect</text>
</g>
<!-- \\Horde_Pgp_Translation&#45;&gt;\\Horde_Translation_Autodetect -->
<g id="edge13" class="edge"><title>\\Horde_Pgp_Translation&#45;&gt;\\Horde_Translation_Autodetect</title>
<path fill="none" stroke="black" d="M626.177,-213.989C601.672,-176.2 539.371,-88.5411 463.378,-45 455.701,-40.6009 447.369,-36.9184 438.79,-33.8357"/>
<polygon fill="none" stroke="black" points="439.615,-30.4221 429.022,-30.604 437.417,-37.0678 439.615,-30.4221"/>
</g>
</g>
</svg>
