<?xml version="1.0" encoding="UTF-8" standalone="no"?>
<!DOCTYPE svg PUBLIC "-//W3C//DTD SVG 1.1//EN"
 "http://www.w3.org/Graphics/SVG/1.1/DTD/svg11.dtd">
<!-- Generated by graphviz version 2.38.0 (20140413.2041)
 -->
<!-- Title: G Pages: 1 -->
<svg width="687pt" height="510pt"
 viewBox="0.00 0.00 687.37 510.00" xmlns="http://www.w3.org/2000/svg" xmlns:xlink="http://www.w3.org/1999/xlink">
<g id="graph0" class="graph" transform="scale(1 1) rotate(0) translate(4 506)">
<title>G</title>
<polygon fill="white" stroke="none" points="-4,4 -4,-506 683.367,-506 683.367,4 -4,4"/>
<g id="clust1" class="cluster"><title>cluster_Global</title>
<path fill="none" stroke="gray" d="M293.476,-98C293.476,-98 659.367,-98 659.367,-98 665.367,-98 671.367,-104 671.367,-110 671.367,-110 671.367,-482 671.367,-482 671.367,-488 665.367,-494 659.367,-494 659.367,-494 293.476,-494 293.476,-494 287.476,-494 281.476,-488 281.476,-482 281.476,-482 281.476,-110 281.476,-110 281.476,-104 287.476,-98 293.476,-98"/>
<text text-anchor="middle" x="476.422" y="-481.2" font-family="Times,serif" font-size="11.00" fill="gray">Global</text>
</g>
<!-- \\scribeClient -->
<g id="node1" class="node"><title>\\scribeClient</title>
<polygon fill="none" stroke="black" points="639.867,-304 541.867,-304 541.867,-268 639.867,-268 639.867,-304"/>
<text text-anchor="middle" x="590.867" y="-283.2" font-family="Courier,monospace" font-size="11.00">scribeClient</text>
</g>
<!-- \\scribeIf -->
<g id="node8" class="node"><title>\\scribeIf</title>
<polygon fill="none" stroke="black" points="373.976,-304 302.976,-304 302.976,-268 373.976,-268 373.976,-304"/>
<text text-anchor="middle" x="338.476" y="-283.2" font-family="Courier,monospace" font-size="11.00">scribeIf</text>
</g>
<!-- \\scribeClient&#45;&gt;\\scribeIf -->
<g id="edge2" class="edge"><title>\\scribeClient&#45;&gt;\\scribeIf</title>
<path fill="none" stroke="black" stroke-dasharray="1,5" d="M541.589,-286C496.2,-286 428.788,-286 384.493,-286"/>
<polygon fill="none" stroke="black" points="384.309,-282.5 374.309,-286 384.308,-289.5 384.309,-282.5"/>
</g>
<!-- \\FacebookServiceClient -->
<g id="node10" class="node"><title>\\FacebookServiceClient</title>
<ellipse fill="none" stroke="black" cx="338.476" cy="-72" rx="94.7833" ry="18"/>
<text text-anchor="middle" x="338.476" y="-68.3" font-family="Times,serif" font-size="14.00" fill="gray">\FacebookServiceClient</text>
</g>
<!-- \\scribeClient&#45;&gt;\\FacebookServiceClient -->
<g id="edge1" class="edge"><title>\\scribeClient&#45;&gt;\\FacebookServiceClient</title>
<path fill="none" stroke="black" d="M541.77,-273.926C533.254,-270.178 525.002,-265.309 518.367,-259 460.383,-203.867 508.523,-144.383 446.367,-94 441.794,-90.2932 436.756,-87.1621 431.434,-84.5215"/>
<polygon fill="none" stroke="black" points="432.808,-81.3022 422.241,-80.5258 430.017,-87.722 432.808,-81.3022"/>
</g>
<!-- \\scribe_Log_args -->
<g id="node2" class="node"><title>\\scribe_Log_args</title>
<polygon fill="none" stroke="black" points="649.867,-412 531.867,-412 531.867,-376 649.867,-376 649.867,-412"/>
<text text-anchor="middle" x="590.867" y="-391.2" font-family="Courier,monospace" font-size="11.00">scribe_Log_args</text>
</g>
<!-- \\scribe_Log_result -->
<g id="node3" class="node"><title>\\scribe_Log_result</title>
<polygon fill="none" stroke="black" points="656.367,-358 525.367,-358 525.367,-322 656.367,-322 656.367,-358"/>
<text text-anchor="middle" x="590.867" y="-337.2" font-family="Courier,monospace" font-size="11.00">scribe_Log_result</text>
</g>
<!-- \\scribeProcessor -->
<g id="node4" class="node"><title>\\scribeProcessor</title>
<polygon fill="none" stroke="black" points="649.867,-142 531.867,-142 531.867,-106 649.867,-106 649.867,-142"/>
<text text-anchor="middle" x="590.867" y="-121.2" font-family="Courier,monospace" font-size="11.00">scribeProcessor</text>
</g>
<!-- \\FacebookServiceProcessor -->
<g id="node11" class="node"><title>\\FacebookServiceProcessor</title>
<ellipse fill="none" stroke="black" cx="338.476" cy="-18" rx="107.781" ry="18"/>
<text text-anchor="middle" x="338.476" y="-14.3" font-family="Times,serif" font-size="14.00" fill="gray">\FacebookServiceProcessor</text>
</g>
<!-- \\scribeProcessor&#45;&gt;\\FacebookServiceProcessor -->
<g id="edge3" class="edge"><title>\\scribeProcessor&#45;&gt;\\FacebookServiceProcessor</title>
<path fill="none" stroke="black" d="M562.058,-105.875C533.888,-88.2029 488.569,-61.6282 446.367,-45 436.718,-41.1982 426.365,-37.7963 416.038,-34.7951"/>
<polygon fill="none" stroke="black" points="416.742,-31.3579 406.17,-32.0406 414.86,-38.1002 416.742,-31.3579"/>
</g>
<!-- \\ResultCode -->
<g id="node5" class="node"><title>\\ResultCode</title>
<polygon fill="none" stroke="black" points="632.867,-250 548.867,-250 548.867,-214 632.867,-214 632.867,-250"/>
<text text-anchor="middle" x="590.867" y="-229.2" font-family="Courier,monospace" font-size="11.00">ResultCode</text>
</g>
<!-- \\LogEntry -->
<g id="node6" class="node"><title>\\LogEntry</title>
<polygon fill="none" stroke="black" points="626.367,-196 555.367,-196 555.367,-160 626.367,-160 626.367,-196"/>
<text text-anchor="middle" x="590.867" y="-175.2" font-family="Courier,monospace" font-size="11.00">LogEntry</text>
</g>
<!-- \\Horde_Scribe_Client -->
<g id="node7" class="node"><title>\\Horde_Scribe_Client</title>
<polygon fill="none" stroke="black" points="663.367,-466 518.367,-466 518.367,-430 663.367,-430 663.367,-466"/>
<text text-anchor="middle" x="590.867" y="-445.2" font-family="Courier,monospace" font-size="11.00">Horde_Scribe_Client</text>
</g>
<!-- \\Horde_Scribe -->
<g id="node9" class="node"><title>\\Horde_Scribe</title>
<polygon fill="none" stroke="black" points="387.476,-466 289.476,-466 289.476,-430 387.476,-430 387.476,-466"/>
<text text-anchor="middle" x="338.476" y="-445.2" font-family="Courier,monospace" font-size="11.00">Horde_Scribe</text>
</g>
<!-- \\Horde_Scribe_Client&#45;&gt;\\Horde_Scribe -->
<g id="edge4" class="edge"><title>\\Horde_Scribe_Client&#45;&gt;\\Horde_Scribe</title>
<path fill="none" stroke="black" stroke-dasharray="1,5" d="M518.115,-448C480.103,-448 434,-448 398.151,-448"/>
<polygon fill="none" stroke="black" points="397.853,-444.5 387.853,-448 397.853,-451.5 397.853,-444.5"/>
</g>
<!-- \\FacebookServiceIf -->
<g id="node12" class="node"><title>\\FacebookServiceIf</title>
<ellipse fill="none" stroke="black" cx="79.293" cy="-286" rx="79.0865" ry="18"/>
<text text-anchor="middle" x="79.293" y="-282.3" font-family="Times,serif" font-size="14.00" fill="gray">\FacebookServiceIf</text>
</g>
<!-- \\scribeIf&#45;&gt;\\FacebookServiceIf -->
<g id="edge5" class="edge"><title>\\scribeIf&#45;&gt;\\FacebookServiceIf</title>
<path fill="none" stroke="black" d="M302.791,-286C268.558,-286 214.801,-286 168.703,-286"/>
<polygon fill="none" stroke="black" points="168.69,-282.5 158.69,-286 168.69,-289.5 168.69,-282.5"/>
</g>
<!-- \\Horde_Thrift -->
<g id="node13" class="node"><title>\\Horde_Thrift</title>
<ellipse fill="none" stroke="black" cx="79.293" cy="-448" rx="59.5901" ry="18"/>
<text text-anchor="middle" x="79.293" y="-444.3" font-family="Times,serif" font-size="14.00" fill="gray">\Horde_Thrift</text>
</g>
<!-- \\Horde_Scribe&#45;&gt;\\Horde_Thrift -->
<g id="edge6" class="edge"><title>\\Horde_Scribe&#45;&gt;\\Horde_Thrift</title>
<path fill="none" stroke="black" d="M289.404,-448C250.019,-448 193.771,-448 149.531,-448"/>
<polygon fill="none" stroke="black" points="149.425,-444.5 139.425,-448 149.425,-451.5 149.425,-444.5"/>
</g>
</g>
</svg>
