<?xml version="1.0" encoding="UTF-8" standalone="no"?>
<!DOCTYPE svg PUBLIC "-//W3C//DTD SVG 1.1//EN"
 "http://www.w3.org/Graphics/SVG/1.1/DTD/svg11.dtd">
<!-- Generated by graphviz version 2.38.0 (20140413.2041)
 -->
<!-- Title: G Pages: 1 -->
<svg width="583pt" height="456pt"
 viewBox="0.00 0.00 583.44 456.00" xmlns="http://www.w3.org/2000/svg" xmlns:xlink="http://www.w3.org/1999/xlink">
<g id="graph0" class="graph" transform="scale(1 1) rotate(0) translate(4 452)">
<title>G</title>
<polygon fill="white" stroke="none" points="-4,4 -4,-452 579.44,-452 579.44,4 -4,4"/>
<g id="clust1" class="cluster"><title>cluster_Global</title>
<path fill="none" stroke="gray" d="M20,-44C20,-44 555.44,-44 555.44,-44 561.44,-44 567.44,-50 567.44,-56 567.44,-56 567.44,-428 567.44,-428 567.44,-434 561.44,-440 555.44,-440 555.44,-440 20,-440 20,-440 14,-440 8,-434 8,-428 8,-428 8,-56 8,-56 8,-50 14,-44 20,-44"/>
<text text-anchor="middle" x="287.72" y="-427.2" font-family="Times,serif" font-size="11.00" fill="gray">Global</text>
</g>
<!-- \\Horde_Service_Twitter -->
<g id="node1" class="node"><title>\\Horde_Service_Twitter</title>
<polygon fill="none" stroke="black" points="511.94,-412 353.94,-412 353.94,-376 511.94,-376 511.94,-412"/>
<text text-anchor="middle" x="432.94" y="-391.2" font-family="Courier,monospace" font-size="11.00">Horde_Service_Twitter</text>
</g>
<!-- \\Horde_Service_Twitter_Exception -->
<g id="node2" class="node"><title>\\Horde_Service_Twitter_Exception</title>
<polygon fill="none" stroke="black" points="545.94,-196 319.94,-196 319.94,-160 545.94,-160 545.94,-196"/>
<text text-anchor="middle" x="432.94" y="-175.2" font-family="Courier,monospace" font-size="11.00">Horde_Service_Twitter_Exception</text>
</g>
<!-- \\Horde_Exception_Wrapped -->
<g id="node10" class="node"><title>\\Horde_Exception_Wrapped</title>
<ellipse fill="none" stroke="black" cx="122" cy="-18" rx="112.38" ry="18"/>
<text text-anchor="middle" x="122" y="-14.3" font-family="Times,serif" font-size="14.00" fill="gray">\Horde_Exception_Wrapped</text>
</g>
<!-- \\Horde_Service_Twitter_Exception&#45;&gt;\\Horde_Exception_Wrapped -->
<g id="edge1" class="edge"><title>\\Horde_Service_Twitter_Exception&#45;&gt;\\Horde_Exception_Wrapped</title>
<path fill="none" stroke="black" d="M321.919,-159.891C316.503,-157.3 311.302,-154.352 306.44,-151 258.029,-117.621 283.133,-72.9664 234.44,-40 230.416,-37.2758 226.135,-34.8721 221.682,-32.7526"/>
<polygon fill="none" stroke="black" points="222.903,-29.4689 212.33,-28.7894 220.172,-35.9141 222.903,-29.4689"/>
</g>
<!-- \\Horde_Service_Twitter_Request_Oauth -->
<g id="node3" class="node"><title>\\Horde_Service_Twitter_Request_Oauth</title>
<polygon fill="none" stroke="black" points="559.44,-358 306.44,-358 306.44,-322 559.44,-322 559.44,-358"/>
<text text-anchor="middle" x="432.94" y="-337.2" font-family="Courier,monospace" font-size="11.00">Horde_Service_Twitter_Request_Oauth</text>
</g>
<!-- \\Horde_Service_Twitter_Request -->
<g id="node9" class="node"><title>\\Horde_Service_Twitter_Request</title>
<polygon fill="none" stroke="black" points="228,-358 16,-358 16,-322 228,-322 228,-358"/>
<text text-anchor="start" x="88" y="-343.2" font-family="Courier,monospace" font-size="11.00">«abstract»</text>
<text text-anchor="start" x="24" y="-331.2" font-family="Courier,monospace" font-size="11.00">Horde_Service_Twitter_Request</text>
</g>
<!-- \\Horde_Service_Twitter_Request_Oauth&#45;&gt;\\Horde_Service_Twitter_Request -->
<g id="edge2" class="edge"><title>\\Horde_Service_Twitter_Request_Oauth&#45;&gt;\\Horde_Service_Twitter_Request</title>
<path fill="none" stroke="black" d="M306.282,-340C283.828,-340 260.531,-340 238.382,-340"/>
<polygon fill="none" stroke="black" points="238.294,-336.5 228.294,-340 238.294,-343.5 238.294,-336.5"/>
</g>
<!-- \\Horde_Service_Twitter_Favorites -->
<g id="node4" class="node"><title>\\Horde_Service_Twitter_Favorites</title>
<polygon fill="none" stroke="black" points="545.94,-250 319.94,-250 319.94,-214 545.94,-214 545.94,-250"/>
<text text-anchor="middle" x="432.94" y="-229.2" font-family="Courier,monospace" font-size="11.00">Horde_Service_Twitter_Favorites</text>
</g>
<!-- \\Horde_Service_Twitter_Auth_Oauth -->
<g id="node5" class="node"><title>\\Horde_Service_Twitter_Auth_Oauth</title>
<polygon fill="none" stroke="black" points="549.44,-304 316.44,-304 316.44,-268 549.44,-268 549.44,-304"/>
<text text-anchor="middle" x="432.94" y="-283.2" font-family="Courier,monospace" font-size="11.00">Horde_Service_Twitter_Auth_Oauth</text>
</g>
<!-- \\Horde_Service_Twitter_Auth -->
<g id="node7" class="node"><title>\\Horde_Service_Twitter_Auth</title>
<polygon fill="none" stroke="black" points="218,-304 26,-304 26,-268 218,-268 218,-304"/>
<text text-anchor="start" x="88" y="-289.2" font-family="Courier,monospace" font-size="11.00">«abstract»</text>
<text text-anchor="start" x="34" y="-277.2" font-family="Courier,monospace" font-size="11.00">Horde_Service_Twitter_Auth</text>
</g>
<!-- \\Horde_Service_Twitter_Auth_Oauth&#45;&gt;\\Horde_Service_Twitter_Auth -->
<g id="edge3" class="edge"><title>\\Horde_Service_Twitter_Auth_Oauth&#45;&gt;\\Horde_Service_Twitter_Auth</title>
<path fill="none" stroke="black" d="M316.023,-286C287.355,-286 256.794,-286 228.645,-286"/>
<polygon fill="none" stroke="black" points="228.391,-282.5 218.391,-286 228.391,-289.5 228.391,-282.5"/>
</g>
<!-- \\Horde_Service_Twitter_Statuses -->
<g id="node6" class="node"><title>\\Horde_Service_Twitter_Statuses</title>
<polygon fill="none" stroke="black" points="542.44,-142 323.44,-142 323.44,-106 542.44,-106 542.44,-142"/>
<text text-anchor="middle" x="432.94" y="-121.2" font-family="Courier,monospace" font-size="11.00">Horde_Service_Twitter_Statuses</text>
</g>
<!-- \\Horde_Service_Twitter_Account -->
<g id="node8" class="node"><title>\\Horde_Service_Twitter_Account</title>
<polygon fill="none" stroke="black" points="538.94,-88 326.94,-88 326.94,-52 538.94,-52 538.94,-88"/>
<text text-anchor="middle" x="432.94" y="-67.2" font-family="Courier,monospace" font-size="11.00">Horde_Service_Twitter_Account</text>
</g>
</g>
</svg>
