<?xml version="1.0" encoding="UTF-8" standalone="no"?>
<!DOCTYPE svg PUBLIC "-//W3C//DTD SVG 1.1//EN"
 "http://www.w3.org/Graphics/SVG/1.1/DTD/svg11.dtd">
<!-- Generated by graphviz version 2.38.0 (20140413.2041)
 -->
<!-- Title: G Pages: 1 -->
<svg width="590pt" height="510pt"
 viewBox="0.00 0.00 589.94 510.00" xmlns="http://www.w3.org/2000/svg" xmlns:xlink="http://www.w3.org/1999/xlink">
<g id="graph0" class="graph" transform="scale(1 1) rotate(0) translate(4 506)">
<title>G</title>
<polygon fill="white" stroke="none" points="-4,4 -4,-506 585.94,-506 585.94,4 -4,4"/>
<g id="clust1" class="cluster"><title>cluster_Global</title>
<path fill="none" stroke="gray" d="M20,-44C20,-44 561.94,-44 561.94,-44 567.94,-44 573.94,-50 573.94,-56 573.94,-56 573.94,-482 573.94,-482 573.94,-488 567.94,-494 561.94,-494 561.94,-494 20,-494 20,-494 14,-494 8,-488 8,-482 8,-482 8,-56 8,-56 8,-50 14,-44 20,-44"/>
<text text-anchor="middle" x="290.97" y="-481.2" font-family="Times,serif" font-size="11.00" fill="gray">Global</text>
</g>
<!-- \\Horde_Oauth_SignatureMethod_Plaintext -->
<g id="node1" class="node"><title>\\Horde_Oauth_SignatureMethod_Plaintext</title>
<polygon fill="none" stroke="black" points="565.94,-466 299.94,-466 299.94,-430 565.94,-430 565.94,-466"/>
<text text-anchor="middle" x="432.94" y="-445.2" font-family="Courier,monospace" font-size="11.00">Horde_Oauth_SignatureMethod_Plaintext</text>
</g>
<!-- \\Horde_Oauth_SignatureMethod -->
<g id="node8" class="node"><title>\\Horde_Oauth_SignatureMethod</title>
<polygon fill="none" stroke="black" points="215,-412 16,-412 16,-376 215,-376 215,-412"/>
<text text-anchor="start" x="81.5" y="-397.2" font-family="Courier,monospace" font-size="11.00">«abstract»</text>
<text text-anchor="start" x="24" y="-385.2" font-family="Courier,monospace" font-size="11.00">Horde_Oauth_SignatureMethod</text>
</g>
<!-- \\Horde_Oauth_SignatureMethod_Plaintext&#45;&gt;\\Horde_Oauth_SignatureMethod -->
<g id="edge1" class="edge"><title>\\Horde_Oauth_SignatureMethod_Plaintext&#45;&gt;\\Horde_Oauth_SignatureMethod</title>
<path fill="none" stroke="black" d="M326.465,-429.944C293.921,-424.373 258.032,-418.229 225.271,-412.62"/>
<polygon fill="none" stroke="black" points="225.658,-409.136 215.211,-410.898 224.477,-416.036 225.658,-409.136"/>
</g>
<!-- \\Horde_Oauth_SignatureMethod_RsaSha1 -->
<g id="node2" class="node"><title>\\Horde_Oauth_SignatureMethod_RsaSha1</title>
<polygon fill="none" stroke="black" points="559.44,-412 306.44,-412 306.44,-376 559.44,-376 559.44,-412"/>
<text text-anchor="middle" x="432.94" y="-391.2" font-family="Courier,monospace" font-size="11.00">Horde_Oauth_SignatureMethod_RsaSha1</text>
</g>
<!-- \\Horde_Oauth_SignatureMethod_RsaSha1&#45;&gt;\\Horde_Oauth_SignatureMethod -->
<g id="edge2" class="edge"><title>\\Horde_Oauth_SignatureMethod_RsaSha1&#45;&gt;\\Horde_Oauth_SignatureMethod</title>
<path fill="none" stroke="black" d="M306.363,-394C279.669,-394 251.691,-394 225.667,-394"/>
<polygon fill="none" stroke="black" points="225.415,-390.5 215.415,-394 225.415,-397.5 225.415,-390.5"/>
</g>
<!-- \\Horde_Oauth_SignatureMethod_HmacSha1 -->
<g id="node3" class="node"><title>\\Horde_Oauth_SignatureMethod_HmacSha1</title>
<polygon fill="none" stroke="black" points="562.94,-358 302.94,-358 302.94,-322 562.94,-322 562.94,-358"/>
<text text-anchor="middle" x="432.94" y="-337.2" font-family="Courier,monospace" font-size="11.00">Horde_Oauth_SignatureMethod_HmacSha1</text>
</g>
<!-- \\Horde_Oauth_SignatureMethod_HmacSha1&#45;&gt;\\Horde_Oauth_SignatureMethod -->
<g id="edge3" class="edge"><title>\\Horde_Oauth_SignatureMethod_HmacSha1&#45;&gt;\\Horde_Oauth_SignatureMethod</title>
<path fill="none" stroke="black" d="M326.465,-358.056C293.921,-363.627 258.032,-369.771 225.271,-375.38"/>
<polygon fill="none" stroke="black" points="224.477,-371.964 215.211,-377.102 225.658,-378.864 224.477,-371.964"/>
</g>
<!-- \\Horde_Oauth_Exception -->
<g id="node4" class="node"><title>\\Horde_Oauth_Exception</title>
<polygon fill="none" stroke="black" points="511.94,-304 353.94,-304 353.94,-268 511.94,-268 511.94,-304"/>
<text text-anchor="middle" x="432.94" y="-283.2" font-family="Courier,monospace" font-size="11.00">Horde_Oauth_Exception</text>
</g>
<!-- \\Horde_Exception_Wrapped -->
<g id="node10" class="node"><title>\\Horde_Exception_Wrapped</title>
<ellipse fill="none" stroke="black" cx="115.5" cy="-18" rx="112.38" ry="18"/>
<text text-anchor="middle" x="115.5" y="-14.3" font-family="Times,serif" font-size="14.00" fill="gray">\Horde_Exception_Wrapped</text>
</g>
<!-- \\Horde_Oauth_Exception&#45;&gt;\\Horde_Exception_Wrapped -->
<g id="edge4" class="edge"><title>\\Horde_Oauth_Exception&#45;&gt;\\Horde_Exception_Wrapped</title>
<path fill="none" stroke="black" d="M353.81,-283.651C334.33,-279.64 314.79,-272.221 299.94,-259 223.417,-190.867 304.696,-107.87 227.94,-40 224.91,-37.321 221.651,-34.9301 218.218,-32.7982"/>
<polygon fill="none" stroke="black" points="219.822,-29.6866 209.359,-28.0161 216.496,-35.8464 219.822,-29.6866"/>
</g>
<!-- \\Horde_Oauth_Utils -->
<g id="node5" class="node"><title>\\Horde_Oauth_Utils</title>
<polygon fill="none" stroke="black" points="498.44,-250 367.44,-250 367.44,-214 498.44,-214 498.44,-250"/>
<text text-anchor="middle" x="432.94" y="-229.2" font-family="Courier,monospace" font-size="11.00">Horde_Oauth_Utils</text>
</g>
<!-- \\Horde_Oauth_Consumer -->
<g id="node6" class="node"><title>\\Horde_Oauth_Consumer</title>
<polygon fill="none" stroke="black" points="508.94,-196 356.94,-196 356.94,-160 508.94,-160 508.94,-196"/>
<text text-anchor="middle" x="432.94" y="-175.2" font-family="Courier,monospace" font-size="11.00">Horde_Oauth_Consumer</text>
</g>
<!-- \\Horde_Oauth_Token -->
<g id="node7" class="node"><title>\\Horde_Oauth_Token</title>
<polygon fill="none" stroke="black" points="498.44,-142 367.44,-142 367.44,-106 498.44,-106 498.44,-142"/>
<text text-anchor="middle" x="432.94" y="-121.2" font-family="Courier,monospace" font-size="11.00">Horde_Oauth_Token</text>
</g>
<!-- \\Horde_Oauth_Request -->
<g id="node9" class="node"><title>\\Horde_Oauth_Request</title>
<polygon fill="none" stroke="black" points="505.44,-88 360.44,-88 360.44,-52 505.44,-52 505.44,-88"/>
<text text-anchor="middle" x="432.94" y="-67.2" font-family="Courier,monospace" font-size="11.00">Horde_Oauth_Request</text>
</g>
</g>
</svg>
