<?xml version="1.0" encoding="UTF-8" standalone="no"?>
<!DOCTYPE svg PUBLIC "-//W3C//DTD SVG 1.1//EN"
 "http://www.w3.org/Graphics/SVG/1.1/DTD/svg11.dtd">
<!-- Generated by graphviz version 2.38.0 (20140413.2041)
 -->
<!-- Title: G Pages: 1 -->
<svg width="486pt" height="186pt"
 viewBox="0.00 0.00 485.88 186.00" xmlns="http://www.w3.org/2000/svg" xmlns:xlink="http://www.w3.org/1999/xlink">
<g id="graph0" class="graph" transform="scale(1 1) rotate(0) translate(4 182)">
<title>G</title>
<polygon fill="white" stroke="none" points="-4,4 -4,-182 481.88,-182 481.88,4 -4,4"/>
<g id="clust1" class="cluster"><title>cluster_Global</title>
<path fill="none" stroke="gray" d="M67.44,-44C67.44,-44 457.88,-44 457.88,-44 463.88,-44 469.88,-50 469.88,-56 469.88,-56 469.88,-158 469.88,-158 469.88,-164 463.88,-170 457.88,-170 457.88,-170 67.44,-170 67.44,-170 61.44,-170 55.44,-164 55.44,-158 55.44,-158 55.44,-56 55.44,-56 55.44,-50 61.44,-44 67.44,-44"/>
<text text-anchor="middle" x="262.66" y="-157.2" font-family="Times,serif" font-size="11.00" fill="gray">Global</text>
</g>
<!-- \\Horde_Editor_Exception -->
<g id="node1" class="node"><title>\\Horde_Editor_Exception</title>
<polygon fill="none" stroke="black" points="461.88,-88 296.88,-88 296.88,-52 461.88,-52 461.88,-88"/>
<text text-anchor="middle" x="379.38" y="-67.2" font-family="Courier,monospace" font-size="11.00">Horde_Editor_Exception</text>
</g>
<!-- \\Horde_Exception_Wrapped -->
<g id="node4" class="node"><title>\\Horde_Exception_Wrapped</title>
<ellipse fill="none" stroke="black" cx="112.44" cy="-18" rx="112.38" ry="18"/>
<text text-anchor="middle" x="112.44" y="-14.3" font-family="Times,serif" font-size="14.00" fill="gray">\Horde_Exception_Wrapped</text>
</g>
<!-- \\Horde_Editor_Exception&#45;&gt;\\Horde_Exception_Wrapped -->
<g id="edge1" class="edge"><title>\\Horde_Editor_Exception&#45;&gt;\\Horde_Exception_Wrapped</title>
<path fill="none" stroke="black" d="M296.727,-53.974C264.209,-47.5916 226.876,-40.2642 194.424,-33.8949"/>
<polygon fill="none" stroke="black" points="195.008,-30.4426 184.521,-31.9511 193.659,-37.3116 195.008,-30.4426"/>
</g>
<!-- \\Horde_Editor_Ckeditor -->
<g id="node2" class="node"><title>\\Horde_Editor_Ckeditor</title>
<polygon fill="none" stroke="black" points="458.38,-142 300.38,-142 300.38,-106 458.38,-106 458.38,-142"/>
<text text-anchor="middle" x="379.38" y="-121.2" font-family="Courier,monospace" font-size="11.00">Horde_Editor_Ckeditor</text>
</g>
<!-- \\Horde_Editor -->
<g id="node3" class="node"><title>\\Horde_Editor</title>
<polygon fill="none" stroke="black" points="161.44,-142 63.44,-142 63.44,-106 161.44,-106 161.44,-142"/>
<text text-anchor="middle" x="112.44" y="-121.2" font-family="Courier,monospace" font-size="11.00">Horde_Editor</text>
</g>
<!-- \\Horde_Editor_Ckeditor&#45;&gt;\\Horde_Editor -->
<g id="edge2" class="edge"><title>\\Horde_Editor_Ckeditor&#45;&gt;\\Horde_Editor</title>
<path fill="none" stroke="black" d="M300.322,-124C259.303,-124 209.859,-124 172.135,-124"/>
<polygon fill="none" stroke="black" points="171.822,-120.5 161.822,-124 171.822,-127.5 171.822,-120.5"/>
</g>
</g>
</svg>
