<?xml version="1.0" encoding="UTF-8" standalone="no"?>
<!DOCTYPE svg PUBLIC "-//W3C//DTD SVG 1.1//EN"
 "http://www.w3.org/Graphics/SVG/1.1/DTD/svg11.dtd">
<!-- Generated by graphviz version 2.38.0 (20140413.2041)
 -->
<!-- Title: G Pages: 1 -->
<svg width="692pt" height="296pt"
 viewBox="0.00 0.00 691.88 296.00" xmlns="http://www.w3.org/2000/svg" xmlns:xlink="http://www.w3.org/1999/xlink">
<g id="graph0" class="graph" transform="scale(1 1) rotate(0) translate(4 292)">
<title>G</title>
<polygon fill="white" stroke="none" points="-4,4 -4,-292 687.88,-292 687.88,4 -4,4"/>
<g id="clust1" class="cluster"><title>cluster_Global</title>
<path fill="none" stroke="gray" d="M20,-46C20,-46 663.88,-46 663.88,-46 669.88,-46 675.88,-52 675.88,-58 675.88,-58 675.88,-268 675.88,-268 675.88,-274 669.88,-280 663.88,-280 663.88,-280 20,-280 20,-280 14,-280 8,-274 8,-268 8,-268 8,-58 8,-58 8,-52 14,-46 20,-46"/>
<text text-anchor="middle" x="341.94" y="-267.2" font-family="Times,serif" font-size="11.00" fill="gray">Global</text>
</g>
<!-- \\Horde_Group_Kolab -->
<g id="node1" class="node"><title>\\Horde_Group_Kolab</title>
<polygon fill="none" stroke="black" points="654.38,-252 523.38,-252 523.38,-216 654.38,-216 654.38,-252"/>
<text text-anchor="middle" x="588.88" y="-231.2" font-family="Courier,monospace" font-size="11.00">Horde_Group_Kolab</text>
</g>
<!-- \\Horde_Group_Ldap -->
<g id="node7" class="node"><title>\\Horde_Group_Ldap</title>
<polygon fill="none" stroke="black" points="387.94,-252 262.94,-252 262.94,-216 387.94,-216 387.94,-252"/>
<text text-anchor="middle" x="325.44" y="-231.2" font-family="Courier,monospace" font-size="11.00">Horde_Group_Ldap</text>
</g>
<!-- \\Horde_Group_Kolab&#45;&gt;\\Horde_Group_Ldap -->
<g id="edge1" class="edge"><title>\\Horde_Group_Kolab&#45;&gt;\\Horde_Group_Ldap</title>
<path fill="none" stroke="black" d="M523.254,-234C485.36,-234 437.41,-234 398.326,-234"/>
<polygon fill="none" stroke="black" points="398.074,-230.5 388.074,-234 398.074,-237.5 398.074,-230.5"/>
</g>
<!-- \\Horde_Group_Exception -->
<g id="node2" class="node"><title>\\Horde_Group_Exception</title>
<polygon fill="none" stroke="black" points="667.88,-90 509.88,-90 509.88,-54 667.88,-54 667.88,-90"/>
<text text-anchor="middle" x="588.88" y="-69.2" font-family="Courier,monospace" font-size="11.00">Horde_Group_Exception</text>
</g>
<!-- \\Horde_Exception_Wrapped -->
<g id="node8" class="node"><title>\\Horde_Exception_Wrapped</title>
<ellipse fill="none" stroke="black" cx="325.44" cy="-18" rx="112.38" ry="18"/>
<text text-anchor="middle" x="325.44" y="-14.3" font-family="Times,serif" font-size="14.00" fill="gray">\Horde_Exception_Wrapped</text>
</g>
<!-- \\Horde_Group_Exception&#45;&gt;\\Horde_Exception_Wrapped -->
<g id="edge2" class="edge"><title>\\Horde_Group_Exception&#45;&gt;\\Horde_Exception_Wrapped</title>
<path fill="none" stroke="black" d="M509.794,-55.8714C476.795,-49.0556 438.424,-41.1302 405.338,-34.2963"/>
<polygon fill="none" stroke="black" points="405.753,-30.8082 395.252,-32.213 404.337,-37.6635 405.753,-30.8082"/>
</g>
<!-- \\Horde_Group_Sql -->
<g id="node3" class="node"><title>\\Horde_Group_Sql</title>
<polygon fill="none" stroke="black" points="384.44,-198 266.44,-198 266.44,-162 384.44,-162 384.44,-198"/>
<text text-anchor="middle" x="325.44" y="-177.2" font-family="Courier,monospace" font-size="11.00">Horde_Group_Sql</text>
</g>
<!-- \\Horde_Group_Base -->
<g id="node6" class="node"><title>\\Horde_Group_Base</title>
<polygon fill="none" stroke="black" points="141,-171 16,-171 16,-135 141,-135 141,-171"/>
<text text-anchor="start" x="44.5" y="-156.2" font-family="Courier,monospace" font-size="11.00">«abstract»</text>
<text text-anchor="start" x="24" y="-144.2" font-family="Courier,monospace" font-size="11.00">Horde_Group_Base</text>
</g>
<!-- \\Horde_Group_Sql&#45;&gt;\\Horde_Group_Base -->
<g id="edge3" class="edge"><title>\\Horde_Group_Sql&#45;&gt;\\Horde_Group_Base</title>
<path fill="none" stroke="black" d="M266.393,-173.601C231.996,-169.81 188.121,-164.973 151.527,-160.94"/>
<polygon fill="none" stroke="black" points="151.736,-157.442 141.413,-159.825 150.969,-164.399 151.736,-157.442"/>
</g>
<!-- \\Horde_Group_Mock -->
<g id="node4" class="node"><title>\\Horde_Group_Mock</title>
<polygon fill="none" stroke="black" points="387.94,-144 262.94,-144 262.94,-108 387.94,-108 387.94,-144"/>
<text text-anchor="middle" x="325.44" y="-123.2" font-family="Courier,monospace" font-size="11.00">Horde_Group_Mock</text>
</g>
<!-- \\Horde_Group_Mock&#45;&gt;\\Horde_Group_Base -->
<g id="edge4" class="edge"><title>\\Horde_Group_Mock&#45;&gt;\\Horde_Group_Base</title>
<path fill="none" stroke="black" d="M262.631,-132.813C228.836,-136.539 186.796,-141.173 151.523,-145.061"/>
<polygon fill="none" stroke="black" points="150.845,-141.614 141.289,-146.189 151.612,-148.572 150.845,-141.614"/>
</g>
<!-- \\Horde_Group_File -->
<g id="node5" class="node"><title>\\Horde_Group_File</title>
<polygon fill="none" stroke="black" points="387.94,-90 262.94,-90 262.94,-54 387.94,-54 387.94,-90"/>
<text text-anchor="middle" x="325.44" y="-69.2" font-family="Courier,monospace" font-size="11.00">Horde_Group_File</text>
</g>
<!-- \\Horde_Group_File&#45;&gt;\\Horde_Group_Base -->
<g id="edge5" class="edge"><title>\\Horde_Group_File&#45;&gt;\\Horde_Group_Base</title>
<path fill="none" stroke="black" d="M262.68,-85.2561C246.39,-89.2161 228.919,-93.8823 213,-99 184.719,-108.092 153.931,-120.377 129.056,-130.932"/>
<polygon fill="none" stroke="black" points="127.644,-127.729 119.829,-134.883 130.4,-134.164 127.644,-127.729"/>
</g>
<!-- \\Horde_Group_Ldap&#45;&gt;\\Horde_Group_Base -->
<g id="edge6" class="edge"><title>\\Horde_Group_Ldap&#45;&gt;\\Horde_Group_Base</title>
<path fill="none" stroke="black" d="M262.68,-220.744C246.39,-216.784 228.919,-212.118 213,-207 184.719,-197.908 153.931,-185.623 129.056,-175.068"/>
<polygon fill="none" stroke="black" points="130.4,-171.836 119.829,-171.117 127.644,-178.271 130.4,-171.836"/>
</g>
</g>
</svg>
