<?xml version="1.0" encoding="UTF-8" standalone="no"?>
<!DOCTYPE svg PUBLIC "-//W3C//DTD SVG 1.1//EN"
 "http://www.w3.org/Graphics/SVG/1.1/DTD/svg11.dtd">
<!-- Generated by graphviz version 2.38.0 (20140413.2041)
 -->
<!-- Title: G Pages: 1 -->
<svg width="711pt" height="1160pt"
 viewBox="0.00 0.00 711.38 1160.00" xmlns="http://www.w3.org/2000/svg" xmlns:xlink="http://www.w3.org/1999/xlink">
<g id="graph0" class="graph" transform="scale(1 1) rotate(0) translate(4 1156)">
<title>G</title>
<polygon fill="white" stroke="none" points="-4,4 -4,-1156 707.378,-1156 707.378,4 -4,4"/>
<g id="clust1" class="cluster"><title>cluster_Global</title>
<path fill="none" stroke="gray" d="M20,-100C20,-100 683.378,-100 683.378,-100 689.378,-100 695.378,-106 695.378,-112 695.378,-112 695.378,-1132 695.378,-1132 695.378,-1138 689.378,-1144 683.378,-1144 683.378,-1144 20,-1144 20,-1144 14,-1144 8,-1138 8,-1132 8,-1132 8,-112 8,-112 8,-106 14,-100 20,-100"/>
<text text-anchor="middle" x="351.689" y="-1131.2" font-family="Times,serif" font-size="11.00" fill="gray">Global</text>
</g>
<!-- \\Horde_Auth_Composite -->
<g id="node1" class="node"><title>\\Horde_Auth_Composite</title>
<polygon fill="none" stroke="black" points="404.189,-1116 252.189,-1116 252.189,-1080 404.189,-1080 404.189,-1116"/>
<text text-anchor="middle" x="328.189" y="-1095.2" font-family="Courier,monospace" font-size="11.00">Horde_Auth_Composite</text>
</g>
<!-- \\Horde_Auth_Base -->
<g id="node23" class="node"><title>\\Horde_Auth_Base</title>
<polygon fill="none" stroke="black" points="134,-630 16,-630 16,-594 134,-594 134,-630"/>
<text text-anchor="start" x="41" y="-615.2" font-family="Courier,monospace" font-size="11.00">«abstract»</text>
<text text-anchor="start" x="24" y="-603.2" font-family="Courier,monospace" font-size="11.00">Horde_Auth_Base</text>
</g>
<!-- \\Horde_Auth_Composite&#45;&gt;\\Horde_Auth_Base -->
<g id="edge1" class="edge"><title>\\Horde_Auth_Composite&#45;&gt;\\Horde_Auth_Base</title>
<path fill="none" stroke="black" d="M251.882,-1094.05C235.07,-1089.92 218.535,-1082.84 206,-1071 141.568,-1010.13 93.9985,-730.158 80.1381,-640.034"/>
<polygon fill="none" stroke="black" points="83.578,-639.373 78.6161,-630.012 76.6573,-640.424 83.578,-639.373"/>
</g>
<!-- \\Horde_Auth_Kolab -->
<g id="node2" class="node"><title>\\Horde_Auth_Kolab</title>
<polygon fill="none" stroke="black" points="390.689,-1062 265.689,-1062 265.689,-1026 390.689,-1026 390.689,-1062"/>
<text text-anchor="middle" x="328.189" y="-1041.2" font-family="Courier,monospace" font-size="11.00">Horde_Auth_Kolab</text>
</g>
<!-- \\Horde_Auth_Kolab&#45;&gt;\\Horde_Auth_Base -->
<g id="edge2" class="edge"><title>\\Horde_Auth_Kolab&#45;&gt;\\Horde_Auth_Base</title>
<path fill="none" stroke="black" d="M265.393,-1042.43C244.338,-1038.97 222.082,-1031.68 206,-1017 93.6708,-914.494 77.9392,-714.837 76.0826,-640.656"/>
<polygon fill="none" stroke="black" points="79.5748,-640.189 75.8952,-630.254 72.576,-640.315 79.5748,-640.189"/>
</g>
<!-- \\Horde_Auth_Shibboleth -->
<g id="node3" class="node"><title>\\Horde_Auth_Shibboleth</title>
<polygon fill="none" stroke="black" points="407.189,-1008 249.189,-1008 249.189,-972 407.189,-972 407.189,-1008"/>
<text text-anchor="middle" x="328.189" y="-987.2" font-family="Courier,monospace" font-size="11.00">Horde_Auth_Shibboleth</text>
</g>
<!-- \\Horde_Auth_Shibboleth&#45;&gt;\\Horde_Auth_Base -->
<g id="edge3" class="edge"><title>\\Horde_Auth_Shibboleth&#45;&gt;\\Horde_Auth_Base</title>
<path fill="none" stroke="black" d="M249.06,-984.454C233.418,-980.261 218.098,-973.561 206,-963 106.993,-876.575 83.284,-707.64 77.6925,-640.501"/>
<polygon fill="none" stroke="black" points="81.1626,-639.973 76.9172,-630.266 74.1826,-640.502 81.1626,-639.973"/>
</g>
<!-- \\Horde_Auth_Msad -->
<g id="node4" class="node"><title>\\Horde_Auth_Msad</title>
<polygon fill="none" stroke="black" points="663.878,-954 545.878,-954 545.878,-918 663.878,-918 663.878,-954"/>
<text text-anchor="middle" x="604.878" y="-933.2" font-family="Courier,monospace" font-size="11.00">Horde_Auth_Msad</text>
</g>
<!-- \\Horde_Auth_Ldap -->
<g id="node25" class="node"><title>\\Horde_Auth_Ldap</title>
<polygon fill="none" stroke="black" points="387.189,-954 269.189,-954 269.189,-918 387.189,-918 387.189,-954"/>
<text text-anchor="middle" x="328.189" y="-933.2" font-family="Courier,monospace" font-size="11.00">Horde_Auth_Ldap</text>
</g>
<!-- \\Horde_Auth_Msad&#45;&gt;\\Horde_Auth_Ldap -->
<g id="edge4" class="edge"><title>\\Horde_Auth_Msad&#45;&gt;\\Horde_Auth_Ldap</title>
<path fill="none" stroke="black" d="M545.624,-936C502.286,-936 443.01,-936 397.449,-936"/>
<polygon fill="none" stroke="black" points="397.36,-932.5 387.36,-936 397.36,-939.5 397.36,-932.5"/>
</g>
<!-- \\Horde_Auth_Exception -->
<g id="node5" class="node"><title>\\Horde_Auth_Exception</title>
<polygon fill="none" stroke="black" points="680.878,-252 528.878,-252 528.878,-216 680.878,-216 680.878,-252"/>
<text text-anchor="middle" x="604.878" y="-231.2" font-family="Courier,monospace" font-size="11.00">Horde_Auth_Exception</text>
</g>
<!-- \\Horde_Exception_Wrapped -->
<g id="node27" class="node"><title>\\Horde_Exception_Wrapped</title>
<ellipse fill="none" stroke="black" cx="328.189" cy="-72" rx="112.38" ry="18"/>
<text text-anchor="middle" x="328.189" y="-68.3" font-family="Times,serif" font-size="14.00" fill="gray">\Horde_Exception_Wrapped</text>
</g>
<!-- \\Horde_Auth_Exception&#45;&gt;\\Horde_Exception_Wrapped -->
<g id="edge5" class="edge"><title>\\Horde_Auth_Exception&#45;&gt;\\Horde_Exception_Wrapped</title>
<path fill="none" stroke="black" d="M536.576,-215.93C531.549,-213.332 526.743,-210.371 522.378,-207 475.84,-171.057 499.061,-128.981 450.378,-96 444.396,-91.9475 437.89,-88.5459 431.101,-85.6941"/>
<polygon fill="none" stroke="black" points="432.283,-82.3991 421.691,-82.1367 429.808,-88.9468 432.283,-82.3991"/>
</g>
<!-- \\Horde_Auth_Smb -->
<g id="node6" class="node"><title>\\Horde_Auth_Smb</title>
<polygon fill="none" stroke="black" points="383.689,-900 272.689,-900 272.689,-864 383.689,-864 383.689,-900"/>
<text text-anchor="middle" x="328.189" y="-879.2" font-family="Courier,monospace" font-size="11.00">Horde_Auth_Smb</text>
</g>
<!-- \\Horde_Auth_Smb&#45;&gt;\\Horde_Auth_Base -->
<g id="edge6" class="edge"><title>\\Horde_Auth_Smb&#45;&gt;\\Horde_Auth_Base</title>
<path fill="none" stroke="black" d="M272.63,-879.707C250.144,-876.403 224.971,-869.403 206,-855 132.916,-799.512 96.3737,-690.779 82.6398,-639.723"/>
<polygon fill="none" stroke="black" points="86.0233,-638.827 80.1215,-630.028 79.2481,-640.587 86.0233,-638.827"/>
</g>
<!-- \\Horde_Auth_Customsql -->
<g id="node7" class="node"><title>\\Horde_Auth_Customsql</title>
<polygon fill="none" stroke="black" points="680.878,-360 528.878,-360 528.878,-324 680.878,-324 680.878,-360"/>
<text text-anchor="middle" x="604.878" y="-339.2" font-family="Courier,monospace" font-size="11.00">Horde_Auth_Customsql</text>
</g>
<!-- \\Horde_Auth_Sql -->
<g id="node10" class="node"><title>\\Horde_Auth_Sql</title>
<polygon fill="none" stroke="black" points="383.689,-306 272.689,-306 272.689,-270 383.689,-270 383.689,-306"/>
<text text-anchor="middle" x="328.189" y="-285.2" font-family="Courier,monospace" font-size="11.00">Horde_Auth_Sql</text>
</g>
<!-- \\Horde_Auth_Customsql&#45;&gt;\\Horde_Auth_Sql -->
<g id="edge7" class="edge"><title>\\Horde_Auth_Customsql&#45;&gt;\\Horde_Auth_Sql</title>
<path fill="none" stroke="black" d="M528.818,-327.244C486.644,-318.953 434.529,-308.708 394.124,-300.765"/>
<polygon fill="none" stroke="black" points="394.604,-297.293 384.116,-298.798 393.253,-304.161 394.604,-297.293"/>
</g>
<!-- \\Horde_Auth_Passwd -->
<g id="node8" class="node"><title>\\Horde_Auth_Passwd</title>
<polygon fill="none" stroke="black" points="393.689,-846 262.689,-846 262.689,-810 393.689,-810 393.689,-846"/>
<text text-anchor="middle" x="328.189" y="-825.2" font-family="Courier,monospace" font-size="11.00">Horde_Auth_Passwd</text>
</g>
<!-- \\Horde_Auth_Passwd&#45;&gt;\\Horde_Auth_Base -->
<g id="edge8" class="edge"><title>\\Horde_Auth_Passwd&#45;&gt;\\Horde_Auth_Base</title>
<path fill="none" stroke="black" d="M262.569,-822.742C243.153,-818.846 222.616,-812.216 206,-801 145.646,-760.261 105.189,-681.303 86.9953,-639.502"/>
<polygon fill="none" stroke="black" points="90.178,-638.042 83.05,-630.204 83.7341,-640.777 90.178,-638.042"/>
</g>
<!-- \\Horde_Auth_Http -->
<g id="node9" class="node"><title>\\Horde_Auth_Http</title>
<polygon fill="none" stroke="black" points="387.189,-792 269.189,-792 269.189,-756 387.189,-756 387.189,-792"/>
<text text-anchor="middle" x="328.189" y="-771.2" font-family="Courier,monospace" font-size="11.00">Horde_Auth_Http</text>
</g>
<!-- \\Horde_Auth_Http&#45;&gt;\\Horde_Auth_Base -->
<g id="edge9" class="edge"><title>\\Horde_Auth_Http&#45;&gt;\\Horde_Auth_Base</title>
<path fill="none" stroke="black" d="M268.89,-768.075C248.076,-764.177 225.076,-757.714 206,-747 157.768,-719.911 116.262,-669.26 93.8216,-638.291"/>
<polygon fill="none" stroke="black" points="96.6551,-636.236 88.0081,-630.114 90.95,-640.292 96.6551,-636.236"/>
</g>
<!-- \\Horde_Auth_Sql&#45;&gt;\\Horde_Auth_Base -->
<g id="edge10" class="edge"><title>\\Horde_Auth_Sql&#45;&gt;\\Horde_Auth_Base</title>
<path fill="none" stroke="black" d="M272.679,-289.496C249.938,-292.634 224.556,-299.725 206,-315 120.089,-385.719 89.3396,-524.334 79.7893,-583.805"/>
<polygon fill="none" stroke="black" points="76.2891,-583.541 78.2442,-593.954 83.2094,-584.595 76.2891,-583.541"/>
</g>
<!-- \\Horde_Auth_Smbclient -->
<g id="node11" class="node"><title>\\Horde_Auth_Smbclient</title>
<polygon fill="none" stroke="black" points="404.189,-738 252.189,-738 252.189,-702 404.189,-702 404.189,-738"/>
<text text-anchor="middle" x="328.189" y="-717.2" font-family="Courier,monospace" font-size="11.00">Horde_Auth_Smbclient</text>
</g>
<!-- \\Horde_Auth_Smbclient&#45;&gt;\\Horde_Auth_Base -->
<g id="edge11" class="edge"><title>\\Horde_Auth_Smbclient&#45;&gt;\\Horde_Auth_Base</title>
<path fill="none" stroke="black" d="M251.95,-707.388C236.457,-703.646 220.465,-698.916 206,-693 170.176,-678.349 133.066,-654.175 107.712,-636.042"/>
<polygon fill="none" stroke="black" points="109.733,-633.185 99.5827,-630.147 105.623,-638.851 109.733,-633.185"/>
</g>
<!-- \\Horde_Auth_Radius -->
<g id="node12" class="node"><title>\\Horde_Auth_Radius</title>
<polygon fill="none" stroke="black" points="393.689,-684 262.689,-684 262.689,-648 393.689,-648 393.689,-684"/>
<text text-anchor="middle" x="328.189" y="-663.2" font-family="Courier,monospace" font-size="11.00">Horde_Auth_Radius</text>
</g>
<!-- \\Horde_Auth_Radius&#45;&gt;\\Horde_Auth_Base -->
<g id="edge12" class="edge"><title>\\Horde_Auth_Radius&#45;&gt;\\Horde_Auth_Base</title>
<path fill="none" stroke="black" d="M262.502,-652.094C226.228,-644.296 181.011,-634.575 144.185,-626.658"/>
<polygon fill="none" stroke="black" points="144.547,-623.156 134.035,-624.476 143.076,-630 144.547,-623.156"/>
</g>
<!-- \\Horde_Auth_Login -->
<g id="node13" class="node"><title>\\Horde_Auth_Login</title>
<polygon fill="none" stroke="black" points="390.689,-630 265.689,-630 265.689,-594 390.689,-594 390.689,-630"/>
<text text-anchor="middle" x="328.189" y="-609.2" font-family="Courier,monospace" font-size="11.00">Horde_Auth_Login</text>
</g>
<!-- \\Horde_Auth_Login&#45;&gt;\\Horde_Auth_Base -->
<g id="edge13" class="edge"><title>\\Horde_Auth_Login&#45;&gt;\\Horde_Auth_Base</title>
<path fill="none" stroke="black" d="M265.42,-612C228.772,-612 182.251,-612 144.484,-612"/>
<polygon fill="none" stroke="black" points="144.079,-608.5 134.079,-612 144.079,-615.5 144.079,-608.5"/>
</g>
<!-- \\Horde_Auth_Imap -->
<g id="node14" class="node"><title>\\Horde_Auth_Imap</title>
<polygon fill="none" stroke="black" points="387.189,-576 269.189,-576 269.189,-540 387.189,-540 387.189,-576"/>
<text text-anchor="middle" x="328.189" y="-555.2" font-family="Courier,monospace" font-size="11.00">Horde_Auth_Imap</text>
</g>
<!-- \\Horde_Auth_Imap&#45;&gt;\\Horde_Auth_Base -->
<g id="edge14" class="edge"><title>\\Horde_Auth_Imap&#45;&gt;\\Horde_Auth_Base</title>
<path fill="none" stroke="black" d="M268.93,-570.524C231.812,-578.504 183.553,-588.879 144.587,-597.255"/>
<polygon fill="none" stroke="black" points="143.419,-593.926 134.378,-599.45 144.89,-600.77 143.419,-593.926"/>
</g>
<!-- \\Horde_Auth_Auto -->
<g id="node15" class="node"><title>\\Horde_Auth_Auto</title>
<polygon fill="none" stroke="black" points="387.189,-522 269.189,-522 269.189,-486 387.189,-486 387.189,-522"/>
<text text-anchor="middle" x="328.189" y="-501.2" font-family="Courier,monospace" font-size="11.00">Horde_Auth_Auto</text>
</g>
<!-- \\Horde_Auth_Auto&#45;&gt;\\Horde_Auth_Base -->
<g id="edge15" class="edge"><title>\\Horde_Auth_Auto&#45;&gt;\\Horde_Auth_Base</title>
<path fill="none" stroke="black" d="M268.949,-512.832C248.58,-516.995 225.852,-522.881 206,-531 170.176,-545.651 133.066,-569.825 107.712,-587.958"/>
<polygon fill="none" stroke="black" points="105.623,-585.149 99.5827,-593.853 109.733,-590.815 105.623,-585.149"/>
</g>
<!-- \\Horde_Auth_Peclsasl -->
<g id="node16" class="node"><title>\\Horde_Auth_Peclsasl</title>
<polygon fill="none" stroke="black" points="400.689,-468 255.689,-468 255.689,-432 400.689,-432 400.689,-468"/>
<text text-anchor="middle" x="328.189" y="-447.2" font-family="Courier,monospace" font-size="11.00">Horde_Auth_Peclsasl</text>
</g>
<!-- \\Horde_Auth_Peclsasl&#45;&gt;\\Horde_Auth_Base -->
<g id="edge16" class="edge"><title>\\Horde_Auth_Peclsasl&#45;&gt;\\Horde_Auth_Base</title>
<path fill="none" stroke="black" d="M255.428,-458.764C238.509,-462.752 221.035,-468.555 206,-477 157.768,-504.089 116.262,-554.74 93.8216,-585.709"/>
<polygon fill="none" stroke="black" points="90.95,-583.708 88.0081,-593.886 96.6551,-587.764 90.95,-583.708"/>
</g>
<!-- \\Horde_Auth_Pam -->
<g id="node17" class="node"><title>\\Horde_Auth_Pam</title>
<polygon fill="none" stroke="black" points="383.689,-414 272.689,-414 272.689,-378 383.689,-378 383.689,-414"/>
<text text-anchor="middle" x="328.189" y="-393.2" font-family="Courier,monospace" font-size="11.00">Horde_Auth_Pam</text>
</g>
<!-- \\Horde_Auth_Pam&#45;&gt;\\Horde_Auth_Base -->
<g id="edge17" class="edge"><title>\\Horde_Auth_Pam&#45;&gt;\\Horde_Auth_Base</title>
<path fill="none" stroke="black" d="M272.466,-399.481C250.335,-403.009 225.474,-409.855 206,-423 145.646,-463.739 105.189,-542.697 86.9953,-584.498"/>
<polygon fill="none" stroke="black" points="83.7341,-583.223 83.05,-593.796 90.178,-585.958 83.7341,-583.223"/>
</g>
<!-- \\Horde_Auth_X509 -->
<g id="node18" class="node"><title>\\Horde_Auth_X509</title>
<polygon fill="none" stroke="black" points="387.189,-360 269.189,-360 269.189,-324 387.189,-324 387.189,-360"/>
<text text-anchor="middle" x="328.189" y="-339.2" font-family="Courier,monospace" font-size="11.00">Horde_Auth_X509</text>
</g>
<!-- \\Horde_Auth_X509&#45;&gt;\\Horde_Auth_Base -->
<g id="edge18" class="edge"><title>\\Horde_Auth_X509&#45;&gt;\\Horde_Auth_Base</title>
<path fill="none" stroke="black" d="M268.945,-344.865C247.428,-348.379 223.941,-355.379 206,-369 132.916,-424.488 96.3737,-533.221 82.6398,-584.277"/>
<polygon fill="none" stroke="black" points="79.2481,-583.413 80.1215,-593.972 86.0233,-585.173 79.2481,-583.413"/>
</g>
<!-- \\Horde_Auth_Cyrsql -->
<g id="node19" class="node"><title>\\Horde_Auth_Cyrsql</title>
<polygon fill="none" stroke="black" points="670.378,-306 539.378,-306 539.378,-270 670.378,-270 670.378,-306"/>
<text text-anchor="middle" x="604.878" y="-285.2" font-family="Courier,monospace" font-size="11.00">Horde_Auth_Cyrsql</text>
</g>
<!-- \\Horde_Auth_Cyrsql&#45;&gt;\\Horde_Auth_Sql -->
<g id="edge19" class="edge"><title>\\Horde_Auth_Cyrsql&#45;&gt;\\Horde_Auth_Sql</title>
<path fill="none" stroke="black" d="M539.129,-288C495.37,-288 437.814,-288 394.035,-288"/>
<polygon fill="none" stroke="black" points="393.786,-284.5 383.786,-288 393.786,-291.5 393.786,-284.5"/>
</g>
<!-- \\Horde_Auth_Http_Remote -->
<g id="node20" class="node"><title>\\Horde_Auth_Http_Remote</title>
<polygon fill="none" stroke="black" points="410.689,-252 245.689,-252 245.689,-216 410.689,-216 410.689,-252"/>
<text text-anchor="middle" x="328.189" y="-231.2" font-family="Courier,monospace" font-size="11.00">Horde_Auth_Http_Remote</text>
</g>
<!-- \\Horde_Auth_Http_Remote&#45;&gt;\\Horde_Auth_Base -->
<g id="edge20" class="edge"><title>\\Horde_Auth_Http_Remote&#45;&gt;\\Horde_Auth_Base</title>
<path fill="none" stroke="black" d="M245.602,-240.516C231.174,-244.749 217.205,-251.219 206,-261 106.993,-347.425 83.284,-516.36 77.6925,-583.499"/>
<polygon fill="none" stroke="black" points="74.1826,-583.498 76.9172,-593.734 81.1626,-584.027 74.1826,-583.498"/>
</g>
<!-- \\Horde_Auth_Ftp -->
<g id="node21" class="node"><title>\\Horde_Auth_Ftp</title>
<polygon fill="none" stroke="black" points="383.689,-198 272.689,-198 272.689,-162 383.689,-162 383.689,-198"/>
<text text-anchor="middle" x="328.189" y="-177.2" font-family="Courier,monospace" font-size="11.00">Horde_Auth_Ftp</text>
</g>
<!-- \\Horde_Auth_Ftp&#45;&gt;\\Horde_Auth_Base -->
<g id="edge21" class="edge"><title>\\Horde_Auth_Ftp&#45;&gt;\\Horde_Auth_Base</title>
<path fill="none" stroke="black" d="M272.527,-180.532C249.486,-183.46 223.913,-190.654 206,-207 93.6708,-309.506 77.9392,-509.163 76.0826,-583.344"/>
<polygon fill="none" stroke="black" points="72.576,-583.685 75.8952,-593.746 79.5748,-583.811 72.576,-583.685"/>
</g>
<!-- \\Horde_Auth_Ipbasic -->
<g id="node22" class="node"><title>\\Horde_Auth_Ipbasic</title>
<polygon fill="none" stroke="black" points="397.189,-144 259.189,-144 259.189,-108 397.189,-108 397.189,-144"/>
<text text-anchor="middle" x="328.189" y="-123.2" font-family="Courier,monospace" font-size="11.00">Horde_Auth_Ipbasic</text>
</g>
<!-- \\Horde_Auth_Ipbasic&#45;&gt;\\Horde_Auth_Base -->
<g id="edge22" class="edge"><title>\\Horde_Auth_Ipbasic&#45;&gt;\\Horde_Auth_Base</title>
<path fill="none" stroke="black" d="M259.138,-128.339C239.907,-132.143 220.337,-139.455 206,-153 141.568,-213.873 93.9985,-493.842 80.1381,-583.966"/>
<polygon fill="none" stroke="black" points="76.6573,-583.576 78.6161,-593.988 83.578,-584.627 76.6573,-583.576"/>
</g>
<!-- \\Horde_Auth_Translation -->
<g id="node24" class="node"><title>\\Horde_Auth_Translation</title>
<polygon fill="none" stroke="black" points="687.378,-198 522.378,-198 522.378,-162 687.378,-162 687.378,-198"/>
<text text-anchor="middle" x="604.878" y="-177.2" font-family="Courier,monospace" font-size="11.00">Horde_Auth_Translation</text>
</g>
<!-- \\Horde_Translation_Autodetect -->
<g id="node28" class="node"><title>\\Horde_Translation_Autodetect</title>
<ellipse fill="none" stroke="black" cx="328.189" cy="-18" rx="122.379" ry="18"/>
<text text-anchor="middle" x="328.189" y="-14.3" font-family="Times,serif" font-size="14.00" fill="gray">\Horde_Translation_Autodetect</text>
</g>
<!-- \\Horde_Auth_Translation&#45;&gt;\\Horde_Translation_Autodetect -->
<g id="edge23" class="edge"><title>\\Horde_Auth_Translation&#45;&gt;\\Horde_Translation_Autodetect</title>
<path fill="none" stroke="black" d="M536.623,-161.87C531.585,-159.285 526.764,-156.344 522.378,-153 476.5,-118.025 497.958,-77.6213 450.378,-45 443.878,-40.5434 436.763,-36.809 429.34,-33.6815"/>
<polygon fill="none" stroke="black" points="430.388,-30.3352 419.797,-30.0359 427.89,-36.8742 430.388,-30.3352"/>
</g>
<!-- \\Horde_Auth_Ldap&#45;&gt;\\Horde_Auth_Base -->
<g id="edge24" class="edge"><title>\\Horde_Auth_Ldap&#45;&gt;\\Horde_Auth_Base</title>
<path fill="none" stroke="black" d="M268.987,-933.963C247.226,-930.579 223.558,-923.453 206,-909 120.089,-838.281 89.3396,-699.666 79.7893,-640.195"/>
<polygon fill="none" stroke="black" points="83.2094,-639.405 78.2442,-630.046 76.2891,-640.459 83.2094,-639.405"/>
</g>
<!-- \\Horde_Auth -->
<g id="node26" class="node"><title>\\Horde_Auth</title>
<polygon fill="none" stroke="black" points="646.878,-144 562.878,-144 562.878,-108 646.878,-108 646.878,-144"/>
<text text-anchor="middle" x="604.878" y="-123.2" font-family="Courier,monospace" font-size="11.00">Horde_Auth</text>
</g>
</g>
</svg>
