<?xml version="1.0" encoding="UTF-8" standalone="no"?>
<!DOCTYPE svg PUBLIC "-//W3C//DTD SVG 1.1//EN"
 "http://www.w3.org/Graphics/SVG/1.1/DTD/svg11.dtd">
<!-- Generated by graphviz version 2.38.0 (20140413.2041)
 -->
<!-- Title: G Pages: 1 -->
<svg width="525pt" height="564pt"
 viewBox="0.00 0.00 525.38 564.00" xmlns="http://www.w3.org/2000/svg" xmlns:xlink="http://www.w3.org/1999/xlink">
<g id="graph0" class="graph" transform="scale(1 1) rotate(0) translate(4 560)">
<title>G</title>
<polygon fill="white" stroke="none" points="-4,4 -4,-560 521.378,-560 521.378,4 -4,4"/>
<g id="clust1" class="cluster"><title>cluster_Global</title>
<path fill="none" stroke="gray" d="M43.6892,-98C43.6892,-98 497.378,-98 497.378,-98 503.378,-98 509.378,-104 509.378,-110 509.378,-110 509.378,-536 509.378,-536 509.378,-542 503.378,-548 497.378,-548 497.378,-548 43.6892,-548 43.6892,-548 37.6892,-548 31.6892,-542 31.6892,-536 31.6892,-536 31.6892,-110 31.6892,-110 31.6892,-104 37.6892,-98 43.6892,-98"/>
<text text-anchor="middle" x="270.534" y="-535.2" font-family="Times,serif" font-size="11.00" fill="gray">Global</text>
</g>
<!-- \\Horde_Imsp_Exception -->
<g id="node1" class="node"><title>\\Horde_Imsp_Exception</title>
<polygon fill="none" stroke="black" points="484.878,-196 332.878,-196 332.878,-160 484.878,-160 484.878,-196"/>
<text text-anchor="middle" x="408.878" y="-175.2" font-family="Courier,monospace" font-size="11.00">Horde_Imsp_Exception</text>
</g>
<!-- \\Horde_Exception_Wrapped -->
<g id="node11" class="node"><title>\\Horde_Exception_Wrapped</title>
<ellipse fill="none" stroke="black" cx="122.189" cy="-72" rx="112.38" ry="18"/>
<text text-anchor="middle" x="122.189" y="-68.3" font-family="Times,serif" font-size="14.00" fill="gray">\Horde_Exception_Wrapped</text>
</g>
<!-- \\Horde_Imsp_Exception&#45;&gt;\\Horde_Exception_Wrapped -->
<g id="edge1" class="edge"><title>\\Horde_Imsp_Exception&#45;&gt;\\Horde_Exception_Wrapped</title>
<path fill="none" stroke="black" d="M336.387,-159.837C329.481,-157.216 322.701,-154.278 316.378,-151 280.144,-132.215 281.568,-110.814 244.378,-94 237.254,-90.7791 229.693,-88.0295 221.965,-85.6822"/>
<polygon fill="none" stroke="black" points="222.681,-82.248 212.107,-82.919 220.791,-88.9882 222.681,-82.248"/>
</g>
<!-- \\Horde_Imsp_Auth_Imtest -->
<g id="node2" class="node"><title>\\Horde_Imsp_Auth_Imtest</title>
<polygon fill="none" stroke="black" points="491.378,-412 326.378,-412 326.378,-376 491.378,-376 491.378,-412"/>
<text text-anchor="middle" x="408.878" y="-391.2" font-family="Courier,monospace" font-size="11.00">Horde_Imsp_Auth_Imtest</text>
</g>
<!-- \\Horde_Imsp_Auth_Base -->
<g id="node5" class="node"><title>\\Horde_Imsp_Auth_Base</title>
<polygon fill="none" stroke="black" points="198.189,-466 46.1892,-466 46.1892,-430 198.189,-430 198.189,-466"/>
<text text-anchor="start" x="88.1892" y="-451.2" font-family="Courier,monospace" font-size="11.00">«abstract»</text>
<text text-anchor="start" x="54.1892" y="-439.2" font-family="Courier,monospace" font-size="11.00">Horde_Imsp_Auth_Base</text>
</g>
<!-- \\Horde_Imsp_Auth_Imtest&#45;&gt;\\Horde_Imsp_Auth_Base -->
<g id="edge2" class="edge"><title>\\Horde_Imsp_Auth_Imtest&#45;&gt;\\Horde_Imsp_Auth_Base</title>
<path fill="none" stroke="black" d="M326.298,-409.474C289.345,-416.483 245.666,-424.769 208.3,-431.856"/>
<polygon fill="none" stroke="black" points="207.616,-428.423 198.443,-433.726 208.92,-435.301 207.616,-428.423"/>
</g>
<!-- \\Horde_Imsp_Auth_Plaintext -->
<g id="node3" class="node"><title>\\Horde_Imsp_Auth_Plaintext</title>
<polygon fill="none" stroke="black" points="501.378,-520 316.378,-520 316.378,-484 501.378,-484 501.378,-520"/>
<text text-anchor="middle" x="408.878" y="-499.2" font-family="Courier,monospace" font-size="11.00">Horde_Imsp_Auth_Plaintext</text>
</g>
<!-- \\Horde_Imsp_Auth_Plaintext&#45;&gt;\\Horde_Imsp_Auth_Base -->
<g id="edge3" class="edge"><title>\\Horde_Imsp_Auth_Plaintext&#45;&gt;\\Horde_Imsp_Auth_Base</title>
<path fill="none" stroke="black" d="M316.234,-484.617C281.615,-478.05 242.395,-470.611 208.391,-464.161"/>
<polygon fill="none" stroke="black" points="208.96,-460.707 198.483,-462.282 207.655,-467.584 208.96,-460.707"/>
</g>
<!-- \\Horde_Imsp_Auth_CramMd5 -->
<g id="node4" class="node"><title>\\Horde_Imsp_Auth_CramMd5</title>
<polygon fill="none" stroke="black" points="494.878,-466 322.878,-466 322.878,-430 494.878,-430 494.878,-466"/>
<text text-anchor="middle" x="408.878" y="-445.2" font-family="Courier,monospace" font-size="11.00">Horde_Imsp_Auth_CramMd5</text>
</g>
<!-- \\Horde_Imsp_Auth_CramMd5&#45;&gt;\\Horde_Imsp_Auth_Base -->
<g id="edge4" class="edge"><title>\\Horde_Imsp_Auth_CramMd5&#45;&gt;\\Horde_Imsp_Auth_Base</title>
<path fill="none" stroke="black" d="M322.848,-448C286.755,-448 244.76,-448 208.623,-448"/>
<polygon fill="none" stroke="black" points="208.596,-444.5 198.595,-448 208.595,-451.5 208.596,-444.5"/>
</g>
<!-- \\Horde_Imsp_Options -->
<g id="node6" class="node"><title>\\Horde_Imsp_Options</title>
<polygon fill="none" stroke="black" points="477.878,-304 339.878,-304 339.878,-268 477.878,-268 477.878,-304"/>
<text text-anchor="middle" x="408.878" y="-283.2" font-family="Courier,monospace" font-size="11.00">Horde_Imsp_Options</text>
</g>
<!-- \\Horde_Imsp_Book -->
<g id="node7" class="node"><title>\\Horde_Imsp_Book</title>
<polygon fill="none" stroke="black" points="467.878,-250 349.878,-250 349.878,-214 467.878,-214 467.878,-250"/>
<text text-anchor="middle" x="408.878" y="-229.2" font-family="Courier,monospace" font-size="11.00">Horde_Imsp_Book</text>
</g>
<!-- \\Horde_Imsp_Client_Base -->
<g id="node8" class="node"><title>\\Horde_Imsp_Client_Base</title>
<polygon fill="none" stroke="black" points="204.689,-358 39.6892,-358 39.6892,-322 204.689,-322 204.689,-358"/>
<text text-anchor="start" x="88.1892" y="-343.2" font-family="Courier,monospace" font-size="11.00">«abstract»</text>
<text text-anchor="start" x="47.6892" y="-331.2" font-family="Courier,monospace" font-size="11.00">Horde_Imsp_Client_Base</text>
</g>
<!-- \\Horde_Imsp_Client_Socket -->
<g id="node9" class="node"><title>\\Horde_Imsp_Client_Socket</title>
<polygon fill="none" stroke="black" points="498.378,-358 319.378,-358 319.378,-322 498.378,-322 498.378,-358"/>
<text text-anchor="middle" x="408.878" y="-337.2" font-family="Courier,monospace" font-size="11.00">Horde_Imsp_Client_Socket</text>
</g>
<!-- \\Horde_Imsp_Client_Socket&#45;&gt;\\Horde_Imsp_Client_Base -->
<g id="edge5" class="edge"><title>\\Horde_Imsp_Client_Socket&#45;&gt;\\Horde_Imsp_Client_Base</title>
<path fill="none" stroke="black" d="M319.361,-340C286.227,-340 248.529,-340 215.094,-340"/>
<polygon fill="none" stroke="black" points="214.865,-336.5 204.865,-340 214.865,-343.5 214.865,-336.5"/>
</g>
<!-- \\Horde_Imsp_Translation -->
<g id="node10" class="node"><title>\\Horde_Imsp_Translation</title>
<polygon fill="none" stroke="black" points="491.378,-142 326.378,-142 326.378,-106 491.378,-106 491.378,-142"/>
<text text-anchor="middle" x="408.878" y="-121.2" font-family="Courier,monospace" font-size="11.00">Horde_Imsp_Translation</text>
</g>
<!-- \\Horde_Translation_Autodetect -->
<g id="node12" class="node"><title>\\Horde_Translation_Autodetect</title>
<ellipse fill="none" stroke="black" cx="122.189" cy="-18" rx="122.379" ry="18"/>
<text text-anchor="middle" x="122.189" y="-14.3" font-family="Times,serif" font-size="14.00" fill="gray">\Horde_Translation_Autodetect</text>
</g>
<!-- \\Horde_Imsp_Translation&#45;&gt;\\Horde_Translation_Autodetect -->
<g id="edge6" class="edge"><title>\\Horde_Imsp_Translation&#45;&gt;\\Horde_Translation_Autodetect</title>
<path fill="none" stroke="black" d="M376.245,-105.993C343.977,-88.2845 292.02,-61.5669 244.378,-45 233.085,-41.0729 220.996,-37.58 208.986,-34.5175"/>
<polygon fill="none" stroke="black" points="209.483,-31.0354 198.936,-32.0462 207.811,-37.8329 209.483,-31.0354"/>
</g>
</g>
</svg>
