<?xml version="1.0" encoding="UTF-8" standalone="no"?>
<!DOCTYPE svg PUBLIC "-//W3C//DTD SVG 1.1//EN"
 "http://www.w3.org/Graphics/SVG/1.1/DTD/svg11.dtd">
<!-- Generated by graphviz version 2.38.0 (20140413.2041)
 -->
<!-- Title: G Pages: 1 -->
<svg width="225pt" height="312pt"
 viewBox="0.00 0.00 225.00 312.00" xmlns="http://www.w3.org/2000/svg" xmlns:xlink="http://www.w3.org/1999/xlink">
<g id="graph0" class="graph" transform="scale(1 1) rotate(0) translate(4 308)">
<title>G</title>
<polygon fill="white" stroke="none" points="-4,4 -4,-308 221,-308 221,4 -4,4"/>
<g id="clust1" class="cluster"><title>cluster_Global</title>
<path fill="none" stroke="gray" d="M20,-8C20,-8 197,-8 197,-8 203,-8 209,-14 209,-20 209,-20 209,-284 209,-284 209,-290 203,-296 197,-296 197,-296 20,-296 20,-296 14,-296 8,-290 8,-284 8,-284 8,-20 8,-20 8,-14 14,-8 20,-8"/>
<text text-anchor="middle" x="108.5" y="-283.2" font-family="Times,serif" font-size="11.00" fill="gray">Global</text>
</g>
<!-- \\Horde_Release_Whups -->
<g id="node1" class="node"><title>\\Horde_Release_Whups</title>
<polygon fill="none" stroke="black" points="181,-268 36,-268 36,-232 181,-232 181,-268"/>
<text text-anchor="middle" x="108.5" y="-247.2" font-family="Courier,monospace" font-size="11.00">Horde_Release_Whups</text>
</g>
<!-- \\Horde_Release_MailingList -->
<g id="node2" class="node"><title>\\Horde_Release_MailingList</title>
<polygon fill="none" stroke="black" points="201,-214 16,-214 16,-178 201,-178 201,-214"/>
<text text-anchor="middle" x="108.5" y="-193.2" font-family="Courier,monospace" font-size="11.00">Horde_Release_MailingList</text>
</g>
<!-- \\Horde_Release_Website -->
<g id="node3" class="node"><title>\\Horde_Release_Website</title>
<polygon fill="none" stroke="black" points="187.5,-160 29.5,-160 29.5,-124 187.5,-124 187.5,-160"/>
<text text-anchor="middle" x="108.5" y="-139.2" font-family="Courier,monospace" font-size="11.00">Horde_Release_Website</text>
</g>
<!-- \\Horde_Release_Sentinel -->
<g id="node4" class="node"><title>\\Horde_Release_Sentinel</title>
<polygon fill="none" stroke="black" points="191,-106 26,-106 26,-70 191,-70 191,-106"/>
<text text-anchor="middle" x="108.5" y="-85.2" font-family="Courier,monospace" font-size="11.00">Horde_Release_Sentinel</text>
</g>
<!-- \\Horde_Release -->
<g id="node5" class="node"><title>\\Horde_Release</title>
<polygon fill="none" stroke="black" points="160.5,-52 56.5,-52 56.5,-16 160.5,-16 160.5,-52"/>
<text text-anchor="middle" x="108.5" y="-31.2" font-family="Courier,monospace" font-size="11.00">Horde_Release</text>
</g>
</g>
</svg>
