<?xml version="1.0" encoding="UTF-8" standalone="no"?>
<!DOCTYPE svg PUBLIC "-//W3C//DTD SVG 1.1//EN"
 "http://www.w3.org/Graphics/SVG/1.1/DTD/svg11.dtd">
<!-- Generated by graphviz version 2.38.0 (20140413.2041)
 -->
<!-- Title: G Pages: 1 -->
<svg width="873pt" height="834pt"
 viewBox="0.00 0.00 873.38 834.00" xmlns="http://www.w3.org/2000/svg" xmlns:xlink="http://www.w3.org/1999/xlink">
<g id="graph0" class="graph" transform="scale(1 1) rotate(0) translate(4 830)">
<title>G</title>
<polygon fill="white" stroke="none" points="-4,4 -4,-830 869.378,-830 869.378,4 -4,4"/>
<g id="clust1" class="cluster"><title>cluster_Global</title>
<path fill="none" stroke="gray" d="M20,-98C20,-98 845.378,-98 845.378,-98 851.378,-98 857.378,-104 857.378,-110 857.378,-110 857.378,-806 857.378,-806 857.378,-812 851.378,-818 845.378,-818 845.378,-818 20,-818 20,-818 14,-818 8,-812 8,-806 8,-806 8,-110 8,-110 8,-104 14,-98 20,-98"/>
<text text-anchor="middle" x="432.689" y="-805.2" font-family="Times,serif" font-size="11.00" fill="gray">Global</text>
</g>
<!-- \\Horde_Itip_Exception -->
<g id="node1" class="node"><title>\\Horde_Itip_Exception</title>
<polygon fill="none" stroke="black" points="802.378,-250 650.378,-250 650.378,-214 802.378,-214 802.378,-250"/>
<text text-anchor="middle" x="726.378" y="-229.2" font-family="Courier,monospace" font-size="11.00">Horde_Itip_Exception</text>
</g>
<!-- \\Horde_Exception_Wrapped -->
<g id="node21" class="node"><title>\\Horde_Exception_Wrapped</title>
<ellipse fill="none" stroke="black" cx="409.189" cy="-72" rx="112.38" ry="18"/>
<text text-anchor="middle" x="409.189" y="-68.3" font-family="Times,serif" font-size="14.00" fill="gray">\Horde_Exception_Wrapped</text>
</g>
<!-- \\Horde_Itip_Exception&#45;&gt;\\Horde_Exception_Wrapped -->
<g id="edge1" class="edge"><title>\\Horde_Itip_Exception&#45;&gt;\\Horde_Exception_Wrapped</title>
<path fill="none" stroke="black" d="M650.298,-224.904C633.822,-220.84 617.191,-214.584 603.378,-205 555.066,-171.478 580.322,-126.592 531.378,-94 526.304,-90.6212 520.858,-87.7221 515.184,-85.2378"/>
<polygon fill="none" stroke="black" points="516.036,-81.8131 505.447,-81.437 513.49,-88.3338 516.036,-81.8131"/>
</g>
<!-- \\Horde_Itip_Event_Vtodo -->
<g id="node2" class="node"><title>\\Horde_Itip_Event_Vtodo</title>
<polygon fill="none" stroke="black" points="808.878,-790 643.878,-790 643.878,-754 808.878,-754 808.878,-790"/>
<text text-anchor="middle" x="726.378" y="-769.2" font-family="Courier,monospace" font-size="11.00">Horde_Itip_Event_Vtodo</text>
</g>
<!-- \\Horde_Itip_Event -->
<g id="node17" class="node"><title>\\Horde_Itip_Event</title>
<polygon fill="none" stroke="black" points="471.689,-763 346.689,-763 346.689,-727 471.689,-727 471.689,-763"/>
<text text-anchor="middle" x="409.189" y="-742.2" font-family="Courier,monospace" font-size="11.00">Horde_Itip_Event</text>
</g>
<!-- \\Horde_Itip_Event_Vtodo&#45;&gt;\\Horde_Itip_Event -->
<g id="edge2" class="edge"><title>\\Horde_Itip_Event_Vtodo&#45;&gt;\\Horde_Itip_Event</title>
<path fill="none" stroke="black" stroke-dasharray="1,5" d="M643.799,-765.012C593.649,-760.716 529.995,-755.263 481.801,-751.134"/>
<polygon fill="none" stroke="black" points="482.024,-747.641 471.762,-750.275 481.427,-754.615 482.024,-747.641"/>
</g>
<!-- \\Horde_Itip_Event_Vevent -->
<g id="node3" class="node"><title>\\Horde_Itip_Event_Vevent</title>
<polygon fill="none" stroke="black" points="812.378,-736 640.378,-736 640.378,-700 812.378,-700 812.378,-736"/>
<text text-anchor="middle" x="726.378" y="-715.2" font-family="Courier,monospace" font-size="11.00">Horde_Itip_Event_Vevent</text>
</g>
<!-- \\Horde_Itip_Event_Vevent&#45;&gt;\\Horde_Itip_Event -->
<g id="edge3" class="edge"><title>\\Horde_Itip_Event_Vevent&#45;&gt;\\Horde_Itip_Event</title>
<path fill="none" stroke="black" stroke-dasharray="1,5" d="M640.084,-725.307C590.657,-729.541 529.117,-734.812 482.149,-738.836"/>
<polygon fill="none" stroke="black" points="481.721,-735.359 472.056,-739.7 482.319,-742.334 481.721,-735.359"/>
</g>
<!-- \\Horde_Itip_Response -->
<g id="node4" class="node"><title>\\Horde_Itip_Response</title>
<polygon fill="none" stroke="black" points="481.689,-574 336.689,-574 336.689,-538 481.689,-538 481.689,-574"/>
<text text-anchor="middle" x="409.189" y="-553.2" font-family="Courier,monospace" font-size="11.00">Horde_Itip_Response</text>
</g>
<!-- \\Horde_Itip_Response_Options_Horde -->
<g id="node5" class="node"><title>\\Horde_Itip_Response_Options_Horde</title>
<polygon fill="none" stroke="black" points="845.878,-682 606.878,-682 606.878,-646 845.878,-646 845.878,-682"/>
<text text-anchor="middle" x="726.378" y="-661.2" font-family="Courier,monospace" font-size="11.00">Horde_Itip_Response_Options_Horde</text>
</g>
<!-- \\Horde_Itip_Response_Options_Base -->
<g id="node7" class="node"><title>\\Horde_Itip_Response_Options_Base</title>
<polygon fill="none" stroke="black" points="525.689,-655 292.689,-655 292.689,-619 525.689,-619 525.689,-655"/>
<text text-anchor="start" x="375.189" y="-640.2" font-family="Courier,monospace" font-size="11.00">«abstract»</text>
<text text-anchor="start" x="300.689" y="-628.2" font-family="Courier,monospace" font-size="11.00">Horde_Itip_Response_Options_Base</text>
</g>
<!-- \\Horde_Itip_Response_Options_Horde&#45;&gt;\\Horde_Itip_Response_Options_Base -->
<g id="edge4" class="edge"><title>\\Horde_Itip_Response_Options_Horde&#45;&gt;\\Horde_Itip_Response_Options_Base</title>
<path fill="none" stroke="black" d="M606.668,-653.831C583.638,-651.858 559.427,-649.784 536.174,-647.792"/>
<polygon fill="none" stroke="black" points="536.182,-644.28 525.92,-646.914 535.585,-651.255 536.182,-644.28"/>
</g>
<!-- \\Horde_Itip_Response_Options_Kolab -->
<g id="node6" class="node"><title>\\Horde_Itip_Response_Options_Kolab</title>
<polygon fill="none" stroke="black" points="845.878,-628 606.878,-628 606.878,-592 845.878,-592 845.878,-628"/>
<text text-anchor="middle" x="726.378" y="-607.2" font-family="Courier,monospace" font-size="11.00">Horde_Itip_Response_Options_Kolab</text>
</g>
<!-- \\Horde_Itip_Response_Options_Kolab&#45;&gt;\\Horde_Itip_Response_Options_Base -->
<g id="edge5" class="edge"><title>\\Horde_Itip_Response_Options_Kolab&#45;&gt;\\Horde_Itip_Response_Options_Base</title>
<path fill="none" stroke="black" d="M606.668,-620.169C583.638,-622.142 559.427,-624.216 536.174,-626.208"/>
<polygon fill="none" stroke="black" points="535.585,-622.745 525.92,-627.086 536.182,-629.72 535.585,-622.745"/>
</g>
<!-- \\Horde_Itip_Response_Options -->
<g id="node18" class="node"><title>\\Horde_Itip_Response_Options</title>
<polygon fill="none" stroke="black" points="215,-655 16,-655 16,-619 215,-619 215,-655"/>
<text text-anchor="middle" x="115.5" y="-634.2" font-family="Courier,monospace" font-size="11.00">Horde_Itip_Response_Options</text>
</g>
<!-- \\Horde_Itip_Response_Options_Base&#45;&gt;\\Horde_Itip_Response_Options -->
<g id="edge6" class="edge"><title>\\Horde_Itip_Response_Options_Base&#45;&gt;\\Horde_Itip_Response_Options</title>
<path fill="none" stroke="black" stroke-dasharray="1,5" d="M292.487,-637C270.28,-637 247.097,-637 225.123,-637"/>
<polygon fill="none" stroke="black" points="225.12,-633.5 215.12,-637 225.12,-640.5 225.12,-633.5"/>
</g>
<!-- \\Horde_Itip_Response_Vtodo -->
<g id="node8" class="node"><title>\\Horde_Itip_Response_Vtodo</title>
<polygon fill="none" stroke="black" points="818.878,-574 633.878,-574 633.878,-538 818.878,-538 818.878,-574"/>
<text text-anchor="middle" x="726.378" y="-553.2" font-family="Courier,monospace" font-size="11.00">Horde_Itip_Response_Vtodo</text>
</g>
<!-- \\Horde_Itip_Response_Vtodo&#45;&gt;\\Horde_Itip_Response -->
<g id="edge7" class="edge"><title>\\Horde_Itip_Response_Vtodo&#45;&gt;\\Horde_Itip_Response</title>
<path fill="none" stroke="black" d="M633.789,-556C588.946,-556 535.399,-556 491.95,-556"/>
<polygon fill="none" stroke="black" points="491.705,-552.5 481.705,-556 491.705,-559.5 491.705,-552.5"/>
</g>
<!-- \\Horde_Itip_Response_Type_Accept -->
<g id="node9" class="node"><title>\\Horde_Itip_Response_Type_Accept</title>
<polygon fill="none" stroke="black" points="839.378,-520 613.378,-520 613.378,-484 839.378,-484 839.378,-520"/>
<text text-anchor="middle" x="726.378" y="-499.2" font-family="Courier,monospace" font-size="11.00">Horde_Itip_Response_Type_Accept</text>
</g>
<!-- \\Horde_Itip_Response_Type_Base -->
<g id="node11" class="node"><title>\\Horde_Itip_Response_Type_Base</title>
<polygon fill="none" stroke="black" points="515.189,-466 303.189,-466 303.189,-430 515.189,-430 515.189,-466"/>
<text text-anchor="start" x="375.189" y="-451.2" font-family="Courier,monospace" font-size="11.00">«abstract»</text>
<text text-anchor="start" x="311.189" y="-439.2" font-family="Courier,monospace" font-size="11.00">Horde_Itip_Response_Type_Base</text>
</g>
<!-- \\Horde_Itip_Response_Type_Accept&#45;&gt;\\Horde_Itip_Response_Type_Base -->
<g id="edge8" class="edge"><title>\\Horde_Itip_Response_Type_Accept&#45;&gt;\\Horde_Itip_Response_Type_Base</title>
<path fill="none" stroke="black" d="M619.987,-483.944C589.547,-478.729 556.178,-473.012 525.185,-467.702"/>
<polygon fill="none" stroke="black" points="525.661,-464.232 515.213,-465.993 524.479,-471.132 525.661,-464.232"/>
</g>
<!-- \\Horde_Itip_Response_Type_Tentative -->
<g id="node10" class="node"><title>\\Horde_Itip_Response_Type_Tentative</title>
<polygon fill="none" stroke="black" points="849.378,-466 603.378,-466 603.378,-430 849.378,-430 849.378,-466"/>
<text text-anchor="middle" x="726.378" y="-445.2" font-family="Courier,monospace" font-size="11.00">Horde_Itip_Response_Type_Tentative</text>
</g>
<!-- \\Horde_Itip_Response_Type_Tentative&#45;&gt;\\Horde_Itip_Response_Type_Base -->
<g id="edge9" class="edge"><title>\\Horde_Itip_Response_Type_Tentative&#45;&gt;\\Horde_Itip_Response_Type_Base</title>
<path fill="none" stroke="black" d="M603.067,-448C577.592,-448 550.821,-448 525.605,-448"/>
<polygon fill="none" stroke="black" points="525.278,-444.5 515.278,-448 525.278,-451.5 525.278,-444.5"/>
</g>
<!-- \\Horde_Itip_Response_Type -->
<g id="node19" class="node"><title>\\Horde_Itip_Response_Type</title>
<polygon fill="none" stroke="black" points="205,-466 26,-466 26,-430 205,-430 205,-466"/>
<text text-anchor="middle" x="115.5" y="-445.2" font-family="Courier,monospace" font-size="11.00">Horde_Itip_Response_Type</text>
</g>
<!-- \\Horde_Itip_Response_Type_Base&#45;&gt;\\Horde_Itip_Response_Type -->
<g id="edge10" class="edge"><title>\\Horde_Itip_Response_Type_Base&#45;&gt;\\Horde_Itip_Response_Type</title>
<path fill="none" stroke="black" stroke-dasharray="1,5" d="M302.883,-448C274.397,-448 243.669,-448 215.54,-448"/>
<polygon fill="none" stroke="black" points="215.304,-444.5 205.304,-448 215.304,-451.5 215.304,-444.5"/>
</g>
<!-- \\Horde_Itip_Response_Type_Decline -->
<g id="node12" class="node"><title>\\Horde_Itip_Response_Type_Decline</title>
<polygon fill="none" stroke="black" points="842.878,-412 609.878,-412 609.878,-376 842.878,-376 842.878,-412"/>
<text text-anchor="middle" x="726.378" y="-391.2" font-family="Courier,monospace" font-size="11.00">Horde_Itip_Response_Type_Decline</text>
</g>
<!-- \\Horde_Itip_Response_Type_Decline&#45;&gt;\\Horde_Itip_Response_Type_Base -->
<g id="edge11" class="edge"><title>\\Horde_Itip_Response_Type_Decline&#45;&gt;\\Horde_Itip_Response_Type_Base</title>
<path fill="none" stroke="black" d="M619.987,-412.056C589.547,-417.271 556.178,-422.988 525.185,-428.298"/>
<polygon fill="none" stroke="black" points="524.479,-424.868 515.213,-430.007 525.661,-431.768 524.479,-424.868"/>
</g>
<!-- \\Horde_Itip_Resource_Identity -->
<g id="node13" class="node"><title>\\Horde_Itip_Resource_Identity</title>
<polygon fill="none" stroke="black" points="829.378,-358 623.378,-358 623.378,-322 829.378,-322 829.378,-358"/>
<text text-anchor="middle" x="726.378" y="-337.2" font-family="Courier,monospace" font-size="11.00">Horde_Itip_Resource_Identity</text>
</g>
<!-- \\Horde_Itip_Resource -->
<g id="node20" class="node"><title>\\Horde_Itip_Resource</title>
<polygon fill="none" stroke="black" points="481.689,-331 336.689,-331 336.689,-295 481.689,-295 481.689,-331"/>
<text text-anchor="middle" x="409.189" y="-310.2" font-family="Courier,monospace" font-size="11.00">Horde_Itip_Resource</text>
</g>
<!-- \\Horde_Itip_Resource_Identity&#45;&gt;\\Horde_Itip_Resource -->
<g id="edge12" class="edge"><title>\\Horde_Itip_Resource_Identity&#45;&gt;\\Horde_Itip_Resource</title>
<path fill="none" stroke="black" stroke-dasharray="1,5" d="M623.045,-331.234C580.624,-327.6 532.086,-323.442 492.082,-320.015"/>
<polygon fill="none" stroke="black" points="492.367,-316.527 482.105,-319.161 491.77,-323.501 492.367,-316.527"/>
</g>
<!-- \\Horde_Itip_Resource_Base -->
<g id="node14" class="node"><title>\\Horde_Itip_Resource_Base</title>
<polygon fill="none" stroke="black" points="815.878,-304 636.878,-304 636.878,-268 815.878,-268 815.878,-304"/>
<text text-anchor="middle" x="726.378" y="-283.2" font-family="Courier,monospace" font-size="11.00">Horde_Itip_Resource_Base</text>
</g>
<!-- \\Horde_Itip_Resource_Base&#45;&gt;\\Horde_Itip_Resource -->
<g id="edge13" class="edge"><title>\\Horde_Itip_Resource_Base&#45;&gt;\\Horde_Itip_Resource</title>
<path fill="none" stroke="black" stroke-dasharray="1,5" d="M636.742,-293.593C591.302,-297.485 536.334,-302.194 491.923,-305.998"/>
<polygon fill="none" stroke="black" points="491.411,-302.529 481.746,-306.87 492.008,-309.504 491.411,-302.529"/>
</g>
<!-- \\Horde_Itip_Translation -->
<g id="node15" class="node"><title>\\Horde_Itip_Translation</title>
<polygon fill="none" stroke="black" points="808.878,-196 643.878,-196 643.878,-160 808.878,-160 808.878,-196"/>
<text text-anchor="middle" x="726.378" y="-175.2" font-family="Courier,monospace" font-size="11.00">Horde_Itip_Translation</text>
</g>
<!-- \\Horde_Translation_Autodetect -->
<g id="node22" class="node"><title>\\Horde_Translation_Autodetect</title>
<ellipse fill="none" stroke="black" cx="409.189" cy="-18" rx="122.379" ry="18"/>
<text text-anchor="middle" x="409.189" y="-14.3" font-family="Times,serif" font-size="14.00" fill="gray">\Horde_Translation_Autodetect</text>
</g>
<!-- \\Horde_Itip_Translation&#45;&gt;\\Horde_Translation_Autodetect -->
<g id="edge14" class="edge"><title>\\Horde_Itip_Translation&#45;&gt;\\Horde_Translation_Autodetect</title>
<path fill="none" stroke="black" d="M643.743,-168.92C629.496,-164.896 615.407,-159.158 603.378,-151 556.245,-119.033 578.489,-77.0006 531.378,-45 524.723,-40.4793 517.432,-36.7029 509.833,-33.5498"/>
<polygon fill="none" stroke="black" points="511.024,-30.2584 500.432,-30.0048 508.554,-36.8082 511.024,-30.2584"/>
</g>
<!-- \\Horde_Itip -->
<g id="node16" class="node"><title>\\Horde_Itip</title>
<polygon fill="none" stroke="black" points="768.378,-142 684.378,-142 684.378,-106 768.378,-106 768.378,-142"/>
<text text-anchor="middle" x="726.378" y="-121.2" font-family="Courier,monospace" font-size="11.00">Horde_Itip</text>
</g>
</g>
</svg>
